<?xml version="1.0" encoding="utf-8" standalone="no"?>
<!DOCTYPE svg PUBLIC "-//W3C//DTD SVG 1.1//EN"
  "http://www.w3.org/Graphics/SVG/1.1/DTD/svg11.dtd">
<svg xmlns:xlink="http://www.w3.org/1999/xlink" width="300.780887pt" height="225.201673pt" viewBox="0 0 300.780887 225.201673" xmlns="http://www.w3.org/2000/svg" version="1.1">
 <metadata>
  <rdf:RDF xmlns:dc="http://purl.org/dc/elements/1.1/" xmlns:cc="http://creativecommons.org/ns#" xmlns:rdf="http://www.w3.org/1999/02/22-rdf-syntax-ns#">
   <cc:Work>
    <dc:type rdf:resource="http://purl.org/dc/dcmitype/StillImage"/>
    <dc:date>2024-03-21T16:57:38.272075</dc:date>
    <dc:format>image/svg+xml</dc:format>
    <dc:creator>
     <cc:Agent>
      <dc:title>Matplotlib v3.8.2, https://matplotlib.org/</dc:title>
     </cc:Agent>
    </dc:creator>
   </cc:Work>
  </rdf:RDF>
 </metadata>
 <defs>
  <style type="text/css">*{stroke-linejoin: round; stroke-linecap: butt}</style>
 </defs>
 <g id="figure_1">
  <g id="patch_1">
   <path d="M 0 225.201673 
L 300.780887 225.201673 
L 300.780887 0 
L 0 0 
z
" style="fill: #ffffff"/>
  </g>
  <g id="axes_1">
   <g id="patch_2">
    <path d="M 43.585938 191.971986 
L 285.239481 191.971986 
L 285.239481 17.357812 
L 43.585938 17.357812 
z
" style="fill: #ffffff"/>
   </g>
   <g id="matplotlib.axis_1">
    <g id="xtick_1">
     <g id="line2d_1">
      <path d="M 43.585938 191.971986 
L 43.585938 17.357812 
" clip-path="url(#p76a4f3372f)" style="fill: none; stroke: #b0b0b0; stroke-width: 0.8; stroke-linecap: square"/>
     </g>
     <g id="line2d_2">
      <defs>
       <path id="mafa4e430e0" d="M 0 0 
L 0 -3.5 
" style="stroke: #000000; stroke-width: 0.8"/>
      </defs>
      <g>
       <use xlink:href="#mafa4e430e0" x="43.585938" y="191.971986" style="stroke: #000000; stroke-width: 0.8"/>
      </g>
     </g>
     <g id="text_1">
      <!-- 0 -->
      <g transform="translate(40.805469 202.629798) scale(0.1 -0.1)">
       <defs>
        <path id="ArialMT-30" d="M 266 2259 
Q 266 3072 433 3567 
Q 600 4063 929 4331 
Q 1259 4600 1759 4600 
Q 2128 4600 2406 4451 
Q 2684 4303 2865 4023 
Q 3047 3744 3150 3342 
Q 3253 2941 3253 2259 
Q 3253 1453 3087 958 
Q 2922 463 2592 192 
Q 2263 -78 1759 -78 
Q 1097 -78 719 397 
Q 266 969 266 2259 
z
M 844 2259 
Q 844 1131 1108 757 
Q 1372 384 1759 384 
Q 2147 384 2411 759 
Q 2675 1134 2675 2259 
Q 2675 3391 2411 3762 
Q 2147 4134 1753 4134 
Q 1366 4134 1134 3806 
Q 844 3388 844 2259 
z
" transform="scale(0.015625)"/>
       </defs>
       <use xlink:href="#ArialMT-30"/>
      </g>
     </g>
    </g>
    <g id="xtick_2">
     <g id="line2d_3">
      <path d="M 91.916646 191.971986 
L 91.916646 17.357812 
" clip-path="url(#p76a4f3372f)" style="fill: none; stroke: #b0b0b0; stroke-width: 0.8; stroke-linecap: square"/>
     </g>
     <g id="line2d_4">
      <g>
       <use xlink:href="#mafa4e430e0" x="91.916646" y="191.971986" style="stroke: #000000; stroke-width: 0.8"/>
      </g>
     </g>
     <g id="text_2">
      <!-- 20 -->
      <g transform="translate(86.355709 202.629798) scale(0.1 -0.1)">
       <defs>
        <path id="ArialMT-32" d="M 3222 541 
L 3222 0 
L 194 0 
Q 188 203 259 391 
Q 375 700 629 1000 
Q 884 1300 1366 1694 
Q 2113 2306 2375 2664 
Q 2638 3022 2638 3341 
Q 2638 3675 2398 3904 
Q 2159 4134 1775 4134 
Q 1369 4134 1125 3890 
Q 881 3647 878 3216 
L 300 3275 
Q 359 3922 746 4261 
Q 1134 4600 1788 4600 
Q 2447 4600 2831 4234 
Q 3216 3869 3216 3328 
Q 3216 3053 3103 2787 
Q 2991 2522 2730 2228 
Q 2469 1934 1863 1422 
Q 1356 997 1212 845 
Q 1069 694 975 541 
L 3222 541 
z
" transform="scale(0.015625)"/>
       </defs>
       <use xlink:href="#ArialMT-32"/>
       <use xlink:href="#ArialMT-30" x="55.615234"/>
      </g>
     </g>
    </g>
    <g id="xtick_3">
     <g id="line2d_5">
      <path d="M 140.247355 191.971986 
L 140.247355 17.357812 
" clip-path="url(#p76a4f3372f)" style="fill: none; stroke: #b0b0b0; stroke-width: 0.8; stroke-linecap: square"/>
     </g>
     <g id="line2d_6">
      <g>
       <use xlink:href="#mafa4e430e0" x="140.247355" y="191.971986" style="stroke: #000000; stroke-width: 0.8"/>
      </g>
     </g>
     <g id="text_3">
      <!-- 40 -->
      <g transform="translate(134.686417 202.629798) scale(0.1 -0.1)">
       <defs>
        <path id="ArialMT-34" d="M 2069 0 
L 2069 1097 
L 81 1097 
L 81 1613 
L 2172 4581 
L 2631 4581 
L 2631 1613 
L 3250 1613 
L 3250 1097 
L 2631 1097 
L 2631 0 
L 2069 0 
z
M 2069 1613 
L 2069 3678 
L 634 1613 
L 2069 1613 
z
" transform="scale(0.015625)"/>
       </defs>
       <use xlink:href="#ArialMT-34"/>
       <use xlink:href="#ArialMT-30" x="55.615234"/>
      </g>
     </g>
    </g>
    <g id="xtick_4">
     <g id="line2d_7">
      <path d="M 188.578063 191.971986 
L 188.578063 17.357812 
" clip-path="url(#p76a4f3372f)" style="fill: none; stroke: #b0b0b0; stroke-width: 0.8; stroke-linecap: square"/>
     </g>
     <g id="line2d_8">
      <g>
       <use xlink:href="#mafa4e430e0" x="188.578063" y="191.971986" style="stroke: #000000; stroke-width: 0.8"/>
      </g>
     </g>
     <g id="text_4">
      <!-- 60 -->
      <g transform="translate(183.017126 202.629798) scale(0.1 -0.1)">
       <defs>
        <path id="ArialMT-36" d="M 3184 3459 
L 2625 3416 
Q 2550 3747 2413 3897 
Q 2184 4138 1850 4138 
Q 1581 4138 1378 3988 
Q 1113 3794 959 3422 
Q 806 3050 800 2363 
Q 1003 2672 1297 2822 
Q 1591 2972 1913 2972 
Q 2475 2972 2870 2558 
Q 3266 2144 3266 1488 
Q 3266 1056 3080 686 
Q 2894 316 2569 119 
Q 2244 -78 1831 -78 
Q 1128 -78 684 439 
Q 241 956 241 2144 
Q 241 3472 731 4075 
Q 1159 4600 1884 4600 
Q 2425 4600 2770 4297 
Q 3116 3994 3184 3459 
z
M 888 1484 
Q 888 1194 1011 928 
Q 1134 663 1356 523 
Q 1578 384 1822 384 
Q 2178 384 2434 671 
Q 2691 959 2691 1453 
Q 2691 1928 2437 2201 
Q 2184 2475 1800 2475 
Q 1419 2475 1153 2201 
Q 888 1928 888 1484 
z
" transform="scale(0.015625)"/>
       </defs>
       <use xlink:href="#ArialMT-36"/>
       <use xlink:href="#ArialMT-30" x="55.615234"/>
      </g>
     </g>
    </g>
    <g id="xtick_5">
     <g id="line2d_9">
      <path d="M 236.908772 191.971986 
L 236.908772 17.357812 
" clip-path="url(#p76a4f3372f)" style="fill: none; stroke: #b0b0b0; stroke-width: 0.8; stroke-linecap: square"/>
     </g>
     <g id="line2d_10">
      <g>
       <use xlink:href="#mafa4e430e0" x="236.908772" y="191.971986" style="stroke: #000000; stroke-width: 0.8"/>
      </g>
     </g>
     <g id="text_5">
      <!-- 80 -->
      <g transform="translate(231.347835 202.629798) scale(0.1 -0.1)">
       <defs>
        <path id="ArialMT-38" d="M 1131 2484 
Q 781 2613 612 2850 
Q 444 3088 444 3419 
Q 444 3919 803 4259 
Q 1163 4600 1759 4600 
Q 2359 4600 2725 4251 
Q 3091 3903 3091 3403 
Q 3091 3084 2923 2848 
Q 2756 2613 2416 2484 
Q 2838 2347 3058 2040 
Q 3278 1734 3278 1309 
Q 3278 722 2862 322 
Q 2447 -78 1769 -78 
Q 1091 -78 675 323 
Q 259 725 259 1325 
Q 259 1772 486 2073 
Q 713 2375 1131 2484 
z
M 1019 3438 
Q 1019 3113 1228 2906 
Q 1438 2700 1772 2700 
Q 2097 2700 2305 2904 
Q 2513 3109 2513 3406 
Q 2513 3716 2298 3927 
Q 2084 4138 1766 4138 
Q 1444 4138 1231 3931 
Q 1019 3725 1019 3438 
z
M 838 1322 
Q 838 1081 952 856 
Q 1066 631 1291 507 
Q 1516 384 1775 384 
Q 2178 384 2440 643 
Q 2703 903 2703 1303 
Q 2703 1709 2433 1975 
Q 2163 2241 1756 2241 
Q 1359 2241 1098 1978 
Q 838 1716 838 1322 
z
" transform="scale(0.015625)"/>
       </defs>
       <use xlink:href="#ArialMT-38"/>
       <use xlink:href="#ArialMT-30" x="55.615234"/>
      </g>
     </g>
    </g>
    <g id="xtick_6">
     <g id="line2d_11">
      <path d="M 285.239481 191.971986 
L 285.239481 17.357812 
" clip-path="url(#p76a4f3372f)" style="fill: none; stroke: #b0b0b0; stroke-width: 0.8; stroke-linecap: square"/>
     </g>
     <g id="line2d_12">
      <g>
       <use xlink:href="#mafa4e430e0" x="285.239481" y="191.971986" style="stroke: #000000; stroke-width: 0.8"/>
      </g>
     </g>
     <g id="text_6">
      <!-- 100 -->
      <g transform="translate(276.898075 202.629798) scale(0.1 -0.1)">
       <defs>
        <path id="ArialMT-31" d="M 2384 0 
L 1822 0 
L 1822 3584 
Q 1619 3391 1289 3197 
Q 959 3003 697 2906 
L 697 3450 
Q 1169 3672 1522 3987 
Q 1875 4303 2022 4600 
L 2384 4600 
L 2384 0 
z
" transform="scale(0.015625)"/>
       </defs>
       <use xlink:href="#ArialMT-31"/>
       <use xlink:href="#ArialMT-30" x="55.615234"/>
       <use xlink:href="#ArialMT-30" x="111.230469"/>
      </g>
     </g>
    </g>
    <g id="text_7">
     <!-- Time (s) -->
     <g transform="translate(146.271303 215.896986) scale(0.1 -0.1)">
      <defs>
       <path id="ArialMT-54" d="M 1659 0 
L 1659 4041 
L 150 4041 
L 150 4581 
L 3781 4581 
L 3781 4041 
L 2266 4041 
L 2266 0 
L 1659 0 
z
" transform="scale(0.015625)"/>
       <path id="ArialMT-69" d="M 425 3934 
L 425 4581 
L 988 4581 
L 988 3934 
L 425 3934 
z
M 425 0 
L 425 3319 
L 988 3319 
L 988 0 
L 425 0 
z
" transform="scale(0.015625)"/>
       <path id="ArialMT-6d" d="M 422 0 
L 422 3319 
L 925 3319 
L 925 2853 
Q 1081 3097 1340 3245 
Q 1600 3394 1931 3394 
Q 2300 3394 2536 3241 
Q 2772 3088 2869 2813 
Q 3263 3394 3894 3394 
Q 4388 3394 4653 3120 
Q 4919 2847 4919 2278 
L 4919 0 
L 4359 0 
L 4359 2091 
Q 4359 2428 4304 2576 
Q 4250 2725 4106 2815 
Q 3963 2906 3769 2906 
Q 3419 2906 3187 2673 
Q 2956 2441 2956 1928 
L 2956 0 
L 2394 0 
L 2394 2156 
Q 2394 2531 2256 2718 
Q 2119 2906 1806 2906 
Q 1569 2906 1367 2781 
Q 1166 2656 1075 2415 
Q 984 2175 984 1722 
L 984 0 
L 422 0 
z
" transform="scale(0.015625)"/>
       <path id="ArialMT-65" d="M 2694 1069 
L 3275 997 
Q 3138 488 2766 206 
Q 2394 -75 1816 -75 
Q 1088 -75 661 373 
Q 234 822 234 1631 
Q 234 2469 665 2931 
Q 1097 3394 1784 3394 
Q 2450 3394 2872 2941 
Q 3294 2488 3294 1666 
Q 3294 1616 3291 1516 
L 816 1516 
Q 847 969 1125 678 
Q 1403 388 1819 388 
Q 2128 388 2347 550 
Q 2566 713 2694 1069 
z
M 847 1978 
L 2700 1978 
Q 2663 2397 2488 2606 
Q 2219 2931 1791 2931 
Q 1403 2931 1139 2672 
Q 875 2413 847 1978 
z
" transform="scale(0.015625)"/>
       <path id="ArialMT-20" transform="scale(0.015625)"/>
       <path id="ArialMT-28" d="M 1497 -1347 
Q 1031 -759 709 28 
Q 388 816 388 1659 
Q 388 2403 628 3084 
Q 909 3875 1497 4659 
L 1900 4659 
Q 1522 4009 1400 3731 
Q 1209 3300 1100 2831 
Q 966 2247 966 1656 
Q 966 153 1900 -1347 
L 1497 -1347 
z
" transform="scale(0.015625)"/>
       <path id="ArialMT-73" d="M 197 991 
L 753 1078 
Q 800 744 1014 566 
Q 1228 388 1613 388 
Q 2000 388 2187 545 
Q 2375 703 2375 916 
Q 2375 1106 2209 1216 
Q 2094 1291 1634 1406 
Q 1016 1563 777 1677 
Q 538 1791 414 1992 
Q 291 2194 291 2438 
Q 291 2659 392 2848 
Q 494 3038 669 3163 
Q 800 3259 1026 3326 
Q 1253 3394 1513 3394 
Q 1903 3394 2198 3281 
Q 2494 3169 2634 2976 
Q 2775 2784 2828 2463 
L 2278 2388 
Q 2241 2644 2061 2787 
Q 1881 2931 1553 2931 
Q 1166 2931 1000 2803 
Q 834 2675 834 2503 
Q 834 2394 903 2306 
Q 972 2216 1119 2156 
Q 1203 2125 1616 2013 
Q 2213 1853 2448 1751 
Q 2684 1650 2818 1456 
Q 2953 1263 2953 975 
Q 2953 694 2789 445 
Q 2625 197 2315 61 
Q 2006 -75 1616 -75 
Q 969 -75 630 194 
Q 291 463 197 991 
z
" transform="scale(0.015625)"/>
       <path id="ArialMT-29" d="M 791 -1347 
L 388 -1347 
Q 1322 153 1322 1656 
Q 1322 2244 1188 2822 
Q 1081 3291 891 3722 
Q 769 4003 388 4659 
L 791 4659 
Q 1378 3875 1659 3084 
Q 1900 2403 1900 1659 
Q 1900 816 1576 28 
Q 1253 -759 791 -1347 
z
" transform="scale(0.015625)"/>
      </defs>
      <use xlink:href="#ArialMT-54"/>
      <use xlink:href="#ArialMT-69" x="57.333984"/>
      <use xlink:href="#ArialMT-6d" x="79.550781"/>
      <use xlink:href="#ArialMT-65" x="162.851562"/>
      <use xlink:href="#ArialMT-20" x="218.466797"/>
      <use xlink:href="#ArialMT-28" x="246.25"/>
      <use xlink:href="#ArialMT-73" x="279.550781"/>
      <use xlink:href="#ArialMT-29" x="329.550781"/>
     </g>
    </g>
   </g>
   <g id="matplotlib.axis_2">
    <g id="ytick_1">
     <g id="line2d_13">
      <path d="M 43.585938 177.420805 
L 285.239481 177.420805 
" clip-path="url(#p76a4f3372f)" style="fill: none; stroke: #b0b0b0; stroke-width: 0.8; stroke-linecap: square"/>
     </g>
     <g id="line2d_14">
      <defs>
       <path id="mc5d081e9c1" d="M 0 0 
L 3.5 0 
" style="stroke: #000000; stroke-width: 0.8"/>
      </defs>
      <g>
       <use xlink:href="#mc5d081e9c1" x="43.585938" y="177.420805" style="stroke: #000000; stroke-width: 0.8"/>
      </g>
     </g>
     <g id="text_8">
      <!-- −7.5 -->
      <g transform="translate(20.345313 180.999711) scale(0.1 -0.1)">
       <defs>
        <path id="ArialMT-2212" d="M 3381 1997 
L 356 1997 
L 356 2522 
L 3381 2522 
L 3381 1997 
z
" transform="scale(0.015625)"/>
        <path id="ArialMT-37" d="M 303 3981 
L 303 4522 
L 3269 4522 
L 3269 4084 
Q 2831 3619 2401 2847 
Q 1972 2075 1738 1259 
Q 1569 684 1522 0 
L 944 0 
Q 953 541 1156 1306 
Q 1359 2072 1739 2783 
Q 2119 3494 2547 3981 
L 303 3981 
z
" transform="scale(0.015625)"/>
        <path id="ArialMT-2e" d="M 581 0 
L 581 641 
L 1222 641 
L 1222 0 
L 581 0 
z
" transform="scale(0.015625)"/>
        <path id="ArialMT-35" d="M 266 1200 
L 856 1250 
Q 922 819 1161 601 
Q 1400 384 1738 384 
Q 2144 384 2425 690 
Q 2706 997 2706 1503 
Q 2706 1984 2436 2262 
Q 2166 2541 1728 2541 
Q 1456 2541 1237 2417 
Q 1019 2294 894 2097 
L 366 2166 
L 809 4519 
L 3088 4519 
L 3088 3981 
L 1259 3981 
L 1013 2750 
Q 1425 3038 1878 3038 
Q 2478 3038 2890 2622 
Q 3303 2206 3303 1553 
Q 3303 931 2941 478 
Q 2500 -78 1738 -78 
Q 1113 -78 717 272 
Q 322 622 266 1200 
z
" transform="scale(0.015625)"/>
       </defs>
       <use xlink:href="#ArialMT-2212"/>
       <use xlink:href="#ArialMT-37" x="58.398438"/>
       <use xlink:href="#ArialMT-2e" x="114.013672"/>
       <use xlink:href="#ArialMT-35" x="141.796875"/>
      </g>
     </g>
    </g>
    <g id="ytick_2">
     <g id="line2d_15">
      <path d="M 43.585938 153.168836 
L 285.239481 153.168836 
" clip-path="url(#p76a4f3372f)" style="fill: none; stroke: #b0b0b0; stroke-width: 0.8; stroke-linecap: square"/>
     </g>
     <g id="line2d_16">
      <g>
       <use xlink:href="#mc5d081e9c1" x="43.585938" y="153.168836" style="stroke: #000000; stroke-width: 0.8"/>
      </g>
     </g>
     <g id="text_9">
      <!-- −5.0 -->
      <g transform="translate(20.345313 156.747742) scale(0.1 -0.1)">
       <use xlink:href="#ArialMT-2212"/>
       <use xlink:href="#ArialMT-35" x="58.398438"/>
       <use xlink:href="#ArialMT-2e" x="114.013672"/>
       <use xlink:href="#ArialMT-30" x="141.796875"/>
      </g>
     </g>
    </g>
    <g id="ytick_3">
     <g id="line2d_17">
      <path d="M 43.585938 128.916868 
L 285.239481 128.916868 
" clip-path="url(#p76a4f3372f)" style="fill: none; stroke: #b0b0b0; stroke-width: 0.8; stroke-linecap: square"/>
     </g>
     <g id="line2d_18">
      <g>
       <use xlink:href="#mc5d081e9c1" x="43.585938" y="128.916868" style="stroke: #000000; stroke-width: 0.8"/>
      </g>
     </g>
     <g id="text_10">
      <!-- −2.5 -->
      <g transform="translate(20.345313 132.495774) scale(0.1 -0.1)">
       <use xlink:href="#ArialMT-2212"/>
       <use xlink:href="#ArialMT-32" x="58.398438"/>
       <use xlink:href="#ArialMT-2e" x="114.013672"/>
       <use xlink:href="#ArialMT-35" x="141.796875"/>
      </g>
     </g>
    </g>
    <g id="ytick_4">
     <g id="line2d_19">
      <path d="M 43.585938 104.664899 
L 285.239481 104.664899 
" clip-path="url(#p76a4f3372f)" style="fill: none; stroke: #b0b0b0; stroke-width: 0.8; stroke-linecap: square"/>
     </g>
     <g id="line2d_20">
      <g>
       <use xlink:href="#mc5d081e9c1" x="43.585938" y="104.664899" style="stroke: #000000; stroke-width: 0.8"/>
      </g>
     </g>
     <g id="text_11">
      <!-- 0.0 -->
      <g transform="translate(26.185938 108.243805) scale(0.1 -0.1)">
       <use xlink:href="#ArialMT-30"/>
       <use xlink:href="#ArialMT-2e" x="55.615234"/>
       <use xlink:href="#ArialMT-30" x="83.398438"/>
      </g>
     </g>
    </g>
    <g id="ytick_5">
     <g id="line2d_21">
      <path d="M 43.585938 80.412931 
L 285.239481 80.412931 
" clip-path="url(#p76a4f3372f)" style="fill: none; stroke: #b0b0b0; stroke-width: 0.8; stroke-linecap: square"/>
     </g>
     <g id="line2d_22">
      <g>
       <use xlink:href="#mc5d081e9c1" x="43.585938" y="80.412931" style="stroke: #000000; stroke-width: 0.8"/>
      </g>
     </g>
     <g id="text_12">
      <!-- 2.5 -->
      <g transform="translate(26.185938 83.991837) scale(0.1 -0.1)">
       <use xlink:href="#ArialMT-32"/>
       <use xlink:href="#ArialMT-2e" x="55.615234"/>
       <use xlink:href="#ArialMT-35" x="83.398438"/>
      </g>
     </g>
    </g>
    <g id="ytick_6">
     <g id="line2d_23">
      <path d="M 43.585938 56.160962 
L 285.239481 56.160962 
" clip-path="url(#p76a4f3372f)" style="fill: none; stroke: #b0b0b0; stroke-width: 0.8; stroke-linecap: square"/>
     </g>
     <g id="line2d_24">
      <g>
       <use xlink:href="#mc5d081e9c1" x="43.585938" y="56.160962" style="stroke: #000000; stroke-width: 0.8"/>
      </g>
     </g>
     <g id="text_13">
      <!-- 5.0 -->
      <g transform="translate(26.185938 59.739868) scale(0.1 -0.1)">
       <use xlink:href="#ArialMT-35"/>
       <use xlink:href="#ArialMT-2e" x="55.615234"/>
       <use xlink:href="#ArialMT-30" x="83.398438"/>
      </g>
     </g>
    </g>
    <g id="ytick_7">
     <g id="line2d_25">
      <path d="M 43.585938 31.908994 
L 285.239481 31.908994 
" clip-path="url(#p76a4f3372f)" style="fill: none; stroke: #b0b0b0; stroke-width: 0.8; stroke-linecap: square"/>
     </g>
     <g id="line2d_26">
      <g>
       <use xlink:href="#mc5d081e9c1" x="43.585938" y="31.908994" style="stroke: #000000; stroke-width: 0.8"/>
      </g>
     </g>
     <g id="text_14">
      <!-- 7.5 -->
      <g transform="translate(26.185938 35.4879) scale(0.1 -0.1)">
       <use xlink:href="#ArialMT-37"/>
       <use xlink:href="#ArialMT-2e" x="55.615234"/>
       <use xlink:href="#ArialMT-35" x="83.398438"/>
      </g>
     </g>
    </g>
    <g id="text_15">
     <!-- Base shear force -->
     <g transform="translate(14.357813 142.460212) rotate(-90) scale(0.1 -0.1)">
      <defs>
       <path id="ArialMT-42" d="M 469 0 
L 469 4581 
L 2188 4581 
Q 2713 4581 3030 4442 
Q 3347 4303 3526 4014 
Q 3706 3725 3706 3409 
Q 3706 3116 3547 2856 
Q 3388 2597 3066 2438 
Q 3481 2316 3704 2022 
Q 3928 1728 3928 1328 
Q 3928 1006 3792 729 
Q 3656 453 3456 303 
Q 3256 153 2954 76 
Q 2653 0 2216 0 
L 469 0 
z
M 1075 2656 
L 2066 2656 
Q 2469 2656 2644 2709 
Q 2875 2778 2992 2937 
Q 3109 3097 3109 3338 
Q 3109 3566 3000 3739 
Q 2891 3913 2687 3977 
Q 2484 4041 1991 4041 
L 1075 4041 
L 1075 2656 
z
M 1075 541 
L 2216 541 
Q 2509 541 2628 563 
Q 2838 600 2978 687 
Q 3119 775 3209 942 
Q 3300 1109 3300 1328 
Q 3300 1584 3169 1773 
Q 3038 1963 2805 2039 
Q 2572 2116 2134 2116 
L 1075 2116 
L 1075 541 
z
" transform="scale(0.015625)"/>
       <path id="ArialMT-61" d="M 2588 409 
Q 2275 144 1986 34 
Q 1697 -75 1366 -75 
Q 819 -75 525 192 
Q 231 459 231 875 
Q 231 1119 342 1320 
Q 453 1522 633 1644 
Q 813 1766 1038 1828 
Q 1203 1872 1538 1913 
Q 2219 1994 2541 2106 
Q 2544 2222 2544 2253 
Q 2544 2597 2384 2738 
Q 2169 2928 1744 2928 
Q 1347 2928 1158 2789 
Q 969 2650 878 2297 
L 328 2372 
Q 403 2725 575 2942 
Q 747 3159 1072 3276 
Q 1397 3394 1825 3394 
Q 2250 3394 2515 3294 
Q 2781 3194 2906 3042 
Q 3031 2891 3081 2659 
Q 3109 2516 3109 2141 
L 3109 1391 
Q 3109 606 3145 398 
Q 3181 191 3288 0 
L 2700 0 
Q 2613 175 2588 409 
z
M 2541 1666 
Q 2234 1541 1622 1453 
Q 1275 1403 1131 1340 
Q 988 1278 909 1158 
Q 831 1038 831 891 
Q 831 666 1001 516 
Q 1172 366 1500 366 
Q 1825 366 2078 508 
Q 2331 650 2450 897 
Q 2541 1088 2541 1459 
L 2541 1666 
z
" transform="scale(0.015625)"/>
       <path id="ArialMT-68" d="M 422 0 
L 422 4581 
L 984 4581 
L 984 2938 
Q 1378 3394 1978 3394 
Q 2347 3394 2619 3248 
Q 2891 3103 3008 2847 
Q 3125 2591 3125 2103 
L 3125 0 
L 2563 0 
L 2563 2103 
Q 2563 2525 2380 2717 
Q 2197 2909 1863 2909 
Q 1613 2909 1392 2779 
Q 1172 2650 1078 2428 
Q 984 2206 984 1816 
L 984 0 
L 422 0 
z
" transform="scale(0.015625)"/>
       <path id="ArialMT-72" d="M 416 0 
L 416 3319 
L 922 3319 
L 922 2816 
Q 1116 3169 1280 3281 
Q 1444 3394 1641 3394 
Q 1925 3394 2219 3213 
L 2025 2691 
Q 1819 2813 1613 2813 
Q 1428 2813 1281 2702 
Q 1134 2591 1072 2394 
Q 978 2094 978 1738 
L 978 0 
L 416 0 
z
" transform="scale(0.015625)"/>
       <path id="ArialMT-66" d="M 556 0 
L 556 2881 
L 59 2881 
L 59 3319 
L 556 3319 
L 556 3672 
Q 556 4006 616 4169 
Q 697 4388 901 4523 
Q 1106 4659 1475 4659 
Q 1713 4659 2000 4603 
L 1916 4113 
Q 1741 4144 1584 4144 
Q 1328 4144 1222 4034 
Q 1116 3925 1116 3625 
L 1116 3319 
L 1763 3319 
L 1763 2881 
L 1116 2881 
L 1116 0 
L 556 0 
z
" transform="scale(0.015625)"/>
       <path id="ArialMT-6f" d="M 213 1659 
Q 213 2581 725 3025 
Q 1153 3394 1769 3394 
Q 2453 3394 2887 2945 
Q 3322 2497 3322 1706 
Q 3322 1066 3130 698 
Q 2938 331 2570 128 
Q 2203 -75 1769 -75 
Q 1072 -75 642 372 
Q 213 819 213 1659 
z
M 791 1659 
Q 791 1022 1069 705 
Q 1347 388 1769 388 
Q 2188 388 2466 706 
Q 2744 1025 2744 1678 
Q 2744 2294 2464 2611 
Q 2184 2928 1769 2928 
Q 1347 2928 1069 2612 
Q 791 2297 791 1659 
z
" transform="scale(0.015625)"/>
       <path id="ArialMT-63" d="M 2588 1216 
L 3141 1144 
Q 3050 572 2676 248 
Q 2303 -75 1759 -75 
Q 1078 -75 664 370 
Q 250 816 250 1647 
Q 250 2184 428 2587 
Q 606 2991 970 3192 
Q 1334 3394 1763 3394 
Q 2303 3394 2647 3120 
Q 2991 2847 3088 2344 
L 2541 2259 
Q 2463 2594 2264 2762 
Q 2066 2931 1784 2931 
Q 1359 2931 1093 2626 
Q 828 2322 828 1663 
Q 828 994 1084 691 
Q 1341 388 1753 388 
Q 2084 388 2306 591 
Q 2528 794 2588 1216 
z
" transform="scale(0.015625)"/>
      </defs>
      <use xlink:href="#ArialMT-42"/>
      <use xlink:href="#ArialMT-61" x="66.699219"/>
      <use xlink:href="#ArialMT-73" x="122.314453"/>
      <use xlink:href="#ArialMT-65" x="172.314453"/>
      <use xlink:href="#ArialMT-20" x="227.929688"/>
      <use xlink:href="#ArialMT-73" x="255.712891"/>
      <use xlink:href="#ArialMT-68" x="305.712891"/>
      <use xlink:href="#ArialMT-65" x="361.328125"/>
      <use xlink:href="#ArialMT-61" x="416.943359"/>
      <use xlink:href="#ArialMT-72" x="472.558594"/>
      <use xlink:href="#ArialMT-20" x="505.859375"/>
      <use xlink:href="#ArialMT-66" x="533.642578"/>
      <use xlink:href="#ArialMT-6f" x="561.425781"/>
      <use xlink:href="#ArialMT-72" x="617.041016"/>
      <use xlink:href="#ArialMT-63" x="650.341797"/>
      <use xlink:href="#ArialMT-65" x="700.341797"/>
     </g>
    </g>
    <g id="text_16">
     <!-- 1e−2 -->
     <g transform="translate(43.585938 14.357812) scale(0.1 -0.1)">
      <use xlink:href="#ArialMT-31"/>
      <use xlink:href="#ArialMT-65" x="55.615234"/>
      <use xlink:href="#ArialMT-2212" x="111.230469"/>
      <use xlink:href="#ArialMT-32" x="169.628906"/>
     </g>
    </g>
   </g>
   <g id="line2d_27">
    <path d="M 43.585938 104.664899 
L 43.706764 104.545648 
L 43.827591 106.306714 
L 44.190071 99.958238 
L 44.310898 106.796459 
L 44.552552 103.953074 
L 44.673378 98.265208 
L 44.915032 116.009594 
L 45.156686 100.086664 
L 45.398339 119.331918 
L 45.519166 119.137278 
L 45.760819 97.96069 
L 45.881646 100.26324 
L 46.002473 97.671698 
L 46.244126 108.251527 
L 46.48578 92.383186 
L 46.727434 112.044721 
L 46.84826 98.750676 
L 47.089914 108.400337 
L 47.210741 98.351165 
L 47.331567 97.964029 
L 47.573221 108.523221 
L 47.694048 101.77647 
L 47.814875 113.967715 
L 48.056528 83.498252 
L 48.298182 102.289506 
L 48.419008 115.464597 
L 48.539835 116.077137 
L 48.781489 102.935587 
L 49.023142 105.317313 
L 49.143969 110.841317 
L 49.264796 110.038024 
L 49.506449 91.04192 
L 49.748103 115.979521 
L 49.86893 114.439679 
L 50.110583 124.199857 
L 50.352237 103.132072 
L 50.59389 121.492581 
L 50.714717 119.647085 
L 50.956371 98.898198 
L 51.198024 118.70322 
L 51.439678 88.032084 
L 51.681331 83.599653 
L 51.922985 108.249534 
L 52.164638 94.304697 
L 52.285465 102.650845 
L 52.647945 85.751884 
L 53.131252 119.817909 
L 53.372906 102.735028 
L 53.493733 104.237914 
L 53.735386 119.507799 
L 53.97704 107.147178 
L 54.097867 123.578612 
L 54.33952 106.402175 
L 54.581174 119.247917 
L 54.702 107.180266 
L 55.064481 120.779102 
L 55.306134 110.001887 
L 55.426961 123.100445 
L 55.789441 82.333893 
L 55.910268 83.721745 
L 56.031095 87.499624 
L 56.272749 64.419453 
L 56.514402 93.0881 
L 56.635229 93.577636 
L 56.756056 102.738418 
L 56.997709 84.186955 
L 57.118536 98.121643 
L 57.239363 95.249943 
L 57.360189 100.421465 
L 57.601843 99.929278 
L 57.72267 100.18842 
L 57.843497 89.569711 
L 57.964323 97.23233 
L 58.205977 121.413556 
L 58.326804 130.39503 
L 58.568457 106.205269 
L 58.689284 113.0824 
L 58.930938 103.828245 
L 59.051764 121.541525 
L 59.172591 118.692291 
L 59.293418 106.073769 
L 59.414245 118.927968 
L 59.535071 118.941919 
L 59.655898 113.570816 
L 59.897552 94.551132 
L 60.018378 107.015791 
L 60.380859 86.759787 
L 60.501686 87.84495 
L 60.622512 83.133502 
L 60.743339 83.48107 
L 60.864166 88.112307 
L 60.984993 102.498633 
L 61.105819 100.500161 
L 61.347473 125.552506 
L 61.709953 80.422871 
L 61.951607 103.318031 
L 62.072434 92.77623 
L 62.314087 112.449257 
L 62.434914 111.44452 
L 62.555741 112.6738 
L 62.676567 109.109064 
L 62.918221 130.566724 
L 63.039048 130.283091 
L 63.401528 117.585883 
L 63.764008 91.302306 
L 63.884835 93.383947 
L 64.126489 100.125654 
L 64.247315 99.909787 
L 64.488969 106.223994 
L 64.972276 76.115292 
L 65.093103 85.67774 
L 65.334756 75.139511 
L 65.455583 92.07995 
L 65.57641 92.560632 
L 65.697237 94.802433 
L 65.93889 120.702652 
L 66.059717 115.854509 
L 66.180544 126.290465 
L 66.301371 120.55553 
L 66.422197 105.852147 
L 66.663851 115.900752 
L 66.905504 92.833532 
L 67.147158 133.758272 
L 67.267985 121.223106 
L 67.388812 122.231182 
L 67.751292 132.906467 
L 67.992945 103.65104 
L 68.113772 103.634966 
L 68.234599 89.401182 
L 68.355426 97.83321 
L 68.597079 70.385244 
L 68.717906 94.80573 
L 68.838733 85.503196 
L 68.95956 85.610545 
L 69.201213 107.635841 
L 69.442867 77.00316 
L 69.563693 74.686277 
L 69.805347 85.949448 
L 69.926174 73.62235 
L 70.047 84.029281 
L 70.167827 82.988913 
L 70.651134 141.784336 
L 70.771961 134.420587 
L 70.892788 127.773431 
L 71.013615 130.094805 
L 71.134441 127.740733 
L 71.255268 139.775217 
L 71.496922 101.022395 
L 71.738575 123.562618 
L 71.859402 120.404215 
L 71.980229 130.177279 
L 72.221882 118.816927 
L 72.342709 122.225942 
L 72.463536 112.781439 
L 72.584363 113.594301 
L 72.705189 112.035312 
L 73.06767 74.0051 
L 73.188497 68.626287 
L 73.309323 71.00325 
L 73.43015 68.793778 
L 73.550977 78.40304 
L 73.671804 72.532167 
L 74.034284 86.552129 
L 74.155111 108.318659 
L 74.396764 87.510386 
L 74.638418 103.046794 
L 74.880071 125.915056 
L 75.121725 113.240383 
L 75.242552 126.154292 
L 75.363378 123.379289 
L 75.484205 123.678666 
L 75.605032 126.33109 
L 75.846686 150.439689 
L 75.967512 137.602406 
L 76.088339 141.145294 
L 76.209166 140.7948 
L 76.571646 97.152484 
L 76.692473 96.494082 
L 76.8133 104.400788 
L 77.054953 90.39861 
L 77.17578 96.801076 
L 77.296607 88.678798 
L 77.53826 65.557522 
L 77.659087 84.544844 
L 77.779914 85.917112 
L 78.142394 59.259919 
L 78.263221 78.9183 
L 78.384048 75.210594 
L 78.504875 75.357986 
L 78.625701 72.540362 
L 78.867355 103.201538 
L 79.229835 131.312461 
L 79.350662 138.190333 
L 79.592315 117.324658 
L 79.833969 146.726737 
L 79.954796 139.997248 
L 80.196449 122.899842 
L 80.317276 139.259194 
L 80.55893 119.616131 
L 80.679756 127.939116 
L 80.800583 123.053695 
L 81.042237 90.519428 
L 81.163063 92.769817 
L 81.28389 99.757777 
L 81.525544 80.457893 
L 81.646371 79.110123 
L 81.767197 70.879355 
L 81.888024 72.498913 
L 82.129678 80.304948 
L 82.250504 67.421903 
L 82.371331 68.476744 
L 82.492158 81.510804 
L 82.612985 77.524646 
L 82.733812 81.49393 
L 82.854638 93.400428 
L 82.975465 92.129547 
L 83.217119 100.807656 
L 83.458772 121.322456 
L 83.579599 116.827433 
L 83.821252 158.822277 
L 83.942079 154.014645 
L 84.183733 132.69874 
L 84.30456 131.778057 
L 84.425386 134.318777 
L 84.66704 125.162157 
L 84.787867 128.047769 
L 85.02952 117.185621 
L 85.392 104.497168 
L 85.512827 84.437968 
L 85.754481 100.387913 
L 85.875308 73.050137 
L 85.996134 74.71824 
L 86.116961 59.908503 
L 86.237788 60.148663 
L 86.479441 52.651387 
L 86.721095 82.380207 
L 86.962749 78.915134 
L 87.446056 115.15335 
L 87.687709 120.743988 
L 87.808536 132.90623 
L 87.929363 132.543448 
L 88.050189 120.83392 
L 88.291843 135.800155 
L 88.654323 162.257263 
L 88.895977 145.962767 
L 89.13763 110.480309 
L 89.258457 113.033383 
L 89.500111 93.141066 
L 89.620937 102.477745 
L 89.741764 102.527147 
L 89.862591 87.258634 
L 89.983418 90.219361 
L 90.104245 59.671465 
L 90.225071 58.70271 
L 90.345898 82.21037 
L 90.466725 71.670398 
L 90.587552 73.826694 
L 90.708378 89.99912 
L 90.950032 65.585646 
L 91.070859 70.292873 
L 91.191686 67.639059 
L 91.312512 70.567729 
L 91.433339 76.516638 
L 91.674993 117.189039 
L 91.916646 124.752681 
L 92.037473 114.48248 
L 92.399953 150.532946 
L 92.52078 146.422208 
L 92.641607 152.335661 
L 92.762434 145.562556 
L 92.88326 153.903598 
L 93.245741 104.176213 
L 93.366567 108.13699 
L 93.487394 125.989661 
L 93.608221 126.491454 
L 94.212355 86.329471 
L 94.333182 74.981701 
L 94.574835 79.733759 
L 95.058142 47.315147 
L 95.178969 55.305998 
L 95.420623 99.98986 
L 95.541449 85.015486 
L 95.783103 105.542533 
L 96.024756 96.210653 
L 96.145583 98.153854 
L 96.62889 148.523788 
L 96.749717 158.496476 
L 96.870544 135.203398 
L 96.991371 141.226292 
L 97.233024 162.137915 
L 97.595504 135.388529 
L 97.957985 92.001241 
L 98.078812 84.374048 
L 98.199638 91.082666 
L 98.320465 108.811209 
L 98.441292 108.486357 
L 98.562119 89.302423 
L 98.682945 89.999201 
L 99.045426 59.527377 
L 99.287079 51.066705 
L 99.407906 53.917597 
L 99.528733 67.411171 
L 99.64956 54.597731 
L 99.770386 58.901278 
L 100.01204 84.668612 
L 100.132867 106.213466 
L 100.253693 105.824748 
L 100.37452 103.821403 
L 100.495347 107.479579 
L 100.616174 124.508011 
L 100.857827 123.704724 
L 100.978654 128.495633 
L 101.341134 159.885433 
L 101.461961 164.162578 
L 101.582788 153.135023 
L 101.703615 155.47736 
L 102.066095 121.775897 
L 102.549402 92.706897 
L 102.670229 95.925107 
L 102.911882 70.560238 
L 103.032709 78.375873 
L 103.153536 77.703106 
L 103.274363 64.338388 
L 103.395189 67.331295 
L 103.636843 85.510874 
L 103.75767 79.421709 
L 103.999323 60.386314 
L 104.240977 96.645987 
L 104.361804 79.566589 
L 104.48263 83.364116 
L 104.724284 117.995068 
L 104.845111 122.106096 
L 105.086764 151.035558 
L 105.207591 146.178422 
L 105.449245 129.64329 
L 105.570071 146.305295 
L 105.690898 145.339431 
L 105.811725 135.836026 
L 105.932552 136.56598 
L 106.174205 118.553827 
L 106.295032 127.29262 
L 106.415859 117.133282 
L 106.536686 118.577033 
L 106.657512 128.203463 
L 106.899166 84.993111 
L 107.140819 80.47637 
L 107.261646 81.354575 
L 107.624126 65.877696 
L 107.744953 66.239542 
L 107.86578 63.62193 
L 108.107434 53.08563 
L 108.469914 102.053008 
L 108.832394 116.271236 
L 108.953221 114.462122 
L 109.194875 106.235636 
L 109.315701 106.838542 
L 109.557355 145.284737 
L 109.678182 139.833599 
L 109.799008 130.11604 
L 109.919835 131.139845 
L 110.282315 137.967794 
L 110.886449 116.07335 
L 111.24893 71.021545 
L 111.61141 96.072502 
L 111.853063 81.327759 
L 112.094717 69.958016 
L 112.215544 70.1776 
L 112.457197 90.582532 
L 112.578024 91.659501 
L 112.698851 96.684863 
L 113.061331 74.395238 
L 113.182158 117.346908 
L 113.302985 118.546338 
L 113.423812 106.915856 
L 113.786292 148.174534 
L 113.907119 145.745291 
L 114.148772 128.837946 
L 114.269599 113.797381 
L 114.511252 155.221251 
L 114.752906 122.691627 
L 114.873733 128.231107 
L 114.99456 110.317944 
L 115.115386 118.225695 
L 115.35704 107.019368 
L 115.477867 113.858211 
L 115.598693 107.662146 
L 115.71952 108.560838 
L 115.840347 105.692039 
L 116.082 79.127028 
L 116.202827 71.447614 
L 116.444481 93.420991 
L 116.565308 81.021769 
L 116.686134 82.528696 
L 116.806961 89.78578 
L 116.927788 87.918955 
L 117.169441 65.886462 
L 117.411095 117.396633 
L 117.531922 113.363414 
L 117.773575 126.230207 
L 118.015229 100.32053 
L 118.498536 136.256525 
L 118.619363 147.419065 
L 118.740189 131.340379 
L 118.861016 135.061363 
L 119.10267 95.892096 
L 119.223497 102.172828 
L 119.46515 120.166815 
L 119.585977 118.381296 
L 119.706804 122.957216 
L 119.82763 116.122524 
L 120.069284 82.246775 
L 120.190111 86.065163 
L 120.310937 79.035588 
L 120.431764 105.678858 
L 120.552591 105.92335 
L 120.915071 79.53965 
L 121.035898 87.507028 
L 121.156725 66.394205 
L 121.277552 65.796962 
L 121.640032 115.14248 
L 121.760859 114.711273 
L 121.881686 116.914287 
L 122.123339 95.473384 
L 122.364993 122.156037 
L 122.485819 112.599222 
L 122.727473 131.942246 
L 122.969126 120.418799 
L 123.089953 114.641095 
L 123.21078 119.027183 
L 123.331607 134.38548 
L 123.57326 117.042161 
L 123.694087 121.7555 
L 124.056567 96.225094 
L 124.177394 101.911182 
L 124.419048 93.065374 
L 124.660701 110.282869 
L 124.781528 101.613709 
L 124.902355 101.914833 
L 125.144008 83.809974 
L 125.385662 103.035472 
L 125.506489 110.929262 
L 125.627315 106.264966 
L 125.748142 82.372665 
L 125.868969 85.37305 
L 126.110623 84.158266 
L 126.231449 85.335871 
L 126.352276 90.644057 
L 126.59393 122.641347 
L 126.714756 105.277522 
L 126.835583 113.726607 
L 126.95641 111.177487 
L 127.198063 89.677565 
L 127.560544 119.103021 
L 127.681371 117.753394 
L 127.923024 102.054587 
L 128.043851 98.697837 
L 128.164678 100.145501 
L 128.285504 104.535156 
L 128.527158 141.851233 
L 128.647985 139.59488 
L 129.010465 89.784773 
L 129.131292 90.617392 
L 129.372945 109.506499 
L 129.493772 97.582053 
L 129.614599 102.614659 
L 129.856252 92.637351 
L 129.977079 107.104384 
L 130.097906 95.801338 
L 130.218733 64.26811 
L 130.33956 72.342616 
L 130.581213 107.449159 
L 130.70204 101.463311 
L 130.822867 68.813664 
L 131.06452 74.098385 
L 131.306174 95.484828 
L 131.547827 130.761056 
L 131.668654 131.221113 
L 131.910308 114.306538 
L 132.031134 112.348303 
L 132.151961 106.310767 
L 132.272788 107.994222 
L 132.393615 117.552889 
L 132.514441 110.820131 
L 132.756095 126.32583 
L 132.876922 126.673966 
L 132.997749 122.494897 
L 133.118575 108.236047 
L 133.239402 110.873944 
L 133.481056 120.860555 
L 133.601882 120.933916 
L 133.722709 113.910057 
L 134.085189 70.699916 
L 134.206016 68.485149 
L 134.44767 97.546212 
L 134.568497 105.22939 
L 134.689323 103.833539 
L 134.930977 79.387787 
L 135.051804 82.012572 
L 135.293457 100.496751 
L 135.414284 90.761231 
L 135.535111 93.887765 
L 135.655937 108.572535 
L 135.776764 105.720732 
L 135.897591 92.286895 
L 136.018418 101.094464 
L 136.139245 88.817774 
L 136.622552 156.223218 
L 136.985032 106.716665 
L 137.105859 109.842505 
L 137.226686 108.382765 
L 137.468339 115.142337 
L 137.589166 103.29747 
L 137.709993 104.327212 
L 137.830819 82.365484 
L 137.951646 82.557298 
L 138.1933 89.107115 
L 138.314126 89.74267 
L 138.434953 93.341444 
L 138.676607 89.893504 
L 138.797434 90.755248 
L 139.039087 54.409398 
L 139.159914 56.187553 
L 139.522394 123.983209 
L 139.643221 125.806509 
L 139.764048 106.780562 
L 140.126528 114.792211 
L 140.368182 129.275217 
L 140.489008 130.365803 
L 140.609835 123.956832 
L 140.851489 105.129657 
L 141.334796 137.129259 
L 141.576449 118.889455 
L 141.697276 117.590008 
L 141.93893 87.49298 
L 142.180583 68.380616 
L 142.543063 100.744055 
L 142.66389 92.614093 
L 142.905544 67.468624 
L 143.147197 94.429861 
L 143.268024 96.169888 
L 143.509678 86.682129 
L 143.630504 73.911705 
L 143.751331 74.696476 
L 143.872158 78.588166 
L 144.234638 128.768692 
L 144.476292 132.540219 
L 144.597119 132.202743 
L 144.717945 141.672244 
L 145.080426 117.088796 
L 145.322079 104.114129 
L 145.442906 114.700659 
L 145.563733 113.843453 
L 145.805386 102.679787 
L 145.926213 100.143267 
L 146.167867 126.229643 
L 146.288693 129.56826 
L 146.651174 62.128559 
L 146.772 29.136716 
L 146.892827 35.22318 
L 147.134481 67.234642 
L 147.255308 67.617558 
L 147.376134 66.399963 
L 147.617788 97.787015 
L 147.738615 100.726163 
L 147.980268 112.455406 
L 148.101095 108.165655 
L 148.342749 109.426829 
L 148.463575 99.754075 
L 148.584402 99.949847 
L 148.946882 132.172055 
L 149.188536 174.045371 
L 149.309363 173.711677 
L 149.430189 172.160861 
L 149.551016 162.716884 
L 149.79267 127.420174 
L 149.913497 126.171691 
L 150.396804 68.978356 
L 150.51763 70.114048 
L 150.638457 95.584879 
L 150.880111 86.791432 
L 151.000937 90.293288 
L 151.242591 75.282214 
L 151.484245 56.950011 
L 151.605071 55.274414 
L 151.725898 37.374238 
L 151.846725 36.491186 
L 152.088378 76.914853 
L 152.209205 74.117848 
L 152.450859 106.531121 
L 152.571686 119.362548 
L 152.813339 112.695259 
L 153.054993 146.47317 
L 153.175819 141.081295 
L 153.296646 143.237999 
L 153.5383 131.348962 
L 153.779953 148.963051 
L 153.90078 149.444811 
L 154.142434 142.374292 
L 154.26326 161.334035 
L 154.625741 105.753779 
L 154.746567 81.636907 
L 154.867394 83.624797 
L 154.988221 88.972765 
L 155.471528 56.301081 
L 155.592355 58.301553 
L 155.713182 62.942455 
L 155.954835 93.19332 
L 156.317315 61.810878 
L 156.438142 69.757244 
L 156.558969 88.477923 
L 156.679796 83.355392 
L 157.163103 115.425162 
L 157.28393 140.407272 
L 157.525583 139.986706 
L 157.64641 145.288969 
L 157.767237 143.742737 
L 157.888063 150.952697 
L 158.129717 132.990092 
L 158.371371 106.605766 
L 158.492197 107.626963 
L 158.854678 127.566388 
L 158.975504 127.036847 
L 159.458812 65.879289 
L 159.700465 77.321945 
L 160.183772 44.16801 
L 160.425426 75.036664 
L 160.667079 100.11601 
L 160.908733 93.030411 
L 161.02956 92.653872 
L 161.150386 97.289883 
L 161.39204 94.740445 
L 161.996174 168.508005 
L 162.358654 126.946415 
L 162.600308 159.14111 
L 163.204441 89.930112 
L 163.446095 103.827366 
L 163.687749 81.547859 
L 163.808575 83.563756 
L 163.929402 89.440157 
L 164.171056 63.02306 
L 164.412709 49.011356 
L 164.775189 87.514877 
L 164.896016 70.898294 
L 165.016843 73.71629 
L 165.13767 87.58905 
L 165.258497 80.801028 
L 165.379323 83.514295 
L 165.741804 144.605116 
L 165.86263 142.451364 
L 166.104284 131.233156 
L 166.225111 123.148817 
L 166.345938 124.251036 
L 166.708418 152.940465 
L 166.950071 145.183639 
L 167.312552 112.028481 
L 167.433378 112.046101 
L 167.554205 115.498816 
L 167.675032 122.786691 
L 168.279166 64.605052 
L 168.399993 72.067389 
L 168.520819 61.2825 
L 168.762473 81.731861 
L 169.004126 71.872114 
L 169.124953 68.681942 
L 169.60826 106.402126 
L 169.849914 144.658043 
L 169.970741 131.797857 
L 170.091567 131.641071 
L 170.212394 116.318928 
L 170.574875 158.823228 
L 170.816528 145.776824 
L 171.058182 134.817993 
L 171.179008 135.092532 
L 171.299835 116.803106 
L 171.420662 119.08765 
L 171.541489 124.899899 
L 171.662315 138.431708 
L 171.783142 139.118361 
L 172.145623 73.315287 
L 172.266449 69.776694 
L 172.508103 57.281429 
L 172.62893 56.598344 
L 172.870583 71.316002 
L 172.99141 78.031255 
L 173.112237 78.282657 
L 173.233063 59.421535 
L 173.35389 66.446649 
L 173.595544 98.844601 
L 173.716371 102.449625 
L 173.837197 102.606813 
L 173.958024 94.569999 
L 174.078851 95.320903 
L 174.320504 88.941968 
L 174.682985 169.607955 
L 174.803812 180.942326 
L 175.287119 141.620602 
L 175.528772 122.480641 
L 175.649599 114.533131 
L 175.770426 122.652867 
L 176.012079 103.622193 
L 176.253733 82.421022 
L 176.616213 120.181575 
L 177.341174 46.038062 
L 177.462 55.701824 
L 177.703654 93.815392 
L 177.824481 92.632488 
L 177.945308 98.574345 
L 178.066134 114.984716 
L 178.307788 99.423705 
L 178.549441 127.37017 
L 178.670268 120.673377 
L 178.791095 121.80948 
L 179.032749 113.539857 
L 179.153575 104.957887 
L 179.636882 159.086635 
L 179.757709 154.262254 
L 179.999363 130.989918 
L 180.120189 129.32086 
L 180.603497 90.26746 
L 180.724323 105.809489 
L 180.965977 72.535508 
L 181.20763 88.384786 
L 181.328457 78.707343 
L 181.570111 104.260146 
L 181.690937 98.498744 
L 181.811764 87.153585 
L 181.932591 49.753129 
L 182.053418 47.10778 
L 182.295071 78.474079 
L 182.657552 103.202946 
L 183.261686 150.010229 
L 183.503339 142.342883 
L 183.624166 142.373359 
L 183.744993 155.703175 
L 184.107473 113.105939 
L 184.349126 126.310103 
L 184.469953 115.893242 
L 184.711607 132.057161 
L 185.678221 53.928738 
L 185.919875 73.67796 
L 186.040701 69.834225 
L 186.161528 68.907562 
L 186.282355 73.038678 
L 186.403182 66.54749 
L 186.644835 91.138704 
L 186.886489 105.273388 
L 187.128142 87.255007 
L 187.369796 115.101302 
L 187.611449 133.455654 
L 187.732276 138.310529 
L 187.97393 177.584483 
L 188.33641 133.085167 
L 188.457237 128.38586 
L 188.578063 106.684502 
L 188.819717 116.914493 
L 188.940544 115.165375 
L 189.061371 100.845129 
L 189.182197 101.718816 
L 189.303024 92.53485 
L 189.423851 92.887624 
L 189.544678 87.02728 
L 189.786331 92.970925 
L 189.907158 72.668926 
L 190.027985 75.999345 
L 190.269638 34.760578 
L 190.511292 72.890123 
L 190.632119 56.869327 
L 190.873772 93.150608 
L 191.115426 125.795465 
L 191.236252 126.209267 
L 191.477906 98.274188 
L 191.598733 99.668332 
L 191.840386 137.702247 
L 191.961213 125.743084 
L 192.08204 134.290802 
L 192.202867 132.319797 
L 192.323693 120.439231 
L 192.565347 140.724546 
L 192.686174 143.952804 
L 192.807 150.972896 
L 192.927827 145.542337 
L 193.531961 74.361313 
L 193.652788 81.568395 
L 193.773615 76.565435 
L 193.894441 77.830285 
L 194.015268 85.083262 
L 194.256922 74.843872 
L 194.498575 58.864631 
L 194.619402 76.473086 
L 194.740229 74.03624 
L 194.861056 83.588516 
L 194.981882 81.54841 
L 195.102709 76.074473 
L 195.223536 78.35273 
L 195.344363 86.353423 
L 195.586016 113.415046 
L 195.82767 121.440186 
L 196.069323 153.221935 
L 196.310977 129.541638 
L 196.55263 147.478572 
L 196.673457 147.517075 
L 196.794284 142.58826 
L 196.915111 144.209117 
L 197.035937 132.783747 
L 197.156764 100.073458 
L 197.398418 121.457891 
L 197.640071 103.590415 
L 198.002552 88.603182 
L 198.123378 86.852954 
L 198.365032 63.161374 
L 198.485859 68.977528 
L 198.727512 49.422368 
L 198.848339 51.987061 
L 198.969166 66.801996 
L 199.089993 65.830076 
L 199.331646 84.989839 
L 199.452473 79.582177 
L 199.694126 117.29968 
L 199.814953 119.722455 
L 199.93578 126.320126 
L 200.056607 124.865321 
L 200.539914 137.516616 
L 200.781567 131.330864 
L 201.023221 164.996809 
L 201.385701 131.879847 
L 201.506528 130.903311 
L 201.869008 89.977133 
L 201.989835 90.244665 
L 202.110662 85.023384 
L 202.231489 85.853352 
L 202.352315 66.995702 
L 202.473142 68.759079 
L 202.714796 82.581258 
L 202.835623 88.480053 
L 203.439756 42.711774 
L 204.04389 120.645157 
L 204.164717 127.170547 
L 204.285544 124.766853 
L 204.527197 139.450842 
L 204.648024 132.171707 
L 204.889678 143.414674 
L 205.131331 120.931297 
L 205.252158 118.290928 
L 205.372985 109.170754 
L 205.493812 113.248984 
L 205.614638 102.761046 
L 205.856292 137.461825 
L 205.977119 133.687396 
L 206.581252 67.344316 
L 206.702079 56.841723 
L 206.822906 67.575927 
L 206.943733 67.622628 
L 207.06456 87.494184 
L 207.185386 87.140247 
L 207.306213 77.480493 
L 207.42704 77.996369 
L 207.910347 112.623498 
L 208.152 99.471107 
L 208.393654 86.303173 
L 208.514481 86.989976 
L 209.118615 160.678904 
L 209.360268 140.324802 
L 209.481095 148.348831 
L 209.722749 126.042979 
L 209.843575 122.652035 
L 209.964402 123.767123 
L 210.085229 113.2169 
L 210.206056 85.482056 
L 210.326882 87.827075 
L 210.447709 95.996357 
L 210.568536 95.476486 
L 210.689363 96.695889 
L 210.810189 101.818019 
L 210.931016 116.367971 
L 211.051843 114.13001 
L 211.53515 51.841011 
L 211.655977 53.013644 
L 211.776804 50.431933 
L 211.89763 57.382373 
L 212.260111 115.361276 
L 212.380938 108.044084 
L 212.743418 134.193684 
L 212.864245 139.242848 
L 213.105898 96.357168 
L 213.226725 102.09616 
L 213.347552 114.559314 
L 213.468378 111.638299 
L 213.830859 137.42526 
L 214.072512 165.005664 
L 214.434993 118.481345 
L 215.039126 72.768441 
L 215.28078 92.581726 
L 215.401607 88.545369 
L 215.522434 79.147625 
L 215.884914 116.300316 
L 216.126567 72.681946 
L 216.247394 80.331502 
L 216.489048 67.951415 
L 216.609875 70.019079 
L 216.730701 81.301499 
L 217.093182 133.414946 
L 217.214008 117.766227 
L 217.455662 135.970621 
L 217.576489 124.398392 
L 217.697315 123.644497 
L 217.818142 125.235699 
L 217.938969 121.65099 
L 218.180623 101.134283 
L 218.422276 120.814221 
L 218.66393 122.116373 
L 218.784756 120.309299 
L 219.02641 128.438489 
L 219.147237 122.020514 
L 219.268063 108.025081 
L 219.509717 56.48812 
L 219.751371 61.45344 
L 219.872197 71.118151 
L 219.993024 92.585884 
L 220.113851 93.575224 
L 220.234678 80.855175 
L 220.355504 81.913357 
L 220.597158 100.99271 
L 220.838812 107.822549 
L 220.959638 104.067617 
L 221.080465 103.804413 
L 221.201292 90.001343 
L 221.442945 101.382504 
L 221.563772 98.502912 
L 221.684599 101.330669 
L 221.926252 146.194241 
L 222.167906 158.587943 
L 222.40956 121.266791 
L 222.651213 118.35518 
L 222.77204 118.669231 
L 223.013693 107.074866 
L 223.13452 109.418064 
L 223.255347 92.098282 
L 223.376174 91.756302 
L 223.497 107.102958 
L 223.617827 104.559441 
L 223.738654 98.762923 
L 223.859481 84.39242 
L 223.980308 89.400733 
L 224.221961 71.673846 
L 224.342788 81.236781 
L 224.463615 80.842493 
L 224.705268 54.062433 
L 225.309402 119.619677 
L 225.551056 111.297812 
L 225.671882 127.953514 
L 225.913536 107.241432 
L 226.155189 139.747894 
L 226.276016 137.184681 
L 226.396843 132.793875 
L 226.51767 133.569211 
L 226.638497 131.818851 
L 226.759323 135.469029 
L 226.88015 128.929521 
L 227.000977 115.628042 
L 227.24263 122.701376 
L 227.363457 122.436535 
L 227.605111 92.678812 
L 227.967591 65.602723 
L 228.209245 82.025202 
L 228.330071 73.869373 
L 228.571725 88.182888 
L 228.813378 44.690053 
L 229.055032 73.020782 
L 229.175859 71.173293 
L 229.296686 75.54723 
L 229.538339 101.53947 
L 229.659166 102.611848 
L 230.2633 130.639005 
L 230.62578 140.405885 
L 230.746607 128.231245 
L 230.867434 136.114946 
L 230.98826 135.382635 
L 231.109087 128.411647 
L 231.229914 135.967804 
L 231.350741 128.240332 
L 231.471567 134.293671 
L 231.592394 133.416948 
L 231.954875 84.735467 
L 232.075701 86.471034 
L 232.196528 98.063442 
L 232.317355 98.336711 
L 232.679835 60.424361 
L 232.800662 63.01554 
L 232.921489 69.893148 
L 233.042315 68.956862 
L 233.163142 77.640125 
L 233.283969 76.962136 
L 233.404796 71.586147 
L 233.646449 91.437294 
L 233.767276 90.429102 
L 233.888103 101.799999 
L 234.00893 98.700876 
L 234.129756 102.702639 
L 234.492237 133.199283 
L 234.613063 131.960203 
L 234.73389 112.659797 
L 235.338024 161.384967 
L 235.458851 156.278622 
L 235.700504 94.984125 
L 235.942158 110.189866 
L 236.062985 96.872076 
L 236.183812 100.842759 
L 236.304638 99.797675 
L 236.546292 79.74515 
L 236.787945 99.190514 
L 237.029599 57.709445 
L 237.150426 61.654632 
L 237.271252 83.255958 
L 237.392079 81.850899 
L 237.512906 67.733731 
L 237.633733 73.468846 
L 237.75456 68.261946 
L 238.11704 96.052397 
L 238.358693 125.426592 
L 238.600347 113.928832 
L 238.842 129.328839 
L 238.962827 129.817079 
L 239.083654 125.915853 
L 239.204481 145.523495 
L 239.446134 128.525023 
L 239.566961 143.935855 
L 239.687788 142.684353 
L 239.929441 124.605896 
L 240.050268 125.637224 
L 240.291922 107.700989 
L 240.412749 111.938884 
L 240.533575 103.528959 
L 240.775229 71.782706 
L 241.016882 76.69408 
L 241.137709 82.760351 
L 241.500189 67.987309 
L 241.621016 70.805409 
L 241.86267 84.133335 
L 241.983497 82.635199 
L 242.104323 66.65642 
L 242.466804 94.582602 
L 242.58763 94.076189 
L 242.708457 99.999191 
L 243.312591 160.472539 
L 243.554245 144.716608 
L 243.675071 147.517119 
L 243.916725 136.808395 
L 244.158378 138.4171 
L 244.400032 98.251021 
L 244.520859 107.873817 
L 244.641686 133.758613 
L 244.762512 130.281318 
L 245.245819 67.649358 
L 245.366646 58.440426 
L 245.487473 68.215096 
L 245.849953 41.947614 
L 246.091607 76.318385 
L 246.212434 71.875706 
L 246.33326 72.395199 
L 246.574914 92.523964 
L 246.816567 111.883891 
L 247.058221 103.433257 
L 247.179048 106.929457 
L 247.299875 97.704347 
L 247.420701 103.130836 
L 247.904008 173.615217 
L 248.266489 152.427725 
L 248.387315 160.80805 
L 248.749796 98.498215 
L 248.870623 107.92256 
L 248.991449 102.675141 
L 249.112276 102.786123 
L 249.35393 83.291077 
L 249.474756 76.115108 
L 249.595583 75.564956 
L 249.71641 94.237294 
L 249.837237 91.259358 
L 250.199717 56.036443 
L 250.441371 40.591019 
L 250.562197 37.6992 
L 250.803851 91.332347 
L 251.045504 100.719214 
L 251.287158 137.294876 
L 251.528812 118.398264 
L 251.770465 138.272497 
L 251.891292 132.978562 
L 252.012119 147.180613 
L 252.132945 144.614751 
L 252.253772 144.74597 
L 252.374599 144.039121 
L 252.495426 139.504349 
L 252.857906 153.877683 
L 252.978733 154.223818 
L 253.09956 140.454899 
L 253.46204 76.235509 
L 253.582867 75.500297 
L 253.82452 55.360064 
L 253.945347 62.655856 
L 254.066174 53.507252 
L 254.307827 56.680348 
L 254.428654 55.945677 
L 254.549481 58.030393 
L 254.670308 50.263686 
L 254.911961 64.293669 
L 255.032788 58.799458 
L 255.153615 60.751795 
L 255.274441 69.640446 
L 255.395268 68.048573 
L 256.120229 179.636055 
L 256.361882 155.584606 
L 256.724363 163.925391 
L 256.966016 148.667853 
L 257.086843 155.507651 
L 257.20767 153.570031 
L 257.328497 137.111344 
L 257.449323 156.159451 
L 257.57015 146.29741 
L 257.811804 111.530486 
L 258.053457 69.06443 
L 258.174284 67.434466 
L 258.295111 62.693158 
L 258.536764 33.743472 
L 258.657591 26.154394 
L 258.778418 26.828887 
L 258.899245 34.274545 
L 259.140898 83.943345 
L 259.261725 64.274797 
L 259.503378 78.675134 
L 259.624205 79.564912 
L 259.745032 81.88432 
L 259.865859 87.528571 
L 260.228339 125.984383 
L 260.349166 125.568451 
L 260.590819 158.053819 
L 260.711646 164.266984 
L 260.832473 163.321292 
L 261.074126 182.558977 
L 261.194953 177.999131 
L 261.799087 100.180862 
L 261.919914 115.845026 
L 262.040741 115.886896 
L 262.161567 110.989261 
L 262.403221 81.17759 
L 262.524048 78.491516 
L 263.007355 52.183986 
L 263.128182 54.898807 
L 263.369835 28.537845 
L 263.490662 40.418501 
L 263.611489 31.665799 
L 263.853142 91.872533 
L 263.973969 90.006483 
L 264.215623 125.231288 
L 264.336449 119.58898 
L 264.457276 128.377078 
L 264.69893 121.334951 
L 265.182237 160.287372 
L 265.303063 158.766165 
L 265.42389 162.294486 
L 265.665544 146.917001 
L 266.028024 157.396652 
L 266.148851 140.742149 
L 266.390504 83.578804 
L 266.632158 66.672901 
L 266.752985 66.275189 
L 266.873812 73.346594 
L 266.994638 57.178858 
L 267.115465 61.822261 
L 267.236292 72.836141 
L 267.357119 69.806248 
L 267.598772 48.161029 
L 267.719599 53.474015 
L 267.840426 51.563306 
L 267.961252 45.804012 
L 268.202906 86.227633 
L 268.323733 77.170033 
L 269.16952 171.145058 
L 269.411174 146.282689 
L 269.652827 142.337449 
L 269.773654 124.909774 
L 270.015308 130.288801 
L 270.136134 135.252221 
L 270.256961 134.71621 
L 270.377788 138.249694 
L 270.498615 132.689068 
L 270.981922 73.611818 
L 271.102749 77.964592 
L 271.223575 72.800967 
L 271.465229 48.618429 
L 271.586056 53.991349 
L 271.706882 39.286755 
L 271.827709 38.571748 
L 272.069363 67.492784 
L 272.190189 65.278129 
L 272.431843 103.881327 
L 272.55267 94.713828 
L 272.673497 83.270642 
L 273.398457 132.44966 
L 273.519284 157.382949 
L 273.640111 155.613316 
L 273.760938 145.094326 
L 273.881764 148.860258 
L 274.002591 169.389334 
L 274.123418 171.008785 
L 274.365071 138.498782 
L 274.485898 127.408442 
L 274.727552 93.075438 
L 274.848378 97.380149 
L 274.969205 97.41288 
L 275.090032 84.597111 
L 275.210859 84.656319 
L 275.331686 96.181893 
L 275.814993 56.404086 
L 275.935819 46.279279 
L 276.902434 98.414342 
L 277.02326 109.994207 
L 277.264914 140.189941 
L 277.385741 123.584896 
L 277.627394 132.818183 
L 277.748221 134.224817 
L 278.110701 149.266121 
L 278.231528 150.428144 
L 278.473182 166.728686 
L 278.594008 153.988893 
L 278.714835 122.589933 
L 278.956489 130.67769 
L 279.439796 88.337512 
L 279.681449 51.698731 
L 279.802276 58.708997 
L 279.923103 57.730385 
L 280.164756 71.864858 
L 280.285583 74.987147 
L 280.527237 47.406982 
L 280.648063 48.954919 
L 280.76889 69.642898 
L 280.889717 70.903895 
L 281.252197 108.642967 
L 281.373024 111.028802 
L 281.493851 103.765739 
L 281.614678 109.237883 
L 281.856331 135.41782 
L 282.097985 167.126454 
L 282.460465 159.903138 
L 282.581292 154.125056 
L 282.822945 127.3586 
L 283.064599 143.950986 
L 283.185426 142.037194 
L 283.427079 103.25955 
L 283.547906 104.516171 
L 284.51452 40.898759 
L 284.756174 21.811711 
L 284.997827 75.28489 
L 285.118654 83.330629 
L 285.118654 83.330629 
" clip-path="url(#p76a4f3372f)" style="fill: none; stroke: #ff0000; stroke-width: 0.8; stroke-linecap: square"/>
   </g>
   <g id="line2d_28">
    <path d="M 43.585938 104.664899 
L 43.706764 104.664899 
L 43.948418 105.130568 
L 44.069245 104.527917 
L 44.190071 103.24965 
L 44.431725 105.391125 
L 44.552552 104.824336 
L 44.673378 103.214675 
L 44.794205 103.776966 
L 44.915032 108.190385 
L 45.035859 107.523809 
L 45.156686 103.712205 
L 45.277512 103.877243 
L 45.519166 110.213258 
L 45.639993 108.404695 
L 45.881646 102.679584 
L 46.1233 103.117874 
L 46.244126 106.226318 
L 46.48578 99.857976 
L 46.727434 107.725413 
L 46.969087 102.394763 
L 47.089914 105.687686 
L 47.210741 104.62052 
L 47.331567 101.773625 
L 47.573221 106.585295 
L 47.694048 104.181142 
L 47.814875 106.142726 
L 47.935701 106.085207 
L 48.056528 98.679977 
L 48.177355 98.223785 
L 48.539835 109.235658 
L 48.902315 104.239418 
L 49.023142 104.541778 
L 49.264796 107.262213 
L 49.506449 100.825655 
L 49.627276 101.016914 
L 49.86893 108.473683 
L 49.989756 108.767515 
L 50.110583 111.480125 
L 50.23141 109.988754 
L 50.473063 104.566904 
L 50.714717 110.953337 
L 50.956371 102.91915 
L 51.077197 103.841924 
L 51.198024 109.307073 
L 51.318851 106.111087 
L 51.560504 98.806775 
L 51.681331 97.024572 
L 51.922985 106.043946 
L 52.043812 104.659964 
L 52.164638 101.115276 
L 52.406292 103.594139 
L 52.647945 98.697886 
L 52.768772 99.625096 
L 53.010426 104.324662 
L 53.131252 108.941429 
L 53.252079 109.24676 
L 53.493733 103.638639 
L 53.735386 109.731206 
L 53.856213 108.222759 
L 53.97704 104.555791 
L 54.218693 111.069164 
L 54.33952 106.012645 
L 54.460347 106.689189 
L 54.581174 110.498343 
L 54.822827 105.746456 
L 55.064481 109.740808 
L 55.185308 109.370473 
L 55.306134 106.084004 
L 55.547788 110.154872 
L 55.789441 97.122877 
L 55.910268 97.39216 
L 56.031095 99.003179 
L 56.151922 97.398788 
L 56.272749 91.767828 
L 56.393575 93.069665 
L 56.635229 100.8734 
L 56.756056 103.09928 
L 56.876882 102.352306 
L 56.997709 97.086434 
L 57.239363 102.485644 
L 57.360189 102.218853 
L 57.481016 103.624233 
L 57.601843 102.950943 
L 57.72267 103.751945 
L 57.964323 99.689073 
L 58.205977 109.883334 
L 58.44763 112.40664 
L 58.568457 106.40399 
L 58.689284 106.137902 
L 58.810111 107.386386 
L 58.930938 103.961109 
L 59.172591 111.351055 
L 59.293418 106.392446 
L 59.414245 106.839311 
L 59.535071 110.243545 
L 59.655898 108.906478 
L 59.897552 101.046813 
L 60.139205 105.320945 
L 60.380859 99.387301 
L 60.622512 98.510248 
L 60.743339 97.459519 
L 60.864166 97.899411 
L 61.105819 103.622324 
L 61.226646 105.628167 
L 61.347473 111.938633 
L 61.4683 109.467968 
L 61.709953 96.572201 
L 61.951607 105.322819 
L 62.072434 102.036523 
L 62.19326 101.934582 
L 62.434914 107.207557 
L 62.555741 107.370773 
L 62.676567 106.428944 
L 62.797394 107.723253 
L 63.039048 113.615336 
L 63.401528 109.707629 
L 63.643182 103.348219 
L 63.884835 100.390062 
L 64.126489 103.092612 
L 64.247315 103.143048 
L 64.368142 103.63648 
L 64.488969 105.429183 
L 64.609796 104.009758 
L 64.972276 96.108307 
L 65.093103 96.712797 
L 65.21393 98.519709 
L 65.334756 94.737008 
L 65.57641 101.554927 
L 65.697237 100.217533 
L 65.93889 110.00079 
L 66.059717 108.860653 
L 66.180544 109.978451 
L 66.301371 112.173789 
L 66.543024 105.514183 
L 66.663851 108.886296 
L 66.784678 106.745811 
L 66.905504 100.606968 
L 67.026331 104.48909 
L 67.147158 114.013993 
L 67.267985 112.507279 
L 67.388812 109.600441 
L 67.751292 114.02712 
L 67.872119 112.567057 
L 68.113772 104.709975 
L 68.355426 101.252346 
L 68.476252 100.027379 
L 68.597079 92.105504 
L 68.838733 101.247496 
L 68.95956 96.929987 
L 69.201213 106.809315 
L 69.563693 94.556265 
L 69.68452 95.800409 
L 69.805347 98.996501 
L 70.047 95.856528 
L 70.530308 104.122956 
L 70.771961 117.071453 
L 70.892788 112.704506 
L 71.013615 112.887488 
L 71.134441 112.244256 
L 71.376095 115.38868 
L 71.496922 105.645889 
L 71.617749 105.503244 
L 71.738575 111.524966 
L 71.859402 109.873248 
L 72.101056 112.490797 
L 72.221882 109.194473 
L 72.342709 110.385404 
L 72.584363 107.015765 
L 72.705189 108.167073 
L 73.188497 92.9761 
L 73.309323 93.418784 
L 73.43015 92.908072 
L 73.671804 95.439731 
L 73.79263 94.307951 
L 74.034284 96.773965 
L 74.275938 105.376108 
L 74.396764 99.620921 
L 74.517591 99.696837 
L 74.880071 110.865993 
L 75.000898 110.760562 
L 75.121725 106.921392 
L 75.363378 111.914386 
L 75.484205 110.750021 
L 75.605032 110.892773 
L 75.846686 120.088921 
L 76.088339 115.508258 
L 76.209166 117.429372 
L 76.329993 115.079704 
L 76.571646 101.547605 
L 76.692473 101.924458 
L 76.8133 103.736715 
L 76.934126 103.279485 
L 77.054953 99.477038 
L 77.296607 101.946074 
L 77.53826 90.521636 
L 77.779914 99.436464 
L 78.021567 93.731563 
L 78.142394 89.346394 
L 78.384048 96.449798 
L 78.625701 93.854971 
L 79.350662 115.16434 
L 79.471489 114.880453 
L 79.592315 109.065669 
L 79.713142 111.972305 
L 79.833969 118.67937 
L 79.954796 118.023276 
L 80.196449 109.982364 
L 80.438103 114.91529 
L 80.55893 109.400614 
L 80.800583 112.5864 
L 81.163063 99.507082 
L 81.28389 102.801463 
L 81.404717 101.162908 
L 81.525544 96.766674 
L 81.646371 96.902397 
L 81.888024 93.293893 
L 82.129678 97.291889 
L 82.371331 91.453765 
L 82.612985 96.953556 
L 82.733812 95.588968 
L 82.975465 101.143063 
L 83.096292 100.957249 
L 83.217119 102.072061 
L 83.458772 110.948106 
L 83.579599 108.661217 
L 83.700426 111.40443 
L 83.942079 123.089228 
L 84.183733 114.188072 
L 84.30456 113.643229 
L 84.425386 114.273228 
L 84.546213 113.900285 
L 84.66704 111.532398 
L 84.787867 112.320889 
L 85.150347 108.120604 
L 85.271174 106.086562 
L 85.392 106.296033 
L 85.633654 99.069362 
L 85.754481 105.090316 
L 85.996134 94.101082 
L 86.116961 92.752937 
L 86.237788 89.49848 
L 86.358615 89.455218 
L 86.479441 86.956474 
L 86.600268 89.580097 
L 86.841922 97.827143 
L 86.962749 96.013601 
L 87.083575 97.770921 
L 87.566882 108.968338 
L 87.687709 109.547597 
L 87.929363 115.098672 
L 88.171016 110.229947 
L 88.654323 122.801999 
L 88.77515 123.233441 
L 89.016804 115.597516 
L 89.258457 106.743019 
L 89.379284 107.142146 
L 89.500111 102.219525 
L 89.620937 101.837161 
L 89.741764 105.364411 
L 90.225071 87.171397 
L 90.466725 96.669909 
L 90.587552 92.72734 
L 90.829205 99.629976 
L 91.070859 92.31221 
L 91.191686 93.195636 
L 91.312512 92.785831 
L 91.433339 93.813484 
L 91.916646 111.298935 
L 92.1583 109.040383 
L 92.399953 118.999931 
L 92.52078 119.126131 
L 92.641607 119.651422 
L 92.762434 119.20691 
L 93.004087 119.994492 
L 93.366567 103.998592 
L 93.608221 112.902569 
L 94.212355 102.239255 
L 94.454008 94.987863 
L 94.574835 96.711066 
L 94.695662 95.474039 
L 94.937315 89.677805 
L 95.178969 86.029345 
L 95.420623 101.232605 
L 95.541449 100.896116 
L 95.662276 99.620216 
L 95.783103 105.478094 
L 96.024756 101.800486 
L 96.145583 101.719186 
L 96.508063 113.908758 
L 96.749717 121.950669 
L 96.991371 114.105934 
L 97.233024 123.531146 
L 97.353851 122.581002 
L 97.595504 117.894124 
L 97.957985 103.629999 
L 98.078812 98.492915 
L 98.199638 98.298644 
L 98.441292 107.644462 
L 98.682945 99.471195 
L 98.803772 98.419008 
L 99.045426 90.973032 
L 99.407906 86.591899 
L 99.528733 91.014946 
L 99.64956 90.808124 
L 99.770386 87.88511 
L 100.01204 95.064844 
L 100.253693 106.07078 
L 100.495347 104.290915 
L 100.737 111.937192 
L 100.857827 110.809648 
L 100.978654 111.25689 
L 101.461961 124.879697 
L 101.703615 121.2025 
L 101.824441 119.576342 
L 102.186922 108.593652 
L 102.428575 105.528298 
L 102.549402 101.417024 
L 102.670229 101.459706 
L 102.791056 100.766555 
L 103.032709 94.230548 
L 103.153536 97.026396 
L 103.395189 90.953327 
L 103.75767 98.212585 
L 103.999323 88.528314 
L 104.240977 103.507762 
L 104.48263 95.139175 
L 104.724284 109.421706 
L 104.845111 109.44815 
L 104.965938 111.712795 
L 105.207591 120.156219 
L 105.449245 113.245979 
L 105.570071 115.383985 
L 105.690898 119.59799 
L 105.932552 115.441558 
L 106.174205 108.423687 
L 106.295032 111.291456 
L 106.415859 111.018723 
L 106.536686 107.836947 
L 106.657512 112.216968 
L 106.778339 108.827169 
L 107.019993 97.335311 
L 107.140819 96.674765 
L 107.261646 97.057107 
L 107.382473 96.61282 
L 107.744953 91.942395 
L 107.86578 91.992104 
L 108.107434 86.787481 
L 108.711567 105.859551 
L 108.953221 108.877653 
L 109.194875 105.341773 
L 109.315701 105.071043 
L 109.436528 106.57121 
L 109.678182 118.62312 
L 109.919835 112.910251 
L 110.282315 115.954578 
L 110.403142 115.140621 
L 110.765623 110.823277 
L 110.886449 110.407401 
L 111.24893 93.539647 
L 111.490583 96.910223 
L 111.61141 100.433189 
L 111.732237 100.176201 
L 112.094717 93.138751 
L 112.215544 93.062568 
L 112.336371 94.671002 
L 112.578024 100.248364 
L 112.698851 101.707644 
L 112.819678 100.660068 
L 113.061331 93.83781 
L 113.302985 111.781207 
L 113.423812 106.270566 
L 113.544638 107.585646 
L 113.786292 117.794855 
L 113.907119 119.331844 
L 114.148772 114.9477 
L 114.269599 108.862608 
L 114.390426 111.034934 
L 114.511252 121.882194 
L 114.752906 109.637964 
L 114.873733 112.663977 
L 115.115386 107.386721 
L 115.236213 108.613809 
L 115.35704 105.062994 
L 115.477867 106.955984 
L 115.598693 107.027091 
L 115.71952 105.485388 
L 115.840347 106.341934 
L 116.202827 94.537062 
L 116.323654 94.549237 
L 116.444481 100.174553 
L 116.565308 99.39303 
L 116.686134 96.242948 
L 116.927788 100.232865 
L 117.048615 97.432107 
L 117.169441 90.856921 
L 117.411095 109.396069 
L 117.531922 108.117476 
L 117.652749 107.822397 
L 117.773575 111.43984 
L 117.894402 109.990529 
L 118.015229 103.769942 
L 118.136056 104.476646 
L 118.377709 112.577542 
L 118.498536 113.525508 
L 118.619363 118.031429 
L 118.861016 113.645007 
L 118.981843 113.987124 
L 119.223497 101.552037 
L 119.46515 109.314142 
L 119.585977 109.522345 
L 119.82763 110.680107 
L 120.069284 98.168498 
L 120.190111 98.297708 
L 120.310937 96.566766 
L 120.552591 106.839804 
L 120.915071 96.542299 
L 121.035898 98.47421 
L 121.156725 96.235712 
L 121.277552 90.256894 
L 121.760859 108.031352 
L 121.881686 109.135482 
L 122.123339 100.263254 
L 122.364993 111.042891 
L 122.606646 107.85472 
L 122.727473 112.874339 
L 122.8483 112.75711 
L 123.089953 108.995799 
L 123.21078 107.706759 
L 123.452434 113.418035 
L 123.57326 108.59685 
L 123.694087 110.052625 
L 123.814914 108.830237 
L 124.177394 102.479413 
L 124.298221 103.882695 
L 124.419048 100.842222 
L 124.539875 102.852231 
L 124.660701 107.124598 
L 124.902355 103.69387 
L 125.023182 102.927148 
L 125.144008 98.176524 
L 125.264835 100.039843 
L 125.506489 105.404349 
L 125.627315 107.491519 
L 125.868969 96.932716 
L 125.989796 98.734472 
L 126.110623 97.890805 
L 126.231449 98.262296 
L 126.352276 98.155721 
L 126.59393 112.135611 
L 126.835583 105.663971 
L 126.95641 108.136047 
L 127.077237 105.688607 
L 127.198063 100.984521 
L 127.31889 100.984647 
L 127.560544 109.517424 
L 127.681371 109.733457 
L 128.043851 103.174506 
L 128.285504 102.807489 
L 128.647985 117.223071 
L 128.768812 113.797729 
L 129.010465 100.245903 
L 129.131292 99.21277 
L 129.372945 107.423252 
L 129.614599 102.914485 
L 129.735426 103.818033 
L 129.856252 100.434505 
L 130.097906 105.786655 
L 130.33956 90.803959 
L 130.70204 106.590445 
L 130.943693 91.896196 
L 131.306174 99.069464 
L 131.668654 114.018079 
L 132.272788 104.775376 
L 132.393615 107.986325 
L 132.514441 107.812302 
L 132.635268 108.092302 
L 132.756095 111.815993 
L 132.997749 111.96191 
L 133.239402 105.41405 
L 133.481056 110.130422 
L 133.601882 110.217824 
L 133.722709 109.600021 
L 134.206016 92.161077 
L 134.689323 105.662388 
L 135.051804 96.071501 
L 135.293457 104.128343 
L 135.535111 99.645871 
L 135.776764 106.896611 
L 135.897591 102.027235 
L 136.018418 102.290871 
L 136.260071 100.878028 
L 136.501725 119.757967 
L 136.743378 120.863889 
L 136.985032 105.841583 
L 137.105859 105.903591 
L 137.347512 106.637251 
L 137.468339 108.958956 
L 137.951646 96.208102 
L 138.1933 99.534515 
L 138.314126 99.571262 
L 138.55578 100.84894 
L 138.676607 99.738669 
L 138.797434 100.449823 
L 138.91826 98.58987 
L 139.159914 86.529487 
L 139.643221 113.510218 
L 139.884875 104.988261 
L 140.126528 107.444288 
L 140.489008 113.353011 
L 140.609835 112.818436 
L 140.851489 104.404494 
L 141.093142 108.996379 
L 141.334796 116.109104 
L 141.818103 107.934674 
L 142.180583 92.566229 
L 142.422237 96.473633 
L 142.66389 103.554287 
L 142.905544 92.227146 
L 143.026371 94.582233 
L 143.268024 102.076963 
L 143.388851 101.475233 
L 143.509678 100.221362 
L 143.751331 94.25252 
L 143.872158 94.975221 
L 143.992985 98.912081 
L 144.234638 113.046071 
L 144.355465 112.796335 
L 144.476292 113.922301 
L 144.597119 113.398218 
L 144.717945 115.783692 
L 144.838772 115.797468 
L 145.080426 109.34114 
L 145.201252 108.349938 
L 145.322079 105.200488 
L 145.442906 105.957401 
L 145.563733 108.845195 
L 145.926213 102.908973 
L 146.288693 113.127925 
L 146.40952 110.781188 
L 146.651174 96.488892 
L 146.892827 78.681121 
L 147.134481 92.107477 
L 147.255308 92.785085 
L 147.376134 91.589717 
L 147.496961 94.868153 
L 147.738615 102.803842 
L 147.980268 107.730395 
L 148.221922 105.807399 
L 148.342749 106.817194 
L 148.584402 102.53444 
L 148.705229 104.089463 
L 149.188536 126.326995 
L 149.309363 127.933529 
L 149.551016 126.243697 
L 149.913497 112.464252 
L 150.396804 96.184368 
L 150.51763 91.172644 
L 150.759284 101.552478 
L 150.880111 98.130896 
L 151.000937 99.722616 
L 151.121764 99.583139 
L 151.846725 80.652271 
L 152.450859 104.382281 
L 152.692512 109.668784 
L 152.813339 106.232423 
L 153.054993 118.82059 
L 153.175819 117.443786 
L 153.296646 117.26681 
L 153.417473 116.151899 
L 153.5383 112.924204 
L 153.90078 119.701415 
L 154.021607 119.051327 
L 154.142434 116.390422 
L 154.384087 122.682583 
L 154.867394 96.256546 
L 154.988221 99.348634 
L 155.109048 98.516572 
L 155.471528 88.264463 
L 155.713182 89.775832 
L 155.834008 93.083209 
L 155.954835 99.773393 
L 156.075662 99.623719 
L 156.317315 90.549526 
L 156.438142 91.011351 
L 156.679796 98.971821 
L 156.800623 98.530367 
L 157.163103 105.3345 
L 157.404756 117.532881 
L 157.525583 115.859142 
L 157.767237 117.706776 
L 158.00889 119.276421 
L 158.129717 116.347975 
L 158.371371 104.916189 
L 158.613024 106.344599 
L 158.854678 112.280438 
L 158.975504 112.887977 
L 159.096331 109.44026 
L 159.458812 92.334757 
L 159.579638 93.119029 
L 159.700465 96.164939 
L 159.821292 94.513956 
L 160.183772 86.155084 
L 160.304599 85.505297 
L 160.667079 102.648586 
L 160.787906 102.920605 
L 161.02956 100.571369 
L 161.271213 102.554224 
L 161.39204 101.102639 
L 161.512867 103.383219 
L 161.996174 123.337159 
L 162.117 123.767081 
L 162.358654 112.964819 
L 162.479481 114.470214 
L 162.600308 122.492274 
L 162.721134 120.739169 
L 162.962788 112.041864 
L 163.325268 99.34025 
L 163.446095 103.8084 
L 163.566922 103.451191 
L 163.808575 96.638344 
L 163.929402 99.714551 
L 164.050229 97.073286 
L 164.412709 85.965701 
L 164.533536 88.121682 
L 164.775189 98.228526 
L 164.896016 96.841583 
L 165.016843 92.545743 
L 165.258497 98.578512 
L 165.379323 96.224771 
L 165.50015 100.500513 
L 165.741804 118.928963 
L 165.983457 115.620474 
L 166.345938 110.260102 
L 166.466764 112.844182 
L 166.708418 120.905084 
L 166.950071 118.749295 
L 167.070898 116.770936 
L 167.312552 107.017711 
L 167.554205 107.324835 
L 167.675032 110.028288 
L 167.795859 109.69649 
L 168.037512 96.268938 
L 168.279166 91.009642 
L 168.399993 93.319659 
L 168.641646 90.632178 
L 168.8833 96.631571 
L 169.124953 92.875539 
L 169.366607 96.380874 
L 169.729087 108.724357 
L 169.849914 117.434528 
L 170.091567 113.78501 
L 170.333221 109.09618 
L 170.574875 121.591566 
L 170.695701 121.423288 
L 171.058182 115.068202 
L 171.179008 115.398055 
L 171.420662 108.190333 
L 171.662315 113.571015 
L 171.783142 117.368165 
L 171.903969 112.923771 
L 172.266449 93.617502 
L 172.62893 88.572095 
L 173.112237 97.154383 
L 173.35389 89.404291 
L 173.716371 103.640834 
L 173.837197 104.491078 
L 174.078851 101.32155 
L 174.199678 101.320067 
L 174.320504 98.026684 
L 174.803812 129.85433 
L 174.924638 128.796578 
L 175.166292 117.880701 
L 175.407945 116.249767 
L 175.649599 108.44434 
L 175.891252 110.34822 
L 176.253733 97.543562 
L 176.37456 98.794855 
L 176.73704 108.927819 
L 177.09952 90.548503 
L 177.220347 89.971421 
L 177.462 85.506815 
L 177.824481 101.155668 
L 177.945308 100.872325 
L 178.186961 108.093748 
L 178.307788 102.910627 
L 178.428615 106.087848 
L 178.549441 112.590379 
L 178.791095 110.02565 
L 178.911922 110.141017 
L 179.032749 108.854687 
L 179.153575 105.705889 
L 179.274402 105.886219 
L 179.636882 122.236216 
L 179.757709 122.655478 
L 180.120189 113.314934 
L 180.241016 111.701788 
L 180.603497 99.019651 
L 180.84515 103.85186 
L 181.086804 94.547059 
L 181.20763 99.151257 
L 181.449284 97.148782 
L 181.690937 104.142514 
L 181.811764 102.033929 
L 182.053418 83.6314 
L 182.415898 97.872526 
L 183.261686 117.671847 
L 183.382512 119.239889 
L 183.624166 116.576004 
L 183.865819 120.998329 
L 184.107473 108.01926 
L 184.2283 108.255616 
L 184.349126 111.984609 
L 184.59078 109.458815 
L 184.711607 113.975626 
L 184.832434 112.327133 
L 185.315741 98.019944 
L 185.557394 89.659628 
L 185.678221 88.576772 
L 185.799048 88.497641 
L 186.040701 94.460542 
L 186.161528 92.513385 
L 186.282355 94.170706 
L 186.403182 92.657864 
L 186.524008 94.717851 
L 186.765662 101.449524 
L 186.886489 105.073075 
L 187.007315 103.002997 
L 187.128142 97.772725 
L 187.490623 109.664374 
L 187.97393 128.001847 
L 188.094756 127.212929 
L 188.33641 114.180014 
L 188.457237 114.302047 
L 188.69889 104.94903 
L 188.940544 109.328531 
L 189.182197 103.46412 
L 189.665504 99.096149 
L 189.786331 101.948786 
L 190.027985 94.388589 
L 190.148812 93.709268 
L 190.269638 83.78829 
L 190.390465 83.366518 
L 190.511292 93.284123 
L 190.752945 89.532505 
L 191.115426 110.733216 
L 191.236252 112.339849 
L 191.357079 110.61039 
L 191.598733 101.417166 
L 191.840386 114.982175 
L 191.961213 113.659461 
L 192.08204 112.397831 
L 192.202867 115.393088 
L 192.323693 111.178046 
L 192.44452 111.34358 
L 192.686174 116.959509 
L 192.927827 119.895102 
L 193.290308 105.648382 
L 193.531961 94.072806 
L 193.773615 96.663865 
L 193.894441 94.97097 
L 194.015268 97.618319 
L 194.136095 97.146059 
L 194.498575 90.061244 
L 194.981882 98.238901 
L 195.223536 95.410313 
L 195.344363 96.629237 
L 195.586016 107.497366 
L 195.82767 109.104562 
L 195.948497 112.753245 
L 196.069323 119.85666 
L 196.19015 119.226589 
L 196.310977 113.312365 
L 196.431804 114.17925 
L 196.673457 119.301173 
L 196.915111 117.403707 
L 197.035937 117.577846 
L 197.277591 103.384792 
L 197.398418 110.353898 
L 197.881725 102.154569 
L 198.244205 97.093784 
L 198.365032 91.716032 
L 198.606686 92.281609 
L 198.848339 85.918933 
L 199.089993 92.184278 
L 199.210819 93.693237 
L 199.331646 98.659428 
L 199.452473 96.23493 
L 199.93578 111.010155 
L 200.419087 114.25218 
L 200.539914 115.959156 
L 200.660741 115.325899 
L 200.781567 113.02361 
L 200.902394 116.748215 
L 201.023221 124.443825 
L 201.144048 123.232209 
L 201.385701 113.215902 
L 201.506528 114.057052 
L 201.627355 111.917955 
L 201.989835 99.944345 
L 202.110662 98.972028 
L 202.231489 98.976218 
L 202.473142 91.305 
L 202.714796 96.981658 
L 202.835623 98.793837 
L 202.956449 98.491491 
L 203.198103 93.956662 
L 203.31893 92.292854 
L 203.439756 85.85492 
L 203.560583 86.591653 
L 204.285544 111.881599 
L 204.406371 112.027452 
L 204.527197 115.856024 
L 204.768851 114.575811 
L 204.889678 118.404508 
L 205.131331 109.861138 
L 205.252158 110.23947 
L 205.372985 107.241915 
L 205.493812 107.222495 
L 205.614638 105.311195 
L 205.735465 106.636543 
L 205.977119 115.815696 
L 206.702079 89.342366 
L 206.822906 90.740032 
L 206.943733 92.215777 
L 207.185386 100.354036 
L 207.42704 95.167521 
L 207.668693 100.438054 
L 207.910347 107.65437 
L 208.031174 106.806425 
L 208.514481 98.022397 
L 208.635308 101.162907 
L 208.997788 118.669224 
L 209.118615 122.175018 
L 209.239441 121.21022 
L 209.360268 115.777821 
L 209.481095 118.341747 
L 209.601922 117.823596 
L 209.843575 110.888299 
L 209.964402 110.921377 
L 210.085229 110.604419 
L 210.326882 97.347125 
L 210.568536 102.021661 
L 210.689363 101.773692 
L 210.810189 102.41115 
L 211.051843 109.319645 
L 211.17267 105.772305 
L 211.53515 87.254418 
L 211.655977 87.679797 
L 211.776804 87.196484 
L 211.89763 87.310832 
L 212.139284 97.434173 
L 212.380938 107.321386 
L 212.501764 107.273649 
L 212.864245 117.228733 
L 213.105898 101.977648 
L 213.226725 102.339063 
L 213.468378 107.778538 
L 213.589205 107.659152 
L 214.072512 125.179291 
L 214.193339 122.175022 
L 214.434993 109.953764 
L 214.9183 100.072233 
L 215.159953 94.795952 
L 215.401607 100.967094 
L 215.522434 97.297132 
L 215.64326 97.16094 
L 215.884914 108.235405 
L 216.005741 106.272 
L 216.247394 95.024697 
L 216.368221 96.403714 
L 216.609875 92.590086 
L 216.730701 94.426671 
L 217.093182 114.413053 
L 217.334835 110.140686 
L 217.455662 115.509501 
L 217.697315 110.539696 
L 217.938969 111.497837 
L 218.180623 103.707675 
L 218.301449 104.849127 
L 218.543103 110.408927 
L 218.66393 110.562123 
L 218.784756 109.931515 
L 218.905583 110.939868 
L 219.02641 113.04001 
L 219.268063 109.449402 
L 219.509717 89.315399 
L 219.630544 89.079014 
L 219.872197 91.265429 
L 220.113851 102.291524 
L 220.355504 95.839961 
L 220.597158 103.825925 
L 220.717985 103.605323 
L 220.838812 105.408667 
L 221.080465 104.93697 
L 221.322119 99.662471 
L 221.563772 103.570846 
L 221.684599 101.935983 
L 222.167906 123.136115 
L 222.288733 119.701291 
L 222.530386 109.600031 
L 222.651213 109.401668 
L 222.77204 109.625117 
L 223.013693 105.146715 
L 223.13452 106.66801 
L 223.376174 99.056178 
L 223.617827 105.82609 
L 223.738654 104.18344 
L 223.980308 98.449234 
L 224.101134 99.558219 
L 224.221961 94.901605 
L 224.342788 94.887049 
L 224.463615 98.246324 
L 224.705268 87.698521 
L 224.946922 95.052555 
L 225.067749 98.232534 
L 225.309402 109.243601 
L 225.430229 109.450611 
L 225.551056 106.467743 
L 225.792709 111.773751 
L 225.913536 105.962637 
L 226.034363 106.910645 
L 226.276016 116.730254 
L 226.51767 114.16069 
L 226.638497 113.862728 
L 226.88015 114.648798 
L 227.121804 108.536576 
L 227.363457 111.484202 
L 227.967591 92.861293 
L 228.088418 91.992478 
L 228.209245 96.278631 
L 228.330071 96.244863 
L 228.450898 94.389848 
L 228.571725 98.819492 
L 228.692552 97.112177 
L 228.813378 86.945989 
L 228.934205 86.303469 
L 229.175859 94.355577 
L 229.296686 93.480967 
L 229.659166 103.717085 
L 229.900819 107.127561 
L 230.2633 113.18626 
L 230.504953 115.157231 
L 230.62578 116.832956 
L 230.867434 113.175073 
L 230.98826 115.921881 
L 231.109087 113.118269 
L 231.229914 113.96723 
L 231.350741 113.953707 
L 231.471567 112.989398 
L 231.592394 115.204402 
L 231.713221 112.428354 
L 232.075701 97.639342 
L 232.317355 103.561648 
L 232.679835 92.988911 
L 232.800662 89.487861 
L 233.042315 92.986771 
L 233.283969 96.530046 
L 233.404796 94.016239 
L 233.525623 95.788144 
L 233.646449 100.431103 
L 233.767276 99.720368 
L 234.00893 103.7733 
L 234.129756 102.649079 
L 234.613063 115.564919 
L 234.854717 108.552023 
L 235.458851 124.361728 
L 235.821331 102.551068 
L 235.942158 107.227037 
L 236.183812 102.158672 
L 236.304638 104.156576 
L 236.546292 96.42238 
L 236.667119 98.406463 
L 236.787945 103.3811 
L 236.908772 100.730147 
L 237.150426 88.262555 
L 237.392079 99.026746 
L 237.633733 93.268269 
L 237.75456 93.766267 
L 237.875386 93.306502 
L 238.358693 111.99142 
L 238.600347 107.297799 
L 238.962827 113.48338 
L 239.083654 111.420915 
L 239.325308 117.613609 
L 239.446134 112.047611 
L 239.687788 118.451827 
L 240.050268 111.383606 
L 240.171095 111.0077 
L 240.412749 106.277843 
L 240.533575 106.784064 
L 240.896056 93.854067 
L 241.258536 97.300309 
L 241.500189 92.344076 
L 241.621016 92.793652 
L 241.983497 98.625816 
L 242.22515 93.555252 
L 242.466804 100.153195 
L 242.829284 104.811791 
L 243.191764 118.65727 
L 243.433418 122.955586 
L 243.554245 118.690417 
L 243.675071 118.462229 
L 243.795898 117.948357 
L 244.037552 115.262743 
L 244.158378 116.389471 
L 244.279205 113.695288 
L 244.520859 102.38902 
L 244.762512 115.459941 
L 245.366646 90.022272 
L 245.6083 92.4691 
L 245.849953 83.564348 
L 245.97078 86.178398 
L 246.212434 95.338952 
L 246.33326 93.092094 
L 246.937394 107.098601 
L 247.058221 104.483226 
L 247.179048 105.233449 
L 247.420701 102.214615 
L 247.783182 117.52189 
L 247.904008 127.034714 
L 248.024835 126.47205 
L 248.266489 120.005429 
L 248.387315 122.632423 
L 248.508142 120.723831 
L 248.749796 102.916186 
L 248.991449 105.224191 
L 249.112276 104.482608 
L 249.595583 94.071249 
L 249.837237 101.974575 
L 250.562197 81.910627 
L 250.683024 87.285975 
L 250.924678 101.952329 
L 251.045504 102.504755 
L 251.166331 105.913102 
L 251.287158 114.235275 
L 251.407985 113.711959 
L 251.528812 108.390305 
L 251.770465 116.079365 
L 251.891292 114.34177 
L 252.132945 119.041282 
L 252.253772 117.599531 
L 252.374599 118.208471 
L 252.495426 116.64511 
L 252.616252 117.105575 
L 252.978733 121.574664 
L 253.09956 119.7379 
L 253.582867 95.297217 
L 253.703693 94.430763 
L 253.82452 89.658209 
L 254.066174 89.742687 
L 254.187 87.686381 
L 254.307827 89.116257 
L 254.428654 88.591353 
L 254.549481 89.3738 
L 254.791134 86.780861 
L 255.032788 90.890399 
L 255.153615 89.169071 
L 255.395268 92.703733 
L 255.516095 94.690237 
L 256.120229 127.054394 
L 256.241056 128.725461 
L 256.482709 121.747026 
L 256.724363 124.106295 
L 256.845189 123.51532 
L 256.966016 119.860175 
L 257.086843 119.981854 
L 257.20767 122.510345 
L 257.328497 117.122725 
L 257.449323 117.950478 
L 257.57015 122.587893 
L 257.811804 107.443993 
L 257.93263 102.756641 
L 258.174284 92.587959 
L 258.295111 92.402308 
L 258.778418 78.655236 
L 258.899245 79.38468 
L 259.140898 96.920117 
L 259.261725 94.862773 
L 259.382552 91.685408 
L 259.624205 96.298692 
L 259.865859 97.56512 
L 260.349166 111.687486 
L 260.469993 114.258689 
L 260.711646 123.817501 
L 260.832473 124.050549 
L 260.9533 125.434934 
L 261.194953 130.281153 
L 261.31578 127.235873 
L 261.557434 114.727269 
L 261.67826 111.342247 
L 261.799087 102.790138 
L 262.040741 109.203318 
L 262.161567 108.05577 
L 262.765701 92.582294 
L 263.249008 86.30523 
L 263.369835 79.691964 
L 263.490662 82.024153 
L 263.611489 81.87715 
L 263.732315 83.226588 
L 263.973969 100.423015 
L 264.094796 102.762466 
L 264.215623 111.039907 
L 264.336449 110.42841 
L 264.457276 110.843574 
L 264.578103 112.905619 
L 264.69893 110.301162 
L 264.819756 111.692191 
L 265.182237 123.020255 
L 265.303063 122.665224 
L 265.42389 123.332352 
L 265.544717 123.003826 
L 265.665544 119.331244 
L 265.786371 119.141596 
L 265.907197 119.88489 
L 266.028024 121.495276 
L 266.148851 120.963173 
L 266.511331 95.901912 
L 266.752985 91.386015 
L 266.873812 94.0461 
L 267.115465 88.579093 
L 267.357119 94.624256 
L 267.598772 86.682109 
L 267.719599 86.722808 
L 267.840426 88.412132 
L 267.961252 84.979131 
L 268.082079 89.436521 
L 268.202906 98.882254 
L 268.323733 96.621348 
L 268.44456 97.702426 
L 268.927867 114.781869 
L 269.16952 126.855557 
L 269.290347 124.331 
L 269.532 117.826952 
L 269.652827 118.186658 
L 269.894481 110.937699 
L 270.256961 114.75579 
L 270.498615 115.517198 
L 270.861095 102.561591 
L 271.102749 94.70673 
L 271.223575 95.826756 
L 271.586056 87.313363 
L 271.706882 86.268785 
L 271.827709 81.331964 
L 272.069363 92.93129 
L 272.190189 91.764828 
L 272.311016 92.789803 
L 272.55267 104.49382 
L 272.673497 98.632908 
L 272.794323 98.471678 
L 273.27763 112.055075 
L 273.398457 111.62107 
L 273.640111 123.302758 
L 273.881764 117.506292 
L 274.123418 128.10805 
L 274.848378 101.167562 
L 274.969205 103.153069 
L 275.210859 96.969106 
L 275.331686 100.644509 
L 275.452512 100.769646 
L 275.694166 93.496142 
L 276.056646 85.746602 
L 276.2983 90.124425 
L 276.419126 90.230484 
L 276.781607 98.418408 
L 277.144087 110.364407 
L 277.264914 117.103334 
L 277.506567 111.135441 
L 277.627394 113.99388 
L 277.748221 114.082519 
L 277.869048 115.251252 
L 278.110701 119.485757 
L 278.231528 119.441498 
L 278.352355 120.615417 
L 278.594008 124.853709 
L 278.835662 109.916317 
L 278.956489 113.586806 
L 279.077315 112.046053 
L 279.560623 95.875709 
L 279.681449 88.432816 
L 279.802276 88.185472 
L 280.04393 90.498332 
L 280.285583 94.783543 
L 280.40641 94.177754 
L 280.648063 84.540227 
L 280.889717 93.785714 
L 281.010544 95.217491 
L 281.252197 106.131293 
L 281.373024 106.742088 
L 281.614678 104.658788 
L 281.856331 111.985715 
L 282.218812 125.289323 
L 282.581292 122.366871 
L 282.822945 112.716891 
L 282.943772 114.369623 
L 283.185426 118.675078 
L 283.427079 103.54207 
L 283.547906 104.967731 
L 283.910386 99.825624 
L 284.15204 91.474453 
L 284.272867 91.673671 
L 284.756174 76.364961 
L 285.118654 96.951715 
L 285.118654 96.951715 
" clip-path="url(#p76a4f3372f)" style="fill: none; stroke: #0000ff; stroke-width: 0.8; stroke-linecap: square"/>
   </g>
   <g id="patch_3">
    <path d="M 43.585938 191.971986 
L 43.585938 17.357813 
" style="fill: none; stroke: #000000; stroke-width: 0.8; stroke-linejoin: miter; stroke-linecap: square"/>
   </g>
   <g id="patch_4">
    <path d="M 285.239481 191.971986 
L 285.239481 17.357813 
" style="fill: none; stroke: #000000; stroke-width: 0.8; stroke-linejoin: miter; stroke-linecap: square"/>
   </g>
   <g id="patch_5">
    <path d="M 43.585938 191.971986 
L 285.239481 191.971986 
" style="fill: none; stroke: #000000; stroke-width: 0.8; stroke-linejoin: miter; stroke-linecap: square"/>
   </g>
   <g id="patch_6">
    <path d="M 43.585938 17.357812 
L 285.239481 17.357812 
" style="fill: none; stroke: #000000; stroke-width: 0.8; stroke-linejoin: miter; stroke-linecap: square"/>
   </g>
   <g id="legend_1">
    <g id="patch_7">
     <path d="M 50.585938 53.8875 
L 152.045313 53.8875 
Q 154.045313 53.8875 154.045313 51.8875 
L 154.045313 24.357812 
Q 154.045313 22.357812 152.045313 22.357812 
L 50.585938 22.357812 
Q 48.585938 22.357812 48.585938 24.357812 
L 48.585938 51.8875 
Q 48.585938 53.8875 50.585938 53.8875 
z
" style="fill: #ffffff; stroke: #000000; stroke-linejoin: miter"/>
    </g>
    <g id="line2d_29">
     <path d="M 52.585938 30.015625 
L 62.585938 30.015625 
L 72.585938 30.015625 
" style="fill: none; stroke: #ff0000; stroke-width: 0.8; stroke-linecap: square"/>
    </g>
    <g id="text_17">
     <!-- Elastic force -->
     <g transform="translate(80.585938 33.515625) scale(0.1 -0.1)">
      <defs>
       <path id="ArialMT-45" d="M 506 0 
L 506 4581 
L 3819 4581 
L 3819 4041 
L 1113 4041 
L 1113 2638 
L 3647 2638 
L 3647 2100 
L 1113 2100 
L 1113 541 
L 3925 541 
L 3925 0 
L 506 0 
z
" transform="scale(0.015625)"/>
       <path id="ArialMT-6c" d="M 409 0 
L 409 4581 
L 972 4581 
L 972 0 
L 409 0 
z
" transform="scale(0.015625)"/>
       <path id="ArialMT-74" d="M 1650 503 
L 1731 6 
Q 1494 -44 1306 -44 
Q 1000 -44 831 53 
Q 663 150 594 308 
Q 525 466 525 972 
L 525 2881 
L 113 2881 
L 113 3319 
L 525 3319 
L 525 4141 
L 1084 4478 
L 1084 3319 
L 1650 3319 
L 1650 2881 
L 1084 2881 
L 1084 941 
Q 1084 700 1114 631 
Q 1144 563 1211 522 
Q 1278 481 1403 481 
Q 1497 481 1650 503 
z
" transform="scale(0.015625)"/>
      </defs>
      <use xlink:href="#ArialMT-45"/>
      <use xlink:href="#ArialMT-6c" x="66.699219"/>
      <use xlink:href="#ArialMT-61" x="88.916016"/>
      <use xlink:href="#ArialMT-73" x="144.53125"/>
      <use xlink:href="#ArialMT-74" x="194.53125"/>
      <use xlink:href="#ArialMT-69" x="222.314453"/>
      <use xlink:href="#ArialMT-63" x="244.53125"/>
      <use xlink:href="#ArialMT-20" x="294.53125"/>
      <use xlink:href="#ArialMT-66" x="322.314453"/>
      <use xlink:href="#ArialMT-6f" x="350.097656"/>
      <use xlink:href="#ArialMT-72" x="405.712891"/>
      <use xlink:href="#ArialMT-63" x="439.013672"/>
      <use xlink:href="#ArialMT-65" x="489.013672"/>
     </g>
    </g>
    <g id="line2d_30">
     <path d="M 52.585938 44.282813 
L 62.585938 44.282813 
L 72.585938 44.282813 
" style="fill: none; stroke: #0000ff; stroke-width: 0.8; stroke-linecap: square"/>
    </g>
    <g id="text_18">
     <!-- Hysteretic force -->
     <g transform="translate(80.585938 47.782813) scale(0.1 -0.1)">
      <defs>
       <path id="ArialMT-48" d="M 513 0 
L 513 4581 
L 1119 4581 
L 1119 2700 
L 3500 2700 
L 3500 4581 
L 4106 4581 
L 4106 0 
L 3500 0 
L 3500 2159 
L 1119 2159 
L 1119 0 
L 513 0 
z
" transform="scale(0.015625)"/>
       <path id="ArialMT-79" d="M 397 -1278 
L 334 -750 
Q 519 -800 656 -800 
Q 844 -800 956 -737 
Q 1069 -675 1141 -563 
Q 1194 -478 1313 -144 
Q 1328 -97 1363 -6 
L 103 3319 
L 709 3319 
L 1400 1397 
Q 1534 1031 1641 628 
Q 1738 1016 1872 1384 
L 2581 3319 
L 3144 3319 
L 1881 -56 
Q 1678 -603 1566 -809 
Q 1416 -1088 1222 -1217 
Q 1028 -1347 759 -1347 
Q 597 -1347 397 -1278 
z
" transform="scale(0.015625)"/>
      </defs>
      <use xlink:href="#ArialMT-48"/>
      <use xlink:href="#ArialMT-79" x="72.216797"/>
      <use xlink:href="#ArialMT-73" x="122.216797"/>
      <use xlink:href="#ArialMT-74" x="172.216797"/>
      <use xlink:href="#ArialMT-65" x="200"/>
      <use xlink:href="#ArialMT-72" x="255.615234"/>
      <use xlink:href="#ArialMT-65" x="288.916016"/>
      <use xlink:href="#ArialMT-74" x="344.53125"/>
      <use xlink:href="#ArialMT-69" x="372.314453"/>
      <use xlink:href="#ArialMT-63" x="394.53125"/>
      <use xlink:href="#ArialMT-20" x="444.53125"/>
      <use xlink:href="#ArialMT-66" x="472.314453"/>
      <use xlink:href="#ArialMT-6f" x="500.097656"/>
      <use xlink:href="#ArialMT-72" x="555.712891"/>
      <use xlink:href="#ArialMT-63" x="589.013672"/>
      <use xlink:href="#ArialMT-65" x="639.013672"/>
     </g>
    </g>
   </g>
  </g>
 </g>
 <defs>
  <clipPath id="p76a4f3372f">
   <rect x="43.585938" y="17.357812" width="241.653543" height="174.614173"/>
  </clipPath>
 </defs>
</svg>
