<?xml version="1.0" encoding="utf-8" standalone="no"?>
<!DOCTYPE svg PUBLIC "-//W3C//DTD SVG 1.1//EN"
  "http://www.w3.org/Graphics/SVG/1.1/DTD/svg11.dtd">
<svg xmlns:xlink="http://www.w3.org/1999/xlink" width="298.241825pt" height="218.622767pt" viewBox="0 0 298.241825 218.622767" xmlns="http://www.w3.org/2000/svg" version="1.1">
 <metadata>
  <rdf:RDF xmlns:dc="http://purl.org/dc/elements/1.1/" xmlns:cc="http://creativecommons.org/ns#" xmlns:rdf="http://www.w3.org/1999/02/22-rdf-syntax-ns#">
   <cc:Work>
    <dc:type rdf:resource="http://purl.org/dc/dcmitype/StillImage"/>
    <dc:date>2024-03-27T11:44:00.281423</dc:date>
    <dc:format>image/svg+xml</dc:format>
    <dc:creator>
     <cc:Agent>
      <dc:title>Matplotlib v3.8.2, https://matplotlib.org/</dc:title>
     </cc:Agent>
    </dc:creator>
   </cc:Work>
  </rdf:RDF>
 </metadata>
 <defs>
  <style type="text/css">*{stroke-linejoin: round; stroke-linecap: butt}</style>
 </defs>
 <g id="figure_1">
  <g id="patch_1">
   <path d="M 0 218.622767 
L 298.241825 218.622767 
L 298.241825 0 
L 0 0 
z
" style="fill: #ffffff"/>
  </g>
  <g id="axes_1">
   <g id="patch_2">
    <path d="M 41.046875 185.393079 
L 282.700418 185.393079 
L 282.700418 10.778906 
L 41.046875 10.778906 
z
" style="fill: #ffffff"/>
   </g>
   <g id="matplotlib.axis_1">
    <g id="xtick_1">
     <g id="line2d_1">
      <path d="M 41.046875 185.393079 
L 41.046875 10.778906 
" clip-path="url(#p3ea99bbdc6)" style="fill: none; stroke: #b0b0b0; stroke-width: 0.8; stroke-linecap: square"/>
     </g>
     <g id="line2d_2">
      <defs>
       <path id="mbd2c751d88" d="M 0 0 
L 0 -3.5 
" style="stroke: #000000; stroke-width: 0.8"/>
      </defs>
      <g>
       <use xlink:href="#mbd2c751d88" x="41.046875" y="185.393079" style="stroke: #000000; stroke-width: 0.8"/>
      </g>
     </g>
     <g id="text_1">
      <!-- 0 -->
      <g transform="translate(38.266406 196.050892) scale(0.1 -0.1)">
       <defs>
        <path id="ArialMT-30" d="M 266 2259 
Q 266 3072 433 3567 
Q 600 4063 929 4331 
Q 1259 4600 1759 4600 
Q 2128 4600 2406 4451 
Q 2684 4303 2865 4023 
Q 3047 3744 3150 3342 
Q 3253 2941 3253 2259 
Q 3253 1453 3087 958 
Q 2922 463 2592 192 
Q 2263 -78 1759 -78 
Q 1097 -78 719 397 
Q 266 969 266 2259 
z
M 844 2259 
Q 844 1131 1108 757 
Q 1372 384 1759 384 
Q 2147 384 2411 759 
Q 2675 1134 2675 2259 
Q 2675 3391 2411 3762 
Q 2147 4134 1753 4134 
Q 1366 4134 1134 3806 
Q 844 3388 844 2259 
z
" transform="scale(0.015625)"/>
       </defs>
       <use xlink:href="#ArialMT-30"/>
      </g>
     </g>
    </g>
    <g id="xtick_2">
     <g id="line2d_3">
      <path d="M 89.377584 185.393079 
L 89.377584 10.778906 
" clip-path="url(#p3ea99bbdc6)" style="fill: none; stroke: #b0b0b0; stroke-width: 0.8; stroke-linecap: square"/>
     </g>
     <g id="line2d_4">
      <g>
       <use xlink:href="#mbd2c751d88" x="89.377584" y="185.393079" style="stroke: #000000; stroke-width: 0.8"/>
      </g>
     </g>
     <g id="text_2">
      <!-- 20 -->
      <g transform="translate(83.816646 196.050892) scale(0.1 -0.1)">
       <defs>
        <path id="ArialMT-32" d="M 3222 541 
L 3222 0 
L 194 0 
Q 188 203 259 391 
Q 375 700 629 1000 
Q 884 1300 1366 1694 
Q 2113 2306 2375 2664 
Q 2638 3022 2638 3341 
Q 2638 3675 2398 3904 
Q 2159 4134 1775 4134 
Q 1369 4134 1125 3890 
Q 881 3647 878 3216 
L 300 3275 
Q 359 3922 746 4261 
Q 1134 4600 1788 4600 
Q 2447 4600 2831 4234 
Q 3216 3869 3216 3328 
Q 3216 3053 3103 2787 
Q 2991 2522 2730 2228 
Q 2469 1934 1863 1422 
Q 1356 997 1212 845 
Q 1069 694 975 541 
L 3222 541 
z
" transform="scale(0.015625)"/>
       </defs>
       <use xlink:href="#ArialMT-32"/>
       <use xlink:href="#ArialMT-30" x="55.615234"/>
      </g>
     </g>
    </g>
    <g id="xtick_3">
     <g id="line2d_5">
      <path d="M 137.708292 185.393079 
L 137.708292 10.778906 
" clip-path="url(#p3ea99bbdc6)" style="fill: none; stroke: #b0b0b0; stroke-width: 0.8; stroke-linecap: square"/>
     </g>
     <g id="line2d_6">
      <g>
       <use xlink:href="#mbd2c751d88" x="137.708292" y="185.393079" style="stroke: #000000; stroke-width: 0.8"/>
      </g>
     </g>
     <g id="text_3">
      <!-- 40 -->
      <g transform="translate(132.147355 196.050892) scale(0.1 -0.1)">
       <defs>
        <path id="ArialMT-34" d="M 2069 0 
L 2069 1097 
L 81 1097 
L 81 1613 
L 2172 4581 
L 2631 4581 
L 2631 1613 
L 3250 1613 
L 3250 1097 
L 2631 1097 
L 2631 0 
L 2069 0 
z
M 2069 1613 
L 2069 3678 
L 634 1613 
L 2069 1613 
z
" transform="scale(0.015625)"/>
       </defs>
       <use xlink:href="#ArialMT-34"/>
       <use xlink:href="#ArialMT-30" x="55.615234"/>
      </g>
     </g>
    </g>
    <g id="xtick_4">
     <g id="line2d_7">
      <path d="M 186.039001 185.393079 
L 186.039001 10.778906 
" clip-path="url(#p3ea99bbdc6)" style="fill: none; stroke: #b0b0b0; stroke-width: 0.8; stroke-linecap: square"/>
     </g>
     <g id="line2d_8">
      <g>
       <use xlink:href="#mbd2c751d88" x="186.039001" y="185.393079" style="stroke: #000000; stroke-width: 0.8"/>
      </g>
     </g>
     <g id="text_4">
      <!-- 60 -->
      <g transform="translate(180.478063 196.050892) scale(0.1 -0.1)">
       <defs>
        <path id="ArialMT-36" d="M 3184 3459 
L 2625 3416 
Q 2550 3747 2413 3897 
Q 2184 4138 1850 4138 
Q 1581 4138 1378 3988 
Q 1113 3794 959 3422 
Q 806 3050 800 2363 
Q 1003 2672 1297 2822 
Q 1591 2972 1913 2972 
Q 2475 2972 2870 2558 
Q 3266 2144 3266 1488 
Q 3266 1056 3080 686 
Q 2894 316 2569 119 
Q 2244 -78 1831 -78 
Q 1128 -78 684 439 
Q 241 956 241 2144 
Q 241 3472 731 4075 
Q 1159 4600 1884 4600 
Q 2425 4600 2770 4297 
Q 3116 3994 3184 3459 
z
M 888 1484 
Q 888 1194 1011 928 
Q 1134 663 1356 523 
Q 1578 384 1822 384 
Q 2178 384 2434 671 
Q 2691 959 2691 1453 
Q 2691 1928 2437 2201 
Q 2184 2475 1800 2475 
Q 1419 2475 1153 2201 
Q 888 1928 888 1484 
z
" transform="scale(0.015625)"/>
       </defs>
       <use xlink:href="#ArialMT-36"/>
       <use xlink:href="#ArialMT-30" x="55.615234"/>
      </g>
     </g>
    </g>
    <g id="xtick_5">
     <g id="line2d_9">
      <path d="M 234.36971 185.393079 
L 234.36971 10.778906 
" clip-path="url(#p3ea99bbdc6)" style="fill: none; stroke: #b0b0b0; stroke-width: 0.8; stroke-linecap: square"/>
     </g>
     <g id="line2d_10">
      <g>
       <use xlink:href="#mbd2c751d88" x="234.36971" y="185.393079" style="stroke: #000000; stroke-width: 0.8"/>
      </g>
     </g>
     <g id="text_5">
      <!-- 80 -->
      <g transform="translate(228.808772 196.050892) scale(0.1 -0.1)">
       <defs>
        <path id="ArialMT-38" d="M 1131 2484 
Q 781 2613 612 2850 
Q 444 3088 444 3419 
Q 444 3919 803 4259 
Q 1163 4600 1759 4600 
Q 2359 4600 2725 4251 
Q 3091 3903 3091 3403 
Q 3091 3084 2923 2848 
Q 2756 2613 2416 2484 
Q 2838 2347 3058 2040 
Q 3278 1734 3278 1309 
Q 3278 722 2862 322 
Q 2447 -78 1769 -78 
Q 1091 -78 675 323 
Q 259 725 259 1325 
Q 259 1772 486 2073 
Q 713 2375 1131 2484 
z
M 1019 3438 
Q 1019 3113 1228 2906 
Q 1438 2700 1772 2700 
Q 2097 2700 2305 2904 
Q 2513 3109 2513 3406 
Q 2513 3716 2298 3927 
Q 2084 4138 1766 4138 
Q 1444 4138 1231 3931 
Q 1019 3725 1019 3438 
z
M 838 1322 
Q 838 1081 952 856 
Q 1066 631 1291 507 
Q 1516 384 1775 384 
Q 2178 384 2440 643 
Q 2703 903 2703 1303 
Q 2703 1709 2433 1975 
Q 2163 2241 1756 2241 
Q 1359 2241 1098 1978 
Q 838 1716 838 1322 
z
" transform="scale(0.015625)"/>
       </defs>
       <use xlink:href="#ArialMT-38"/>
       <use xlink:href="#ArialMT-30" x="55.615234"/>
      </g>
     </g>
    </g>
    <g id="xtick_6">
     <g id="line2d_11">
      <path d="M 282.700418 185.393079 
L 282.700418 10.778906 
" clip-path="url(#p3ea99bbdc6)" style="fill: none; stroke: #b0b0b0; stroke-width: 0.8; stroke-linecap: square"/>
     </g>
     <g id="line2d_12">
      <g>
       <use xlink:href="#mbd2c751d88" x="282.700418" y="185.393079" style="stroke: #000000; stroke-width: 0.8"/>
      </g>
     </g>
     <g id="text_6">
      <!-- 100 -->
      <g transform="translate(274.359012 196.050892) scale(0.1 -0.1)">
       <defs>
        <path id="ArialMT-31" d="M 2384 0 
L 1822 0 
L 1822 3584 
Q 1619 3391 1289 3197 
Q 959 3003 697 2906 
L 697 3450 
Q 1169 3672 1522 3987 
Q 1875 4303 2022 4600 
L 2384 4600 
L 2384 0 
z
" transform="scale(0.015625)"/>
       </defs>
       <use xlink:href="#ArialMT-31"/>
       <use xlink:href="#ArialMT-30" x="55.615234"/>
       <use xlink:href="#ArialMT-30" x="111.230469"/>
      </g>
     </g>
    </g>
    <g id="text_7">
     <!-- Time (s) -->
     <g transform="translate(143.73224 209.318079) scale(0.1 -0.1)">
      <defs>
       <path id="ArialMT-54" d="M 1659 0 
L 1659 4041 
L 150 4041 
L 150 4581 
L 3781 4581 
L 3781 4041 
L 2266 4041 
L 2266 0 
L 1659 0 
z
" transform="scale(0.015625)"/>
       <path id="ArialMT-69" d="M 425 3934 
L 425 4581 
L 988 4581 
L 988 3934 
L 425 3934 
z
M 425 0 
L 425 3319 
L 988 3319 
L 988 0 
L 425 0 
z
" transform="scale(0.015625)"/>
       <path id="ArialMT-6d" d="M 422 0 
L 422 3319 
L 925 3319 
L 925 2853 
Q 1081 3097 1340 3245 
Q 1600 3394 1931 3394 
Q 2300 3394 2536 3241 
Q 2772 3088 2869 2813 
Q 3263 3394 3894 3394 
Q 4388 3394 4653 3120 
Q 4919 2847 4919 2278 
L 4919 0 
L 4359 0 
L 4359 2091 
Q 4359 2428 4304 2576 
Q 4250 2725 4106 2815 
Q 3963 2906 3769 2906 
Q 3419 2906 3187 2673 
Q 2956 2441 2956 1928 
L 2956 0 
L 2394 0 
L 2394 2156 
Q 2394 2531 2256 2718 
Q 2119 2906 1806 2906 
Q 1569 2906 1367 2781 
Q 1166 2656 1075 2415 
Q 984 2175 984 1722 
L 984 0 
L 422 0 
z
" transform="scale(0.015625)"/>
       <path id="ArialMT-65" d="M 2694 1069 
L 3275 997 
Q 3138 488 2766 206 
Q 2394 -75 1816 -75 
Q 1088 -75 661 373 
Q 234 822 234 1631 
Q 234 2469 665 2931 
Q 1097 3394 1784 3394 
Q 2450 3394 2872 2941 
Q 3294 2488 3294 1666 
Q 3294 1616 3291 1516 
L 816 1516 
Q 847 969 1125 678 
Q 1403 388 1819 388 
Q 2128 388 2347 550 
Q 2566 713 2694 1069 
z
M 847 1978 
L 2700 1978 
Q 2663 2397 2488 2606 
Q 2219 2931 1791 2931 
Q 1403 2931 1139 2672 
Q 875 2413 847 1978 
z
" transform="scale(0.015625)"/>
       <path id="ArialMT-20" transform="scale(0.015625)"/>
       <path id="ArialMT-28" d="M 1497 -1347 
Q 1031 -759 709 28 
Q 388 816 388 1659 
Q 388 2403 628 3084 
Q 909 3875 1497 4659 
L 1900 4659 
Q 1522 4009 1400 3731 
Q 1209 3300 1100 2831 
Q 966 2247 966 1656 
Q 966 153 1900 -1347 
L 1497 -1347 
z
" transform="scale(0.015625)"/>
       <path id="ArialMT-73" d="M 197 991 
L 753 1078 
Q 800 744 1014 566 
Q 1228 388 1613 388 
Q 2000 388 2187 545 
Q 2375 703 2375 916 
Q 2375 1106 2209 1216 
Q 2094 1291 1634 1406 
Q 1016 1563 777 1677 
Q 538 1791 414 1992 
Q 291 2194 291 2438 
Q 291 2659 392 2848 
Q 494 3038 669 3163 
Q 800 3259 1026 3326 
Q 1253 3394 1513 3394 
Q 1903 3394 2198 3281 
Q 2494 3169 2634 2976 
Q 2775 2784 2828 2463 
L 2278 2388 
Q 2241 2644 2061 2787 
Q 1881 2931 1553 2931 
Q 1166 2931 1000 2803 
Q 834 2675 834 2503 
Q 834 2394 903 2306 
Q 972 2216 1119 2156 
Q 1203 2125 1616 2013 
Q 2213 1853 2448 1751 
Q 2684 1650 2818 1456 
Q 2953 1263 2953 975 
Q 2953 694 2789 445 
Q 2625 197 2315 61 
Q 2006 -75 1616 -75 
Q 969 -75 630 194 
Q 291 463 197 991 
z
" transform="scale(0.015625)"/>
       <path id="ArialMT-29" d="M 791 -1347 
L 388 -1347 
Q 1322 153 1322 1656 
Q 1322 2244 1188 2822 
Q 1081 3291 891 3722 
Q 769 4003 388 4659 
L 791 4659 
Q 1378 3875 1659 3084 
Q 1900 2403 1900 1659 
Q 1900 816 1576 28 
Q 1253 -759 791 -1347 
z
" transform="scale(0.015625)"/>
      </defs>
      <use xlink:href="#ArialMT-54"/>
      <use xlink:href="#ArialMT-69" x="57.333984"/>
      <use xlink:href="#ArialMT-6d" x="79.550781"/>
      <use xlink:href="#ArialMT-65" x="162.851562"/>
      <use xlink:href="#ArialMT-20" x="218.466797"/>
      <use xlink:href="#ArialMT-28" x="246.25"/>
      <use xlink:href="#ArialMT-73" x="279.550781"/>
      <use xlink:href="#ArialMT-29" x="329.550781"/>
     </g>
    </g>
   </g>
   <g id="matplotlib.axis_2">
    <g id="ytick_1">
     <g id="line2d_13">
      <path d="M 41.046875 185.393079 
L 282.700418 185.393079 
" clip-path="url(#p3ea99bbdc6)" style="fill: none; stroke: #b0b0b0; stroke-width: 0.8; stroke-linecap: square"/>
     </g>
     <g id="line2d_14">
      <defs>
       <path id="m65c9c72f01" d="M 0 0 
L 3.5 0 
" style="stroke: #000000; stroke-width: 0.8"/>
      </defs>
      <g>
       <use xlink:href="#m65c9c72f01" x="41.046875" y="185.393079" style="stroke: #000000; stroke-width: 0.8"/>
      </g>
     </g>
     <g id="text_8">
      <!-- −10 -->
      <g transform="translate(20.584375 188.971986) scale(0.1 -0.1)">
       <defs>
        <path id="ArialMT-2212" d="M 3381 1997 
L 356 1997 
L 356 2522 
L 3381 2522 
L 3381 1997 
z
" transform="scale(0.015625)"/>
       </defs>
       <use xlink:href="#ArialMT-2212"/>
       <use xlink:href="#ArialMT-31" x="58.398438"/>
       <use xlink:href="#ArialMT-30" x="114.013672"/>
      </g>
     </g>
    </g>
    <g id="ytick_2">
     <g id="line2d_15">
      <path d="M 41.046875 141.739536 
L 282.700418 141.739536 
" clip-path="url(#p3ea99bbdc6)" style="fill: none; stroke: #b0b0b0; stroke-width: 0.8; stroke-linecap: square"/>
     </g>
     <g id="line2d_16">
      <g>
       <use xlink:href="#m65c9c72f01" x="41.046875" y="141.739536" style="stroke: #000000; stroke-width: 0.8"/>
      </g>
     </g>
     <g id="text_9">
      <!-- −5 -->
      <g transform="translate(26.145313 145.318442) scale(0.1 -0.1)">
       <defs>
        <path id="ArialMT-35" d="M 266 1200 
L 856 1250 
Q 922 819 1161 601 
Q 1400 384 1738 384 
Q 2144 384 2425 690 
Q 2706 997 2706 1503 
Q 2706 1984 2436 2262 
Q 2166 2541 1728 2541 
Q 1456 2541 1237 2417 
Q 1019 2294 894 2097 
L 366 2166 
L 809 4519 
L 3088 4519 
L 3088 3981 
L 1259 3981 
L 1013 2750 
Q 1425 3038 1878 3038 
Q 2478 3038 2890 2622 
Q 3303 2206 3303 1553 
Q 3303 931 2941 478 
Q 2500 -78 1738 -78 
Q 1113 -78 717 272 
Q 322 622 266 1200 
z
" transform="scale(0.015625)"/>
       </defs>
       <use xlink:href="#ArialMT-2212"/>
       <use xlink:href="#ArialMT-35" x="58.398438"/>
      </g>
     </g>
    </g>
    <g id="ytick_3">
     <g id="line2d_17">
      <path d="M 41.046875 98.085993 
L 282.700418 98.085993 
" clip-path="url(#p3ea99bbdc6)" style="fill: none; stroke: #b0b0b0; stroke-width: 0.8; stroke-linecap: square"/>
     </g>
     <g id="line2d_18">
      <g>
       <use xlink:href="#m65c9c72f01" x="41.046875" y="98.085993" style="stroke: #000000; stroke-width: 0.8"/>
      </g>
     </g>
     <g id="text_10">
      <!-- 0 -->
      <g transform="translate(31.985938 101.664899) scale(0.1 -0.1)">
       <use xlink:href="#ArialMT-30"/>
      </g>
     </g>
    </g>
    <g id="ytick_4">
     <g id="line2d_19">
      <path d="M 41.046875 54.43245 
L 282.700418 54.43245 
" clip-path="url(#p3ea99bbdc6)" style="fill: none; stroke: #b0b0b0; stroke-width: 0.8; stroke-linecap: square"/>
     </g>
     <g id="line2d_20">
      <g>
       <use xlink:href="#m65c9c72f01" x="41.046875" y="54.43245" style="stroke: #000000; stroke-width: 0.8"/>
      </g>
     </g>
     <g id="text_11">
      <!-- 5 -->
      <g transform="translate(31.985938 58.011356) scale(0.1 -0.1)">
       <use xlink:href="#ArialMT-35"/>
      </g>
     </g>
    </g>
    <g id="ytick_5">
     <g id="line2d_21">
      <path d="M 41.046875 10.778906 
L 282.700418 10.778906 
" clip-path="url(#p3ea99bbdc6)" style="fill: none; stroke: #b0b0b0; stroke-width: 0.8; stroke-linecap: square"/>
     </g>
     <g id="line2d_22">
      <g>
       <use xlink:href="#m65c9c72f01" x="41.046875" y="10.778906" style="stroke: #000000; stroke-width: 0.8"/>
      </g>
     </g>
     <g id="text_12">
      <!-- 10 -->
      <g transform="translate(26.425 14.357812) scale(0.1 -0.1)">
       <use xlink:href="#ArialMT-31"/>
       <use xlink:href="#ArialMT-30" x="55.615234"/>
      </g>
     </g>
    </g>
    <g id="text_13">
     <!-- Base shear force (kN) -->
     <g transform="translate(14.479688 146.710993) rotate(-90) scale(0.1 -0.1)">
      <defs>
       <path id="ArialMT-42" d="M 469 0 
L 469 4581 
L 2188 4581 
Q 2713 4581 3030 4442 
Q 3347 4303 3526 4014 
Q 3706 3725 3706 3409 
Q 3706 3116 3547 2856 
Q 3388 2597 3066 2438 
Q 3481 2316 3704 2022 
Q 3928 1728 3928 1328 
Q 3928 1006 3792 729 
Q 3656 453 3456 303 
Q 3256 153 2954 76 
Q 2653 0 2216 0 
L 469 0 
z
M 1075 2656 
L 2066 2656 
Q 2469 2656 2644 2709 
Q 2875 2778 2992 2937 
Q 3109 3097 3109 3338 
Q 3109 3566 3000 3739 
Q 2891 3913 2687 3977 
Q 2484 4041 1991 4041 
L 1075 4041 
L 1075 2656 
z
M 1075 541 
L 2216 541 
Q 2509 541 2628 563 
Q 2838 600 2978 687 
Q 3119 775 3209 942 
Q 3300 1109 3300 1328 
Q 3300 1584 3169 1773 
Q 3038 1963 2805 2039 
Q 2572 2116 2134 2116 
L 1075 2116 
L 1075 541 
z
" transform="scale(0.015625)"/>
       <path id="ArialMT-61" d="M 2588 409 
Q 2275 144 1986 34 
Q 1697 -75 1366 -75 
Q 819 -75 525 192 
Q 231 459 231 875 
Q 231 1119 342 1320 
Q 453 1522 633 1644 
Q 813 1766 1038 1828 
Q 1203 1872 1538 1913 
Q 2219 1994 2541 2106 
Q 2544 2222 2544 2253 
Q 2544 2597 2384 2738 
Q 2169 2928 1744 2928 
Q 1347 2928 1158 2789 
Q 969 2650 878 2297 
L 328 2372 
Q 403 2725 575 2942 
Q 747 3159 1072 3276 
Q 1397 3394 1825 3394 
Q 2250 3394 2515 3294 
Q 2781 3194 2906 3042 
Q 3031 2891 3081 2659 
Q 3109 2516 3109 2141 
L 3109 1391 
Q 3109 606 3145 398 
Q 3181 191 3288 0 
L 2700 0 
Q 2613 175 2588 409 
z
M 2541 1666 
Q 2234 1541 1622 1453 
Q 1275 1403 1131 1340 
Q 988 1278 909 1158 
Q 831 1038 831 891 
Q 831 666 1001 516 
Q 1172 366 1500 366 
Q 1825 366 2078 508 
Q 2331 650 2450 897 
Q 2541 1088 2541 1459 
L 2541 1666 
z
" transform="scale(0.015625)"/>
       <path id="ArialMT-68" d="M 422 0 
L 422 4581 
L 984 4581 
L 984 2938 
Q 1378 3394 1978 3394 
Q 2347 3394 2619 3248 
Q 2891 3103 3008 2847 
Q 3125 2591 3125 2103 
L 3125 0 
L 2563 0 
L 2563 2103 
Q 2563 2525 2380 2717 
Q 2197 2909 1863 2909 
Q 1613 2909 1392 2779 
Q 1172 2650 1078 2428 
Q 984 2206 984 1816 
L 984 0 
L 422 0 
z
" transform="scale(0.015625)"/>
       <path id="ArialMT-72" d="M 416 0 
L 416 3319 
L 922 3319 
L 922 2816 
Q 1116 3169 1280 3281 
Q 1444 3394 1641 3394 
Q 1925 3394 2219 3213 
L 2025 2691 
Q 1819 2813 1613 2813 
Q 1428 2813 1281 2702 
Q 1134 2591 1072 2394 
Q 978 2094 978 1738 
L 978 0 
L 416 0 
z
" transform="scale(0.015625)"/>
       <path id="ArialMT-66" d="M 556 0 
L 556 2881 
L 59 2881 
L 59 3319 
L 556 3319 
L 556 3672 
Q 556 4006 616 4169 
Q 697 4388 901 4523 
Q 1106 4659 1475 4659 
Q 1713 4659 2000 4603 
L 1916 4113 
Q 1741 4144 1584 4144 
Q 1328 4144 1222 4034 
Q 1116 3925 1116 3625 
L 1116 3319 
L 1763 3319 
L 1763 2881 
L 1116 2881 
L 1116 0 
L 556 0 
z
" transform="scale(0.015625)"/>
       <path id="ArialMT-6f" d="M 213 1659 
Q 213 2581 725 3025 
Q 1153 3394 1769 3394 
Q 2453 3394 2887 2945 
Q 3322 2497 3322 1706 
Q 3322 1066 3130 698 
Q 2938 331 2570 128 
Q 2203 -75 1769 -75 
Q 1072 -75 642 372 
Q 213 819 213 1659 
z
M 791 1659 
Q 791 1022 1069 705 
Q 1347 388 1769 388 
Q 2188 388 2466 706 
Q 2744 1025 2744 1678 
Q 2744 2294 2464 2611 
Q 2184 2928 1769 2928 
Q 1347 2928 1069 2612 
Q 791 2297 791 1659 
z
" transform="scale(0.015625)"/>
       <path id="ArialMT-63" d="M 2588 1216 
L 3141 1144 
Q 3050 572 2676 248 
Q 2303 -75 1759 -75 
Q 1078 -75 664 370 
Q 250 816 250 1647 
Q 250 2184 428 2587 
Q 606 2991 970 3192 
Q 1334 3394 1763 3394 
Q 2303 3394 2647 3120 
Q 2991 2847 3088 2344 
L 2541 2259 
Q 2463 2594 2264 2762 
Q 2066 2931 1784 2931 
Q 1359 2931 1093 2626 
Q 828 2322 828 1663 
Q 828 994 1084 691 
Q 1341 388 1753 388 
Q 2084 388 2306 591 
Q 2528 794 2588 1216 
z
" transform="scale(0.015625)"/>
       <path id="ArialMT-6b" d="M 425 0 
L 425 4581 
L 988 4581 
L 988 1969 
L 2319 3319 
L 3047 3319 
L 1778 2088 
L 3175 0 
L 2481 0 
L 1384 1697 
L 988 1316 
L 988 0 
L 425 0 
z
" transform="scale(0.015625)"/>
       <path id="ArialMT-4e" d="M 488 0 
L 488 4581 
L 1109 4581 
L 3516 984 
L 3516 4581 
L 4097 4581 
L 4097 0 
L 3475 0 
L 1069 3600 
L 1069 0 
L 488 0 
z
" transform="scale(0.015625)"/>
      </defs>
      <use xlink:href="#ArialMT-42"/>
      <use xlink:href="#ArialMT-61" x="66.699219"/>
      <use xlink:href="#ArialMT-73" x="122.314453"/>
      <use xlink:href="#ArialMT-65" x="172.314453"/>
      <use xlink:href="#ArialMT-20" x="227.929688"/>
      <use xlink:href="#ArialMT-73" x="255.712891"/>
      <use xlink:href="#ArialMT-68" x="305.712891"/>
      <use xlink:href="#ArialMT-65" x="361.328125"/>
      <use xlink:href="#ArialMT-61" x="416.943359"/>
      <use xlink:href="#ArialMT-72" x="472.558594"/>
      <use xlink:href="#ArialMT-20" x="505.859375"/>
      <use xlink:href="#ArialMT-66" x="533.642578"/>
      <use xlink:href="#ArialMT-6f" x="561.425781"/>
      <use xlink:href="#ArialMT-72" x="617.041016"/>
      <use xlink:href="#ArialMT-63" x="650.341797"/>
      <use xlink:href="#ArialMT-65" x="700.341797"/>
      <use xlink:href="#ArialMT-20" x="755.957031"/>
      <use xlink:href="#ArialMT-28" x="783.740234"/>
      <use xlink:href="#ArialMT-6b" x="817.041016"/>
      <use xlink:href="#ArialMT-4e" x="867.041016"/>
      <use xlink:href="#ArialMT-29" x="939.257812"/>
     </g>
    </g>
   </g>
   <g id="line2d_23">
    <path d="M 41.046875 98.085993 
L 41.167702 97.607796 
L 41.288529 98.904918 
L 41.409355 104.40035 
L 41.530182 95.800513 
L 41.771836 103.84312 
L 41.892662 101.57549 
L 42.134316 88.819994 
L 42.375969 119.205769 
L 42.496796 116.003592 
L 42.617623 112.322433 
L 42.73845 115.388735 
L 42.980103 88.597513 
L 43.221757 91.590501 
L 43.342584 98.566279 
L 43.46341 93.34841 
L 43.584237 93.574784 
L 43.705064 96.106206 
L 43.825891 102.289034 
L 44.067544 88.482962 
L 44.430025 115.057431 
L 44.792505 79.417483 
L 44.913332 80.382985 
L 45.034158 74.404131 
L 45.275812 102.953454 
L 45.396639 99.614464 
L 45.517466 85.372691 
L 45.759119 97.093559 
L 45.879946 85.308909 
L 46.000773 95.848935 
L 46.121599 93.114866 
L 46.242426 95.661148 
L 46.363253 110.612544 
L 46.604906 105.13752 
L 46.725733 90.781509 
L 46.84656 94.458948 
L 47.329867 128.699593 
L 47.450694 126.127678 
L 47.571521 132.31917 
L 47.692347 123.913568 
L 47.813174 77.366265 
L 47.934001 76.147532 
L 48.054828 96.061183 
L 48.175655 96.265057 
L 48.296481 95.906605 
L 48.417308 89.46111 
L 48.538135 91.773599 
L 48.779788 82.523866 
L 48.900615 96.910355 
L 49.021442 96.687051 
L 49.142269 86.912561 
L 49.263095 88.152234 
L 49.383922 113.115537 
L 49.504749 108.579609 
L 49.746403 69.756784 
L 49.867229 72.073723 
L 49.988056 78.120054 
L 50.22971 115.457164 
L 50.350536 109.009765 
L 50.471363 112.506804 
L 50.59219 123.955336 
L 50.713017 119.248992 
L 50.833844 93.972214 
L 50.95467 96.969942 
L 51.075497 114.410919 
L 51.196324 106.976784 
L 51.317151 107.996884 
L 51.437977 106.583684 
L 51.558804 84.505885 
L 51.679631 85.58561 
L 51.800458 106.386546 
L 51.921284 98.722145 
L 52.162938 111.221845 
L 52.283765 97.533811 
L 52.404592 100.866697 
L 52.525418 96.720192 
L 52.767072 66.024719 
L 52.887899 66.831799 
L 53.250379 86.742812 
L 53.371206 79.549422 
L 53.612859 91.770034 
L 53.733686 92.334567 
L 53.854513 78.187518 
L 53.97534 87.849355 
L 54.096166 107.571551 
L 54.216993 101.918514 
L 54.458647 118.055965 
L 54.821127 96.495045 
L 54.941954 98.552963 
L 55.183607 134.382695 
L 55.304434 123.979124 
L 55.546088 129.293265 
L 55.908568 83.364969 
L 56.150221 106.662589 
L 56.271048 107.761137 
L 56.512702 115.251432 
L 56.875182 67.972273 
L 56.996009 62.430329 
L 57.116836 62.786727 
L 57.358489 96.235277 
L 57.720969 59.538667 
L 57.962623 79.056789 
L 58.204277 122.70553 
L 58.325103 130.438689 
L 58.80841 75.987302 
L 58.929237 75.406332 
L 59.412544 133.396973 
L 59.533371 131.561505 
L 59.775025 104.40634 
L 59.895851 106.749898 
L 60.016678 111.90837 
L 60.137505 100.430998 
L 60.258332 118.602363 
L 60.379158 115.698282 
L 60.862466 63.533386 
L 60.983292 74.326106 
L 61.224946 110.651791 
L 61.345773 116.940276 
L 61.466599 115.557692 
L 61.587426 108.227099 
L 61.82908 74.600983 
L 61.949906 66.578794 
L 62.19156 71.61229 
L 62.433214 117.72375 
L 62.55404 104.194054 
L 62.674867 109.348567 
L 62.795694 109.143286 
L 63.037347 93.955952 
L 63.520655 133.442876 
L 63.762308 86.319736 
L 63.883135 85.646979 
L 64.124788 99.173184 
L 64.245615 113.625441 
L 64.366442 113.516709 
L 64.608095 126.903537 
L 64.970576 55.771714 
L 65.333056 104.748934 
L 65.453883 102.591066 
L 65.57471 91.121096 
L 65.695536 100.960073 
L 65.816363 85.120169 
L 65.93719 83.967365 
L 66.058017 95.419542 
L 66.178844 92.33234 
L 66.29967 97.187839 
L 66.420497 125.858843 
L 66.541324 117.407288 
L 66.782977 77.607865 
L 66.903804 76.062634 
L 67.266284 101.185094 
L 67.628765 134.272943 
L 67.870418 91.11681 
L 67.991245 89.203196 
L 68.232899 93.308285 
L 68.353725 78.622553 
L 68.595379 105.970082 
L 68.837032 75.747813 
L 68.957859 78.284839 
L 69.078686 74.405837 
L 69.32034 110.356478 
L 69.441166 104.827175 
L 69.68282 76.418011 
L 69.803647 76.254212 
L 69.924473 77.138028 
L 70.0453 70.310853 
L 70.286954 85.478872 
L 70.407781 89.400989 
L 70.649434 117.514749 
L 70.770261 110.383514 
L 71.011914 120.666079 
L 71.132741 110.900965 
L 71.253568 120.04549 
L 71.374395 118.567033 
L 71.495221 126.30005 
L 71.616048 122.315633 
L 71.978529 94.074913 
L 72.220182 124.78489 
L 72.341009 124.918662 
L 72.582662 111.853947 
L 72.703489 109.168998 
L 72.945143 76.020796 
L 73.186796 79.007023 
L 73.307623 57.896842 
L 73.549277 81.021874 
L 73.79093 60.87629 
L 73.911757 66.527147 
L 74.032584 82.494263 
L 74.15341 82.49496 
L 74.515891 92.719481 
L 74.757544 69.80574 
L 74.878371 75.318847 
L 75.120025 95.64005 
L 75.240851 94.556543 
L 75.603332 149.123282 
L 75.844985 115.537285 
L 76.086639 133.569616 
L 76.328292 115.475762 
L 76.449119 112.59242 
L 76.690773 89.583198 
L 76.811599 91.953799 
L 76.932426 93.221183 
L 77.053253 87.247531 
L 77.294906 123.682643 
L 77.778214 63.292938 
L 77.89904 64.145277 
L 78.140694 41.554988 
L 78.382347 77.537614 
L 78.503174 77.361506 
L 78.624001 84.783408 
L 78.744828 85.099741 
L 78.865655 78.763356 
L 79.228135 111.968599 
L 79.348962 111.094004 
L 79.469788 113.653758 
L 79.590615 107.835629 
L 79.832269 86.496173 
L 79.953095 87.278214 
L 80.436403 150.132481 
L 80.557229 152.176859 
L 80.798883 122.074654 
L 80.91971 123.434514 
L 81.161363 84.447229 
L 81.28219 95.91378 
L 81.523844 121.165941 
L 81.765497 77.439325 
L 81.886324 76.856708 
L 82.007151 83.820624 
L 82.127977 81.327383 
L 82.369631 99.514314 
L 82.973765 45.033272 
L 83.094592 50.486023 
L 83.457072 116.344869 
L 83.577899 116.033645 
L 83.698725 112.824673 
L 83.819552 113.227915 
L 83.940379 88.690214 
L 84.302859 115.833708 
L 84.423686 139.074114 
L 84.544513 132.613368 
L 84.66534 104.765503 
L 84.786166 109.14159 
L 84.906993 105.925239 
L 85.02782 98.095449 
L 85.148647 137.324066 
L 85.269473 136.994784 
L 85.511127 147.097723 
L 85.994434 46.545085 
L 86.236088 80.305511 
L 86.356914 76.746527 
L 86.477741 86.84738 
L 86.961048 61.275433 
L 87.202702 96.008476 
L 87.444355 113.896933 
L 87.686009 68.719902 
L 87.806836 62.950517 
L 87.927662 72.652593 
L 88.290143 129.169314 
L 88.410969 141.399929 
L 88.531796 137.166587 
L 88.652623 138.293356 
L 88.894277 117.347291 
L 89.015103 121.215904 
L 89.256757 142.578316 
L 89.377584 141.378969 
L 89.49841 137.607941 
L 89.740064 84.606445 
L 89.860891 74.94149 
L 89.981718 76.94714 
L 90.102544 84.374855 
L 90.344198 106.71134 
L 90.827505 34.475423 
L 90.948332 42.577657 
L 91.069158 62.697861 
L 91.189985 62.173229 
L 91.310812 56.80261 
L 91.431639 58.460862 
L 91.673292 82.367377 
L 91.914946 55.419284 
L 92.277426 120.092122 
L 92.398253 147.955098 
L 92.51908 140.284285 
L 92.760733 105.26758 
L 92.88156 110.249796 
L 93.002387 125.974454 
L 93.123214 126.10169 
L 93.364867 148.064913 
L 93.727347 103.059989 
L 93.848174 123.566971 
L 93.969001 119.113413 
L 94.089828 107.53577 
L 94.210655 114.284765 
L 94.331481 112.813353 
L 94.814788 72.753057 
L 95.056442 38.560707 
L 95.298095 81.374115 
L 95.418922 76.980566 
L 95.539749 65.9582 
L 95.660576 67.034723 
L 95.781403 72.074029 
L 95.902229 59.248492 
L 96.023056 68.422188 
L 96.26471 98.014363 
L 96.385536 100.221817 
L 96.62719 86.643717 
L 96.748017 92.709733 
L 96.868844 104.55893 
L 97.110497 135.523917 
L 97.231324 136.776151 
L 97.352151 140.261771 
L 97.593804 154.093948 
L 97.714631 141.630726 
L 97.956284 92.521107 
L 98.077111 100.579742 
L 98.318765 137.199972 
L 98.681245 83.981465 
L 98.802072 84.246384 
L 98.922899 86.369019 
L 99.043725 83.611133 
L 99.285379 101.251822 
L 99.527032 69.098808 
L 99.647859 70.54048 
L 99.768686 50.305248 
L 100.131166 56.854162 
L 100.614473 119.267767 
L 100.7353 115.189792 
L 100.856127 103.743748 
L 101.339434 141.508938 
L 101.460261 140.934584 
L 101.822741 99.412087 
L 101.943568 103.144356 
L 102.064395 128.294974 
L 102.185221 128.691752 
L 102.306048 125.938074 
L 102.426875 126.461057 
L 102.547702 135.189356 
L 102.668529 125.279854 
L 102.910182 85.333522 
L 103.031009 82.327039 
L 103.151836 73.008845 
L 103.272662 73.540382 
L 103.393489 75.830292 
L 103.514316 56.881564 
L 103.755969 70.1318 
L 103.876796 53.784035 
L 103.997623 57.147407 
L 104.239277 103.44343 
L 104.48093 78.215929 
L 104.601757 78.174762 
L 104.84341 62.417003 
L 104.964237 69.341532 
L 105.326718 120.081075 
L 105.447544 128.67654 
L 105.568371 152.745792 
L 105.810025 139.353088 
L 105.930851 147.143655 
L 106.051678 122.31716 
L 106.293332 135.507244 
L 106.534985 96.726167 
L 106.655812 92.355809 
L 106.776639 94.012453 
L 106.897466 93.689995 
L 107.018292 87.680221 
L 107.259946 116.39077 
L 107.380773 111.074479 
L 107.743253 70.96189 
L 107.86408 66.52444 
L 107.984906 40.794631 
L 108.105733 45.847179 
L 108.22656 56.032993 
L 108.347387 53.5426 
L 108.468214 66.315028 
L 108.58904 58.201954 
L 109.193174 113.198794 
L 109.555655 96.338993 
L 109.797308 110.150475 
L 109.918135 107.437606 
L 110.159788 137.173287 
L 110.522269 145.089964 
L 110.643095 143.775083 
L 110.763922 134.867068 
L 110.884749 140.358718 
L 111.005576 129.747217 
L 111.126403 105.640122 
L 111.247229 104.277688 
L 111.60971 74.844307 
L 111.851363 85.646379 
L 111.97219 90.398194 
L 112.093017 87.364842 
L 112.213844 104.890661 
L 112.33467 94.33772 
L 112.455497 94.094058 
L 112.576324 85.980358 
L 112.817977 45.448932 
L 113.180458 77.528448 
L 113.301284 95.84076 
L 113.422111 83.191288 
L 113.542938 91.178208 
L 113.784592 131.986628 
L 113.905418 121.712128 
L 114.147072 151.808838 
L 114.388725 116.284646 
L 114.509552 115.838443 
L 114.751206 99.19064 
L 114.992859 101.474778 
L 115.234513 121.998589 
L 115.35534 123.169462 
L 115.476166 131.768875 
L 115.596993 131.393803 
L 115.71782 122.449154 
L 116.0803 70.569427 
L 116.201127 70.96837 
L 116.563607 32.617531 
L 116.684434 40.859554 
L 116.926088 85.015229 
L 117.046914 81.063161 
L 117.167741 82.021901 
L 117.288568 92.102955 
L 117.409395 78.962907 
L 117.530221 88.187074 
L 117.651048 88.742064 
L 117.771875 77.909299 
L 117.892702 86.747678 
L 118.013529 87.367968 
L 118.134355 78.220785 
L 118.376009 110.515975 
L 118.617662 145.240553 
L 118.738489 143.499842 
L 118.859316 156.084012 
L 118.980143 151.991973 
L 119.342623 113.929608 
L 119.46345 82.437244 
L 119.584277 82.289237 
L 119.705103 97.12451 
L 119.82593 98.308972 
L 119.946757 98.258866 
L 120.18841 110.716657 
L 120.430064 84.409174 
L 120.550891 87.950086 
L 120.671718 98.1154 
L 121.155025 42.091259 
L 122.242466 125.433994 
L 122.604946 93.247504 
L 122.725773 92.623563 
L 122.846599 96.153758 
L 123.20908 128.628348 
L 123.329906 109.612382 
L 123.450733 116.702478 
L 123.692387 151.881567 
L 123.813214 148.092238 
L 124.175694 100.07589 
L 124.417347 67.081146 
L 124.538174 69.902438 
L 124.659001 65.595138 
L 124.779828 72.013696 
L 124.900655 67.093598 
L 125.021481 75.288303 
L 125.142308 99.992328 
L 125.383962 78.129222 
L 125.504788 86.762068 
L 125.746442 61.40787 
L 125.988095 78.700372 
L 126.229749 41.724127 
L 126.713056 134.052737 
L 126.95471 148.034952 
L 127.67967 85.324523 
L 127.800497 81.058639 
L 128.042151 119.719905 
L 128.162977 124.70162 
L 128.283804 135.635142 
L 128.525458 123.848401 
L 128.646284 125.184317 
L 128.767111 118.362365 
L 129.129592 63.38155 
L 129.250418 62.96832 
L 129.492072 45.88441 
L 129.854552 76.181452 
L 130.217032 105.823996 
L 130.458686 76.678004 
L 130.579513 85.258286 
L 130.821166 44.901307 
L 131.183647 106.356143 
L 131.4253 121.967093 
L 131.546127 144.549961 
L 131.787781 136.359768 
L 131.908607 151.254395 
L 132.029434 149.193351 
L 132.391914 95.009414 
L 132.512741 95.956333 
L 132.633568 89.174813 
L 132.875221 97.314067 
L 132.996048 106.48285 
L 133.237702 132.97287 
L 133.721009 66.60488 
L 133.962662 55.773886 
L 134.083489 43.890191 
L 134.325143 68.066902 
L 134.445969 67.222984 
L 134.566796 76.561939 
L 134.80845 106.593667 
L 135.050103 127.322894 
L 135.775064 76.433661 
L 136.379198 151.621468 
L 136.500025 138.298964 
L 136.620851 140.636628 
L 136.741678 122.349274 
L 136.862505 126.03945 
L 137.345812 48.12874 
L 137.466639 51.925658 
L 137.708292 62.711234 
L 137.949946 99.958755 
L 138.070773 95.983535 
L 138.191599 104.063005 
L 138.433253 103.598839 
L 138.674906 59.652768 
L 138.795733 62.537799 
L 138.91656 64.959133 
L 139.037387 76.393445 
L 139.27904 104.171523 
L 139.399867 100.32495 
L 139.520694 105.465683 
L 139.641521 105.432916 
L 139.883174 158.756888 
L 140.004001 155.257931 
L 140.124828 145.863791 
L 140.366481 82.999185 
L 140.487308 78.336324 
L 140.608135 68.92575 
L 140.970615 103.691464 
L 141.212269 120.400982 
L 141.333095 119.118182 
L 141.937229 69.156953 
L 142.058056 67.757363 
L 142.178883 58.521358 
L 142.29971 64.665299 
L 142.541363 59.506337 
L 142.66219 60.111621 
L 143.02467 136.443665 
L 143.145497 134.824595 
L 143.507977 71.00979 
L 143.628804 73.169254 
L 143.870458 83.974069 
L 144.112111 90.537668 
L 144.232938 124.050917 
L 144.353765 125.731268 
L 144.474592 125.025456 
L 144.716245 133.633712 
L 145.199552 90.634409 
L 145.441206 61.913593 
L 145.562032 74.88004 
L 145.682859 72.083197 
L 145.803686 77.568537 
L 146.04534 122.118777 
L 146.166166 129.257363 
L 146.528647 93.666034 
L 146.649473 90.918856 
L 146.891127 56.490631 
L 147.132781 73.652162 
L 147.253607 75.191413 
L 147.616088 117.648543 
L 147.736914 117.130566 
L 147.857741 117.185654 
L 148.099395 123.507454 
L 148.220221 112.805179 
L 148.341048 90.243969 
L 148.461875 90.830693 
L 148.582702 102.119851 
L 148.824355 68.550891 
L 149.307662 128.148834 
L 149.790969 103.571273 
L 149.911796 78.128069 
L 150.032623 83.076039 
L 150.274277 64.962323 
L 150.395103 65.807911 
L 150.51593 68.762525 
L 150.87841 103.816459 
L 150.999237 110.852932 
L 151.361718 90.408288 
L 151.603371 93.591523 
L 151.724198 85.37833 
L 151.845025 67.237554 
L 151.965851 69.449461 
L 152.086678 75.765193 
L 152.449158 128.283562 
L 152.569985 130.373998 
L 152.690812 135.459698 
L 152.932466 126.743965 
L 153.053292 128.446172 
L 153.174119 118.318253 
L 153.415773 78.345354 
L 153.536599 79.148784 
L 153.778253 106.150558 
L 153.89908 93.368127 
L 154.140733 103.122601 
L 154.26156 97.272263 
L 154.382387 99.707643 
L 154.503214 98.084406 
L 154.744867 103.023282 
L 154.986521 66.937199 
L 155.107347 55.609222 
L 155.228174 62.773037 
L 155.349001 82.0354 
L 155.469828 81.643313 
L 155.711481 111.913077 
L 155.832308 118.222235 
L 155.953135 116.393871 
L 156.073962 103.108781 
L 156.315615 106.611987 
L 156.436442 117.097399 
L 156.557269 108.422773 
L 156.678095 113.759382 
L 156.798922 110.051988 
L 157.040576 114.656065 
L 157.161403 106.545663 
L 157.282229 117.035091 
L 157.403056 112.04924 
L 157.523883 128.672566 
L 157.64471 125.116172 
L 158.00719 83.468923 
L 158.128017 75.996937 
L 158.248844 76.129223 
L 158.490497 89.055083 
L 158.732151 80.174018 
L 158.852977 98.120971 
L 158.973804 76.359012 
L 159.094631 76.530098 
L 159.215458 90.623876 
L 159.336284 90.429542 
L 159.457111 93.389726 
L 159.698765 84.739625 
L 159.940418 103.329078 
L 160.182072 82.557877 
L 160.302899 86.169033 
L 160.544552 142.109942 
L 160.665379 128.234333 
L 160.786206 135.41225 
L 160.907032 132.122922 
L 161.148686 99.270379 
L 161.269513 110.789727 
L 161.39034 106.131202 
L 161.511166 108.500948 
L 161.631993 121.603368 
L 162.236127 88.922938 
L 162.477781 106.469496 
L 162.840261 88.139885 
L 162.961088 87.914751 
L 163.202741 47.393466 
L 163.444395 80.913895 
L 163.565221 107.470541 
L 163.686048 107.633736 
L 163.927702 82.708002 
L 164.531836 120.078867 
L 164.652662 124.059731 
L 164.773489 109.052733 
L 164.894316 108.039104 
L 165.135969 90.900192 
L 165.377623 109.875471 
L 165.49845 111.516645 
L 165.740103 126.74956 
L 165.86093 135.434517 
L 166.22341 80.299218 
L 166.344237 85.086099 
L 166.465064 96.290339 
L 166.827544 68.295805 
L 167.431678 93.111923 
L 167.552505 93.382871 
L 167.673332 94.00053 
L 167.794158 100.921106 
L 167.914985 82.840679 
L 168.035812 85.17574 
L 168.156639 89.773108 
L 168.277466 84.763972 
L 168.398292 90.291177 
L 168.519119 80.681149 
L 169.002426 140.298242 
L 169.24408 122.048308 
L 169.485733 146.384964 
L 169.848214 86.604924 
L 170.089867 108.682129 
L 170.331521 86.344665 
L 170.452347 79.013171 
L 170.694001 106.574854 
L 170.935655 77.553408 
L 171.056481 71.406851 
L 171.177308 75.930398 
L 171.418962 57.634396 
L 171.660615 76.765479 
L 171.781442 65.068943 
L 171.902269 69.11628 
L 172.264749 101.857012 
L 172.506403 113.605776 
L 172.748056 105.028341 
L 172.868883 109.539767 
L 172.98971 104.22211 
L 173.110536 111.111778 
L 173.231363 110.800778 
L 173.35219 96.517171 
L 173.593844 134.036885 
L 173.71467 131.458758 
L 173.956324 118.894997 
L 174.077151 121.032708 
L 174.197977 118.281392 
L 174.318804 107.590368 
L 174.439631 121.190513 
L 174.681284 88.846624 
L 174.802111 97.481128 
L 174.922938 90.201362 
L 175.043765 70.98778 
L 175.164592 74.741951 
L 175.406245 69.478635 
L 175.647899 94.545286 
L 175.889552 84.347341 
L 176.010379 90.095868 
L 176.131206 83.417079 
L 176.372859 57.600595 
L 176.614513 96.258936 
L 176.73534 95.152816 
L 176.856166 96.682174 
L 177.218647 122.265836 
L 177.339473 121.493146 
L 177.701954 97.69295 
L 177.822781 100.30433 
L 177.943607 95.529921 
L 178.064434 96.544441 
L 178.185261 88.875379 
L 178.306088 96.413562 
L 178.426914 127.520947 
L 178.910221 108.541198 
L 179.272702 79.069009 
L 179.393529 70.54381 
L 179.514355 73.239867 
L 179.635182 73.317482 
L 179.756009 70.121992 
L 179.876836 63.792412 
L 180.118489 108.304248 
L 180.360143 113.947701 
L 180.601796 103.314786 
L 180.964277 68.860442 
L 181.085103 71.759687 
L 181.20593 68.805863 
L 181.326757 79.648486 
L 181.56841 119.849956 
L 181.689237 117.182502 
L 181.930891 126.166009 
L 182.172544 110.790674 
L 182.293371 95.84636 
L 182.535025 107.802856 
L 182.897505 72.138703 
L 183.139158 114.786509 
L 183.259985 107.082691 
L 183.380812 107.382837 
L 183.501639 108.424313 
L 183.622466 102.435366 
L 183.864119 112.660888 
L 184.105773 57.456207 
L 184.226599 64.617098 
L 184.468253 93.274289 
L 184.58908 89.494707 
L 184.709906 93.042179 
L 184.830733 90.679075 
L 185.072387 110.361952 
L 185.31404 103.66543 
L 185.434867 104.34586 
L 185.555694 114.528773 
L 185.797347 87.748646 
L 185.918174 95.307704 
L 186.039001 83.166592 
L 186.159828 88.96541 
L 186.280655 110.650316 
L 186.401481 111.133227 
L 186.522308 85.445487 
L 186.884788 116.528765 
L 187.368095 79.8183 
L 187.609749 102.146281 
L 188.213883 73.516386 
L 188.455536 105.894031 
L 188.576363 111.972087 
L 188.69719 105.6083 
L 188.938844 75.818574 
L 189.180497 103.45868 
L 189.422151 95.395756 
L 189.542977 105.916273 
L 189.784631 102.072898 
L 189.905458 110.475751 
L 190.026284 81.276513 
L 190.147111 85.324505 
L 190.388765 117.198956 
L 190.992899 90.74943 
L 191.113725 91.357952 
L 191.355379 106.780136 
L 191.476206 101.485304 
L 191.717859 86.596141 
L 191.838686 84.864574 
L 191.959513 80.117723 
L 192.08034 82.161704 
L 192.563647 103.743097 
L 192.684473 118.468519 
L 193.046954 78.37916 
L 193.167781 75.882827 
L 193.530261 118.230385 
L 193.651088 121.374251 
L 193.892741 88.540969 
L 194.013568 96.98177 
L 194.255221 123.794682 
L 194.376048 122.012062 
L 194.496875 127.032496 
L 194.617702 120.914175 
L 194.980182 72.904495 
L 195.221836 85.803732 
L 195.342662 93.126465 
L 195.584316 114.43067 
L 196.067623 69.601921 
L 196.309277 88.233295 
L 196.55093 100.210677 
L 196.792584 56.940801 
L 197.034237 97.345766 
L 197.155064 77.007702 
L 197.517544 126.753903 
L 198.121678 93.797345 
L 198.242505 111.682903 
L 198.363332 108.923415 
L 198.725812 128.730843 
L 198.846639 129.555734 
L 199.088292 102.842797 
L 199.209119 106.084268 
L 199.329946 116.881438 
L 199.450773 116.682871 
L 199.692426 81.988798 
L 199.813253 92.361595 
L 199.93408 91.85983 
L 200.175733 82.250106 
L 200.29656 66.848223 
L 200.65904 100.891739 
L 200.900694 83.911337 
L 201.142347 59.954454 
L 201.504828 89.689715 
L 201.746481 128.190169 
L 201.988135 93.896437 
L 202.108962 99.93455 
L 202.229788 96.655842 
L 202.592269 120.939944 
L 202.713095 116.097526 
L 202.833922 87.687701 
L 203.075576 113.697327 
L 203.317229 104.77286 
L 203.558883 132.090392 
L 203.921363 82.907978 
L 204.04219 79.34927 
L 204.163017 88.147874 
L 204.283844 78.037636 
L 204.525497 103.181667 
L 204.887977 74.418811 
L 205.008804 76.236936 
L 205.250458 87.492731 
L 205.371284 83.47028 
L 205.492111 96.119484 
L 205.854592 70.403221 
L 205.975418 78.131251 
L 206.337899 124.781233 
L 206.458725 127.37121 
L 206.579552 133.168218 
L 206.821206 101.292376 
L 206.942032 106.364223 
L 207.062859 126.250056 
L 207.183686 121.946147 
L 207.304513 122.436972 
L 207.666993 115.614824 
L 207.908647 98.148795 
L 208.029473 105.396588 
L 208.1503 121.105886 
L 208.391954 83.644211 
L 208.633607 106.123115 
L 208.875261 74.067477 
L 208.996088 75.779335 
L 209.116914 88.029247 
L 209.237741 81.982873 
L 209.479395 110.687809 
L 209.600221 109.438084 
L 209.841875 79.709843 
L 210.204355 108.601562 
L 210.325182 104.092569 
L 210.446009 105.494988 
L 210.566836 104.540193 
L 210.808489 116.391952 
L 210.929316 107.044093 
L 211.050143 121.696182 
L 211.170969 94.521592 
L 211.291796 94.346517 
L 211.412623 116.059434 
L 211.53345 112.904987 
L 211.775103 85.667841 
L 211.89593 92.920793 
L 212.016757 86.799556 
L 212.137584 88.996099 
L 212.379237 114.657125 
L 212.620891 85.382035 
L 212.741718 97.837276 
L 212.862544 75.276866 
L 213.104198 90.098238 
L 213.345851 79.501583 
L 213.587505 92.865032 
L 213.708332 95.32901 
L 213.829158 94.68905 
L 213.949985 89.173949 
L 214.191639 106.179339 
L 214.312466 104.440911 
L 214.433292 89.135278 
L 214.554119 92.409715 
L 214.674946 111.031277 
L 214.795773 102.065708 
L 215.037426 122.280624 
L 215.158253 116.666273 
L 215.27908 101.003019 
L 215.399906 102.662509 
L 215.64156 93.904636 
L 216.00404 121.065399 
L 216.487347 93.473767 
L 216.608174 95.739984 
L 216.729001 78.619115 
L 216.849828 78.462299 
L 217.091481 99.936208 
L 217.212308 90.369498 
L 217.453962 54.027312 
L 217.695615 79.42598 
L 217.816442 83.199038 
L 217.937269 96.332873 
L 218.058095 88.324172 
L 218.178922 100.537033 
L 218.299749 97.670005 
L 218.420576 80.69174 
L 218.541403 90.618249 
L 218.783056 74.497405 
L 219.02471 96.666665 
L 219.266363 95.795552 
L 219.38719 102.72497 
L 219.508017 116.520785 
L 219.628844 115.925689 
L 219.74967 117.087223 
L 219.991324 127.901468 
L 220.112151 124.072845 
L 220.353804 105.319527 
L 220.595458 101.530318 
L 220.716284 84.259376 
L 220.837111 96.009299 
L 220.957938 86.979505 
L 221.078765 90.257202 
L 221.441245 110.139112 
L 221.803725 70.519657 
L 221.924552 85.226216 
L 222.045379 81.853771 
L 222.166206 86.639178 
L 222.407859 54.135105 
L 222.649513 84.326609 
L 222.77034 91.848546 
L 222.891166 91.442272 
L 223.253647 113.398988 
L 223.374473 102.883747 
L 223.4953 106.64068 
L 223.616127 121.786514 
L 223.736954 108.879681 
L 223.978607 115.682617 
L 224.099434 120.166518 
L 224.220261 106.429349 
L 224.461914 119.5652 
L 224.582741 115.85812 
L 224.824395 103.411825 
L 224.945221 118.604377 
L 225.066048 118.056427 
L 225.307702 86.153507 
L 225.428529 94.77559 
L 225.549355 91.452415 
L 225.670182 77.844135 
L 225.791009 88.895187 
L 226.032662 63.578434 
L 226.153489 65.870952 
L 226.395143 99.153696 
L 226.757623 80.067817 
L 226.87845 81.885758 
L 226.999277 77.068882 
L 227.120103 92.179998 
L 227.24093 92.044233 
L 227.361757 91.409691 
L 227.482584 87.299272 
L 227.724237 120.179285 
L 227.965891 94.421821 
L 228.086718 103.4424 
L 228.207544 123.21804 
L 228.328371 115.850452 
L 228.690851 131.423178 
L 229.174158 95.390813 
L 229.294985 101.190926 
L 229.415812 101.475801 
L 229.536639 99.385338 
L 229.657466 107.712037 
L 229.778292 105.318298 
L 229.899119 99.697529 
L 230.019946 108.714094 
L 230.382426 83.497638 
L 230.62408 74.571258 
L 230.744906 81.68129 
L 230.98656 65.371172 
L 231.107387 66.527925 
L 231.34904 83.866942 
L 231.590694 88.648482 
L 231.711521 92.829135 
L 231.953174 117.851641 
L 232.194828 104.694423 
L 232.315655 103.053581 
L 232.436481 109.270707 
L 232.557308 105.661815 
L 232.678135 108.770742 
L 232.919788 131.606163 
L 233.040615 129.401173 
L 233.403095 139.702546 
L 233.523922 139.577854 
L 234.128056 88.846189 
L 234.248883 87.881128 
L 234.36971 93.211178 
L 234.490536 91.463687 
L 234.611363 95.256955 
L 234.73219 91.834553 
L 234.853017 97.823128 
L 234.973844 97.665227 
L 235.215497 71.858727 
L 235.336324 73.209109 
L 235.457151 77.467838 
L 235.698804 65.198684 
L 235.819631 68.02357 
L 235.940458 63.521573 
L 236.061284 64.051153 
L 236.302938 98.771552 
L 236.423765 92.123088 
L 236.665418 119.401448 
L 236.786245 113.880356 
L 237.027899 89.422587 
L 237.148725 93.892833 
L 237.390379 124.728747 
L 237.511206 116.671108 
L 237.632032 120.943635 
L 237.752859 117.449468 
L 237.873686 110.689135 
L 238.11534 124.17239 
L 238.236166 114.009983 
L 238.356993 114.465914 
L 238.47782 121.597245 
L 238.961127 60.948501 
L 239.081954 69.154049 
L 239.323607 103.132746 
L 239.444434 95.185363 
L 239.565261 99.340489 
L 239.686088 94.944569 
L 240.048568 51.319772 
L 240.411048 91.951299 
L 240.652702 82.126637 
L 240.894355 100.878983 
L 241.015182 92.027996 
L 241.377662 138.917247 
L 241.619316 119.100575 
L 241.740143 129.099417 
L 242.102623 93.609135 
L 242.344277 129.264114 
L 242.58593 144.507491 
L 242.827584 122.370721 
L 242.94841 119.368643 
L 243.190064 100.533345 
L 243.310891 115.209048 
L 243.673371 58.88101 
L 243.794198 71.498641 
L 243.915025 65.688038 
L 244.156678 71.585228 
L 244.277505 84.655114 
L 244.398332 85.518814 
L 244.519158 89.706006 
L 244.639985 98.863434 
L 244.760812 93.560836 
L 245.002466 72.41656 
L 245.364946 100.742679 
L 245.606599 89.342741 
L 245.727426 112.294473 
L 245.848253 112.250188 
L 245.96908 120.985839 
L 246.089906 143.946297 
L 246.33156 132.360045 
L 246.452387 136.839237 
L 246.573214 136.370588 
L 246.69404 134.225565 
L 246.814867 108.7728 
L 246.935694 110.615198 
L 247.056521 110.716596 
L 247.177347 108.287678 
L 247.419001 113.546387 
L 247.660655 102.962783 
L 247.781481 105.028167 
L 248.023135 75.306673 
L 248.143962 75.817549 
L 248.264788 86.580584 
L 248.385615 86.621762 
L 248.506442 69.66048 
L 248.627269 68.811454 
L 248.748095 60.140104 
L 248.989749 78.540576 
L 249.110576 78.819046 
L 249.231403 74.911479 
L 249.352229 82.169713 
L 249.593883 100.585706 
L 249.71471 103.567198 
L 249.835536 89.440952 
L 249.956363 92.909856 
L 250.07719 88.141795 
L 250.198017 101.954033 
L 250.318844 130.343078 
L 250.43967 132.454783 
L 250.681324 107.840149 
L 250.802151 104.260489 
L 250.922977 110.71634 
L 251.043804 105.661235 
L 251.164631 118.384202 
L 251.285458 146.208723 
L 251.768765 107.030867 
L 252.010418 82.765936 
L 252.131245 70.767127 
L 252.252072 77.205783 
L 252.372899 94.387479 
L 252.735379 73.736273 
L 252.856206 72.889797 
L 253.097859 58.436956 
L 253.339513 103.163177 
L 253.82282 63.023203 
L 254.426954 121.641776 
L 254.547781 126.503033 
L 254.668607 123.38579 
L 254.910261 131.271956 
L 255.151914 111.802468 
L 255.393568 121.92077 
L 255.635221 102.592593 
L 255.756048 113.710634 
L 255.997702 102.292269 
L 256.360182 137.2443 
L 256.722662 54.46805 
L 256.843489 55.068899 
L 256.964316 54.711153 
L 257.085143 44.773269 
L 257.205969 51.602319 
L 257.447623 74.269817 
L 257.56845 76.96475 
L 257.810103 86.272713 
L 258.051757 90.385503 
L 258.172584 88.454756 
L 258.29341 95.204626 
L 258.414237 94.437974 
L 258.655891 61.751371 
L 259.018371 103.319907 
L 259.260025 147.051812 
L 259.501678 176.242537 
L 259.864158 118.642337 
L 260.105812 92.43277 
L 260.226639 101.164129 
L 260.347466 86.908335 
L 260.589119 88.247839 
L 260.830773 94.434301 
L 260.951599 95.301318 
L 261.072426 106.601871 
L 261.31408 86.794429 
L 261.434906 89.606294 
L 261.918214 40.254304 
L 262.280694 98.307092 
L 262.401521 93.529448 
L 262.643174 128.755999 
L 262.764001 125.391316 
L 263.126481 102.115989 
L 263.247308 107.371086 
L 263.368135 93.137843 
L 263.488962 96.556475 
L 263.609788 92.565157 
L 263.730615 100.31854 
L 263.972269 142.889679 
L 264.093095 140.853244 
L 264.213922 142.49272 
L 264.455576 134.02696 
L 264.576403 132.036161 
L 264.938883 59.479962 
L 265.180536 82.648346 
L 265.301363 76.017631 
L 265.42219 76.85557 
L 265.543017 76.422487 
L 265.78467 106.644996 
L 266.026324 95.921675 
L 266.147151 96.519263 
L 266.388804 70.186485 
L 266.509631 73.028694 
L 266.630458 47.08563 
L 267.476245 134.677914 
L 267.717899 122.200044 
L 267.838725 132.263866 
L 268.080379 116.375277 
L 268.201206 123.311229 
L 268.442859 84.624446 
L 268.80534 121.684839 
L 268.926166 117.027262 
L 269.16782 126.392966 
L 269.409473 92.11213 
L 269.5303 89.145793 
L 269.771954 73.921271 
L 270.013607 61.960342 
L 270.255261 75.036626 
L 270.376088 75.606561 
L 270.738568 94.272879 
L 270.859395 93.331333 
L 270.980221 79.988206 
L 271.221875 99.337801 
L 271.463529 84.452795 
L 271.584355 88.750505 
L 272.067662 133.344659 
L 272.188489 127.309262 
L 272.430143 135.991842 
L 272.550969 111.937903 
L 272.792623 120.058906 
L 272.91345 117.307959 
L 273.034277 110.503057 
L 273.155103 118.638473 
L 273.27593 117.414387 
L 273.396757 117.550293 
L 273.63841 90.894452 
L 273.759237 112.638887 
L 273.880064 111.120869 
L 274.000891 111.868451 
L 274.242544 87.076498 
L 274.363371 87.339621 
L 274.605025 50.541524 
L 275.088332 80.337328 
L 275.329985 95.278734 
L 275.571639 73.076441 
L 276.054946 116.661666 
L 276.175773 116.425031 
L 276.296599 108.304845 
L 276.538253 71.075279 
L 276.900733 143.38515 
L 277.02156 157.537915 
L 277.263214 127.155586 
L 277.504867 123.979977 
L 277.746521 99.182595 
L 277.867347 114.55742 
L 277.988174 108.418105 
L 278.109001 87.544587 
L 278.229828 91.259576 
L 278.350655 88.759207 
L 278.592308 66.473772 
L 278.713135 74.201031 
L 278.954788 95.924752 
L 279.075615 91.149501 
L 279.438095 36.918382 
L 279.558922 41.787339 
L 279.800576 67.328826 
L 280.042229 95.655245 
L 280.40471 132.045559 
L 280.76719 104.954604 
L 280.888017 107.18766 
L 281.12967 123.404595 
L 281.250497 126.734596 
L 281.492151 111.75683 
L 281.975458 153.493281 
L 282.217111 100.859967 
L 282.337938 110.93314 
L 282.458765 103.213498 
L 282.579592 70.148331 
L 282.579592 70.148331 
" clip-path="url(#p3ea99bbdc6)" style="fill: none; stroke: #ff0000; stroke-width: 0.8; stroke-linecap: square"/>
   </g>
   <g id="line2d_24">
    <path d="M 41.046875 98.085993 
L 41.167702 98.085993 
L 41.288529 97.800131 
L 41.409355 99.753505 
L 41.530182 98.94378 
L 41.651009 97.159017 
L 41.892662 100.253457 
L 42.134316 94.577294 
L 42.255143 96.287316 
L 42.496796 105.457725 
L 42.617623 102.802706 
L 42.73845 103.835146 
L 42.859277 101.752296 
L 43.10093 94.923856 
L 43.221757 95.403221 
L 43.46341 97.700835 
L 43.584237 96.276677 
L 43.705064 96.748287 
L 43.825891 99.013496 
L 43.946718 98.099541 
L 44.067544 94.402123 
L 44.550851 103.056889 
L 44.913332 92.075515 
L 45.034158 91.092173 
L 45.154985 91.328719 
L 45.396639 100.371242 
L 45.638292 93.685301 
L 45.759119 97.659609 
L 46.000773 95.16408 
L 46.121599 97.632273 
L 46.242426 95.88088 
L 46.48408 101.882693 
L 46.604906 100.802232 
L 46.84656 95.414374 
L 47.450694 108.051979 
L 47.571521 107.976613 
L 47.692347 110.334949 
L 47.934001 88.271109 
L 48.175655 98.164542 
L 48.296481 97.599301 
L 48.538135 95.679372 
L 48.658962 95.027494 
L 48.779788 92.089179 
L 49.021442 98.674794 
L 49.263095 93.149512 
L 49.504749 104.119385 
L 49.867229 88.502152 
L 49.988056 90.193387 
L 50.108883 93.954187 
L 50.350536 103.362182 
L 50.471363 101.364587 
L 50.713017 107.392152 
L 50.95467 95.367348 
L 51.196324 102.938304 
L 51.317151 100.528424 
L 51.437977 102.245794 
L 51.679631 91.840716 
L 51.921284 100.114113 
L 52.042111 98.936214 
L 52.162938 103.072442 
L 52.404592 97.804585 
L 52.525418 99.620638 
L 52.887899 87.461484 
L 53.008725 88.488558 
L 53.250379 94.203602 
L 53.492032 92.757531 
L 53.733686 96.884925 
L 53.97534 91.565247 
L 54.216993 100.727811 
L 54.33782 100.046587 
L 54.458647 104.462139 
L 54.579473 103.441264 
L 54.941954 97.216029 
L 55.062781 99.924012 
L 55.304434 109.01369 
L 55.425261 106.35098 
L 55.546088 109.045461 
L 55.666914 106.185915 
L 55.908568 93.403905 
L 56.029395 94.876117 
L 56.271048 101.211131 
L 56.391875 101.955042 
L 56.512702 104.4744 
L 56.754355 94.882475 
L 56.996009 86.931893 
L 57.116836 85.571126 
L 57.237662 89.311241 
L 57.358489 96.641207 
L 57.479316 96.662211 
L 57.720969 86.068469 
L 57.841796 86.826739 
L 58.08345 95.941078 
L 58.325103 108.445469 
L 58.44593 107.094804 
L 58.80841 92.760394 
L 58.929237 89.844034 
L 59.050064 92.280153 
L 59.291718 107.097724 
L 59.412544 108.081727 
L 59.533371 110.356756 
L 59.895851 99.736506 
L 60.016678 102.763863 
L 60.137505 100.149958 
L 60.258332 101.328757 
L 60.379158 105.847892 
L 60.983292 87.122612 
L 61.345773 103.699451 
L 61.466599 104.304681 
L 61.587426 103.711421 
L 61.949906 88.895083 
L 62.070733 88.019578 
L 62.19156 88.37519 
L 62.312387 92.806438 
L 62.433214 103.236342 
L 62.55404 102.690219 
L 62.674867 100.168589 
L 62.795694 102.518084 
L 63.037347 97.214943 
L 63.158174 97.462536 
L 63.520655 108.287627 
L 63.641481 107.125203 
L 63.883135 93.300997 
L 64.124788 96.815966 
L 64.366442 103.721379 
L 64.487269 103.294764 
L 64.608095 107.117494 
L 64.728922 105.492868 
L 65.091403 85.60415 
L 65.453883 101.296064 
L 65.57471 96.829124 
L 65.695536 97.657471 
L 65.816363 97.197955 
L 65.93719 92.27269 
L 66.178844 97.320339 
L 66.29967 95.466603 
L 66.541324 108.066115 
L 66.903804 90.513647 
L 67.024631 91.806059 
L 67.507938 104.159535 
L 67.628765 108.928151 
L 67.749592 107.757645 
L 67.991245 94.8485 
L 68.112072 95.407321 
L 68.232899 97.210111 
L 68.353725 93.50011 
L 68.474552 93.517356 
L 68.595379 101.081685 
L 68.716206 97.854132 
L 68.837032 91.159156 
L 68.957859 91.276454 
L 69.078686 90.761435 
L 69.199513 91.376996 
L 69.441166 102.742246 
L 69.803647 90.533245 
L 69.924473 91.542781 
L 70.0453 89.688719 
L 70.166127 90.217415 
L 70.407781 94.449864 
L 70.528607 96.214351 
L 70.770261 103.754246 
L 70.891088 102.682244 
L 71.011914 106.159639 
L 71.132741 103.4916 
L 71.253568 103.582767 
L 71.616048 107.571816 
L 71.978529 97.003887 
L 72.099355 100.038633 
L 72.341009 107.467588 
L 72.582662 102.339182 
L 72.703489 102.830705 
L 72.824316 99.618404 
L 73.065969 90.104456 
L 73.186796 92.74291 
L 73.42845 85.460616 
L 73.549277 91.877771 
L 73.670103 91.590053 
L 73.911757 85.746222 
L 74.15341 93.473385 
L 74.274237 93.256653 
L 74.515891 96.632164 
L 74.636718 95.43662 
L 74.878371 88.686771 
L 75.120025 96.939405 
L 75.240851 96.781888 
L 75.361678 98.726438 
L 75.724158 114.336357 
L 75.965812 103.883381 
L 76.086639 109.064135 
L 76.207466 108.424955 
L 76.449119 103.534019 
L 76.569946 101.808878 
L 76.811599 95.079938 
L 76.932426 96.86722 
L 77.053253 95.277612 
L 77.17408 95.194212 
L 77.415733 105.689706 
L 77.778214 88.142701 
L 78.019867 86.074548 
L 78.140694 80.454774 
L 78.261521 81.144361 
L 78.503174 91.589591 
L 78.624001 92.230402 
L 78.744828 94.538898 
L 78.865655 92.317304 
L 78.986481 92.941299 
L 79.348962 103.143728 
L 79.469788 102.648423 
L 79.590615 103.227587 
L 79.832269 94.286437 
L 79.953095 93.814313 
L 80.073922 97.008089 
L 80.557229 116.62671 
L 80.678056 114.26544 
L 80.91971 106.660658 
L 81.040536 103.191124 
L 81.161363 94.442586 
L 81.28219 94.347417 
L 81.523844 106.903841 
L 81.64467 102.309264 
L 81.886324 90.329033 
L 82.127977 93.06216 
L 82.248804 93.219055 
L 82.369631 97.818574 
L 82.490458 97.250679 
L 83.094592 80.684006 
L 83.336245 94.07508 
L 83.577899 104.852447 
L 83.698725 103.021895 
L 83.819552 104.090204 
L 84.061206 94.805419 
L 84.302859 102.829322 
L 84.544513 112.85835 
L 84.786166 99.884051 
L 84.906993 102.528127 
L 85.02782 97.393353 
L 85.269473 112.671082 
L 85.3903 110.942699 
L 85.511127 114.595307 
L 85.631954 111.704931 
L 85.994434 82.135562 
L 86.115261 83.623441 
L 86.236088 91.663328 
L 86.356914 91.405332 
L 86.598568 94.166439 
L 86.840221 89.993612 
L 86.961048 85.265839 
L 87.444355 103.199897 
L 87.565182 99.76747 
L 87.806836 86.864895 
L 87.927662 87.131404 
L 88.410969 111.325703 
L 88.531796 111.947066 
L 88.77345 110.861675 
L 89.015103 104.212935 
L 89.377584 112.749278 
L 89.49841 112.797047 
L 89.981718 90.373023 
L 90.102544 91.964519 
L 90.344198 101.186542 
L 90.465025 98.507757 
L 90.827505 78.220686 
L 90.948332 77.283425 
L 91.189985 87.366544 
L 91.431639 84.265776 
L 91.552466 86.440158 
L 91.673292 92.357908 
L 91.794119 90.156338 
L 91.914946 83.18697 
L 92.156599 92.418566 
L 92.51908 115.073042 
L 92.88156 100.262205 
L 93.123214 107.226992 
L 93.24404 109.878583 
L 93.364867 115.434136 
L 93.606521 107.241792 
L 93.727347 100.874984 
L 93.848174 102.630641 
L 93.969001 107.425445 
L 94.210655 101.949303 
L 94.331481 103.904575 
L 94.452308 101.721303 
L 94.693962 94.789439 
L 94.814788 92.955858 
L 95.056442 78.797569 
L 95.177269 81.775671 
L 95.418922 92.739329 
L 95.660576 86.909444 
L 95.781403 89.479354 
L 96.023056 85.32533 
L 96.26471 97.498692 
L 96.385536 98.736314 
L 96.506363 98.301343 
L 96.748017 94.82163 
L 96.868844 97.653601 
L 97.110497 110.239498 
L 97.352151 111.288278 
L 97.714631 116.072474 
L 98.077111 96.293885 
L 98.318765 111.22173 
L 98.439592 108.120874 
L 98.681245 95.066173 
L 98.802072 92.948464 
L 98.922899 94.205734 
L 99.043725 93.655683 
L 99.164552 93.970351 
L 99.285379 99.185434 
L 99.406206 95.45727 
L 99.527032 87.994896 
L 99.647859 89.772894 
L 99.889513 81.611835 
L 100.01034 84.234411 
L 100.131166 84.177074 
L 100.251993 86.066074 
L 100.7353 105.518179 
L 100.856127 101.150841 
L 100.976954 101.093267 
L 101.460261 113.752705 
L 101.943568 97.543599 
L 102.185221 109.266238 
L 102.426875 106.887655 
L 102.668529 109.892628 
L 103.031009 93.279788 
L 103.272662 89.177851 
L 103.393489 91.449422 
L 103.635143 84.729949 
L 103.755969 89.517361 
L 103.997623 82.993195 
L 104.11845 86.244141 
L 104.360103 97.582056 
L 104.48093 90.774967 
L 104.601757 92.114604 
L 104.964237 86.517558 
L 105.689198 115.753475 
L 105.810025 110.838058 
L 105.930851 114.190622 
L 106.172505 105.258348 
L 106.293332 110.493841 
L 106.414158 107.772816 
L 106.655812 96.417831 
L 106.776639 96.339147 
L 106.897466 97.232009 
L 107.018292 95.058767 
L 107.139119 96.596226 
L 107.380773 104.105232 
L 107.501599 100.185106 
L 107.743253 88.445208 
L 107.86408 89.766745 
L 108.105733 78.461241 
L 108.22656 83.382195 
L 108.347387 83.457732 
L 108.58904 86.387977 
L 108.709867 86.438412 
L 109.193174 102.643441 
L 109.314001 102.303073 
L 109.555655 97.414648 
L 109.676481 98.909991 
L 109.797308 102.306289 
L 109.918135 100.885461 
L 110.038962 104.036004 
L 110.280615 111.631959 
L 110.643095 113.961851 
L 110.884749 110.957724 
L 111.005576 111.720205 
L 111.247229 99.824149 
L 111.368056 99.01522 
L 111.60971 90.614846 
L 111.851363 93.817612 
L 111.97219 95.14426 
L 112.093017 94.401894 
L 112.33467 99.450276 
L 112.455497 96.180193 
L 112.576324 96.876583 
L 112.817977 80.680157 
L 113.059631 83.874034 
L 113.180458 87.161047 
L 113.301284 95.786359 
L 113.422111 95.844523 
L 113.542938 92.587167 
L 113.784592 109.507615 
L 114.026245 107.027667 
L 114.147072 115.200783 
L 114.267899 112.511989 
L 114.388725 104.358089 
L 114.509552 104.528665 
L 114.751206 98.150959 
L 114.872032 98.969094 
L 114.992859 98.38649 
L 115.234513 106.484564 
L 115.35534 105.704471 
L 115.596993 109.687093 
L 115.71782 108.350808 
L 116.201127 89.197587 
L 116.321954 87.512017 
L 116.563607 76.886932 
L 116.684434 77.199354 
L 116.805261 81.672911 
L 117.046914 94.188738 
L 117.167741 91.61942 
L 117.288568 95.314134 
L 117.530221 92.46722 
L 117.651048 96.108865 
L 117.892702 92.319472 
L 118.013529 95.487505 
L 118.134355 92.62047 
L 118.255182 92.487393 
L 118.738489 113.348793 
L 118.980143 117.629255 
L 119.342623 107.518351 
L 119.584277 91.107294 
L 119.82593 98.596472 
L 119.946757 97.980338 
L 120.067584 98.576546 
L 120.18841 101.648621 
L 120.309237 101.085005 
L 120.550891 93.122952 
L 120.671718 97.405924 
L 120.792544 95.960793 
L 121.155025 80.277578 
L 121.275851 80.83812 
L 122.242466 106.401834 
L 122.363292 105.810466 
L 122.725773 95.883894 
L 122.846599 96.663634 
L 123.088253 102.545234 
L 123.20908 107.842407 
L 123.450733 101.091919 
L 123.692387 115.524382 
L 123.813214 115.72134 
L 123.93404 112.954247 
L 124.417347 88.154841 
L 124.538174 88.520256 
L 124.659001 87.929054 
L 124.900655 89.019103 
L 125.021481 87.730127 
L 125.263135 98.053548 
L 125.383962 91.679663 
L 125.625615 93.833629 
L 125.867269 85.977738 
L 125.988095 91.242939 
L 126.108922 89.143843 
L 126.229749 79.631125 
L 126.350576 83.211498 
L 126.713056 109.767541 
L 126.833883 110.810057 
L 126.95471 114.281011 
L 127.075536 113.182999 
L 127.800497 91.725352 
L 128.404631 110.292491 
L 128.646284 106.797396 
L 128.767111 106.647434 
L 128.887938 102.169883 
L 129.129592 86.65025 
L 129.250418 87.099211 
L 129.492072 80.506286 
L 129.612899 82.48787 
L 129.854552 90.745144 
L 129.975379 91.840816 
L 130.217032 100.842576 
L 130.458686 89.842962 
L 130.579513 93.252984 
L 130.70034 91.989289 
L 130.821166 82.27095 
L 130.941993 82.494654 
L 131.183647 100.251847 
L 131.4253 103.882551 
L 131.666954 114.169401 
L 131.787781 110.467301 
L 132.029434 116.425282 
L 132.150261 113.069554 
L 132.391914 97.228236 
L 132.512741 97.53228 
L 132.754395 95.465662 
L 132.996048 98.630136 
L 133.237702 110.201814 
L 133.358529 107.380426 
L 133.721009 88.709002 
L 133.962662 85.743835 
L 134.204316 81.192239 
L 134.445969 88.33936 
L 134.566796 88.223312 
L 134.80845 100.98331 
L 134.929277 101.952911 
L 135.050103 106.921683 
L 135.17093 106.578395 
L 135.775064 90.145332 
L 135.895891 93.401276 
L 136.379198 116.121595 
L 136.862505 106.579417 
L 136.983332 104.990082 
L 137.224985 97.617487 
L 137.466639 80.74674 
L 137.587466 84.611684 
L 137.708292 84.821094 
L 137.949946 98.745214 
L 138.070773 97.780349 
L 138.191599 98.609289 
L 138.312426 100.317542 
L 138.433253 100.363358 
L 138.55408 98.012776 
L 138.795733 84.986574 
L 139.037387 88.044961 
L 139.27904 100.856126 
L 139.399867 99.05517 
L 139.520694 99.85947 
L 139.641521 99.723164 
L 139.762347 104.515924 
L 140.004001 118.217254 
L 140.124828 116.450974 
L 140.608135 89.388782 
L 140.728962 90.514143 
L 141.091442 101.583004 
L 141.333095 105.842703 
L 141.453922 103.762851 
L 141.937229 89.378103 
L 142.058056 88.601765 
L 142.29971 85.731717 
L 142.420536 87.28164 
L 142.66219 84.504331 
L 142.783017 88.98289 
L 143.02467 109.020533 
L 143.145497 111.874217 
L 143.628804 87.437682 
L 143.870458 93.18013 
L 143.991284 94.384008 
L 144.112111 93.89728 
L 144.353765 108.492621 
L 144.474592 106.621614 
L 144.595418 107.708624 
L 144.716245 109.80666 
L 144.837072 108.841079 
L 145.441206 86.920618 
L 145.562032 88.093217 
L 145.682859 90.6834 
L 145.803686 89.207927 
L 146.166166 108.392582 
L 146.286993 106.259268 
L 146.649473 96.471564 
L 146.7703 93.084116 
L 146.891127 85.059754 
L 147.011954 86.494839 
L 147.132781 90.603737 
L 147.253607 89.706009 
L 147.495261 97.06402 
L 147.736914 105.103013 
L 147.857741 104.031578 
L 148.099395 106.731347 
L 148.220221 105.685501 
L 148.461875 94.103088 
L 148.582702 98.43004 
L 148.703529 97.693457 
L 148.824355 89.323184 
L 148.945182 90.340789 
L 149.307662 107.682572 
L 149.428489 107.3131 
L 149.790969 102.385087 
L 150.032623 91.515359 
L 150.15345 92.935478 
L 150.395103 87.036096 
L 150.51593 87.418357 
L 150.999237 102.171439 
L 151.240891 98.907195 
L 151.482544 95.338859 
L 151.603371 96.707066 
L 151.724198 96.127594 
L 151.965851 87.608594 
L 152.086678 88.964967 
L 152.569985 108.835121 
L 152.811639 109.909202 
L 152.932466 107.594671 
L 153.053292 108.03729 
L 153.174119 107.328491 
L 153.536599 90.332657 
L 153.778253 101.415741 
L 154.019906 96.507465 
L 154.140733 99.628322 
L 154.382387 98.022592 
L 154.503214 98.604352 
L 154.62404 97.865017 
L 154.744867 100.498431 
L 155.228174 83.877986 
L 155.469828 92.437514 
L 155.953135 105.373294 
L 156.194788 99.705445 
L 156.315615 100.383407 
L 156.436442 103.105474 
L 156.557269 103.132548 
L 156.678095 102.093069 
L 156.798922 102.922575 
L 156.919749 102.255337 
L 157.040576 104.201069 
L 157.161403 101.638848 
L 157.523883 105.085549 
L 157.64471 109.054316 
L 158.128017 91.662707 
L 158.248844 90.214984 
L 158.490497 95.557656 
L 158.611324 94.181211 
L 158.732151 91.067135 
L 158.852977 96.116435 
L 158.973804 95.489528 
L 159.094631 89.174779 
L 159.336284 96.000714 
L 159.457111 96.040604 
L 159.577938 96.322875 
L 159.698765 93.506731 
L 159.819592 95.933994 
L 159.940418 100.908903 
L 160.302899 92.692857 
L 160.423725 97.929865 
L 160.544552 110.318051 
L 160.665379 110.854465 
L 160.786206 108.324245 
L 160.907032 111.284583 
L 161.148686 98.61112 
L 161.39034 102.158149 
L 161.511166 100.173838 
L 161.75282 105.662155 
L 162.1153 97.233954 
L 162.236127 94.753722 
L 162.356954 96.785535 
L 162.477781 100.834256 
L 162.598607 99.961299 
L 162.961088 95.458762 
L 163.081914 91.128223 
L 163.202741 82.054297 
L 163.323568 82.604725 
L 163.686048 102.873621 
L 163.927702 93.14745 
L 164.169355 96.01719 
L 164.290182 98.693873 
L 164.531836 105.030834 
L 164.652662 106.682556 
L 165.135969 96.311158 
L 165.256796 97.827034 
L 165.377623 102.165582 
L 165.49845 102.062274 
L 165.619277 103.231223 
L 165.740103 105.536859 
L 165.86093 110.210836 
L 165.981757 107.609218 
L 166.22341 91.531572 
L 166.344237 92.640928 
L 166.585891 96.792491 
L 166.827544 88.905397 
L 166.948371 88.68237 
L 167.310851 94.165829 
L 167.552505 96.940265 
L 167.673332 96.077031 
L 167.794158 98.762411 
L 168.035812 92.30848 
L 168.156639 95.283206 
L 168.277466 94.271597 
L 168.398292 94.936067 
L 168.639946 93.63533 
L 169.002426 111.402407 
L 169.123253 111.276287 
L 169.24408 106.47282 
L 169.364906 107.763414 
L 169.485733 114.262542 
L 169.60656 111.044399 
L 169.848214 92.864985 
L 170.089867 102.040251 
L 170.452347 92.527811 
L 170.573174 93.647988 
L 170.694001 100.892712 
L 170.814828 98.052444 
L 171.056481 89.942944 
L 171.177308 90.102739 
L 171.298135 90.050307 
L 171.418962 85.122658 
L 171.539788 86.790868 
L 171.660615 91.768595 
L 171.902269 86.752176 
L 172.385576 100.895735 
L 172.627229 103.002312 
L 172.748056 100.640075 
L 172.868883 101.313098 
L 173.110536 100.769525 
L 173.231363 103.57173 
L 173.35219 99.103908 
L 173.473017 99.738763 
L 173.71467 110.263641 
L 174.077151 105.145314 
L 174.197977 106.01008 
L 174.318804 102.184879 
L 174.560458 105.462982 
L 174.802111 95.875388 
L 174.922938 98.181034 
L 175.164592 89.096165 
L 175.285418 90.723177 
L 175.406245 87.939559 
L 175.647899 97.868507 
L 175.889552 93.604496 
L 176.131206 95.531055 
L 176.372859 82.967279 
L 176.614513 98.03316 
L 176.856166 97.030075 
L 176.976993 99.060337 
L 177.218647 105.790911 
L 177.339473 106.232025 
L 177.4603 105.047906 
L 177.701954 97.990918 
L 177.822781 98.614829 
L 178.185261 96.502046 
L 178.306088 94.538071 
L 178.547741 108.481908 
L 178.910221 102.206053 
L 179.031048 99.814626 
L 179.272702 92.606251 
L 179.514355 89.125091 
L 179.635182 90.158897 
L 179.756009 89.872771 
L 179.876836 86.899883 
L 179.997662 89.657247 
L 180.239316 102.432324 
L 180.360143 103.215049 
L 180.601796 100.869576 
L 181.085103 88.663946 
L 181.20593 89.033691 
L 181.326757 88.909008 
L 181.56841 104.791295 
L 181.689237 104.815141 
L 181.810064 105.062694 
L 181.930891 107.498403 
L 182.051718 106.392754 
L 182.172544 104.035725 
L 182.414198 97.564888 
L 182.535025 101.249561 
L 182.655851 100.1342 
L 182.897505 89.835327 
L 183.018332 90.979063 
L 183.259985 103.288331 
L 183.380812 100.410103 
L 183.501639 101.866813 
L 183.622466 100.245076 
L 183.743292 100.382209 
L 183.864119 103.866365 
L 183.984946 99.905753 
L 184.226599 83.942117 
L 184.468253 96.838024 
L 184.58908 95.677886 
L 184.830733 95.948101 
L 184.95156 96.698959 
L 185.072387 101.343461 
L 185.193214 101.481175 
L 185.434867 99.564276 
L 185.555694 102.288785 
L 185.676521 102.437029 
L 185.797347 95.667013 
L 185.918174 96.112993 
L 186.039001 95.612782 
L 186.159828 92.635946 
L 186.401481 104.389588 
L 186.643135 93.899428 
L 186.884788 105.135931 
L 187.488922 92.777003 
L 187.730576 98.911222 
L 187.972229 95.780682 
L 188.093056 94.128709 
L 188.213883 90.053026 
L 188.33471 92.872153 
L 188.576363 101.941241 
L 188.69719 102.810722 
L 188.938844 90.134433 
L 189.05967 93.022025 
L 189.301324 99.703624 
L 189.422151 97.062811 
L 189.663804 101.15392 
L 189.784631 98.829518 
L 189.905458 102.064599 
L 190.147111 91.019178 
L 190.388765 103.862946 
L 190.509592 103.659999 
L 191.113725 95.184485 
L 191.355379 100.831263 
L 191.476206 100.693807 
L 191.717859 94.285766 
L 191.838686 94.283109 
L 192.08034 92.191685 
L 192.201166 93.571086 
L 192.44282 97.418538 
L 192.563647 97.781646 
L 192.8053 103.691334 
L 193.046954 91.920679 
L 193.167781 90.739926 
L 193.288607 92.373537 
L 193.530261 104.399434 
L 193.651088 106.072126 
L 193.771914 102.970756 
L 193.892741 95.739273 
L 194.013568 95.294101 
L 194.255221 106.481966 
L 194.376048 106.132714 
L 194.617702 107.742962 
L 194.980182 90.365172 
L 195.101009 91.303867 
L 195.584316 103.570151 
L 195.705143 102.09899 
L 196.067623 88.20669 
L 196.55093 98.920157 
L 196.671757 97.244202 
L 196.91341 85.878634 
L 197.034237 96.731608 
L 197.275891 91.478517 
L 197.517544 107.107013 
L 197.638371 107.281901 
L 197.880025 102.635555 
L 198.000851 102.251784 
L 198.121678 96.730541 
L 198.363332 102.679468 
L 198.484158 102.526522 
L 198.725812 106.136343 
L 198.846639 109.446837 
L 199.209119 99.47431 
L 199.450773 104.961725 
L 199.571599 103.146094 
L 199.813253 93.644951 
L 199.93408 97.060849 
L 200.417387 88.301152 
L 200.65904 99.602454 
L 201.263174 86.118406 
L 201.746481 106.949132 
L 201.867308 105.809885 
L 201.988135 97.593716 
L 202.108962 97.680762 
L 202.229788 98.071461 
L 202.350615 99.1507 
L 202.713095 106.724377 
L 202.954749 96.524643 
L 203.075576 103.793945 
L 203.317229 99.975905 
L 203.438056 101.525513 
L 203.558883 108.145949 
L 203.67971 107.131904 
L 203.921363 93.212932 
L 204.04219 92.025343 
L 204.163017 93.847035 
L 204.283844 92.930173 
L 204.40467 93.478715 
L 204.525497 99.72893 
L 204.646324 99.047251 
L 204.887977 90.764339 
L 205.008804 90.222522 
L 205.250458 94.681978 
L 205.371284 93.407555 
L 205.612938 97.058698 
L 205.854592 89.538677 
L 205.975418 89.335742 
L 206.458725 107.122244 
L 206.579552 109.671976 
L 206.700379 106.553302 
L 206.942032 98.966397 
L 207.183686 107.447417 
L 207.304513 105.783282 
L 207.42534 105.804038 
L 207.546166 104.847508 
L 207.666993 105.073236 
L 207.908647 97.84427 
L 208.029473 98.47455 
L 208.1503 104.253135 
L 208.271127 103.213333 
L 208.391954 94.230374 
L 208.512781 94.152005 
L 208.633607 99.702754 
L 208.754434 99.810008 
L 208.996088 89.161084 
L 209.116914 93.486737 
L 209.237741 93.587505 
L 209.358568 94.994147 
L 209.600221 103.003315 
L 209.841875 92.570788 
L 209.962702 93.075394 
L 210.325182 101.317727 
L 210.446009 100.129564 
L 210.566836 100.135452 
L 210.687662 101.742766 
L 210.808489 105.1729 
L 210.929316 101.56655 
L 211.050143 104.228604 
L 211.170969 102.432668 
L 211.291796 94.569464 
L 211.53345 105.134934 
L 211.775103 94.118091 
L 212.016757 95.9061 
L 212.137584 93.485743 
L 212.379237 105.204507 
L 212.620891 92.372812 
L 212.741718 97.20206 
L 212.862544 94.711832 
L 212.983371 89.849377 
L 213.104198 94.639269 
L 213.225025 95.000662 
L 213.345851 92.01229 
L 213.466678 93.124188 
L 213.708332 96.849722 
L 213.829158 97.496869 
L 213.949985 95.779774 
L 214.070812 95.913585 
L 214.312466 101.425822 
L 214.554119 94.103252 
L 214.795773 101.100046 
L 214.916599 100.869818 
L 215.037426 105.915082 
L 215.158253 105.957012 
L 215.399906 98.947426 
L 215.520733 99.059767 
L 215.64156 96.362456 
L 215.883214 101.113412 
L 216.124867 105.079432 
L 216.366521 98.438525 
L 216.487347 96.574913 
L 216.608174 97.624811 
L 216.849828 90.516098 
L 217.212308 98.360102 
L 217.453962 83.836387 
L 217.574788 86.205693 
L 217.695615 91.890087 
L 217.816442 91.902766 
L 217.937269 96.023957 
L 218.178922 96.300605 
L 218.299749 100.02295 
L 218.541403 93.771109 
L 218.662229 94.706495 
L 218.783056 89.555205 
L 219.02471 97.912602 
L 219.145536 97.586978 
L 219.266363 97.315521 
L 219.38719 97.865432 
L 219.628844 104.662448 
L 219.74967 103.680573 
L 219.991324 107.936265 
L 220.112151 107.831457 
L 220.474631 99.633987 
L 220.595458 100.186075 
L 220.837111 95.142683 
L 220.957938 96.627452 
L 221.078765 94.012523 
L 221.441245 100.864287 
L 221.562072 101.137236 
L 221.803725 89.943679 
L 222.166206 93.809354 
L 222.287032 92.377132 
L 222.407859 84.13017 
L 222.528686 86.403467 
L 222.77034 95.037596 
L 223.011993 96.705697 
L 223.253647 102.730163 
L 223.374473 101.725343 
L 223.4953 98.961739 
L 223.616127 104.336935 
L 223.736954 104.294797 
L 223.857781 101.302548 
L 224.099434 105.391328 
L 224.341088 100.603527 
L 224.582741 105.267841 
L 224.824395 99.096706 
L 225.066048 106.004327 
L 225.186875 102.439324 
L 225.307702 95.563573 
L 225.428529 95.079242 
L 225.549355 97.74747 
L 225.670182 92.799567 
L 225.791009 93.177555 
L 225.911836 94.084379 
L 226.153489 85.701137 
L 226.395143 98.735469 
L 226.515969 97.449588 
L 226.757623 92.106984 
L 226.87845 92.83883 
L 226.999277 91.398935 
L 227.24093 96.834637 
L 227.361757 96.087929 
L 227.482584 94.93899 
L 227.60341 95.588635 
L 227.845064 104.885781 
L 228.086718 96.977762 
L 228.328371 105.771445 
L 228.449198 104.015971 
L 228.690851 109.102034 
L 228.811678 107.669029 
L 229.174158 98.112511 
L 229.294985 97.82011 
L 229.415812 99.715719 
L 229.536639 98.443803 
L 229.778292 101.664503 
L 229.899119 98.868386 
L 230.140773 100.692062 
L 230.382426 93.535317 
L 230.62408 89.829721 
L 230.744906 91.924953 
L 230.865733 91.693192 
L 231.107387 86.94516 
L 231.590694 94.543206 
L 231.711521 95.311634 
L 231.953174 104.078808 
L 232.074001 102.965782 
L 232.194828 100.047401 
L 232.315655 99.82132 
L 232.557308 101.578022 
L 232.678135 100.126155 
L 232.919788 109.373391 
L 233.040615 108.633093 
L 233.161442 108.920614 
L 233.523922 112.451498 
L 233.765576 106.508629 
L 234.007229 96.050753 
L 234.128056 95.550818 
L 234.248883 94.542172 
L 234.490536 96.236304 
L 234.611363 96.634505 
L 234.73219 96.581375 
L 234.853017 96.762485 
L 234.973844 98.629147 
L 235.09467 96.74799 
L 235.336324 88.892919 
L 235.457151 91.103237 
L 235.577977 90.402301 
L 235.698804 87.470662 
L 235.940458 87.919139 
L 236.061284 85.346294 
L 236.302938 99.229473 
L 236.423765 96.658075 
L 236.544592 97.622419 
L 236.786245 105.455684 
L 237.027899 95.271948 
L 237.148725 95.150996 
L 237.390379 106.830063 
L 237.511206 105.494741 
L 237.632032 104.625327 
L 237.752859 105.694783 
L 237.994513 102.399375 
L 238.11534 106.053175 
L 238.236166 105.429822 
L 238.356993 102.479697 
L 238.47782 105.303732 
L 238.598647 104.46158 
L 239.081954 85.543745 
L 239.323607 100.031217 
L 239.565261 97.532625 
L 239.686088 98.629486 
L 240.048568 84.269863 
L 240.169395 84.540773 
L 240.411048 94.204222 
L 240.531875 96.229386 
L 240.652702 93.121293 
L 240.773529 93.811807 
L 240.894355 98.543539 
L 241.136009 97.041706 
L 241.377662 111.300737 
L 241.498489 109.391952 
L 241.619316 104.225713 
L 241.740143 107.200534 
L 241.860969 107.132058 
L 242.102623 95.323086 
L 242.58593 113.959718 
L 243.190064 97.939813 
L 243.431718 102.563636 
L 243.673371 85.171035 
L 243.915025 88.885137 
L 244.035851 87.431155 
L 244.156678 88.467848 
L 244.398332 94.312804 
L 244.519158 94.132273 
L 244.760812 98.474288 
L 245.002466 89.246053 
L 245.485773 98.705089 
L 245.606599 94.558718 
L 245.848253 103.740109 
L 245.96908 102.851386 
L 246.210733 112.998655 
L 246.33156 109.170725 
L 246.69404 111.454699 
L 246.935694 100.798738 
L 247.056521 102.778458 
L 247.177347 101.673564 
L 247.298174 101.811476 
L 247.419001 103.507721 
L 247.660655 99.23406 
L 247.781481 100.695461 
L 247.902308 98.375971 
L 248.143962 89.873617 
L 248.385615 95.543835 
L 248.627269 88.349216 
L 248.868922 86.270124 
L 249.110576 92.21035 
L 249.231403 90.909559 
L 249.352229 90.879435 
L 249.593883 98.604142 
L 249.71471 100.124343 
L 249.956363 95.4705 
L 250.198017 95.650402 
L 250.43967 111.040419 
L 250.802151 100.426129 
L 251.043804 101.560047 
L 251.164631 101.117553 
L 251.406284 114.295088 
L 251.647938 104.921368 
L 251.768765 103.673335 
L 252.131245 90.982143 
L 252.252072 88.793151 
L 252.493725 96.087071 
L 252.735379 91.288264 
L 252.977032 88.907479 
L 253.097859 84.846854 
L 253.218686 87.764374 
L 253.46034 99.466257 
L 253.82282 85.848865 
L 253.943647 88.364822 
L 254.426954 104.916988 
L 254.547781 107.074853 
L 254.668607 106.888358 
L 254.789434 107.201311 
L 254.910261 109.650935 
L 255.151914 103.012414 
L 255.272741 103.374866 
L 255.393568 106.543301 
L 255.635221 98.687437 
L 255.876875 102.2944 
L 255.997702 98.52508 
L 256.360182 109.719525 
L 256.481009 107.535242 
L 256.843489 82.748456 
L 256.964316 84.62307 
L 257.205969 80.376101 
L 257.447623 90.661664 
L 257.56845 90.248389 
L 257.810103 94.181569 
L 257.93093 94.723654 
L 258.051757 95.81774 
L 258.172584 94.966908 
L 258.29341 95.876952 
L 258.414237 97.853774 
L 258.535064 94.95391 
L 258.655891 87.693526 
L 258.776718 87.30755 
L 259.501678 123.270553 
L 259.622505 120.202007 
L 260.105812 96.868866 
L 260.226639 98.02049 
L 260.347466 97.204083 
L 260.468292 93.854359 
L 260.830773 97.139965 
L 260.951599 96.334992 
L 261.072426 99.856126 
L 261.193253 98.610423 
L 261.31408 93.553341 
L 261.434906 95.437596 
L 261.555733 93.843979 
L 261.918214 79.343221 
L 262.03904 80.550411 
L 262.280694 97.084749 
L 262.522347 97.512471 
L 262.764001 108.67637 
L 263.126481 99.472541 
L 263.247308 100.87534 
L 263.488962 96.527051 
L 263.609788 97.290444 
L 263.730615 96.040772 
L 263.972269 112.523574 
L 264.213922 112.532838 
L 264.334749 112.223336 
L 264.455576 110.010212 
L 264.576403 110.799467 
L 264.818056 93.137607 
L 264.938883 86.085254 
L 265.05971 87.46582 
L 265.180536 93.165707 
L 265.42219 90.845256 
L 265.543017 90.598986 
L 265.663844 93.038605 
L 265.78467 99.823362 
L 265.905497 100.135111 
L 266.026324 97.221218 
L 266.147151 97.959557 
L 266.267977 95.95288 
L 266.388804 89.838077 
L 266.509631 90.260571 
L 266.751284 81.431383 
L 266.992938 91.890086 
L 267.113765 93.221861 
L 267.597072 109.067085 
L 267.717899 105.252628 
L 267.959552 108.867316 
L 268.080379 104.458585 
L 268.201206 105.570736 
L 268.322032 104.997498 
L 268.563686 95.016434 
L 268.80534 105.73967 
L 268.926166 104.960053 
L 269.046993 105.195406 
L 269.16782 108.460717 
L 269.771954 91.763937 
L 270.013607 85.660375 
L 270.255261 90.883759 
L 270.376088 90.27073 
L 270.738568 94.6125 
L 270.859395 98.006238 
L 270.980221 93.59175 
L 271.101048 93.728266 
L 271.221875 99.135845 
L 271.463529 93.337852 
L 271.584355 93.918785 
L 271.946836 101.669774 
L 272.067662 109.2494 
L 272.188489 108.902538 
L 272.309316 107.616562 
L 272.430143 111.252357 
L 272.671796 102.310465 
L 272.792623 105.41457 
L 272.91345 105.301607 
L 273.034277 102.823725 
L 273.155103 103.397377 
L 273.396757 105.161608 
L 273.63841 94.624866 
L 273.880064 103.35057 
L 274.000891 103.08294 
L 274.605025 82.539178 
L 274.725851 83.47113 
L 274.846678 84.45695 
L 275.329985 97.104692 
L 275.450812 94.590805 
L 275.571639 89.135802 
L 275.934119 96.210043 
L 276.175773 105.259295 
L 276.417426 99.684326 
L 276.538253 91.024443 
L 276.65908 92.160011 
L 276.900733 111.141544 
L 277.02156 116.384908 
L 277.142387 115.620958 
L 277.38404 107.015068 
L 277.504867 107.626959 
L 277.746521 97.775502 
L 277.988174 104.17908 
L 278.229828 94.459566 
L 278.350655 96.222701 
L 278.713135 87.845776 
L 278.954788 97.621961 
L 279.075615 97.295695 
L 279.558922 77.661358 
L 279.800576 84.77943 
L 280.042229 97.021158 
L 280.163056 99.341819 
L 280.40471 108.570042 
L 280.525536 108.405216 
L 280.76719 100.182374 
L 280.888017 100.445649 
L 281.250497 107.582582 
L 281.371324 106.246669 
L 281.492151 102.414622 
L 281.612977 104.265543 
L 281.975458 114.99207 
L 282.096284 113.486515 
L 282.337938 100.033765 
L 282.458765 102.895876 
L 282.579592 94.862304 
L 282.579592 94.862304 
" clip-path="url(#p3ea99bbdc6)" style="fill: none; stroke: #0000ff; stroke-width: 0.8; stroke-linecap: square"/>
   </g>
   <g id="patch_3">
    <path d="M 41.046875 185.393079 
L 41.046875 10.778906 
" style="fill: none; stroke: #000000; stroke-width: 0.8; stroke-linejoin: miter; stroke-linecap: square"/>
   </g>
   <g id="patch_4">
    <path d="M 282.700418 185.393079 
L 282.700418 10.778906 
" style="fill: none; stroke: #000000; stroke-width: 0.8; stroke-linejoin: miter; stroke-linecap: square"/>
   </g>
   <g id="patch_5">
    <path d="M 41.046875 185.393079 
L 282.700418 185.393079 
" style="fill: none; stroke: #000000; stroke-width: 0.8; stroke-linejoin: miter; stroke-linecap: square"/>
   </g>
   <g id="patch_6">
    <path d="M 41.046875 10.778906 
L 282.700418 10.778906 
" style="fill: none; stroke: #000000; stroke-width: 0.8; stroke-linejoin: miter; stroke-linecap: square"/>
   </g>
   <g id="legend_1">
    <g id="patch_7">
     <path d="M 174.241043 47.308594 
L 275.700418 47.308594 
Q 277.700418 47.308594 277.700418 45.308594 
L 277.700418 17.778906 
Q 277.700418 15.778906 275.700418 15.778906 
L 174.241043 15.778906 
Q 172.241043 15.778906 172.241043 17.778906 
L 172.241043 45.308594 
Q 172.241043 47.308594 174.241043 47.308594 
z
" style="fill: #ffffff; stroke: #000000; stroke-linejoin: miter"/>
    </g>
    <g id="line2d_25">
     <path d="M 176.241043 23.436719 
L 186.241043 23.436719 
L 196.241043 23.436719 
" style="fill: none; stroke: #ff0000; stroke-width: 0.8; stroke-linecap: square"/>
    </g>
    <g id="text_14">
     <!-- Elastic force -->
     <g transform="translate(204.241043 26.936719) scale(0.1 -0.1)">
      <defs>
       <path id="ArialMT-45" d="M 506 0 
L 506 4581 
L 3819 4581 
L 3819 4041 
L 1113 4041 
L 1113 2638 
L 3647 2638 
L 3647 2100 
L 1113 2100 
L 1113 541 
L 3925 541 
L 3925 0 
L 506 0 
z
" transform="scale(0.015625)"/>
       <path id="ArialMT-6c" d="M 409 0 
L 409 4581 
L 972 4581 
L 972 0 
L 409 0 
z
" transform="scale(0.015625)"/>
       <path id="ArialMT-74" d="M 1650 503 
L 1731 6 
Q 1494 -44 1306 -44 
Q 1000 -44 831 53 
Q 663 150 594 308 
Q 525 466 525 972 
L 525 2881 
L 113 2881 
L 113 3319 
L 525 3319 
L 525 4141 
L 1084 4478 
L 1084 3319 
L 1650 3319 
L 1650 2881 
L 1084 2881 
L 1084 941 
Q 1084 700 1114 631 
Q 1144 563 1211 522 
Q 1278 481 1403 481 
Q 1497 481 1650 503 
z
" transform="scale(0.015625)"/>
      </defs>
      <use xlink:href="#ArialMT-45"/>
      <use xlink:href="#ArialMT-6c" x="66.699219"/>
      <use xlink:href="#ArialMT-61" x="88.916016"/>
      <use xlink:href="#ArialMT-73" x="144.53125"/>
      <use xlink:href="#ArialMT-74" x="194.53125"/>
      <use xlink:href="#ArialMT-69" x="222.314453"/>
      <use xlink:href="#ArialMT-63" x="244.53125"/>
      <use xlink:href="#ArialMT-20" x="294.53125"/>
      <use xlink:href="#ArialMT-66" x="322.314453"/>
      <use xlink:href="#ArialMT-6f" x="350.097656"/>
      <use xlink:href="#ArialMT-72" x="405.712891"/>
      <use xlink:href="#ArialMT-63" x="439.013672"/>
      <use xlink:href="#ArialMT-65" x="489.013672"/>
     </g>
    </g>
    <g id="line2d_26">
     <path d="M 176.241043 37.703906 
L 186.241043 37.703906 
L 196.241043 37.703906 
" style="fill: none; stroke: #0000ff; stroke-width: 0.8; stroke-linecap: square"/>
    </g>
    <g id="text_15">
     <!-- Hysteretic force -->
     <g transform="translate(204.241043 41.203906) scale(0.1 -0.1)">
      <defs>
       <path id="ArialMT-48" d="M 513 0 
L 513 4581 
L 1119 4581 
L 1119 2700 
L 3500 2700 
L 3500 4581 
L 4106 4581 
L 4106 0 
L 3500 0 
L 3500 2159 
L 1119 2159 
L 1119 0 
L 513 0 
z
" transform="scale(0.015625)"/>
       <path id="ArialMT-79" d="M 397 -1278 
L 334 -750 
Q 519 -800 656 -800 
Q 844 -800 956 -737 
Q 1069 -675 1141 -563 
Q 1194 -478 1313 -144 
Q 1328 -97 1363 -6 
L 103 3319 
L 709 3319 
L 1400 1397 
Q 1534 1031 1641 628 
Q 1738 1016 1872 1384 
L 2581 3319 
L 3144 3319 
L 1881 -56 
Q 1678 -603 1566 -809 
Q 1416 -1088 1222 -1217 
Q 1028 -1347 759 -1347 
Q 597 -1347 397 -1278 
z
" transform="scale(0.015625)"/>
      </defs>
      <use xlink:href="#ArialMT-48"/>
      <use xlink:href="#ArialMT-79" x="72.216797"/>
      <use xlink:href="#ArialMT-73" x="122.216797"/>
      <use xlink:href="#ArialMT-74" x="172.216797"/>
      <use xlink:href="#ArialMT-65" x="200"/>
      <use xlink:href="#ArialMT-72" x="255.615234"/>
      <use xlink:href="#ArialMT-65" x="288.916016"/>
      <use xlink:href="#ArialMT-74" x="344.53125"/>
      <use xlink:href="#ArialMT-69" x="372.314453"/>
      <use xlink:href="#ArialMT-63" x="394.53125"/>
      <use xlink:href="#ArialMT-20" x="444.53125"/>
      <use xlink:href="#ArialMT-66" x="472.314453"/>
      <use xlink:href="#ArialMT-6f" x="500.097656"/>
      <use xlink:href="#ArialMT-72" x="555.712891"/>
      <use xlink:href="#ArialMT-63" x="589.013672"/>
      <use xlink:href="#ArialMT-65" x="639.013672"/>
     </g>
    </g>
   </g>
  </g>
 </g>
 <defs>
  <clipPath id="p3ea99bbdc6">
   <rect x="41.046875" y="10.778906" width="241.653543" height="174.614173"/>
  </clipPath>
 </defs>
</svg>
