<?xml version="1.0" encoding="utf-8" standalone="no"?>
<!DOCTYPE svg PUBLIC "-//W3C//DTD SVG 1.1//EN"
  "http://www.w3.org/Graphics/SVG/1.1/DTD/svg11.dtd">
<svg xmlns:xlink="http://www.w3.org/1999/xlink" width="493.177891pt" height="215.043861pt" viewBox="0 0 493.177891 215.043861" xmlns="http://www.w3.org/2000/svg" version="1.1">
 <metadata>
  <rdf:RDF xmlns:dc="http://purl.org/dc/elements/1.1/" xmlns:cc="http://creativecommons.org/ns#" xmlns:rdf="http://www.w3.org/1999/02/22-rdf-syntax-ns#">
   <cc:Work>
    <dc:type rdf:resource="http://purl.org/dc/dcmitype/StillImage"/>
    <dc:date>2024-03-11T17:18:49.191321</dc:date>
    <dc:format>image/svg+xml</dc:format>
    <dc:creator>
     <cc:Agent>
      <dc:title>Matplotlib v3.8.2, https://matplotlib.org/</dc:title>
     </cc:Agent>
    </dc:creator>
   </cc:Work>
  </rdf:RDF>
 </metadata>
 <defs>
  <style type="text/css">*{stroke-linejoin: round; stroke-linecap: butt}</style>
 </defs>
 <g id="figure_1">
  <g id="patch_1">
   <path d="M 0 215.043861 
L 493.177891 215.043861 
L 493.177891 0 
L 0 0 
z
" style="fill: #ffffff"/>
  </g>
  <g id="axes_1">
   <g id="patch_2">
    <path d="M 41.046875 181.814173 
L 480.416954 181.814173 
L 480.416954 7.2 
L 41.046875 7.2 
z
" style="fill: #ffffff"/>
   </g>
   <g id="matplotlib.axis_1">
    <g id="xtick_1">
     <g id="line2d_1">
      <path d="M 41.046875 181.814173 
L 41.046875 7.2 
" clip-path="url(#p45c5fafe01)" style="fill: none; stroke: #b0b0b0; stroke-width: 0.8; stroke-linecap: square"/>
     </g>
     <g id="line2d_2">
      <defs>
       <path id="mb7aa215a18" d="M 0 0 
L 0 -3.5 
" style="stroke: #000000; stroke-width: 0.8"/>
      </defs>
      <g>
       <use xlink:href="#mb7aa215a18" x="41.046875" y="181.814173" style="stroke: #000000; stroke-width: 0.8"/>
      </g>
     </g>
     <g id="text_1">
      <!-- 0 -->
      <g transform="translate(38.266406 192.471986) scale(0.1 -0.1)">
       <defs>
        <path id="ArialMT-30" d="M 266 2259 
Q 266 3072 433 3567 
Q 600 4063 929 4331 
Q 1259 4600 1759 4600 
Q 2128 4600 2406 4451 
Q 2684 4303 2865 4023 
Q 3047 3744 3150 3342 
Q 3253 2941 3253 2259 
Q 3253 1453 3087 958 
Q 2922 463 2592 192 
Q 2263 -78 1759 -78 
Q 1097 -78 719 397 
Q 266 969 266 2259 
z
M 844 2259 
Q 844 1131 1108 757 
Q 1372 384 1759 384 
Q 2147 384 2411 759 
Q 2675 1134 2675 2259 
Q 2675 3391 2411 3762 
Q 2147 4134 1753 4134 
Q 1366 4134 1134 3806 
Q 844 3388 844 2259 
z
" transform="scale(0.015625)"/>
       </defs>
       <use xlink:href="#ArialMT-30"/>
      </g>
     </g>
    </g>
    <g id="xtick_2">
     <g id="line2d_3">
      <path d="M 95.968135 181.814173 
L 95.968135 7.2 
" clip-path="url(#p45c5fafe01)" style="fill: none; stroke: #b0b0b0; stroke-width: 0.8; stroke-linecap: square"/>
     </g>
     <g id="line2d_4">
      <g>
       <use xlink:href="#mb7aa215a18" x="95.968135" y="181.814173" style="stroke: #000000; stroke-width: 0.8"/>
      </g>
     </g>
     <g id="text_2">
      <!-- 5 -->
      <g transform="translate(93.187666 192.471986) scale(0.1 -0.1)">
       <defs>
        <path id="ArialMT-35" d="M 266 1200 
L 856 1250 
Q 922 819 1161 601 
Q 1400 384 1738 384 
Q 2144 384 2425 690 
Q 2706 997 2706 1503 
Q 2706 1984 2436 2262 
Q 2166 2541 1728 2541 
Q 1456 2541 1237 2417 
Q 1019 2294 894 2097 
L 366 2166 
L 809 4519 
L 3088 4519 
L 3088 3981 
L 1259 3981 
L 1013 2750 
Q 1425 3038 1878 3038 
Q 2478 3038 2890 2622 
Q 3303 2206 3303 1553 
Q 3303 931 2941 478 
Q 2500 -78 1738 -78 
Q 1113 -78 717 272 
Q 322 622 266 1200 
z
" transform="scale(0.015625)"/>
       </defs>
       <use xlink:href="#ArialMT-35"/>
      </g>
     </g>
    </g>
    <g id="xtick_3">
     <g id="line2d_5">
      <path d="M 150.889395 181.814173 
L 150.889395 7.2 
" clip-path="url(#p45c5fafe01)" style="fill: none; stroke: #b0b0b0; stroke-width: 0.8; stroke-linecap: square"/>
     </g>
     <g id="line2d_6">
      <g>
       <use xlink:href="#mb7aa215a18" x="150.889395" y="181.814173" style="stroke: #000000; stroke-width: 0.8"/>
      </g>
     </g>
     <g id="text_3">
      <!-- 10 -->
      <g transform="translate(145.328457 192.471986) scale(0.1 -0.1)">
       <defs>
        <path id="ArialMT-31" d="M 2384 0 
L 1822 0 
L 1822 3584 
Q 1619 3391 1289 3197 
Q 959 3003 697 2906 
L 697 3450 
Q 1169 3672 1522 3987 
Q 1875 4303 2022 4600 
L 2384 4600 
L 2384 0 
z
" transform="scale(0.015625)"/>
       </defs>
       <use xlink:href="#ArialMT-31"/>
       <use xlink:href="#ArialMT-30" x="55.615234"/>
      </g>
     </g>
    </g>
    <g id="xtick_4">
     <g id="line2d_7">
      <path d="M 205.810655 181.814173 
L 205.810655 7.2 
" clip-path="url(#p45c5fafe01)" style="fill: none; stroke: #b0b0b0; stroke-width: 0.8; stroke-linecap: square"/>
     </g>
     <g id="line2d_8">
      <g>
       <use xlink:href="#mb7aa215a18" x="205.810655" y="181.814173" style="stroke: #000000; stroke-width: 0.8"/>
      </g>
     </g>
     <g id="text_4">
      <!-- 15 -->
      <g transform="translate(200.249717 192.471986) scale(0.1 -0.1)">
       <use xlink:href="#ArialMT-31"/>
       <use xlink:href="#ArialMT-35" x="55.615234"/>
      </g>
     </g>
    </g>
    <g id="xtick_5">
     <g id="line2d_9">
      <path d="M 260.731914 181.814173 
L 260.731914 7.2 
" clip-path="url(#p45c5fafe01)" style="fill: none; stroke: #b0b0b0; stroke-width: 0.8; stroke-linecap: square"/>
     </g>
     <g id="line2d_10">
      <g>
       <use xlink:href="#mb7aa215a18" x="260.731914" y="181.814173" style="stroke: #000000; stroke-width: 0.8"/>
      </g>
     </g>
     <g id="text_5">
      <!-- 20 -->
      <g transform="translate(255.170977 192.471986) scale(0.1 -0.1)">
       <defs>
        <path id="ArialMT-32" d="M 3222 541 
L 3222 0 
L 194 0 
Q 188 203 259 391 
Q 375 700 629 1000 
Q 884 1300 1366 1694 
Q 2113 2306 2375 2664 
Q 2638 3022 2638 3341 
Q 2638 3675 2398 3904 
Q 2159 4134 1775 4134 
Q 1369 4134 1125 3890 
Q 881 3647 878 3216 
L 300 3275 
Q 359 3922 746 4261 
Q 1134 4600 1788 4600 
Q 2447 4600 2831 4234 
Q 3216 3869 3216 3328 
Q 3216 3053 3103 2787 
Q 2991 2522 2730 2228 
Q 2469 1934 1863 1422 
Q 1356 997 1212 845 
Q 1069 694 975 541 
L 3222 541 
z
" transform="scale(0.015625)"/>
       </defs>
       <use xlink:href="#ArialMT-32"/>
       <use xlink:href="#ArialMT-30" x="55.615234"/>
      </g>
     </g>
    </g>
    <g id="xtick_6">
     <g id="line2d_11">
      <path d="M 315.653174 181.814173 
L 315.653174 7.2 
" clip-path="url(#p45c5fafe01)" style="fill: none; stroke: #b0b0b0; stroke-width: 0.8; stroke-linecap: square"/>
     </g>
     <g id="line2d_12">
      <g>
       <use xlink:href="#mb7aa215a18" x="315.653174" y="181.814173" style="stroke: #000000; stroke-width: 0.8"/>
      </g>
     </g>
     <g id="text_6">
      <!-- 25 -->
      <g transform="translate(310.092237 192.471986) scale(0.1 -0.1)">
       <use xlink:href="#ArialMT-32"/>
       <use xlink:href="#ArialMT-35" x="55.615234"/>
      </g>
     </g>
    </g>
    <g id="xtick_7">
     <g id="line2d_13">
      <path d="M 370.574434 181.814173 
L 370.574434 7.2 
" clip-path="url(#p45c5fafe01)" style="fill: none; stroke: #b0b0b0; stroke-width: 0.8; stroke-linecap: square"/>
     </g>
     <g id="line2d_14">
      <g>
       <use xlink:href="#mb7aa215a18" x="370.574434" y="181.814173" style="stroke: #000000; stroke-width: 0.8"/>
      </g>
     </g>
     <g id="text_7">
      <!-- 30 -->
      <g transform="translate(365.013497 192.471986) scale(0.1 -0.1)">
       <defs>
        <path id="ArialMT-33" d="M 269 1209 
L 831 1284 
Q 928 806 1161 595 
Q 1394 384 1728 384 
Q 2125 384 2398 659 
Q 2672 934 2672 1341 
Q 2672 1728 2419 1979 
Q 2166 2231 1775 2231 
Q 1616 2231 1378 2169 
L 1441 2663 
Q 1497 2656 1531 2656 
Q 1891 2656 2178 2843 
Q 2466 3031 2466 3422 
Q 2466 3731 2256 3934 
Q 2047 4138 1716 4138 
Q 1388 4138 1169 3931 
Q 950 3725 888 3313 
L 325 3413 
Q 428 3978 793 4289 
Q 1159 4600 1703 4600 
Q 2078 4600 2393 4439 
Q 2709 4278 2876 4000 
Q 3044 3722 3044 3409 
Q 3044 3113 2884 2869 
Q 2725 2625 2413 2481 
Q 2819 2388 3044 2092 
Q 3269 1797 3269 1353 
Q 3269 753 2831 336 
Q 2394 -81 1725 -81 
Q 1122 -81 723 278 
Q 325 638 269 1209 
z
" transform="scale(0.015625)"/>
       </defs>
       <use xlink:href="#ArialMT-33"/>
       <use xlink:href="#ArialMT-30" x="55.615234"/>
      </g>
     </g>
    </g>
    <g id="xtick_8">
     <g id="line2d_15">
      <path d="M 425.495694 181.814173 
L 425.495694 7.2 
" clip-path="url(#p45c5fafe01)" style="fill: none; stroke: #b0b0b0; stroke-width: 0.8; stroke-linecap: square"/>
     </g>
     <g id="line2d_16">
      <g>
       <use xlink:href="#mb7aa215a18" x="425.495694" y="181.814173" style="stroke: #000000; stroke-width: 0.8"/>
      </g>
     </g>
     <g id="text_8">
      <!-- 35 -->
      <g transform="translate(419.934756 192.471986) scale(0.1 -0.1)">
       <use xlink:href="#ArialMT-33"/>
       <use xlink:href="#ArialMT-35" x="55.615234"/>
      </g>
     </g>
    </g>
    <g id="xtick_9">
     <g id="line2d_17">
      <path d="M 480.416954 181.814173 
L 480.416954 7.2 
" clip-path="url(#p45c5fafe01)" style="fill: none; stroke: #b0b0b0; stroke-width: 0.8; stroke-linecap: square"/>
     </g>
     <g id="line2d_18">
      <g>
       <use xlink:href="#mb7aa215a18" x="480.416954" y="181.814173" style="stroke: #000000; stroke-width: 0.8"/>
      </g>
     </g>
     <g id="text_9">
      <!-- 40 -->
      <g transform="translate(474.856016 192.471986) scale(0.1 -0.1)">
       <defs>
        <path id="ArialMT-34" d="M 2069 0 
L 2069 1097 
L 81 1097 
L 81 1613 
L 2172 4581 
L 2631 4581 
L 2631 1613 
L 3250 1613 
L 3250 1097 
L 2631 1097 
L 2631 0 
L 2069 0 
z
M 2069 1613 
L 2069 3678 
L 634 1613 
L 2069 1613 
z
" transform="scale(0.015625)"/>
       </defs>
       <use xlink:href="#ArialMT-34"/>
       <use xlink:href="#ArialMT-30" x="55.615234"/>
      </g>
     </g>
    </g>
    <g id="text_10">
     <!-- Time (s) -->
     <g transform="translate(242.590508 205.739173) scale(0.1 -0.1)">
      <defs>
       <path id="ArialMT-54" d="M 1659 0 
L 1659 4041 
L 150 4041 
L 150 4581 
L 3781 4581 
L 3781 4041 
L 2266 4041 
L 2266 0 
L 1659 0 
z
" transform="scale(0.015625)"/>
       <path id="ArialMT-69" d="M 425 3934 
L 425 4581 
L 988 4581 
L 988 3934 
L 425 3934 
z
M 425 0 
L 425 3319 
L 988 3319 
L 988 0 
L 425 0 
z
" transform="scale(0.015625)"/>
       <path id="ArialMT-6d" d="M 422 0 
L 422 3319 
L 925 3319 
L 925 2853 
Q 1081 3097 1340 3245 
Q 1600 3394 1931 3394 
Q 2300 3394 2536 3241 
Q 2772 3088 2869 2813 
Q 3263 3394 3894 3394 
Q 4388 3394 4653 3120 
Q 4919 2847 4919 2278 
L 4919 0 
L 4359 0 
L 4359 2091 
Q 4359 2428 4304 2576 
Q 4250 2725 4106 2815 
Q 3963 2906 3769 2906 
Q 3419 2906 3187 2673 
Q 2956 2441 2956 1928 
L 2956 0 
L 2394 0 
L 2394 2156 
Q 2394 2531 2256 2718 
Q 2119 2906 1806 2906 
Q 1569 2906 1367 2781 
Q 1166 2656 1075 2415 
Q 984 2175 984 1722 
L 984 0 
L 422 0 
z
" transform="scale(0.015625)"/>
       <path id="ArialMT-65" d="M 2694 1069 
L 3275 997 
Q 3138 488 2766 206 
Q 2394 -75 1816 -75 
Q 1088 -75 661 373 
Q 234 822 234 1631 
Q 234 2469 665 2931 
Q 1097 3394 1784 3394 
Q 2450 3394 2872 2941 
Q 3294 2488 3294 1666 
Q 3294 1616 3291 1516 
L 816 1516 
Q 847 969 1125 678 
Q 1403 388 1819 388 
Q 2128 388 2347 550 
Q 2566 713 2694 1069 
z
M 847 1978 
L 2700 1978 
Q 2663 2397 2488 2606 
Q 2219 2931 1791 2931 
Q 1403 2931 1139 2672 
Q 875 2413 847 1978 
z
" transform="scale(0.015625)"/>
       <path id="ArialMT-20" transform="scale(0.015625)"/>
       <path id="ArialMT-28" d="M 1497 -1347 
Q 1031 -759 709 28 
Q 388 816 388 1659 
Q 388 2403 628 3084 
Q 909 3875 1497 4659 
L 1900 4659 
Q 1522 4009 1400 3731 
Q 1209 3300 1100 2831 
Q 966 2247 966 1656 
Q 966 153 1900 -1347 
L 1497 -1347 
z
" transform="scale(0.015625)"/>
       <path id="ArialMT-73" d="M 197 991 
L 753 1078 
Q 800 744 1014 566 
Q 1228 388 1613 388 
Q 2000 388 2187 545 
Q 2375 703 2375 916 
Q 2375 1106 2209 1216 
Q 2094 1291 1634 1406 
Q 1016 1563 777 1677 
Q 538 1791 414 1992 
Q 291 2194 291 2438 
Q 291 2659 392 2848 
Q 494 3038 669 3163 
Q 800 3259 1026 3326 
Q 1253 3394 1513 3394 
Q 1903 3394 2198 3281 
Q 2494 3169 2634 2976 
Q 2775 2784 2828 2463 
L 2278 2388 
Q 2241 2644 2061 2787 
Q 1881 2931 1553 2931 
Q 1166 2931 1000 2803 
Q 834 2675 834 2503 
Q 834 2394 903 2306 
Q 972 2216 1119 2156 
Q 1203 2125 1616 2013 
Q 2213 1853 2448 1751 
Q 2684 1650 2818 1456 
Q 2953 1263 2953 975 
Q 2953 694 2789 445 
Q 2625 197 2315 61 
Q 2006 -75 1616 -75 
Q 969 -75 630 194 
Q 291 463 197 991 
z
" transform="scale(0.015625)"/>
       <path id="ArialMT-29" d="M 791 -1347 
L 388 -1347 
Q 1322 153 1322 1656 
Q 1322 2244 1188 2822 
Q 1081 3291 891 3722 
Q 769 4003 388 4659 
L 791 4659 
Q 1378 3875 1659 3084 
Q 1900 2403 1900 1659 
Q 1900 816 1576 28 
Q 1253 -759 791 -1347 
z
" transform="scale(0.015625)"/>
      </defs>
      <use xlink:href="#ArialMT-54"/>
      <use xlink:href="#ArialMT-69" x="57.333984"/>
      <use xlink:href="#ArialMT-6d" x="79.550781"/>
      <use xlink:href="#ArialMT-65" x="162.851562"/>
      <use xlink:href="#ArialMT-20" x="218.466797"/>
      <use xlink:href="#ArialMT-28" x="246.25"/>
      <use xlink:href="#ArialMT-73" x="279.550781"/>
      <use xlink:href="#ArialMT-29" x="329.550781"/>
     </g>
    </g>
   </g>
   <g id="matplotlib.axis_2">
    <g id="ytick_1">
     <g id="line2d_19">
      <path d="M 41.046875 164.352756 
L 480.416954 164.352756 
" clip-path="url(#p45c5fafe01)" style="fill: none; stroke: #b0b0b0; stroke-width: 0.8; stroke-linecap: square"/>
     </g>
     <g id="line2d_20">
      <defs>
       <path id="mf0c47f437b" d="M 0 0 
L 3.5 0 
" style="stroke: #000000; stroke-width: 0.8"/>
      </defs>
      <g>
       <use xlink:href="#mf0c47f437b" x="41.046875" y="164.352756" style="stroke: #000000; stroke-width: 0.8"/>
      </g>
     </g>
     <g id="text_11">
      <!-- −40 -->
      <g transform="translate(20.584375 167.931662) scale(0.1 -0.1)">
       <defs>
        <path id="ArialMT-2212" d="M 3381 1997 
L 356 1997 
L 356 2522 
L 3381 2522 
L 3381 1997 
z
" transform="scale(0.015625)"/>
       </defs>
       <use xlink:href="#ArialMT-2212"/>
       <use xlink:href="#ArialMT-34" x="58.398438"/>
       <use xlink:href="#ArialMT-30" x="114.013672"/>
      </g>
     </g>
    </g>
    <g id="ytick_2">
     <g id="line2d_21">
      <path d="M 41.046875 129.429921 
L 480.416954 129.429921 
" clip-path="url(#p45c5fafe01)" style="fill: none; stroke: #b0b0b0; stroke-width: 0.8; stroke-linecap: square"/>
     </g>
     <g id="line2d_22">
      <g>
       <use xlink:href="#mf0c47f437b" x="41.046875" y="129.429921" style="stroke: #000000; stroke-width: 0.8"/>
      </g>
     </g>
     <g id="text_12">
      <!-- −20 -->
      <g transform="translate(20.584375 133.008828) scale(0.1 -0.1)">
       <use xlink:href="#ArialMT-2212"/>
       <use xlink:href="#ArialMT-32" x="58.398438"/>
       <use xlink:href="#ArialMT-30" x="114.013672"/>
      </g>
     </g>
    </g>
    <g id="ytick_3">
     <g id="line2d_23">
      <path d="M 41.046875 94.507087 
L 480.416954 94.507087 
" clip-path="url(#p45c5fafe01)" style="fill: none; stroke: #b0b0b0; stroke-width: 0.8; stroke-linecap: square"/>
     </g>
     <g id="line2d_24">
      <g>
       <use xlink:href="#mf0c47f437b" x="41.046875" y="94.507087" style="stroke: #000000; stroke-width: 0.8"/>
      </g>
     </g>
     <g id="text_13">
      <!-- 0 -->
      <g transform="translate(31.985938 98.085993) scale(0.1 -0.1)">
       <use xlink:href="#ArialMT-30"/>
      </g>
     </g>
    </g>
    <g id="ytick_4">
     <g id="line2d_25">
      <path d="M 41.046875 59.584252 
L 480.416954 59.584252 
" clip-path="url(#p45c5fafe01)" style="fill: none; stroke: #b0b0b0; stroke-width: 0.8; stroke-linecap: square"/>
     </g>
     <g id="line2d_26">
      <g>
       <use xlink:href="#mf0c47f437b" x="41.046875" y="59.584252" style="stroke: #000000; stroke-width: 0.8"/>
      </g>
     </g>
     <g id="text_14">
      <!-- 20 -->
      <g transform="translate(26.425 63.163158) scale(0.1 -0.1)">
       <use xlink:href="#ArialMT-32"/>
       <use xlink:href="#ArialMT-30" x="55.615234"/>
      </g>
     </g>
    </g>
    <g id="ytick_5">
     <g id="line2d_27">
      <path d="M 41.046875 24.661417 
L 480.416954 24.661417 
" clip-path="url(#p45c5fafe01)" style="fill: none; stroke: #b0b0b0; stroke-width: 0.8; stroke-linecap: square"/>
     </g>
     <g id="line2d_28">
      <g>
       <use xlink:href="#mf0c47f437b" x="41.046875" y="24.661417" style="stroke: #000000; stroke-width: 0.8"/>
      </g>
     </g>
     <g id="text_15">
      <!-- 40 -->
      <g transform="translate(26.425 28.240324) scale(0.1 -0.1)">
       <use xlink:href="#ArialMT-34"/>
       <use xlink:href="#ArialMT-30" x="55.615234"/>
      </g>
     </g>
    </g>
    <g id="text_16">
     <!-- Displacement (cm) -->
     <g transform="translate(14.479688 136.179743) rotate(-90) scale(0.1 -0.1)">
      <defs>
       <path id="ArialMT-44" d="M 494 0 
L 494 4581 
L 2072 4581 
Q 2606 4581 2888 4516 
Q 3281 4425 3559 4188 
Q 3922 3881 4101 3404 
Q 4281 2928 4281 2316 
Q 4281 1794 4159 1391 
Q 4038 988 3847 723 
Q 3656 459 3429 307 
Q 3203 156 2883 78 
Q 2563 0 2147 0 
L 494 0 
z
M 1100 541 
L 2078 541 
Q 2531 541 2789 625 
Q 3047 709 3200 863 
Q 3416 1078 3536 1442 
Q 3656 1806 3656 2325 
Q 3656 3044 3420 3430 
Q 3184 3816 2847 3947 
Q 2603 4041 2063 4041 
L 1100 4041 
L 1100 541 
z
" transform="scale(0.015625)"/>
       <path id="ArialMT-70" d="M 422 -1272 
L 422 3319 
L 934 3319 
L 934 2888 
Q 1116 3141 1344 3267 
Q 1572 3394 1897 3394 
Q 2322 3394 2647 3175 
Q 2972 2956 3137 2557 
Q 3303 2159 3303 1684 
Q 3303 1175 3120 767 
Q 2938 359 2589 142 
Q 2241 -75 1856 -75 
Q 1575 -75 1351 44 
Q 1128 163 984 344 
L 984 -1272 
L 422 -1272 
z
M 931 1641 
Q 931 1000 1190 694 
Q 1450 388 1819 388 
Q 2194 388 2461 705 
Q 2728 1022 2728 1688 
Q 2728 2322 2467 2637 
Q 2206 2953 1844 2953 
Q 1484 2953 1207 2617 
Q 931 2281 931 1641 
z
" transform="scale(0.015625)"/>
       <path id="ArialMT-6c" d="M 409 0 
L 409 4581 
L 972 4581 
L 972 0 
L 409 0 
z
" transform="scale(0.015625)"/>
       <path id="ArialMT-61" d="M 2588 409 
Q 2275 144 1986 34 
Q 1697 -75 1366 -75 
Q 819 -75 525 192 
Q 231 459 231 875 
Q 231 1119 342 1320 
Q 453 1522 633 1644 
Q 813 1766 1038 1828 
Q 1203 1872 1538 1913 
Q 2219 1994 2541 2106 
Q 2544 2222 2544 2253 
Q 2544 2597 2384 2738 
Q 2169 2928 1744 2928 
Q 1347 2928 1158 2789 
Q 969 2650 878 2297 
L 328 2372 
Q 403 2725 575 2942 
Q 747 3159 1072 3276 
Q 1397 3394 1825 3394 
Q 2250 3394 2515 3294 
Q 2781 3194 2906 3042 
Q 3031 2891 3081 2659 
Q 3109 2516 3109 2141 
L 3109 1391 
Q 3109 606 3145 398 
Q 3181 191 3288 0 
L 2700 0 
Q 2613 175 2588 409 
z
M 2541 1666 
Q 2234 1541 1622 1453 
Q 1275 1403 1131 1340 
Q 988 1278 909 1158 
Q 831 1038 831 891 
Q 831 666 1001 516 
Q 1172 366 1500 366 
Q 1825 366 2078 508 
Q 2331 650 2450 897 
Q 2541 1088 2541 1459 
L 2541 1666 
z
" transform="scale(0.015625)"/>
       <path id="ArialMT-63" d="M 2588 1216 
L 3141 1144 
Q 3050 572 2676 248 
Q 2303 -75 1759 -75 
Q 1078 -75 664 370 
Q 250 816 250 1647 
Q 250 2184 428 2587 
Q 606 2991 970 3192 
Q 1334 3394 1763 3394 
Q 2303 3394 2647 3120 
Q 2991 2847 3088 2344 
L 2541 2259 
Q 2463 2594 2264 2762 
Q 2066 2931 1784 2931 
Q 1359 2931 1093 2626 
Q 828 2322 828 1663 
Q 828 994 1084 691 
Q 1341 388 1753 388 
Q 2084 388 2306 591 
Q 2528 794 2588 1216 
z
" transform="scale(0.015625)"/>
       <path id="ArialMT-6e" d="M 422 0 
L 422 3319 
L 928 3319 
L 928 2847 
Q 1294 3394 1984 3394 
Q 2284 3394 2536 3286 
Q 2788 3178 2913 3003 
Q 3038 2828 3088 2588 
Q 3119 2431 3119 2041 
L 3119 0 
L 2556 0 
L 2556 2019 
Q 2556 2363 2490 2533 
Q 2425 2703 2258 2804 
Q 2091 2906 1866 2906 
Q 1506 2906 1245 2678 
Q 984 2450 984 1813 
L 984 0 
L 422 0 
z
" transform="scale(0.015625)"/>
       <path id="ArialMT-74" d="M 1650 503 
L 1731 6 
Q 1494 -44 1306 -44 
Q 1000 -44 831 53 
Q 663 150 594 308 
Q 525 466 525 972 
L 525 2881 
L 113 2881 
L 113 3319 
L 525 3319 
L 525 4141 
L 1084 4478 
L 1084 3319 
L 1650 3319 
L 1650 2881 
L 1084 2881 
L 1084 941 
Q 1084 700 1114 631 
Q 1144 563 1211 522 
Q 1278 481 1403 481 
Q 1497 481 1650 503 
z
" transform="scale(0.015625)"/>
      </defs>
      <use xlink:href="#ArialMT-44"/>
      <use xlink:href="#ArialMT-69" x="72.216797"/>
      <use xlink:href="#ArialMT-73" x="94.433594"/>
      <use xlink:href="#ArialMT-70" x="144.433594"/>
      <use xlink:href="#ArialMT-6c" x="200.048828"/>
      <use xlink:href="#ArialMT-61" x="222.265625"/>
      <use xlink:href="#ArialMT-63" x="277.880859"/>
      <use xlink:href="#ArialMT-65" x="327.880859"/>
      <use xlink:href="#ArialMT-6d" x="383.496094"/>
      <use xlink:href="#ArialMT-65" x="466.796875"/>
      <use xlink:href="#ArialMT-6e" x="522.412109"/>
      <use xlink:href="#ArialMT-74" x="578.027344"/>
      <use xlink:href="#ArialMT-20" x="605.810547"/>
      <use xlink:href="#ArialMT-28" x="633.59375"/>
      <use xlink:href="#ArialMT-63" x="666.894531"/>
      <use xlink:href="#ArialMT-6d" x="716.894531"/>
      <use xlink:href="#ArialMT-29" x="800.195312"/>
     </g>
    </g>
   </g>
   <g id="line2d_29">
    <path d="M 41.046875 94.507087 
L 43.243725 94.609668 
L 44.891363 94.926134 
L 47.088214 95.558649 
L 49.285064 95.806738 
L 50.932702 95.68888 
L 52.58034 95.19476 
L 53.678765 95.448787 
L 54.227977 95.83499 
L 55.326403 96.988169 
L 58.072466 98.196806 
L 58.621678 98.198854 
L 59.720103 98.967906 
L 60.818529 99.893685 
L 61.916954 99.821529 
L 62.466166 99.58381 
L 63.564592 98.512214 
L 65.212229 96.352031 
L 66.310655 95.734127 
L 66.859867 95.2379 
L 67.40908 94.319421 
L 68.507505 90.955403 
L 69.60593 86.567908 
L 70.155143 84.908847 
L 70.704355 84.138083 
L 71.253568 83.981646 
L 71.802781 84.128087 
L 72.351993 84.733902 
L 74.548844 90.929896 
L 76.745694 100.464178 
L 78.942544 105.486389 
L 80.040969 109.216253 
L 80.590182 111.346 
L 81.139395 112.863498 
L 81.688607 113.10397 
L 82.23782 112.416919 
L 82.787032 110.787185 
L 83.336245 108.150021 
L 84.43467 102.185564 
L 84.983883 100.561908 
L 85.533095 99.750239 
L 86.082308 99.641944 
L 86.631521 99.359552 
L 87.180733 98.207805 
L 87.729946 96.322833 
L 88.279158 93.974966 
L 88.828371 91.058729 
L 89.377584 87.426724 
L 89.926796 84.876328 
L 90.476009 83.648244 
L 91.025221 83.557089 
L 92.123647 85.050428 
L 92.672859 86.44089 
L 93.222072 87.433358 
L 93.771284 87.493852 
L 94.320497 87.670519 
L 94.86971 88.235959 
L 95.418922 89.210488 
L 97.615773 100.76383 
L 98.164985 104.171517 
L 98.714198 106.732764 
L 99.26341 107.636914 
L 100.361836 107.470054 
L 100.911048 107.744572 
L 101.460261 107.420187 
L 102.009473 106.237058 
L 102.558686 105.487241 
L 103.107899 105.080457 
L 104.755536 102.367576 
L 106.403174 98.373352 
L 108.050812 91.811404 
L 109.69845 86.063388 
L 110.247662 84.66168 
L 110.796875 84.731119 
L 111.346088 84.937946 
L 111.8953 85.754466 
L 112.993725 86.743256 
L 114.092151 86.587597 
L 114.641363 86.555679 
L 115.190576 86.75171 
L 115.739788 88.13311 
L 116.289001 90.794727 
L 116.838214 94.682291 
L 119.035064 113.904706 
L 119.584277 116.221514 
L 120.133489 117.749424 
L 120.682702 118.751626 
L 121.231914 118.548994 
L 121.781127 118.022645 
L 122.33034 117.156612 
L 122.879552 115.114499 
L 123.428765 112.067228 
L 124.52719 103.951104 
L 126.174828 91.846271 
L 126.72404 89.290671 
L 127.822466 86.001214 
L 130.019316 73.490724 
L 130.568529 71.340035 
L 131.117741 70.683706 
L 131.666954 71.618353 
L 132.765379 75.166138 
L 133.863804 79.978279 
L 134.962229 83.931529 
L 135.511442 86.586212 
L 137.15908 97.118231 
L 137.708292 99.873134 
L 138.257505 101.424196 
L 138.806718 102.290323 
L 139.35593 102.692871 
L 139.905143 102.860913 
L 140.454355 104.449621 
L 141.552781 107.998724 
L 142.101993 109.172963 
L 142.651206 109.339368 
L 143.200418 108.390542 
L 143.749631 106.159569 
L 145.397269 93.925693 
L 145.946481 91.169446 
L 146.495694 89.219211 
L 147.044906 89.153229 
L 148.143332 91.080029 
L 148.692544 91.343979 
L 149.241757 91.171778 
L 150.340182 91.631819 
L 150.889395 91.447725 
L 151.438607 91.650829 
L 151.98782 92.62076 
L 154.18467 100.021231 
L 154.733883 101.556624 
L 156.381521 108.865005 
L 156.930733 109.825934 
L 157.479946 109.646174 
L 158.029158 107.928291 
L 158.578371 104.316981 
L 159.676796 94.559762 
L 160.226009 91.505501 
L 161.324434 88.923941 
L 161.873647 88.749888 
L 162.422859 89.448031 
L 162.972072 89.902249 
L 163.521284 88.844483 
L 164.070497 86.960327 
L 164.61971 85.606443 
L 165.168922 85.544409 
L 166.267347 86.48097 
L 167.365773 90.135425 
L 168.464198 95.434423 
L 169.01341 97.764578 
L 169.562623 101.325469 
L 171.759473 121.434291 
L 172.308686 124.704746 
L 172.857899 126.823548 
L 173.407111 126.586739 
L 174.505536 122.339171 
L 175.054749 119.756586 
L 175.603962 117.846855 
L 176.153174 116.786435 
L 176.702387 114.618557 
L 177.251599 111.661896 
L 177.800812 108.018085 
L 178.899237 96.210254 
L 180.546875 75.991884 
L 181.096088 71.389576 
L 181.6453 67.840727 
L 182.743725 62.764064 
L 183.842151 59.375246 
L 184.940576 57.755018 
L 185.489788 57.333756 
L 186.039001 58.391996 
L 187.137426 64.705697 
L 188.235851 72.526427 
L 189.883489 85.692353 
L 190.981914 94.927649 
L 192.629552 108.686337 
L 194.27719 122.6461 
L 195.375615 128.702273 
L 195.924828 130.496331 
L 196.47404 130.609858 
L 197.023253 127.953543 
L 198.121678 119.559493 
L 200.867741 94.211677 
L 203.613804 63.726659 
L 204.163017 59.955323 
L 204.712229 57.603906 
L 205.261442 56.162179 
L 205.810655 55.827806 
L 206.359867 55.641262 
L 206.90908 56.099995 
L 208.007505 59.467648 
L 208.556718 62.407674 
L 209.10593 67.003902 
L 214.598056 125.522704 
L 215.696481 134.815148 
L 216.245694 138.126439 
L 216.794906 140.412625 
L 217.344119 141.799072 
L 217.893332 140.426553 
L 218.991757 132.629127 
L 219.540969 127.360731 
L 221.73782 102.057752 
L 222.836245 90.259346 
L 225.033095 60.624517 
L 225.582308 55.138596 
L 226.131521 51.23416 
L 226.680733 49.191187 
L 227.229946 48.006065 
L 227.779158 47.751045 
L 228.328371 49.157662 
L 228.877584 52.170527 
L 229.426796 56.306316 
L 229.976009 62.18904 
L 230.525221 70.304732 
L 232.722072 109.447503 
L 233.820497 125.129705 
L 235.468135 144.908531 
L 236.56656 154.238437 
L 237.115773 156.795076 
L 237.664985 157.773051 
L 238.214198 156.811829 
L 238.76341 154.099729 
L 239.312623 149.793231 
L 239.861836 143.944598 
L 240.411048 136.356624 
L 242.058686 106.616564 
L 243.157111 86.778653 
L 244.255536 70.940673 
L 245.903174 51.577238 
L 247.001599 41.373079 
L 247.550812 37.991401 
L 248.100025 35.999735 
L 248.649237 35.100566 
L 249.19845 36.944865 
L 249.747662 40.842853 
L 250.296875 45.764554 
L 251.3953 60.509292 
L 254.141363 102.704822 
L 255.789001 122.085948 
L 256.887426 132.569072 
L 257.436639 136.416726 
L 257.985851 138.801425 
L 258.535064 139.720453 
L 259.084277 138.818794 
L 259.633489 136.194705 
L 260.182702 132.349139 
L 261.281127 121.091875 
L 265.125615 69.948412 
L 266.22404 59.976875 
L 267.322466 53.264713 
L 268.420891 47.846784 
L 268.970103 46.728634 
L 269.519316 47.230951 
L 270.068529 49.396939 
L 270.617741 54.128258 
L 271.716166 67.396638 
L 272.814592 81.721053 
L 274.462229 100.053095 
L 276.65908 123.818607 
L 277.208292 128.53828 
L 277.757505 130.981425 
L 278.306718 131.697753 
L 278.85593 130.787537 
L 279.405143 129.525303 
L 281.052781 122.625811 
L 281.601993 120.199165 
L 282.151206 116.589909 
L 283.249631 106.073852 
L 285.446481 80.613471 
L 286.544906 69.99757 
L 287.094119 66.029934 
L 287.643332 63.146533 
L 288.192544 61.435241 
L 288.741757 61.249696 
L 289.290969 63.690667 
L 290.938607 76.710977 
L 292.037032 85.013586 
L 293.135458 90.648397 
L 293.68467 94.832165 
L 295.881521 116.353147 
L 296.430733 118.927309 
L 296.979946 119.935064 
L 297.529158 119.374379 
L 298.627584 115.339158 
L 301.922859 101.916979 
L 302.472072 100.73006 
L 303.021284 100.158871 
L 304.668922 100.403952 
L 305.218135 98.970709 
L 306.31656 92.786916 
L 306.865773 90.889474 
L 307.414985 89.757186 
L 307.964198 88.989961 
L 308.51341 88.978059 
L 309.611836 89.536984 
L 310.161048 88.057857 
L 311.259473 84.43388 
L 311.808686 83.236805 
L 312.357899 82.446609 
L 312.907111 82.36341 
L 313.456324 82.653954 
L 314.005536 82.741537 
L 314.554749 82.342603 
L 315.103962 81.798895 
L 315.653174 82.055427 
L 316.202387 82.892653 
L 316.751599 84.478796 
L 321.1453 107.645853 
L 322.243725 114.520617 
L 322.792938 115.567607 
L 323.342151 115.388825 
L 323.891363 114.986288 
L 324.440576 114.184659 
L 326.088214 109.862268 
L 326.637426 107.676353 
L 327.186639 103.478756 
L 329.383489 80.683168 
L 329.932702 76.63089 
L 330.481914 73.799485 
L 331.031127 72.217019 
L 331.58034 71.057275 
L 332.678765 67.482995 
L 333.227977 66.525832 
L 333.77719 66.435352 
L 334.326403 67.248143 
L 335.424828 71.278469 
L 337.621678 81.6686 
L 338.170891 85.25079 
L 339.269316 94.710065 
L 340.916954 108.751585 
L 341.466166 112.256221 
L 343.113804 120.560386 
L 343.663017 122.565326 
L 344.212229 122.859612 
L 344.761442 121.458051 
L 345.310655 118.628878 
L 345.859867 114.600279 
L 347.507505 99.086814 
L 348.60593 91.653403 
L 350.253568 77.955406 
L 351.351993 68.237055 
L 351.901206 64.505703 
L 352.450418 63.087076 
L 352.999631 63.483456 
L 353.548844 64.986711 
L 354.098056 67.334709 
L 354.647269 70.577205 
L 355.196481 74.649439 
L 355.745694 79.699847 
L 356.844119 93.043766 
L 358.491757 115.20304 
L 359.040969 120.503482 
L 359.590182 124.274978 
L 360.139395 126.922167 
L 361.23782 130.237415 
L 361.787032 131.473793 
L 362.336245 132.393857 
L 362.885458 132.233614 
L 363.43467 129.991131 
L 363.983883 125.768691 
L 364.533095 119.978625 
L 367.828371 78.976819 
L 368.926796 68.563366 
L 370.025221 60.842825 
L 370.574434 58.867079 
L 371.123647 57.879988 
L 371.672859 57.186148 
L 372.222072 56.760886 
L 372.771284 56.717144 
L 373.320497 57.093613 
L 373.86971 58.233844 
L 374.418922 60.193794 
L 374.968135 63.73777 
L 376.06656 75.534996 
L 378.812623 106.750267 
L 380.460261 123.114855 
L 381.009473 127.195288 
L 381.558686 130.223067 
L 382.107899 132.003539 
L 382.657111 132.788072 
L 383.206324 132.561302 
L 383.755536 131.697676 
L 384.304749 130.18454 
L 384.853962 128.054747 
L 385.403174 124.786687 
L 385.952387 120.34109 
L 387.050812 108.832572 
L 389.247662 83.398901 
L 390.346088 73.960984 
L 390.8953 69.984866 
L 391.444513 67.150008 
L 391.993725 65.070207 
L 392.542938 63.808759 
L 393.092151 63.387211 
L 393.641363 63.756147 
L 394.190576 64.849757 
L 394.739788 66.522272 
L 395.289001 68.769003 
L 395.838214 71.969494 
L 396.936639 81.19695 
L 400.231914 116.884367 
L 400.781127 121.049187 
L 401.33034 124.263741 
L 401.879552 126.712003 
L 402.428765 128.522736 
L 402.977977 129.203834 
L 403.52719 128.406438 
L 404.076403 126.443561 
L 404.625615 123.562151 
L 405.72404 115.55202 
L 407.920891 94.253609 
L 410.666954 66.340533 
L 411.216166 62.442098 
L 411.765379 59.677762 
L 412.314592 58.613541 
L 412.863804 59.176282 
L 413.413017 60.841696 
L 413.962229 63.336558 
L 415.060655 70.798439 
L 419.454355 105.497872 
L 421.101993 116.439011 
L 421.651206 118.92528 
L 422.200418 120.238251 
L 422.749631 120.665013 
L 423.298844 119.9688 
L 423.848056 117.991948 
L 424.397269 115.120605 
L 426.594119 100.740263 
L 429.889395 75.821597 
L 430.438607 72.799937 
L 430.98782 70.410805 
L 431.537032 68.773309 
L 432.086245 67.685461 
L 432.635458 67.090106 
L 433.18467 67.251478 
L 433.733883 68.370433 
L 434.283095 70.765911 
L 434.832308 74.21455 
L 435.930733 83.375655 
L 437.029158 93.581089 
L 438.127584 101.653978 
L 439.775221 111.479703 
L 440.873647 116.166759 
L 441.422859 117.888508 
L 441.972072 118.877555 
L 442.521284 118.916695 
L 443.070497 118.024619 
L 443.61971 116.598596 
L 444.168922 114.667161 
L 444.718135 112.036921 
L 445.81656 104.450299 
L 446.914985 94.654873 
L 448.01341 84.411973 
L 449.111836 76.862535 
L 449.661048 74.156986 
L 450.210261 72.196235 
L 450.759473 70.667084 
L 451.308686 69.48426 
L 451.857899 68.797585 
L 452.407111 68.811465 
L 452.956324 69.669236 
L 453.505536 71.189758 
L 454.054749 73.571174 
L 455.153174 80.672685 
L 456.800812 92.419461 
L 458.997662 109.170237 
L 459.546875 112.69802 
L 460.096088 115.295861 
L 460.6453 117.010624 
L 461.194513 117.950913 
L 461.743725 118.165847 
L 462.292938 117.710997 
L 462.842151 116.832656 
L 463.391363 115.621842 
L 463.940576 113.922221 
L 464.489788 111.547039 
L 465.039001 108.449813 
L 466.137426 100.523226 
L 467.785064 88.156874 
L 468.883489 81.192111 
L 469.981914 75.631838 
L 470.531127 73.475895 
L 471.08034 72.060171 
L 471.629552 71.434188 
L 472.178765 71.739295 
L 472.727977 72.934299 
L 473.826403 76.8291 
L 474.924828 81.558968 
L 476.023253 86.95201 
L 477.121678 93.873367 
L 478.769316 104.690747 
L 479.867741 109.795552 
L 479.867741 109.795552 
" clip-path="url(#p45c5fafe01)" style="fill: none; stroke: #000000; stroke-width: 1.2; stroke-linecap: square"/>
   </g>
   <g id="line2d_30">
    <path d="M 41.046875 94.364359 
L 42.694513 94.379245 
L 44.342151 94.593533 
L 45.440576 94.883252 
L 46.539001 95.221078 
L 48.735851 95.455658 
L 49.834277 95.43788 
L 50.932702 95.404654 
L 52.031127 94.908201 
L 53.129552 94.849503 
L 53.678765 95.034315 
L 54.227977 95.410385 
L 55.326403 96.633866 
L 56.424828 97.067054 
L 56.97404 97.578259 
L 58.072466 97.899124 
L 58.621678 97.822862 
L 59.170891 98.164568 
L 59.720103 98.760057 
L 60.269316 99.128162 
L 60.818529 99.698341 
L 61.916954 99.596938 
L 62.466166 99.510119 
L 63.564592 98.257033 
L 64.113804 97.479414 
L 64.663017 96.352929 
L 65.212229 95.988846 
L 65.761442 95.771698 
L 66.859867 94.89535 
L 67.40908 93.927442 
L 68.507505 90.522568 
L 70.155143 84.141623 
L 70.704355 83.389531 
L 71.253568 83.298963 
L 71.802781 83.381726 
L 72.351993 84.122193 
L 73.450418 87.154371 
L 73.999631 88.211816 
L 75.098056 92.595596 
L 76.196481 97.894867 
L 76.745694 99.700562 
L 77.844119 102.301306 
L 78.393332 103.30076 
L 78.942544 104.610699 
L 80.040969 108.259565 
L 80.590182 110.514241 
L 81.139395 112.046499 
L 81.688607 112.511564 
L 82.23782 111.817562 
L 82.787032 110.424036 
L 84.43467 101.336652 
L 84.983883 99.871228 
L 85.533095 98.9843 
L 86.082308 98.987866 
L 86.631521 98.797138 
L 87.180733 97.805427 
L 87.729946 95.919087 
L 88.279158 93.445062 
L 88.828371 90.359833 
L 89.377584 86.449578 
L 89.926796 83.777854 
L 90.476009 82.577484 
L 91.025221 82.57878 
L 92.123647 84.119633 
L 93.222072 86.866493 
L 94.320497 86.779434 
L 94.86971 87.593436 
L 95.418922 87.928162 
L 97.06656 96.853569 
L 98.714198 106.167844 
L 99.26341 106.741758 
L 99.812623 106.569075 
L 100.361836 106.780026 
L 100.911048 107.201048 
L 101.460261 106.880099 
L 102.009473 105.591915 
L 102.558686 104.724181 
L 103.107899 104.901709 
L 103.657111 103.540122 
L 104.755536 102.356916 
L 105.853962 98.925054 
L 106.403174 97.731616 
L 109.149237 87.051474 
L 109.69845 85.150842 
L 110.247662 84.062177 
L 110.796875 83.721869 
L 112.444513 85.340516 
L 112.993725 86.092979 
L 113.542938 85.184147 
L 114.641363 85.219082 
L 115.190576 85.407782 
L 115.739788 86.690069 
L 116.289001 89.267939 
L 117.387426 98.016705 
L 117.936639 104.276734 
L 119.035064 113.105362 
L 120.133489 116.150814 
L 120.682702 116.75326 
L 121.781127 115.540763 
L 122.33034 115.228478 
L 122.879552 113.367957 
L 123.977977 106.766957 
L 125.076403 98.263421 
L 126.174828 89.756526 
L 127.273253 85.815198 
L 127.822466 84.313445 
L 130.019316 71.630809 
L 130.568529 69.459872 
L 131.117741 68.652577 
L 131.666954 69.616764 
L 132.216166 71.902994 
L 132.765379 73.430527 
L 133.863804 78.431531 
L 134.413017 79.682324 
L 135.511442 84.218637 
L 136.609867 91.768374 
L 137.708292 97.739781 
L 138.257505 99.496734 
L 138.806718 100.136215 
L 139.35593 100.971654 
L 139.905143 100.649582 
L 140.454355 102.225793 
L 141.003568 104.453933 
L 142.101993 107.308449 
L 142.651206 107.249347 
L 143.200418 106.429549 
L 143.749631 104.438544 
L 144.848056 95.296917 
L 145.946481 88.915794 
L 146.495694 87.163586 
L 147.044906 87.409539 
L 148.143332 89.975505 
L 149.241757 89.137725 
L 150.340182 89.744208 
L 150.889395 89.715198 
L 151.438607 89.34395 
L 151.98782 90.669965 
L 153.086245 94.706677 
L 153.635458 96.182786 
L 155.283095 102.120432 
L 155.832308 105.614005 
L 156.381521 106.991433 
L 156.930733 107.916765 
L 157.479946 107.904943 
L 158.029158 105.946528 
L 158.578371 102.176652 
L 159.676796 92.10154 
L 160.226009 89.347638 
L 160.775221 87.779292 
L 161.324434 87.048325 
L 161.873647 87.2971 
L 162.972072 88.298442 
L 163.521284 86.726662 
L 164.070497 84.659346 
L 164.61971 83.375012 
L 165.168922 82.887028 
L 165.718135 83.656511 
L 166.267347 83.689299 
L 166.81656 85.583007 
L 167.365773 88.000036 
L 167.914985 91.259968 
L 168.464198 92.152299 
L 170.111836 104.417154 
L 171.759473 119.885931 
L 172.857899 125.533868 
L 173.407111 124.638509 
L 174.505536 120.794005 
L 175.603962 116.305249 
L 176.153174 115.203108 
L 176.702387 113.382283 
L 177.251599 110.587515 
L 177.800812 106.494059 
L 178.899237 94.555822 
L 180.546875 74.502014 
L 181.6453 65.997628 
L 182.743725 60.98157 
L 183.842151 57.842193 
L 184.391363 56.814947 
L 184.940576 56.063153 
L 185.489788 55.613968 
L 186.039001 57.271299 
L 187.137426 63.414668 
L 188.235851 71.684938 
L 188.785064 75.22858 
L 189.334277 80.709126 
L 189.883489 84.054243 
L 193.178765 112.586172 
L 193.727977 118.097921 
L 194.27719 120.978715 
L 195.375615 128.793819 
L 195.924828 130.562441 
L 196.47404 130.378611 
L 197.572466 123.691225 
L 199.769316 101.97246 
L 200.867741 93.001296 
L 201.416954 87.21759 
L 201.966166 79.390377 
L 203.064592 67.656216 
L 203.613804 62.618758 
L 204.163017 59.004405 
L 204.712229 56.646201 
L 205.810655 54.377753 
L 206.359867 54.158969 
L 206.90908 54.742519 
L 207.458292 56.769256 
L 208.007505 58.003463 
L 208.556718 60.828267 
L 209.655143 71.247713 
L 211.851993 94.844203 
L 213.499631 112.137878 
L 214.048844 117.107692 
L 215.147269 128.708768 
L 215.696481 133.591592 
L 216.245694 137.030431 
L 217.344119 140.6141 
L 217.893332 140.014773 
L 218.991757 131.793092 
L 219.540969 126.132958 
L 221.188607 106.176712 
L 222.287032 95.261436 
L 223.385458 81.384626 
L 224.483883 65.167574 
L 225.582308 53.609669 
L 226.131521 49.088358 
L 226.680733 46.880485 
L 227.229946 45.912965 
L 227.779158 45.835374 
L 228.328371 46.911296 
L 228.877584 50.445897 
L 229.426796 54.831487 
L 229.976009 60.402799 
L 231.074434 78.101207 
L 232.172859 97.705833 
L 233.271284 115.409598 
L 234.36971 130.123601 
L 235.468135 142.33852 
L 236.017347 147.307648 
L 236.56656 151.250372 
L 237.115773 153.867806 
L 237.664985 154.993568 
L 238.214198 154.386085 
L 238.76341 151.618305 
L 239.312623 147.070829 
L 239.861836 141.08491 
L 240.411048 133.467308 
L 242.058686 103.845408 
L 243.706324 75.777689 
L 245.353962 55.132431 
L 245.903174 48.778595 
L 247.001599 38.706893 
L 248.100025 33.974937 
L 248.649237 33.205824 
L 249.19845 34.839722 
L 249.747662 38.465438 
L 250.296875 44.06404 
L 251.3953 59.863698 
L 253.042938 85.565578 
L 254.141363 101.936744 
L 256.887426 132.339024 
L 257.985851 138.654933 
L 258.535064 139.225131 
L 259.084277 137.937979 
L 259.633489 135.83245 
L 260.182702 131.795493 
L 260.731914 126.725738 
L 261.83034 113.381362 
L 265.125615 69.614854 
L 266.773253 55.575248 
L 267.322466 53.257785 
L 267.871678 49.757848 
L 268.420891 47.514966 
L 268.970103 46.157224 
L 269.519316 46.498257 
L 270.068529 49.090163 
L 270.617741 54.026019 
L 271.716166 67.946904 
L 272.814592 81.847691 
L 275.560655 113.170092 
L 276.109867 118.030912 
L 276.65908 124.447135 
L 277.208292 129.217922 
L 277.757505 131.663402 
L 278.306718 132.347044 
L 278.85593 131.492437 
L 279.405143 130.059629 
L 281.601993 120.717127 
L 282.151206 116.911261 
L 282.700418 112.124042 
L 283.798844 99.650847 
L 285.446481 81.120626 
L 286.544906 70.302774 
L 287.643332 63.042771 
L 288.192544 61.656363 
L 288.741757 61.162913 
L 289.290969 63.823327 
L 290.938607 77.193082 
L 291.48782 82.045806 
L 292.037032 85.792219 
L 292.586245 87.643837 
L 293.135458 90.598269 
L 293.68467 94.973052 
L 295.881521 116.250396 
L 296.430733 118.535611 
L 296.979946 119.611598 
L 297.529158 118.792106 
L 298.078371 117.206809 
L 299.176796 112.910115 
L 299.726009 111.262193 
L 301.373647 103.665999 
L 301.922859 101.762114 
L 302.472072 100.727541 
L 303.021284 99.97227 
L 303.570497 100.366788 
L 304.11971 100.286252 
L 304.668922 100.395111 
L 305.218135 99.077128 
L 306.31656 92.630909 
L 306.865773 90.802111 
L 307.964198 88.647707 
L 309.062623 89.416019 
L 309.611836 89.771975 
L 311.259473 83.934046 
L 312.357899 81.989627 
L 312.907111 81.682801 
L 313.456324 82.259367 
L 314.554749 81.977668 
L 315.103962 81.323113 
L 316.202387 82.648532 
L 316.751599 84.296922 
L 317.850025 90.0737 
L 318.399237 92.514027 
L 321.1453 107.464692 
L 322.243725 114.666591 
L 322.792938 115.456673 
L 323.342151 115.398662 
L 323.891363 115.110419 
L 324.440576 114.262337 
L 325.539001 111.170189 
L 326.088214 110.004839 
L 326.637426 107.605755 
L 327.186639 103.300488 
L 329.383489 80.439608 
L 329.932702 76.358554 
L 330.481914 73.647306 
L 331.031127 72.017232 
L 331.58034 71.047324 
L 332.678765 67.323427 
L 333.77719 66.270726 
L 334.326403 66.867994 
L 335.424828 70.868762 
L 337.621678 81.266069 
L 338.720103 89.08948 
L 340.916954 108.625585 
L 342.015379 114.601074 
L 343.113804 120.189608 
L 343.663017 122.144027 
L 344.212229 122.217392 
L 344.761442 120.908964 
L 345.310655 118.32904 
L 345.859867 113.967034 
L 347.507505 98.065063 
L 349.155143 86.123806 
L 350.253568 76.606569 
L 351.351993 66.675302 
L 351.901206 62.964737 
L 352.450418 61.554047 
L 352.999631 62.356311 
L 353.548844 63.469108 
L 354.098056 66.146758 
L 355.196481 73.512594 
L 355.745694 78.290346 
L 356.844119 91.291502 
L 358.491757 113.746623 
L 359.040969 119.04817 
L 359.590182 123.053054 
L 360.139395 125.626176 
L 361.23782 129.021026 
L 361.787032 130.246164 
L 362.336245 131.120124 
L 362.885458 131.128933 
L 363.43467 128.918893 
L 363.983883 124.754517 
L 364.533095 119.129871 
L 367.279158 83.652279 
L 368.926796 67.313596 
L 370.025221 59.430213 
L 370.574434 57.421062 
L 371.672859 55.616633 
L 372.222072 55.155202 
L 372.771284 55.212393 
L 373.320497 55.471013 
L 373.86971 56.493367 
L 374.418922 58.413031 
L 374.968135 61.79674 
L 376.615773 79.991456 
L 378.26341 99.132684 
L 379.911048 116.07118 
L 381.009473 125.350114 
L 381.558686 128.463513 
L 382.107899 130.368107 
L 382.657111 131.222407 
L 383.206324 130.938525 
L 383.755536 129.899825 
L 384.304749 128.57636 
L 384.853962 126.199295 
L 385.403174 123.00683 
L 386.501599 113.127931 
L 387.600025 100.658307 
L 388.69845 87.271212 
L 389.796875 76.69579 
L 390.8953 67.925234 
L 391.993725 63.152251 
L 392.542938 61.621303 
L 393.092151 61.325468 
L 393.641363 61.588977 
L 394.190576 62.667816 
L 394.739788 64.355321 
L 395.289001 66.449001 
L 395.838214 69.76541 
L 396.936639 78.999984 
L 400.231914 114.719593 
L 401.33034 122.272013 
L 402.428765 126.482961 
L 402.977977 127.184198 
L 403.52719 126.374743 
L 404.076403 124.503161 
L 404.625615 121.776851 
L 405.72404 113.542106 
L 407.920891 92.389409 
L 410.117741 69.224287 
L 411.216166 60.477233 
L 411.765379 57.617558 
L 412.314592 56.577359 
L 412.863804 57.164187 
L 413.413017 58.717769 
L 413.962229 61.285472 
L 415.060655 68.825811 
L 420.552781 111.096437 
L 421.101993 114.453313 
L 421.651206 117.044267 
L 422.200418 118.339588 
L 422.749631 118.811543 
L 423.298844 118.1935 
L 423.848056 115.85776 
L 424.946481 109.652898 
L 427.143332 94.70315 
L 429.889395 73.649148 
L 430.98782 68.199602 
L 431.537032 66.761159 
L 432.086245 65.765236 
L 432.635458 65.062067 
L 433.18467 65.329952 
L 433.733883 66.358388 
L 434.283095 68.697883 
L 435.381521 76.248033 
L 437.578371 96.021893 
L 439.226009 106.380066 
L 440.324434 111.981678 
L 441.422859 116.089233 
L 441.972072 117.088415 
L 442.521284 117.094974 
L 443.070497 116.190014 
L 443.61971 114.787916 
L 444.168922 112.848018 
L 444.718135 110.086058 
L 445.81656 102.491066 
L 446.914985 92.691255 
L 448.01341 82.405884 
L 448.562623 78.18519 
L 449.661048 72.121504 
L 450.210261 70.214667 
L 451.308686 67.511179 
L 451.857899 66.837958 
L 452.407111 66.76017 
L 452.956324 67.529617 
L 453.505536 69.018174 
L 454.054749 71.340907 
L 455.153174 78.57409 
L 456.800812 90.507728 
L 459.546875 110.873189 
L 460.096088 113.44885 
L 460.6453 115.282719 
L 461.194513 116.210183 
L 461.743725 116.36658 
L 462.292938 115.832281 
L 462.842151 114.984451 
L 463.391363 113.888483 
L 463.940576 112.236078 
L 464.489788 109.889965 
L 465.039001 106.871849 
L 466.137426 98.912297 
L 468.334277 82.717941 
L 469.432702 76.486801 
L 470.531127 71.503053 
L 471.08034 69.95194 
L 471.629552 69.144832 
L 472.178765 69.282909 
L 472.727977 70.596239 
L 473.826403 74.473843 
L 474.924828 79.045442 
L 476.023253 84.47451 
L 477.121678 91.031862 
L 478.220103 97.970974 
L 478.769316 102.742322 
L 479.318529 105.657016 
L 479.867741 106.200689 
L 479.867741 106.200689 
" clip-path="url(#p45c5fafe01)" style="fill: none; stroke-dasharray: 4.44,1.92; stroke-dashoffset: 0; stroke: #ff0000; stroke-width: 1.2"/>
   </g>
   <g id="line2d_31">
    <path d="M 41.046875 94.507087 
L 42.694513 94.506367 
L 44.342151 94.745733 
L 45.440576 95.020646 
L 46.539001 95.418934 
L 47.637426 95.59686 
L 50.383489 95.801321 
L 53.129552 95.06104 
L 53.678765 95.192722 
L 54.227977 95.651923 
L 54.77719 96.350749 
L 55.326403 96.76734 
L 56.424828 97.24381 
L 56.97404 97.509848 
L 57.523253 97.941426 
L 58.072466 97.865832 
L 58.621678 98.370664 
L 59.170891 98.153396 
L 59.720103 98.451498 
L 60.818529 99.708015 
L 61.367741 99.863504 
L 63.015379 98.90866 
L 63.564592 98.371112 
L 64.113804 97.577437 
L 65.212229 95.740239 
L 65.761442 95.920792 
L 66.310655 95.506272 
L 66.859867 95.420198 
L 67.40908 94.244091 
L 68.507505 90.983792 
L 69.60593 86.437295 
L 70.704355 83.856642 
L 71.253568 83.446287 
L 71.802781 83.753682 
L 72.351993 84.295427 
L 72.901206 85.391694 
L 74.548844 90.363524 
L 75.098056 93.360311 
L 75.647269 95.159024 
L 76.196481 98.374599 
L 76.745694 100.451553 
L 77.294906 101.558872 
L 77.844119 101.875381 
L 80.040969 108.487557 
L 80.590182 110.896209 
L 81.139395 112.018077 
L 81.688607 112.488275 
L 82.23782 112.37874 
L 82.787032 110.735128 
L 83.885458 104.715114 
L 84.43467 102.250006 
L 84.983883 99.091139 
L 85.533095 98.644787 
L 86.082308 99.037793 
L 86.631521 98.95142 
L 87.729946 95.661923 
L 88.279158 93.726478 
L 89.377584 86.827867 
L 89.926796 84.373214 
L 90.476009 82.5626 
L 91.025221 82.466372 
L 91.574434 82.938714 
L 92.123647 84.438494 
L 92.672859 85.274761 
L 93.222072 85.718704 
L 93.771284 86.547381 
L 94.320497 87.600789 
L 94.86971 87.060304 
L 95.418922 87.942823 
L 95.968135 90.562415 
L 96.517347 94.520906 
L 97.06656 95.949374 
L 98.164985 103.071736 
L 98.714198 104.261445 
L 99.26341 107.037423 
L 99.812623 106.962156 
L 100.361836 106.051472 
L 100.911048 106.299628 
L 101.460261 106.135253 
L 102.009473 105.353293 
L 102.558686 105.3728 
L 103.107899 102.474499 
L 103.657111 102.572116 
L 104.206324 102.321065 
L 104.755536 101.871466 
L 105.304749 99.015649 
L 105.853962 98.737728 
L 106.952387 94.28744 
L 107.501599 93.229952 
L 108.050812 90.828405 
L 108.600025 87.819854 
L 109.149237 87.172845 
L 110.247662 83.029436 
L 110.796875 82.60581 
L 111.8953 84.463445 
L 112.444513 84.906491 
L 112.993725 85.688512 
L 113.542938 84.588296 
L 114.092151 85.568124 
L 114.641363 84.501826 
L 115.190576 85.233516 
L 115.739788 86.599537 
L 116.289001 89.326995 
L 116.838214 91.153913 
L 117.387426 98.398427 
L 117.936639 102.182757 
L 118.485851 108.131482 
L 119.584277 114.55468 
L 120.133489 115.944453 
L 120.682702 116.200908 
L 121.231914 117.008938 
L 121.781127 116.412938 
L 122.33034 115.576184 
L 123.428765 110.516274 
L 124.52719 102.565007 
L 125.076403 96.956751 
L 125.625615 94.569812 
L 126.174828 89.294382 
L 126.72404 87.250331 
L 127.273253 86.171088 
L 127.822466 82.791096 
L 128.371678 81.244892 
L 130.019316 71.574126 
L 130.568529 69.670346 
L 131.117741 69.386561 
L 131.666954 70.432388 
L 132.216166 70.238595 
L 133.314592 76.456938 
L 134.962229 81.713554 
L 135.511442 86.102437 
L 136.060655 87.857879 
L 137.15908 96.130263 
L 138.257505 99.924834 
L 138.806718 101.612467 
L 139.35593 101.454159 
L 139.905143 103.030759 
L 140.454355 103.184566 
L 141.003568 105.622341 
L 141.552781 106.867457 
L 142.101993 107.803344 
L 142.651206 109.1724 
L 144.298844 102.384994 
L 144.848056 96.675528 
L 145.946481 89.125827 
L 146.495694 87.589414 
L 147.044906 88.436873 
L 147.594119 88.29529 
L 148.692544 90.409998 
L 149.241757 89.259597 
L 150.340182 90.339602 
L 150.889395 89.745395 
L 151.98782 91.761251 
L 152.537032 91.984901 
L 153.086245 93.823013 
L 153.635458 97.474352 
L 154.18467 97.556204 
L 154.733883 99.554695 
L 155.283095 101.995202 
L 155.832308 105.453664 
L 156.381521 107.875404 
L 156.930733 108.700864 
L 157.479946 108.12368 
L 158.029158 106.886957 
L 159.127584 99.148935 
L 159.676796 93.052263 
L 160.775221 88.547257 
L 161.324434 87.217774 
L 161.873647 87.901565 
L 162.422859 87.917386 
L 163.521284 87.447553 
L 164.070497 86.152735 
L 164.61971 84.46709 
L 165.168922 84.723683 
L 165.718135 83.654542 
L 166.267347 85.95021 
L 166.81656 86.397367 
L 167.365773 88.687091 
L 167.914985 89.753285 
L 168.464198 94.089439 
L 169.562623 99.067335 
L 170.111836 103.279298 
L 171.210261 114.716527 
L 171.759473 119.126617 
L 172.308686 122.447965 
L 172.857899 123.971666 
L 173.407111 125.051761 
L 173.956324 122.79593 
L 174.505536 121.252264 
L 175.054749 116.557028 
L 175.603962 115.766053 
L 176.153174 115.194942 
L 176.702387 112.669096 
L 177.800812 105.907863 
L 178.899237 93.976669 
L 179.44845 88.410915 
L 180.546875 74.027896 
L 181.096088 70.279075 
L 181.6453 65.656495 
L 182.194513 63.413595 
L 182.743725 61.739862 
L 183.292938 58.069866 
L 183.842151 58.627176 
L 184.391363 58.172226 
L 184.940576 56.334006 
L 185.489788 57.416465 
L 186.039001 57.105583 
L 186.588214 59.848121 
L 187.137426 65.093547 
L 188.235851 72.466062 
L 188.785064 77.726842 
L 189.334277 80.969995 
L 189.883489 85.889619 
L 190.432702 89.625228 
L 190.981914 96.979414 
L 191.531127 98.93032 
L 192.629552 109.570067 
L 193.727977 116.854619 
L 194.27719 122.080744 
L 194.826403 125.528113 
L 195.375615 127.854115 
L 195.924828 131.20699 
L 196.47404 129.676455 
L 197.023253 127.524538 
L 197.572466 124.028545 
L 200.318529 100.21294 
L 201.416954 87.637056 
L 201.966166 82.791175 
L 202.515379 74.37509 
L 203.064592 68.260555 
L 203.613804 63.566809 
L 204.163017 61.280693 
L 204.712229 57.763077 
L 205.261442 55.762669 
L 205.810655 55.771747 
L 206.359867 55.651063 
L 207.458292 58.785994 
L 208.556718 62.92561 
L 214.048844 120.024485 
L 214.598056 123.711278 
L 215.147269 130.97948 
L 215.696481 135.179265 
L 216.245694 136.833349 
L 216.794906 140.695328 
L 217.344119 141.772838 
L 217.893332 140.313209 
L 218.991757 132.915287 
L 219.540969 127.164721 
L 220.090182 119.954394 
L 221.188607 109.564099 
L 221.73782 100.211696 
L 222.287032 97.213456 
L 222.836245 91.470403 
L 223.93467 75.136095 
L 225.033095 61.088936 
L 225.582308 55.67052 
L 226.131521 52.58979 
L 227.229946 47.77284 
L 227.779158 47.014908 
L 228.328371 50.988968 
L 228.877584 53.075387 
L 229.426796 56.354222 
L 230.525221 72.375935 
L 231.074434 80.272365 
L 232.172859 101.442976 
L 233.271284 116.522763 
L 234.36971 132.647622 
L 235.468135 144.740931 
L 236.017347 149.824764 
L 237.115773 156.540979 
L 237.664985 157.873626 
L 238.214198 156.910238 
L 239.312623 149.929778 
L 239.861836 143.450958 
L 241.509473 116.322555 
L 242.607899 96.521363 
L 243.706324 79.419099 
L 244.804749 64.670517 
L 245.353962 57.498696 
L 247.001599 41.823253 
L 247.550812 39.38436 
L 248.649237 35.64132 
L 249.19845 38.331472 
L 249.747662 41.686799 
L 250.296875 47.191844 
L 252.493725 79.101501 
L 253.042938 89.342918 
L 254.690576 110.882354 
L 255.789001 124.297226 
L 257.436639 140.104044 
L 257.985851 140.865646 
L 258.535064 142.684513 
L 259.084277 142.33114 
L 259.633489 139.23792 
L 260.731914 130.829564 
L 264.02719 85.46881 
L 264.576403 80.183051 
L 265.674828 67.029714 
L 266.773253 60.184258 
L 267.322466 55.853192 
L 268.420891 51.328183 
L 268.970103 50.591886 
L 269.519316 48.759474 
L 270.068529 52.629726 
L 271.166954 63.716375 
L 272.265379 78.53792 
L 272.814592 84.449467 
L 273.363804 91.754334 
L 274.462229 103.612142 
L 276.109867 122.008126 
L 277.208292 132.714455 
L 278.306718 136.256336 
L 278.85593 135.884582 
L 279.405143 132.86902 
L 279.954355 131.32112 
L 280.503568 129.28302 
L 281.052781 125.534051 
L 281.601993 124.139673 
L 283.249631 109.928679 
L 283.798844 102.264775 
L 285.446481 84.352928 
L 285.995694 79.743895 
L 286.544906 73.811898 
L 287.094119 69.277584 
L 288.192544 64.107029 
L 288.741757 64.489214 
L 289.290969 66.527131 
L 292.586245 91.387924 
L 293.135458 94.218104 
L 293.68467 97.950758 
L 294.783095 110.197715 
L 295.881521 120.402209 
L 296.430733 122.026895 
L 296.979946 122.52522 
L 297.529158 122.653118 
L 298.078371 122.459685 
L 299.176796 116.124606 
L 301.373647 106.580597 
L 301.922859 103.598087 
L 302.472072 103.034436 
L 303.021284 103.181897 
L 303.570497 101.823018 
L 304.11971 102.480253 
L 304.668922 102.306476 
L 305.218135 100.474218 
L 305.767347 97.427294 
L 306.31656 95.543118 
L 306.865773 93.06861 
L 307.414985 91.126773 
L 309.062623 91.122549 
L 309.611836 90.450023 
L 310.161048 90.669788 
L 310.710261 88.323456 
L 311.259473 87.223967 
L 311.808686 85.177755 
L 312.357899 84.22326 
L 312.907111 85.136789 
L 313.456324 85.065644 
L 314.005536 84.510996 
L 314.554749 83.678132 
L 315.103962 84.251297 
L 315.653174 84.271577 
L 316.751599 86.316622 
L 317.300812 90.212116 
L 317.850025 91.963556 
L 318.94845 96.68653 
L 319.497662 100.27521 
L 320.046875 102.925782 
L 321.1453 109.44103 
L 322.243725 116.348016 
L 322.792938 117.037 
L 323.342151 117.336889 
L 323.891363 117.452004 
L 324.440576 115.909977 
L 325.539001 114.583184 
L 326.637426 109.822509 
L 327.735851 99.688954 
L 328.834277 88.154343 
L 329.383489 82.45449 
L 329.932702 79.164109 
L 331.58034 71.927167 
L 332.129552 71.131326 
L 333.227977 68.894215 
L 333.77719 68.089151 
L 334.875615 71.969406 
L 335.424828 73.306566 
L 335.97404 75.313989 
L 338.170891 87.511144 
L 338.720103 91.573589 
L 339.269316 97.313137 
L 341.466166 114.8037 
L 342.015379 116.514936 
L 342.564592 120.731012 
L 343.113804 123.387503 
L 343.663017 124.969921 
L 344.212229 125.866079 
L 344.761442 124.418277 
L 345.310655 121.32596 
L 346.40908 112.075316 
L 348.056718 97.899226 
L 349.155143 89.99095 
L 351.351993 70.647064 
L 351.901206 67.428932 
L 352.450418 65.26174 
L 352.999631 64.437745 
L 354.098056 69.093319 
L 355.196481 75.115249 
L 356.294906 87.524088 
L 359.040969 121.757226 
L 359.590182 125.392858 
L 360.688607 130.499518 
L 361.23782 132.090292 
L 362.336245 134.302617 
L 362.885458 133.965085 
L 363.43467 131.729706 
L 363.983883 127.442002 
L 364.533095 121.650304 
L 366.729946 92.872915 
L 367.828371 80.508479 
L 368.926796 69.772566 
L 370.025221 61.903636 
L 370.574434 60.094385 
L 371.672859 58.363727 
L 372.222072 57.883761 
L 372.771284 57.607703 
L 373.320497 58.082069 
L 373.86971 59.467175 
L 374.418922 61.586026 
L 374.968135 65.168273 
L 376.06656 76.692566 
L 379.911048 119.458281 
L 381.009473 128.092259 
L 381.558686 131.557189 
L 382.107899 133.894654 
L 382.657111 134.15865 
L 383.206324 134.630992 
L 383.755536 133.845663 
L 384.304749 132.08494 
L 384.853962 129.703349 
L 385.403174 126.553584 
L 386.501599 116.324196 
L 387.600025 103.568443 
L 389.247662 84.849301 
L 389.796875 79.013801 
L 390.8953 71.175098 
L 391.444513 67.964505 
L 391.993725 65.440825 
L 392.542938 64.62294 
L 393.092151 64.183564 
L 393.641363 64.406441 
L 394.190576 64.958185 
L 395.289001 68.973019 
L 395.838214 72.232509 
L 396.936639 81.325875 
L 400.231914 117.090871 
L 400.781127 121.60178 
L 401.33034 124.892723 
L 402.428765 129.653584 
L 402.977977 130.195017 
L 403.52719 129.283353 
L 404.076403 127.872119 
L 405.174828 120.714939 
L 406.273253 111.696094 
L 410.666954 67.072039 
L 411.216166 62.929397 
L 411.765379 59.928732 
L 412.314592 58.802743 
L 412.863804 58.802903 
L 413.413017 60.498431 
L 414.511442 66.631529 
L 415.609867 74.977067 
L 417.257505 88.915909 
L 420.552781 113.689072 
L 421.651206 119.631837 
L 422.200418 121.506178 
L 422.749631 121.653233 
L 423.298844 120.632416 
L 423.848056 119.185395 
L 424.946481 112.735498 
L 426.594119 101.927049 
L 429.889395 76.867662 
L 430.438607 73.247939 
L 431.537032 69.173162 
L 432.635458 67.268111 
L 433.18467 67.406498 
L 433.733883 68.727107 
L 434.283095 70.73161 
L 435.381521 78.831614 
L 438.127584 102.330005 
L 439.775221 112.013357 
L 440.873647 117.206333 
L 441.422859 118.574683 
L 441.972072 119.637452 
L 442.521284 119.948276 
L 443.070497 119.384534 
L 444.168922 115.924193 
L 445.267347 109.986788 
L 446.365773 100.733442 
L 448.01341 85.442606 
L 449.111836 77.621132 
L 449.661048 74.835287 
L 450.759473 71.150964 
L 451.308686 69.762037 
L 451.857899 68.993367 
L 452.407111 69.32152 
L 452.956324 69.877425 
L 453.505536 71.434003 
L 454.054749 73.800989 
L 455.153174 80.789141 
L 456.251599 88.668982 
L 458.997662 109.773526 
L 459.546875 113.287247 
L 460.096088 115.861565 
L 460.6453 117.880082 
L 461.194513 118.969917 
L 461.743725 119.04997 
L 462.292938 118.731483 
L 462.842151 118.008236 
L 463.391363 116.804746 
L 463.940576 115.053992 
L 464.489788 112.663238 
L 465.588214 105.921764 
L 467.785064 89.250449 
L 468.883489 81.725868 
L 469.981914 76.162017 
L 470.531127 73.918629 
L 471.08034 72.344569 
L 471.629552 71.748009 
L 472.178765 72.039238 
L 472.727977 73.167184 
L 473.826403 76.994838 
L 476.023253 87.282943 
L 477.121678 94.095719 
L 478.769316 105.157939 
L 479.867741 110.642691 
L 479.867741 110.642691 
" clip-path="url(#p45c5fafe01)" style="fill: none; stroke-dasharray: 7.68,1.92,1.2,1.92; stroke-dashoffset: 0; stroke: #0000ff; stroke-width: 1.2"/>
   </g>
   <g id="line2d_32">
    <path d="M 41.046875 94.507087 
L 43.243725 94.570394 
L 45.440576 94.923622 
L 47.088214 95.304085 
L 49.834277 95.465849 
L 51.481914 95.273447 
L 52.58034 94.958705 
L 53.678765 95.071535 
L 54.227977 95.270166 
L 55.875615 96.30778 
L 56.424828 96.349055 
L 58.072466 96.845968 
L 58.621678 96.814828 
L 59.170891 96.91386 
L 60.818529 98.003125 
L 61.367741 98.119243 
L 62.466166 97.899463 
L 63.015379 97.560575 
L 64.113804 96.398914 
L 65.212229 94.866031 
L 66.859867 93.657761 
L 67.40908 92.998712 
L 68.507505 90.402225 
L 70.155143 85.489246 
L 70.704355 84.657915 
L 71.253568 84.485307 
L 71.802781 84.642187 
L 72.351993 85.060919 
L 72.901206 86.175106 
L 73.999631 89.071749 
L 74.548844 90.458251 
L 75.098056 92.362854 
L 76.196481 96.830674 
L 76.745694 98.476039 
L 78.393332 102.032113 
L 79.491757 105.296425 
L 81.139395 110.710814 
L 81.688607 111.093707 
L 82.23782 110.3895 
L 82.787032 108.938985 
L 83.336245 106.656533 
L 84.43467 100.702299 
L 84.983883 98.563625 
L 85.533095 97.165441 
L 87.180733 94.394229 
L 88.279158 90.690792 
L 88.828371 88.502996 
L 89.926796 83.091478 
L 90.476009 81.678861 
L 91.025221 81.211064 
L 91.574434 81.577236 
L 92.123647 82.193278 
L 92.672859 83.287377 
L 93.222072 84.827471 
L 93.771284 85.731008 
L 94.320497 86.343742 
L 95.418922 88.23754 
L 95.968135 89.962722 
L 97.06656 94.826871 
L 97.615773 96.910759 
L 98.714198 102.711779 
L 99.26341 104.580925 
L 99.812623 105.217737 
L 100.361836 105.465427 
L 100.911048 105.874095 
L 101.460261 105.826981 
L 102.558686 103.379928 
L 104.206324 101.443571 
L 104.755536 100.721483 
L 105.304749 99.626784 
L 106.403174 96.396728 
L 106.952387 94.049892 
L 108.050812 88.705336 
L 109.149237 85.026307 
L 109.69845 83.627755 
L 110.247662 82.647906 
L 110.796875 82.735979 
L 112.993725 85.355664 
L 113.542938 85.679712 
L 114.092151 85.793638 
L 114.641363 86.087906 
L 115.190576 86.518775 
L 115.739788 87.590994 
L 116.289001 89.686924 
L 116.838214 92.716329 
L 117.387426 96.43653 
L 118.485851 105.316768 
L 119.035064 108.776817 
L 119.584277 111.339666 
L 120.682702 114.071375 
L 121.231914 114.333492 
L 121.781127 113.740346 
L 122.33034 112.941978 
L 122.879552 111.427774 
L 123.428765 108.98795 
L 124.52719 102.661066 
L 126.72404 89.411785 
L 127.822466 84.618592 
L 130.019316 71.267598 
L 130.568529 69.414539 
L 131.117741 68.741401 
L 131.666954 69.587537 
L 132.765379 73.58631 
L 133.863804 79.247698 
L 134.962229 84.851527 
L 136.060655 91.853227 
L 136.609867 95.627216 
L 137.708292 100.81069 
L 138.257505 102.273544 
L 139.35593 103.665942 
L 139.905143 104.172218 
L 140.454355 105.421331 
L 141.003568 107.472794 
L 141.552781 108.98366 
L 142.101993 109.795411 
L 142.651206 109.776123 
L 143.200418 108.7454 
L 143.749631 106.895103 
L 144.298844 103.747982 
L 145.397269 96.460619 
L 146.495694 91.666508 
L 147.044906 90.417678 
L 147.594119 90.292586 
L 148.143332 90.538171 
L 148.692544 90.553582 
L 149.241757 90.144153 
L 149.790969 90.103329 
L 150.340182 90.478862 
L 150.889395 90.452693 
L 151.438607 90.211664 
L 151.98782 90.453752 
L 152.537032 91.530472 
L 153.635458 94.59963 
L 154.733883 98.842049 
L 155.283095 101.426518 
L 155.832308 104.620887 
L 156.381521 107.132611 
L 156.930733 108.197005 
L 157.479946 107.929162 
L 158.029158 106.349341 
L 158.578371 103.349798 
L 159.676796 94.756287 
L 160.226009 91.831955 
L 160.775221 90.545035 
L 161.873647 88.893706 
L 162.422859 88.895617 
L 162.972072 89.02381 
L 163.521284 88.20024 
L 164.61971 84.799113 
L 165.168922 84.381193 
L 165.718135 84.84377 
L 166.267347 85.046017 
L 166.81656 85.736806 
L 167.365773 87.194435 
L 167.914985 89.361301 
L 169.01341 94.446873 
L 169.562623 97.830112 
L 171.759473 116.141879 
L 172.308686 118.552739 
L 172.857899 120.041791 
L 173.407111 120.062867 
L 174.505536 116.383251 
L 175.603962 112.571238 
L 176.153174 111.363557 
L 176.702387 109.636915 
L 177.800812 103.26628 
L 178.350025 98.717166 
L 179.44845 87.294773 
L 180.546875 75.158817 
L 181.6453 66.457452 
L 182.743725 60.630173 
L 183.292938 58.990652 
L 183.842151 57.991832 
L 184.391363 57.776251 
L 185.489788 59.040663 
L 186.039001 60.405079 
L 186.588214 63.178236 
L 187.686639 70.548372 
L 188.785064 79.51271 
L 189.883489 90.058487 
L 192.08034 108.319085 
L 193.178765 115.702687 
L 194.27719 123.48958 
L 195.375615 128.697547 
L 195.924828 130.496507 
L 196.47404 130.667388 
L 197.023253 128.521517 
L 198.670891 115.168401 
L 200.318529 100.432666 
L 200.867741 96.361669 
L 201.416954 91.163328 
L 203.064592 72.487083 
L 204.163017 62.997979 
L 204.712229 60.138759 
L 205.261442 58.391149 
L 205.810655 57.708386 
L 206.359867 57.750443 
L 206.90908 58.299872 
L 207.458292 60.105296 
L 208.007505 62.701093 
L 208.556718 65.984107 
L 209.10593 70.655901 
L 213.499631 117.536657 
L 215.147269 131.506513 
L 215.696481 134.655764 
L 216.245694 137.083904 
L 216.794906 138.5403 
L 217.344119 139.360942 
L 217.893332 138.605588 
L 218.442544 135.357831 
L 219.540969 126.390588 
L 223.385458 83.081489 
L 225.033095 61.879375 
L 225.582308 56.348325 
L 226.131521 52.009915 
L 226.680733 49.4597 
L 227.229946 48.324353 
L 227.779158 48.118629 
L 228.328371 49.475609 
L 228.877584 52.751728 
L 229.426796 57.341356 
L 229.976009 63.120051 
L 230.525221 70.594114 
L 233.271284 114.790433 
L 234.918922 135.439683 
L 235.468135 141.30101 
L 236.017347 145.927201 
L 236.56656 149.540242 
L 237.115773 151.715756 
L 237.664985 152.342773 
L 238.214198 151.394225 
L 238.76341 148.786917 
L 239.312623 144.729726 
L 239.861836 139.169952 
L 240.411048 131.959105 
L 241.509473 112.776712 
L 243.157111 81.927817 
L 244.255536 65.935098 
L 245.903174 48.08832 
L 246.452387 42.797991 
L 247.001599 38.63856 
L 247.550812 35.67723 
L 248.100025 34.261976 
L 248.649237 34.110871 
L 249.19845 35.992912 
L 249.747662 40.406875 
L 250.296875 46.017047 
L 251.3953 61.14717 
L 254.141363 104.539688 
L 255.789001 123.501048 
L 256.887426 133.714151 
L 257.436639 137.653117 
L 257.985851 140.181979 
L 258.535064 141.289913 
L 259.084277 140.75789 
L 259.633489 138.439925 
L 260.182702 134.711056 
L 261.281127 123.483192 
L 262.928765 100.729769 
L 264.576403 77.963121 
L 265.674828 66.788954 
L 266.773253 58.072678 
L 267.871678 52.793763 
L 268.420891 50.738908 
L 268.970103 49.789195 
L 269.519316 50.647199 
L 270.068529 53.026158 
L 270.617741 57.41282 
L 271.716166 70.397678 
L 273.363804 91.684047 
L 275.011442 109.916177 
L 276.109867 121.14969 
L 277.208292 130.679997 
L 277.757505 133.3836 
L 278.306718 134.381177 
L 278.85593 133.989348 
L 279.405143 132.854491 
L 279.954355 131.087285 
L 281.601993 121.994992 
L 282.151206 117.831592 
L 283.249631 106.548733 
L 285.446481 81.979703 
L 286.544906 71.228994 
L 287.094119 66.964294 
L 287.643332 63.87161 
L 288.192544 62.115966 
L 288.741757 61.807547 
L 289.290969 63.683734 
L 290.938607 76.003125 
L 292.037032 83.731792 
L 293.135458 89.412117 
L 293.68467 93.361436 
L 294.783095 105.262561 
L 295.332308 111.293724 
L 295.881521 115.708375 
L 296.430733 118.796447 
L 296.979946 120.562687 
L 297.529158 120.876081 
L 298.078371 119.819504 
L 299.176796 115.857258 
L 300.275221 111.081085 
L 301.922859 101.382781 
L 302.472072 99.287759 
L 303.021284 97.921273 
L 304.668922 95.726507 
L 305.218135 94.213346 
L 306.31656 88.006821 
L 306.865773 86.043279 
L 307.414985 85.399615 
L 307.964198 85.309412 
L 308.51341 85.782737 
L 309.611836 87.678822 
L 310.161048 87.487547 
L 311.259473 84.905331 
L 311.808686 84.011811 
L 312.357899 83.449123 
L 312.907111 83.169115 
L 314.005536 83.187417 
L 314.554749 82.771257 
L 315.103962 82.160207 
L 315.653174 82.237222 
L 316.202387 83.293867 
L 316.751599 84.965169 
L 321.1453 106.307831 
L 322.243725 112.583567 
L 322.792938 113.948694 
L 323.342151 113.675574 
L 324.440576 112.245746 
L 324.989788 111.094504 
L 326.637426 106.723739 
L 327.186639 103.661648 
L 329.932702 79.202658 
L 330.481914 76.114372 
L 331.031127 74.021302 
L 331.58034 72.614073 
L 332.678765 69.013627 
L 333.227977 67.933973 
L 333.77719 67.887539 
L 334.326403 68.717099 
L 334.875615 70.530131 
L 335.97404 75.382155 
L 337.621678 84.336732 
L 338.720103 93.087926 
L 339.818529 103.351935 
L 340.916954 111.649555 
L 341.466166 114.707196 
L 343.113804 120.80482 
L 343.663017 122.550116 
L 344.212229 122.978802 
L 344.761442 121.755564 
L 345.310655 119.215235 
L 345.859867 115.708308 
L 348.056718 98.274765 
L 348.60593 95.038002 
L 349.704355 86.715975 
L 351.901206 68.449081 
L 352.450418 66.044281 
L 352.999631 65.59499 
L 353.548844 66.300863 
L 354.098056 67.845429 
L 354.647269 70.363608 
L 355.196481 73.954268 
L 355.745694 78.619111 
L 356.844119 91.234854 
L 358.491757 112.454644 
L 359.040969 117.751807 
L 359.590182 121.68653 
L 360.139395 124.58706 
L 361.23782 128.547389 
L 361.787032 129.949877 
L 362.336245 130.832047 
L 362.885458 130.756879 
L 363.43467 128.827472 
L 363.983883 124.846185 
L 365.082308 112.864204 
L 367.279158 85.243602 
L 368.377584 73.274385 
L 369.476009 63.75352 
L 370.025221 60.419621 
L 370.574434 58.46607 
L 371.123647 57.813367 
L 371.672859 57.636116 
L 372.222072 57.595467 
L 372.771284 57.883123 
L 373.320497 58.648046 
L 373.86971 60.202674 
L 374.418922 62.739497 
L 374.968135 66.581791 
L 376.06656 78.983851 
L 377.714198 98.480903 
L 379.361836 114.718918 
L 380.460261 124.123286 
L 381.009473 127.764795 
L 381.558686 130.363381 
L 382.107899 131.895807 
L 382.657111 132.466691 
L 383.206324 132.206716 
L 383.755536 131.273773 
L 384.304749 129.78891 
L 384.853962 127.677449 
L 385.403174 124.625318 
L 385.952387 120.338298 
L 387.050812 108.875936 
L 389.247662 83.068372 
L 390.346088 73.281617 
L 390.8953 68.995649 
L 391.444513 65.789371 
L 391.993725 63.66233 
L 392.542938 62.384695 
L 393.092151 62.040569 
L 393.641363 62.574953 
L 394.190576 63.89655 
L 394.739788 65.855167 
L 395.289001 68.342389 
L 395.838214 71.591083 
L 396.936639 80.850901 
L 398.584277 99.146495 
L 399.682702 110.780492 
L 400.781127 119.546249 
L 401.33034 122.590868 
L 401.879552 124.788413 
L 402.428765 126.361563 
L 402.977977 127.107071 
L 403.52719 126.585785 
L 404.076403 124.889475 
L 404.625615 122.35506 
L 405.72404 115.176431 
L 406.822466 105.36139 
L 408.470103 88.921489 
L 410.117741 71.581501 
L 411.216166 63.043005 
L 411.765379 60.168942 
L 412.314592 58.737393 
L 412.863804 58.944318 
L 413.413017 60.431421 
L 413.962229 62.820477 
L 414.511442 66.102912 
L 415.609867 74.886135 
L 418.905143 102.899772 
L 420.552781 114.739903 
L 421.101993 118.152172 
L 421.651206 120.75858 
L 422.200418 122.159285 
L 422.749631 122.43772 
L 423.298844 121.692424 
L 423.848056 119.694223 
L 424.397269 116.711939 
L 426.594119 101.914338 
L 429.889395 78.043416 
L 430.98782 72.676279 
L 431.537032 70.898441 
L 432.086245 69.761774 
L 432.635458 69.147633 
L 433.18467 69.232236 
L 433.733883 70.229838 
L 434.283095 72.362933 
L 434.832308 75.604956 
L 435.930733 84.158559 
L 437.578371 98.425227 
L 438.676796 105.862775 
L 439.775221 112.512143 
L 440.873647 117.260427 
L 441.422859 118.902648 
L 441.972072 119.892558 
L 442.521284 120.026438 
L 443.070497 119.24198 
L 443.61971 117.795639 
L 444.168922 115.861166 
L 444.718135 113.248254 
L 445.267347 109.783349 
L 446.365773 100.803477 
L 448.01341 85.699013 
L 448.562623 81.559423 
L 449.661048 75.752657 
L 450.210261 73.77315 
L 450.759473 72.31042 
L 451.308686 71.167746 
L 451.857899 70.458807 
L 452.407111 70.380894 
L 452.956324 71.132345 
L 453.505536 72.625967 
L 454.054749 74.806684 
L 454.603962 77.828851 
L 456.800812 93.137269 
L 458.997662 110.044131 
L 459.546875 113.605661 
L 460.096088 116.23932 
L 460.6453 117.90848 
L 461.194513 118.798708 
L 461.743725 119.018375 
L 462.292938 118.581509 
L 462.842151 117.613762 
L 463.391363 116.268744 
L 463.940576 114.46745 
L 464.489788 112.025058 
L 465.588214 105.14608 
L 468.334277 85.201029 
L 469.432702 78.879417 
L 470.531127 74.120571 
L 471.08034 72.672447 
L 471.629552 72.056058 
L 472.178765 72.290114 
L 472.727977 73.386767 
L 473.826403 77.197398 
L 474.924828 81.945341 
L 476.023253 87.609476 
L 477.121678 94.568556 
L 478.220103 102.177677 
L 479.318529 108.299333 
L 479.867741 110.616786 
L 479.867741 110.616786 
" clip-path="url(#p45c5fafe01)" style="fill: none; stroke-dasharray: 1.2,1.98; stroke-dashoffset: 0; stroke: #008000; stroke-width: 1.2"/>
   </g>
   <g id="patch_3">
    <path d="M 41.046875 181.814173 
L 41.046875 7.2 
" style="fill: none; stroke: #000000; stroke-width: 0.8; stroke-linejoin: miter; stroke-linecap: square"/>
   </g>
   <g id="patch_4">
    <path d="M 480.416954 181.814173 
L 480.416954 7.2 
" style="fill: none; stroke: #000000; stroke-width: 0.8; stroke-linejoin: miter; stroke-linecap: square"/>
   </g>
   <g id="patch_5">
    <path d="M 41.046875 181.814173 
L 480.416954 181.814173 
" style="fill: none; stroke: #000000; stroke-width: 0.8; stroke-linejoin: miter; stroke-linecap: square"/>
   </g>
   <g id="patch_6">
    <path d="M 41.046875 7.2 
L 480.416954 7.2 
" style="fill: none; stroke: #000000; stroke-width: 0.8; stroke-linejoin: miter; stroke-linecap: square"/>
   </g>
   <g id="text_17">
    <!-- 9th floor -->
    <g transform="translate(418.415102 162.572558) scale(0.1 -0.1)">
     <defs>
      <path id="ArialMT-39" d="M 350 1059 
L 891 1109 
Q 959 728 1153 556 
Q 1347 384 1650 384 
Q 1909 384 2104 503 
Q 2300 622 2425 820 
Q 2550 1019 2634 1356 
Q 2719 1694 2719 2044 
Q 2719 2081 2716 2156 
Q 2547 1888 2255 1720 
Q 1963 1553 1622 1553 
Q 1053 1553 659 1965 
Q 266 2378 266 3053 
Q 266 3750 677 4175 
Q 1088 4600 1706 4600 
Q 2153 4600 2523 4359 
Q 2894 4119 3086 3673 
Q 3278 3228 3278 2384 
Q 3278 1506 3087 986 
Q 2897 466 2520 194 
Q 2144 -78 1638 -78 
Q 1100 -78 759 220 
Q 419 519 350 1059 
z
M 2653 3081 
Q 2653 3566 2395 3850 
Q 2138 4134 1775 4134 
Q 1400 4134 1122 3828 
Q 844 3522 844 3034 
Q 844 2597 1108 2323 
Q 1372 2050 1759 2050 
Q 2150 2050 2401 2323 
Q 2653 2597 2653 3081 
z
" transform="scale(0.015625)"/>
      <path id="ArialMT-68" d="M 422 0 
L 422 4581 
L 984 4581 
L 984 2938 
Q 1378 3394 1978 3394 
Q 2347 3394 2619 3248 
Q 2891 3103 3008 2847 
Q 3125 2591 3125 2103 
L 3125 0 
L 2563 0 
L 2563 2103 
Q 2563 2525 2380 2717 
Q 2197 2909 1863 2909 
Q 1613 2909 1392 2779 
Q 1172 2650 1078 2428 
Q 984 2206 984 1816 
L 984 0 
L 422 0 
z
" transform="scale(0.015625)"/>
      <path id="ArialMT-66" d="M 556 0 
L 556 2881 
L 59 2881 
L 59 3319 
L 556 3319 
L 556 3672 
Q 556 4006 616 4169 
Q 697 4388 901 4523 
Q 1106 4659 1475 4659 
Q 1713 4659 2000 4603 
L 1916 4113 
Q 1741 4144 1584 4144 
Q 1328 4144 1222 4034 
Q 1116 3925 1116 3625 
L 1116 3319 
L 1763 3319 
L 1763 2881 
L 1116 2881 
L 1116 0 
L 556 0 
z
" transform="scale(0.015625)"/>
      <path id="ArialMT-6f" d="M 213 1659 
Q 213 2581 725 3025 
Q 1153 3394 1769 3394 
Q 2453 3394 2887 2945 
Q 3322 2497 3322 1706 
Q 3322 1066 3130 698 
Q 2938 331 2570 128 
Q 2203 -75 1769 -75 
Q 1072 -75 642 372 
Q 213 819 213 1659 
z
M 791 1659 
Q 791 1022 1069 705 
Q 1347 388 1769 388 
Q 2188 388 2466 706 
Q 2744 1025 2744 1678 
Q 2744 2294 2464 2611 
Q 2184 2928 1769 2928 
Q 1347 2928 1069 2612 
Q 791 2297 791 1659 
z
" transform="scale(0.015625)"/>
      <path id="ArialMT-72" d="M 416 0 
L 416 3319 
L 922 3319 
L 922 2816 
Q 1116 3169 1280 3281 
Q 1444 3394 1641 3394 
Q 1925 3394 2219 3213 
L 2025 2691 
Q 1819 2813 1613 2813 
Q 1428 2813 1281 2702 
Q 1134 2591 1072 2394 
Q 978 2094 978 1738 
L 978 0 
L 416 0 
z
" transform="scale(0.015625)"/>
     </defs>
     <use xlink:href="#ArialMT-39"/>
     <use xlink:href="#ArialMT-74" x="55.615234"/>
     <use xlink:href="#ArialMT-68" x="83.398438"/>
     <use xlink:href="#ArialMT-20" x="139.013672"/>
     <use xlink:href="#ArialMT-66" x="166.796875"/>
     <use xlink:href="#ArialMT-6c" x="194.580078"/>
     <use xlink:href="#ArialMT-6f" x="216.796875"/>
     <use xlink:href="#ArialMT-6f" x="272.412109"/>
     <use xlink:href="#ArialMT-72" x="328.027344"/>
    </g>
   </g>
   <g id="legend_1">
    <g id="patch_7">
     <path d="M 130.148204 29.345312 
L 473.416954 29.345312 
Q 475.416954 29.345312 475.416954 27.345312 
L 475.416954 14.2 
Q 475.416954 12.2 473.416954 12.2 
L 130.148204 12.2 
Q 128.148204 12.2 128.148204 14.2 
L 128.148204 27.345312 
Q 128.148204 29.345312 130.148204 29.345312 
z
" style="fill: #ffffff; opacity: 0.8; stroke: #000000; stroke-linejoin: miter"/>
    </g>
    <g id="line2d_33">
     <path d="M 132.148204 19.857812 
L 142.148204 19.857812 
L 152.148204 19.857812 
" style="fill: none; stroke: #000000; stroke-width: 1.2; stroke-linecap: square"/>
    </g>
    <g id="text_18">
     <!-- Ref. -->
     <g transform="translate(160.148204 23.357812) scale(0.1 -0.1)">
      <defs>
       <path id="ArialMT-52" d="M 503 0 
L 503 4581 
L 2534 4581 
Q 3147 4581 3465 4457 
Q 3784 4334 3975 4021 
Q 4166 3709 4166 3331 
Q 4166 2844 3850 2509 
Q 3534 2175 2875 2084 
Q 3116 1969 3241 1856 
Q 3506 1613 3744 1247 
L 4541 0 
L 3778 0 
L 3172 953 
Q 2906 1366 2734 1584 
Q 2563 1803 2427 1890 
Q 2291 1978 2150 2013 
Q 2047 2034 1813 2034 
L 1109 2034 
L 1109 0 
L 503 0 
z
M 1109 2559 
L 2413 2559 
Q 2828 2559 3062 2645 
Q 3297 2731 3419 2920 
Q 3541 3109 3541 3331 
Q 3541 3656 3305 3865 
Q 3069 4075 2559 4075 
L 1109 4075 
L 1109 2559 
z
" transform="scale(0.015625)"/>
       <path id="ArialMT-2e" d="M 581 0 
L 581 641 
L 1222 641 
L 1222 0 
L 581 0 
z
" transform="scale(0.015625)"/>
      </defs>
      <use xlink:href="#ArialMT-52"/>
      <use xlink:href="#ArialMT-65" x="72.216797"/>
      <use xlink:href="#ArialMT-66" x="127.832031"/>
      <use xlink:href="#ArialMT-2e" x="155.615234"/>
     </g>
    </g>
    <g id="line2d_34">
     <path d="M 198.487266 19.857812 
L 208.487266 19.857812 
L 218.487266 19.857812 
" style="fill: none; stroke-dasharray: 4.44,1.92; stroke-dashoffset: 0; stroke: #ff0000; stroke-width: 1.2"/>
    </g>
    <g id="text_19">
     <!-- BiRNN pred. -->
     <g transform="translate(226.487266 23.357812) scale(0.1 -0.1)">
      <defs>
       <path id="ArialMT-42" d="M 469 0 
L 469 4581 
L 2188 4581 
Q 2713 4581 3030 4442 
Q 3347 4303 3526 4014 
Q 3706 3725 3706 3409 
Q 3706 3116 3547 2856 
Q 3388 2597 3066 2438 
Q 3481 2316 3704 2022 
Q 3928 1728 3928 1328 
Q 3928 1006 3792 729 
Q 3656 453 3456 303 
Q 3256 153 2954 76 
Q 2653 0 2216 0 
L 469 0 
z
M 1075 2656 
L 2066 2656 
Q 2469 2656 2644 2709 
Q 2875 2778 2992 2937 
Q 3109 3097 3109 3338 
Q 3109 3566 3000 3739 
Q 2891 3913 2687 3977 
Q 2484 4041 1991 4041 
L 1075 4041 
L 1075 2656 
z
M 1075 541 
L 2216 541 
Q 2509 541 2628 563 
Q 2838 600 2978 687 
Q 3119 775 3209 942 
Q 3300 1109 3300 1328 
Q 3300 1584 3169 1773 
Q 3038 1963 2805 2039 
Q 2572 2116 2134 2116 
L 1075 2116 
L 1075 541 
z
" transform="scale(0.015625)"/>
       <path id="ArialMT-4e" d="M 488 0 
L 488 4581 
L 1109 4581 
L 3516 984 
L 3516 4581 
L 4097 4581 
L 4097 0 
L 3475 0 
L 1069 3600 
L 1069 0 
L 488 0 
z
" transform="scale(0.015625)"/>
       <path id="ArialMT-64" d="M 2575 0 
L 2575 419 
Q 2259 -75 1647 -75 
Q 1250 -75 917 144 
Q 584 363 401 755 
Q 219 1147 219 1656 
Q 219 2153 384 2558 
Q 550 2963 881 3178 
Q 1213 3394 1622 3394 
Q 1922 3394 2156 3267 
Q 2391 3141 2538 2938 
L 2538 4581 
L 3097 4581 
L 3097 0 
L 2575 0 
z
M 797 1656 
Q 797 1019 1065 703 
Q 1334 388 1700 388 
Q 2069 388 2326 689 
Q 2584 991 2584 1609 
Q 2584 2291 2321 2609 
Q 2059 2928 1675 2928 
Q 1300 2928 1048 2622 
Q 797 2316 797 1656 
z
" transform="scale(0.015625)"/>
      </defs>
      <use xlink:href="#ArialMT-42"/>
      <use xlink:href="#ArialMT-69" x="66.699219"/>
      <use xlink:href="#ArialMT-52" x="88.916016"/>
      <use xlink:href="#ArialMT-4e" x="161.132812"/>
      <use xlink:href="#ArialMT-4e" x="233.349609"/>
      <use xlink:href="#ArialMT-20" x="305.566406"/>
      <use xlink:href="#ArialMT-70" x="333.349609"/>
      <use xlink:href="#ArialMT-72" x="388.964844"/>
      <use xlink:href="#ArialMT-65" x="422.265625"/>
      <use xlink:href="#ArialMT-64" x="477.880859"/>
      <use xlink:href="#ArialMT-2e" x="533.496094"/>
     </g>
    </g>
    <g id="line2d_35">
     <path d="M 302.613829 19.857812 
L 312.613829 19.857812 
L 322.613829 19.857812 
" style="fill: none; stroke-dasharray: 7.68,1.92,1.2,1.92; stroke-dashoffset: 0; stroke: #0000ff; stroke-width: 1.2"/>
    </g>
    <g id="text_20">
     <!-- RNN pred. -->
     <g transform="translate(330.613829 23.357812) scale(0.1 -0.1)">
      <use xlink:href="#ArialMT-52"/>
      <use xlink:href="#ArialMT-4e" x="72.216797"/>
      <use xlink:href="#ArialMT-4e" x="144.433594"/>
      <use xlink:href="#ArialMT-20" x="216.650391"/>
      <use xlink:href="#ArialMT-70" x="244.433594"/>
      <use xlink:href="#ArialMT-72" x="300.048828"/>
      <use xlink:href="#ArialMT-65" x="333.349609"/>
      <use xlink:href="#ArialMT-64" x="388.964844"/>
      <use xlink:href="#ArialMT-2e" x="444.580078"/>
     </g>
    </g>
    <g id="line2d_36">
     <path d="M 397.848204 19.857812 
L 407.848204 19.857812 
L 417.848204 19.857812 
" style="fill: none; stroke-dasharray: 1.2,1.98; stroke-dashoffset: 0; stroke: #008000; stroke-width: 1.2"/>
    </g>
    <g id="text_21">
     <!-- DKF pred. -->
     <g transform="translate(425.848204 23.357812) scale(0.1 -0.1)">
      <defs>
       <path id="ArialMT-4b" d="M 469 0 
L 469 4581 
L 1075 4581 
L 1075 2309 
L 3350 4581 
L 4172 4581 
L 2250 2725 
L 4256 0 
L 3456 0 
L 1825 2319 
L 1075 1588 
L 1075 0 
L 469 0 
z
" transform="scale(0.015625)"/>
       <path id="ArialMT-46" d="M 525 0 
L 525 4581 
L 3616 4581 
L 3616 4041 
L 1131 4041 
L 1131 2622 
L 3281 2622 
L 3281 2081 
L 1131 2081 
L 1131 0 
L 525 0 
z
" transform="scale(0.015625)"/>
      </defs>
      <use xlink:href="#ArialMT-44"/>
      <use xlink:href="#ArialMT-4b" x="72.216797"/>
      <use xlink:href="#ArialMT-46" x="138.916016"/>
      <use xlink:href="#ArialMT-20" x="200"/>
      <use xlink:href="#ArialMT-70" x="227.783203"/>
      <use xlink:href="#ArialMT-72" x="283.398438"/>
      <use xlink:href="#ArialMT-65" x="316.699219"/>
      <use xlink:href="#ArialMT-64" x="372.314453"/>
      <use xlink:href="#ArialMT-2e" x="427.929688"/>
     </g>
    </g>
   </g>
  </g>
 </g>
 <defs>
  <clipPath id="p45c5fafe01">
   <rect x="41.046875" y="7.2" width="439.370079" height="174.614173"/>
  </clipPath>
 </defs>
</svg>
