<?xml version="1.0" encoding="utf-8" standalone="no"?>
<!DOCTYPE svg PUBLIC "-//W3C//DTD SVG 1.1//EN"
  "http://www.w3.org/Graphics/SVG/1.1/DTD/svg11.dtd">
<svg xmlns:xlink="http://www.w3.org/1999/xlink" width="493.177891pt" height="215.043861pt" viewBox="0 0 493.177891 215.043861" xmlns="http://www.w3.org/2000/svg" version="1.1">
 <metadata>
  <rdf:RDF xmlns:dc="http://purl.org/dc/elements/1.1/" xmlns:cc="http://creativecommons.org/ns#" xmlns:rdf="http://www.w3.org/1999/02/22-rdf-syntax-ns#">
   <cc:Work>
    <dc:type rdf:resource="http://purl.org/dc/dcmitype/StillImage"/>
    <dc:date>2024-03-13T12:50:16.791644</dc:date>
    <dc:format>image/svg+xml</dc:format>
    <dc:creator>
     <cc:Agent>
      <dc:title>Matplotlib v3.8.2, https://matplotlib.org/</dc:title>
     </cc:Agent>
    </dc:creator>
   </cc:Work>
  </rdf:RDF>
 </metadata>
 <defs>
  <style type="text/css">*{stroke-linejoin: round; stroke-linecap: butt}</style>
 </defs>
 <g id="figure_1">
  <g id="patch_1">
   <path d="M 0 215.043861 
L 493.177891 215.043861 
L 493.177891 0 
L 0 0 
z
" style="fill: #ffffff"/>
  </g>
  <g id="axes_1">
   <g id="patch_2">
    <path d="M 41.046875 181.814173 
L 480.416954 181.814173 
L 480.416954 7.2 
L 41.046875 7.2 
z
" style="fill: #ffffff"/>
   </g>
   <g id="matplotlib.axis_1">
    <g id="xtick_1">
     <g id="line2d_1">
      <path d="M 41.046875 181.814173 
L 41.046875 7.2 
" clip-path="url(#pb003bf3cf3)" style="fill: none; stroke: #b0b0b0; stroke-width: 0.8; stroke-linecap: square"/>
     </g>
     <g id="line2d_2">
      <defs>
       <path id="m9dd07ff999" d="M 0 0 
L 0 -3.5 
" style="stroke: #000000; stroke-width: 0.8"/>
      </defs>
      <g>
       <use xlink:href="#m9dd07ff999" x="41.046875" y="181.814173" style="stroke: #000000; stroke-width: 0.8"/>
      </g>
     </g>
     <g id="text_1">
      <!-- 0 -->
      <g transform="translate(38.266406 192.471986) scale(0.1 -0.1)">
       <defs>
        <path id="ArialMT-30" d="M 266 2259 
Q 266 3072 433 3567 
Q 600 4063 929 4331 
Q 1259 4600 1759 4600 
Q 2128 4600 2406 4451 
Q 2684 4303 2865 4023 
Q 3047 3744 3150 3342 
Q 3253 2941 3253 2259 
Q 3253 1453 3087 958 
Q 2922 463 2592 192 
Q 2263 -78 1759 -78 
Q 1097 -78 719 397 
Q 266 969 266 2259 
z
M 844 2259 
Q 844 1131 1108 757 
Q 1372 384 1759 384 
Q 2147 384 2411 759 
Q 2675 1134 2675 2259 
Q 2675 3391 2411 3762 
Q 2147 4134 1753 4134 
Q 1366 4134 1134 3806 
Q 844 3388 844 2259 
z
" transform="scale(0.015625)"/>
       </defs>
       <use xlink:href="#ArialMT-30"/>
      </g>
     </g>
    </g>
    <g id="xtick_2">
     <g id="line2d_3">
      <path d="M 95.968135 181.814173 
L 95.968135 7.2 
" clip-path="url(#pb003bf3cf3)" style="fill: none; stroke: #b0b0b0; stroke-width: 0.8; stroke-linecap: square"/>
     </g>
     <g id="line2d_4">
      <g>
       <use xlink:href="#m9dd07ff999" x="95.968135" y="181.814173" style="stroke: #000000; stroke-width: 0.8"/>
      </g>
     </g>
     <g id="text_2">
      <!-- 5 -->
      <g transform="translate(93.187666 192.471986) scale(0.1 -0.1)">
       <defs>
        <path id="ArialMT-35" d="M 266 1200 
L 856 1250 
Q 922 819 1161 601 
Q 1400 384 1738 384 
Q 2144 384 2425 690 
Q 2706 997 2706 1503 
Q 2706 1984 2436 2262 
Q 2166 2541 1728 2541 
Q 1456 2541 1237 2417 
Q 1019 2294 894 2097 
L 366 2166 
L 809 4519 
L 3088 4519 
L 3088 3981 
L 1259 3981 
L 1013 2750 
Q 1425 3038 1878 3038 
Q 2478 3038 2890 2622 
Q 3303 2206 3303 1553 
Q 3303 931 2941 478 
Q 2500 -78 1738 -78 
Q 1113 -78 717 272 
Q 322 622 266 1200 
z
" transform="scale(0.015625)"/>
       </defs>
       <use xlink:href="#ArialMT-35"/>
      </g>
     </g>
    </g>
    <g id="xtick_3">
     <g id="line2d_5">
      <path d="M 150.889395 181.814173 
L 150.889395 7.2 
" clip-path="url(#pb003bf3cf3)" style="fill: none; stroke: #b0b0b0; stroke-width: 0.8; stroke-linecap: square"/>
     </g>
     <g id="line2d_6">
      <g>
       <use xlink:href="#m9dd07ff999" x="150.889395" y="181.814173" style="stroke: #000000; stroke-width: 0.8"/>
      </g>
     </g>
     <g id="text_3">
      <!-- 10 -->
      <g transform="translate(145.328457 192.471986) scale(0.1 -0.1)">
       <defs>
        <path id="ArialMT-31" d="M 2384 0 
L 1822 0 
L 1822 3584 
Q 1619 3391 1289 3197 
Q 959 3003 697 2906 
L 697 3450 
Q 1169 3672 1522 3987 
Q 1875 4303 2022 4600 
L 2384 4600 
L 2384 0 
z
" transform="scale(0.015625)"/>
       </defs>
       <use xlink:href="#ArialMT-31"/>
       <use xlink:href="#ArialMT-30" x="55.615234"/>
      </g>
     </g>
    </g>
    <g id="xtick_4">
     <g id="line2d_7">
      <path d="M 205.810655 181.814173 
L 205.810655 7.2 
" clip-path="url(#pb003bf3cf3)" style="fill: none; stroke: #b0b0b0; stroke-width: 0.8; stroke-linecap: square"/>
     </g>
     <g id="line2d_8">
      <g>
       <use xlink:href="#m9dd07ff999" x="205.810655" y="181.814173" style="stroke: #000000; stroke-width: 0.8"/>
      </g>
     </g>
     <g id="text_4">
      <!-- 15 -->
      <g transform="translate(200.249717 192.471986) scale(0.1 -0.1)">
       <use xlink:href="#ArialMT-31"/>
       <use xlink:href="#ArialMT-35" x="55.615234"/>
      </g>
     </g>
    </g>
    <g id="xtick_5">
     <g id="line2d_9">
      <path d="M 260.731914 181.814173 
L 260.731914 7.2 
" clip-path="url(#pb003bf3cf3)" style="fill: none; stroke: #b0b0b0; stroke-width: 0.8; stroke-linecap: square"/>
     </g>
     <g id="line2d_10">
      <g>
       <use xlink:href="#m9dd07ff999" x="260.731914" y="181.814173" style="stroke: #000000; stroke-width: 0.8"/>
      </g>
     </g>
     <g id="text_5">
      <!-- 20 -->
      <g transform="translate(255.170977 192.471986) scale(0.1 -0.1)">
       <defs>
        <path id="ArialMT-32" d="M 3222 541 
L 3222 0 
L 194 0 
Q 188 203 259 391 
Q 375 700 629 1000 
Q 884 1300 1366 1694 
Q 2113 2306 2375 2664 
Q 2638 3022 2638 3341 
Q 2638 3675 2398 3904 
Q 2159 4134 1775 4134 
Q 1369 4134 1125 3890 
Q 881 3647 878 3216 
L 300 3275 
Q 359 3922 746 4261 
Q 1134 4600 1788 4600 
Q 2447 4600 2831 4234 
Q 3216 3869 3216 3328 
Q 3216 3053 3103 2787 
Q 2991 2522 2730 2228 
Q 2469 1934 1863 1422 
Q 1356 997 1212 845 
Q 1069 694 975 541 
L 3222 541 
z
" transform="scale(0.015625)"/>
       </defs>
       <use xlink:href="#ArialMT-32"/>
       <use xlink:href="#ArialMT-30" x="55.615234"/>
      </g>
     </g>
    </g>
    <g id="xtick_6">
     <g id="line2d_11">
      <path d="M 315.653174 181.814173 
L 315.653174 7.2 
" clip-path="url(#pb003bf3cf3)" style="fill: none; stroke: #b0b0b0; stroke-width: 0.8; stroke-linecap: square"/>
     </g>
     <g id="line2d_12">
      <g>
       <use xlink:href="#m9dd07ff999" x="315.653174" y="181.814173" style="stroke: #000000; stroke-width: 0.8"/>
      </g>
     </g>
     <g id="text_6">
      <!-- 25 -->
      <g transform="translate(310.092237 192.471986) scale(0.1 -0.1)">
       <use xlink:href="#ArialMT-32"/>
       <use xlink:href="#ArialMT-35" x="55.615234"/>
      </g>
     </g>
    </g>
    <g id="xtick_7">
     <g id="line2d_13">
      <path d="M 370.574434 181.814173 
L 370.574434 7.2 
" clip-path="url(#pb003bf3cf3)" style="fill: none; stroke: #b0b0b0; stroke-width: 0.8; stroke-linecap: square"/>
     </g>
     <g id="line2d_14">
      <g>
       <use xlink:href="#m9dd07ff999" x="370.574434" y="181.814173" style="stroke: #000000; stroke-width: 0.8"/>
      </g>
     </g>
     <g id="text_7">
      <!-- 30 -->
      <g transform="translate(365.013497 192.471986) scale(0.1 -0.1)">
       <defs>
        <path id="ArialMT-33" d="M 269 1209 
L 831 1284 
Q 928 806 1161 595 
Q 1394 384 1728 384 
Q 2125 384 2398 659 
Q 2672 934 2672 1341 
Q 2672 1728 2419 1979 
Q 2166 2231 1775 2231 
Q 1616 2231 1378 2169 
L 1441 2663 
Q 1497 2656 1531 2656 
Q 1891 2656 2178 2843 
Q 2466 3031 2466 3422 
Q 2466 3731 2256 3934 
Q 2047 4138 1716 4138 
Q 1388 4138 1169 3931 
Q 950 3725 888 3313 
L 325 3413 
Q 428 3978 793 4289 
Q 1159 4600 1703 4600 
Q 2078 4600 2393 4439 
Q 2709 4278 2876 4000 
Q 3044 3722 3044 3409 
Q 3044 3113 2884 2869 
Q 2725 2625 2413 2481 
Q 2819 2388 3044 2092 
Q 3269 1797 3269 1353 
Q 3269 753 2831 336 
Q 2394 -81 1725 -81 
Q 1122 -81 723 278 
Q 325 638 269 1209 
z
" transform="scale(0.015625)"/>
       </defs>
       <use xlink:href="#ArialMT-33"/>
       <use xlink:href="#ArialMT-30" x="55.615234"/>
      </g>
     </g>
    </g>
    <g id="xtick_8">
     <g id="line2d_15">
      <path d="M 425.495694 181.814173 
L 425.495694 7.2 
" clip-path="url(#pb003bf3cf3)" style="fill: none; stroke: #b0b0b0; stroke-width: 0.8; stroke-linecap: square"/>
     </g>
     <g id="line2d_16">
      <g>
       <use xlink:href="#m9dd07ff999" x="425.495694" y="181.814173" style="stroke: #000000; stroke-width: 0.8"/>
      </g>
     </g>
     <g id="text_8">
      <!-- 35 -->
      <g transform="translate(419.934756 192.471986) scale(0.1 -0.1)">
       <use xlink:href="#ArialMT-33"/>
       <use xlink:href="#ArialMT-35" x="55.615234"/>
      </g>
     </g>
    </g>
    <g id="xtick_9">
     <g id="line2d_17">
      <path d="M 480.416954 181.814173 
L 480.416954 7.2 
" clip-path="url(#pb003bf3cf3)" style="fill: none; stroke: #b0b0b0; stroke-width: 0.8; stroke-linecap: square"/>
     </g>
     <g id="line2d_18">
      <g>
       <use xlink:href="#m9dd07ff999" x="480.416954" y="181.814173" style="stroke: #000000; stroke-width: 0.8"/>
      </g>
     </g>
     <g id="text_9">
      <!-- 40 -->
      <g transform="translate(474.856016 192.471986) scale(0.1 -0.1)">
       <defs>
        <path id="ArialMT-34" d="M 2069 0 
L 2069 1097 
L 81 1097 
L 81 1613 
L 2172 4581 
L 2631 4581 
L 2631 1613 
L 3250 1613 
L 3250 1097 
L 2631 1097 
L 2631 0 
L 2069 0 
z
M 2069 1613 
L 2069 3678 
L 634 1613 
L 2069 1613 
z
" transform="scale(0.015625)"/>
       </defs>
       <use xlink:href="#ArialMT-34"/>
       <use xlink:href="#ArialMT-30" x="55.615234"/>
      </g>
     </g>
    </g>
    <g id="text_10">
     <!-- Time (s) -->
     <g transform="translate(242.590508 205.739173) scale(0.1 -0.1)">
      <defs>
       <path id="ArialMT-54" d="M 1659 0 
L 1659 4041 
L 150 4041 
L 150 4581 
L 3781 4581 
L 3781 4041 
L 2266 4041 
L 2266 0 
L 1659 0 
z
" transform="scale(0.015625)"/>
       <path id="ArialMT-69" d="M 425 3934 
L 425 4581 
L 988 4581 
L 988 3934 
L 425 3934 
z
M 425 0 
L 425 3319 
L 988 3319 
L 988 0 
L 425 0 
z
" transform="scale(0.015625)"/>
       <path id="ArialMT-6d" d="M 422 0 
L 422 3319 
L 925 3319 
L 925 2853 
Q 1081 3097 1340 3245 
Q 1600 3394 1931 3394 
Q 2300 3394 2536 3241 
Q 2772 3088 2869 2813 
Q 3263 3394 3894 3394 
Q 4388 3394 4653 3120 
Q 4919 2847 4919 2278 
L 4919 0 
L 4359 0 
L 4359 2091 
Q 4359 2428 4304 2576 
Q 4250 2725 4106 2815 
Q 3963 2906 3769 2906 
Q 3419 2906 3187 2673 
Q 2956 2441 2956 1928 
L 2956 0 
L 2394 0 
L 2394 2156 
Q 2394 2531 2256 2718 
Q 2119 2906 1806 2906 
Q 1569 2906 1367 2781 
Q 1166 2656 1075 2415 
Q 984 2175 984 1722 
L 984 0 
L 422 0 
z
" transform="scale(0.015625)"/>
       <path id="ArialMT-65" d="M 2694 1069 
L 3275 997 
Q 3138 488 2766 206 
Q 2394 -75 1816 -75 
Q 1088 -75 661 373 
Q 234 822 234 1631 
Q 234 2469 665 2931 
Q 1097 3394 1784 3394 
Q 2450 3394 2872 2941 
Q 3294 2488 3294 1666 
Q 3294 1616 3291 1516 
L 816 1516 
Q 847 969 1125 678 
Q 1403 388 1819 388 
Q 2128 388 2347 550 
Q 2566 713 2694 1069 
z
M 847 1978 
L 2700 1978 
Q 2663 2397 2488 2606 
Q 2219 2931 1791 2931 
Q 1403 2931 1139 2672 
Q 875 2413 847 1978 
z
" transform="scale(0.015625)"/>
       <path id="ArialMT-20" transform="scale(0.015625)"/>
       <path id="ArialMT-28" d="M 1497 -1347 
Q 1031 -759 709 28 
Q 388 816 388 1659 
Q 388 2403 628 3084 
Q 909 3875 1497 4659 
L 1900 4659 
Q 1522 4009 1400 3731 
Q 1209 3300 1100 2831 
Q 966 2247 966 1656 
Q 966 153 1900 -1347 
L 1497 -1347 
z
" transform="scale(0.015625)"/>
       <path id="ArialMT-73" d="M 197 991 
L 753 1078 
Q 800 744 1014 566 
Q 1228 388 1613 388 
Q 2000 388 2187 545 
Q 2375 703 2375 916 
Q 2375 1106 2209 1216 
Q 2094 1291 1634 1406 
Q 1016 1563 777 1677 
Q 538 1791 414 1992 
Q 291 2194 291 2438 
Q 291 2659 392 2848 
Q 494 3038 669 3163 
Q 800 3259 1026 3326 
Q 1253 3394 1513 3394 
Q 1903 3394 2198 3281 
Q 2494 3169 2634 2976 
Q 2775 2784 2828 2463 
L 2278 2388 
Q 2241 2644 2061 2787 
Q 1881 2931 1553 2931 
Q 1166 2931 1000 2803 
Q 834 2675 834 2503 
Q 834 2394 903 2306 
Q 972 2216 1119 2156 
Q 1203 2125 1616 2013 
Q 2213 1853 2448 1751 
Q 2684 1650 2818 1456 
Q 2953 1263 2953 975 
Q 2953 694 2789 445 
Q 2625 197 2315 61 
Q 2006 -75 1616 -75 
Q 969 -75 630 194 
Q 291 463 197 991 
z
" transform="scale(0.015625)"/>
       <path id="ArialMT-29" d="M 791 -1347 
L 388 -1347 
Q 1322 153 1322 1656 
Q 1322 2244 1188 2822 
Q 1081 3291 891 3722 
Q 769 4003 388 4659 
L 791 4659 
Q 1378 3875 1659 3084 
Q 1900 2403 1900 1659 
Q 1900 816 1576 28 
Q 1253 -759 791 -1347 
z
" transform="scale(0.015625)"/>
      </defs>
      <use xlink:href="#ArialMT-54"/>
      <use xlink:href="#ArialMT-69" x="57.333984"/>
      <use xlink:href="#ArialMT-6d" x="79.550781"/>
      <use xlink:href="#ArialMT-65" x="162.851562"/>
      <use xlink:href="#ArialMT-20" x="218.466797"/>
      <use xlink:href="#ArialMT-28" x="246.25"/>
      <use xlink:href="#ArialMT-73" x="279.550781"/>
      <use xlink:href="#ArialMT-29" x="329.550781"/>
     </g>
    </g>
   </g>
   <g id="matplotlib.axis_2">
    <g id="ytick_1">
     <g id="line2d_19">
      <path d="M 41.046875 164.352756 
L 480.416954 164.352756 
" clip-path="url(#pb003bf3cf3)" style="fill: none; stroke: #b0b0b0; stroke-width: 0.8; stroke-linecap: square"/>
     </g>
     <g id="line2d_20">
      <defs>
       <path id="m1808e2c49b" d="M 0 0 
L 3.5 0 
" style="stroke: #000000; stroke-width: 0.8"/>
      </defs>
      <g>
       <use xlink:href="#m1808e2c49b" x="41.046875" y="164.352756" style="stroke: #000000; stroke-width: 0.8"/>
      </g>
     </g>
     <g id="text_11">
      <!-- −40 -->
      <g transform="translate(20.584375 167.931662) scale(0.1 -0.1)">
       <defs>
        <path id="ArialMT-2212" d="M 3381 1997 
L 356 1997 
L 356 2522 
L 3381 2522 
L 3381 1997 
z
" transform="scale(0.015625)"/>
       </defs>
       <use xlink:href="#ArialMT-2212"/>
       <use xlink:href="#ArialMT-34" x="58.398438"/>
       <use xlink:href="#ArialMT-30" x="114.013672"/>
      </g>
     </g>
    </g>
    <g id="ytick_2">
     <g id="line2d_21">
      <path d="M 41.046875 129.429921 
L 480.416954 129.429921 
" clip-path="url(#pb003bf3cf3)" style="fill: none; stroke: #b0b0b0; stroke-width: 0.8; stroke-linecap: square"/>
     </g>
     <g id="line2d_22">
      <g>
       <use xlink:href="#m1808e2c49b" x="41.046875" y="129.429921" style="stroke: #000000; stroke-width: 0.8"/>
      </g>
     </g>
     <g id="text_12">
      <!-- −20 -->
      <g transform="translate(20.584375 133.008828) scale(0.1 -0.1)">
       <use xlink:href="#ArialMT-2212"/>
       <use xlink:href="#ArialMT-32" x="58.398438"/>
       <use xlink:href="#ArialMT-30" x="114.013672"/>
      </g>
     </g>
    </g>
    <g id="ytick_3">
     <g id="line2d_23">
      <path d="M 41.046875 94.507087 
L 480.416954 94.507087 
" clip-path="url(#pb003bf3cf3)" style="fill: none; stroke: #b0b0b0; stroke-width: 0.8; stroke-linecap: square"/>
     </g>
     <g id="line2d_24">
      <g>
       <use xlink:href="#m1808e2c49b" x="41.046875" y="94.507087" style="stroke: #000000; stroke-width: 0.8"/>
      </g>
     </g>
     <g id="text_13">
      <!-- 0 -->
      <g transform="translate(31.985938 98.085993) scale(0.1 -0.1)">
       <use xlink:href="#ArialMT-30"/>
      </g>
     </g>
    </g>
    <g id="ytick_4">
     <g id="line2d_25">
      <path d="M 41.046875 59.584252 
L 480.416954 59.584252 
" clip-path="url(#pb003bf3cf3)" style="fill: none; stroke: #b0b0b0; stroke-width: 0.8; stroke-linecap: square"/>
     </g>
     <g id="line2d_26">
      <g>
       <use xlink:href="#m1808e2c49b" x="41.046875" y="59.584252" style="stroke: #000000; stroke-width: 0.8"/>
      </g>
     </g>
     <g id="text_14">
      <!-- 20 -->
      <g transform="translate(26.425 63.163158) scale(0.1 -0.1)">
       <use xlink:href="#ArialMT-32"/>
       <use xlink:href="#ArialMT-30" x="55.615234"/>
      </g>
     </g>
    </g>
    <g id="ytick_5">
     <g id="line2d_27">
      <path d="M 41.046875 24.661417 
L 480.416954 24.661417 
" clip-path="url(#pb003bf3cf3)" style="fill: none; stroke: #b0b0b0; stroke-width: 0.8; stroke-linecap: square"/>
     </g>
     <g id="line2d_28">
      <g>
       <use xlink:href="#m1808e2c49b" x="41.046875" y="24.661417" style="stroke: #000000; stroke-width: 0.8"/>
      </g>
     </g>
     <g id="text_15">
      <!-- 40 -->
      <g transform="translate(26.425 28.240324) scale(0.1 -0.1)">
       <use xlink:href="#ArialMT-34"/>
       <use xlink:href="#ArialMT-30" x="55.615234"/>
      </g>
     </g>
    </g>
    <g id="text_16">
     <!-- Displacement (cm) -->
     <g transform="translate(14.479688 136.179743) rotate(-90) scale(0.1 -0.1)">
      <defs>
       <path id="ArialMT-44" d="M 494 0 
L 494 4581 
L 2072 4581 
Q 2606 4581 2888 4516 
Q 3281 4425 3559 4188 
Q 3922 3881 4101 3404 
Q 4281 2928 4281 2316 
Q 4281 1794 4159 1391 
Q 4038 988 3847 723 
Q 3656 459 3429 307 
Q 3203 156 2883 78 
Q 2563 0 2147 0 
L 494 0 
z
M 1100 541 
L 2078 541 
Q 2531 541 2789 625 
Q 3047 709 3200 863 
Q 3416 1078 3536 1442 
Q 3656 1806 3656 2325 
Q 3656 3044 3420 3430 
Q 3184 3816 2847 3947 
Q 2603 4041 2063 4041 
L 1100 4041 
L 1100 541 
z
" transform="scale(0.015625)"/>
       <path id="ArialMT-70" d="M 422 -1272 
L 422 3319 
L 934 3319 
L 934 2888 
Q 1116 3141 1344 3267 
Q 1572 3394 1897 3394 
Q 2322 3394 2647 3175 
Q 2972 2956 3137 2557 
Q 3303 2159 3303 1684 
Q 3303 1175 3120 767 
Q 2938 359 2589 142 
Q 2241 -75 1856 -75 
Q 1575 -75 1351 44 
Q 1128 163 984 344 
L 984 -1272 
L 422 -1272 
z
M 931 1641 
Q 931 1000 1190 694 
Q 1450 388 1819 388 
Q 2194 388 2461 705 
Q 2728 1022 2728 1688 
Q 2728 2322 2467 2637 
Q 2206 2953 1844 2953 
Q 1484 2953 1207 2617 
Q 931 2281 931 1641 
z
" transform="scale(0.015625)"/>
       <path id="ArialMT-6c" d="M 409 0 
L 409 4581 
L 972 4581 
L 972 0 
L 409 0 
z
" transform="scale(0.015625)"/>
       <path id="ArialMT-61" d="M 2588 409 
Q 2275 144 1986 34 
Q 1697 -75 1366 -75 
Q 819 -75 525 192 
Q 231 459 231 875 
Q 231 1119 342 1320 
Q 453 1522 633 1644 
Q 813 1766 1038 1828 
Q 1203 1872 1538 1913 
Q 2219 1994 2541 2106 
Q 2544 2222 2544 2253 
Q 2544 2597 2384 2738 
Q 2169 2928 1744 2928 
Q 1347 2928 1158 2789 
Q 969 2650 878 2297 
L 328 2372 
Q 403 2725 575 2942 
Q 747 3159 1072 3276 
Q 1397 3394 1825 3394 
Q 2250 3394 2515 3294 
Q 2781 3194 2906 3042 
Q 3031 2891 3081 2659 
Q 3109 2516 3109 2141 
L 3109 1391 
Q 3109 606 3145 398 
Q 3181 191 3288 0 
L 2700 0 
Q 2613 175 2588 409 
z
M 2541 1666 
Q 2234 1541 1622 1453 
Q 1275 1403 1131 1340 
Q 988 1278 909 1158 
Q 831 1038 831 891 
Q 831 666 1001 516 
Q 1172 366 1500 366 
Q 1825 366 2078 508 
Q 2331 650 2450 897 
Q 2541 1088 2541 1459 
L 2541 1666 
z
" transform="scale(0.015625)"/>
       <path id="ArialMT-63" d="M 2588 1216 
L 3141 1144 
Q 3050 572 2676 248 
Q 2303 -75 1759 -75 
Q 1078 -75 664 370 
Q 250 816 250 1647 
Q 250 2184 428 2587 
Q 606 2991 970 3192 
Q 1334 3394 1763 3394 
Q 2303 3394 2647 3120 
Q 2991 2847 3088 2344 
L 2541 2259 
Q 2463 2594 2264 2762 
Q 2066 2931 1784 2931 
Q 1359 2931 1093 2626 
Q 828 2322 828 1663 
Q 828 994 1084 691 
Q 1341 388 1753 388 
Q 2084 388 2306 591 
Q 2528 794 2588 1216 
z
" transform="scale(0.015625)"/>
       <path id="ArialMT-6e" d="M 422 0 
L 422 3319 
L 928 3319 
L 928 2847 
Q 1294 3394 1984 3394 
Q 2284 3394 2536 3286 
Q 2788 3178 2913 3003 
Q 3038 2828 3088 2588 
Q 3119 2431 3119 2041 
L 3119 0 
L 2556 0 
L 2556 2019 
Q 2556 2363 2490 2533 
Q 2425 2703 2258 2804 
Q 2091 2906 1866 2906 
Q 1506 2906 1245 2678 
Q 984 2450 984 1813 
L 984 0 
L 422 0 
z
" transform="scale(0.015625)"/>
       <path id="ArialMT-74" d="M 1650 503 
L 1731 6 
Q 1494 -44 1306 -44 
Q 1000 -44 831 53 
Q 663 150 594 308 
Q 525 466 525 972 
L 525 2881 
L 113 2881 
L 113 3319 
L 525 3319 
L 525 4141 
L 1084 4478 
L 1084 3319 
L 1650 3319 
L 1650 2881 
L 1084 2881 
L 1084 941 
Q 1084 700 1114 631 
Q 1144 563 1211 522 
Q 1278 481 1403 481 
Q 1497 481 1650 503 
z
" transform="scale(0.015625)"/>
      </defs>
      <use xlink:href="#ArialMT-44"/>
      <use xlink:href="#ArialMT-69" x="72.216797"/>
      <use xlink:href="#ArialMT-73" x="94.433594"/>
      <use xlink:href="#ArialMT-70" x="144.433594"/>
      <use xlink:href="#ArialMT-6c" x="200.048828"/>
      <use xlink:href="#ArialMT-61" x="222.265625"/>
      <use xlink:href="#ArialMT-63" x="277.880859"/>
      <use xlink:href="#ArialMT-65" x="327.880859"/>
      <use xlink:href="#ArialMT-6d" x="383.496094"/>
      <use xlink:href="#ArialMT-65" x="466.796875"/>
      <use xlink:href="#ArialMT-6e" x="522.412109"/>
      <use xlink:href="#ArialMT-74" x="578.027344"/>
      <use xlink:href="#ArialMT-20" x="605.810547"/>
      <use xlink:href="#ArialMT-28" x="633.59375"/>
      <use xlink:href="#ArialMT-63" x="666.894531"/>
      <use xlink:href="#ArialMT-6d" x="716.894531"/>
      <use xlink:href="#ArialMT-29" x="800.195312"/>
     </g>
    </g>
   </g>
   <g id="line2d_29">
    <path d="M 41.046875 94.507087 
L 43.243725 94.609668 
L 44.891363 94.926134 
L 47.088214 95.558649 
L 49.285064 95.806738 
L 50.932702 95.68888 
L 52.58034 95.19476 
L 53.678765 95.448787 
L 54.227977 95.83499 
L 55.326403 96.988169 
L 58.072466 98.196806 
L 58.621678 98.198854 
L 59.720103 98.967906 
L 60.818529 99.893685 
L 61.916954 99.821529 
L 62.466166 99.58381 
L 63.564592 98.512214 
L 65.212229 96.352031 
L 66.310655 95.734127 
L 66.859867 95.2379 
L 67.40908 94.319421 
L 68.507505 90.955403 
L 69.60593 86.567908 
L 70.155143 84.908847 
L 70.704355 84.138083 
L 71.253568 83.981646 
L 71.802781 84.128087 
L 72.351993 84.733902 
L 74.548844 90.929896 
L 76.745694 100.464178 
L 78.942544 105.486389 
L 80.040969 109.216253 
L 80.590182 111.346 
L 81.139395 112.863498 
L 81.688607 113.10397 
L 82.23782 112.416919 
L 82.787032 110.787185 
L 83.336245 108.150021 
L 84.43467 102.185564 
L 84.983883 100.561908 
L 85.533095 99.750239 
L 86.082308 99.641944 
L 86.631521 99.359552 
L 87.180733 98.207805 
L 87.729946 96.322833 
L 88.279158 93.974966 
L 88.828371 91.058729 
L 89.377584 87.426724 
L 89.926796 84.876328 
L 90.476009 83.648244 
L 91.025221 83.557089 
L 92.123647 85.050428 
L 92.672859 86.44089 
L 93.222072 87.433358 
L 93.771284 87.493852 
L 94.320497 87.670519 
L 94.86971 88.235959 
L 95.418922 89.210488 
L 97.615773 100.76383 
L 98.164985 104.171517 
L 98.714198 106.732764 
L 99.26341 107.636914 
L 100.361836 107.470054 
L 100.911048 107.744572 
L 101.460261 107.420187 
L 102.009473 106.237058 
L 102.558686 105.487241 
L 103.107899 105.080457 
L 104.755536 102.367576 
L 106.403174 98.373352 
L 108.050812 91.811404 
L 109.69845 86.063388 
L 110.247662 84.66168 
L 110.796875 84.731119 
L 111.346088 84.937946 
L 111.8953 85.754466 
L 112.993725 86.743256 
L 114.092151 86.587597 
L 114.641363 86.555679 
L 115.190576 86.75171 
L 115.739788 88.13311 
L 116.289001 90.794727 
L 116.838214 94.682291 
L 119.035064 113.904706 
L 119.584277 116.221514 
L 120.133489 117.749424 
L 120.682702 118.751626 
L 121.231914 118.548994 
L 121.781127 118.022645 
L 122.33034 117.156612 
L 122.879552 115.114499 
L 123.428765 112.067228 
L 124.52719 103.951104 
L 126.174828 91.846271 
L 126.72404 89.290671 
L 127.822466 86.001214 
L 130.019316 73.490724 
L 130.568529 71.340035 
L 131.117741 70.683706 
L 131.666954 71.618353 
L 132.765379 75.166138 
L 133.863804 79.978279 
L 134.962229 83.931529 
L 135.511442 86.586212 
L 137.15908 97.118231 
L 137.708292 99.873134 
L 138.257505 101.424196 
L 138.806718 102.290323 
L 139.35593 102.692871 
L 139.905143 102.860913 
L 140.454355 104.449621 
L 141.552781 107.998724 
L 142.101993 109.172963 
L 142.651206 109.339368 
L 143.200418 108.390542 
L 143.749631 106.159569 
L 145.397269 93.925693 
L 145.946481 91.169446 
L 146.495694 89.219211 
L 147.044906 89.153229 
L 148.143332 91.080029 
L 148.692544 91.343979 
L 149.241757 91.171778 
L 150.340182 91.631819 
L 150.889395 91.447725 
L 151.438607 91.650829 
L 151.98782 92.62076 
L 154.18467 100.021231 
L 154.733883 101.556624 
L 156.381521 108.865005 
L 156.930733 109.825934 
L 157.479946 109.646174 
L 158.029158 107.928291 
L 158.578371 104.316981 
L 159.676796 94.559762 
L 160.226009 91.505501 
L 161.324434 88.923941 
L 161.873647 88.749888 
L 162.422859 89.448031 
L 162.972072 89.902249 
L 163.521284 88.844483 
L 164.070497 86.960327 
L 164.61971 85.606443 
L 165.168922 85.544409 
L 166.267347 86.48097 
L 167.365773 90.135425 
L 168.464198 95.434423 
L 169.01341 97.764578 
L 169.562623 101.325469 
L 171.759473 121.434291 
L 172.308686 124.704746 
L 172.857899 126.823548 
L 173.407111 126.586739 
L 174.505536 122.339171 
L 175.054749 119.756586 
L 175.603962 117.846855 
L 176.153174 116.786435 
L 176.702387 114.618557 
L 177.251599 111.661896 
L 177.800812 108.018085 
L 178.899237 96.210254 
L 180.546875 75.991884 
L 181.096088 71.389576 
L 181.6453 67.840727 
L 182.743725 62.764064 
L 183.842151 59.375246 
L 184.940576 57.755018 
L 185.489788 57.333756 
L 186.039001 58.391996 
L 187.137426 64.705697 
L 188.235851 72.526427 
L 189.883489 85.692353 
L 190.981914 94.927649 
L 192.629552 108.686337 
L 194.27719 122.6461 
L 195.375615 128.702273 
L 195.924828 130.496331 
L 196.47404 130.609858 
L 197.023253 127.953543 
L 198.121678 119.559493 
L 200.867741 94.211677 
L 203.613804 63.726659 
L 204.163017 59.955323 
L 204.712229 57.603906 
L 205.261442 56.162179 
L 205.810655 55.827806 
L 206.359867 55.641262 
L 206.90908 56.099995 
L 208.007505 59.467648 
L 208.556718 62.407674 
L 209.10593 67.003902 
L 214.598056 125.522704 
L 215.696481 134.815148 
L 216.245694 138.126439 
L 216.794906 140.412625 
L 217.344119 141.799072 
L 217.893332 140.426553 
L 218.991757 132.629127 
L 219.540969 127.360731 
L 221.73782 102.057752 
L 222.836245 90.259346 
L 225.033095 60.624517 
L 225.582308 55.138596 
L 226.131521 51.23416 
L 226.680733 49.191187 
L 227.229946 48.006065 
L 227.779158 47.751045 
L 228.328371 49.157662 
L 228.877584 52.170527 
L 229.426796 56.306316 
L 229.976009 62.18904 
L 230.525221 70.304732 
L 232.722072 109.447503 
L 233.820497 125.129705 
L 235.468135 144.908531 
L 236.56656 154.238437 
L 237.115773 156.795076 
L 237.664985 157.773051 
L 238.214198 156.811829 
L 238.76341 154.099729 
L 239.312623 149.793231 
L 239.861836 143.944598 
L 240.411048 136.356624 
L 242.058686 106.616564 
L 243.157111 86.778653 
L 244.255536 70.940673 
L 245.903174 51.577238 
L 247.001599 41.373079 
L 247.550812 37.991401 
L 248.100025 35.999735 
L 248.649237 35.100566 
L 249.19845 36.944865 
L 249.747662 40.842853 
L 250.296875 45.764554 
L 251.3953 60.509292 
L 254.141363 102.704822 
L 255.789001 122.085948 
L 256.887426 132.569072 
L 257.436639 136.416726 
L 257.985851 138.801425 
L 258.535064 139.720453 
L 259.084277 138.818794 
L 259.633489 136.194705 
L 260.182702 132.349139 
L 261.281127 121.091875 
L 265.125615 69.948412 
L 266.22404 59.976875 
L 267.322466 53.264713 
L 268.420891 47.846784 
L 268.970103 46.728634 
L 269.519316 47.230951 
L 270.068529 49.396939 
L 270.617741 54.128258 
L 271.716166 67.396638 
L 272.814592 81.721053 
L 274.462229 100.053095 
L 276.65908 123.818607 
L 277.208292 128.53828 
L 277.757505 130.981425 
L 278.306718 131.697753 
L 278.85593 130.787537 
L 279.405143 129.525303 
L 281.052781 122.625811 
L 281.601993 120.199165 
L 282.151206 116.589909 
L 283.249631 106.073852 
L 285.446481 80.613471 
L 286.544906 69.99757 
L 287.094119 66.029934 
L 287.643332 63.146533 
L 288.192544 61.435241 
L 288.741757 61.249696 
L 289.290969 63.690667 
L 290.938607 76.710977 
L 292.037032 85.013586 
L 293.135458 90.648397 
L 293.68467 94.832165 
L 295.881521 116.353147 
L 296.430733 118.927309 
L 296.979946 119.935064 
L 297.529158 119.374379 
L 298.627584 115.339158 
L 301.922859 101.916979 
L 302.472072 100.73006 
L 303.021284 100.158871 
L 304.668922 100.403952 
L 305.218135 98.970709 
L 306.31656 92.786916 
L 306.865773 90.889474 
L 307.414985 89.757186 
L 307.964198 88.989961 
L 308.51341 88.978059 
L 309.611836 89.536984 
L 310.161048 88.057857 
L 311.259473 84.43388 
L 311.808686 83.236805 
L 312.357899 82.446609 
L 312.907111 82.36341 
L 313.456324 82.653954 
L 314.005536 82.741537 
L 314.554749 82.342603 
L 315.103962 81.798895 
L 315.653174 82.055427 
L 316.202387 82.892653 
L 316.751599 84.478796 
L 321.1453 107.645853 
L 322.243725 114.520617 
L 322.792938 115.567607 
L 323.342151 115.388825 
L 323.891363 114.986288 
L 324.440576 114.184659 
L 326.088214 109.862268 
L 326.637426 107.676353 
L 327.186639 103.478756 
L 329.383489 80.683168 
L 329.932702 76.63089 
L 330.481914 73.799485 
L 331.031127 72.217019 
L 331.58034 71.057275 
L 332.678765 67.482995 
L 333.227977 66.525832 
L 333.77719 66.435352 
L 334.326403 67.248143 
L 335.424828 71.278469 
L 337.621678 81.6686 
L 338.170891 85.25079 
L 339.269316 94.710065 
L 340.916954 108.751585 
L 341.466166 112.256221 
L 343.113804 120.560386 
L 343.663017 122.565326 
L 344.212229 122.859612 
L 344.761442 121.458051 
L 345.310655 118.628878 
L 345.859867 114.600279 
L 347.507505 99.086814 
L 348.60593 91.653403 
L 350.253568 77.955406 
L 351.351993 68.237055 
L 351.901206 64.505703 
L 352.450418 63.087076 
L 352.999631 63.483456 
L 353.548844 64.986711 
L 354.098056 67.334709 
L 354.647269 70.577205 
L 355.196481 74.649439 
L 355.745694 79.699847 
L 356.844119 93.043766 
L 358.491757 115.20304 
L 359.040969 120.503482 
L 359.590182 124.274978 
L 360.139395 126.922167 
L 361.23782 130.237415 
L 361.787032 131.473793 
L 362.336245 132.393857 
L 362.885458 132.233614 
L 363.43467 129.991131 
L 363.983883 125.768691 
L 364.533095 119.978625 
L 367.828371 78.976819 
L 368.926796 68.563366 
L 370.025221 60.842825 
L 370.574434 58.867079 
L 371.123647 57.879988 
L 371.672859 57.186148 
L 372.222072 56.760886 
L 372.771284 56.717144 
L 373.320497 57.093613 
L 373.86971 58.233844 
L 374.418922 60.193794 
L 374.968135 63.73777 
L 376.06656 75.534996 
L 378.812623 106.750267 
L 380.460261 123.114855 
L 381.009473 127.195288 
L 381.558686 130.223067 
L 382.107899 132.003539 
L 382.657111 132.788072 
L 383.206324 132.561302 
L 383.755536 131.697676 
L 384.304749 130.18454 
L 384.853962 128.054747 
L 385.403174 124.786687 
L 385.952387 120.34109 
L 387.050812 108.832572 
L 389.247662 83.398901 
L 390.346088 73.960984 
L 390.8953 69.984866 
L 391.444513 67.150008 
L 391.993725 65.070207 
L 392.542938 63.808759 
L 393.092151 63.387211 
L 393.641363 63.756147 
L 394.190576 64.849757 
L 394.739788 66.522272 
L 395.289001 68.769003 
L 395.838214 71.969494 
L 396.936639 81.19695 
L 400.231914 116.884367 
L 400.781127 121.049187 
L 401.33034 124.263741 
L 401.879552 126.712003 
L 402.428765 128.522736 
L 402.977977 129.203834 
L 403.52719 128.406438 
L 404.076403 126.443561 
L 404.625615 123.562151 
L 405.72404 115.55202 
L 407.920891 94.253609 
L 410.666954 66.340533 
L 411.216166 62.442098 
L 411.765379 59.677762 
L 412.314592 58.613541 
L 412.863804 59.176282 
L 413.413017 60.841696 
L 413.962229 63.336558 
L 415.060655 70.798439 
L 419.454355 105.497872 
L 421.101993 116.439011 
L 421.651206 118.92528 
L 422.200418 120.238251 
L 422.749631 120.665013 
L 423.298844 119.9688 
L 423.848056 117.991948 
L 424.397269 115.120605 
L 426.594119 100.740263 
L 429.889395 75.821597 
L 430.438607 72.799937 
L 430.98782 70.410805 
L 431.537032 68.773309 
L 432.086245 67.685461 
L 432.635458 67.090106 
L 433.18467 67.251478 
L 433.733883 68.370433 
L 434.283095 70.765911 
L 434.832308 74.21455 
L 435.930733 83.375655 
L 437.029158 93.581089 
L 438.127584 101.653978 
L 439.775221 111.479703 
L 440.873647 116.166759 
L 441.422859 117.888508 
L 441.972072 118.877555 
L 442.521284 118.916695 
L 443.070497 118.024619 
L 443.61971 116.598596 
L 444.168922 114.667161 
L 444.718135 112.036921 
L 445.81656 104.450299 
L 446.914985 94.654873 
L 448.01341 84.411973 
L 449.111836 76.862535 
L 449.661048 74.156986 
L 450.210261 72.196235 
L 450.759473 70.667084 
L 451.308686 69.48426 
L 451.857899 68.797585 
L 452.407111 68.811465 
L 452.956324 69.669236 
L 453.505536 71.189758 
L 454.054749 73.571174 
L 455.153174 80.672685 
L 456.800812 92.419461 
L 458.997662 109.170237 
L 459.546875 112.69802 
L 460.096088 115.295861 
L 460.6453 117.010624 
L 461.194513 117.950913 
L 461.743725 118.165847 
L 462.292938 117.710997 
L 462.842151 116.832656 
L 463.391363 115.621842 
L 463.940576 113.922221 
L 464.489788 111.547039 
L 465.039001 108.449813 
L 466.137426 100.523226 
L 467.785064 88.156874 
L 468.883489 81.192111 
L 469.981914 75.631838 
L 470.531127 73.475895 
L 471.08034 72.060171 
L 471.629552 71.434188 
L 472.178765 71.739295 
L 472.727977 72.934299 
L 473.826403 76.8291 
L 474.924828 81.558968 
L 476.023253 86.95201 
L 477.121678 93.873367 
L 478.769316 104.690747 
L 479.867741 109.795552 
L 479.867741 109.795552 
" clip-path="url(#pb003bf3cf3)" style="fill: none; stroke: #000000; stroke-width: 1.2; stroke-linecap: square"/>
   </g>
   <g id="line2d_30">
    <path d="M 41.046875 94.304324 
L 42.694513 94.310018 
L 44.342151 94.545962 
L 45.989788 94.99791 
L 47.088214 95.269096 
L 49.285064 95.486265 
L 50.932702 95.313758 
L 52.031127 94.85128 
L 52.58034 94.803256 
L 53.678765 95.052267 
L 54.227977 95.410938 
L 55.326403 96.624713 
L 56.424828 97.00204 
L 58.072466 97.83369 
L 58.621678 97.812757 
L 59.170891 98.041764 
L 59.720103 98.426689 
L 60.818529 99.38783 
L 61.367741 99.508462 
L 61.916954 99.347776 
L 62.466166 99.039386 
L 64.113804 97.270616 
L 64.663017 96.244121 
L 65.212229 95.801018 
L 65.761442 95.598721 
L 66.859867 94.781342 
L 67.40908 93.651758 
L 68.507505 90.190781 
L 70.155143 83.916371 
L 70.704355 83.251876 
L 71.253568 83.074632 
L 71.802781 83.071507 
L 72.351993 83.674221 
L 74.548844 89.984011 
L 76.745694 99.263487 
L 77.294906 100.705285 
L 78.393332 102.753772 
L 79.491757 106.060457 
L 80.590182 110.411053 
L 81.139395 111.571383 
L 81.688607 111.832506 
L 82.23782 111.329411 
L 82.787032 109.683998 
L 84.43467 100.941774 
L 84.983883 99.250719 
L 85.533095 98.422407 
L 86.631521 98.216692 
L 87.180733 97.213966 
L 88.279158 92.851656 
L 89.926796 83.585899 
L 90.476009 82.295814 
L 91.025221 82.308699 
L 91.574434 83.439917 
L 92.123647 84.011933 
L 92.672859 84.877501 
L 93.222072 86.012986 
L 93.771284 86.150155 
L 94.320497 86.490894 
L 95.418922 87.598177 
L 96.517347 93.622368 
L 97.06656 96.833051 
L 98.164985 102.029108 
L 98.714198 104.782354 
L 99.26341 105.879846 
L 100.361836 105.442796 
L 100.911048 105.69315 
L 101.460261 105.475234 
L 102.558686 103.422521 
L 103.107899 103.088484 
L 104.206324 101.141206 
L 104.755536 100.723364 
L 105.304749 99.233981 
L 105.853962 97.400584 
L 106.403174 95.986557 
L 109.69845 83.858206 
L 110.247662 82.464829 
L 110.796875 82.116027 
L 111.346088 82.452442 
L 111.8953 83.496448 
L 112.993725 84.84854 
L 113.542938 84.491725 
L 114.641363 84.057268 
L 115.190576 84.713345 
L 115.739788 85.884299 
L 116.289001 88.663523 
L 116.838214 92.406883 
L 117.387426 97.169221 
L 118.485851 108.039971 
L 119.035064 112.54106 
L 119.584277 114.765589 
L 120.133489 116.359355 
L 120.682702 117.395799 
L 121.231914 116.96725 
L 121.781127 116.17107 
L 122.33034 115.982465 
L 122.879552 114.028822 
L 123.428765 110.924938 
L 123.977977 107.135354 
L 125.625615 94.106412 
L 126.174828 90.378496 
L 126.72404 88.174353 
L 127.822466 84.713381 
L 130.019316 71.783328 
L 130.568529 70.039113 
L 131.117741 69.546891 
L 131.666954 70.137444 
L 132.765379 73.732812 
L 134.413017 80.623726 
L 135.511442 85.250439 
L 136.609867 92.614573 
L 137.708292 98.722185 
L 138.806718 101.054131 
L 139.35593 101.458582 
L 139.905143 101.231016 
L 140.454355 102.732028 
L 142.101993 108.304043 
L 142.651206 108.091493 
L 143.200418 106.945552 
L 143.749631 104.45987 
L 144.848056 95.884838 
L 145.397269 92.171663 
L 145.946481 89.315726 
L 146.495694 87.556441 
L 147.044906 86.991537 
L 148.143332 89.305889 
L 149.241757 89.435953 
L 149.790969 89.753499 
L 150.889395 89.741569 
L 151.438607 89.877362 
L 151.98782 90.956336 
L 152.537032 92.91425 
L 153.086245 94.220944 
L 154.18467 98.516854 
L 154.733883 99.054855 
L 156.381521 106.829566 
L 156.930733 108.296502 
L 157.479946 107.897514 
L 158.029158 105.916496 
L 158.578371 102.373487 
L 159.676796 92.446366 
L 160.226009 89.316149 
L 161.324434 87.300964 
L 161.873647 86.821797 
L 162.972072 88.216609 
L 164.070497 84.746823 
L 164.61971 83.640422 
L 165.168922 83.248802 
L 165.718135 83.553781 
L 166.267347 84.400238 
L 167.365773 87.684748 
L 167.914985 90.895511 
L 168.464198 93.182508 
L 169.01341 96.062752 
L 169.562623 99.873281 
L 170.661048 110.022957 
L 171.210261 115.654909 
L 171.759473 119.952752 
L 172.308686 123.016512 
L 172.857899 125.16622 
L 173.407111 124.182364 
L 173.956324 122.785388 
L 174.505536 120.940279 
L 175.054749 117.949781 
L 176.153174 115.127111 
L 176.702387 113.537296 
L 177.800812 107.040227 
L 179.44845 88.363155 
L 180.546875 74.906812 
L 181.096088 70.553217 
L 182.194513 64.342995 
L 183.292938 60.402686 
L 183.842151 58.438267 
L 184.391363 57.625255 
L 184.940576 57.703312 
L 185.489788 56.826437 
L 186.039001 57.945033 
L 186.588214 61.269572 
L 187.137426 63.885524 
L 187.686639 68.526441 
L 188.235851 71.874617 
L 194.826403 125.203362 
L 195.375615 128.592397 
L 195.924828 129.97264 
L 196.47404 129.569489 
L 197.572466 123.406713 
L 201.416954 86.742849 
L 202.515379 73.295645 
L 203.613804 61.821782 
L 204.163017 58.278706 
L 204.712229 55.569073 
L 205.261442 54.500012 
L 205.810655 53.767419 
L 206.359867 53.664849 
L 206.90908 54.214908 
L 208.007505 56.950079 
L 208.556718 59.966907 
L 209.10593 64.805778 
L 211.302781 88.348481 
L 212.950418 105.820901 
L 214.598056 123.009761 
L 215.696481 132.302069 
L 216.245694 135.696369 
L 216.794906 137.865328 
L 217.344119 139.195776 
L 217.893332 137.954832 
L 218.991757 130.098273 
L 220.639395 111.640515 
L 221.188607 104.678128 
L 222.836245 87.327364 
L 225.033095 57.841584 
L 225.582308 52.362397 
L 226.131521 48.953819 
L 226.680733 46.368477 
L 227.229946 45.098291 
L 227.779158 45.476096 
L 228.328371 46.124878 
L 228.877584 49.183337 
L 229.426796 53.585097 
L 229.976009 59.61059 
L 230.525221 67.346869 
L 232.722072 106.538806 
L 233.820497 122.03742 
L 235.468135 142.130677 
L 236.56656 151.054305 
L 237.115773 153.91805 
L 237.664985 154.839892 
L 238.214198 154.210195 
L 238.76341 151.448923 
L 239.312623 146.923318 
L 239.861836 141.378357 
L 240.960261 124.360063 
L 243.706324 76.450304 
L 244.804749 62.033056 
L 246.452387 44.690784 
L 247.001599 40.090963 
L 247.550812 36.486941 
L 248.100025 33.934931 
L 248.649237 33.428202 
L 249.19845 35.97022 
L 249.747662 39.391131 
L 250.296875 44.632507 
L 250.846088 51.363556 
L 254.141363 102.095095 
L 256.338214 127.025972 
L 256.887426 132.229151 
L 257.436639 135.884409 
L 257.985851 138.316457 
L 258.535064 139.387367 
L 259.084277 138.804442 
L 259.633489 136.268992 
L 260.182702 132.518278 
L 260.731914 127.272826 
L 262.379552 106.343102 
L 264.576403 75.826754 
L 265.674828 64.979404 
L 266.22404 59.950357 
L 266.773253 56.057688 
L 267.322466 53.610739 
L 267.871678 50.139714 
L 268.420891 47.566522 
L 268.970103 46.782958 
L 269.519316 47.187354 
L 270.068529 49.403736 
L 270.617741 53.974749 
L 271.716166 68.296358 
L 273.363804 88.517494 
L 275.011442 106.737607 
L 276.65908 124.022873 
L 277.208292 128.614911 
L 277.757505 131.615433 
L 278.306718 132.438573 
L 279.405143 130.248239 
L 280.503568 124.791689 
L 281.601993 120.670832 
L 282.151206 116.839756 
L 282.700418 112.169833 
L 283.798844 99.545257 
L 284.897269 86.723065 
L 286.544906 70.180468 
L 287.094119 65.812056 
L 287.643332 62.858844 
L 288.192544 61.074861 
L 288.741757 60.867191 
L 289.290969 63.762425 
L 292.037032 85.088059 
L 292.586245 87.505487 
L 293.135458 90.466211 
L 293.68467 94.759711 
L 294.233883 100.13228 
L 295.332308 112.641305 
L 295.881521 117.2683 
L 296.430733 119.289508 
L 296.979946 120.244684 
L 297.529158 119.785103 
L 298.078371 117.976841 
L 299.176796 113.08584 
L 299.726009 111.407982 
L 300.824434 106.738054 
L 301.373647 103.692902 
L 301.922859 101.99668 
L 302.472072 100.699787 
L 303.021284 100.142528 
L 303.570497 100.62638 
L 304.11971 100.528509 
L 304.668922 100.621579 
L 305.218135 98.987693 
L 306.31656 92.819251 
L 307.414985 90.197885 
L 307.964198 89.412407 
L 308.51341 89.378093 
L 309.062623 89.952568 
L 309.611836 90.21718 
L 310.710261 86.516127 
L 311.259473 84.673264 
L 311.808686 83.449471 
L 312.357899 82.730923 
L 312.907111 82.616541 
L 313.456324 82.968418 
L 314.005536 82.86644 
L 314.554749 82.442048 
L 315.103962 82.284795 
L 315.653174 82.816545 
L 316.202387 83.145862 
L 316.751599 84.74654 
L 317.850025 91.080623 
L 318.94845 95.824616 
L 320.046875 102.272003 
L 321.1453 108.267274 
L 321.694513 112.391519 
L 322.243725 115.587778 
L 322.792938 116.643798 
L 323.342151 116.423306 
L 323.891363 116.455019 
L 324.440576 115.565573 
L 325.539001 112.34567 
L 326.088214 111.242538 
L 326.637426 108.877727 
L 327.186639 104.338433 
L 329.383489 81.698497 
L 329.932702 77.966245 
L 330.481914 75.215179 
L 332.678765 68.871236 
L 333.227977 67.954277 
L 333.77719 67.27837 
L 334.326403 68.259759 
L 335.97404 74.754105 
L 337.621678 82.580505 
L 338.170891 85.954919 
L 339.818529 100.25578 
L 340.916954 109.505319 
L 342.015379 115.853026 
L 343.663017 123.389581 
L 344.212229 123.610031 
L 344.761442 122.214361 
L 345.310655 119.410042 
L 345.859867 115.413358 
L 347.507505 99.775028 
L 348.60593 92.247815 
L 349.704355 83.50427 
L 351.901206 64.982165 
L 352.450418 63.194059 
L 352.999631 63.87446 
L 353.548844 65.300764 
L 354.098056 67.843075 
L 354.647269 71.105163 
L 355.196481 75.053475 
L 355.745694 80.031876 
L 356.844119 93.58175 
L 358.491757 115.724297 
L 359.040969 121.025397 
L 359.590182 124.874225 
L 360.139395 127.578206 
L 361.23782 131.159667 
L 361.787032 132.358008 
L 362.336245 133.167489 
L 362.885458 133.221247 
L 363.43467 130.90144 
L 363.983883 126.496269 
L 364.533095 120.700099 
L 367.279158 85.835362 
L 368.377584 74.634415 
L 369.476009 65.228995 
L 370.025221 61.608727 
L 370.574434 59.592462 
L 372.222072 56.947324 
L 372.771284 57.082276 
L 373.320497 57.472961 
L 373.86971 58.558684 
L 374.418922 60.432138 
L 374.968135 63.993196 
L 376.06656 75.469889 
L 378.26341 100.70554 
L 380.460261 122.865301 
L 381.009473 127.084892 
L 381.558686 130.202381 
L 382.107899 132.133206 
L 382.657111 133.058839 
L 383.206324 132.674212 
L 383.755536 131.765871 
L 384.304749 130.335844 
L 384.853962 128.194635 
L 385.403174 124.910548 
L 385.952387 120.445941 
L 387.050812 109.041158 
L 389.247662 83.689732 
L 390.8953 70.381603 
L 391.444513 67.492255 
L 391.993725 65.325077 
L 392.542938 63.959961 
L 393.092151 63.47874 
L 393.641363 63.942512 
L 394.190576 64.960873 
L 394.739788 66.487605 
L 395.289001 68.579391 
L 395.838214 71.959461 
L 396.387426 76.069811 
L 396.936639 81.03264 
L 400.231914 116.858515 
L 400.781127 121.05914 
L 401.33034 124.331324 
L 401.879552 126.802962 
L 402.428765 128.457958 
L 402.977977 129.277797 
L 403.52719 128.721234 
L 404.076403 126.833436 
L 404.625615 123.939214 
L 405.72404 115.898137 
L 407.920891 94.737448 
L 410.666954 66.973002 
L 411.216166 63.124548 
L 411.765379 60.304619 
L 412.314592 59.154567 
L 412.863804 59.453307 
L 413.413017 61.282648 
L 413.962229 63.763511 
L 415.060655 71.061885 
L 418.35593 97.519727 
L 420.003568 109.637981 
L 421.101993 116.697557 
L 421.651206 119.199013 
L 422.200418 120.436389 
L 422.749631 120.908821 
L 423.298844 120.084742 
L 423.848056 118.157068 
L 424.397269 115.528501 
L 426.594119 101.319109 
L 427.692544 92.937887 
L 429.340182 79.997131 
L 430.438607 73.332281 
L 430.98782 70.818185 
L 431.537032 69.162497 
L 432.086245 68.015695 
L 432.635458 67.560446 
L 433.18467 67.784493 
L 433.733883 68.822925 
L 434.283095 71.227417 
L 435.381521 78.791834 
L 437.578371 98.316924 
L 439.226009 108.791144 
L 440.324434 114.656779 
L 440.873647 116.865531 
L 441.422859 118.565529 
L 441.972072 119.496404 
L 442.521284 119.59917 
L 443.070497 118.872584 
L 443.61971 117.413622 
L 444.168922 115.430327 
L 444.718135 112.828889 
L 445.81656 105.27741 
L 447.464198 90.385239 
L 448.562623 81.37354 
L 449.111836 77.908555 
L 449.661048 75.161062 
L 450.210261 73.197996 
L 451.308686 70.230676 
L 451.857899 69.637473 
L 452.407111 69.671545 
L 452.956324 70.518383 
L 453.505536 71.997547 
L 454.054749 74.29728 
L 455.153174 81.381975 
L 456.800812 93.128233 
L 458.997662 109.865364 
L 459.546875 113.349401 
L 460.096088 115.904227 
L 460.6453 117.665253 
L 461.194513 118.703806 
L 461.743725 119.071355 
L 463.391363 116.517023 
L 463.940576 114.811961 
L 464.489788 112.363821 
L 465.039001 109.246707 
L 466.137426 101.139616 
L 467.785064 88.702682 
L 468.883489 81.482767 
L 469.981914 75.897737 
L 470.531127 73.629754 
L 471.08034 71.942174 
L 471.629552 71.225669 
L 472.178765 71.534591 
L 472.727977 72.7702 
L 473.826403 76.508689 
L 474.924828 80.971537 
L 476.572466 88.842094 
L 478.769316 101.352762 
L 479.318529 102.480906 
L 479.867741 106.187349 
L 479.867741 106.187349 
" clip-path="url(#pb003bf3cf3)" style="fill: none; stroke-dasharray: 4.44,1.92; stroke-dashoffset: 0; stroke: #ff0000; stroke-width: 1.2"/>
   </g>
   <g id="line2d_31">
    <path d="M 41.046875 94.507087 
L 42.694513 94.527209 
L 44.891363 94.890219 
L 47.637426 95.599473 
L 50.383489 95.769087 
L 50.932702 95.688641 
L 52.031127 95.208107 
L 52.58034 95.152494 
L 53.678765 95.32199 
L 54.227977 95.725326 
L 55.326403 96.949216 
L 55.875615 97.03152 
L 56.97404 97.589871 
L 57.523253 98.053362 
L 58.621678 98.170119 
L 59.170891 98.300873 
L 59.720103 98.69736 
L 60.269316 99.524342 
L 60.818529 99.811554 
L 61.367741 99.967231 
L 61.916954 99.831549 
L 62.466166 99.503956 
L 63.015379 98.902043 
L 63.564592 98.546884 
L 64.663017 96.614164 
L 65.212229 96.3672 
L 65.761442 95.942849 
L 66.310655 95.824727 
L 66.859867 95.567593 
L 67.958292 92.813192 
L 68.507505 91.273875 
L 69.60593 86.543133 
L 70.155143 84.969396 
L 70.704355 83.872519 
L 71.253568 83.94564 
L 71.802781 83.872472 
L 72.351993 84.237742 
L 73.450418 87.366939 
L 73.999631 88.678713 
L 74.548844 90.518966 
L 76.196481 98.384032 
L 77.294906 101.487209 
L 77.844119 102.826016 
L 78.393332 103.627018 
L 79.491757 106.675916 
L 80.590182 111.065395 
L 81.139395 112.425136 
L 81.688607 112.785839 
L 82.23782 112.687438 
L 82.787032 110.59325 
L 83.336245 107.979276 
L 84.43467 101.771322 
L 84.983883 99.860595 
L 85.533095 99.230683 
L 86.082308 99.462714 
L 86.631521 99.045245 
L 87.180733 98.210289 
L 88.279158 93.991256 
L 89.377584 86.911471 
L 89.926796 84.738082 
L 90.476009 83.183952 
L 91.025221 83.484525 
L 91.574434 84.141837 
L 92.123647 84.312457 
L 92.672859 86.018246 
L 93.222072 87.013638 
L 94.320497 87.600818 
L 94.86971 87.443045 
L 95.418922 88.179015 
L 96.517347 94.86169 
L 97.615773 100.564037 
L 98.164985 103.68089 
L 99.26341 107.742365 
L 100.361836 106.638273 
L 100.911048 107.986922 
L 101.460261 107.168962 
L 102.009473 105.809626 
L 102.558686 105.613625 
L 103.657111 103.872456 
L 104.206324 103.065917 
L 105.304749 100.686029 
L 105.853962 99.874181 
L 106.952387 95.295945 
L 107.501599 94.019355 
L 108.600025 89.38007 
L 109.149237 88.162138 
L 109.69845 85.362467 
L 110.247662 84.235316 
L 110.796875 84.763426 
L 111.346088 84.513504 
L 111.8953 84.70658 
L 112.444513 86.690553 
L 112.993725 86.229597 
L 113.542938 86.223068 
L 114.092151 85.887846 
L 114.641363 85.329604 
L 115.190576 86.044095 
L 115.739788 87.534811 
L 116.289001 89.683607 
L 116.838214 93.083471 
L 118.485851 109.068738 
L 119.035064 112.877311 
L 120.133489 116.830782 
L 121.231914 117.922536 
L 121.781127 116.687271 
L 122.33034 116.734013 
L 122.879552 114.603 
L 123.428765 111.61307 
L 125.076403 99.072812 
L 126.174828 90.358513 
L 126.72404 88.111291 
L 127.273253 86.969703 
L 127.822466 83.987599 
L 128.371678 81.923445 
L 129.470103 75.277022 
L 130.568529 69.906812 
L 131.117741 69.520184 
L 131.666954 71.585579 
L 132.216166 72.781962 
L 132.765379 74.313912 
L 133.314592 77.43236 
L 133.863804 78.846156 
L 134.962229 82.436726 
L 135.511442 85.527183 
L 136.609867 93.06937 
L 137.15908 96.098436 
L 138.257505 100.418781 
L 138.806718 101.309591 
L 139.35593 101.914575 
L 139.905143 101.529316 
L 141.003568 105.251196 
L 142.101993 108.399102 
L 142.651206 108.772923 
L 143.200418 107.461042 
L 143.749631 105.561052 
L 144.848056 96.371472 
L 145.397269 93.594386 
L 145.946481 89.638287 
L 146.495694 87.985894 
L 147.044906 88.355492 
L 147.594119 88.904389 
L 148.143332 90.891775 
L 148.692544 90.238906 
L 149.241757 88.897948 
L 149.790969 90.817991 
L 150.340182 90.655096 
L 150.889395 90.00187 
L 151.98782 91.354688 
L 154.18467 98.314194 
L 154.733883 99.705063 
L 155.832308 105.354471 
L 156.381521 107.63733 
L 156.930733 108.723006 
L 157.479946 108.59379 
L 158.029158 106.797234 
L 158.578371 103.980127 
L 159.676796 92.757454 
L 160.775221 88.71621 
L 161.324434 87.357317 
L 161.873647 87.632991 
L 162.422859 88.745938 
L 162.972072 88.634992 
L 163.521284 87.363184 
L 164.070497 85.293656 
L 164.61971 84.144403 
L 165.168922 85.080004 
L 165.718135 84.359627 
L 166.267347 84.539397 
L 167.365773 88.871604 
L 168.464198 94.523042 
L 169.01341 95.902589 
L 169.562623 99.007881 
L 171.759473 119.401794 
L 172.308686 123.025901 
L 172.857899 124.963659 
L 173.407111 124.404858 
L 173.956324 123.018823 
L 175.054749 117.761451 
L 175.603962 116.179511 
L 176.153174 115.613259 
L 176.702387 111.999752 
L 177.251599 110.426204 
L 177.800812 107.048315 
L 178.350025 100.050328 
L 178.899237 94.568935 
L 180.546875 74.761752 
L 181.096088 69.787647 
L 181.6453 65.938332 
L 182.743725 61.732502 
L 183.292938 59.298482 
L 183.842151 58.309409 
L 184.391363 56.946575 
L 184.940576 57.241021 
L 185.489788 56.300481 
L 186.039001 57.008153 
L 186.588214 59.751606 
L 187.686639 67.540583 
L 188.235851 71.10452 
L 189.334277 80.221747 
L 189.883489 83.916599 
L 190.432702 88.690262 
L 190.981914 94.525284 
L 192.08034 102.453846 
L 193.727977 117.737633 
L 195.375615 127.618921 
L 195.924828 130.023337 
L 196.47404 129.076122 
L 197.023253 126.347173 
L 197.572466 121.904922 
L 198.670891 114.349038 
L 199.220103 107.638745 
L 200.867741 93.267745 
L 203.064592 67.438309 
L 204.163017 58.47318 
L 204.712229 56.39536 
L 206.359867 53.641636 
L 208.007505 58.513936 
L 208.556718 61.44808 
L 209.10593 65.879152 
L 210.204355 77.932189 
L 211.302781 89.168742 
L 211.851993 95.54513 
L 212.401206 100.459668 
L 213.499631 112.597188 
L 214.048844 117.168492 
L 214.598056 124.124603 
L 215.147269 129.654813 
L 216.245694 135.935113 
L 216.794906 138.453677 
L 217.344119 139.863199 
L 217.893332 139.070623 
L 218.442544 134.754606 
L 218.991757 132.013168 
L 221.73782 100.819033 
L 222.287032 96.373267 
L 224.483883 65.974777 
L 225.582308 53.986739 
L 226.131521 50.011183 
L 226.680733 48.50135 
L 227.229946 46.44434 
L 227.779158 45.96605 
L 228.328371 47.912871 
L 228.877584 50.692127 
L 229.426796 54.733251 
L 230.525221 68.501599 
L 232.172859 99.12709 
L 233.820497 123.613608 
L 235.468135 143.195295 
L 236.017347 148.553525 
L 237.115773 155.337116 
L 237.664985 156.026084 
L 238.214198 154.640595 
L 239.312623 147.994444 
L 239.861836 142.42877 
L 240.960261 125.818789 
L 242.058686 104.228178 
L 243.157111 84.972387 
L 244.255536 68.921701 
L 245.903174 50.314745 
L 247.001599 39.266007 
L 248.100025 33.902792 
L 248.649237 33.137003 
L 250.296875 43.385244 
L 251.944513 68.172069 
L 254.141363 101.701423 
L 256.338214 127.032457 
L 256.887426 132.417327 
L 257.436639 136.055354 
L 257.985851 138.132167 
L 258.535064 139.60718 
L 259.084277 138.755098 
L 260.182702 132.723677 
L 261.281127 120.534484 
L 262.928765 98.746874 
L 264.576403 76.262897 
L 265.674828 64.903065 
L 266.773253 56.581922 
L 268.420891 48.27854 
L 268.970103 46.503762 
L 269.519316 46.842281 
L 270.068529 49.486463 
L 270.617741 54.403574 
L 272.265379 75.078108 
L 276.65908 124.792801 
L 277.208292 129.350246 
L 277.757505 132.108866 
L 278.306718 133.076354 
L 278.85593 132.014423 
L 279.954355 128.411091 
L 280.503568 124.978214 
L 281.601993 121.96387 
L 282.700418 113.226016 
L 285.995694 76.607662 
L 287.094119 66.084431 
L 288.192544 61.905808 
L 288.741757 61.854608 
L 289.290969 64.682786 
L 289.840182 68.256277 
L 292.037032 85.919221 
L 292.586245 88.881921 
L 293.135458 91.167447 
L 293.68467 95.319157 
L 295.332308 113.884235 
L 295.881521 117.892806 
L 296.430733 120.115509 
L 296.979946 120.904295 
L 297.529158 120.460396 
L 298.078371 118.697109 
L 298.627584 116.280295 
L 299.726009 112.54986 
L 301.373647 104.526547 
L 301.922859 102.289542 
L 302.472072 101.176117 
L 303.021284 101.134172 
L 303.570497 100.680312 
L 304.11971 100.752567 
L 304.668922 101.232737 
L 305.218135 99.511603 
L 306.865773 91.799016 
L 307.414985 90.025874 
L 307.964198 89.654906 
L 308.51341 89.466305 
L 309.062623 90.872911 
L 309.611836 91.238867 
L 310.710261 86.40407 
L 311.808686 84.252431 
L 312.357899 83.468981 
L 312.907111 83.329814 
L 313.456324 82.976073 
L 314.005536 83.294287 
L 314.554749 82.575381 
L 315.103962 82.185014 
L 315.653174 83.067855 
L 316.202387 83.540473 
L 316.751599 85.416319 
L 319.497662 98.71159 
L 321.1453 107.480153 
L 321.694513 112.068879 
L 322.243725 115.286099 
L 322.792938 115.908555 
L 323.891363 115.792544 
L 325.539001 112.073526 
L 326.088214 110.736185 
L 326.637426 108.919662 
L 327.186639 103.958143 
L 328.834277 86.625241 
L 329.383489 81.300258 
L 329.932702 77.062701 
L 330.481914 73.975842 
L 331.031127 73.022805 
L 331.58034 71.440188 
L 332.129552 69.429408 
L 333.227977 67.251785 
L 333.77719 66.660699 
L 334.326403 67.865909 
L 334.875615 69.422684 
L 335.424828 71.875749 
L 335.97404 74.898557 
L 336.523253 76.790553 
L 337.072466 79.197989 
L 338.170891 85.46581 
L 338.720103 89.7886 
L 339.269316 95.434223 
L 340.367741 104.736369 
L 340.916954 109.408083 
L 343.113804 121.290431 
L 343.663017 123.634993 
L 344.212229 124.330604 
L 345.310655 120.098677 
L 345.859867 115.959665 
L 347.507505 100.170152 
L 348.60593 92.617087 
L 351.901206 64.940284 
L 352.450418 63.611331 
L 352.999631 63.835037 
L 353.548844 65.071885 
L 354.647269 70.743189 
L 355.196481 74.491463 
L 356.294906 85.329703 
L 358.491757 114.830503 
L 359.040969 120.256897 
L 359.590182 123.967137 
L 360.139395 126.678731 
L 361.23782 130.234567 
L 362.336245 132.873693 
L 362.885458 132.719717 
L 363.43467 130.321803 
L 363.983883 126.095477 
L 364.533095 120.528759 
L 367.279158 85.345328 
L 368.377584 73.780454 
L 369.476009 64.523635 
L 370.025221 60.84875 
L 370.574434 59.294239 
L 371.672859 57.4774 
L 372.222072 56.743907 
L 372.771284 56.544007 
L 373.320497 57.314545 
L 373.86971 58.480391 
L 374.418922 60.253116 
L 374.968135 63.884002 
L 376.06656 75.595183 
L 378.26341 100.884562 
L 380.460261 123.401508 
L 381.558686 130.711005 
L 382.107899 132.647388 
L 382.657111 133.347673 
L 383.206324 133.012804 
L 383.755536 132.028864 
L 384.853962 128.810758 
L 385.403174 125.524116 
L 386.501599 115.293222 
L 387.600025 102.759362 
L 388.69845 89.162299 
L 390.346088 74.46561 
L 391.444513 67.480852 
L 391.993725 65.378974 
L 392.542938 63.808709 
L 393.092151 63.416793 
L 393.641363 63.792237 
L 394.739788 66.321739 
L 395.289001 68.433417 
L 396.387426 75.942269 
L 396.936639 80.892485 
L 400.231914 116.658739 
L 400.781127 121.225563 
L 401.879552 126.854372 
L 402.428765 128.794302 
L 402.977977 129.331538 
L 403.52719 128.743105 
L 404.076403 127.094577 
L 405.174828 120.474817 
L 405.72404 116.168657 
L 410.666954 66.834944 
L 411.216166 62.58132 
L 411.765379 59.928979 
L 412.314592 58.598164 
L 412.863804 58.956552 
L 413.413017 60.624694 
L 413.962229 63.347472 
L 414.511442 66.641502 
L 416.15908 79.419934 
L 417.806718 92.944177 
L 419.454355 105.624472 
L 421.101993 116.766237 
L 421.651206 119.256997 
L 422.200418 120.697416 
L 422.749631 121.012411 
L 423.298844 120.325644 
L 423.848056 118.564536 
L 424.946481 112.220936 
L 426.044906 105.374763 
L 428.241757 88.499149 
L 429.340182 79.928389 
L 430.438607 73.169066 
L 430.98782 70.816543 
L 431.537032 68.956445 
L 432.086245 67.848969 
L 432.635458 67.337767 
L 433.18467 67.587198 
L 433.733883 68.53936 
L 434.283095 70.87294 
L 435.381521 78.6439 
L 438.127584 101.71581 
L 439.775221 111.678341 
L 440.873647 116.785552 
L 441.422859 118.303836 
L 441.972072 119.399265 
L 442.521284 119.406177 
L 443.61971 117.561712 
L 444.168922 115.576193 
L 444.718135 112.825127 
L 445.81656 105.246461 
L 448.562623 81.02822 
L 449.661048 74.679292 
L 450.759473 71.161705 
L 451.308686 70.017899 
L 451.857899 69.143068 
L 452.407111 69.014784 
L 452.956324 69.872956 
L 453.505536 71.501636 
L 454.054749 73.835861 
L 455.153174 80.933819 
L 456.800812 92.611939 
L 458.997662 109.651794 
L 459.546875 113.283183 
L 460.096088 115.907308 
L 460.6453 117.567241 
L 461.194513 118.699808 
L 461.743725 118.903242 
L 462.292938 118.482216 
L 463.391363 116.448146 
L 463.940576 115.129727 
L 464.489788 112.628444 
L 465.039001 109.553914 
L 466.686639 97.258526 
L 468.334277 85.283318 
L 469.432702 79.026648 
L 470.531127 74.213198 
L 471.08034 72.763224 
L 471.629552 71.976908 
L 472.178765 72.349426 
L 472.727977 73.425881 
L 473.826403 77.429013 
L 474.924828 82.02046 
L 476.023253 87.452523 
L 476.572466 90.494614 
L 478.769316 105.207779 
L 479.867741 110.642781 
L 479.867741 110.642781 
" clip-path="url(#pb003bf3cf3)" style="fill: none; stroke-dasharray: 7.68,1.92,1.2,1.92; stroke-dashoffset: 0; stroke: #0000ff; stroke-width: 1.2"/>
   </g>
   <g id="line2d_32">
    <path d="M 41.046875 94.507087 
L 43.243725 94.570386 
L 45.440576 94.923581 
L 47.088214 95.304016 
L 49.834277 95.465771 
L 51.481914 95.273388 
L 52.58034 94.958663 
L 53.678765 95.071457 
L 54.227977 95.270058 
L 55.875615 96.30755 
L 56.424828 96.348814 
L 58.072466 96.84563 
L 58.621678 96.8145 
L 59.170891 96.913494 
L 60.818529 98.002642 
L 61.367741 98.118778 
L 62.466166 97.899032 
L 63.015379 97.560194 
L 64.113804 96.398628 
L 65.212229 94.865796 
L 66.859867 93.657516 
L 67.40908 92.998521 
L 68.507505 90.402292 
L 70.155143 85.489723 
L 70.704355 84.6584 
L 71.253568 84.485769 
L 71.802781 84.642646 
L 72.351993 85.061359 
L 72.901206 86.175429 
L 73.999631 89.071989 
L 74.548844 90.458442 
L 75.098056 92.362898 
L 76.196481 96.830475 
L 76.745694 98.475786 
L 78.393332 102.031751 
L 79.491757 105.296027 
L 81.139395 110.710289 
L 81.688607 111.093228 
L 82.23782 110.389069 
L 82.787032 108.938584 
L 83.336245 106.656237 
L 84.43467 100.702183 
L 84.983883 98.563408 
L 85.533095 97.165098 
L 87.180733 94.393546 
L 88.279158 90.690226 
L 88.828371 88.502559 
L 89.926796 83.091402 
L 90.476009 81.6787 
L 91.025221 81.210815 
L 91.574434 81.57686 
L 92.123647 82.192852 
L 92.672859 83.286885 
L 93.222072 84.826976 
L 93.771284 85.730762 
L 94.320497 86.343727 
L 95.418922 88.237797 
L 95.968135 89.962896 
L 97.06656 94.826733 
L 97.615773 96.910504 
L 98.714198 102.711173 
L 99.26341 104.580503 
L 99.812623 105.217554 
L 100.361836 105.465367 
L 100.911048 105.874057 
L 101.460261 105.827019 
L 102.558686 103.380043 
L 104.206324 101.443513 
L 104.755536 100.721441 
L 105.304749 99.626824 
L 106.403174 96.396841 
L 106.952387 94.050037 
L 108.050812 88.705393 
L 109.149237 85.02628 
L 109.69845 83.627743 
L 110.247662 82.647938 
L 110.796875 82.735963 
L 112.993725 85.355831 
L 113.542938 85.679961 
L 114.092151 85.793992 
L 114.641363 86.088309 
L 115.190576 86.51925 
L 115.739788 87.591451 
L 116.289001 89.687265 
L 116.838214 92.716505 
L 117.387426 96.436505 
L 118.485851 105.31625 
L 119.035064 108.776205 
L 119.584277 111.338976 
L 120.682702 114.070589 
L 121.231914 114.332757 
L 121.781127 113.73966 
L 122.33034 112.941247 
L 122.879552 111.427131 
L 123.428765 108.987502 
L 124.52719 102.661076 
L 126.72404 89.412499 
L 127.822466 84.619081 
L 130.019316 71.267981 
L 130.568529 69.414942 
L 131.117741 68.741779 
L 131.666954 69.587804 
L 132.765379 73.586551 
L 133.863804 79.247933 
L 134.962229 84.852124 
L 136.060655 91.853958 
L 136.609867 95.627984 
L 137.708292 100.811544 
L 138.257505 102.274449 
L 139.35593 103.667026 
L 139.905143 104.173439 
L 140.454355 105.422516 
L 141.003568 107.473833 
L 141.552781 108.984654 
L 142.101993 109.796274 
L 142.651206 109.776828 
L 143.200418 108.746004 
L 143.749631 106.895648 
L 144.298844 103.748657 
L 145.397269 96.461428 
L 146.495694 91.667243 
L 147.044906 90.418182 
L 147.594119 90.292775 
L 148.143332 90.538165 
L 148.692544 90.553512 
L 149.241757 90.144109 
L 149.790969 90.10323 
L 150.340182 90.478714 
L 150.889395 90.4526 
L 151.438607 90.211528 
L 151.98782 90.453409 
L 152.537032 91.52985 
L 153.635458 94.598722 
L 154.733883 98.84109 
L 155.283095 101.425594 
L 155.832308 104.619921 
L 156.381521 107.131744 
L 156.930733 108.196293 
L 157.479946 107.928552 
L 158.029158 106.348865 
L 158.578371 103.34958 
L 159.676796 94.756708 
L 160.226009 91.832461 
L 160.775221 90.545531 
L 161.873647 88.894291 
L 162.422859 88.895993 
L 162.972072 89.024035 
L 163.521284 88.20049 
L 164.61971 84.799351 
L 165.168922 84.381234 
L 165.718135 84.843627 
L 166.267347 85.04582 
L 166.81656 85.736382 
L 167.365773 87.193764 
L 167.914985 89.360462 
L 169.01341 94.446133 
L 169.562623 97.829374 
L 171.759473 116.14065 
L 172.308686 118.551325 
L 172.857899 120.040185 
L 173.407111 120.061266 
L 174.505536 116.381929 
L 175.603962 112.570167 
L 176.153174 111.36242 
L 176.702387 109.635835 
L 177.800812 103.265417 
L 178.350025 98.716563 
L 179.44845 87.294819 
L 180.546875 75.15938 
L 181.6453 66.45799 
L 182.743725 60.630597 
L 183.292938 58.991074 
L 183.842151 57.992407 
L 184.391363 57.777033 
L 185.489788 59.042032 
L 186.039001 60.406623 
L 186.588214 63.179726 
L 187.686639 70.54984 
L 188.785064 79.514193 
L 189.883489 90.060244 
L 192.08034 108.321052 
L 193.178765 115.704147 
L 194.27719 123.49046 
L 195.375615 128.697996 
L 195.924828 130.496714 
L 196.47404 130.667516 
L 197.023253 128.521705 
L 198.670891 115.168537 
L 200.318529 100.432835 
L 200.867741 96.361825 
L 201.416954 91.163722 
L 203.064592 72.487996 
L 204.163017 62.999043 
L 204.712229 60.139695 
L 205.261442 58.391964 
L 205.810655 57.709058 
L 206.359867 57.751031 
L 206.90908 58.300471 
L 207.458292 60.105859 
L 208.007505 62.701775 
L 208.556718 65.984956 
L 209.10593 70.656753 
L 213.499631 117.537176 
L 215.147269 131.50656 
L 215.696481 134.655581 
L 216.245694 137.083393 
L 216.794906 138.539516 
L 217.344119 139.359863 
L 217.893332 138.604439 
L 218.442544 135.356854 
L 219.540969 126.389556 
L 223.385458 83.080801 
L 225.033095 61.879366 
L 225.582308 56.348438 
L 226.131521 52.010097 
L 226.680733 49.45981 
L 227.229946 48.324432 
L 227.779158 48.118758 
L 228.328371 49.475697 
L 228.877584 52.751743 
L 229.426796 57.34141 
L 229.976009 63.120117 
L 230.525221 70.594005 
L 233.271284 114.789232 
L 234.918922 135.438352 
L 235.468135 141.299679 
L 236.017347 145.925899 
L 236.56656 149.538848 
L 237.115773 151.714289 
L 237.664985 152.341239 
L 238.214198 151.392644 
L 238.76341 148.785336 
L 239.312623 144.72815 
L 239.861836 139.168417 
L 240.411048 131.957655 
L 241.509473 112.77545 
L 243.157111 81.926598 
L 244.255536 65.933923 
L 245.903174 48.087654 
L 246.452387 42.797577 
L 247.001599 38.638323 
L 247.550812 35.677209 
L 248.100025 34.262132 
L 248.649237 34.11127 
L 249.19845 35.993411 
L 249.747662 40.407351 
L 250.296875 46.017683 
L 251.3953 61.147921 
L 254.141363 104.540986 
L 255.789001 123.502272 
L 256.887426 133.715256 
L 257.436639 137.65414 
L 257.985851 140.183008 
L 258.535064 141.290932 
L 259.084277 140.75892 
L 259.633489 138.440986 
L 260.182702 134.712084 
L 261.281127 123.484111 
L 262.928765 100.730508 
L 264.576403 77.963884 
L 265.674828 66.78955 
L 266.773253 58.073324 
L 267.871678 52.794384 
L 268.420891 50.739675 
L 268.970103 49.790023 
L 269.519316 50.648008 
L 270.068529 53.027011 
L 270.617741 57.413581 
L 271.716166 70.398274 
L 273.363804 91.684756 
L 275.011442 109.917064 
L 276.109867 121.150434 
L 277.208292 130.68032 
L 277.757505 133.383941 
L 278.306718 134.381568 
L 278.85593 133.989813 
L 279.405143 132.854976 
L 279.954355 131.087774 
L 281.601993 121.994976 
L 282.151206 117.831377 
L 283.249631 106.54826 
L 285.446481 81.979384 
L 286.544906 71.228806 
L 287.094119 66.96406 
L 287.643332 63.871303 
L 288.192544 62.115598 
L 288.741757 61.807134 
L 289.290969 63.683144 
L 290.938607 76.002255 
L 292.037032 83.730803 
L 293.135458 89.41136 
L 293.68467 93.360648 
L 294.783095 105.261619 
L 295.332308 111.292853 
L 295.881521 115.707709 
L 296.430733 118.79594 
L 296.979946 120.562389 
L 297.529158 120.876068 
L 298.078371 119.819797 
L 299.176796 115.857823 
L 300.275221 111.081479 
L 301.922859 101.382627 
L 302.472072 99.287334 
L 303.021284 97.920643 
L 304.668922 95.725203 
L 305.218135 94.21187 
L 306.31656 88.005317 
L 306.865773 86.041638 
L 307.414985 85.397954 
L 307.964198 85.307911 
L 308.51341 85.781382 
L 309.611836 87.677789 
L 310.161048 87.486889 
L 311.259473 84.90529 
L 311.808686 84.012002 
L 312.357899 83.44954 
L 312.907111 83.169692 
L 314.005536 83.188093 
L 314.554749 82.771994 
L 315.103962 82.160992 
L 315.653174 82.237957 
L 316.202387 83.294557 
L 316.751599 84.965884 
L 321.1453 106.307444 
L 322.243725 112.582926 
L 322.792938 113.948198 
L 323.342151 113.675235 
L 324.440576 112.245399 
L 324.989788 111.094258 
L 326.637426 106.723655 
L 327.186639 103.661805 
L 329.932702 79.203566 
L 330.481914 76.115229 
L 331.031127 74.022054 
L 331.58034 72.614712 
L 332.678765 69.01435 
L 333.227977 67.934659 
L 333.77719 67.888224 
L 334.326403 68.717837 
L 334.875615 70.530863 
L 335.97404 75.382915 
L 337.621678 84.337528 
L 338.720103 93.088744 
L 339.818529 103.352756 
L 340.916954 111.650227 
L 341.466166 114.707761 
L 343.113804 120.80487 
L 343.663017 122.550027 
L 344.212229 122.978736 
L 344.761442 121.755579 
L 345.310655 119.215316 
L 345.859867 115.708468 
L 348.056718 98.275192 
L 348.60593 95.038419 
L 349.704355 86.716522 
L 351.901206 68.449887 
L 352.450418 66.044963 
L 352.999631 65.595459 
L 353.548844 66.301169 
L 354.098056 67.845549 
L 354.647269 70.363493 
L 355.196481 73.953931 
L 355.745694 78.618589 
L 356.844119 91.233937 
L 358.491757 112.453175 
L 359.040969 117.750257 
L 359.590182 121.684963 
L 360.139395 124.585532 
L 361.23782 128.546106 
L 361.787032 129.948741 
L 362.336245 130.831044 
L 362.885458 130.756007 
L 363.43467 128.826821 
L 363.983883 124.845773 
L 365.082308 112.864178 
L 367.279158 85.243851 
L 368.377584 73.274423 
L 369.476009 63.753342 
L 370.025221 60.419419 
L 370.574434 58.465843 
L 371.123647 57.813149 
L 371.672859 57.636038 
L 372.222072 57.595566 
L 372.771284 57.883365 
L 373.320497 58.648443 
L 373.86971 60.203233 
L 374.418922 62.740242 
L 374.968135 66.582693 
L 376.06656 78.984849 
L 377.714198 98.482022 
L 379.361836 114.719696 
L 380.460261 124.12364 
L 381.009473 127.764969 
L 381.558686 130.363383 
L 382.107899 131.895658 
L 382.657111 132.466427 
L 383.206324 132.206384 
L 383.755536 131.273399 
L 384.304749 129.788501 
L 384.853962 127.67701 
L 385.403174 124.624874 
L 385.952387 120.337876 
L 387.050812 108.875482 
L 389.247662 83.067971 
L 390.346088 73.281205 
L 390.8953 68.995252 
L 391.444513 65.788891 
L 391.993725 63.661794 
L 392.542938 62.384172 
L 393.092151 62.040059 
L 393.641363 62.574478 
L 394.190576 63.896127 
L 394.739788 65.85481 
L 395.289001 68.342099 
L 395.838214 71.59081 
L 396.936639 80.850589 
L 398.584277 99.146139 
L 399.682702 110.780136 
L 400.781127 119.545915 
L 401.33034 122.59053 
L 401.879552 124.788065 
L 402.428765 126.361159 
L 402.977977 127.106639 
L 403.52719 126.585408 
L 404.076403 124.889166 
L 404.625615 122.354801 
L 405.72404 115.176329 
L 406.822466 105.361489 
L 408.470103 88.921662 
L 410.117741 71.581846 
L 411.216166 63.043438 
L 411.765379 60.169422 
L 412.314592 58.737826 
L 412.863804 58.944636 
L 413.413017 60.43164 
L 413.962229 62.820627 
L 414.511442 66.102979 
L 415.609867 74.886108 
L 418.905143 102.900095 
L 420.552781 114.740436 
L 421.101993 118.152753 
L 421.651206 120.759221 
L 422.200418 122.160002 
L 422.749631 122.43846 
L 423.298844 121.693143 
L 423.848056 119.694951 
L 424.397269 116.712638 
L 426.594119 101.91465 
L 429.889395 78.043819 
L 430.98782 72.676711 
L 431.537032 70.898851 
L 432.086245 69.762158 
L 432.635458 69.148026 
L 433.18467 69.232632 
L 433.733883 70.230221 
L 434.283095 72.363264 
L 434.832308 75.605211 
L 435.930733 84.158646 
L 437.578371 98.425054 
L 438.676796 105.862631 
L 439.775221 112.512011 
L 440.873647 117.260357 
L 441.422859 118.902559 
L 441.972072 119.892469 
L 442.521284 120.026382 
L 443.070497 119.241981 
L 443.61971 117.795672 
L 444.168922 115.861208 
L 444.718135 113.248324 
L 445.267347 109.783453 
L 446.365773 100.803584 
L 448.01341 85.699145 
L 448.562623 81.559543 
L 449.661048 75.752763 
L 450.210261 73.773247 
L 450.759473 72.3105 
L 451.308686 71.167842 
L 451.857899 70.458912 
L 452.407111 70.380991 
L 452.956324 71.132413 
L 453.505536 72.626026 
L 454.054749 74.806731 
L 454.603962 77.828831 
L 456.800812 93.137211 
L 458.997662 110.044069 
L 459.546875 113.605556 
L 460.096088 116.239213 
L 460.6453 117.908363 
L 461.194513 118.798566 
L 461.743725 119.018225 
L 462.292938 118.581379 
L 462.842151 117.613643 
L 463.391363 116.268606 
L 463.940576 114.467293 
L 464.489788 112.024902 
L 465.588214 105.145948 
L 468.334277 85.20096 
L 469.432702 78.8793 
L 470.531127 74.12043 
L 471.08034 72.672295 
L 471.629552 72.055903 
L 472.178765 72.28996 
L 472.727977 73.386597 
L 473.826403 77.197232 
L 474.924828 81.945222 
L 476.023253 87.609452 
L 477.121678 94.568575 
L 478.220103 102.177701 
L 479.318529 108.299346 
L 479.867741 110.616792 
L 479.867741 110.616792 
" clip-path="url(#pb003bf3cf3)" style="fill: none; stroke-dasharray: 1.2,1.98; stroke-dashoffset: 0; stroke: #008000; stroke-width: 1.2"/>
   </g>
   <g id="patch_3">
    <path d="M 41.046875 181.814173 
L 41.046875 7.2 
" style="fill: none; stroke: #000000; stroke-width: 0.8; stroke-linejoin: miter; stroke-linecap: square"/>
   </g>
   <g id="patch_4">
    <path d="M 480.416954 181.814173 
L 480.416954 7.2 
" style="fill: none; stroke: #000000; stroke-width: 0.8; stroke-linejoin: miter; stroke-linecap: square"/>
   </g>
   <g id="patch_5">
    <path d="M 41.046875 181.814173 
L 480.416954 181.814173 
" style="fill: none; stroke: #000000; stroke-width: 0.8; stroke-linejoin: miter; stroke-linecap: square"/>
   </g>
   <g id="patch_6">
    <path d="M 41.046875 7.2 
L 480.416954 7.2 
" style="fill: none; stroke: #000000; stroke-width: 0.8; stroke-linejoin: miter; stroke-linecap: square"/>
   </g>
   <g id="text_17">
    <!-- 9th floor -->
    <g transform="translate(418.415102 162.572558) scale(0.1 -0.1)">
     <defs>
      <path id="ArialMT-39" d="M 350 1059 
L 891 1109 
Q 959 728 1153 556 
Q 1347 384 1650 384 
Q 1909 384 2104 503 
Q 2300 622 2425 820 
Q 2550 1019 2634 1356 
Q 2719 1694 2719 2044 
Q 2719 2081 2716 2156 
Q 2547 1888 2255 1720 
Q 1963 1553 1622 1553 
Q 1053 1553 659 1965 
Q 266 2378 266 3053 
Q 266 3750 677 4175 
Q 1088 4600 1706 4600 
Q 2153 4600 2523 4359 
Q 2894 4119 3086 3673 
Q 3278 3228 3278 2384 
Q 3278 1506 3087 986 
Q 2897 466 2520 194 
Q 2144 -78 1638 -78 
Q 1100 -78 759 220 
Q 419 519 350 1059 
z
M 2653 3081 
Q 2653 3566 2395 3850 
Q 2138 4134 1775 4134 
Q 1400 4134 1122 3828 
Q 844 3522 844 3034 
Q 844 2597 1108 2323 
Q 1372 2050 1759 2050 
Q 2150 2050 2401 2323 
Q 2653 2597 2653 3081 
z
" transform="scale(0.015625)"/>
      <path id="ArialMT-68" d="M 422 0 
L 422 4581 
L 984 4581 
L 984 2938 
Q 1378 3394 1978 3394 
Q 2347 3394 2619 3248 
Q 2891 3103 3008 2847 
Q 3125 2591 3125 2103 
L 3125 0 
L 2563 0 
L 2563 2103 
Q 2563 2525 2380 2717 
Q 2197 2909 1863 2909 
Q 1613 2909 1392 2779 
Q 1172 2650 1078 2428 
Q 984 2206 984 1816 
L 984 0 
L 422 0 
z
" transform="scale(0.015625)"/>
      <path id="ArialMT-66" d="M 556 0 
L 556 2881 
L 59 2881 
L 59 3319 
L 556 3319 
L 556 3672 
Q 556 4006 616 4169 
Q 697 4388 901 4523 
Q 1106 4659 1475 4659 
Q 1713 4659 2000 4603 
L 1916 4113 
Q 1741 4144 1584 4144 
Q 1328 4144 1222 4034 
Q 1116 3925 1116 3625 
L 1116 3319 
L 1763 3319 
L 1763 2881 
L 1116 2881 
L 1116 0 
L 556 0 
z
" transform="scale(0.015625)"/>
      <path id="ArialMT-6f" d="M 213 1659 
Q 213 2581 725 3025 
Q 1153 3394 1769 3394 
Q 2453 3394 2887 2945 
Q 3322 2497 3322 1706 
Q 3322 1066 3130 698 
Q 2938 331 2570 128 
Q 2203 -75 1769 -75 
Q 1072 -75 642 372 
Q 213 819 213 1659 
z
M 791 1659 
Q 791 1022 1069 705 
Q 1347 388 1769 388 
Q 2188 388 2466 706 
Q 2744 1025 2744 1678 
Q 2744 2294 2464 2611 
Q 2184 2928 1769 2928 
Q 1347 2928 1069 2612 
Q 791 2297 791 1659 
z
" transform="scale(0.015625)"/>
      <path id="ArialMT-72" d="M 416 0 
L 416 3319 
L 922 3319 
L 922 2816 
Q 1116 3169 1280 3281 
Q 1444 3394 1641 3394 
Q 1925 3394 2219 3213 
L 2025 2691 
Q 1819 2813 1613 2813 
Q 1428 2813 1281 2702 
Q 1134 2591 1072 2394 
Q 978 2094 978 1738 
L 978 0 
L 416 0 
z
" transform="scale(0.015625)"/>
     </defs>
     <use xlink:href="#ArialMT-39"/>
     <use xlink:href="#ArialMT-74" x="55.615234"/>
     <use xlink:href="#ArialMT-68" x="83.398438"/>
     <use xlink:href="#ArialMT-20" x="139.013672"/>
     <use xlink:href="#ArialMT-66" x="166.796875"/>
     <use xlink:href="#ArialMT-6c" x="194.580078"/>
     <use xlink:href="#ArialMT-6f" x="216.796875"/>
     <use xlink:href="#ArialMT-6f" x="272.412109"/>
     <use xlink:href="#ArialMT-72" x="328.027344"/>
    </g>
   </g>
   <g id="legend_1">
    <g id="patch_7">
     <path d="M 130.148204 29.345312 
L 473.416954 29.345312 
Q 475.416954 29.345312 475.416954 27.345312 
L 475.416954 14.2 
Q 475.416954 12.2 473.416954 12.2 
L 130.148204 12.2 
Q 128.148204 12.2 128.148204 14.2 
L 128.148204 27.345312 
Q 128.148204 29.345312 130.148204 29.345312 
z
" style="fill: #ffffff; opacity: 0.8; stroke: #000000; stroke-linejoin: miter"/>
    </g>
    <g id="line2d_33">
     <path d="M 132.148204 19.857812 
L 142.148204 19.857812 
L 152.148204 19.857812 
" style="fill: none; stroke: #000000; stroke-width: 1.2; stroke-linecap: square"/>
    </g>
    <g id="text_18">
     <!-- Ref. -->
     <g transform="translate(160.148204 23.357812) scale(0.1 -0.1)">
      <defs>
       <path id="ArialMT-52" d="M 503 0 
L 503 4581 
L 2534 4581 
Q 3147 4581 3465 4457 
Q 3784 4334 3975 4021 
Q 4166 3709 4166 3331 
Q 4166 2844 3850 2509 
Q 3534 2175 2875 2084 
Q 3116 1969 3241 1856 
Q 3506 1613 3744 1247 
L 4541 0 
L 3778 0 
L 3172 953 
Q 2906 1366 2734 1584 
Q 2563 1803 2427 1890 
Q 2291 1978 2150 2013 
Q 2047 2034 1813 2034 
L 1109 2034 
L 1109 0 
L 503 0 
z
M 1109 2559 
L 2413 2559 
Q 2828 2559 3062 2645 
Q 3297 2731 3419 2920 
Q 3541 3109 3541 3331 
Q 3541 3656 3305 3865 
Q 3069 4075 2559 4075 
L 1109 4075 
L 1109 2559 
z
" transform="scale(0.015625)"/>
       <path id="ArialMT-2e" d="M 581 0 
L 581 641 
L 1222 641 
L 1222 0 
L 581 0 
z
" transform="scale(0.015625)"/>
      </defs>
      <use xlink:href="#ArialMT-52"/>
      <use xlink:href="#ArialMT-65" x="72.216797"/>
      <use xlink:href="#ArialMT-66" x="127.832031"/>
      <use xlink:href="#ArialMT-2e" x="155.615234"/>
     </g>
    </g>
    <g id="line2d_34">
     <path d="M 198.487266 19.857812 
L 208.487266 19.857812 
L 218.487266 19.857812 
" style="fill: none; stroke-dasharray: 4.44,1.92; stroke-dashoffset: 0; stroke: #ff0000; stroke-width: 1.2"/>
    </g>
    <g id="text_19">
     <!-- BiRNN pred. -->
     <g transform="translate(226.487266 23.357812) scale(0.1 -0.1)">
      <defs>
       <path id="ArialMT-42" d="M 469 0 
L 469 4581 
L 2188 4581 
Q 2713 4581 3030 4442 
Q 3347 4303 3526 4014 
Q 3706 3725 3706 3409 
Q 3706 3116 3547 2856 
Q 3388 2597 3066 2438 
Q 3481 2316 3704 2022 
Q 3928 1728 3928 1328 
Q 3928 1006 3792 729 
Q 3656 453 3456 303 
Q 3256 153 2954 76 
Q 2653 0 2216 0 
L 469 0 
z
M 1075 2656 
L 2066 2656 
Q 2469 2656 2644 2709 
Q 2875 2778 2992 2937 
Q 3109 3097 3109 3338 
Q 3109 3566 3000 3739 
Q 2891 3913 2687 3977 
Q 2484 4041 1991 4041 
L 1075 4041 
L 1075 2656 
z
M 1075 541 
L 2216 541 
Q 2509 541 2628 563 
Q 2838 600 2978 687 
Q 3119 775 3209 942 
Q 3300 1109 3300 1328 
Q 3300 1584 3169 1773 
Q 3038 1963 2805 2039 
Q 2572 2116 2134 2116 
L 1075 2116 
L 1075 541 
z
" transform="scale(0.015625)"/>
       <path id="ArialMT-4e" d="M 488 0 
L 488 4581 
L 1109 4581 
L 3516 984 
L 3516 4581 
L 4097 4581 
L 4097 0 
L 3475 0 
L 1069 3600 
L 1069 0 
L 488 0 
z
" transform="scale(0.015625)"/>
       <path id="ArialMT-64" d="M 2575 0 
L 2575 419 
Q 2259 -75 1647 -75 
Q 1250 -75 917 144 
Q 584 363 401 755 
Q 219 1147 219 1656 
Q 219 2153 384 2558 
Q 550 2963 881 3178 
Q 1213 3394 1622 3394 
Q 1922 3394 2156 3267 
Q 2391 3141 2538 2938 
L 2538 4581 
L 3097 4581 
L 3097 0 
L 2575 0 
z
M 797 1656 
Q 797 1019 1065 703 
Q 1334 388 1700 388 
Q 2069 388 2326 689 
Q 2584 991 2584 1609 
Q 2584 2291 2321 2609 
Q 2059 2928 1675 2928 
Q 1300 2928 1048 2622 
Q 797 2316 797 1656 
z
" transform="scale(0.015625)"/>
      </defs>
      <use xlink:href="#ArialMT-42"/>
      <use xlink:href="#ArialMT-69" x="66.699219"/>
      <use xlink:href="#ArialMT-52" x="88.916016"/>
      <use xlink:href="#ArialMT-4e" x="161.132812"/>
      <use xlink:href="#ArialMT-4e" x="233.349609"/>
      <use xlink:href="#ArialMT-20" x="305.566406"/>
      <use xlink:href="#ArialMT-70" x="333.349609"/>
      <use xlink:href="#ArialMT-72" x="388.964844"/>
      <use xlink:href="#ArialMT-65" x="422.265625"/>
      <use xlink:href="#ArialMT-64" x="477.880859"/>
      <use xlink:href="#ArialMT-2e" x="533.496094"/>
     </g>
    </g>
    <g id="line2d_35">
     <path d="M 302.613829 19.857812 
L 312.613829 19.857812 
L 322.613829 19.857812 
" style="fill: none; stroke-dasharray: 7.68,1.92,1.2,1.92; stroke-dashoffset: 0; stroke: #0000ff; stroke-width: 1.2"/>
    </g>
    <g id="text_20">
     <!-- RNN pred. -->
     <g transform="translate(330.613829 23.357812) scale(0.1 -0.1)">
      <use xlink:href="#ArialMT-52"/>
      <use xlink:href="#ArialMT-4e" x="72.216797"/>
      <use xlink:href="#ArialMT-4e" x="144.433594"/>
      <use xlink:href="#ArialMT-20" x="216.650391"/>
      <use xlink:href="#ArialMT-70" x="244.433594"/>
      <use xlink:href="#ArialMT-72" x="300.048828"/>
      <use xlink:href="#ArialMT-65" x="333.349609"/>
      <use xlink:href="#ArialMT-64" x="388.964844"/>
      <use xlink:href="#ArialMT-2e" x="444.580078"/>
     </g>
    </g>
    <g id="line2d_36">
     <path d="M 397.848204 19.857812 
L 407.848204 19.857812 
L 417.848204 19.857812 
" style="fill: none; stroke-dasharray: 1.2,1.98; stroke-dashoffset: 0; stroke: #008000; stroke-width: 1.2"/>
    </g>
    <g id="text_21">
     <!-- DKF pred. -->
     <g transform="translate(425.848204 23.357812) scale(0.1 -0.1)">
      <defs>
       <path id="ArialMT-4b" d="M 469 0 
L 469 4581 
L 1075 4581 
L 1075 2309 
L 3350 4581 
L 4172 4581 
L 2250 2725 
L 4256 0 
L 3456 0 
L 1825 2319 
L 1075 1588 
L 1075 0 
L 469 0 
z
" transform="scale(0.015625)"/>
       <path id="ArialMT-46" d="M 525 0 
L 525 4581 
L 3616 4581 
L 3616 4041 
L 1131 4041 
L 1131 2622 
L 3281 2622 
L 3281 2081 
L 1131 2081 
L 1131 0 
L 525 0 
z
" transform="scale(0.015625)"/>
      </defs>
      <use xlink:href="#ArialMT-44"/>
      <use xlink:href="#ArialMT-4b" x="72.216797"/>
      <use xlink:href="#ArialMT-46" x="138.916016"/>
      <use xlink:href="#ArialMT-20" x="200"/>
      <use xlink:href="#ArialMT-70" x="227.783203"/>
      <use xlink:href="#ArialMT-72" x="283.398438"/>
      <use xlink:href="#ArialMT-65" x="316.699219"/>
      <use xlink:href="#ArialMT-64" x="372.314453"/>
      <use xlink:href="#ArialMT-2e" x="427.929688"/>
     </g>
    </g>
   </g>
  </g>
 </g>
 <defs>
  <clipPath id="pb003bf3cf3">
   <rect x="41.046875" y="7.2" width="439.370079" height="174.614173"/>
  </clipPath>
 </defs>
</svg>
