<?xml version="1.0" encoding="utf-8" standalone="no"?>
<!DOCTYPE svg PUBLIC "-//W3C//DTD SVG 1.1//EN"
  "http://www.w3.org/Graphics/SVG/1.1/DTD/svg11.dtd">
<svg xmlns:xlink="http://www.w3.org/1999/xlink" width="493.177891pt" height="215.043861pt" viewBox="0 0 493.177891 215.043861" xmlns="http://www.w3.org/2000/svg" version="1.1">
 <metadata>
  <rdf:RDF xmlns:dc="http://purl.org/dc/elements/1.1/" xmlns:cc="http://creativecommons.org/ns#" xmlns:rdf="http://www.w3.org/1999/02/22-rdf-syntax-ns#">
   <cc:Work>
    <dc:type rdf:resource="http://purl.org/dc/dcmitype/StillImage"/>
    <dc:date>2024-03-15T18:24:19.787748</dc:date>
    <dc:format>image/svg+xml</dc:format>
    <dc:creator>
     <cc:Agent>
      <dc:title>Matplotlib v3.8.2, https://matplotlib.org/</dc:title>
     </cc:Agent>
    </dc:creator>
   </cc:Work>
  </rdf:RDF>
 </metadata>
 <defs>
  <style type="text/css">*{stroke-linejoin: round; stroke-linecap: butt}</style>
 </defs>
 <g id="figure_1">
  <g id="patch_1">
   <path d="M 0 215.043861 
L 493.177891 215.043861 
L 493.177891 0 
L 0 0 
z
" style="fill: #ffffff"/>
  </g>
  <g id="axes_1">
   <g id="patch_2">
    <path d="M 41.046875 181.814173 
L 480.416954 181.814173 
L 480.416954 7.2 
L 41.046875 7.2 
z
" style="fill: #ffffff"/>
   </g>
   <g id="matplotlib.axis_1">
    <g id="xtick_1">
     <g id="line2d_1">
      <path d="M 41.046875 181.814173 
L 41.046875 7.2 
" clip-path="url(#p12e48a9f78)" style="fill: none; stroke: #b0b0b0; stroke-width: 0.8; stroke-linecap: square"/>
     </g>
     <g id="line2d_2">
      <defs>
       <path id="mc17cf102bd" d="M 0 0 
L 0 -3.5 
" style="stroke: #000000; stroke-width: 0.8"/>
      </defs>
      <g>
       <use xlink:href="#mc17cf102bd" x="41.046875" y="181.814173" style="stroke: #000000; stroke-width: 0.8"/>
      </g>
     </g>
     <g id="text_1">
      <!-- 0 -->
      <g transform="translate(38.266406 192.471986) scale(0.1 -0.1)">
       <defs>
        <path id="ArialMT-30" d="M 266 2259 
Q 266 3072 433 3567 
Q 600 4063 929 4331 
Q 1259 4600 1759 4600 
Q 2128 4600 2406 4451 
Q 2684 4303 2865 4023 
Q 3047 3744 3150 3342 
Q 3253 2941 3253 2259 
Q 3253 1453 3087 958 
Q 2922 463 2592 192 
Q 2263 -78 1759 -78 
Q 1097 -78 719 397 
Q 266 969 266 2259 
z
M 844 2259 
Q 844 1131 1108 757 
Q 1372 384 1759 384 
Q 2147 384 2411 759 
Q 2675 1134 2675 2259 
Q 2675 3391 2411 3762 
Q 2147 4134 1753 4134 
Q 1366 4134 1134 3806 
Q 844 3388 844 2259 
z
" transform="scale(0.015625)"/>
       </defs>
       <use xlink:href="#ArialMT-30"/>
      </g>
     </g>
    </g>
    <g id="xtick_2">
     <g id="line2d_3">
      <path d="M 95.968135 181.814173 
L 95.968135 7.2 
" clip-path="url(#p12e48a9f78)" style="fill: none; stroke: #b0b0b0; stroke-width: 0.8; stroke-linecap: square"/>
     </g>
     <g id="line2d_4">
      <g>
       <use xlink:href="#mc17cf102bd" x="95.968135" y="181.814173" style="stroke: #000000; stroke-width: 0.8"/>
      </g>
     </g>
     <g id="text_2">
      <!-- 5 -->
      <g transform="translate(93.187666 192.471986) scale(0.1 -0.1)">
       <defs>
        <path id="ArialMT-35" d="M 266 1200 
L 856 1250 
Q 922 819 1161 601 
Q 1400 384 1738 384 
Q 2144 384 2425 690 
Q 2706 997 2706 1503 
Q 2706 1984 2436 2262 
Q 2166 2541 1728 2541 
Q 1456 2541 1237 2417 
Q 1019 2294 894 2097 
L 366 2166 
L 809 4519 
L 3088 4519 
L 3088 3981 
L 1259 3981 
L 1013 2750 
Q 1425 3038 1878 3038 
Q 2478 3038 2890 2622 
Q 3303 2206 3303 1553 
Q 3303 931 2941 478 
Q 2500 -78 1738 -78 
Q 1113 -78 717 272 
Q 322 622 266 1200 
z
" transform="scale(0.015625)"/>
       </defs>
       <use xlink:href="#ArialMT-35"/>
      </g>
     </g>
    </g>
    <g id="xtick_3">
     <g id="line2d_5">
      <path d="M 150.889395 181.814173 
L 150.889395 7.2 
" clip-path="url(#p12e48a9f78)" style="fill: none; stroke: #b0b0b0; stroke-width: 0.8; stroke-linecap: square"/>
     </g>
     <g id="line2d_6">
      <g>
       <use xlink:href="#mc17cf102bd" x="150.889395" y="181.814173" style="stroke: #000000; stroke-width: 0.8"/>
      </g>
     </g>
     <g id="text_3">
      <!-- 10 -->
      <g transform="translate(145.328457 192.471986) scale(0.1 -0.1)">
       <defs>
        <path id="ArialMT-31" d="M 2384 0 
L 1822 0 
L 1822 3584 
Q 1619 3391 1289 3197 
Q 959 3003 697 2906 
L 697 3450 
Q 1169 3672 1522 3987 
Q 1875 4303 2022 4600 
L 2384 4600 
L 2384 0 
z
" transform="scale(0.015625)"/>
       </defs>
       <use xlink:href="#ArialMT-31"/>
       <use xlink:href="#ArialMT-30" x="55.615234"/>
      </g>
     </g>
    </g>
    <g id="xtick_4">
     <g id="line2d_7">
      <path d="M 205.810655 181.814173 
L 205.810655 7.2 
" clip-path="url(#p12e48a9f78)" style="fill: none; stroke: #b0b0b0; stroke-width: 0.8; stroke-linecap: square"/>
     </g>
     <g id="line2d_8">
      <g>
       <use xlink:href="#mc17cf102bd" x="205.810655" y="181.814173" style="stroke: #000000; stroke-width: 0.8"/>
      </g>
     </g>
     <g id="text_4">
      <!-- 15 -->
      <g transform="translate(200.249717 192.471986) scale(0.1 -0.1)">
       <use xlink:href="#ArialMT-31"/>
       <use xlink:href="#ArialMT-35" x="55.615234"/>
      </g>
     </g>
    </g>
    <g id="xtick_5">
     <g id="line2d_9">
      <path d="M 260.731914 181.814173 
L 260.731914 7.2 
" clip-path="url(#p12e48a9f78)" style="fill: none; stroke: #b0b0b0; stroke-width: 0.8; stroke-linecap: square"/>
     </g>
     <g id="line2d_10">
      <g>
       <use xlink:href="#mc17cf102bd" x="260.731914" y="181.814173" style="stroke: #000000; stroke-width: 0.8"/>
      </g>
     </g>
     <g id="text_5">
      <!-- 20 -->
      <g transform="translate(255.170977 192.471986) scale(0.1 -0.1)">
       <defs>
        <path id="ArialMT-32" d="M 3222 541 
L 3222 0 
L 194 0 
Q 188 203 259 391 
Q 375 700 629 1000 
Q 884 1300 1366 1694 
Q 2113 2306 2375 2664 
Q 2638 3022 2638 3341 
Q 2638 3675 2398 3904 
Q 2159 4134 1775 4134 
Q 1369 4134 1125 3890 
Q 881 3647 878 3216 
L 300 3275 
Q 359 3922 746 4261 
Q 1134 4600 1788 4600 
Q 2447 4600 2831 4234 
Q 3216 3869 3216 3328 
Q 3216 3053 3103 2787 
Q 2991 2522 2730 2228 
Q 2469 1934 1863 1422 
Q 1356 997 1212 845 
Q 1069 694 975 541 
L 3222 541 
z
" transform="scale(0.015625)"/>
       </defs>
       <use xlink:href="#ArialMT-32"/>
       <use xlink:href="#ArialMT-30" x="55.615234"/>
      </g>
     </g>
    </g>
    <g id="xtick_6">
     <g id="line2d_11">
      <path d="M 315.653174 181.814173 
L 315.653174 7.2 
" clip-path="url(#p12e48a9f78)" style="fill: none; stroke: #b0b0b0; stroke-width: 0.8; stroke-linecap: square"/>
     </g>
     <g id="line2d_12">
      <g>
       <use xlink:href="#mc17cf102bd" x="315.653174" y="181.814173" style="stroke: #000000; stroke-width: 0.8"/>
      </g>
     </g>
     <g id="text_6">
      <!-- 25 -->
      <g transform="translate(310.092237 192.471986) scale(0.1 -0.1)">
       <use xlink:href="#ArialMT-32"/>
       <use xlink:href="#ArialMT-35" x="55.615234"/>
      </g>
     </g>
    </g>
    <g id="xtick_7">
     <g id="line2d_13">
      <path d="M 370.574434 181.814173 
L 370.574434 7.2 
" clip-path="url(#p12e48a9f78)" style="fill: none; stroke: #b0b0b0; stroke-width: 0.8; stroke-linecap: square"/>
     </g>
     <g id="line2d_14">
      <g>
       <use xlink:href="#mc17cf102bd" x="370.574434" y="181.814173" style="stroke: #000000; stroke-width: 0.8"/>
      </g>
     </g>
     <g id="text_7">
      <!-- 30 -->
      <g transform="translate(365.013497 192.471986) scale(0.1 -0.1)">
       <defs>
        <path id="ArialMT-33" d="M 269 1209 
L 831 1284 
Q 928 806 1161 595 
Q 1394 384 1728 384 
Q 2125 384 2398 659 
Q 2672 934 2672 1341 
Q 2672 1728 2419 1979 
Q 2166 2231 1775 2231 
Q 1616 2231 1378 2169 
L 1441 2663 
Q 1497 2656 1531 2656 
Q 1891 2656 2178 2843 
Q 2466 3031 2466 3422 
Q 2466 3731 2256 3934 
Q 2047 4138 1716 4138 
Q 1388 4138 1169 3931 
Q 950 3725 888 3313 
L 325 3413 
Q 428 3978 793 4289 
Q 1159 4600 1703 4600 
Q 2078 4600 2393 4439 
Q 2709 4278 2876 4000 
Q 3044 3722 3044 3409 
Q 3044 3113 2884 2869 
Q 2725 2625 2413 2481 
Q 2819 2388 3044 2092 
Q 3269 1797 3269 1353 
Q 3269 753 2831 336 
Q 2394 -81 1725 -81 
Q 1122 -81 723 278 
Q 325 638 269 1209 
z
" transform="scale(0.015625)"/>
       </defs>
       <use xlink:href="#ArialMT-33"/>
       <use xlink:href="#ArialMT-30" x="55.615234"/>
      </g>
     </g>
    </g>
    <g id="xtick_8">
     <g id="line2d_15">
      <path d="M 425.495694 181.814173 
L 425.495694 7.2 
" clip-path="url(#p12e48a9f78)" style="fill: none; stroke: #b0b0b0; stroke-width: 0.8; stroke-linecap: square"/>
     </g>
     <g id="line2d_16">
      <g>
       <use xlink:href="#mc17cf102bd" x="425.495694" y="181.814173" style="stroke: #000000; stroke-width: 0.8"/>
      </g>
     </g>
     <g id="text_8">
      <!-- 35 -->
      <g transform="translate(419.934756 192.471986) scale(0.1 -0.1)">
       <use xlink:href="#ArialMT-33"/>
       <use xlink:href="#ArialMT-35" x="55.615234"/>
      </g>
     </g>
    </g>
    <g id="xtick_9">
     <g id="line2d_17">
      <path d="M 480.416954 181.814173 
L 480.416954 7.2 
" clip-path="url(#p12e48a9f78)" style="fill: none; stroke: #b0b0b0; stroke-width: 0.8; stroke-linecap: square"/>
     </g>
     <g id="line2d_18">
      <g>
       <use xlink:href="#mc17cf102bd" x="480.416954" y="181.814173" style="stroke: #000000; stroke-width: 0.8"/>
      </g>
     </g>
     <g id="text_9">
      <!-- 40 -->
      <g transform="translate(474.856016 192.471986) scale(0.1 -0.1)">
       <defs>
        <path id="ArialMT-34" d="M 2069 0 
L 2069 1097 
L 81 1097 
L 81 1613 
L 2172 4581 
L 2631 4581 
L 2631 1613 
L 3250 1613 
L 3250 1097 
L 2631 1097 
L 2631 0 
L 2069 0 
z
M 2069 1613 
L 2069 3678 
L 634 1613 
L 2069 1613 
z
" transform="scale(0.015625)"/>
       </defs>
       <use xlink:href="#ArialMT-34"/>
       <use xlink:href="#ArialMT-30" x="55.615234"/>
      </g>
     </g>
    </g>
    <g id="text_10">
     <!-- Time (s) -->
     <g transform="translate(242.590508 205.739173) scale(0.1 -0.1)">
      <defs>
       <path id="ArialMT-54" d="M 1659 0 
L 1659 4041 
L 150 4041 
L 150 4581 
L 3781 4581 
L 3781 4041 
L 2266 4041 
L 2266 0 
L 1659 0 
z
" transform="scale(0.015625)"/>
       <path id="ArialMT-69" d="M 425 3934 
L 425 4581 
L 988 4581 
L 988 3934 
L 425 3934 
z
M 425 0 
L 425 3319 
L 988 3319 
L 988 0 
L 425 0 
z
" transform="scale(0.015625)"/>
       <path id="ArialMT-6d" d="M 422 0 
L 422 3319 
L 925 3319 
L 925 2853 
Q 1081 3097 1340 3245 
Q 1600 3394 1931 3394 
Q 2300 3394 2536 3241 
Q 2772 3088 2869 2813 
Q 3263 3394 3894 3394 
Q 4388 3394 4653 3120 
Q 4919 2847 4919 2278 
L 4919 0 
L 4359 0 
L 4359 2091 
Q 4359 2428 4304 2576 
Q 4250 2725 4106 2815 
Q 3963 2906 3769 2906 
Q 3419 2906 3187 2673 
Q 2956 2441 2956 1928 
L 2956 0 
L 2394 0 
L 2394 2156 
Q 2394 2531 2256 2718 
Q 2119 2906 1806 2906 
Q 1569 2906 1367 2781 
Q 1166 2656 1075 2415 
Q 984 2175 984 1722 
L 984 0 
L 422 0 
z
" transform="scale(0.015625)"/>
       <path id="ArialMT-65" d="M 2694 1069 
L 3275 997 
Q 3138 488 2766 206 
Q 2394 -75 1816 -75 
Q 1088 -75 661 373 
Q 234 822 234 1631 
Q 234 2469 665 2931 
Q 1097 3394 1784 3394 
Q 2450 3394 2872 2941 
Q 3294 2488 3294 1666 
Q 3294 1616 3291 1516 
L 816 1516 
Q 847 969 1125 678 
Q 1403 388 1819 388 
Q 2128 388 2347 550 
Q 2566 713 2694 1069 
z
M 847 1978 
L 2700 1978 
Q 2663 2397 2488 2606 
Q 2219 2931 1791 2931 
Q 1403 2931 1139 2672 
Q 875 2413 847 1978 
z
" transform="scale(0.015625)"/>
       <path id="ArialMT-20" transform="scale(0.015625)"/>
       <path id="ArialMT-28" d="M 1497 -1347 
Q 1031 -759 709 28 
Q 388 816 388 1659 
Q 388 2403 628 3084 
Q 909 3875 1497 4659 
L 1900 4659 
Q 1522 4009 1400 3731 
Q 1209 3300 1100 2831 
Q 966 2247 966 1656 
Q 966 153 1900 -1347 
L 1497 -1347 
z
" transform="scale(0.015625)"/>
       <path id="ArialMT-73" d="M 197 991 
L 753 1078 
Q 800 744 1014 566 
Q 1228 388 1613 388 
Q 2000 388 2187 545 
Q 2375 703 2375 916 
Q 2375 1106 2209 1216 
Q 2094 1291 1634 1406 
Q 1016 1563 777 1677 
Q 538 1791 414 1992 
Q 291 2194 291 2438 
Q 291 2659 392 2848 
Q 494 3038 669 3163 
Q 800 3259 1026 3326 
Q 1253 3394 1513 3394 
Q 1903 3394 2198 3281 
Q 2494 3169 2634 2976 
Q 2775 2784 2828 2463 
L 2278 2388 
Q 2241 2644 2061 2787 
Q 1881 2931 1553 2931 
Q 1166 2931 1000 2803 
Q 834 2675 834 2503 
Q 834 2394 903 2306 
Q 972 2216 1119 2156 
Q 1203 2125 1616 2013 
Q 2213 1853 2448 1751 
Q 2684 1650 2818 1456 
Q 2953 1263 2953 975 
Q 2953 694 2789 445 
Q 2625 197 2315 61 
Q 2006 -75 1616 -75 
Q 969 -75 630 194 
Q 291 463 197 991 
z
" transform="scale(0.015625)"/>
       <path id="ArialMT-29" d="M 791 -1347 
L 388 -1347 
Q 1322 153 1322 1656 
Q 1322 2244 1188 2822 
Q 1081 3291 891 3722 
Q 769 4003 388 4659 
L 791 4659 
Q 1378 3875 1659 3084 
Q 1900 2403 1900 1659 
Q 1900 816 1576 28 
Q 1253 -759 791 -1347 
z
" transform="scale(0.015625)"/>
      </defs>
      <use xlink:href="#ArialMT-54"/>
      <use xlink:href="#ArialMT-69" x="57.333984"/>
      <use xlink:href="#ArialMT-6d" x="79.550781"/>
      <use xlink:href="#ArialMT-65" x="162.851562"/>
      <use xlink:href="#ArialMT-20" x="218.466797"/>
      <use xlink:href="#ArialMT-28" x="246.25"/>
      <use xlink:href="#ArialMT-73" x="279.550781"/>
      <use xlink:href="#ArialMT-29" x="329.550781"/>
     </g>
    </g>
   </g>
   <g id="matplotlib.axis_2">
    <g id="ytick_1">
     <g id="line2d_19">
      <path d="M 41.046875 164.352756 
L 480.416954 164.352756 
" clip-path="url(#p12e48a9f78)" style="fill: none; stroke: #b0b0b0; stroke-width: 0.8; stroke-linecap: square"/>
     </g>
     <g id="line2d_20">
      <defs>
       <path id="mbd4d832a55" d="M 0 0 
L 3.5 0 
" style="stroke: #000000; stroke-width: 0.8"/>
      </defs>
      <g>
       <use xlink:href="#mbd4d832a55" x="41.046875" y="164.352756" style="stroke: #000000; stroke-width: 0.8"/>
      </g>
     </g>
     <g id="text_11">
      <!-- −40 -->
      <g transform="translate(20.584375 167.931662) scale(0.1 -0.1)">
       <defs>
        <path id="ArialMT-2212" d="M 3381 1997 
L 356 1997 
L 356 2522 
L 3381 2522 
L 3381 1997 
z
" transform="scale(0.015625)"/>
       </defs>
       <use xlink:href="#ArialMT-2212"/>
       <use xlink:href="#ArialMT-34" x="58.398438"/>
       <use xlink:href="#ArialMT-30" x="114.013672"/>
      </g>
     </g>
    </g>
    <g id="ytick_2">
     <g id="line2d_21">
      <path d="M 41.046875 129.429921 
L 480.416954 129.429921 
" clip-path="url(#p12e48a9f78)" style="fill: none; stroke: #b0b0b0; stroke-width: 0.8; stroke-linecap: square"/>
     </g>
     <g id="line2d_22">
      <g>
       <use xlink:href="#mbd4d832a55" x="41.046875" y="129.429921" style="stroke: #000000; stroke-width: 0.8"/>
      </g>
     </g>
     <g id="text_12">
      <!-- −20 -->
      <g transform="translate(20.584375 133.008828) scale(0.1 -0.1)">
       <use xlink:href="#ArialMT-2212"/>
       <use xlink:href="#ArialMT-32" x="58.398438"/>
       <use xlink:href="#ArialMT-30" x="114.013672"/>
      </g>
     </g>
    </g>
    <g id="ytick_3">
     <g id="line2d_23">
      <path d="M 41.046875 94.507087 
L 480.416954 94.507087 
" clip-path="url(#p12e48a9f78)" style="fill: none; stroke: #b0b0b0; stroke-width: 0.8; stroke-linecap: square"/>
     </g>
     <g id="line2d_24">
      <g>
       <use xlink:href="#mbd4d832a55" x="41.046875" y="94.507087" style="stroke: #000000; stroke-width: 0.8"/>
      </g>
     </g>
     <g id="text_13">
      <!-- 0 -->
      <g transform="translate(31.985938 98.085993) scale(0.1 -0.1)">
       <use xlink:href="#ArialMT-30"/>
      </g>
     </g>
    </g>
    <g id="ytick_4">
     <g id="line2d_25">
      <path d="M 41.046875 59.584252 
L 480.416954 59.584252 
" clip-path="url(#p12e48a9f78)" style="fill: none; stroke: #b0b0b0; stroke-width: 0.8; stroke-linecap: square"/>
     </g>
     <g id="line2d_26">
      <g>
       <use xlink:href="#mbd4d832a55" x="41.046875" y="59.584252" style="stroke: #000000; stroke-width: 0.8"/>
      </g>
     </g>
     <g id="text_14">
      <!-- 20 -->
      <g transform="translate(26.425 63.163158) scale(0.1 -0.1)">
       <use xlink:href="#ArialMT-32"/>
       <use xlink:href="#ArialMT-30" x="55.615234"/>
      </g>
     </g>
    </g>
    <g id="ytick_5">
     <g id="line2d_27">
      <path d="M 41.046875 24.661417 
L 480.416954 24.661417 
" clip-path="url(#p12e48a9f78)" style="fill: none; stroke: #b0b0b0; stroke-width: 0.8; stroke-linecap: square"/>
     </g>
     <g id="line2d_28">
      <g>
       <use xlink:href="#mbd4d832a55" x="41.046875" y="24.661417" style="stroke: #000000; stroke-width: 0.8"/>
      </g>
     </g>
     <g id="text_15">
      <!-- 40 -->
      <g transform="translate(26.425 28.240324) scale(0.1 -0.1)">
       <use xlink:href="#ArialMT-34"/>
       <use xlink:href="#ArialMT-30" x="55.615234"/>
      </g>
     </g>
    </g>
    <g id="text_16">
     <!-- Displacement (cm) -->
     <g transform="translate(14.479688 136.179743) rotate(-90) scale(0.1 -0.1)">
      <defs>
       <path id="ArialMT-44" d="M 494 0 
L 494 4581 
L 2072 4581 
Q 2606 4581 2888 4516 
Q 3281 4425 3559 4188 
Q 3922 3881 4101 3404 
Q 4281 2928 4281 2316 
Q 4281 1794 4159 1391 
Q 4038 988 3847 723 
Q 3656 459 3429 307 
Q 3203 156 2883 78 
Q 2563 0 2147 0 
L 494 0 
z
M 1100 541 
L 2078 541 
Q 2531 541 2789 625 
Q 3047 709 3200 863 
Q 3416 1078 3536 1442 
Q 3656 1806 3656 2325 
Q 3656 3044 3420 3430 
Q 3184 3816 2847 3947 
Q 2603 4041 2063 4041 
L 1100 4041 
L 1100 541 
z
" transform="scale(0.015625)"/>
       <path id="ArialMT-70" d="M 422 -1272 
L 422 3319 
L 934 3319 
L 934 2888 
Q 1116 3141 1344 3267 
Q 1572 3394 1897 3394 
Q 2322 3394 2647 3175 
Q 2972 2956 3137 2557 
Q 3303 2159 3303 1684 
Q 3303 1175 3120 767 
Q 2938 359 2589 142 
Q 2241 -75 1856 -75 
Q 1575 -75 1351 44 
Q 1128 163 984 344 
L 984 -1272 
L 422 -1272 
z
M 931 1641 
Q 931 1000 1190 694 
Q 1450 388 1819 388 
Q 2194 388 2461 705 
Q 2728 1022 2728 1688 
Q 2728 2322 2467 2637 
Q 2206 2953 1844 2953 
Q 1484 2953 1207 2617 
Q 931 2281 931 1641 
z
" transform="scale(0.015625)"/>
       <path id="ArialMT-6c" d="M 409 0 
L 409 4581 
L 972 4581 
L 972 0 
L 409 0 
z
" transform="scale(0.015625)"/>
       <path id="ArialMT-61" d="M 2588 409 
Q 2275 144 1986 34 
Q 1697 -75 1366 -75 
Q 819 -75 525 192 
Q 231 459 231 875 
Q 231 1119 342 1320 
Q 453 1522 633 1644 
Q 813 1766 1038 1828 
Q 1203 1872 1538 1913 
Q 2219 1994 2541 2106 
Q 2544 2222 2544 2253 
Q 2544 2597 2384 2738 
Q 2169 2928 1744 2928 
Q 1347 2928 1158 2789 
Q 969 2650 878 2297 
L 328 2372 
Q 403 2725 575 2942 
Q 747 3159 1072 3276 
Q 1397 3394 1825 3394 
Q 2250 3394 2515 3294 
Q 2781 3194 2906 3042 
Q 3031 2891 3081 2659 
Q 3109 2516 3109 2141 
L 3109 1391 
Q 3109 606 3145 398 
Q 3181 191 3288 0 
L 2700 0 
Q 2613 175 2588 409 
z
M 2541 1666 
Q 2234 1541 1622 1453 
Q 1275 1403 1131 1340 
Q 988 1278 909 1158 
Q 831 1038 831 891 
Q 831 666 1001 516 
Q 1172 366 1500 366 
Q 1825 366 2078 508 
Q 2331 650 2450 897 
Q 2541 1088 2541 1459 
L 2541 1666 
z
" transform="scale(0.015625)"/>
       <path id="ArialMT-63" d="M 2588 1216 
L 3141 1144 
Q 3050 572 2676 248 
Q 2303 -75 1759 -75 
Q 1078 -75 664 370 
Q 250 816 250 1647 
Q 250 2184 428 2587 
Q 606 2991 970 3192 
Q 1334 3394 1763 3394 
Q 2303 3394 2647 3120 
Q 2991 2847 3088 2344 
L 2541 2259 
Q 2463 2594 2264 2762 
Q 2066 2931 1784 2931 
Q 1359 2931 1093 2626 
Q 828 2322 828 1663 
Q 828 994 1084 691 
Q 1341 388 1753 388 
Q 2084 388 2306 591 
Q 2528 794 2588 1216 
z
" transform="scale(0.015625)"/>
       <path id="ArialMT-6e" d="M 422 0 
L 422 3319 
L 928 3319 
L 928 2847 
Q 1294 3394 1984 3394 
Q 2284 3394 2536 3286 
Q 2788 3178 2913 3003 
Q 3038 2828 3088 2588 
Q 3119 2431 3119 2041 
L 3119 0 
L 2556 0 
L 2556 2019 
Q 2556 2363 2490 2533 
Q 2425 2703 2258 2804 
Q 2091 2906 1866 2906 
Q 1506 2906 1245 2678 
Q 984 2450 984 1813 
L 984 0 
L 422 0 
z
" transform="scale(0.015625)"/>
       <path id="ArialMT-74" d="M 1650 503 
L 1731 6 
Q 1494 -44 1306 -44 
Q 1000 -44 831 53 
Q 663 150 594 308 
Q 525 466 525 972 
L 525 2881 
L 113 2881 
L 113 3319 
L 525 3319 
L 525 4141 
L 1084 4478 
L 1084 3319 
L 1650 3319 
L 1650 2881 
L 1084 2881 
L 1084 941 
Q 1084 700 1114 631 
Q 1144 563 1211 522 
Q 1278 481 1403 481 
Q 1497 481 1650 503 
z
" transform="scale(0.015625)"/>
      </defs>
      <use xlink:href="#ArialMT-44"/>
      <use xlink:href="#ArialMT-69" x="72.216797"/>
      <use xlink:href="#ArialMT-73" x="94.433594"/>
      <use xlink:href="#ArialMT-70" x="144.433594"/>
      <use xlink:href="#ArialMT-6c" x="200.048828"/>
      <use xlink:href="#ArialMT-61" x="222.265625"/>
      <use xlink:href="#ArialMT-63" x="277.880859"/>
      <use xlink:href="#ArialMT-65" x="327.880859"/>
      <use xlink:href="#ArialMT-6d" x="383.496094"/>
      <use xlink:href="#ArialMT-65" x="466.796875"/>
      <use xlink:href="#ArialMT-6e" x="522.412109"/>
      <use xlink:href="#ArialMT-74" x="578.027344"/>
      <use xlink:href="#ArialMT-20" x="605.810547"/>
      <use xlink:href="#ArialMT-28" x="633.59375"/>
      <use xlink:href="#ArialMT-63" x="666.894531"/>
      <use xlink:href="#ArialMT-6d" x="716.894531"/>
      <use xlink:href="#ArialMT-29" x="800.195312"/>
     </g>
    </g>
   </g>
   <g id="line2d_29">
    <path d="M 41.046875 94.507087 
L 43.243725 94.609668 
L 44.891363 94.926134 
L 47.088214 95.558649 
L 49.285064 95.806738 
L 50.932702 95.68888 
L 52.58034 95.19476 
L 53.678765 95.448787 
L 54.227977 95.83499 
L 55.326403 96.988169 
L 58.072466 98.196806 
L 58.621678 98.198854 
L 59.720103 98.967906 
L 60.818529 99.893685 
L 61.916954 99.821529 
L 62.466166 99.58381 
L 63.564592 98.512214 
L 65.212229 96.352031 
L 66.310655 95.734127 
L 66.859867 95.2379 
L 67.40908 94.319421 
L 68.507505 90.955403 
L 69.60593 86.567908 
L 70.155143 84.908847 
L 70.704355 84.138083 
L 71.253568 83.981646 
L 71.802781 84.128087 
L 72.351993 84.733902 
L 74.548844 90.929896 
L 76.745694 100.464178 
L 78.942544 105.486389 
L 80.040969 109.216253 
L 80.590182 111.346 
L 81.139395 112.863498 
L 81.688607 113.10397 
L 82.23782 112.416919 
L 82.787032 110.787185 
L 83.336245 108.150021 
L 84.43467 102.185564 
L 84.983883 100.561908 
L 85.533095 99.750239 
L 86.082308 99.641944 
L 86.631521 99.359552 
L 87.180733 98.207805 
L 87.729946 96.322833 
L 88.279158 93.974966 
L 88.828371 91.058729 
L 89.377584 87.426724 
L 89.926796 84.876328 
L 90.476009 83.648244 
L 91.025221 83.557089 
L 92.123647 85.050428 
L 92.672859 86.44089 
L 93.222072 87.433358 
L 93.771284 87.493852 
L 94.320497 87.670519 
L 94.86971 88.235959 
L 95.418922 89.210488 
L 97.615773 100.76383 
L 98.164985 104.171517 
L 98.714198 106.732764 
L 99.26341 107.636914 
L 100.361836 107.470054 
L 100.911048 107.744572 
L 101.460261 107.420187 
L 102.009473 106.237058 
L 102.558686 105.487241 
L 103.107899 105.080457 
L 104.755536 102.367576 
L 106.403174 98.373352 
L 108.050812 91.811404 
L 109.69845 86.063388 
L 110.247662 84.66168 
L 110.796875 84.731119 
L 111.346088 84.937946 
L 111.8953 85.754466 
L 112.993725 86.743256 
L 114.092151 86.587597 
L 114.641363 86.555679 
L 115.190576 86.75171 
L 115.739788 88.13311 
L 116.289001 90.794727 
L 116.838214 94.682291 
L 119.035064 113.904706 
L 119.584277 116.221514 
L 120.133489 117.749424 
L 120.682702 118.751626 
L 121.231914 118.548994 
L 121.781127 118.022645 
L 122.33034 117.156612 
L 122.879552 115.114499 
L 123.428765 112.067228 
L 124.52719 103.951104 
L 126.174828 91.846271 
L 126.72404 89.290671 
L 127.822466 86.001214 
L 130.019316 73.490724 
L 130.568529 71.340035 
L 131.117741 70.683706 
L 131.666954 71.618353 
L 132.765379 75.166138 
L 133.863804 79.978279 
L 134.962229 83.931529 
L 135.511442 86.586212 
L 137.15908 97.118231 
L 137.708292 99.873134 
L 138.257505 101.424196 
L 138.806718 102.290323 
L 139.35593 102.692871 
L 139.905143 102.860913 
L 140.454355 104.449621 
L 141.552781 107.998724 
L 142.101993 109.172963 
L 142.651206 109.339368 
L 143.200418 108.390542 
L 143.749631 106.159569 
L 145.397269 93.925693 
L 145.946481 91.169446 
L 146.495694 89.219211 
L 147.044906 89.153229 
L 148.143332 91.080029 
L 148.692544 91.343979 
L 149.241757 91.171778 
L 150.340182 91.631819 
L 150.889395 91.447725 
L 151.438607 91.650829 
L 151.98782 92.62076 
L 154.18467 100.021231 
L 154.733883 101.556624 
L 156.381521 108.865005 
L 156.930733 109.825934 
L 157.479946 109.646174 
L 158.029158 107.928291 
L 158.578371 104.316981 
L 159.676796 94.559762 
L 160.226009 91.505501 
L 161.324434 88.923941 
L 161.873647 88.749888 
L 162.422859 89.448031 
L 162.972072 89.902249 
L 163.521284 88.844483 
L 164.070497 86.960327 
L 164.61971 85.606443 
L 165.168922 85.544409 
L 166.267347 86.48097 
L 167.365773 90.135425 
L 168.464198 95.434423 
L 169.01341 97.764578 
L 169.562623 101.325469 
L 171.759473 121.434291 
L 172.308686 124.704746 
L 172.857899 126.823548 
L 173.407111 126.586739 
L 174.505536 122.339171 
L 175.054749 119.756586 
L 175.603962 117.846855 
L 176.153174 116.786435 
L 176.702387 114.618557 
L 177.251599 111.661896 
L 177.800812 108.018085 
L 178.899237 96.210254 
L 180.546875 75.991884 
L 181.096088 71.389576 
L 181.6453 67.840727 
L 182.743725 62.764064 
L 183.842151 59.375246 
L 184.940576 57.755018 
L 185.489788 57.333756 
L 186.039001 58.391996 
L 187.137426 64.705697 
L 188.235851 72.526427 
L 189.883489 85.692353 
L 190.981914 94.927649 
L 192.629552 108.686337 
L 194.27719 122.6461 
L 195.375615 128.702273 
L 195.924828 130.496331 
L 196.47404 130.609858 
L 197.023253 127.953543 
L 198.121678 119.559493 
L 200.867741 94.211677 
L 203.613804 63.726659 
L 204.163017 59.955323 
L 204.712229 57.603906 
L 205.261442 56.162179 
L 205.810655 55.827806 
L 206.359867 55.641262 
L 206.90908 56.099995 
L 208.007505 59.467648 
L 208.556718 62.407674 
L 209.10593 67.003902 
L 214.598056 125.522704 
L 215.696481 134.815148 
L 216.245694 138.126439 
L 216.794906 140.412625 
L 217.344119 141.799072 
L 217.893332 140.426553 
L 218.991757 132.629127 
L 219.540969 127.360731 
L 221.73782 102.057752 
L 222.836245 90.259346 
L 225.033095 60.624517 
L 225.582308 55.138596 
L 226.131521 51.23416 
L 226.680733 49.191187 
L 227.229946 48.006065 
L 227.779158 47.751045 
L 228.328371 49.157662 
L 228.877584 52.170527 
L 229.426796 56.306316 
L 229.976009 62.18904 
L 230.525221 70.304732 
L 232.722072 109.447503 
L 233.820497 125.129705 
L 235.468135 144.908531 
L 236.56656 154.238437 
L 237.115773 156.795076 
L 237.664985 157.773051 
L 238.214198 156.811829 
L 238.76341 154.099729 
L 239.312623 149.793231 
L 239.861836 143.944598 
L 240.411048 136.356624 
L 242.058686 106.616564 
L 243.157111 86.778653 
L 244.255536 70.940673 
L 245.903174 51.577238 
L 247.001599 41.373079 
L 247.550812 37.991401 
L 248.100025 35.999735 
L 248.649237 35.100566 
L 249.19845 36.944865 
L 249.747662 40.842853 
L 250.296875 45.764554 
L 251.3953 60.509292 
L 254.141363 102.704822 
L 255.789001 122.085948 
L 256.887426 132.569072 
L 257.436639 136.416726 
L 257.985851 138.801425 
L 258.535064 139.720453 
L 259.084277 138.818794 
L 259.633489 136.194705 
L 260.182702 132.349139 
L 261.281127 121.091875 
L 265.125615 69.948412 
L 266.22404 59.976875 
L 267.322466 53.264713 
L 268.420891 47.846784 
L 268.970103 46.728634 
L 269.519316 47.230951 
L 270.068529 49.396939 
L 270.617741 54.128258 
L 271.716166 67.396638 
L 272.814592 81.721053 
L 274.462229 100.053095 
L 276.65908 123.818607 
L 277.208292 128.53828 
L 277.757505 130.981425 
L 278.306718 131.697753 
L 278.85593 130.787537 
L 279.405143 129.525303 
L 281.052781 122.625811 
L 281.601993 120.199165 
L 282.151206 116.589909 
L 283.249631 106.073852 
L 285.446481 80.613471 
L 286.544906 69.99757 
L 287.094119 66.029934 
L 287.643332 63.146533 
L 288.192544 61.435241 
L 288.741757 61.249696 
L 289.290969 63.690667 
L 290.938607 76.710977 
L 292.037032 85.013586 
L 293.135458 90.648397 
L 293.68467 94.832165 
L 295.881521 116.353147 
L 296.430733 118.927309 
L 296.979946 119.935064 
L 297.529158 119.374379 
L 298.627584 115.339158 
L 301.922859 101.916979 
L 302.472072 100.73006 
L 303.021284 100.158871 
L 304.668922 100.403952 
L 305.218135 98.970709 
L 306.31656 92.786916 
L 306.865773 90.889474 
L 307.414985 89.757186 
L 307.964198 88.989961 
L 308.51341 88.978059 
L 309.611836 89.536984 
L 310.161048 88.057857 
L 311.259473 84.43388 
L 311.808686 83.236805 
L 312.357899 82.446609 
L 312.907111 82.36341 
L 313.456324 82.653954 
L 314.005536 82.741537 
L 314.554749 82.342603 
L 315.103962 81.798895 
L 315.653174 82.055427 
L 316.202387 82.892653 
L 316.751599 84.478796 
L 321.1453 107.645853 
L 322.243725 114.520617 
L 322.792938 115.567607 
L 323.342151 115.388825 
L 323.891363 114.986288 
L 324.440576 114.184659 
L 326.088214 109.862268 
L 326.637426 107.676353 
L 327.186639 103.478756 
L 329.383489 80.683168 
L 329.932702 76.63089 
L 330.481914 73.799485 
L 331.031127 72.217019 
L 331.58034 71.057275 
L 332.678765 67.482995 
L 333.227977 66.525832 
L 333.77719 66.435352 
L 334.326403 67.248143 
L 335.424828 71.278469 
L 337.621678 81.6686 
L 338.170891 85.25079 
L 339.269316 94.710065 
L 340.916954 108.751585 
L 341.466166 112.256221 
L 343.113804 120.560386 
L 343.663017 122.565326 
L 344.212229 122.859612 
L 344.761442 121.458051 
L 345.310655 118.628878 
L 345.859867 114.600279 
L 347.507505 99.086814 
L 348.60593 91.653403 
L 350.253568 77.955406 
L 351.351993 68.237055 
L 351.901206 64.505703 
L 352.450418 63.087076 
L 352.999631 63.483456 
L 353.548844 64.986711 
L 354.098056 67.334709 
L 354.647269 70.577205 
L 355.196481 74.649439 
L 355.745694 79.699847 
L 356.844119 93.043766 
L 358.491757 115.20304 
L 359.040969 120.503482 
L 359.590182 124.274978 
L 360.139395 126.922167 
L 361.23782 130.237415 
L 361.787032 131.473793 
L 362.336245 132.393857 
L 362.885458 132.233614 
L 363.43467 129.991131 
L 363.983883 125.768691 
L 364.533095 119.978625 
L 367.828371 78.976819 
L 368.926796 68.563366 
L 370.025221 60.842825 
L 370.574434 58.867079 
L 371.123647 57.879988 
L 371.672859 57.186148 
L 372.222072 56.760886 
L 372.771284 56.717144 
L 373.320497 57.093613 
L 373.86971 58.233844 
L 374.418922 60.193794 
L 374.968135 63.73777 
L 376.06656 75.534996 
L 378.812623 106.750267 
L 380.460261 123.114855 
L 381.009473 127.195288 
L 381.558686 130.223067 
L 382.107899 132.003539 
L 382.657111 132.788072 
L 383.206324 132.561302 
L 383.755536 131.697676 
L 384.304749 130.18454 
L 384.853962 128.054747 
L 385.403174 124.786687 
L 385.952387 120.34109 
L 387.050812 108.832572 
L 389.247662 83.398901 
L 390.346088 73.960984 
L 390.8953 69.984866 
L 391.444513 67.150008 
L 391.993725 65.070207 
L 392.542938 63.808759 
L 393.092151 63.387211 
L 393.641363 63.756147 
L 394.190576 64.849757 
L 394.739788 66.522272 
L 395.289001 68.769003 
L 395.838214 71.969494 
L 396.936639 81.19695 
L 400.231914 116.884367 
L 400.781127 121.049187 
L 401.33034 124.263741 
L 401.879552 126.712003 
L 402.428765 128.522736 
L 402.977977 129.203834 
L 403.52719 128.406438 
L 404.076403 126.443561 
L 404.625615 123.562151 
L 405.72404 115.55202 
L 407.920891 94.253609 
L 410.666954 66.340533 
L 411.216166 62.442098 
L 411.765379 59.677762 
L 412.314592 58.613541 
L 412.863804 59.176282 
L 413.413017 60.841696 
L 413.962229 63.336558 
L 415.060655 70.798439 
L 419.454355 105.497872 
L 421.101993 116.439011 
L 421.651206 118.92528 
L 422.200418 120.238251 
L 422.749631 120.665013 
L 423.298844 119.9688 
L 423.848056 117.991948 
L 424.397269 115.120605 
L 426.594119 100.740263 
L 429.889395 75.821597 
L 430.438607 72.799937 
L 430.98782 70.410805 
L 431.537032 68.773309 
L 432.086245 67.685461 
L 432.635458 67.090106 
L 433.18467 67.251478 
L 433.733883 68.370433 
L 434.283095 70.765911 
L 434.832308 74.21455 
L 435.930733 83.375655 
L 437.029158 93.581089 
L 438.127584 101.653978 
L 439.775221 111.479703 
L 440.873647 116.166759 
L 441.422859 117.888508 
L 441.972072 118.877555 
L 442.521284 118.916695 
L 443.070497 118.024619 
L 443.61971 116.598596 
L 444.168922 114.667161 
L 444.718135 112.036921 
L 445.81656 104.450299 
L 446.914985 94.654873 
L 448.01341 84.411973 
L 449.111836 76.862535 
L 449.661048 74.156986 
L 450.210261 72.196235 
L 450.759473 70.667084 
L 451.308686 69.48426 
L 451.857899 68.797585 
L 452.407111 68.811465 
L 452.956324 69.669236 
L 453.505536 71.189758 
L 454.054749 73.571174 
L 455.153174 80.672685 
L 456.800812 92.419461 
L 458.997662 109.170237 
L 459.546875 112.69802 
L 460.096088 115.295861 
L 460.6453 117.010624 
L 461.194513 117.950913 
L 461.743725 118.165847 
L 462.292938 117.710997 
L 462.842151 116.832656 
L 463.391363 115.621842 
L 463.940576 113.922221 
L 464.489788 111.547039 
L 465.039001 108.449813 
L 466.137426 100.523226 
L 467.785064 88.156874 
L 468.883489 81.192111 
L 469.981914 75.631838 
L 470.531127 73.475895 
L 471.08034 72.060171 
L 471.629552 71.434188 
L 472.178765 71.739295 
L 472.727977 72.934299 
L 473.826403 76.8291 
L 474.924828 81.558968 
L 476.023253 86.95201 
L 477.121678 93.873367 
L 478.769316 104.690747 
L 479.867741 109.795552 
L 479.867741 109.795552 
" clip-path="url(#p12e48a9f78)" style="fill: none; stroke: #000000; stroke-width: 1.2; stroke-linecap: square"/>
   </g>
   <g id="line2d_30">
    <path d="M 41.046875 94.367968 
L 43.243725 94.435706 
L 44.891363 94.718862 
L 47.088214 95.304354 
L 49.834277 95.478139 
L 50.932702 95.39092 
L 52.031127 94.956871 
L 52.58034 94.881783 
L 53.678765 95.093437 
L 54.227977 95.495243 
L 55.326403 96.669785 
L 56.424828 97.195913 
L 57.523253 97.811085 
L 58.621678 98.036259 
L 59.170891 98.267486 
L 60.818529 99.67408 
L 61.367741 99.740322 
L 62.466166 99.471629 
L 63.015379 98.775624 
L 63.564592 98.296761 
L 64.663017 96.508457 
L 65.761442 95.658786 
L 66.310655 95.355343 
L 66.859867 94.722492 
L 67.40908 93.832931 
L 68.507505 90.475804 
L 70.155143 84.25137 
L 70.704355 83.587932 
L 71.253568 83.316827 
L 71.802781 83.505477 
L 72.351993 84.027917 
L 74.548844 90.36357 
L 76.745694 99.756457 
L 77.844119 102.147433 
L 78.942544 104.498412 
L 79.491757 106.253964 
L 80.590182 110.499775 
L 81.139395 112.102893 
L 81.688607 112.341663 
L 82.23782 111.869893 
L 82.787032 110.06568 
L 84.43467 101.648489 
L 84.983883 99.865623 
L 85.533095 98.876437 
L 86.631521 98.476584 
L 87.180733 97.352672 
L 87.729946 95.581102 
L 88.279158 93.342146 
L 89.926796 84.067494 
L 90.476009 83.032005 
L 91.025221 82.702619 
L 91.574434 83.194973 
L 92.123647 84.11093 
L 93.222072 86.332736 
L 93.771284 86.332289 
L 94.86971 87.15227 
L 95.418922 88.039275 
L 98.164985 102.983109 
L 98.714198 105.247793 
L 99.26341 106.339291 
L 99.812623 106.569891 
L 100.361836 106.63894 
L 100.911048 106.306999 
L 101.460261 106.149741 
L 102.009473 104.958549 
L 103.107899 103.678184 
L 103.657111 102.787293 
L 104.206324 102.277802 
L 104.755536 101.256916 
L 106.403174 97.165908 
L 108.050812 90.153465 
L 108.600025 88.484729 
L 109.149237 85.837265 
L 109.69845 84.797467 
L 110.247662 82.989247 
L 110.796875 83.086563 
L 111.346088 82.891291 
L 111.8953 84.433582 
L 112.444513 84.556787 
L 112.993725 85.046414 
L 113.542938 84.911634 
L 114.092151 85.230971 
L 114.641363 84.685054 
L 115.190576 85.282609 
L 115.739788 86.154394 
L 116.838214 92.721129 
L 118.485851 108.348032 
L 119.035064 112.477496 
L 119.584277 113.883455 
L 120.133489 116.409635 
L 121.231914 117.565321 
L 121.781127 116.484262 
L 122.33034 116.316373 
L 123.428765 111.197971 
L 126.174828 91.05337 
L 126.72404 88.329251 
L 127.273253 86.966614 
L 127.822466 84.85655 
L 128.920891 79.185941 
L 130.019316 72.593291 
L 130.568529 70.139216 
L 131.117741 69.574155 
L 131.666954 70.671009 
L 132.765379 74.156491 
L 133.314592 76.977869 
L 134.962229 82.901921 
L 135.511442 85.886526 
L 137.15908 96.050268 
L 137.708292 98.894827 
L 138.806718 101.20413 
L 139.35593 101.519197 
L 139.905143 101.419871 
L 141.552781 107.104744 
L 142.101993 108.152612 
L 142.651206 108.3171 
L 143.200418 107.075706 
L 143.749631 104.65214 
L 145.397269 92.492813 
L 146.495694 87.316273 
L 147.044906 87.747482 
L 147.594119 89.045686 
L 148.143332 89.831363 
L 149.241757 90.278675 
L 149.790969 90.210792 
L 150.340182 90.740979 
L 150.889395 90.297052 
L 151.438607 90.818989 
L 151.98782 91.792293 
L 154.18467 99.22612 
L 154.733883 100.775878 
L 155.283095 102.921601 
L 155.832308 105.542655 
L 156.381521 107.463432 
L 156.930733 108.767584 
L 157.479946 108.627508 
L 158.029158 106.956657 
L 158.578371 103.293184 
L 159.676796 93.334527 
L 160.226009 89.665691 
L 161.324434 87.425008 
L 161.873647 87.148055 
L 162.422859 87.518407 
L 162.972072 88.151902 
L 163.521284 87.003876 
L 164.61971 84.107048 
L 165.718135 84.15122 
L 166.267347 85.09536 
L 166.81656 86.740803 
L 167.365773 88.020076 
L 167.914985 91.53002 
L 168.464198 93.264139 
L 169.562623 99.48055 
L 171.210261 116.070118 
L 172.308686 123.877283 
L 172.857899 125.179283 
L 173.407111 125.35131 
L 173.956324 123.719124 
L 174.505536 121.730264 
L 175.054749 119.056088 
L 175.603962 117.035863 
L 176.153174 115.573064 
L 177.251599 110.699034 
L 178.350025 101.898241 
L 178.899237 95.941272 
L 179.997662 81.666689 
L 180.546875 75.509409 
L 181.6453 67.35564 
L 182.743725 62.081332 
L 183.842151 58.263485 
L 184.391363 57.906495 
L 184.940576 57.289886 
L 185.489788 56.966142 
L 186.039001 58.3286 
L 186.588214 60.847348 
L 187.686639 67.698242 
L 188.235851 71.663739 
L 189.334277 80.793988 
L 190.981914 94.161693 
L 193.727977 118.526104 
L 195.375615 128.664985 
L 195.924828 130.699278 
L 196.47404 130.037185 
L 197.023253 127.465622 
L 198.121678 119.097578 
L 200.318529 98.328962 
L 200.867741 93.919471 
L 203.064592 67.843253 
L 203.613804 62.988793 
L 204.163017 59.155756 
L 205.261442 55.714603 
L 205.810655 55.335272 
L 206.359867 54.653319 
L 206.90908 55.188757 
L 208.007505 58.113096 
L 208.556718 60.479344 
L 210.753568 82.512039 
L 214.598056 124.346671 
L 215.147269 129.73677 
L 215.696481 133.749475 
L 216.794906 139.569402 
L 217.344119 140.700563 
L 217.893332 139.432199 
L 218.442544 136.386669 
L 218.991757 132.07343 
L 220.090182 120.257573 
L 221.73782 101.593612 
L 222.836245 89.326662 
L 225.033095 59.331347 
L 225.582308 53.60536 
L 226.131521 49.485307 
L 226.680733 47.25539 
L 227.229946 46.427687 
L 227.779158 46.439614 
L 228.328371 48.310373 
L 228.877584 51.235702 
L 229.426796 55.183245 
L 229.976009 61.021963 
L 230.525221 69.506874 
L 232.172859 99.119962 
L 233.271284 116.322043 
L 234.918922 138.1483 
L 236.017347 149.044577 
L 236.56656 153.116884 
L 237.115773 156.146275 
L 237.664985 156.543191 
L 238.214198 155.833587 
L 238.76341 152.590872 
L 239.312623 148.592432 
L 239.861836 142.636267 
L 240.411048 135.108982 
L 244.255536 70.321644 
L 246.452387 45.327899 
L 247.001599 40.857171 
L 247.550812 37.414492 
L 248.100025 35.498881 
L 248.649237 34.886415 
L 249.19845 37.030785 
L 250.296875 46.360937 
L 251.3953 61.411891 
L 254.690576 109.712786 
L 255.789001 122.653351 
L 256.887426 133.545861 
L 257.436639 137.252539 
L 257.985851 139.823169 
L 258.535064 140.501842 
L 259.084277 140.164682 
L 260.182702 133.662325 
L 261.281127 122.23529 
L 264.576403 77.162803 
L 265.125615 70.969182 
L 266.773253 57.231353 
L 268.420891 48.380223 
L 268.970103 47.366602 
L 269.519316 47.930569 
L 270.068529 50.228465 
L 270.617741 54.964587 
L 271.716166 68.357083 
L 272.814592 82.531921 
L 275.011442 107.17996 
L 277.208292 129.588137 
L 277.757505 132.345568 
L 278.306718 132.864111 
L 278.85593 132.049444 
L 279.405143 130.573968 
L 281.052781 123.716007 
L 281.601993 121.180936 
L 282.151206 117.421535 
L 282.700418 112.795752 
L 283.798844 100.205761 
L 285.446481 80.748435 
L 286.544906 70.342473 
L 287.094119 66.263475 
L 287.643332 63.839793 
L 288.192544 62.042748 
L 288.741757 61.995648 
L 289.290969 64.169926 
L 290.389395 72.76009 
L 292.037032 85.099668 
L 293.135458 90.78806 
L 293.68467 95.01091 
L 294.233883 100.324833 
L 294.783095 107.039203 
L 295.881521 116.736786 
L 296.430733 118.93839 
L 296.979946 120.023387 
L 297.529158 119.221796 
L 298.627584 115.358453 
L 300.275221 109.035893 
L 301.922859 101.931646 
L 302.472072 100.559363 
L 303.021284 100.419444 
L 303.570497 100.424185 
L 304.11971 100.762676 
L 304.668922 100.620752 
L 305.218135 99.11836 
L 306.31656 93.233005 
L 306.865773 91.144045 
L 307.414985 89.827537 
L 307.964198 89.240012 
L 308.51341 89.296852 
L 309.062623 89.744864 
L 309.611836 89.447278 
L 311.259473 84.430482 
L 311.808686 83.573456 
L 312.357899 82.377495 
L 312.907111 82.521115 
L 313.456324 82.438994 
L 314.005536 82.927177 
L 314.554749 81.999425 
L 315.653174 81.913398 
L 316.202387 82.934852 
L 316.751599 84.325645 
L 321.1453 107.673403 
L 321.694513 111.615945 
L 322.243725 114.590453 
L 322.792938 115.915164 
L 323.342151 115.660811 
L 323.891363 115.256296 
L 324.440576 114.419103 
L 326.088214 110.113014 
L 326.637426 107.940901 
L 327.186639 103.742392 
L 329.383489 80.963493 
L 329.932702 76.908056 
L 330.481914 74.075497 
L 331.58034 71.414073 
L 332.129552 69.346608 
L 332.678765 67.77706 
L 333.227977 67.010831 
L 333.77719 66.638208 
L 334.326403 67.351237 
L 335.424828 71.589909 
L 337.621678 81.523252 
L 338.720103 89.419842 
L 340.367741 104.542534 
L 341.466166 112.250627 
L 343.113804 120.673385 
L 343.663017 122.595716 
L 344.212229 122.808892 
L 344.761442 121.566715 
L 345.310655 118.513305 
L 345.859867 114.455547 
L 347.507505 98.877424 
L 348.60593 91.200459 
L 349.704355 82.100304 
L 351.901206 63.820876 
L 352.450418 62.657818 
L 352.999631 62.818875 
L 353.548844 64.305703 
L 354.098056 66.71485 
L 355.196481 74.173415 
L 355.745694 79.160103 
L 356.294906 85.207465 
L 358.491757 114.379594 
L 359.040969 119.850438 
L 359.590182 123.850673 
L 360.139395 126.554996 
L 361.23782 130.031963 
L 361.787032 131.217534 
L 362.336245 132.001894 
L 362.885458 131.651599 
L 363.43467 129.568757 
L 363.983883 125.344136 
L 364.533095 119.757498 
L 367.279158 84.872276 
L 368.926796 68.459325 
L 369.476009 64.061681 
L 370.025221 60.587036 
L 370.574434 58.493193 
L 371.123647 57.430344 
L 371.672859 56.625418 
L 372.222072 56.249604 
L 372.771284 56.169706 
L 373.320497 56.472915 
L 373.86971 57.694992 
L 374.418922 59.507754 
L 374.968135 63.013909 
L 376.06656 74.807616 
L 378.812623 105.756305 
L 380.460261 122.137877 
L 381.009473 126.344175 
L 381.558686 129.466184 
L 382.107899 131.414623 
L 382.657111 132.165069 
L 383.206324 131.83815 
L 383.755536 130.908874 
L 384.304749 129.488841 
L 384.853962 127.475343 
L 385.403174 124.043968 
L 385.952387 119.644964 
L 387.050812 108.336165 
L 388.69845 88.233097 
L 390.346088 73.404607 
L 390.8953 69.355379 
L 391.444513 66.444528 
L 391.993725 64.1569 
L 392.542938 62.864822 
L 393.092151 62.59294 
L 393.641363 62.881931 
L 394.190576 63.935255 
L 394.739788 65.569622 
L 395.289001 67.838682 
L 395.838214 71.107431 
L 396.387426 75.227154 
L 397.485851 86.136054 
L 399.682702 110.88923 
L 400.781127 120.297478 
L 401.33034 123.452771 
L 401.879552 125.847518 
L 402.428765 127.677738 
L 402.977977 128.465018 
L 403.52719 127.645279 
L 404.076403 125.761434 
L 404.625615 122.849141 
L 405.72404 114.739747 
L 407.920891 93.653323 
L 410.117741 70.59073 
L 411.216166 62.101838 
L 411.765379 59.259921 
L 412.314592 58.133386 
L 412.863804 58.630127 
L 413.413017 60.180462 
L 413.962229 62.803684 
L 415.060655 70.221378 
L 420.552781 112.369351 
L 421.101993 115.693997 
L 421.651206 118.27406 
L 422.200418 119.640824 
L 422.749631 119.970459 
L 423.298844 119.319361 
L 423.848056 117.322379 
L 424.397269 114.540647 
L 426.044906 104.05193 
L 427.692544 91.802695 
L 429.340182 78.83563 
L 430.438607 72.252187 
L 430.98782 69.850516 
L 431.537032 68.268154 
L 432.086245 67.231202 
L 432.635458 66.6753 
L 433.18467 66.721729 
L 433.733883 67.778637 
L 434.283095 70.242148 
L 434.832308 73.639641 
L 435.930733 82.730463 
L 437.578371 97.372591 
L 439.226009 107.812103 
L 440.324434 113.515472 
L 440.873647 115.793285 
L 441.422859 117.37106 
L 441.972072 118.325558 
L 442.521284 118.315896 
L 443.070497 117.561949 
L 443.61971 116.127903 
L 444.168922 114.217606 
L 444.718135 111.549289 
L 445.81656 104.080678 
L 448.562623 79.89451 
L 449.661048 73.717153 
L 450.210261 71.786395 
L 451.308686 69.004617 
L 451.857899 68.280135 
L 452.407111 68.323921 
L 452.956324 69.174282 
L 453.505536 70.76166 
L 454.054749 73.092483 
L 455.153174 80.094285 
L 456.800812 91.849711 
L 458.997662 108.568399 
L 459.546875 112.091444 
L 460.096088 114.708326 
L 460.6453 116.4312 
L 461.194513 117.422164 
L 461.743725 117.598936 
L 462.292938 117.175393 
L 462.842151 116.306581 
L 463.391363 115.130094 
L 463.940576 113.442882 
L 464.489788 111.04817 
L 465.588214 104.122078 
L 468.334277 83.852581 
L 469.432702 77.478263 
L 470.531127 72.606091 
L 471.08034 71.034363 
L 471.629552 70.233383 
L 472.178765 70.416943 
L 472.727977 71.536691 
L 473.826403 74.992757 
L 474.924828 79.453468 
L 476.023253 84.790108 
L 477.121678 91.698887 
L 478.769316 102.435759 
L 479.318529 104.939537 
L 479.867741 106.532469 
L 479.867741 106.532469 
" clip-path="url(#p12e48a9f78)" style="fill: none; stroke-dasharray: 4.44,1.92; stroke-dashoffset: 0; stroke: #ff0000; stroke-width: 1.2"/>
   </g>
   <g id="line2d_31">
    <path d="M 41.046875 94.507087 
L 43.243725 94.589913 
L 44.891363 94.897182 
L 47.088214 95.551502 
L 49.834277 95.783657 
L 50.932702 95.67697 
L 52.58034 95.165974 
L 53.678765 95.384098 
L 54.227977 95.732818 
L 55.326403 96.964491 
L 56.424828 97.348581 
L 57.523253 98.051361 
L 58.072466 98.175823 
L 58.621678 98.180882 
L 59.170891 98.441417 
L 60.269316 99.392285 
L 60.818529 99.937735 
L 61.367741 99.960081 
L 61.916954 99.78331 
L 63.564592 98.612095 
L 65.212229 96.128875 
L 65.761442 95.851267 
L 66.310655 95.778349 
L 66.859867 95.364414 
L 67.40908 94.288257 
L 68.507505 90.924265 
L 69.60593 86.777105 
L 70.155143 84.902766 
L 70.704355 83.909974 
L 71.802781 84.016123 
L 72.351993 84.507028 
L 73.450418 87.482733 
L 73.999631 88.899221 
L 74.548844 90.699702 
L 76.196481 98.458866 
L 76.745694 100.450982 
L 77.294906 101.965133 
L 78.393332 103.835796 
L 78.942544 105.372631 
L 81.139395 112.618538 
L 81.688607 113.029202 
L 82.23782 112.553357 
L 82.787032 110.804569 
L 83.336245 108.140812 
L 84.43467 102.036721 
L 84.983883 100.449969 
L 85.533095 99.614452 
L 86.082308 99.369426 
L 86.631521 99.250131 
L 87.180733 98.039333 
L 87.729946 96.181784 
L 88.828371 91.169921 
L 89.377584 87.59568 
L 89.926796 84.930422 
L 90.476009 83.450752 
L 91.025221 83.382121 
L 92.123647 84.940192 
L 92.672859 86.490894 
L 93.222072 87.105652 
L 93.771284 87.149939 
L 94.320497 87.789108 
L 94.86971 88.046844 
L 95.418922 89.104841 
L 96.517347 94.875506 
L 98.164985 103.765082 
L 98.714198 106.373416 
L 99.26341 107.500976 
L 99.812623 107.323329 
L 100.361836 107.590284 
L 100.911048 107.563423 
L 102.009473 106.365571 
L 102.558686 105.85411 
L 103.107899 104.641408 
L 103.657111 103.719584 
L 104.206324 103.076716 
L 105.304749 101.248985 
L 106.952387 95.860281 
L 108.050812 91.630106 
L 109.69845 85.696605 
L 110.247662 84.583429 
L 110.796875 84.679047 
L 111.346088 84.164963 
L 111.8953 85.528292 
L 112.993725 86.472673 
L 113.542938 86.246375 
L 114.092151 86.1819 
L 114.641363 85.9899 
L 115.190576 86.474307 
L 115.739788 87.595181 
L 116.289001 90.13426 
L 116.838214 93.687208 
L 118.485851 109.436306 
L 119.035064 113.111835 
L 120.133489 116.832371 
L 120.682702 118.042837 
L 121.231914 117.828416 
L 121.781127 117.438817 
L 122.33034 116.526431 
L 123.428765 111.534545 
L 126.174828 91.057078 
L 126.72404 88.541483 
L 127.822466 85.035259 
L 128.920891 78.910107 
L 130.019316 72.566032 
L 130.568529 70.299313 
L 131.117741 70.006505 
L 131.666954 71.114009 
L 132.216166 72.480475 
L 132.765379 74.173598 
L 133.314592 77.184898 
L 134.413017 81.268676 
L 134.962229 83.098295 
L 135.511442 85.71838 
L 136.609867 93.202081 
L 137.708292 99.205613 
L 138.806718 101.60512 
L 139.35593 102.026295 
L 139.905143 102.207466 
L 142.101993 108.785226 
L 142.651206 108.853413 
L 143.200418 107.81993 
L 143.749631 105.515959 
L 145.397269 93.199766 
L 145.946481 90.074176 
L 146.495694 88.251263 
L 147.044906 88.087874 
L 147.594119 89.035339 
L 148.143332 90.354678 
L 148.692544 90.079011 
L 149.241757 90.13367 
L 149.790969 90.882961 
L 150.889395 90.601652 
L 151.438607 90.900283 
L 151.98782 91.456437 
L 155.283095 102.604535 
L 156.381521 108.259213 
L 156.930733 109.137755 
L 157.479946 108.787576 
L 158.029158 107.293875 
L 158.578371 103.762363 
L 159.676796 93.95414 
L 160.226009 90.877874 
L 160.775221 88.946044 
L 161.324434 88.163021 
L 161.873647 88.137023 
L 162.422859 88.616354 
L 162.972072 88.929255 
L 163.521284 88.007877 
L 164.070497 86.01438 
L 164.61971 85.075654 
L 165.168922 84.820861 
L 165.718135 84.830031 
L 166.267347 85.565432 
L 166.81656 87.571119 
L 167.365773 89.12565 
L 168.464198 94.156227 
L 169.01341 96.792544 
L 170.111836 105.470426 
L 171.759473 120.704382 
L 172.308686 124.159423 
L 172.857899 125.756658 
L 173.407111 125.75891 
L 173.956324 124.301876 
L 174.505536 122.387164 
L 175.054749 119.02649 
L 175.603962 117.23523 
L 176.153174 115.976189 
L 176.702387 113.809482 
L 177.251599 111.103445 
L 177.800812 107.28819 
L 178.899237 96.007563 
L 179.997662 81.60682 
L 181.096088 70.293491 
L 182.743725 62.249216 
L 183.292938 60.666701 
L 183.842151 58.618493 
L 184.391363 58.014157 
L 185.489788 57.547714 
L 186.039001 58.418117 
L 187.686639 68.647248 
L 189.883489 85.777455 
L 191.531127 100.23711 
L 192.629552 109.218301 
L 194.27719 123.043812 
L 195.924828 131.190494 
L 196.47404 131.275692 
L 197.023253 128.589969 
L 198.121678 120.446995 
L 199.769316 104.431516 
L 200.867741 95.096165 
L 203.613804 64.09813 
L 204.163017 60.746707 
L 205.261442 57.272511 
L 205.810655 56.65853 
L 206.359867 56.369416 
L 206.90908 57.648115 
L 208.007505 60.790027 
L 208.556718 63.798268 
L 209.10593 68.473694 
L 210.204355 81.007815 
L 210.753568 85.581839 
L 213.499631 115.651299 
L 214.048844 120.29054 
L 215.147269 131.495445 
L 215.696481 136.234058 
L 216.245694 139.562098 
L 216.794906 141.779905 
L 217.344119 143.243481 
L 217.893332 141.75521 
L 218.991757 134.783868 
L 221.73782 103.491112 
L 222.836245 91.66067 
L 225.582308 56.727235 
L 226.131521 53.195092 
L 227.229946 49.544517 
L 227.779158 49.049577 
L 228.877584 54.097521 
L 229.426796 58.329462 
L 229.976009 63.792676 
L 230.525221 71.723615 
L 232.172859 101.948819 
L 233.271284 118.751979 
L 234.918922 140.75175 
L 235.468135 146.969655 
L 236.56656 155.343637 
L 237.115773 158.066495 
L 237.664985 159.130164 
L 238.214198 157.984332 
L 238.76341 155.053864 
L 239.312623 150.697102 
L 239.861836 144.739042 
L 240.411048 137.526113 
L 242.607899 97.794284 
L 243.706324 79.392928 
L 245.353962 58.908986 
L 246.452387 46.887006 
L 247.001599 42.402037 
L 247.550812 39.017589 
L 248.100025 37.437126 
L 248.649237 36.538277 
L 249.19845 38.688109 
L 249.747662 42.33194 
L 250.296875 47.240219 
L 251.944513 71.447748 
L 254.141363 104.926115 
L 256.338214 130.078213 
L 256.887426 135.38101 
L 257.436639 139.271572 
L 257.985851 141.477626 
L 258.535064 142.405317 
L 259.084277 141.47282 
L 259.633489 139.035026 
L 260.182702 135.192447 
L 261.281127 123.803193 
L 264.02719 85.48572 
L 265.125615 72.33535 
L 266.22404 62.244843 
L 267.322466 55.30265 
L 268.420891 49.915491 
L 268.970103 48.859469 
L 269.519316 49.431509 
L 270.068529 51.570653 
L 270.617741 56.404503 
L 271.166954 62.502464 
L 273.363804 91.031657 
L 277.208292 131.393421 
L 277.757505 133.993334 
L 278.306718 134.838468 
L 278.85593 133.462935 
L 279.405143 132.491504 
L 281.052781 125.763646 
L 281.601993 122.950322 
L 282.700418 114.310218 
L 283.798844 102.150641 
L 284.897269 89.333137 
L 286.544906 72.495792 
L 287.094119 68.676883 
L 287.643332 65.650387 
L 288.192544 63.763734 
L 288.741757 63.763035 
L 289.290969 65.899581 
L 289.840182 69.688896 
L 291.48782 83.737128 
L 292.037032 87.624655 
L 293.135458 92.904845 
L 293.68467 97.548868 
L 295.881521 119.331947 
L 296.430733 121.915578 
L 296.979946 122.839979 
L 297.529158 122.366048 
L 298.078371 120.724916 
L 298.627584 118.649584 
L 299.726009 113.659254 
L 300.824434 109.609603 
L 301.922859 104.00802 
L 302.472072 102.733497 
L 303.021284 102.350161 
L 304.11971 103.040406 
L 304.668922 102.78806 
L 305.218135 101.17308 
L 306.31656 95.319284 
L 306.865773 93.098661 
L 307.414985 92.000396 
L 307.964198 91.365444 
L 308.51341 91.353648 
L 309.062623 91.923155 
L 309.611836 91.891507 
L 310.710261 88.59606 
L 311.808686 85.747253 
L 312.357899 84.787463 
L 312.907111 84.745169 
L 313.456324 85.105999 
L 314.005536 85.267728 
L 314.554749 84.364176 
L 315.103962 83.986113 
L 315.653174 84.332402 
L 316.202387 85.288235 
L 316.751599 86.662124 
L 317.850025 92.434052 
L 321.1453 109.330805 
L 321.694513 113.50817 
L 322.243725 116.497298 
L 322.792938 117.58437 
L 323.342151 117.464548 
L 324.440576 115.999333 
L 324.989788 114.982179 
L 326.088214 112.162592 
L 326.637426 109.979462 
L 327.186639 105.442093 
L 329.383489 82.470245 
L 329.932702 78.385885 
L 330.481914 75.8223 
L 331.58034 72.781118 
L 332.678765 69.411859 
L 333.227977 68.309422 
L 333.77719 68.173739 
L 334.326403 69.147811 
L 335.424828 73.476639 
L 335.97404 76.029177 
L 336.523253 77.93516 
L 337.621678 83.722129 
L 338.170891 86.936009 
L 339.818529 101.223064 
L 340.916954 110.572871 
L 342.015379 116.784175 
L 343.663017 124.850815 
L 344.212229 124.941388 
L 344.761442 123.683615 
L 345.310655 120.775971 
L 345.859867 116.697141 
L 347.507505 101.186946 
L 348.60593 93.611025 
L 349.704355 84.766695 
L 351.351993 69.826019 
L 351.901206 66.149802 
L 352.450418 64.854134 
L 352.999631 64.778605 
L 353.548844 66.38673 
L 354.098056 68.678078 
L 355.196481 75.87466 
L 355.745694 80.729377 
L 356.294906 86.906613 
L 358.491757 116.115945 
L 359.040969 121.792175 
L 359.590182 125.516852 
L 360.139395 128.332261 
L 361.23782 131.701879 
L 362.336245 134.168898 
L 362.885458 133.932056 
L 363.43467 131.658106 
L 363.983883 127.310507 
L 364.533095 121.446602 
L 367.279158 86.313353 
L 368.377584 74.872965 
L 369.476009 65.448262 
L 370.025221 61.932725 
L 370.574434 60.075924 
L 371.123647 59.119824 
L 372.222072 58.080567 
L 372.771284 57.803187 
L 373.320497 58.266769 
L 373.86971 59.489839 
L 374.418922 61.365837 
L 374.968135 65.036679 
L 376.06656 76.661962 
L 377.714198 96.049485 
L 379.911048 119.517916 
L 380.460261 124.423842 
L 381.558686 131.547247 
L 382.107899 133.382087 
L 382.657111 134.234119 
L 383.206324 134.016118 
L 383.755536 133.03749 
L 384.304749 131.565898 
L 384.853962 129.606271 
L 385.403174 126.253642 
L 385.952387 121.681569 
L 387.050812 110.021681 
L 389.247662 84.556194 
L 390.346088 75.136904 
L 390.8953 70.905023 
L 391.993725 65.608406 
L 392.542938 64.514896 
L 393.092151 64.065464 
L 393.641363 64.674643 
L 394.190576 65.533256 
L 394.739788 66.936911 
L 395.289001 69.193913 
L 396.387426 76.77979 
L 397.485851 87.633466 
L 399.682702 112.389901 
L 400.781127 121.836257 
L 401.879552 127.603907 
L 402.428765 129.426438 
L 402.977977 130.149593 
L 403.52719 129.542046 
L 404.076403 127.496356 
L 405.174828 120.746569 
L 406.273253 111.383973 
L 408.470103 89.250979 
L 410.117741 71.641235 
L 410.666954 66.784867 
L 411.216166 63.052496 
L 411.765379 60.316063 
L 412.314592 58.968206 
L 412.863804 59.348289 
L 413.413017 61.092703 
L 413.962229 63.622658 
L 415.060655 71.07167 
L 416.15908 79.902322 
L 417.257505 89.137995 
L 420.552781 113.668452 
L 421.651206 119.517921 
L 422.200418 121.013179 
L 422.749631 121.371587 
L 423.298844 120.469475 
L 423.848056 118.543821 
L 424.397269 115.77963 
L 426.594119 101.132961 
L 427.692544 92.829629 
L 429.340182 79.722859 
L 430.438607 73.084503 
L 430.98782 70.505739 
L 431.537032 68.758244 
L 432.086245 67.748221 
L 432.635458 67.246916 
L 433.18467 67.336424 
L 433.733883 68.244905 
L 434.283095 70.68684 
L 434.832308 74.215543 
L 435.930733 83.519125 
L 437.578371 98.076188 
L 439.226009 108.531622 
L 440.324434 114.291662 
L 440.873647 116.562073 
L 441.422859 118.133724 
L 441.972072 119.156505 
L 442.521284 119.179896 
L 443.070497 118.509656 
L 443.61971 117.107349 
L 444.168922 115.053349 
L 445.267347 108.974272 
L 446.365773 100.10229 
L 448.01341 84.592173 
L 449.111836 76.952715 
L 449.661048 74.118732 
L 450.759473 70.60884 
L 451.308686 69.444497 
L 451.857899 68.559338 
L 452.407111 68.518339 
L 452.956324 69.465088 
L 453.505536 71.024648 
L 454.054749 73.353144 
L 455.153174 80.450494 
L 456.800812 92.328282 
L 458.997662 109.296508 
L 459.546875 112.855333 
L 460.096088 115.339462 
L 460.6453 117.091149 
L 461.194513 118.119192 
L 461.743725 118.400734 
L 462.292938 117.920542 
L 463.391363 115.905373 
L 463.940576 114.219475 
L 464.489788 111.831967 
L 465.039001 108.708649 
L 466.137426 100.742328 
L 467.785064 88.292497 
L 468.883489 81.14084 
L 469.981914 75.503383 
L 470.531127 73.352135 
L 471.08034 71.876415 
L 471.629552 71.148807 
L 472.178765 71.509098 
L 472.727977 72.736555 
L 473.826403 76.708684 
L 474.924828 81.341429 
L 476.023253 86.807557 
L 477.121678 93.733254 
L 478.769316 104.638678 
L 479.867741 109.841977 
L 479.867741 109.841977 
" clip-path="url(#p12e48a9f78)" style="fill: none; stroke-dasharray: 7.68,1.92,1.2,1.92; stroke-dashoffset: 0; stroke: #0000ff; stroke-width: 1.2"/>
   </g>
   <g id="line2d_32">
    <path d="M 41.046875 94.507087 
L 43.243725 94.570386 
L 45.440576 94.923581 
L 47.088214 95.304016 
L 49.834277 95.465771 
L 51.481914 95.273388 
L 52.58034 94.958663 
L 53.678765 95.071457 
L 54.227977 95.270058 
L 55.875615 96.30755 
L 56.424828 96.348814 
L 58.072466 96.84563 
L 58.621678 96.8145 
L 59.170891 96.913494 
L 60.818529 98.002642 
L 61.367741 98.118778 
L 62.466166 97.899032 
L 63.015379 97.560194 
L 64.113804 96.398628 
L 65.212229 94.865796 
L 66.859867 93.657516 
L 67.40908 92.998521 
L 68.507505 90.402292 
L 70.155143 85.489723 
L 70.704355 84.6584 
L 71.253568 84.485769 
L 71.802781 84.642646 
L 72.351993 85.061359 
L 72.901206 86.175429 
L 73.999631 89.071989 
L 74.548844 90.458442 
L 75.098056 92.362898 
L 76.196481 96.830475 
L 76.745694 98.475786 
L 78.393332 102.031751 
L 79.491757 105.296027 
L 81.139395 110.710289 
L 81.688607 111.093228 
L 82.23782 110.389069 
L 82.787032 108.938584 
L 83.336245 106.656237 
L 84.43467 100.702183 
L 84.983883 98.563408 
L 85.533095 97.165098 
L 87.180733 94.393546 
L 88.279158 90.690226 
L 88.828371 88.502559 
L 89.926796 83.091402 
L 90.476009 81.6787 
L 91.025221 81.210815 
L 91.574434 81.57686 
L 92.123647 82.192852 
L 92.672859 83.286885 
L 93.222072 84.826976 
L 93.771284 85.730762 
L 94.320497 86.343727 
L 95.418922 88.237797 
L 95.968135 89.962896 
L 97.06656 94.826733 
L 97.615773 96.910504 
L 98.714198 102.711173 
L 99.26341 104.580503 
L 99.812623 105.217554 
L 100.361836 105.465367 
L 100.911048 105.874057 
L 101.460261 105.827019 
L 102.558686 103.380043 
L 104.206324 101.443513 
L 104.755536 100.721441 
L 105.304749 99.626824 
L 106.403174 96.396841 
L 106.952387 94.050037 
L 108.050812 88.705393 
L 109.149237 85.02628 
L 109.69845 83.627743 
L 110.247662 82.647938 
L 110.796875 82.735963 
L 112.993725 85.355831 
L 113.542938 85.679961 
L 114.092151 85.793992 
L 114.641363 86.088309 
L 115.190576 86.51925 
L 115.739788 87.591451 
L 116.289001 89.687265 
L 116.838214 92.716505 
L 117.387426 96.436505 
L 118.485851 105.31625 
L 119.035064 108.776205 
L 119.584277 111.338976 
L 120.682702 114.070589 
L 121.231914 114.332757 
L 121.781127 113.73966 
L 122.33034 112.941247 
L 122.879552 111.427131 
L 123.428765 108.987502 
L 124.52719 102.661076 
L 126.72404 89.412499 
L 127.822466 84.619081 
L 130.019316 71.267981 
L 130.568529 69.414942 
L 131.117741 68.741779 
L 131.666954 69.587804 
L 132.765379 73.586551 
L 133.863804 79.247933 
L 134.962229 84.852124 
L 136.060655 91.853958 
L 136.609867 95.627984 
L 137.708292 100.811544 
L 138.257505 102.274449 
L 139.35593 103.667026 
L 139.905143 104.173439 
L 140.454355 105.422516 
L 141.003568 107.473833 
L 141.552781 108.984654 
L 142.101993 109.796274 
L 142.651206 109.776828 
L 143.200418 108.746004 
L 143.749631 106.895648 
L 144.298844 103.748657 
L 145.397269 96.461428 
L 146.495694 91.667243 
L 147.044906 90.418182 
L 147.594119 90.292775 
L 148.143332 90.538165 
L 148.692544 90.553512 
L 149.241757 90.144109 
L 149.790969 90.10323 
L 150.340182 90.478714 
L 150.889395 90.4526 
L 151.438607 90.211528 
L 151.98782 90.453409 
L 152.537032 91.52985 
L 153.635458 94.598722 
L 154.733883 98.84109 
L 155.283095 101.425594 
L 155.832308 104.619921 
L 156.381521 107.131744 
L 156.930733 108.196293 
L 157.479946 107.928552 
L 158.029158 106.348865 
L 158.578371 103.34958 
L 159.676796 94.756708 
L 160.226009 91.832461 
L 160.775221 90.545531 
L 161.873647 88.894291 
L 162.422859 88.895993 
L 162.972072 89.024035 
L 163.521284 88.20049 
L 164.61971 84.799351 
L 165.168922 84.381234 
L 165.718135 84.843627 
L 166.267347 85.04582 
L 166.81656 85.736382 
L 167.365773 87.193764 
L 167.914985 89.360462 
L 169.01341 94.446133 
L 169.562623 97.829374 
L 171.759473 116.14065 
L 172.308686 118.551325 
L 172.857899 120.040185 
L 173.407111 120.061266 
L 174.505536 116.381929 
L 175.603962 112.570167 
L 176.153174 111.36242 
L 176.702387 109.635835 
L 177.800812 103.265417 
L 178.350025 98.716563 
L 179.44845 87.294819 
L 180.546875 75.15938 
L 181.6453 66.45799 
L 182.743725 60.630597 
L 183.292938 58.991074 
L 183.842151 57.992407 
L 184.391363 57.777033 
L 185.489788 59.042032 
L 186.039001 60.406623 
L 186.588214 63.179726 
L 187.686639 70.54984 
L 188.785064 79.514193 
L 189.883489 90.060244 
L 192.08034 108.321052 
L 193.178765 115.704147 
L 194.27719 123.49046 
L 195.375615 128.697996 
L 195.924828 130.496714 
L 196.47404 130.667516 
L 197.023253 128.521705 
L 198.670891 115.168537 
L 200.318529 100.432835 
L 200.867741 96.361825 
L 201.416954 91.163722 
L 203.064592 72.487996 
L 204.163017 62.999043 
L 204.712229 60.139695 
L 205.261442 58.391964 
L 205.810655 57.709058 
L 206.359867 57.751031 
L 206.90908 58.300471 
L 207.458292 60.105859 
L 208.007505 62.701775 
L 208.556718 65.984956 
L 209.10593 70.656753 
L 213.499631 117.537176 
L 215.147269 131.50656 
L 215.696481 134.655581 
L 216.245694 137.083393 
L 216.794906 138.539516 
L 217.344119 139.359863 
L 217.893332 138.604439 
L 218.442544 135.356854 
L 219.540969 126.389556 
L 223.385458 83.080801 
L 225.033095 61.879366 
L 225.582308 56.348438 
L 226.131521 52.010097 
L 226.680733 49.45981 
L 227.229946 48.324432 
L 227.779158 48.118758 
L 228.328371 49.475697 
L 228.877584 52.751743 
L 229.426796 57.34141 
L 229.976009 63.120117 
L 230.525221 70.594005 
L 233.271284 114.789232 
L 234.918922 135.438352 
L 235.468135 141.299679 
L 236.017347 145.925899 
L 236.56656 149.538848 
L 237.115773 151.714289 
L 237.664985 152.341239 
L 238.214198 151.392644 
L 238.76341 148.785336 
L 239.312623 144.72815 
L 239.861836 139.168417 
L 240.411048 131.957655 
L 241.509473 112.77545 
L 243.157111 81.926598 
L 244.255536 65.933923 
L 245.903174 48.087654 
L 246.452387 42.797577 
L 247.001599 38.638323 
L 247.550812 35.677209 
L 248.100025 34.262132 
L 248.649237 34.11127 
L 249.19845 35.993411 
L 249.747662 40.407351 
L 250.296875 46.017683 
L 251.3953 61.147921 
L 254.141363 104.540986 
L 255.789001 123.502272 
L 256.887426 133.715256 
L 257.436639 137.65414 
L 257.985851 140.183008 
L 258.535064 141.290932 
L 259.084277 140.75892 
L 259.633489 138.440986 
L 260.182702 134.712084 
L 261.281127 123.484111 
L 262.928765 100.730508 
L 264.576403 77.963884 
L 265.674828 66.78955 
L 266.773253 58.073324 
L 267.871678 52.794384 
L 268.420891 50.739675 
L 268.970103 49.790023 
L 269.519316 50.648008 
L 270.068529 53.027011 
L 270.617741 57.413581 
L 271.716166 70.398274 
L 273.363804 91.684756 
L 275.011442 109.917064 
L 276.109867 121.150434 
L 277.208292 130.68032 
L 277.757505 133.383941 
L 278.306718 134.381568 
L 278.85593 133.989813 
L 279.405143 132.854976 
L 279.954355 131.087774 
L 281.601993 121.994976 
L 282.151206 117.831377 
L 283.249631 106.54826 
L 285.446481 81.979384 
L 286.544906 71.228806 
L 287.094119 66.96406 
L 287.643332 63.871303 
L 288.192544 62.115598 
L 288.741757 61.807134 
L 289.290969 63.683144 
L 290.938607 76.002255 
L 292.037032 83.730803 
L 293.135458 89.41136 
L 293.68467 93.360648 
L 294.783095 105.261619 
L 295.332308 111.292853 
L 295.881521 115.707709 
L 296.430733 118.79594 
L 296.979946 120.562389 
L 297.529158 120.876068 
L 298.078371 119.819797 
L 299.176796 115.857823 
L 300.275221 111.081479 
L 301.922859 101.382627 
L 302.472072 99.287334 
L 303.021284 97.920643 
L 304.668922 95.725203 
L 305.218135 94.21187 
L 306.31656 88.005317 
L 306.865773 86.041638 
L 307.414985 85.397954 
L 307.964198 85.307911 
L 308.51341 85.781382 
L 309.611836 87.677789 
L 310.161048 87.486889 
L 311.259473 84.90529 
L 311.808686 84.012002 
L 312.357899 83.44954 
L 312.907111 83.169692 
L 314.005536 83.188093 
L 314.554749 82.771994 
L 315.103962 82.160992 
L 315.653174 82.237957 
L 316.202387 83.294557 
L 316.751599 84.965884 
L 321.1453 106.307444 
L 322.243725 112.582926 
L 322.792938 113.948198 
L 323.342151 113.675235 
L 324.440576 112.245399 
L 324.989788 111.094258 
L 326.637426 106.723655 
L 327.186639 103.661805 
L 329.932702 79.203566 
L 330.481914 76.115229 
L 331.031127 74.022054 
L 331.58034 72.614712 
L 332.678765 69.01435 
L 333.227977 67.934659 
L 333.77719 67.888224 
L 334.326403 68.717837 
L 334.875615 70.530863 
L 335.97404 75.382915 
L 337.621678 84.337528 
L 338.720103 93.088744 
L 339.818529 103.352756 
L 340.916954 111.650227 
L 341.466166 114.707761 
L 343.113804 120.80487 
L 343.663017 122.550027 
L 344.212229 122.978736 
L 344.761442 121.755579 
L 345.310655 119.215316 
L 345.859867 115.708468 
L 348.056718 98.275192 
L 348.60593 95.038419 
L 349.704355 86.716522 
L 351.901206 68.449887 
L 352.450418 66.044963 
L 352.999631 65.595459 
L 353.548844 66.301169 
L 354.098056 67.845549 
L 354.647269 70.363493 
L 355.196481 73.953931 
L 355.745694 78.618589 
L 356.844119 91.233937 
L 358.491757 112.453175 
L 359.040969 117.750257 
L 359.590182 121.684963 
L 360.139395 124.585532 
L 361.23782 128.546106 
L 361.787032 129.948741 
L 362.336245 130.831044 
L 362.885458 130.756007 
L 363.43467 128.826821 
L 363.983883 124.845773 
L 365.082308 112.864178 
L 367.279158 85.243851 
L 368.377584 73.274423 
L 369.476009 63.753342 
L 370.025221 60.419419 
L 370.574434 58.465843 
L 371.123647 57.813149 
L 371.672859 57.636038 
L 372.222072 57.595566 
L 372.771284 57.883365 
L 373.320497 58.648443 
L 373.86971 60.203233 
L 374.418922 62.740242 
L 374.968135 66.582693 
L 376.06656 78.984849 
L 377.714198 98.482022 
L 379.361836 114.719696 
L 380.460261 124.12364 
L 381.009473 127.764969 
L 381.558686 130.363383 
L 382.107899 131.895658 
L 382.657111 132.466427 
L 383.206324 132.206384 
L 383.755536 131.273399 
L 384.304749 129.788501 
L 384.853962 127.67701 
L 385.403174 124.624874 
L 385.952387 120.337876 
L 387.050812 108.875482 
L 389.247662 83.067971 
L 390.346088 73.281205 
L 390.8953 68.995252 
L 391.444513 65.788891 
L 391.993725 63.661794 
L 392.542938 62.384172 
L 393.092151 62.040059 
L 393.641363 62.574478 
L 394.190576 63.896127 
L 394.739788 65.85481 
L 395.289001 68.342099 
L 395.838214 71.59081 
L 396.936639 80.850589 
L 398.584277 99.146139 
L 399.682702 110.780136 
L 400.781127 119.545915 
L 401.33034 122.59053 
L 401.879552 124.788065 
L 402.428765 126.361159 
L 402.977977 127.106639 
L 403.52719 126.585408 
L 404.076403 124.889166 
L 404.625615 122.354801 
L 405.72404 115.176329 
L 406.822466 105.361489 
L 408.470103 88.921662 
L 410.117741 71.581846 
L 411.216166 63.043438 
L 411.765379 60.169422 
L 412.314592 58.737826 
L 412.863804 58.944636 
L 413.413017 60.43164 
L 413.962229 62.820627 
L 414.511442 66.102979 
L 415.609867 74.886108 
L 418.905143 102.900095 
L 420.552781 114.740436 
L 421.101993 118.152753 
L 421.651206 120.759221 
L 422.200418 122.160002 
L 422.749631 122.43846 
L 423.298844 121.693143 
L 423.848056 119.694951 
L 424.397269 116.712638 
L 426.594119 101.91465 
L 429.889395 78.043819 
L 430.98782 72.676711 
L 431.537032 70.898851 
L 432.086245 69.762158 
L 432.635458 69.148026 
L 433.18467 69.232632 
L 433.733883 70.230221 
L 434.283095 72.363264 
L 434.832308 75.605211 
L 435.930733 84.158646 
L 437.578371 98.425054 
L 438.676796 105.862631 
L 439.775221 112.512011 
L 440.873647 117.260357 
L 441.422859 118.902559 
L 441.972072 119.892469 
L 442.521284 120.026382 
L 443.070497 119.241981 
L 443.61971 117.795672 
L 444.168922 115.861208 
L 444.718135 113.248324 
L 445.267347 109.783453 
L 446.365773 100.803584 
L 448.01341 85.699145 
L 448.562623 81.559543 
L 449.661048 75.752763 
L 450.210261 73.773247 
L 450.759473 72.3105 
L 451.308686 71.167842 
L 451.857899 70.458912 
L 452.407111 70.380991 
L 452.956324 71.132413 
L 453.505536 72.626026 
L 454.054749 74.806731 
L 454.603962 77.828831 
L 456.800812 93.137211 
L 458.997662 110.044069 
L 459.546875 113.605556 
L 460.096088 116.239213 
L 460.6453 117.908363 
L 461.194513 118.798566 
L 461.743725 119.018225 
L 462.292938 118.581379 
L 462.842151 117.613643 
L 463.391363 116.268606 
L 463.940576 114.467293 
L 464.489788 112.024902 
L 465.588214 105.145948 
L 468.334277 85.20096 
L 469.432702 78.8793 
L 470.531127 74.12043 
L 471.08034 72.672295 
L 471.629552 72.055903 
L 472.178765 72.28996 
L 472.727977 73.386597 
L 473.826403 77.197232 
L 474.924828 81.945222 
L 476.023253 87.609452 
L 477.121678 94.568575 
L 478.220103 102.177701 
L 479.318529 108.299346 
L 479.867741 110.616792 
L 479.867741 110.616792 
" clip-path="url(#p12e48a9f78)" style="fill: none; stroke-dasharray: 1.2,1.98; stroke-dashoffset: 0; stroke: #00ff00; stroke-width: 1.2"/>
   </g>
   <g id="line2d_33">
    <path d="M 41.046875 94.507087 
L 43.243725 94.576728 
L 45.440576 94.953141 
L 47.088214 95.355061 
L 49.834277 95.534679 
L 51.481914 95.337834 
L 52.031127 95.193379 
L 52.58034 94.830403 
L 53.129552 94.670717 
L 54.77719 95.374004 
L 55.875615 96.511124 
L 56.424828 96.421993 
L 56.97404 96.156554 
L 58.621678 97.200184 
L 59.170891 97.005284 
L 59.720103 97.108532 
L 60.818529 97.679363 
L 61.367741 98.602055 
L 61.916954 99.095103 
L 64.113804 96.329991 
L 64.663017 95.924955 
L 65.212229 95.079445 
L 65.761442 93.758165 
L 66.310655 93.869559 
L 66.859867 94.387776 
L 67.958292 92.877566 
L 69.60593 87.350787 
L 70.155143 85.832165 
L 70.704355 83.748591 
L 71.253568 83.262004 
L 71.802781 84.882141 
L 72.351993 85.59722 
L 72.901206 84.877244 
L 73.450418 86.355224 
L 73.999631 89.34671 
L 74.548844 90.219411 
L 75.098056 91.415878 
L 76.196481 97.269308 
L 76.745694 98.21692 
L 77.294906 100.22841 
L 77.844119 101.192475 
L 78.393332 101.254257 
L 78.942544 102.338052 
L 80.040969 107.387392 
L 81.139395 110.616752 
L 81.688607 111.435972 
L 82.23782 110.446274 
L 82.787032 108.870522 
L 83.336245 108.037057 
L 83.885458 105.599387 
L 84.983883 96.470522 
L 86.082308 93.79604 
L 86.631521 93.983822 
L 87.180733 96.474867 
L 87.729946 96.160226 
L 88.828371 87.713134 
L 89.377584 87.249755 
L 90.476009 79.162608 
L 91.025221 81.146786 
L 91.574434 81.887463 
L 92.123647 82.338355 
L 92.672859 83.131122 
L 93.222072 84.732268 
L 93.771284 86.842351 
L 94.320497 88.263001 
L 94.86971 88.227504 
L 95.418922 89.55534 
L 95.968135 87.786837 
L 96.517347 86.821461 
L 97.615773 99.75235 
L 98.164985 98.598181 
L 98.714198 101.252946 
L 99.26341 108.432349 
L 99.812623 108.348268 
L 100.361836 105.708164 
L 100.911048 105.932997 
L 101.460261 105.469176 
L 102.009473 103.994145 
L 102.558686 103.466474 
L 103.107899 101.893525 
L 103.657111 101.491065 
L 104.206324 100.2807 
L 104.755536 100.092257 
L 105.304749 100.789458 
L 105.853962 100.439059 
L 106.403174 94.912805 
L 106.952387 92.137844 
L 107.501599 92.103266 
L 108.050812 88.692766 
L 108.600025 86.826706 
L 109.149237 86.730254 
L 109.69845 84.229354 
L 110.247662 82.439643 
L 110.796875 81.943491 
L 111.346088 82.893308 
L 111.8953 82.768115 
L 112.993725 87.556596 
L 113.542938 87.518952 
L 114.092151 86.450162 
L 114.641363 84.624804 
L 115.190576 86.031556 
L 115.739788 86.704037 
L 116.838214 91.518714 
L 117.387426 94.800712 
L 117.936639 96.348486 
L 119.035064 110.461431 
L 119.584277 112.968789 
L 120.133489 114.626882 
L 120.682702 113.983013 
L 121.231914 114.618704 
L 122.33034 112.841085 
L 123.428765 112.376787 
L 125.076403 99.129365 
L 126.174828 92.216755 
L 126.72404 88.957188 
L 127.273253 84.900285 
L 127.822466 82.108479 
L 128.371678 82.554217 
L 129.470103 73.317179 
L 130.568529 71.440604 
L 131.117741 68.242223 
L 131.666954 68.618843 
L 132.216166 72.392817 
L 132.765379 75.019787 
L 133.314592 74.920809 
L 133.863804 78.562644 
L 134.413017 84.78984 
L 134.962229 85.494953 
L 135.511442 87.14369 
L 136.060655 90.900601 
L 136.609867 96.052985 
L 137.15908 99.53021 
L 138.257505 102.369223 
L 139.35593 103.495655 
L 139.905143 105.982546 
L 140.454355 105.482851 
L 141.003568 104.534969 
L 141.552781 108.127985 
L 142.101993 109.413132 
L 142.651206 107.96837 
L 143.200418 108.791946 
L 143.749631 107.892585 
L 144.298844 105.080697 
L 144.848056 102.875567 
L 145.946481 91.843864 
L 146.495694 90.391406 
L 147.044906 87.213237 
L 147.594119 85.833304 
L 148.143332 90.253575 
L 148.692544 93.439763 
L 149.241757 91.092774 
L 149.790969 87.752078 
L 150.340182 88.148844 
L 150.889395 89.887422 
L 151.98782 90.799227 
L 152.537032 90.948981 
L 153.086245 92.126569 
L 154.18467 95.662532 
L 154.733883 100.704774 
L 155.283095 103.318465 
L 155.832308 103.42785 
L 156.930733 111.923358 
L 157.479946 108.791377 
L 158.029158 104.441483 
L 158.578371 103.895928 
L 159.127584 101.785703 
L 160.226009 91.409553 
L 160.775221 87.581527 
L 161.324434 88.524914 
L 161.873647 89.969144 
L 162.422859 88.387401 
L 162.972072 87.410478 
L 163.521284 88.816198 
L 164.070497 87.846803 
L 164.61971 84.039593 
L 165.168922 83.999357 
L 165.718135 84.533444 
L 166.267347 85.831091 
L 166.81656 83.324922 
L 167.914985 87.563115 
L 168.464198 90.508346 
L 169.01341 96.24994 
L 169.562623 99.717971 
L 170.111836 101.104046 
L 170.661048 104.340655 
L 171.210261 110.938145 
L 171.759473 114.871939 
L 172.308686 119.812906 
L 172.857899 121.33049 
L 173.407111 120.540337 
L 173.956324 120.133028 
L 174.505536 117.12481 
L 175.603962 113.406774 
L 176.153174 108.562864 
L 176.702387 108.870764 
L 177.251599 111.330539 
L 178.350025 98.435662 
L 178.899237 94.484042 
L 179.44845 87.982388 
L 180.546875 77.853407 
L 181.6453 63.082818 
L 182.194513 62.111977 
L 182.743725 61.898379 
L 183.292938 59.545245 
L 183.842151 60.677144 
L 184.391363 59.720369 
L 184.940576 59.106332 
L 185.489788 62.857749 
L 186.039001 63.484875 
L 186.588214 58.680761 
L 187.137426 61.91126 
L 187.686639 71.661956 
L 189.883489 91.683373 
L 190.432702 93.939466 
L 190.981914 98.165614 
L 192.08034 110.953915 
L 192.629552 109.550237 
L 193.178765 110.906686 
L 193.727977 116.986456 
L 194.27719 120.529285 
L 194.826403 125.871925 
L 195.924828 130.917623 
L 196.47404 131.307219 
L 197.023253 131.942265 
L 197.572466 126.031008 
L 198.121678 116.313985 
L 198.670891 113.286367 
L 199.220103 112.214926 
L 199.769316 107.604532 
L 200.318529 99.907854 
L 200.867741 96.525622 
L 201.416954 92.041187 
L 202.515379 77.249392 
L 204.163017 61.465896 
L 204.712229 59.378327 
L 205.261442 60.697448 
L 206.359867 56.030007 
L 207.458292 59.891951 
L 208.556718 70.499191 
L 209.10593 70.775116 
L 209.655143 71.749386 
L 210.753568 90.765019 
L 211.302781 93.405499 
L 211.851993 98.5641 
L 212.401206 108.449716 
L 212.950418 111.932517 
L 213.499631 113.63252 
L 214.048844 123.339715 
L 214.598056 126.306879 
L 215.147269 126.317304 
L 215.696481 133.957316 
L 216.245694 139.16209 
L 217.344119 135.808429 
L 217.893332 139.559994 
L 218.442544 138.789664 
L 218.991757 131.291982 
L 219.540969 125.637539 
L 220.090182 121.775224 
L 220.639395 112.020261 
L 221.188607 104.619502 
L 221.73782 103.122353 
L 222.287032 97.010332 
L 222.836245 89.02711 
L 223.385458 86.79501 
L 223.93467 79.110389 
L 224.483883 67.108075 
L 225.033095 60.593418 
L 225.582308 56.41179 
L 226.131521 51.109103 
L 226.680733 48.746126 
L 227.229946 50.813544 
L 227.779158 48.771797 
L 228.328371 45.893474 
L 228.877584 49.963806 
L 229.426796 59.182401 
L 231.074434 77.6115 
L 231.623647 86.759599 
L 232.172859 98.56121 
L 232.722072 107.514733 
L 235.468135 141.105226 
L 236.017347 147.400465 
L 236.56656 146.776498 
L 237.115773 148.050301 
L 237.664985 151.740833 
L 238.214198 153.16528 
L 238.76341 150.190376 
L 239.312623 146.233353 
L 239.861836 139.909705 
L 240.411048 131.74431 
L 240.960261 125.434563 
L 242.058686 100.428963 
L 243.157111 82.128624 
L 244.255536 65.85698 
L 244.804749 60.256242 
L 245.353962 52.77383 
L 246.452387 45.977845 
L 247.550812 36.553853 
L 248.100025 34.185275 
L 248.649237 36.724555 
L 249.19845 36.785286 
L 249.747662 38.846918 
L 250.296875 47.148414 
L 251.3953 59.761934 
L 252.493725 82.385141 
L 253.592151 94.132322 
L 254.141363 106.205252 
L 254.690576 113.361078 
L 255.239788 116.234274 
L 255.789001 121.015151 
L 256.338214 129.516779 
L 257.436639 136.74362 
L 257.985851 142.194087 
L 258.535064 141.419615 
L 259.084277 138.906482 
L 259.633489 139.210351 
L 260.182702 135.982701 
L 261.281127 122.833458 
L 261.83034 117.277562 
L 262.928765 98.155577 
L 263.477977 93.52293 
L 265.125615 71.300637 
L 265.674828 66.186613 
L 267.322466 54.133027 
L 267.871678 53.889341 
L 268.420891 54.575025 
L 268.970103 50.443565 
L 269.519316 48.23831 
L 270.068529 52.763395 
L 270.617741 54.846664 
L 271.166954 60.993644 
L 271.716166 72.422243 
L 272.265379 80.765797 
L 273.913017 96.845047 
L 274.462229 102.795278 
L 275.011442 110.298796 
L 276.109867 122.130845 
L 277.208292 126.53684 
L 277.757505 133.118853 
L 278.306718 136.48023 
L 278.85593 136.069642 
L 279.954355 131.15574 
L 280.503568 127.235666 
L 281.052781 121.414362 
L 281.601993 118.531293 
L 282.151206 117.521625 
L 282.700418 114.595145 
L 283.249631 106.490179 
L 284.348056 94.513425 
L 284.897269 84.749033 
L 285.446481 81.134465 
L 285.995694 80.390538 
L 286.544906 73.900748 
L 287.094119 65.005528 
L 287.643332 61.085346 
L 288.192544 58.795873 
L 288.741757 60.009521 
L 289.840182 67.884476 
L 290.938607 77.248386 
L 291.48782 78.793034 
L 292.037032 82.068093 
L 292.586245 88.982406 
L 293.135458 91.891459 
L 293.68467 92.621119 
L 294.783095 103.765344 
L 295.881521 118.933807 
L 296.430733 122.051953 
L 296.979946 120.609881 
L 297.529158 120.127685 
L 298.078371 120.673496 
L 298.627584 118.39971 
L 299.176796 117.616176 
L 299.726009 114.672341 
L 300.275221 108.958177 
L 300.824434 104.448446 
L 301.373647 102.641549 
L 302.472072 95.894363 
L 303.021284 97.730623 
L 303.570497 98.226117 
L 304.11971 96.641631 
L 304.668922 93.693809 
L 305.218135 92.340265 
L 305.767347 92.142402 
L 306.31656 90.028409 
L 306.865773 86.662308 
L 307.414985 85.603458 
L 307.964198 87.116574 
L 308.51341 85.850793 
L 309.062623 87.041163 
L 310.161048 91.37165 
L 310.710261 88.274225 
L 311.259473 84.055891 
L 311.808686 83.332753 
L 312.357899 83.814346 
L 313.456324 82.74201 
L 314.005536 84.49628 
L 314.554749 83.155526 
L 315.103962 81.219613 
L 315.653174 80.209275 
L 316.202387 83.123481 
L 316.751599 87.731893 
L 317.300812 88.213245 
L 317.850025 89.693394 
L 318.399237 93.748152 
L 318.94845 94.100205 
L 319.497662 93.816082 
L 320.596088 105.334067 
L 321.694513 108.262351 
L 322.792938 115.404303 
L 323.342151 115.439955 
L 323.891363 112.208741 
L 324.440576 110.805404 
L 324.989788 111.80639 
L 325.539001 111.341894 
L 326.088214 108.865923 
L 327.186639 105.908668 
L 327.735851 100.771322 
L 328.285064 92.300002 
L 328.834277 87.050035 
L 329.383489 84.759331 
L 329.932702 79.556965 
L 330.481914 75.420032 
L 331.031127 74.255203 
L 331.58034 71.530949 
L 332.129552 69.770977 
L 332.678765 69.413668 
L 333.227977 68.120423 
L 333.77719 68.136333 
L 334.326403 70.808664 
L 334.875615 70.309808 
L 335.424828 71.699636 
L 335.97404 75.537871 
L 336.523253 77.633926 
L 337.072466 80.466555 
L 338.720103 93.550141 
L 339.269316 97.695198 
L 339.818529 103.089539 
L 340.367741 107.248052 
L 340.916954 109.604603 
L 342.015379 117.087887 
L 342.564592 117.42231 
L 343.113804 118.22779 
L 343.663017 122.289117 
L 344.212229 125.022313 
L 344.761442 123.584466 
L 345.310655 120.151271 
L 346.40908 111.612963 
L 347.507505 102.502682 
L 348.056718 97.314068 
L 349.155143 92.345827 
L 350.253568 81.600064 
L 352.450418 64.738103 
L 352.999631 63.252293 
L 353.548844 64.223991 
L 354.098056 66.345269 
L 354.647269 69.219142 
L 356.294906 82.131312 
L 356.844119 89.014921 
L 357.942544 106.789315 
L 359.040969 118.591622 
L 359.590182 122.650885 
L 360.139395 124.629627 
L 360.688607 127.396035 
L 361.23782 129.588051 
L 362.336245 130.73445 
L 362.885458 130.802739 
L 363.43467 129.734106 
L 363.983883 125.789804 
L 365.631521 106.980016 
L 366.729946 91.281108 
L 368.377584 72.308586 
L 369.476009 64.102666 
L 370.574434 58.603866 
L 371.123647 58.03674 
L 371.672859 59.790658 
L 372.222072 60.162009 
L 372.771284 58.106365 
L 373.320497 57.714659 
L 373.86971 59.620276 
L 374.418922 63.302651 
L 376.06656 78.27317 
L 377.164985 92.401409 
L 377.714198 97.416512 
L 378.812623 109.161815 
L 379.361836 113.22447 
L 380.460261 124.132731 
L 381.009473 127.337544 
L 381.558686 128.547532 
L 382.107899 130.650639 
L 382.657111 132.116979 
L 383.206324 132.567936 
L 383.755536 131.720539 
L 384.304749 129.809257 
L 385.952387 121.065091 
L 388.149237 96.936335 
L 389.796875 76.153556 
L 391.444513 65.779548 
L 391.993725 63.999576 
L 393.092151 61.590426 
L 393.641363 62.411404 
L 394.190576 65.206216 
L 395.289001 68.438262 
L 395.838214 71.460596 
L 396.387426 75.166582 
L 398.035064 92.409805 
L 399.133489 105.571757 
L 401.33034 123.025829 
L 401.879552 125.367338 
L 402.428765 126.123756 
L 402.977977 126.293456 
L 403.52719 126.979 
L 404.076403 126.230529 
L 405.174828 119.810318 
L 406.273253 110.819887 
L 406.822466 105.804965 
L 407.920891 94.000477 
L 409.019316 83.793648 
L 410.666954 65.867709 
L 411.216166 61.985794 
L 411.765379 60.766839 
L 412.863804 57.41161 
L 413.413017 59.075217 
L 414.511442 66.034592 
L 416.708292 84.510459 
L 417.257505 90.667915 
L 417.806718 95.402562 
L 418.35593 98.115272 
L 418.905143 102.284528 
L 419.454355 107.652482 
L 421.651206 120.353412 
L 422.200418 122.360899 
L 422.749631 123.152656 
L 423.298844 121.594348 
L 424.397269 116.338893 
L 424.946481 113.296469 
L 426.044906 105.241225 
L 426.594119 102.047289 
L 428.241757 90.048643 
L 429.340182 80.824185 
L 429.889395 77.553795 
L 430.98782 73.230743 
L 431.537032 70.521625 
L 432.086245 68.701313 
L 432.635458 68.865585 
L 433.18467 69.474137 
L 433.733883 70.258706 
L 434.283095 71.851458 
L 434.832308 74.84048 
L 436.479946 88.31707 
L 438.127584 103.24918 
L 438.676796 106.664288 
L 439.775221 111.811984 
L 440.873647 117.591564 
L 441.422859 119.011799 
L 441.972072 120.078335 
L 442.521284 119.902975 
L 443.070497 119.071143 
L 443.61971 117.716057 
L 444.168922 115.855979 
L 444.718135 113.309935 
L 445.267347 110.088778 
L 446.365773 100.789608 
L 448.01341 85.570949 
L 448.562623 81.599206 
L 449.111836 78.475416 
L 450.759473 71.689799 
L 451.308686 71.366988 
L 451.857899 70.79881 
L 452.407111 69.944145 
L 452.956324 70.345771 
L 454.054749 75.07308 
L 454.603962 77.052857 
L 455.153174 80.629261 
L 456.251599 89.652551 
L 456.800812 92.937507 
L 458.44845 105.965699 
L 460.096088 116.754571 
L 460.6453 117.901804 
L 461.194513 118.242671 
L 461.743725 118.78049 
L 462.292938 118.850967 
L 462.842151 117.561346 
L 464.489788 112.272584 
L 465.039001 109.089607 
L 466.137426 101.089973 
L 467.235851 92.359174 
L 469.981914 75.780897 
L 470.531127 74.101575 
L 471.08034 72.898196 
L 471.629552 72.313296 
L 472.178765 72.436091 
L 472.727977 73.079228 
L 473.27719 74.876747 
L 474.375615 79.971252 
L 474.924828 81.889298 
L 475.47404 84.587424 
L 477.670891 97.985422 
L 478.220103 102.491745 
L 479.318529 108.590441 
L 479.867741 110.693216 
L 479.867741 110.693216 
" clip-path="url(#p12e48a9f78)" style="fill: none; stroke-dasharray: 4.44,1.92; stroke-dashoffset: 0; stroke: #9400d3; stroke-width: 1.2"/>
   </g>
   <g id="patch_3">
    <path d="M 41.046875 181.814173 
L 41.046875 7.2 
" style="fill: none; stroke: #000000; stroke-width: 0.8; stroke-linejoin: miter; stroke-linecap: square"/>
   </g>
   <g id="patch_4">
    <path d="M 480.416954 181.814173 
L 480.416954 7.2 
" style="fill: none; stroke: #000000; stroke-width: 0.8; stroke-linejoin: miter; stroke-linecap: square"/>
   </g>
   <g id="patch_5">
    <path d="M 41.046875 181.814173 
L 480.416954 181.814173 
" style="fill: none; stroke: #000000; stroke-width: 0.8; stroke-linejoin: miter; stroke-linecap: square"/>
   </g>
   <g id="patch_6">
    <path d="M 41.046875 7.2 
L 480.416954 7.2 
" style="fill: none; stroke: #000000; stroke-width: 0.8; stroke-linejoin: miter; stroke-linecap: square"/>
   </g>
   <g id="text_17">
    <!-- 9th floor -->
    <g transform="translate(418.415102 162.572558) scale(0.1 -0.1)">
     <defs>
      <path id="ArialMT-39" d="M 350 1059 
L 891 1109 
Q 959 728 1153 556 
Q 1347 384 1650 384 
Q 1909 384 2104 503 
Q 2300 622 2425 820 
Q 2550 1019 2634 1356 
Q 2719 1694 2719 2044 
Q 2719 2081 2716 2156 
Q 2547 1888 2255 1720 
Q 1963 1553 1622 1553 
Q 1053 1553 659 1965 
Q 266 2378 266 3053 
Q 266 3750 677 4175 
Q 1088 4600 1706 4600 
Q 2153 4600 2523 4359 
Q 2894 4119 3086 3673 
Q 3278 3228 3278 2384 
Q 3278 1506 3087 986 
Q 2897 466 2520 194 
Q 2144 -78 1638 -78 
Q 1100 -78 759 220 
Q 419 519 350 1059 
z
M 2653 3081 
Q 2653 3566 2395 3850 
Q 2138 4134 1775 4134 
Q 1400 4134 1122 3828 
Q 844 3522 844 3034 
Q 844 2597 1108 2323 
Q 1372 2050 1759 2050 
Q 2150 2050 2401 2323 
Q 2653 2597 2653 3081 
z
" transform="scale(0.015625)"/>
      <path id="ArialMT-68" d="M 422 0 
L 422 4581 
L 984 4581 
L 984 2938 
Q 1378 3394 1978 3394 
Q 2347 3394 2619 3248 
Q 2891 3103 3008 2847 
Q 3125 2591 3125 2103 
L 3125 0 
L 2563 0 
L 2563 2103 
Q 2563 2525 2380 2717 
Q 2197 2909 1863 2909 
Q 1613 2909 1392 2779 
Q 1172 2650 1078 2428 
Q 984 2206 984 1816 
L 984 0 
L 422 0 
z
" transform="scale(0.015625)"/>
      <path id="ArialMT-66" d="M 556 0 
L 556 2881 
L 59 2881 
L 59 3319 
L 556 3319 
L 556 3672 
Q 556 4006 616 4169 
Q 697 4388 901 4523 
Q 1106 4659 1475 4659 
Q 1713 4659 2000 4603 
L 1916 4113 
Q 1741 4144 1584 4144 
Q 1328 4144 1222 4034 
Q 1116 3925 1116 3625 
L 1116 3319 
L 1763 3319 
L 1763 2881 
L 1116 2881 
L 1116 0 
L 556 0 
z
" transform="scale(0.015625)"/>
      <path id="ArialMT-6f" d="M 213 1659 
Q 213 2581 725 3025 
Q 1153 3394 1769 3394 
Q 2453 3394 2887 2945 
Q 3322 2497 3322 1706 
Q 3322 1066 3130 698 
Q 2938 331 2570 128 
Q 2203 -75 1769 -75 
Q 1072 -75 642 372 
Q 213 819 213 1659 
z
M 791 1659 
Q 791 1022 1069 705 
Q 1347 388 1769 388 
Q 2188 388 2466 706 
Q 2744 1025 2744 1678 
Q 2744 2294 2464 2611 
Q 2184 2928 1769 2928 
Q 1347 2928 1069 2612 
Q 791 2297 791 1659 
z
" transform="scale(0.015625)"/>
      <path id="ArialMT-72" d="M 416 0 
L 416 3319 
L 922 3319 
L 922 2816 
Q 1116 3169 1280 3281 
Q 1444 3394 1641 3394 
Q 1925 3394 2219 3213 
L 2025 2691 
Q 1819 2813 1613 2813 
Q 1428 2813 1281 2702 
Q 1134 2591 1072 2394 
Q 978 2094 978 1738 
L 978 0 
L 416 0 
z
" transform="scale(0.015625)"/>
     </defs>
     <use xlink:href="#ArialMT-39"/>
     <use xlink:href="#ArialMT-74" x="55.615234"/>
     <use xlink:href="#ArialMT-68" x="83.398438"/>
     <use xlink:href="#ArialMT-20" x="139.013672"/>
     <use xlink:href="#ArialMT-66" x="166.796875"/>
     <use xlink:href="#ArialMT-6c" x="194.580078"/>
     <use xlink:href="#ArialMT-6f" x="216.796875"/>
     <use xlink:href="#ArialMT-6f" x="272.412109"/>
     <use xlink:href="#ArialMT-72" x="328.027344"/>
    </g>
   </g>
   <g id="legend_1">
    <g id="patch_7">
     <path d="M 197.038829 43.490625 
L 473.416954 43.490625 
Q 475.416954 43.490625 475.416954 41.490625 
L 475.416954 14.2 
Q 475.416954 12.2 473.416954 12.2 
L 197.038829 12.2 
Q 195.038829 12.2 195.038829 14.2 
L 195.038829 41.490625 
Q 195.038829 43.490625 197.038829 43.490625 
z
" style="fill: #ffffff; opacity: 0.8; stroke: #000000; stroke-linejoin: miter"/>
    </g>
    <g id="line2d_34">
     <path d="M 199.038829 19.857812 
L 209.038829 19.857812 
L 219.038829 19.857812 
" style="fill: none; stroke: #000000; stroke-width: 1.2; stroke-linecap: square"/>
    </g>
    <g id="text_18">
     <!-- Ref. -->
     <g transform="translate(227.038829 23.357812) scale(0.1 -0.1)">
      <defs>
       <path id="ArialMT-52" d="M 503 0 
L 503 4581 
L 2534 4581 
Q 3147 4581 3465 4457 
Q 3784 4334 3975 4021 
Q 4166 3709 4166 3331 
Q 4166 2844 3850 2509 
Q 3534 2175 2875 2084 
Q 3116 1969 3241 1856 
Q 3506 1613 3744 1247 
L 4541 0 
L 3778 0 
L 3172 953 
Q 2906 1366 2734 1584 
Q 2563 1803 2427 1890 
Q 2291 1978 2150 2013 
Q 2047 2034 1813 2034 
L 1109 2034 
L 1109 0 
L 503 0 
z
M 1109 2559 
L 2413 2559 
Q 2828 2559 3062 2645 
Q 3297 2731 3419 2920 
Q 3541 3109 3541 3331 
Q 3541 3656 3305 3865 
Q 3069 4075 2559 4075 
L 1109 4075 
L 1109 2559 
z
" transform="scale(0.015625)"/>
       <path id="ArialMT-2e" d="M 581 0 
L 581 641 
L 1222 641 
L 1222 0 
L 581 0 
z
" transform="scale(0.015625)"/>
      </defs>
      <use xlink:href="#ArialMT-52"/>
      <use xlink:href="#ArialMT-65" x="72.216797"/>
      <use xlink:href="#ArialMT-66" x="127.832031"/>
      <use xlink:href="#ArialMT-2e" x="155.615234"/>
     </g>
    </g>
    <g id="line2d_35">
     <path d="M 199.038829 34.003125 
L 209.038829 34.003125 
L 219.038829 34.003125 
" style="fill: none; stroke-dasharray: 4.44,1.92; stroke-dashoffset: 0; stroke: #ff0000; stroke-width: 1.2"/>
    </g>
    <g id="text_19">
     <!-- BiRNN pred. -->
     <g transform="translate(227.038829 37.503125) scale(0.1 -0.1)">
      <defs>
       <path id="ArialMT-42" d="M 469 0 
L 469 4581 
L 2188 4581 
Q 2713 4581 3030 4442 
Q 3347 4303 3526 4014 
Q 3706 3725 3706 3409 
Q 3706 3116 3547 2856 
Q 3388 2597 3066 2438 
Q 3481 2316 3704 2022 
Q 3928 1728 3928 1328 
Q 3928 1006 3792 729 
Q 3656 453 3456 303 
Q 3256 153 2954 76 
Q 2653 0 2216 0 
L 469 0 
z
M 1075 2656 
L 2066 2656 
Q 2469 2656 2644 2709 
Q 2875 2778 2992 2937 
Q 3109 3097 3109 3338 
Q 3109 3566 3000 3739 
Q 2891 3913 2687 3977 
Q 2484 4041 1991 4041 
L 1075 4041 
L 1075 2656 
z
M 1075 541 
L 2216 541 
Q 2509 541 2628 563 
Q 2838 600 2978 687 
Q 3119 775 3209 942 
Q 3300 1109 3300 1328 
Q 3300 1584 3169 1773 
Q 3038 1963 2805 2039 
Q 2572 2116 2134 2116 
L 1075 2116 
L 1075 541 
z
" transform="scale(0.015625)"/>
       <path id="ArialMT-4e" d="M 488 0 
L 488 4581 
L 1109 4581 
L 3516 984 
L 3516 4581 
L 4097 4581 
L 4097 0 
L 3475 0 
L 1069 3600 
L 1069 0 
L 488 0 
z
" transform="scale(0.015625)"/>
       <path id="ArialMT-64" d="M 2575 0 
L 2575 419 
Q 2259 -75 1647 -75 
Q 1250 -75 917 144 
Q 584 363 401 755 
Q 219 1147 219 1656 
Q 219 2153 384 2558 
Q 550 2963 881 3178 
Q 1213 3394 1622 3394 
Q 1922 3394 2156 3267 
Q 2391 3141 2538 2938 
L 2538 4581 
L 3097 4581 
L 3097 0 
L 2575 0 
z
M 797 1656 
Q 797 1019 1065 703 
Q 1334 388 1700 388 
Q 2069 388 2326 689 
Q 2584 991 2584 1609 
Q 2584 2291 2321 2609 
Q 2059 2928 1675 2928 
Q 1300 2928 1048 2622 
Q 797 2316 797 1656 
z
" transform="scale(0.015625)"/>
      </defs>
      <use xlink:href="#ArialMT-42"/>
      <use xlink:href="#ArialMT-69" x="66.699219"/>
      <use xlink:href="#ArialMT-52" x="88.916016"/>
      <use xlink:href="#ArialMT-4e" x="161.132812"/>
      <use xlink:href="#ArialMT-4e" x="233.349609"/>
      <use xlink:href="#ArialMT-20" x="305.566406"/>
      <use xlink:href="#ArialMT-70" x="333.349609"/>
      <use xlink:href="#ArialMT-72" x="388.964844"/>
      <use xlink:href="#ArialMT-65" x="422.265625"/>
      <use xlink:href="#ArialMT-64" x="477.880859"/>
      <use xlink:href="#ArialMT-2e" x="533.496094"/>
     </g>
    </g>
    <g id="line2d_36">
     <path d="M 303.165391 19.857812 
L 313.165391 19.857812 
L 323.165391 19.857812 
" style="fill: none; stroke-dasharray: 7.68,1.92,1.2,1.92; stroke-dashoffset: 0; stroke: #0000ff; stroke-width: 1.2"/>
    </g>
    <g id="text_20">
     <!-- RNN pred. -->
     <g transform="translate(331.165391 23.357812) scale(0.1 -0.1)">
      <use xlink:href="#ArialMT-52"/>
      <use xlink:href="#ArialMT-4e" x="72.216797"/>
      <use xlink:href="#ArialMT-4e" x="144.433594"/>
      <use xlink:href="#ArialMT-20" x="216.650391"/>
      <use xlink:href="#ArialMT-70" x="244.433594"/>
      <use xlink:href="#ArialMT-72" x="300.048828"/>
      <use xlink:href="#ArialMT-65" x="333.349609"/>
      <use xlink:href="#ArialMT-64" x="388.964844"/>
      <use xlink:href="#ArialMT-2e" x="444.580078"/>
     </g>
    </g>
    <g id="line2d_37">
     <path d="M 303.165391 34.003125 
L 313.165391 34.003125 
L 323.165391 34.003125 
" style="fill: none; stroke-dasharray: 1.2,1.98; stroke-dashoffset: 0; stroke: #00ff00; stroke-width: 1.2"/>
    </g>
    <g id="text_21">
     <!-- DKF pred. -->
     <g transform="translate(331.165391 37.503125) scale(0.1 -0.1)">
      <defs>
       <path id="ArialMT-4b" d="M 469 0 
L 469 4581 
L 1075 4581 
L 1075 2309 
L 3350 4581 
L 4172 4581 
L 2250 2725 
L 4256 0 
L 3456 0 
L 1825 2319 
L 1075 1588 
L 1075 0 
L 469 0 
z
" transform="scale(0.015625)"/>
       <path id="ArialMT-46" d="M 525 0 
L 525 4581 
L 3616 4581 
L 3616 4041 
L 1131 4041 
L 1131 2622 
L 3281 2622 
L 3281 2081 
L 1131 2081 
L 1131 0 
L 525 0 
z
" transform="scale(0.015625)"/>
      </defs>
      <use xlink:href="#ArialMT-44"/>
      <use xlink:href="#ArialMT-4b" x="72.216797"/>
      <use xlink:href="#ArialMT-46" x="138.916016"/>
      <use xlink:href="#ArialMT-20" x="200"/>
      <use xlink:href="#ArialMT-70" x="227.783203"/>
      <use xlink:href="#ArialMT-72" x="283.398438"/>
      <use xlink:href="#ArialMT-65" x="316.699219"/>
      <use xlink:href="#ArialMT-64" x="372.314453"/>
      <use xlink:href="#ArialMT-2e" x="427.929688"/>
     </g>
    </g>
    <g id="line2d_38">
     <path d="M 398.399766 19.857812 
L 408.399766 19.857812 
L 418.399766 19.857812 
" style="fill: none; stroke-dasharray: 4.44,1.92; stroke-dashoffset: 0; stroke: #9400d3; stroke-width: 1.2"/>
    </g>
    <g id="text_22">
     <!-- AKF pred. -->
     <g transform="translate(426.399766 23.357812) scale(0.1 -0.1)">
      <defs>
       <path id="ArialMT-41" d="M -9 0 
L 1750 4581 
L 2403 4581 
L 4278 0 
L 3588 0 
L 3053 1388 
L 1138 1388 
L 634 0 
L -9 0 
z
M 1313 1881 
L 2866 1881 
L 2388 3150 
Q 2169 3728 2063 4100 
Q 1975 3659 1816 3225 
L 1313 1881 
z
" transform="scale(0.015625)"/>
      </defs>
      <use xlink:href="#ArialMT-41"/>
      <use xlink:href="#ArialMT-4b" x="66.699219"/>
      <use xlink:href="#ArialMT-46" x="133.398438"/>
      <use xlink:href="#ArialMT-20" x="194.482422"/>
      <use xlink:href="#ArialMT-70" x="222.265625"/>
      <use xlink:href="#ArialMT-72" x="277.880859"/>
      <use xlink:href="#ArialMT-65" x="311.181641"/>
      <use xlink:href="#ArialMT-64" x="366.796875"/>
      <use xlink:href="#ArialMT-2e" x="422.412109"/>
     </g>
    </g>
   </g>
  </g>
 </g>
 <defs>
  <clipPath id="p12e48a9f78">
   <rect x="41.046875" y="7.2" width="439.370079" height="174.614173"/>
  </clipPath>
 </defs>
</svg>
