<?xml version="1.0" encoding="utf-8" standalone="no"?>
<!DOCTYPE svg PUBLIC "-//W3C//DTD SVG 1.1//EN"
  "http://www.w3.org/Graphics/SVG/1.1/DTD/svg11.dtd">
<svg xmlns:xlink="http://www.w3.org/1999/xlink" width="259.535039pt" height="216.859486pt" viewBox="0 0 259.535039 216.859486" xmlns="http://www.w3.org/2000/svg" version="1.1">
 <metadata>
  <rdf:RDF xmlns:dc="http://purl.org/dc/elements/1.1/" xmlns:cc="http://creativecommons.org/ns#" xmlns:rdf="http://www.w3.org/1999/02/22-rdf-syntax-ns#">
   <cc:Work>
    <dc:type rdf:resource="http://purl.org/dc/dcmitype/StillImage"/>
    <dc:date>2024-03-27T12:00:01.695602</dc:date>
    <dc:format>image/svg+xml</dc:format>
    <dc:creator>
     <cc:Agent>
      <dc:title>Matplotlib v3.8.2, https://matplotlib.org/</dc:title>
     </cc:Agent>
    </dc:creator>
   </cc:Work>
  </rdf:RDF>
 </metadata>
 <defs>
  <style type="text/css">*{stroke-linejoin: round; stroke-linecap: butt}</style>
 </defs>
 <g id="figure_1">
  <g id="patch_1">
   <path d="M 0 216.859486 
L 259.535039 216.859486 
L 259.535039 -0 
L 0 -0 
z
" style="fill: #ffffff"/>
  </g>
  <g id="axes_1">
   <g id="patch_2">
    <path d="M 25.7 181.814173 
L 245.385039 181.814173 
L 245.385039 7.2 
L 25.7 7.2 
z
" style="fill: #ffffff"/>
   </g>
   <g id="patch_3">
    <path d="M 25.7 173.877165 
L 203.93742 173.877165 
L 203.93742 170.052101 
L 25.7 170.052101 
z
" clip-path="url(#pef495deb0b)" style="fill: #0000ff"/>
   </g>
   <g id="patch_4">
    <path d="M 25.7 163.039484 
L 222.476925 163.039484 
L 222.476925 159.21442 
L 25.7 159.21442 
z
" clip-path="url(#pef495deb0b)" style="fill: #0000ff"/>
   </g>
   <g id="patch_5">
    <path d="M 25.7 150.28927 
L 220.396437 150.28927 
L 220.396437 146.464206 
L 25.7 146.464206 
z
" clip-path="url(#pef495deb0b)" style="fill: #0000ff"/>
   </g>
   <g id="patch_6">
    <path d="M 25.7 137.539057 
L 204.618888 137.539057 
L 204.618888 133.713993 
L 25.7 133.713993 
z
" clip-path="url(#pef495deb0b)" style="fill: #0000ff"/>
   </g>
   <g id="patch_7">
    <path d="M 25.7 124.788844 
L 148.780605 124.788844 
L 148.780605 120.96378 
L 25.7 120.96378 
z
" clip-path="url(#pef495deb0b)" style="fill: #0000ff"/>
   </g>
   <g id="patch_8">
    <path d="M 25.7 112.03863 
L 149.494355 112.03863 
L 149.494355 108.213566 
L 25.7 108.213566 
z
" clip-path="url(#pef495deb0b)" style="fill: #0000ff"/>
   </g>
   <g id="patch_9">
    <path d="M 25.7 99.288417 
L 147.829363 99.288417 
L 147.829363 95.463353 
L 25.7 95.463353 
z
" clip-path="url(#pef495deb0b)" style="fill: #0000ff"/>
   </g>
   <g id="patch_10">
    <path d="M 25.7 86.538203 
L 148.248935 86.538203 
L 148.248935 82.713139 
L 25.7 82.713139 
z
" clip-path="url(#pef495deb0b)" style="fill: #0000ff"/>
   </g>
   <g id="patch_11">
    <path d="M 25.7 73.78799 
L 150.546442 73.78799 
L 150.546442 69.962926 
L 25.7 69.962926 
z
" clip-path="url(#pef495deb0b)" style="fill: #0000ff"/>
   </g>
   <g id="patch_12">
    <path d="M 25.7 61.037776 
L 103.731916 61.037776 
L 103.731916 57.212712 
L 25.7 57.212712 
z
" clip-path="url(#pef495deb0b)" style="fill: #0000ff"/>
   </g>
   <g id="patch_13">
    <path d="M 25.7 48.287563 
L 102.933261 48.287563 
L 102.933261 44.462499 
L 25.7 44.462499 
z
" clip-path="url(#pef495deb0b)" style="fill: #0000ff"/>
   </g>
   <g id="patch_14">
    <path d="M 25.7 35.537349 
L 103.541122 35.537349 
L 103.541122 31.712285 
L 25.7 31.712285 
z
" clip-path="url(#pef495deb0b)" style="fill: #0000ff"/>
   </g>
   <g id="patch_15">
    <path d="M 25.7 22.787136 
L 101.010629 22.787136 
L 101.010629 18.962072 
L 25.7 18.962072 
z
" clip-path="url(#pef495deb0b)" style="fill: #0000ff"/>
   </g>
   <g id="patch_16">
    <path d="M 25.7 170.052101 
L 25.7 170.052101 
L 25.7 166.227037 
L 25.7 166.227037 
z
" clip-path="url(#pef495deb0b)" style="fill: #ff0000"/>
   </g>
   <g id="patch_17">
    <path d="M 25.7 159.21442 
L 223.416535 159.21442 
L 223.416535 155.389356 
L 25.7 155.389356 
z
" clip-path="url(#pef495deb0b)" style="fill: #ff0000"/>
   </g>
   <g id="patch_18">
    <path d="M 25.7 146.464206 
L 223.416535 146.464206 
L 223.416535 142.639142 
L 25.7 142.639142 
z
" clip-path="url(#pef495deb0b)" style="fill: #ff0000"/>
   </g>
   <g id="patch_19">
    <path d="M 25.7 133.713993 
L 223.416535 133.713993 
L 223.416535 129.888929 
L 25.7 129.888929 
z
" clip-path="url(#pef495deb0b)" style="fill: #ff0000"/>
   </g>
   <g id="patch_20">
    <path d="M 25.7 120.96378 
L 157.511024 120.96378 
L 157.511024 117.138715 
L 25.7 117.138715 
z
" clip-path="url(#pef495deb0b)" style="fill: #ff0000"/>
   </g>
   <g id="patch_21">
    <path d="M 25.7 108.213566 
L 157.511024 108.213566 
L 157.511024 104.388502 
L 25.7 104.388502 
z
" clip-path="url(#pef495deb0b)" style="fill: #ff0000"/>
   </g>
   <g id="patch_22">
    <path d="M 25.7 95.463353 
L 157.511024 95.463353 
L 157.511024 91.638289 
L 25.7 91.638289 
z
" clip-path="url(#pef495deb0b)" style="fill: #ff0000"/>
   </g>
   <g id="patch_23">
    <path d="M 25.7 82.713139 
L 157.511024 82.713139 
L 157.511024 78.888075 
L 25.7 78.888075 
z
" clip-path="url(#pef495deb0b)" style="fill: #ff0000"/>
   </g>
   <g id="patch_24">
    <path d="M 25.7 69.962926 
L 157.511024 69.962926 
L 157.511024 66.137862 
L 25.7 66.137862 
z
" clip-path="url(#pef495deb0b)" style="fill: #ff0000"/>
   </g>
   <g id="patch_25">
    <path d="M 25.7 57.212712 
L 108.08189 57.212712 
L 108.08189 53.387648 
L 25.7 53.387648 
z
" clip-path="url(#pef495deb0b)" style="fill: #ff0000"/>
   </g>
   <g id="patch_26">
    <path d="M 25.7 44.462499 
L 108.08189 44.462499 
L 108.08189 40.637435 
L 25.7 40.637435 
z
" clip-path="url(#pef495deb0b)" style="fill: #ff0000"/>
   </g>
   <g id="patch_27">
    <path d="M 25.7 31.712285 
L 108.08189 31.712285 
L 108.08189 27.887221 
L 25.7 27.887221 
z
" clip-path="url(#pef495deb0b)" style="fill: #ff0000"/>
   </g>
   <g id="patch_28">
    <path d="M 25.7 18.962072 
L 108.08189 18.962072 
L 108.08189 15.137008 
L 25.7 15.137008 
z
" clip-path="url(#pef495deb0b)" style="fill: #ff0000"/>
   </g>
   <g id="matplotlib.axis_1">
    <g id="xtick_1">
     <g id="line2d_1">
      <defs>
       <path id="mf178bcdaa9" d="M 0 0 
L 0 -3.5 
" style="stroke: #000000; stroke-width: 0.8"/>
      </defs>
      <g>
       <use xlink:href="#mf178bcdaa9" x="25.7" y="181.814173" style="stroke: #000000; stroke-width: 0.8"/>
      </g>
     </g>
     <g id="text_1">
      <!-- 0.0 -->
      <g transform="translate(18.75 192.471986) scale(0.1 -0.1)">
       <defs>
        <path id="ArialMT-30" d="M 266 2259 
Q 266 3072 433 3567 
Q 600 4063 929 4331 
Q 1259 4600 1759 4600 
Q 2128 4600 2406 4451 
Q 2684 4303 2865 4023 
Q 3047 3744 3150 3342 
Q 3253 2941 3253 2259 
Q 3253 1453 3087 958 
Q 2922 463 2592 192 
Q 2263 -78 1759 -78 
Q 1097 -78 719 397 
Q 266 969 266 2259 
z
M 844 2259 
Q 844 1131 1108 757 
Q 1372 384 1759 384 
Q 2147 384 2411 759 
Q 2675 1134 2675 2259 
Q 2675 3391 2411 3762 
Q 2147 4134 1753 4134 
Q 1366 4134 1134 3806 
Q 844 3388 844 2259 
z
" transform="scale(0.015625)"/>
        <path id="ArialMT-2e" d="M 581 0 
L 581 641 
L 1222 641 
L 1222 0 
L 581 0 
z
" transform="scale(0.015625)"/>
       </defs>
       <use xlink:href="#ArialMT-30"/>
       <use xlink:href="#ArialMT-2e" x="55.615234"/>
       <use xlink:href="#ArialMT-30" x="83.398438"/>
      </g>
     </g>
    </g>
    <g id="xtick_2">
     <g id="line2d_2">
      <g>
       <use xlink:href="#mf178bcdaa9" x="80.62126" y="181.814173" style="stroke: #000000; stroke-width: 0.8"/>
      </g>
     </g>
     <g id="text_2">
      <!-- 0.4 -->
      <g transform="translate(73.67126 192.471986) scale(0.1 -0.1)">
       <defs>
        <path id="ArialMT-34" d="M 2069 0 
L 2069 1097 
L 81 1097 
L 81 1613 
L 2172 4581 
L 2631 4581 
L 2631 1613 
L 3250 1613 
L 3250 1097 
L 2631 1097 
L 2631 0 
L 2069 0 
z
M 2069 1613 
L 2069 3678 
L 634 1613 
L 2069 1613 
z
" transform="scale(0.015625)"/>
       </defs>
       <use xlink:href="#ArialMT-30"/>
       <use xlink:href="#ArialMT-2e" x="55.615234"/>
       <use xlink:href="#ArialMT-34" x="83.398438"/>
      </g>
     </g>
    </g>
    <g id="xtick_3">
     <g id="line2d_3">
      <g>
       <use xlink:href="#mf178bcdaa9" x="135.54252" y="181.814173" style="stroke: #000000; stroke-width: 0.8"/>
      </g>
     </g>
     <g id="text_3">
      <!-- 0.8 -->
      <g transform="translate(128.59252 192.471986) scale(0.1 -0.1)">
       <defs>
        <path id="ArialMT-38" d="M 1131 2484 
Q 781 2613 612 2850 
Q 444 3088 444 3419 
Q 444 3919 803 4259 
Q 1163 4600 1759 4600 
Q 2359 4600 2725 4251 
Q 3091 3903 3091 3403 
Q 3091 3084 2923 2848 
Q 2756 2613 2416 2484 
Q 2838 2347 3058 2040 
Q 3278 1734 3278 1309 
Q 3278 722 2862 322 
Q 2447 -78 1769 -78 
Q 1091 -78 675 323 
Q 259 725 259 1325 
Q 259 1772 486 2073 
Q 713 2375 1131 2484 
z
M 1019 3438 
Q 1019 3113 1228 2906 
Q 1438 2700 1772 2700 
Q 2097 2700 2305 2904 
Q 2513 3109 2513 3406 
Q 2513 3716 2298 3927 
Q 2084 4138 1766 4138 
Q 1444 4138 1231 3931 
Q 1019 3725 1019 3438 
z
M 838 1322 
Q 838 1081 952 856 
Q 1066 631 1291 507 
Q 1516 384 1775 384 
Q 2178 384 2440 643 
Q 2703 903 2703 1303 
Q 2703 1709 2433 1975 
Q 2163 2241 1756 2241 
Q 1359 2241 1098 1978 
Q 838 1716 838 1322 
z
" transform="scale(0.015625)"/>
       </defs>
       <use xlink:href="#ArialMT-30"/>
       <use xlink:href="#ArialMT-2e" x="55.615234"/>
       <use xlink:href="#ArialMT-38" x="83.398438"/>
      </g>
     </g>
    </g>
    <g id="xtick_4">
     <g id="line2d_4">
      <g>
       <use xlink:href="#mf178bcdaa9" x="190.46378" y="181.814173" style="stroke: #000000; stroke-width: 0.8"/>
      </g>
     </g>
     <g id="text_4">
      <!-- 1.2 -->
      <g transform="translate(183.51378 192.471986) scale(0.1 -0.1)">
       <defs>
        <path id="ArialMT-31" d="M 2384 0 
L 1822 0 
L 1822 3584 
Q 1619 3391 1289 3197 
Q 959 3003 697 2906 
L 697 3450 
Q 1169 3672 1522 3987 
Q 1875 4303 2022 4600 
L 2384 4600 
L 2384 0 
z
" transform="scale(0.015625)"/>
        <path id="ArialMT-32" d="M 3222 541 
L 3222 0 
L 194 0 
Q 188 203 259 391 
Q 375 700 629 1000 
Q 884 1300 1366 1694 
Q 2113 2306 2375 2664 
Q 2638 3022 2638 3341 
Q 2638 3675 2398 3904 
Q 2159 4134 1775 4134 
Q 1369 4134 1125 3890 
Q 881 3647 878 3216 
L 300 3275 
Q 359 3922 746 4261 
Q 1134 4600 1788 4600 
Q 2447 4600 2831 4234 
Q 3216 3869 3216 3328 
Q 3216 3053 3103 2787 
Q 2991 2522 2730 2228 
Q 2469 1934 1863 1422 
Q 1356 997 1212 845 
Q 1069 694 975 541 
L 3222 541 
z
" transform="scale(0.015625)"/>
       </defs>
       <use xlink:href="#ArialMT-31"/>
       <use xlink:href="#ArialMT-2e" x="55.615234"/>
       <use xlink:href="#ArialMT-32" x="83.398438"/>
      </g>
     </g>
    </g>
    <g id="xtick_5">
     <g id="line2d_5">
      <g>
       <use xlink:href="#mf178bcdaa9" x="245.385039" y="181.814173" style="stroke: #000000; stroke-width: 0.8"/>
      </g>
     </g>
     <g id="text_5">
      <!-- 1.6 -->
      <g transform="translate(238.435039 192.471986) scale(0.1 -0.1)">
       <defs>
        <path id="ArialMT-36" d="M 3184 3459 
L 2625 3416 
Q 2550 3747 2413 3897 
Q 2184 4138 1850 4138 
Q 1581 4138 1378 3988 
Q 1113 3794 959 3422 
Q 806 3050 800 2363 
Q 1003 2672 1297 2822 
Q 1591 2972 1913 2972 
Q 2475 2972 2870 2558 
Q 3266 2144 3266 1488 
Q 3266 1056 3080 686 
Q 2894 316 2569 119 
Q 2244 -78 1831 -78 
Q 1128 -78 684 439 
Q 241 956 241 2144 
Q 241 3472 731 4075 
Q 1159 4600 1884 4600 
Q 2425 4600 2770 4297 
Q 3116 3994 3184 3459 
z
M 888 1484 
Q 888 1194 1011 928 
Q 1134 663 1356 523 
Q 1578 384 1822 384 
Q 2178 384 2434 671 
Q 2691 959 2691 1453 
Q 2691 1928 2437 2201 
Q 2184 2475 1800 2475 
Q 1419 2475 1153 2201 
Q 888 1928 888 1484 
z
" transform="scale(0.015625)"/>
       </defs>
       <use xlink:href="#ArialMT-31"/>
       <use xlink:href="#ArialMT-2e" x="55.615234"/>
       <use xlink:href="#ArialMT-36" x="83.398438"/>
      </g>
     </g>
    </g>
    <g id="text_6">
     <!-- Stiffness parameter values ($\times10^5$ kN/m) -->
     <g transform="translate(45.59252 207.459486) scale(0.1 -0.1)">
      <defs>
       <path id="ArialMT-53" d="M 288 1472 
L 859 1522 
Q 900 1178 1048 958 
Q 1197 738 1509 602 
Q 1822 466 2213 466 
Q 2559 466 2825 569 
Q 3091 672 3220 851 
Q 3350 1031 3350 1244 
Q 3350 1459 3225 1620 
Q 3100 1781 2813 1891 
Q 2628 1963 1997 2114 
Q 1366 2266 1113 2400 
Q 784 2572 623 2826 
Q 463 3081 463 3397 
Q 463 3744 659 4045 
Q 856 4347 1234 4503 
Q 1613 4659 2075 4659 
Q 2584 4659 2973 4495 
Q 3363 4331 3572 4012 
Q 3781 3694 3797 3291 
L 3216 3247 
Q 3169 3681 2898 3903 
Q 2628 4125 2100 4125 
Q 1550 4125 1298 3923 
Q 1047 3722 1047 3438 
Q 1047 3191 1225 3031 
Q 1400 2872 2139 2705 
Q 2878 2538 3153 2413 
Q 3553 2228 3743 1945 
Q 3934 1663 3934 1294 
Q 3934 928 3725 604 
Q 3516 281 3123 101 
Q 2731 -78 2241 -78 
Q 1619 -78 1198 103 
Q 778 284 539 648 
Q 300 1013 288 1472 
z
" transform="scale(0.015625)"/>
       <path id="ArialMT-74" d="M 1650 503 
L 1731 6 
Q 1494 -44 1306 -44 
Q 1000 -44 831 53 
Q 663 150 594 308 
Q 525 466 525 972 
L 525 2881 
L 113 2881 
L 113 3319 
L 525 3319 
L 525 4141 
L 1084 4478 
L 1084 3319 
L 1650 3319 
L 1650 2881 
L 1084 2881 
L 1084 941 
Q 1084 700 1114 631 
Q 1144 563 1211 522 
Q 1278 481 1403 481 
Q 1497 481 1650 503 
z
" transform="scale(0.015625)"/>
       <path id="ArialMT-69" d="M 425 3934 
L 425 4581 
L 988 4581 
L 988 3934 
L 425 3934 
z
M 425 0 
L 425 3319 
L 988 3319 
L 988 0 
L 425 0 
z
" transform="scale(0.015625)"/>
       <path id="ArialMT-66" d="M 556 0 
L 556 2881 
L 59 2881 
L 59 3319 
L 556 3319 
L 556 3672 
Q 556 4006 616 4169 
Q 697 4388 901 4523 
Q 1106 4659 1475 4659 
Q 1713 4659 2000 4603 
L 1916 4113 
Q 1741 4144 1584 4144 
Q 1328 4144 1222 4034 
Q 1116 3925 1116 3625 
L 1116 3319 
L 1763 3319 
L 1763 2881 
L 1116 2881 
L 1116 0 
L 556 0 
z
" transform="scale(0.015625)"/>
       <path id="ArialMT-6e" d="M 422 0 
L 422 3319 
L 928 3319 
L 928 2847 
Q 1294 3394 1984 3394 
Q 2284 3394 2536 3286 
Q 2788 3178 2913 3003 
Q 3038 2828 3088 2588 
Q 3119 2431 3119 2041 
L 3119 0 
L 2556 0 
L 2556 2019 
Q 2556 2363 2490 2533 
Q 2425 2703 2258 2804 
Q 2091 2906 1866 2906 
Q 1506 2906 1245 2678 
Q 984 2450 984 1813 
L 984 0 
L 422 0 
z
" transform="scale(0.015625)"/>
       <path id="ArialMT-65" d="M 2694 1069 
L 3275 997 
Q 3138 488 2766 206 
Q 2394 -75 1816 -75 
Q 1088 -75 661 373 
Q 234 822 234 1631 
Q 234 2469 665 2931 
Q 1097 3394 1784 3394 
Q 2450 3394 2872 2941 
Q 3294 2488 3294 1666 
Q 3294 1616 3291 1516 
L 816 1516 
Q 847 969 1125 678 
Q 1403 388 1819 388 
Q 2128 388 2347 550 
Q 2566 713 2694 1069 
z
M 847 1978 
L 2700 1978 
Q 2663 2397 2488 2606 
Q 2219 2931 1791 2931 
Q 1403 2931 1139 2672 
Q 875 2413 847 1978 
z
" transform="scale(0.015625)"/>
       <path id="ArialMT-73" d="M 197 991 
L 753 1078 
Q 800 744 1014 566 
Q 1228 388 1613 388 
Q 2000 388 2187 545 
Q 2375 703 2375 916 
Q 2375 1106 2209 1216 
Q 2094 1291 1634 1406 
Q 1016 1563 777 1677 
Q 538 1791 414 1992 
Q 291 2194 291 2438 
Q 291 2659 392 2848 
Q 494 3038 669 3163 
Q 800 3259 1026 3326 
Q 1253 3394 1513 3394 
Q 1903 3394 2198 3281 
Q 2494 3169 2634 2976 
Q 2775 2784 2828 2463 
L 2278 2388 
Q 2241 2644 2061 2787 
Q 1881 2931 1553 2931 
Q 1166 2931 1000 2803 
Q 834 2675 834 2503 
Q 834 2394 903 2306 
Q 972 2216 1119 2156 
Q 1203 2125 1616 2013 
Q 2213 1853 2448 1751 
Q 2684 1650 2818 1456 
Q 2953 1263 2953 975 
Q 2953 694 2789 445 
Q 2625 197 2315 61 
Q 2006 -75 1616 -75 
Q 969 -75 630 194 
Q 291 463 197 991 
z
" transform="scale(0.015625)"/>
       <path id="ArialMT-20" transform="scale(0.015625)"/>
       <path id="ArialMT-70" d="M 422 -1272 
L 422 3319 
L 934 3319 
L 934 2888 
Q 1116 3141 1344 3267 
Q 1572 3394 1897 3394 
Q 2322 3394 2647 3175 
Q 2972 2956 3137 2557 
Q 3303 2159 3303 1684 
Q 3303 1175 3120 767 
Q 2938 359 2589 142 
Q 2241 -75 1856 -75 
Q 1575 -75 1351 44 
Q 1128 163 984 344 
L 984 -1272 
L 422 -1272 
z
M 931 1641 
Q 931 1000 1190 694 
Q 1450 388 1819 388 
Q 2194 388 2461 705 
Q 2728 1022 2728 1688 
Q 2728 2322 2467 2637 
Q 2206 2953 1844 2953 
Q 1484 2953 1207 2617 
Q 931 2281 931 1641 
z
" transform="scale(0.015625)"/>
       <path id="ArialMT-61" d="M 2588 409 
Q 2275 144 1986 34 
Q 1697 -75 1366 -75 
Q 819 -75 525 192 
Q 231 459 231 875 
Q 231 1119 342 1320 
Q 453 1522 633 1644 
Q 813 1766 1038 1828 
Q 1203 1872 1538 1913 
Q 2219 1994 2541 2106 
Q 2544 2222 2544 2253 
Q 2544 2597 2384 2738 
Q 2169 2928 1744 2928 
Q 1347 2928 1158 2789 
Q 969 2650 878 2297 
L 328 2372 
Q 403 2725 575 2942 
Q 747 3159 1072 3276 
Q 1397 3394 1825 3394 
Q 2250 3394 2515 3294 
Q 2781 3194 2906 3042 
Q 3031 2891 3081 2659 
Q 3109 2516 3109 2141 
L 3109 1391 
Q 3109 606 3145 398 
Q 3181 191 3288 0 
L 2700 0 
Q 2613 175 2588 409 
z
M 2541 1666 
Q 2234 1541 1622 1453 
Q 1275 1403 1131 1340 
Q 988 1278 909 1158 
Q 831 1038 831 891 
Q 831 666 1001 516 
Q 1172 366 1500 366 
Q 1825 366 2078 508 
Q 2331 650 2450 897 
Q 2541 1088 2541 1459 
L 2541 1666 
z
" transform="scale(0.015625)"/>
       <path id="ArialMT-72" d="M 416 0 
L 416 3319 
L 922 3319 
L 922 2816 
Q 1116 3169 1280 3281 
Q 1444 3394 1641 3394 
Q 1925 3394 2219 3213 
L 2025 2691 
Q 1819 2813 1613 2813 
Q 1428 2813 1281 2702 
Q 1134 2591 1072 2394 
Q 978 2094 978 1738 
L 978 0 
L 416 0 
z
" transform="scale(0.015625)"/>
       <path id="ArialMT-6d" d="M 422 0 
L 422 3319 
L 925 3319 
L 925 2853 
Q 1081 3097 1340 3245 
Q 1600 3394 1931 3394 
Q 2300 3394 2536 3241 
Q 2772 3088 2869 2813 
Q 3263 3394 3894 3394 
Q 4388 3394 4653 3120 
Q 4919 2847 4919 2278 
L 4919 0 
L 4359 0 
L 4359 2091 
Q 4359 2428 4304 2576 
Q 4250 2725 4106 2815 
Q 3963 2906 3769 2906 
Q 3419 2906 3187 2673 
Q 2956 2441 2956 1928 
L 2956 0 
L 2394 0 
L 2394 2156 
Q 2394 2531 2256 2718 
Q 2119 2906 1806 2906 
Q 1569 2906 1367 2781 
Q 1166 2656 1075 2415 
Q 984 2175 984 1722 
L 984 0 
L 422 0 
z
" transform="scale(0.015625)"/>
       <path id="ArialMT-76" d="M 1344 0 
L 81 3319 
L 675 3319 
L 1388 1331 
Q 1503 1009 1600 663 
Q 1675 925 1809 1294 
L 2547 3319 
L 3125 3319 
L 1869 0 
L 1344 0 
z
" transform="scale(0.015625)"/>
       <path id="ArialMT-6c" d="M 409 0 
L 409 4581 
L 972 4581 
L 972 0 
L 409 0 
z
" transform="scale(0.015625)"/>
       <path id="ArialMT-75" d="M 2597 0 
L 2597 488 
Q 2209 -75 1544 -75 
Q 1250 -75 995 37 
Q 741 150 617 320 
Q 494 491 444 738 
Q 409 903 409 1263 
L 409 3319 
L 972 3319 
L 972 1478 
Q 972 1038 1006 884 
Q 1059 663 1231 536 
Q 1403 409 1656 409 
Q 1909 409 2131 539 
Q 2353 669 2445 892 
Q 2538 1116 2538 1541 
L 2538 3319 
L 3100 3319 
L 3100 0 
L 2597 0 
z
" transform="scale(0.015625)"/>
       <path id="ArialMT-28" d="M 1497 -1347 
Q 1031 -759 709 28 
Q 388 816 388 1659 
Q 388 2403 628 3084 
Q 909 3875 1497 4659 
L 1900 4659 
Q 1522 4009 1400 3731 
Q 1209 3300 1100 2831 
Q 966 2247 966 1656 
Q 966 153 1900 -1347 
L 1497 -1347 
z
" transform="scale(0.015625)"/>
       <path id="DejaVuSans-d7" d="M 4488 3438 
L 3059 2003 
L 4488 575 
L 4116 197 
L 2681 1631 
L 1247 197 
L 878 575 
L 2303 2003 
L 878 3438 
L 1247 3816 
L 2681 2381 
L 4116 3816 
L 4488 3438 
z
" transform="scale(0.015625)"/>
       <path id="DejaVuSans-31" d="M 794 531 
L 1825 531 
L 1825 4091 
L 703 3866 
L 703 4441 
L 1819 4666 
L 2450 4666 
L 2450 531 
L 3481 531 
L 3481 0 
L 794 0 
L 794 531 
z
" transform="scale(0.015625)"/>
       <path id="DejaVuSans-30" d="M 2034 4250 
Q 1547 4250 1301 3770 
Q 1056 3291 1056 2328 
Q 1056 1369 1301 889 
Q 1547 409 2034 409 
Q 2525 409 2770 889 
Q 3016 1369 3016 2328 
Q 3016 3291 2770 3770 
Q 2525 4250 2034 4250 
z
M 2034 4750 
Q 2819 4750 3233 4129 
Q 3647 3509 3647 2328 
Q 3647 1150 3233 529 
Q 2819 -91 2034 -91 
Q 1250 -91 836 529 
Q 422 1150 422 2328 
Q 422 3509 836 4129 
Q 1250 4750 2034 4750 
z
" transform="scale(0.015625)"/>
       <path id="DejaVuSans-35" d="M 691 4666 
L 3169 4666 
L 3169 4134 
L 1269 4134 
L 1269 2991 
Q 1406 3038 1543 3061 
Q 1681 3084 1819 3084 
Q 2600 3084 3056 2656 
Q 3513 2228 3513 1497 
Q 3513 744 3044 326 
Q 2575 -91 1722 -91 
Q 1428 -91 1123 -41 
Q 819 9 494 109 
L 494 744 
Q 775 591 1075 516 
Q 1375 441 1709 441 
Q 2250 441 2565 725 
Q 2881 1009 2881 1497 
Q 2881 1984 2565 2268 
Q 2250 2553 1709 2553 
Q 1456 2553 1204 2497 
Q 953 2441 691 2322 
L 691 4666 
z
" transform="scale(0.015625)"/>
       <path id="ArialMT-6b" d="M 425 0 
L 425 4581 
L 988 4581 
L 988 1969 
L 2319 3319 
L 3047 3319 
L 1778 2088 
L 3175 0 
L 2481 0 
L 1384 1697 
L 988 1316 
L 988 0 
L 425 0 
z
" transform="scale(0.015625)"/>
       <path id="ArialMT-4e" d="M 488 0 
L 488 4581 
L 1109 4581 
L 3516 984 
L 3516 4581 
L 4097 4581 
L 4097 0 
L 3475 0 
L 1069 3600 
L 1069 0 
L 488 0 
z
" transform="scale(0.015625)"/>
       <path id="ArialMT-2f" d="M 0 -78 
L 1328 4659 
L 1778 4659 
L 453 -78 
L 0 -78 
z
" transform="scale(0.015625)"/>
       <path id="ArialMT-29" d="M 791 -1347 
L 388 -1347 
Q 1322 153 1322 1656 
Q 1322 2244 1188 2822 
Q 1081 3291 891 3722 
Q 769 4003 388 4659 
L 791 4659 
Q 1378 3875 1659 3084 
Q 1900 2403 1900 1659 
Q 1900 816 1576 28 
Q 1253 -759 791 -1347 
z
" transform="scale(0.015625)"/>
      </defs>
      <use xlink:href="#ArialMT-53" transform="translate(0 0.684375)"/>
      <use xlink:href="#ArialMT-74" transform="translate(66.699219 0.684375)"/>
      <use xlink:href="#ArialMT-69" transform="translate(94.482422 0.684375)"/>
      <use xlink:href="#ArialMT-66" transform="translate(116.699219 0.684375)"/>
      <use xlink:href="#ArialMT-66" transform="translate(144.482422 0.684375)"/>
      <use xlink:href="#ArialMT-6e" transform="translate(172.265625 0.684375)"/>
      <use xlink:href="#ArialMT-65" transform="translate(227.880859 0.684375)"/>
      <use xlink:href="#ArialMT-73" transform="translate(283.496094 0.684375)"/>
      <use xlink:href="#ArialMT-73" transform="translate(333.496094 0.684375)"/>
      <use xlink:href="#ArialMT-20" transform="translate(383.496094 0.684375)"/>
      <use xlink:href="#ArialMT-70" transform="translate(411.279297 0.684375)"/>
      <use xlink:href="#ArialMT-61" transform="translate(466.894531 0.684375)"/>
      <use xlink:href="#ArialMT-72" transform="translate(522.509766 0.684375)"/>
      <use xlink:href="#ArialMT-61" transform="translate(555.810547 0.684375)"/>
      <use xlink:href="#ArialMT-6d" transform="translate(611.425781 0.684375)"/>
      <use xlink:href="#ArialMT-65" transform="translate(694.726562 0.684375)"/>
      <use xlink:href="#ArialMT-74" transform="translate(750.341797 0.684375)"/>
      <use xlink:href="#ArialMT-65" transform="translate(778.125 0.684375)"/>
      <use xlink:href="#ArialMT-72" transform="translate(833.740234 0.684375)"/>
      <use xlink:href="#ArialMT-20" transform="translate(867.041016 0.684375)"/>
      <use xlink:href="#ArialMT-76" transform="translate(894.824219 0.684375)"/>
      <use xlink:href="#ArialMT-61" transform="translate(944.824219 0.684375)"/>
      <use xlink:href="#ArialMT-6c" transform="translate(1000.439453 0.684375)"/>
      <use xlink:href="#ArialMT-75" transform="translate(1022.65625 0.684375)"/>
      <use xlink:href="#ArialMT-65" transform="translate(1078.271484 0.684375)"/>
      <use xlink:href="#ArialMT-73" transform="translate(1133.886719 0.684375)"/>
      <use xlink:href="#ArialMT-20" transform="translate(1183.886719 0.684375)"/>
      <use xlink:href="#ArialMT-28" transform="translate(1211.669922 0.684375)"/>
      <use xlink:href="#DejaVuSans-d7" transform="translate(1244.970703 0.684375)"/>
      <use xlink:href="#DejaVuSans-31" transform="translate(1328.759766 0.684375)"/>
      <use xlink:href="#DejaVuSans-30" transform="translate(1392.382812 0.684375)"/>
      <use xlink:href="#DejaVuSans-35" transform="translate(1456.962891 38.965625) scale(0.7)"/>
      <use xlink:href="#ArialMT-20" transform="translate(1504.233398 0.684375)"/>
      <use xlink:href="#ArialMT-6b" transform="translate(1532.016602 0.684375)"/>
      <use xlink:href="#ArialMT-4e" transform="translate(1582.016602 0.684375)"/>
      <use xlink:href="#ArialMT-2f" transform="translate(1654.233398 0.684375)"/>
      <use xlink:href="#ArialMT-6d" transform="translate(1682.016602 0.684375)"/>
      <use xlink:href="#ArialMT-29" transform="translate(1765.317383 0.684375)"/>
     </g>
    </g>
   </g>
   <g id="matplotlib.axis_2">
    <g id="ytick_1">
     <g id="line2d_6">
      <defs>
       <path id="me0a800c574" d="M 0 0 
L 3.5 0 
" style="stroke: #000000; stroke-width: 0.8"/>
      </defs>
      <g>
       <use xlink:href="#me0a800c574" x="25.7" y="170.052101" style="stroke: #000000; stroke-width: 0.8"/>
      </g>
     </g>
     <g id="text_7">
      <!-- $k_1$ -->
      <g transform="translate(11.6 173.708351) scale(0.1 -0.1)">
       <defs>
        <path id="DejaVuSans-Oblique-6b" d="M 1172 4863 
L 1747 4863 
L 1197 2028 
L 3169 3500 
L 3916 3500 
L 1716 1825 
L 3322 0 
L 2625 0 
L 1131 1709 
L 800 0 
L 225 0 
L 1172 4863 
z
" transform="scale(0.015625)"/>
       </defs>
       <use xlink:href="#DejaVuSans-Oblique-6b" transform="translate(0 0.015625)"/>
       <use xlink:href="#DejaVuSans-31" transform="translate(57.910156 -16.390625) scale(0.7)"/>
      </g>
     </g>
    </g>
    <g id="ytick_2">
     <g id="line2d_7">
      <g>
       <use xlink:href="#me0a800c574" x="25.7" y="159.21442" style="stroke: #000000; stroke-width: 0.8"/>
      </g>
     </g>
     <g id="text_8">
      <!-- $k_2$ -->
      <g transform="translate(11.6 162.87067) scale(0.1 -0.1)">
       <defs>
        <path id="DejaVuSans-32" d="M 1228 531 
L 3431 531 
L 3431 0 
L 469 0 
L 469 531 
Q 828 903 1448 1529 
Q 2069 2156 2228 2338 
Q 2531 2678 2651 2914 
Q 2772 3150 2772 3378 
Q 2772 3750 2511 3984 
Q 2250 4219 1831 4219 
Q 1534 4219 1204 4116 
Q 875 4013 500 3803 
L 500 4441 
Q 881 4594 1212 4672 
Q 1544 4750 1819 4750 
Q 2544 4750 2975 4387 
Q 3406 4025 3406 3419 
Q 3406 3131 3298 2873 
Q 3191 2616 2906 2266 
Q 2828 2175 2409 1742 
Q 1991 1309 1228 531 
z
" transform="scale(0.015625)"/>
       </defs>
       <use xlink:href="#DejaVuSans-Oblique-6b" transform="translate(0 0.015625)"/>
       <use xlink:href="#DejaVuSans-32" transform="translate(57.910156 -16.390625) scale(0.7)"/>
      </g>
     </g>
    </g>
    <g id="ytick_3">
     <g id="line2d_8">
      <g>
       <use xlink:href="#me0a800c574" x="25.7" y="146.464206" style="stroke: #000000; stroke-width: 0.8"/>
      </g>
     </g>
     <g id="text_9">
      <!-- $k_3$ -->
      <g transform="translate(11.6 150.170456) scale(0.1 -0.1)">
       <defs>
        <path id="DejaVuSans-33" d="M 2597 2516 
Q 3050 2419 3304 2112 
Q 3559 1806 3559 1356 
Q 3559 666 3084 287 
Q 2609 -91 1734 -91 
Q 1441 -91 1130 -33 
Q 819 25 488 141 
L 488 750 
Q 750 597 1062 519 
Q 1375 441 1716 441 
Q 2309 441 2620 675 
Q 2931 909 2931 1356 
Q 2931 1769 2642 2001 
Q 2353 2234 1838 2234 
L 1294 2234 
L 1294 2753 
L 1863 2753 
Q 2328 2753 2575 2939 
Q 2822 3125 2822 3475 
Q 2822 3834 2567 4026 
Q 2313 4219 1838 4219 
Q 1578 4219 1281 4162 
Q 984 4106 628 3988 
L 628 4550 
Q 988 4650 1302 4700 
Q 1616 4750 1894 4750 
Q 2613 4750 3031 4423 
Q 3450 4097 3450 3541 
Q 3450 3153 3228 2886 
Q 3006 2619 2597 2516 
z
" transform="scale(0.015625)"/>
       </defs>
       <use xlink:href="#DejaVuSans-Oblique-6b" transform="translate(0 0.015625)"/>
       <use xlink:href="#DejaVuSans-33" transform="translate(57.910156 -16.390625) scale(0.7)"/>
      </g>
     </g>
    </g>
    <g id="ytick_4">
     <g id="line2d_9">
      <g>
       <use xlink:href="#me0a800c574" x="25.7" y="133.713993" style="stroke: #000000; stroke-width: 0.8"/>
      </g>
     </g>
     <g id="text_10">
      <!-- $k_4$ -->
      <g transform="translate(11.6 137.370243) scale(0.1 -0.1)">
       <defs>
        <path id="DejaVuSans-34" d="M 2419 4116 
L 825 1625 
L 2419 1625 
L 2419 4116 
z
M 2253 4666 
L 3047 4666 
L 3047 1625 
L 3713 1625 
L 3713 1100 
L 3047 1100 
L 3047 0 
L 2419 0 
L 2419 1100 
L 313 1100 
L 313 1709 
L 2253 4666 
z
" transform="scale(0.015625)"/>
       </defs>
       <use xlink:href="#DejaVuSans-Oblique-6b" transform="translate(0 0.015625)"/>
       <use xlink:href="#DejaVuSans-34" transform="translate(57.910156 -16.390625) scale(0.7)"/>
      </g>
     </g>
    </g>
    <g id="ytick_5">
     <g id="line2d_10">
      <g>
       <use xlink:href="#me0a800c574" x="25.7" y="120.96378" style="stroke: #000000; stroke-width: 0.8"/>
      </g>
     </g>
     <g id="text_11">
      <!-- $k_5$ -->
      <g transform="translate(11.6 124.67003) scale(0.1 -0.1)">
       <use xlink:href="#DejaVuSans-Oblique-6b" transform="translate(0 0.015625)"/>
       <use xlink:href="#DejaVuSans-35" transform="translate(57.910156 -16.390625) scale(0.7)"/>
      </g>
     </g>
    </g>
    <g id="ytick_6">
     <g id="line2d_11">
      <g>
       <use xlink:href="#me0a800c574" x="25.7" y="108.213566" style="stroke: #000000; stroke-width: 0.8"/>
      </g>
     </g>
     <g id="text_12">
      <!-- $k_6$ -->
      <g transform="translate(11.6 111.919816) scale(0.1 -0.1)">
       <defs>
        <path id="DejaVuSans-36" d="M 2113 2584 
Q 1688 2584 1439 2293 
Q 1191 2003 1191 1497 
Q 1191 994 1439 701 
Q 1688 409 2113 409 
Q 2538 409 2786 701 
Q 3034 994 3034 1497 
Q 3034 2003 2786 2293 
Q 2538 2584 2113 2584 
z
M 3366 4563 
L 3366 3988 
Q 3128 4100 2886 4159 
Q 2644 4219 2406 4219 
Q 1781 4219 1451 3797 
Q 1122 3375 1075 2522 
Q 1259 2794 1537 2939 
Q 1816 3084 2150 3084 
Q 2853 3084 3261 2657 
Q 3669 2231 3669 1497 
Q 3669 778 3244 343 
Q 2819 -91 2113 -91 
Q 1303 -91 875 529 
Q 447 1150 447 2328 
Q 447 3434 972 4092 
Q 1497 4750 2381 4750 
Q 2619 4750 2861 4703 
Q 3103 4656 3366 4563 
z
" transform="scale(0.015625)"/>
       </defs>
       <use xlink:href="#DejaVuSans-Oblique-6b" transform="translate(0 0.015625)"/>
       <use xlink:href="#DejaVuSans-36" transform="translate(57.910156 -16.390625) scale(0.7)"/>
      </g>
     </g>
    </g>
    <g id="ytick_7">
     <g id="line2d_12">
      <g>
       <use xlink:href="#me0a800c574" x="25.7" y="95.463353" style="stroke: #000000; stroke-width: 0.8"/>
      </g>
     </g>
     <g id="text_13">
      <!-- $k_7$ -->
      <g transform="translate(11.6 99.119603) scale(0.1 -0.1)">
       <defs>
        <path id="DejaVuSans-37" d="M 525 4666 
L 3525 4666 
L 3525 4397 
L 1831 0 
L 1172 0 
L 2766 4134 
L 525 4134 
L 525 4666 
z
" transform="scale(0.015625)"/>
       </defs>
       <use xlink:href="#DejaVuSans-Oblique-6b" transform="translate(0 0.015625)"/>
       <use xlink:href="#DejaVuSans-37" transform="translate(57.910156 -16.390625) scale(0.7)"/>
      </g>
     </g>
    </g>
    <g id="ytick_8">
     <g id="line2d_13">
      <g>
       <use xlink:href="#me0a800c574" x="25.7" y="82.713139" style="stroke: #000000; stroke-width: 0.8"/>
      </g>
     </g>
     <g id="text_14">
      <!-- $k_8$ -->
      <g transform="translate(11.6 86.419389) scale(0.1 -0.1)">
       <defs>
        <path id="DejaVuSans-38" d="M 2034 2216 
Q 1584 2216 1326 1975 
Q 1069 1734 1069 1313 
Q 1069 891 1326 650 
Q 1584 409 2034 409 
Q 2484 409 2743 651 
Q 3003 894 3003 1313 
Q 3003 1734 2745 1975 
Q 2488 2216 2034 2216 
z
M 1403 2484 
Q 997 2584 770 2862 
Q 544 3141 544 3541 
Q 544 4100 942 4425 
Q 1341 4750 2034 4750 
Q 2731 4750 3128 4425 
Q 3525 4100 3525 3541 
Q 3525 3141 3298 2862 
Q 3072 2584 2669 2484 
Q 3125 2378 3379 2068 
Q 3634 1759 3634 1313 
Q 3634 634 3220 271 
Q 2806 -91 2034 -91 
Q 1263 -91 848 271 
Q 434 634 434 1313 
Q 434 1759 690 2068 
Q 947 2378 1403 2484 
z
M 1172 3481 
Q 1172 3119 1398 2916 
Q 1625 2713 2034 2713 
Q 2441 2713 2670 2916 
Q 2900 3119 2900 3481 
Q 2900 3844 2670 4047 
Q 2441 4250 2034 4250 
Q 1625 4250 1398 4047 
Q 1172 3844 1172 3481 
z
" transform="scale(0.015625)"/>
       </defs>
       <use xlink:href="#DejaVuSans-Oblique-6b" transform="translate(0 0.015625)"/>
       <use xlink:href="#DejaVuSans-38" transform="translate(57.910156 -16.390625) scale(0.7)"/>
      </g>
     </g>
    </g>
    <g id="ytick_9">
     <g id="line2d_14">
      <g>
       <use xlink:href="#me0a800c574" x="25.7" y="69.962926" style="stroke: #000000; stroke-width: 0.8"/>
      </g>
     </g>
     <g id="text_15">
      <!-- $k_9$ -->
      <g transform="translate(11.6 73.669176) scale(0.1 -0.1)">
       <defs>
        <path id="DejaVuSans-39" d="M 703 97 
L 703 672 
Q 941 559 1184 500 
Q 1428 441 1663 441 
Q 2288 441 2617 861 
Q 2947 1281 2994 2138 
Q 2813 1869 2534 1725 
Q 2256 1581 1919 1581 
Q 1219 1581 811 2004 
Q 403 2428 403 3163 
Q 403 3881 828 4315 
Q 1253 4750 1959 4750 
Q 2769 4750 3195 4129 
Q 3622 3509 3622 2328 
Q 3622 1225 3098 567 
Q 2575 -91 1691 -91 
Q 1453 -91 1209 -44 
Q 966 3 703 97 
z
M 1959 2075 
Q 2384 2075 2632 2365 
Q 2881 2656 2881 3163 
Q 2881 3666 2632 3958 
Q 2384 4250 1959 4250 
Q 1534 4250 1286 3958 
Q 1038 3666 1038 3163 
Q 1038 2656 1286 2365 
Q 1534 2075 1959 2075 
z
" transform="scale(0.015625)"/>
       </defs>
       <use xlink:href="#DejaVuSans-Oblique-6b" transform="translate(0 0.015625)"/>
       <use xlink:href="#DejaVuSans-39" transform="translate(57.910156 -16.390625) scale(0.7)"/>
      </g>
     </g>
    </g>
    <g id="ytick_10">
     <g id="line2d_15">
      <g>
       <use xlink:href="#me0a800c574" x="25.7" y="57.212712" style="stroke: #000000; stroke-width: 0.8"/>
      </g>
     </g>
     <g id="text_16">
      <!-- $k_{10}$ -->
      <g transform="translate(7.2 60.918962) scale(0.1 -0.1)">
       <use xlink:href="#DejaVuSans-Oblique-6b" transform="translate(0 0.015625)"/>
       <use xlink:href="#DejaVuSans-31" transform="translate(57.910156 -16.390625) scale(0.7)"/>
       <use xlink:href="#DejaVuSans-30" transform="translate(102.446289 -16.390625) scale(0.7)"/>
      </g>
     </g>
    </g>
    <g id="ytick_11">
     <g id="line2d_16">
      <g>
       <use xlink:href="#me0a800c574" x="25.7" y="44.462499" style="stroke: #000000; stroke-width: 0.8"/>
      </g>
     </g>
     <g id="text_17">
      <!-- $k_{11}$ -->
      <g transform="translate(7.2 48.118749) scale(0.1 -0.1)">
       <use xlink:href="#DejaVuSans-Oblique-6b" transform="translate(0 0.015625)"/>
       <use xlink:href="#DejaVuSans-31" transform="translate(57.910156 -16.390625) scale(0.7)"/>
       <use xlink:href="#DejaVuSans-31" transform="translate(102.446289 -16.390625) scale(0.7)"/>
      </g>
     </g>
    </g>
    <g id="ytick_12">
     <g id="line2d_17">
      <g>
       <use xlink:href="#me0a800c574" x="25.7" y="31.712285" style="stroke: #000000; stroke-width: 0.8"/>
      </g>
     </g>
     <g id="text_18">
      <!-- $k_{12}$ -->
      <g transform="translate(7.2 35.368535) scale(0.1 -0.1)">
       <use xlink:href="#DejaVuSans-Oblique-6b" transform="translate(0 0.015625)"/>
       <use xlink:href="#DejaVuSans-31" transform="translate(57.910156 -16.390625) scale(0.7)"/>
       <use xlink:href="#DejaVuSans-32" transform="translate(102.446289 -16.390625) scale(0.7)"/>
      </g>
     </g>
    </g>
    <g id="ytick_13">
     <g id="line2d_18">
      <g>
       <use xlink:href="#me0a800c574" x="25.7" y="18.962072" style="stroke: #000000; stroke-width: 0.8"/>
      </g>
     </g>
     <g id="text_19">
      <!-- $k_{13}$ -->
      <g transform="translate(7.2 22.668322) scale(0.1 -0.1)">
       <use xlink:href="#DejaVuSans-Oblique-6b" transform="translate(0 0.015625)"/>
       <use xlink:href="#DejaVuSans-31" transform="translate(57.910156 -16.390625) scale(0.7)"/>
       <use xlink:href="#DejaVuSans-33" transform="translate(102.446289 -16.390625) scale(0.7)"/>
      </g>
     </g>
    </g>
   </g>
   <g id="patch_29">
    <path d="M 25.7 181.814173 
L 25.7 7.2 
" style="fill: none; stroke: #000000; stroke-width: 0.8; stroke-linejoin: miter; stroke-linecap: square"/>
   </g>
   <g id="patch_30">
    <path d="M 245.385039 181.814173 
L 245.385039 7.2 
" style="fill: none; stroke: #000000; stroke-width: 0.8; stroke-linejoin: miter; stroke-linecap: square"/>
   </g>
   <g id="patch_31">
    <path d="M 25.7 181.814173 
L 245.385039 181.814173 
" style="fill: none; stroke: #000000; stroke-width: 0.8; stroke-linejoin: miter; stroke-linecap: square"/>
   </g>
   <g id="patch_32">
    <path d="M 25.7 7.2 
L 245.385039 7.2 
" style="fill: none; stroke: #000000; stroke-width: 0.8; stroke-linejoin: miter; stroke-linecap: square"/>
   </g>
   <g id="legend_1">
    <g id="patch_33">
     <path d="M 115.230352 43.490625 
L 238.385039 43.490625 
Q 240.385039 43.490625 240.385039 41.490625 
L 240.385039 14.2 
Q 240.385039 12.2 238.385039 12.2 
L 115.230352 12.2 
Q 113.230352 12.2 113.230352 14.2 
L 113.230352 41.490625 
Q 113.230352 43.490625 115.230352 43.490625 
z
" style="fill: #ffffff; opacity: 0.8; stroke: #000000; stroke-linejoin: miter"/>
    </g>
    <g id="patch_34">
     <path d="M 117.230352 23.357812 
L 137.230352 23.357812 
L 137.230352 16.357812 
L 117.230352 16.357812 
z
" style="fill: #0000ff"/>
    </g>
    <g id="text_20">
     <!-- Updated parameters -->
     <g transform="translate(145.230352 23.357812) scale(0.1 -0.1)">
      <defs>
       <path id="ArialMT-55" d="M 3500 4581 
L 4106 4581 
L 4106 1934 
Q 4106 1244 3950 837 
Q 3794 431 3386 176 
Q 2978 -78 2316 -78 
Q 1672 -78 1262 144 
Q 853 366 678 786 
Q 503 1206 503 1934 
L 503 4581 
L 1109 4581 
L 1109 1938 
Q 1109 1341 1220 1058 
Q 1331 775 1601 622 
Q 1872 469 2263 469 
Q 2931 469 3215 772 
Q 3500 1075 3500 1938 
L 3500 4581 
z
" transform="scale(0.015625)"/>
       <path id="ArialMT-64" d="M 2575 0 
L 2575 419 
Q 2259 -75 1647 -75 
Q 1250 -75 917 144 
Q 584 363 401 755 
Q 219 1147 219 1656 
Q 219 2153 384 2558 
Q 550 2963 881 3178 
Q 1213 3394 1622 3394 
Q 1922 3394 2156 3267 
Q 2391 3141 2538 2938 
L 2538 4581 
L 3097 4581 
L 3097 0 
L 2575 0 
z
M 797 1656 
Q 797 1019 1065 703 
Q 1334 388 1700 388 
Q 2069 388 2326 689 
Q 2584 991 2584 1609 
Q 2584 2291 2321 2609 
Q 2059 2928 1675 2928 
Q 1300 2928 1048 2622 
Q 797 2316 797 1656 
z
" transform="scale(0.015625)"/>
      </defs>
      <use xlink:href="#ArialMT-55"/>
      <use xlink:href="#ArialMT-70" x="72.216797"/>
      <use xlink:href="#ArialMT-64" x="127.832031"/>
      <use xlink:href="#ArialMT-61" x="183.447266"/>
      <use xlink:href="#ArialMT-74" x="239.0625"/>
      <use xlink:href="#ArialMT-65" x="266.845703"/>
      <use xlink:href="#ArialMT-64" x="322.460938"/>
      <use xlink:href="#ArialMT-20" x="378.076172"/>
      <use xlink:href="#ArialMT-70" x="405.859375"/>
      <use xlink:href="#ArialMT-61" x="461.474609"/>
      <use xlink:href="#ArialMT-72" x="517.089844"/>
      <use xlink:href="#ArialMT-61" x="550.390625"/>
      <use xlink:href="#ArialMT-6d" x="606.005859"/>
      <use xlink:href="#ArialMT-65" x="689.306641"/>
      <use xlink:href="#ArialMT-74" x="744.921875"/>
      <use xlink:href="#ArialMT-65" x="772.705078"/>
      <use xlink:href="#ArialMT-72" x="828.320312"/>
      <use xlink:href="#ArialMT-73" x="861.621094"/>
     </g>
    </g>
    <g id="patch_35">
     <path d="M 117.230352 37.503125 
L 137.230352 37.503125 
L 137.230352 30.503125 
L 117.230352 30.503125 
z
" style="fill: #ff0000"/>
    </g>
    <g id="text_21">
     <!-- True parameters -->
     <g transform="translate(145.230352 37.503125) scale(0.1 -0.1)">
      <defs>
       <path id="ArialMT-54" d="M 1659 0 
L 1659 4041 
L 150 4041 
L 150 4581 
L 3781 4581 
L 3781 4041 
L 2266 4041 
L 2266 0 
L 1659 0 
z
" transform="scale(0.015625)"/>
      </defs>
      <use xlink:href="#ArialMT-54"/>
      <use xlink:href="#ArialMT-72" x="57.333984"/>
      <use xlink:href="#ArialMT-75" x="90.634766"/>
      <use xlink:href="#ArialMT-65" x="146.25"/>
      <use xlink:href="#ArialMT-20" x="201.865234"/>
      <use xlink:href="#ArialMT-70" x="229.648438"/>
      <use xlink:href="#ArialMT-61" x="285.263672"/>
      <use xlink:href="#ArialMT-72" x="340.878906"/>
      <use xlink:href="#ArialMT-61" x="374.179688"/>
      <use xlink:href="#ArialMT-6d" x="429.794922"/>
      <use xlink:href="#ArialMT-65" x="513.095703"/>
      <use xlink:href="#ArialMT-74" x="568.710938"/>
      <use xlink:href="#ArialMT-65" x="596.494141"/>
      <use xlink:href="#ArialMT-72" x="652.109375"/>
      <use xlink:href="#ArialMT-73" x="685.410156"/>
     </g>
    </g>
   </g>
  </g>
 </g>
 <defs>
  <clipPath id="pef495deb0b">
   <rect x="25.7" y="7.2" width="219.685039" height="174.614173"/>
  </clipPath>
 </defs>
</svg>
