<?xml version="1.0" encoding="utf-8" standalone="no"?>
<!DOCTYPE svg PUBLIC "-//W3C//DTD SVG 1.1//EN"
  "http://www.w3.org/Graphics/SVG/1.1/DTD/svg11.dtd">
<svg xmlns:xlink="http://www.w3.org/1999/xlink" width="274.466985pt" height="214.804798pt" viewBox="0 0 274.466985 214.804798" xmlns="http://www.w3.org/2000/svg" version="1.1">
 <metadata>
  <rdf:RDF xmlns:dc="http://purl.org/dc/elements/1.1/" xmlns:cc="http://creativecommons.org/ns#" xmlns:rdf="http://www.w3.org/1999/02/22-rdf-syntax-ns#">
   <cc:Work>
    <dc:type rdf:resource="http://purl.org/dc/dcmitype/StillImage"/>
    <dc:date>2024-03-17T22:20:37.588408</dc:date>
    <dc:format>image/svg+xml</dc:format>
    <dc:creator>
     <cc:Agent>
      <dc:title>Matplotlib v3.8.2, https://matplotlib.org/</dc:title>
     </cc:Agent>
    </dc:creator>
   </cc:Work>
  </rdf:RDF>
 </metadata>
 <defs>
  <style type="text/css">*{stroke-linejoin: round; stroke-linecap: butt}</style>
 </defs>
 <g id="figure_1">
  <g id="patch_1">
   <path d="M 0 214.804798 
L 274.466985 214.804798 
L 274.466985 0 
L 0 0 
z
" style="fill: #ffffff"/>
  </g>
  <g id="axes_1">
   <g id="patch_2">
    <path d="M 43.645313 181.814173 
L 263.330352 181.814173 
L 263.330352 7.2 
L 43.645313 7.2 
z
" style="fill: #ffffff"/>
   </g>
   <g id="matplotlib.axis_1">
    <g id="xtick_1">
     <g id="line2d_1">
      <path d="M 53.630996 181.814173 
L 53.630996 7.2 
" clip-path="url(#p5f31e0d766)" style="fill: none; stroke: #b0b0b0; stroke-width: 0.8; stroke-linecap: square"/>
     </g>
     <g id="line2d_2">
      <defs>
       <path id="m0caba64fda" d="M 0 0 
L 0 -3.5 
" style="stroke: #000000; stroke-width: 0.8"/>
      </defs>
      <g>
       <use xlink:href="#m0caba64fda" x="53.630996" y="181.814173" style="stroke: #000000; stroke-width: 0.8"/>
      </g>
     </g>
     <g id="text_1">
      <!-- 0 -->
      <g transform="translate(50.850527 192.471986) scale(0.1 -0.1)">
       <defs>
        <path id="ArialMT-30" d="M 266 2259 
Q 266 3072 433 3567 
Q 600 4063 929 4331 
Q 1259 4600 1759 4600 
Q 2128 4600 2406 4451 
Q 2684 4303 2865 4023 
Q 3047 3744 3150 3342 
Q 3253 2941 3253 2259 
Q 3253 1453 3087 958 
Q 2922 463 2592 192 
Q 2263 -78 1759 -78 
Q 1097 -78 719 397 
Q 266 969 266 2259 
z
M 844 2259 
Q 844 1131 1108 757 
Q 1372 384 1759 384 
Q 2147 384 2411 759 
Q 2675 1134 2675 2259 
Q 2675 3391 2411 3762 
Q 2147 4134 1753 4134 
Q 1366 4134 1134 3806 
Q 844 3388 844 2259 
z
" transform="scale(0.015625)"/>
       </defs>
       <use xlink:href="#ArialMT-30"/>
      </g>
     </g>
    </g>
    <g id="xtick_2">
     <g id="line2d_3">
      <path d="M 93.577725 181.814173 
L 93.577725 7.2 
" clip-path="url(#p5f31e0d766)" style="fill: none; stroke: #b0b0b0; stroke-width: 0.8; stroke-linecap: square"/>
     </g>
     <g id="line2d_4">
      <g>
       <use xlink:href="#m0caba64fda" x="93.577725" y="181.814173" style="stroke: #000000; stroke-width: 0.8"/>
      </g>
     </g>
     <g id="text_2">
      <!-- 2000 -->
      <g transform="translate(82.45585 192.471986) scale(0.1 -0.1)">
       <defs>
        <path id="ArialMT-32" d="M 3222 541 
L 3222 0 
L 194 0 
Q 188 203 259 391 
Q 375 700 629 1000 
Q 884 1300 1366 1694 
Q 2113 2306 2375 2664 
Q 2638 3022 2638 3341 
Q 2638 3675 2398 3904 
Q 2159 4134 1775 4134 
Q 1369 4134 1125 3890 
Q 881 3647 878 3216 
L 300 3275 
Q 359 3922 746 4261 
Q 1134 4600 1788 4600 
Q 2447 4600 2831 4234 
Q 3216 3869 3216 3328 
Q 3216 3053 3103 2787 
Q 2991 2522 2730 2228 
Q 2469 1934 1863 1422 
Q 1356 997 1212 845 
Q 1069 694 975 541 
L 3222 541 
z
" transform="scale(0.015625)"/>
       </defs>
       <use xlink:href="#ArialMT-32"/>
       <use xlink:href="#ArialMT-30" x="55.615234"/>
       <use xlink:href="#ArialMT-30" x="111.230469"/>
       <use xlink:href="#ArialMT-30" x="166.845703"/>
      </g>
     </g>
    </g>
    <g id="xtick_3">
     <g id="line2d_5">
      <path d="M 133.524454 181.814173 
L 133.524454 7.2 
" clip-path="url(#p5f31e0d766)" style="fill: none; stroke: #b0b0b0; stroke-width: 0.8; stroke-linecap: square"/>
     </g>
     <g id="line2d_6">
      <g>
       <use xlink:href="#m0caba64fda" x="133.524454" y="181.814173" style="stroke: #000000; stroke-width: 0.8"/>
      </g>
     </g>
     <g id="text_3">
      <!-- 4000 -->
      <g transform="translate(122.402579 192.471986) scale(0.1 -0.1)">
       <defs>
        <path id="ArialMT-34" d="M 2069 0 
L 2069 1097 
L 81 1097 
L 81 1613 
L 2172 4581 
L 2631 4581 
L 2631 1613 
L 3250 1613 
L 3250 1097 
L 2631 1097 
L 2631 0 
L 2069 0 
z
M 2069 1613 
L 2069 3678 
L 634 1613 
L 2069 1613 
z
" transform="scale(0.015625)"/>
       </defs>
       <use xlink:href="#ArialMT-34"/>
       <use xlink:href="#ArialMT-30" x="55.615234"/>
       <use xlink:href="#ArialMT-30" x="111.230469"/>
       <use xlink:href="#ArialMT-30" x="166.845703"/>
      </g>
     </g>
    </g>
    <g id="xtick_4">
     <g id="line2d_7">
      <path d="M 173.471183 181.814173 
L 173.471183 7.2 
" clip-path="url(#p5f31e0d766)" style="fill: none; stroke: #b0b0b0; stroke-width: 0.8; stroke-linecap: square"/>
     </g>
     <g id="line2d_8">
      <g>
       <use xlink:href="#m0caba64fda" x="173.471183" y="181.814173" style="stroke: #000000; stroke-width: 0.8"/>
      </g>
     </g>
     <g id="text_4">
      <!-- 6000 -->
      <g transform="translate(162.349308 192.471986) scale(0.1 -0.1)">
       <defs>
        <path id="ArialMT-36" d="M 3184 3459 
L 2625 3416 
Q 2550 3747 2413 3897 
Q 2184 4138 1850 4138 
Q 1581 4138 1378 3988 
Q 1113 3794 959 3422 
Q 806 3050 800 2363 
Q 1003 2672 1297 2822 
Q 1591 2972 1913 2972 
Q 2475 2972 2870 2558 
Q 3266 2144 3266 1488 
Q 3266 1056 3080 686 
Q 2894 316 2569 119 
Q 2244 -78 1831 -78 
Q 1128 -78 684 439 
Q 241 956 241 2144 
Q 241 3472 731 4075 
Q 1159 4600 1884 4600 
Q 2425 4600 2770 4297 
Q 3116 3994 3184 3459 
z
M 888 1484 
Q 888 1194 1011 928 
Q 1134 663 1356 523 
Q 1578 384 1822 384 
Q 2178 384 2434 671 
Q 2691 959 2691 1453 
Q 2691 1928 2437 2201 
Q 2184 2475 1800 2475 
Q 1419 2475 1153 2201 
Q 888 1928 888 1484 
z
" transform="scale(0.015625)"/>
       </defs>
       <use xlink:href="#ArialMT-36"/>
       <use xlink:href="#ArialMT-30" x="55.615234"/>
       <use xlink:href="#ArialMT-30" x="111.230469"/>
       <use xlink:href="#ArialMT-30" x="166.845703"/>
      </g>
     </g>
    </g>
    <g id="xtick_5">
     <g id="line2d_9">
      <path d="M 213.417913 181.814173 
L 213.417913 7.2 
" clip-path="url(#p5f31e0d766)" style="fill: none; stroke: #b0b0b0; stroke-width: 0.8; stroke-linecap: square"/>
     </g>
     <g id="line2d_10">
      <g>
       <use xlink:href="#m0caba64fda" x="213.417913" y="181.814173" style="stroke: #000000; stroke-width: 0.8"/>
      </g>
     </g>
     <g id="text_5">
      <!-- 8000 -->
      <g transform="translate(202.296038 192.471986) scale(0.1 -0.1)">
       <defs>
        <path id="ArialMT-38" d="M 1131 2484 
Q 781 2613 612 2850 
Q 444 3088 444 3419 
Q 444 3919 803 4259 
Q 1163 4600 1759 4600 
Q 2359 4600 2725 4251 
Q 3091 3903 3091 3403 
Q 3091 3084 2923 2848 
Q 2756 2613 2416 2484 
Q 2838 2347 3058 2040 
Q 3278 1734 3278 1309 
Q 3278 722 2862 322 
Q 2447 -78 1769 -78 
Q 1091 -78 675 323 
Q 259 725 259 1325 
Q 259 1772 486 2073 
Q 713 2375 1131 2484 
z
M 1019 3438 
Q 1019 3113 1228 2906 
Q 1438 2700 1772 2700 
Q 2097 2700 2305 2904 
Q 2513 3109 2513 3406 
Q 2513 3716 2298 3927 
Q 2084 4138 1766 4138 
Q 1444 4138 1231 3931 
Q 1019 3725 1019 3438 
z
M 838 1322 
Q 838 1081 952 856 
Q 1066 631 1291 507 
Q 1516 384 1775 384 
Q 2178 384 2440 643 
Q 2703 903 2703 1303 
Q 2703 1709 2433 1975 
Q 2163 2241 1756 2241 
Q 1359 2241 1098 1978 
Q 838 1716 838 1322 
z
" transform="scale(0.015625)"/>
       </defs>
       <use xlink:href="#ArialMT-38"/>
       <use xlink:href="#ArialMT-30" x="55.615234"/>
       <use xlink:href="#ArialMT-30" x="111.230469"/>
       <use xlink:href="#ArialMT-30" x="166.845703"/>
      </g>
     </g>
    </g>
    <g id="xtick_6">
     <g id="line2d_11">
      <path d="M 253.364642 181.814173 
L 253.364642 7.2 
" clip-path="url(#p5f31e0d766)" style="fill: none; stroke: #b0b0b0; stroke-width: 0.8; stroke-linecap: square"/>
     </g>
     <g id="line2d_12">
      <g>
       <use xlink:href="#m0caba64fda" x="253.364642" y="181.814173" style="stroke: #000000; stroke-width: 0.8"/>
      </g>
     </g>
     <g id="text_6">
      <!-- 10000 -->
      <g transform="translate(239.462298 192.471986) scale(0.1 -0.1)">
       <defs>
        <path id="ArialMT-31" d="M 2384 0 
L 1822 0 
L 1822 3584 
Q 1619 3391 1289 3197 
Q 959 3003 697 2906 
L 697 3450 
Q 1169 3672 1522 3987 
Q 1875 4303 2022 4600 
L 2384 4600 
L 2384 0 
z
" transform="scale(0.015625)"/>
       </defs>
       <use xlink:href="#ArialMT-31"/>
       <use xlink:href="#ArialMT-30" x="55.615234"/>
       <use xlink:href="#ArialMT-30" x="111.230469"/>
       <use xlink:href="#ArialMT-30" x="166.845703"/>
       <use xlink:href="#ArialMT-30" x="222.460938"/>
      </g>
     </g>
    </g>
    <g id="text_7">
     <!-- Epoch -->
     <g transform="translate(139.31127 205.617298) scale(0.1 -0.1)">
      <defs>
       <path id="ArialMT-45" d="M 506 0 
L 506 4581 
L 3819 4581 
L 3819 4041 
L 1113 4041 
L 1113 2638 
L 3647 2638 
L 3647 2100 
L 1113 2100 
L 1113 541 
L 3925 541 
L 3925 0 
L 506 0 
z
" transform="scale(0.015625)"/>
       <path id="ArialMT-70" d="M 422 -1272 
L 422 3319 
L 934 3319 
L 934 2888 
Q 1116 3141 1344 3267 
Q 1572 3394 1897 3394 
Q 2322 3394 2647 3175 
Q 2972 2956 3137 2557 
Q 3303 2159 3303 1684 
Q 3303 1175 3120 767 
Q 2938 359 2589 142 
Q 2241 -75 1856 -75 
Q 1575 -75 1351 44 
Q 1128 163 984 344 
L 984 -1272 
L 422 -1272 
z
M 931 1641 
Q 931 1000 1190 694 
Q 1450 388 1819 388 
Q 2194 388 2461 705 
Q 2728 1022 2728 1688 
Q 2728 2322 2467 2637 
Q 2206 2953 1844 2953 
Q 1484 2953 1207 2617 
Q 931 2281 931 1641 
z
" transform="scale(0.015625)"/>
       <path id="ArialMT-6f" d="M 213 1659 
Q 213 2581 725 3025 
Q 1153 3394 1769 3394 
Q 2453 3394 2887 2945 
Q 3322 2497 3322 1706 
Q 3322 1066 3130 698 
Q 2938 331 2570 128 
Q 2203 -75 1769 -75 
Q 1072 -75 642 372 
Q 213 819 213 1659 
z
M 791 1659 
Q 791 1022 1069 705 
Q 1347 388 1769 388 
Q 2188 388 2466 706 
Q 2744 1025 2744 1678 
Q 2744 2294 2464 2611 
Q 2184 2928 1769 2928 
Q 1347 2928 1069 2612 
Q 791 2297 791 1659 
z
" transform="scale(0.015625)"/>
       <path id="ArialMT-63" d="M 2588 1216 
L 3141 1144 
Q 3050 572 2676 248 
Q 2303 -75 1759 -75 
Q 1078 -75 664 370 
Q 250 816 250 1647 
Q 250 2184 428 2587 
Q 606 2991 970 3192 
Q 1334 3394 1763 3394 
Q 2303 3394 2647 3120 
Q 2991 2847 3088 2344 
L 2541 2259 
Q 2463 2594 2264 2762 
Q 2066 2931 1784 2931 
Q 1359 2931 1093 2626 
Q 828 2322 828 1663 
Q 828 994 1084 691 
Q 1341 388 1753 388 
Q 2084 388 2306 591 
Q 2528 794 2588 1216 
z
" transform="scale(0.015625)"/>
       <path id="ArialMT-68" d="M 422 0 
L 422 4581 
L 984 4581 
L 984 2938 
Q 1378 3394 1978 3394 
Q 2347 3394 2619 3248 
Q 2891 3103 3008 2847 
Q 3125 2591 3125 2103 
L 3125 0 
L 2563 0 
L 2563 2103 
Q 2563 2525 2380 2717 
Q 2197 2909 1863 2909 
Q 1613 2909 1392 2779 
Q 1172 2650 1078 2428 
Q 984 2206 984 1816 
L 984 0 
L 422 0 
z
" transform="scale(0.015625)"/>
      </defs>
      <use xlink:href="#ArialMT-45"/>
      <use xlink:href="#ArialMT-70" x="66.699219"/>
      <use xlink:href="#ArialMT-6f" x="122.314453"/>
      <use xlink:href="#ArialMT-63" x="177.929688"/>
      <use xlink:href="#ArialMT-68" x="227.929688"/>
     </g>
    </g>
   </g>
   <g id="matplotlib.axis_2">
    <g id="ytick_1">
     <g id="line2d_13">
      <path d="M 43.645313 166.603848 
L 263.330352 166.603848 
" clip-path="url(#p5f31e0d766)" style="fill: none; stroke: #b0b0b0; stroke-width: 0.8; stroke-linecap: square"/>
     </g>
     <g id="line2d_14">
      <defs>
       <path id="m28d887e71d" d="M 0 0 
L 3.5 0 
" style="stroke: #000000; stroke-width: 0.8"/>
      </defs>
      <g>
       <use xlink:href="#m28d887e71d" x="43.645313" y="166.603848" style="stroke: #000000; stroke-width: 0.8"/>
      </g>
     </g>
     <g id="text_8">
      <!-- $\mathdefault{10^{-9}}$ -->
      <g transform="translate(20.345313 171.760098) scale(0.1 -0.1)">
       <defs>
        <path id="ArialMT-2212" d="M 3381 1997 
L 356 1997 
L 356 2522 
L 3381 2522 
L 3381 1997 
z
" transform="scale(0.015625)"/>
        <path id="ArialMT-39" d="M 350 1059 
L 891 1109 
Q 959 728 1153 556 
Q 1347 384 1650 384 
Q 1909 384 2104 503 
Q 2300 622 2425 820 
Q 2550 1019 2634 1356 
Q 2719 1694 2719 2044 
Q 2719 2081 2716 2156 
Q 2547 1888 2255 1720 
Q 1963 1553 1622 1553 
Q 1053 1553 659 1965 
Q 266 2378 266 3053 
Q 266 3750 677 4175 
Q 1088 4600 1706 4600 
Q 2153 4600 2523 4359 
Q 2894 4119 3086 3673 
Q 3278 3228 3278 2384 
Q 3278 1506 3087 986 
Q 2897 466 2520 194 
Q 2144 -78 1638 -78 
Q 1100 -78 759 220 
Q 419 519 350 1059 
z
M 2653 3081 
Q 2653 3566 2395 3850 
Q 2138 4134 1775 4134 
Q 1400 4134 1122 3828 
Q 844 3522 844 3034 
Q 844 2597 1108 2323 
Q 1372 2050 1759 2050 
Q 2150 2050 2401 2323 
Q 2653 2597 2653 3081 
z
" transform="scale(0.015625)"/>
       </defs>
       <use xlink:href="#ArialMT-31" transform="translate(0 0.99375)"/>
       <use xlink:href="#ArialMT-30" transform="translate(55.615234 0.99375)"/>
       <use xlink:href="#ArialMT-2212" transform="translate(112.972813 70.6875) scale(0.7)"/>
       <use xlink:href="#ArialMT-39" transform="translate(153.851719 70.6875) scale(0.7)"/>
      </g>
     </g>
    </g>
    <g id="ytick_2">
     <g id="line2d_15">
      <path d="M 43.645313 128.630047 
L 263.330352 128.630047 
" clip-path="url(#p5f31e0d766)" style="fill: none; stroke: #b0b0b0; stroke-width: 0.8; stroke-linecap: square"/>
     </g>
     <g id="line2d_16">
      <g>
       <use xlink:href="#m28d887e71d" x="43.645313" y="128.630047" style="stroke: #000000; stroke-width: 0.8"/>
      </g>
     </g>
     <g id="text_9">
      <!-- $\mathdefault{10^{-8}}$ -->
      <g transform="translate(20.345313 133.786297) scale(0.1 -0.1)">
       <use xlink:href="#ArialMT-31" transform="translate(0 0.99375)"/>
       <use xlink:href="#ArialMT-30" transform="translate(55.615234 0.99375)"/>
       <use xlink:href="#ArialMT-2212" transform="translate(112.972813 70.6875) scale(0.7)"/>
       <use xlink:href="#ArialMT-38" transform="translate(153.851719 70.6875) scale(0.7)"/>
      </g>
     </g>
    </g>
    <g id="ytick_3">
     <g id="line2d_17">
      <path d="M 43.645313 90.656247 
L 263.330352 90.656247 
" clip-path="url(#p5f31e0d766)" style="fill: none; stroke: #b0b0b0; stroke-width: 0.8; stroke-linecap: square"/>
     </g>
     <g id="line2d_18">
      <g>
       <use xlink:href="#m28d887e71d" x="43.645313" y="90.656247" style="stroke: #000000; stroke-width: 0.8"/>
      </g>
     </g>
     <g id="text_10">
      <!-- $\mathdefault{10^{-7}}$ -->
      <g transform="translate(20.345313 95.762497) scale(0.1 -0.1)">
       <defs>
        <path id="ArialMT-37" d="M 303 3981 
L 303 4522 
L 3269 4522 
L 3269 4084 
Q 2831 3619 2401 2847 
Q 1972 2075 1738 1259 
Q 1569 684 1522 0 
L 944 0 
Q 953 541 1156 1306 
Q 1359 2072 1739 2783 
Q 2119 3494 2547 3981 
L 303 3981 
z
" transform="scale(0.015625)"/>
       </defs>
       <use xlink:href="#ArialMT-31" transform="translate(0 0.846875)"/>
       <use xlink:href="#ArialMT-30" transform="translate(55.615234 0.846875)"/>
       <use xlink:href="#ArialMT-2212" transform="translate(112.972813 70.540625) scale(0.7)"/>
       <use xlink:href="#ArialMT-37" transform="translate(153.851719 70.540625) scale(0.7)"/>
      </g>
     </g>
    </g>
    <g id="ytick_4">
     <g id="line2d_19">
      <path d="M 43.645313 52.682446 
L 263.330352 52.682446 
" clip-path="url(#p5f31e0d766)" style="fill: none; stroke: #b0b0b0; stroke-width: 0.8; stroke-linecap: square"/>
     </g>
     <g id="line2d_20">
      <g>
       <use xlink:href="#m28d887e71d" x="43.645313" y="52.682446" style="stroke: #000000; stroke-width: 0.8"/>
      </g>
     </g>
     <g id="text_11">
      <!-- $\mathdefault{10^{-6}}$ -->
      <g transform="translate(20.345313 57.838696) scale(0.1 -0.1)">
       <use xlink:href="#ArialMT-31" transform="translate(0 0.99375)"/>
       <use xlink:href="#ArialMT-30" transform="translate(55.615234 0.99375)"/>
       <use xlink:href="#ArialMT-2212" transform="translate(112.972813 70.6875) scale(0.7)"/>
       <use xlink:href="#ArialMT-36" transform="translate(153.851719 70.6875) scale(0.7)"/>
      </g>
     </g>
    </g>
    <g id="ytick_5">
     <g id="line2d_21">
      <path d="M 43.645313 14.708645 
L 263.330352 14.708645 
" clip-path="url(#p5f31e0d766)" style="fill: none; stroke: #b0b0b0; stroke-width: 0.8; stroke-linecap: square"/>
     </g>
     <g id="line2d_22">
      <g>
       <use xlink:href="#m28d887e71d" x="43.645313" y="14.708645" style="stroke: #000000; stroke-width: 0.8"/>
      </g>
     </g>
     <g id="text_12">
      <!-- $\mathdefault{10^{-5}}$ -->
      <g transform="translate(20.345313 19.814895) scale(0.1 -0.1)">
       <defs>
        <path id="ArialMT-35" d="M 266 1200 
L 856 1250 
Q 922 819 1161 601 
Q 1400 384 1738 384 
Q 2144 384 2425 690 
Q 2706 997 2706 1503 
Q 2706 1984 2436 2262 
Q 2166 2541 1728 2541 
Q 1456 2541 1237 2417 
Q 1019 2294 894 2097 
L 366 2166 
L 809 4519 
L 3088 4519 
L 3088 3981 
L 1259 3981 
L 1013 2750 
Q 1425 3038 1878 3038 
Q 2478 3038 2890 2622 
Q 3303 2206 3303 1553 
Q 3303 931 2941 478 
Q 2500 -78 1738 -78 
Q 1113 -78 717 272 
Q 322 622 266 1200 
z
" transform="scale(0.015625)"/>
       </defs>
       <use xlink:href="#ArialMT-31" transform="translate(0 0.879688)"/>
       <use xlink:href="#ArialMT-30" transform="translate(55.615234 0.879688)"/>
       <use xlink:href="#ArialMT-2212" transform="translate(112.972813 70.573438) scale(0.7)"/>
       <use xlink:href="#ArialMT-35" transform="translate(153.851719 70.573438) scale(0.7)"/>
      </g>
     </g>
    </g>
    <g id="ytick_6">
     <g id="line2d_23">
      <defs>
       <path id="m50af96fb0a" d="M 0 0 
L 2 0 
" style="stroke: #000000; stroke-width: 0.6"/>
      </defs>
      <g>
       <use xlink:href="#m50af96fb0a" x="43.645313" y="181.715143" style="stroke: #000000; stroke-width: 0.6"/>
      </g>
     </g>
    </g>
    <g id="ytick_7">
     <g id="line2d_24">
      <g>
       <use xlink:href="#m50af96fb0a" x="43.645313" y="178.035102" style="stroke: #000000; stroke-width: 0.6"/>
      </g>
     </g>
    </g>
    <g id="ytick_8">
     <g id="line2d_25">
      <g>
       <use xlink:href="#m50af96fb0a" x="43.645313" y="175.028289" style="stroke: #000000; stroke-width: 0.6"/>
      </g>
     </g>
    </g>
    <g id="ytick_9">
     <g id="line2d_26">
      <g>
       <use xlink:href="#m50af96fb0a" x="43.645313" y="172.486065" style="stroke: #000000; stroke-width: 0.6"/>
      </g>
     </g>
    </g>
    <g id="ytick_10">
     <g id="line2d_27">
      <g>
       <use xlink:href="#m50af96fb0a" x="43.645313" y="170.28389" style="stroke: #000000; stroke-width: 0.6"/>
      </g>
     </g>
    </g>
    <g id="ytick_11">
     <g id="line2d_28">
      <g>
       <use xlink:href="#m50af96fb0a" x="43.645313" y="168.341434" style="stroke: #000000; stroke-width: 0.6"/>
      </g>
     </g>
    </g>
    <g id="ytick_12">
     <g id="line2d_29">
      <g>
       <use xlink:href="#m50af96fb0a" x="43.645313" y="155.172595" style="stroke: #000000; stroke-width: 0.6"/>
      </g>
     </g>
    </g>
    <g id="ytick_13">
     <g id="line2d_30">
      <g>
       <use xlink:href="#m50af96fb0a" x="43.645313" y="148.485741" style="stroke: #000000; stroke-width: 0.6"/>
      </g>
     </g>
    </g>
    <g id="ytick_14">
     <g id="line2d_31">
      <g>
       <use xlink:href="#m50af96fb0a" x="43.645313" y="143.741342" style="stroke: #000000; stroke-width: 0.6"/>
      </g>
     </g>
    </g>
    <g id="ytick_15">
     <g id="line2d_32">
      <g>
       <use xlink:href="#m50af96fb0a" x="43.645313" y="140.061301" style="stroke: #000000; stroke-width: 0.6"/>
      </g>
     </g>
    </g>
    <g id="ytick_16">
     <g id="line2d_33">
      <g>
       <use xlink:href="#m50af96fb0a" x="43.645313" y="137.054488" style="stroke: #000000; stroke-width: 0.6"/>
      </g>
     </g>
    </g>
    <g id="ytick_17">
     <g id="line2d_34">
      <g>
       <use xlink:href="#m50af96fb0a" x="43.645313" y="134.512264" style="stroke: #000000; stroke-width: 0.6"/>
      </g>
     </g>
    </g>
    <g id="ytick_18">
     <g id="line2d_35">
      <g>
       <use xlink:href="#m50af96fb0a" x="43.645313" y="132.310089" style="stroke: #000000; stroke-width: 0.6"/>
      </g>
     </g>
    </g>
    <g id="ytick_19">
     <g id="line2d_36">
      <g>
       <use xlink:href="#m50af96fb0a" x="43.645313" y="130.367633" style="stroke: #000000; stroke-width: 0.6"/>
      </g>
     </g>
    </g>
    <g id="ytick_20">
     <g id="line2d_37">
      <g>
       <use xlink:href="#m50af96fb0a" x="43.645313" y="117.198794" style="stroke: #000000; stroke-width: 0.6"/>
      </g>
     </g>
    </g>
    <g id="ytick_21">
     <g id="line2d_38">
      <g>
       <use xlink:href="#m50af96fb0a" x="43.645313" y="110.51194" style="stroke: #000000; stroke-width: 0.6"/>
      </g>
     </g>
    </g>
    <g id="ytick_22">
     <g id="line2d_39">
      <g>
       <use xlink:href="#m50af96fb0a" x="43.645313" y="105.767541" style="stroke: #000000; stroke-width: 0.6"/>
      </g>
     </g>
    </g>
    <g id="ytick_23">
     <g id="line2d_40">
      <g>
       <use xlink:href="#m50af96fb0a" x="43.645313" y="102.0875" style="stroke: #000000; stroke-width: 0.6"/>
      </g>
     </g>
    </g>
    <g id="ytick_24">
     <g id="line2d_41">
      <g>
       <use xlink:href="#m50af96fb0a" x="43.645313" y="99.080687" style="stroke: #000000; stroke-width: 0.6"/>
      </g>
     </g>
    </g>
    <g id="ytick_25">
     <g id="line2d_42">
      <g>
       <use xlink:href="#m50af96fb0a" x="43.645313" y="96.538463" style="stroke: #000000; stroke-width: 0.6"/>
      </g>
     </g>
    </g>
    <g id="ytick_26">
     <g id="line2d_43">
      <g>
       <use xlink:href="#m50af96fb0a" x="43.645313" y="94.336288" style="stroke: #000000; stroke-width: 0.6"/>
      </g>
     </g>
    </g>
    <g id="ytick_27">
     <g id="line2d_44">
      <g>
       <use xlink:href="#m50af96fb0a" x="43.645313" y="92.393832" style="stroke: #000000; stroke-width: 0.6"/>
      </g>
     </g>
    </g>
    <g id="ytick_28">
     <g id="line2d_45">
      <g>
       <use xlink:href="#m50af96fb0a" x="43.645313" y="79.224993" style="stroke: #000000; stroke-width: 0.6"/>
      </g>
     </g>
    </g>
    <g id="ytick_29">
     <g id="line2d_46">
      <g>
       <use xlink:href="#m50af96fb0a" x="43.645313" y="72.538139" style="stroke: #000000; stroke-width: 0.6"/>
      </g>
     </g>
    </g>
    <g id="ytick_30">
     <g id="line2d_47">
      <g>
       <use xlink:href="#m50af96fb0a" x="43.645313" y="67.79374" style="stroke: #000000; stroke-width: 0.6"/>
      </g>
     </g>
    </g>
    <g id="ytick_31">
     <g id="line2d_48">
      <g>
       <use xlink:href="#m50af96fb0a" x="43.645313" y="64.113699" style="stroke: #000000; stroke-width: 0.6"/>
      </g>
     </g>
    </g>
    <g id="ytick_32">
     <g id="line2d_49">
      <g>
       <use xlink:href="#m50af96fb0a" x="43.645313" y="61.106886" style="stroke: #000000; stroke-width: 0.6"/>
      </g>
     </g>
    </g>
    <g id="ytick_33">
     <g id="line2d_50">
      <g>
       <use xlink:href="#m50af96fb0a" x="43.645313" y="58.564662" style="stroke: #000000; stroke-width: 0.6"/>
      </g>
     </g>
    </g>
    <g id="ytick_34">
     <g id="line2d_51">
      <g>
       <use xlink:href="#m50af96fb0a" x="43.645313" y="56.362487" style="stroke: #000000; stroke-width: 0.6"/>
      </g>
     </g>
    </g>
    <g id="ytick_35">
     <g id="line2d_52">
      <g>
       <use xlink:href="#m50af96fb0a" x="43.645313" y="54.420031" style="stroke: #000000; stroke-width: 0.6"/>
      </g>
     </g>
    </g>
    <g id="ytick_36">
     <g id="line2d_53">
      <g>
       <use xlink:href="#m50af96fb0a" x="43.645313" y="41.251193" style="stroke: #000000; stroke-width: 0.6"/>
      </g>
     </g>
    </g>
    <g id="ytick_37">
     <g id="line2d_54">
      <g>
       <use xlink:href="#m50af96fb0a" x="43.645313" y="34.564338" style="stroke: #000000; stroke-width: 0.6"/>
      </g>
     </g>
    </g>
    <g id="ytick_38">
     <g id="line2d_55">
      <g>
       <use xlink:href="#m50af96fb0a" x="43.645313" y="29.819939" style="stroke: #000000; stroke-width: 0.6"/>
      </g>
     </g>
    </g>
    <g id="ytick_39">
     <g id="line2d_56">
      <g>
       <use xlink:href="#m50af96fb0a" x="43.645313" y="26.139898" style="stroke: #000000; stroke-width: 0.6"/>
      </g>
     </g>
    </g>
    <g id="ytick_40">
     <g id="line2d_57">
      <g>
       <use xlink:href="#m50af96fb0a" x="43.645313" y="23.133085" style="stroke: #000000; stroke-width: 0.6"/>
      </g>
     </g>
    </g>
    <g id="ytick_41">
     <g id="line2d_58">
      <g>
       <use xlink:href="#m50af96fb0a" x="43.645313" y="20.590861" style="stroke: #000000; stroke-width: 0.6"/>
      </g>
     </g>
    </g>
    <g id="ytick_42">
     <g id="line2d_59">
      <g>
       <use xlink:href="#m50af96fb0a" x="43.645313" y="18.388686" style="stroke: #000000; stroke-width: 0.6"/>
      </g>
     </g>
    </g>
    <g id="ytick_43">
     <g id="line2d_60">
      <g>
       <use xlink:href="#m50af96fb0a" x="43.645313" y="16.446231" style="stroke: #000000; stroke-width: 0.6"/>
      </g>
     </g>
    </g>
    <g id="text_13">
     <!-- Loss -->
     <g transform="translate(14.357813 105.068024) rotate(-90) scale(0.1 -0.1)">
      <defs>
       <path id="ArialMT-4c" d="M 469 0 
L 469 4581 
L 1075 4581 
L 1075 541 
L 3331 541 
L 3331 0 
L 469 0 
z
" transform="scale(0.015625)"/>
       <path id="ArialMT-73" d="M 197 991 
L 753 1078 
Q 800 744 1014 566 
Q 1228 388 1613 388 
Q 2000 388 2187 545 
Q 2375 703 2375 916 
Q 2375 1106 2209 1216 
Q 2094 1291 1634 1406 
Q 1016 1563 777 1677 
Q 538 1791 414 1992 
Q 291 2194 291 2438 
Q 291 2659 392 2848 
Q 494 3038 669 3163 
Q 800 3259 1026 3326 
Q 1253 3394 1513 3394 
Q 1903 3394 2198 3281 
Q 2494 3169 2634 2976 
Q 2775 2784 2828 2463 
L 2278 2388 
Q 2241 2644 2061 2787 
Q 1881 2931 1553 2931 
Q 1166 2931 1000 2803 
Q 834 2675 834 2503 
Q 834 2394 903 2306 
Q 972 2216 1119 2156 
Q 1203 2125 1616 2013 
Q 2213 1853 2448 1751 
Q 2684 1650 2818 1456 
Q 2953 1263 2953 975 
Q 2953 694 2789 445 
Q 2625 197 2315 61 
Q 2006 -75 1616 -75 
Q 969 -75 630 194 
Q 291 463 197 991 
z
" transform="scale(0.015625)"/>
      </defs>
      <use xlink:href="#ArialMT-4c"/>
      <use xlink:href="#ArialMT-6f" x="55.615234"/>
      <use xlink:href="#ArialMT-73" x="111.230469"/>
      <use xlink:href="#ArialMT-73" x="161.230469"/>
     </g>
    </g>
   </g>
   <g id="line2d_61">
    <path d="M 53.630996 80.597934 
L 53.650969 73.727638 
L 53.670943 86.672108 
L 53.71089 85.610499 
L 53.730863 85.457534 
L 53.750836 85.700565 
L 54.01049 93.171251 
L 54.409957 103.491089 
L 54.829398 108.57239 
L 55.348705 112.424323 
L 56.007826 115.635472 
L 56.906628 118.812267 
L 58.46455 123.506855 
L 60.54178 129.329882 
L 61.540448 131.566269 
L 62.638984 133.478484 
L 63.557758 134.691394 
L 64.69624 135.820691 
L 66.014482 136.770889 
L 67.572405 137.598932 
L 70.089048 138.609013 
L 73.30476 139.687507 
L 77.958554 141.162009 
L 87.445902 144.267811 
L 88.444571 144.609401 
L 92.259483 145.922664 
L 93.717539 146.430306 
L 98.491173 148.069181 
L 99.709548 148.470407 
L 101.846698 149.15368 
L 126.114336 155.855474 
L 127.172924 156.171576 
L 128.051752 156.433442 
L 129.669595 156.925233 
L 135.961205 158.889777 
L 137.159607 159.270327 
L 139.356677 159.965285 
L 141.134306 160.525152 
L 145.009139 161.726769 
L 154.356674 164.395822 
L 162.346019 166.10236 
L 162.745487 166.185775 
L 163.364661 166.290409 
L 175.049079 167.733867 
L 175.128973 167.697258 
L 175.168919 167.768228 
L 175.308733 167.79733 
L 175.52844 167.857045 
L 176.227508 167.933072 
L 176.846682 167.998499 
L 182.858665 168.56126 
L 183.038425 168.597182 
L 183.218185 168.626879 
L 183.677573 168.68623 
L 184.796081 168.79583 
L 185.774776 168.7075 
L 185.814723 168.671626 
L 185.854669 168.765768 
L 185.91459 168.900122 
L 185.97451 168.827923 
L 187.013125 169.002496 
L 187.572379 169.051623 
L 194.842683 169.622685 
L 194.962524 169.557885 
L 194.982497 169.588359 
L 195.082364 169.712541 
L 195.142284 169.67244 
L 197.13962 169.863602 
L 197.579034 169.91464 
L 198.138289 169.969549 
L 198.957197 169.978016 
L 199.116984 169.949878 
L 199.136957 169.978727 
L 199.296744 170.032498 
L 199.576371 170.077266 
L 199.855998 170.111777 
L 204.889286 170.397627 
L 204.969179 170.30796 
L 205.009126 170.365332 
L 205.08902 170.533319 
L 205.14894 170.477952 
L 205.3287 170.529555 
L 206.467182 170.638778 
L 208.923905 170.770104 
L 209.063719 170.648521 
L 209.103666 170.722853 
L 209.183559 170.851577 
L 209.243479 170.809501 
L 209.36332 170.859868 
L 210.162254 170.926263 
L 211.74015 171.020428 
L 211.939884 171.049036 
L 213.477833 171.144703 
L 213.75746 171.141597 
L 213.917247 171.178515 
L 214.436554 171.240088 
L 215.555063 171.285121 
L 215.754796 171.183442 
L 215.77477 171.232253 
L 215.854663 171.349387 
L 215.914583 171.294526 
L 218.231493 171.341742 
L 218.311387 171.196591 
L 218.33136 171.24872 
L 218.411254 171.535522 
L 218.471174 171.429045 
L 218.531094 171.500949 
L 218.571041 171.548973 
L 218.650934 171.500654 
L 218.850668 171.569934 
L 222.705527 171.846407 
L 223.404595 171.809336 
L 223.524435 171.620353 
L 223.564382 171.722839 
L 223.624302 171.909275 
L 223.684222 171.839447 
L 223.724169 171.826993 
L 223.764115 171.887325 
L 223.903929 171.895876 
L 224.163583 171.949272 
L 224.882624 171.993566 
L 225.441878 172.038613 
L 226.380626 172.019455 
L 226.500466 171.822744 
L 226.540413 171.911513 
L 226.620306 172.115172 
L 226.680227 172.032408 
L 227.199534 172.15309 
L 227.638948 172.19558 
L 229.196871 172.183276 
L 229.276764 172.122398 
L 229.316711 172.165967 
L 229.416578 172.316305 
L 229.476498 172.27364 
L 229.716178 172.307527 
L 230.495139 172.387251 
L 232.093008 172.441276 
L 232.272769 172.39748 
L 232.292742 172.430279 
L 232.452529 172.496898 
L 233.011783 172.561991 
L 233.690878 172.600584 
L 234.170238 172.637663 
L 235.228827 172.714799 
L 235.5484 172.616474 
L 235.648267 172.345807 
L 235.688214 172.446962 
L 235.748134 172.681336 
L 235.828028 172.653597 
L 236.007788 172.749764 
L 236.367308 172.786464 
L 238.364645 172.88663 
L 238.584352 172.782245 
L 238.604325 172.831349 
L 238.684219 172.937556 
L 238.744139 172.895548 
L 239.003793 172.948706 
L 239.64294 173.005413 
L 240.841342 172.894154 
L 240.901262 172.847851 
L 240.941209 172.937222 
L 241.021102 173.089278 
L 241.081022 173.038631 
L 241.36065 173.104614 
L 242.119637 173.167964 
L 243.098332 173.177415 
L 243.258119 173.21139 
L 244.576361 173.289934 
L 244.875962 173.278453 
L 245.035749 173.314588 
L 246.274097 173.394341 
L 246.453857 173.240745 
L 246.493804 173.324253 
L 246.573698 173.435598 
L 246.633618 173.40655 
L 248.31138 173.497982 
L 248.451194 173.278848 
L 248.491141 173.352315 
L 248.571034 173.561224 
L 248.650928 173.516906 
L 249.290075 173.627596 
L 249.869303 173.665911 
L 250.907918 173.531686 
L 250.987811 173.390433 
L 251.027758 173.517836 
L 251.087678 173.719244 
L 251.167572 173.63665 
L 251.467172 173.737812 
L 251.726826 173.769565 
L 252.206186 173.808868 
L 253.284748 173.877165 
L 253.344668 173.877144 
L 253.344668 173.877144 
" clip-path="url(#p5f31e0d766)" style="fill: none; stroke: #0000ff; stroke-width: 1.5; stroke-linecap: square"/>
   </g>
   <g id="line2d_62">
    <path d="M 53.630996 67.553277 
L 53.650969 80.655675 
L 53.750836 80.505675 
L 54.509824 96.334029 
L 55.708226 106.825815 
L 56.287454 109.054749 
L 57.046441 110.961251 
L 59.682926 116.483568 
L 60.681594 117.965637 
L 61.440582 118.690139 
L 62.079729 119.046438 
L 62.79877 119.221984 
L 63.817412 119.18559 
L 65.015814 118.918097 
L 69.409954 117.77675 
L 71.786784 117.451788 
L 74.563082 117.311774 
L 77.778794 117.362389 
L 83.511149 117.728728 
L 87.126328 118.028956 
L 100.648296 119.405883 
L 105.342037 120.268196 
L 120.521794 123.96845 
L 137.079713 127.387775 
L 140.015798 127.921736 
L 147.226182 129.155057 
L 149.203545 129.472091 
L 153.377979 130.129092 
L 153.517792 130.125059 
L 153.657606 130.204759 
L 153.737499 130.245635 
L 153.757473 130.096124 
L 153.837366 130.078195 
L 153.857339 130.301683 
L 153.877313 130.089344 
L 153.957206 130.169424 
L 154.077046 130.283904 
L 154.09702 130.172121 
L 154.176913 130.220155 
L 154.296753 130.294559 
L 154.316727 130.22992 
L 154.416594 130.279683 
L 155.175581 130.392056 
L 156.014463 130.50901 
L 156.23417 130.562135 
L 156.334037 130.533535 
L 156.433903 130.622977 
L 156.513797 130.66529 
L 156.53377 130.495667 
L 156.613664 130.47699 
L 156.633637 130.720454 
L 156.65361 130.488722 
L 156.733504 130.574028 
L 156.853344 130.694812 
L 156.873317 130.573598 
L 156.953211 130.621731 
L 157.073051 130.701034 
L 157.132971 130.643352 
L 157.172918 130.66217 
L 157.332705 130.72236 
L 157.452545 130.719748 
L 158.151613 130.820791 
L 158.49116 130.855942 
L 158.710867 130.89581 
L 158.930574 130.910228 
L 159.070388 130.967568 
L 159.150281 130.99885 
L 159.170254 130.893073 
L 159.250148 130.86059 
L 159.270121 131.077605 
L 159.330041 130.825138 
L 159.350015 131.120329 
L 159.369988 130.829328 
L 159.389961 131.111502 
L 159.489828 131.00618 
L 159.569722 131.085602 
L 159.589695 130.925947 
L 159.609668 131.079592 
L 159.709535 131.048022 
L 159.769455 130.980053 
L 159.749482 131.075055 
L 159.809402 130.993145 
L 159.929242 131.073973 
L 160.029109 131.042624 
L 160.148949 131.095653 
L 160.248816 131.079339 
L 160.268789 131.100823 
L 160.468523 131.112878 
L 160.74815 131.155486 
L 161.147617 131.196723 
L 162.226179 131.265132 
L 162.306073 131.2282 
L 162.326046 131.437389 
L 162.405939 131.50275 
L 162.425913 131.15156 
L 162.445886 131.510057 
L 162.545753 131.334145 
L 162.605673 131.270233 
L 162.665593 131.454843 
L 162.64562 131.257323 
L 162.725513 131.350327 
L 162.94522 131.412826 
L 162.985167 131.436375 
L 163.045087 131.372584 
L 163.164927 131.43826 
L 163.224847 131.39817 
L 163.284767 131.428672 
L 164.123649 131.507682 
L 164.503143 131.535955 
L 165.601678 131.701511 
L 165.681571 131.766574 
L 165.701545 131.478863 
L 165.761465 131.826025 
L 165.781438 131.43946 
L 165.801411 131.820117 
L 165.821385 131.485234 
L 165.921252 131.594289 
L 165.981172 131.76481 
L 165.961198 131.547615 
L 166.021118 131.742286 
L 166.140959 131.604243 
L 166.160932 131.737788 
L 166.260799 131.681197 
L 166.360666 131.645594 
L 166.480506 131.711755 
L 166.580373 131.682412 
L 166.600346 131.715737 
L 166.760133 131.697086 
L 166.899946 131.716961 
L 167.079707 131.739615 
L 167.798748 131.778712 
L 168.158268 131.812697 
L 168.338029 131.798538 
L 168.477842 131.854597 
L 168.577709 131.782122 
L 168.657603 131.758105 
L 168.677576 131.916786 
L 168.757469 131.958699 
L 168.777443 131.709032 
L 168.837363 131.986501 
L 168.817389 131.696728 
L 168.87731 131.980019 
L 168.897283 131.723241 
L 168.99715 131.8634 
L 169.35667 131.910092 
L 169.456537 131.851432 
L 169.576377 131.890546 
L 169.836031 131.892533 
L 170.015791 131.914597 
L 170.295418 131.925982 
L 171.01446 132.06893 
L 171.094353 132.163791 
L 171.114326 131.729047 
L 171.174246 132.202162 
L 171.154273 131.70322 
L 171.214193 132.126849 
L 171.334033 131.822332 
L 171.354007 132.122073 
L 171.453874 132.0471 
L 171.513794 131.890491 
L 171.49382 132.086131 
L 171.55374 131.94051 
L 171.673581 132.059299 
L 171.793421 131.964854 
L 171.813394 132.046908 
L 171.913261 132.018018 
L 172.053075 132.01174 
L 172.891956 132.054656 
L 173.910597 132.104176 
L 174.809399 132.112972 
L 174.889292 132.08109 
L 174.909266 132.224276 
L 174.989159 132.309061 
L 175.009132 131.943604 
L 175.089026 131.831045 
L 175.108999 132.431101 
L 175.128973 131.885265 
L 175.228839 132.024776 
L 175.248813 132.330066 
L 175.268786 131.973332 
L 175.34868 132.172684 
L 175.4086 132.038858 
L 175.428573 132.291576 
L 175.448547 132.0704 
L 175.568387 132.261839 
L 175.58836 132.103854 
L 175.688227 132.126726 
L 175.7082 132.241879 
L 175.808067 132.207318 
L 175.867987 132.149713 
L 175.848014 132.232273 
L 175.927907 132.196648 
L 176.447215 132.219439 
L 176.726842 132.220741 
L 176.986496 132.239411 
L 178.224844 132.270972 
L 178.364658 132.328413 
L 178.464525 132.263526 
L 178.564391 132.359438 
L 178.644285 132.384398 
L 178.664258 132.225827 
L 178.744152 132.198379 
L 178.764125 132.430693 
L 178.844018 132.454241 
L 178.863992 132.17363 
L 178.883965 132.454295 
L 178.963859 132.41893 
L 178.983832 132.242105 
L 179.083699 132.318402 
L 179.123646 132.290347 
L 179.183566 132.392547 
L 179.243486 132.272877 
L 179.283433 132.281619 
L 179.303406 132.387133 
L 179.403273 132.3238 
L 179.523113 132.354864 
L 179.543086 132.33801 
L 179.6829 132.370648 
L 179.822713 132.346527 
L 179.962527 132.385873 
L 180.062394 132.344703 
L 180.162261 132.420151 
L 180.242154 132.446757 
L 180.262127 132.301885 
L 180.342021 132.256993 
L 180.361994 132.523506 
L 180.441888 132.582622 
L 180.461861 132.15807 
L 180.481834 132.598037 
L 180.561728 132.528342 
L 180.681568 132.295737 
L 180.741488 132.518595 
L 180.721515 132.271209 
L 180.781435 132.486322 
L 180.901275 132.351266 
L 180.961195 132.468941 
L 181.001142 132.453842 
L 181.120982 132.383094 
L 181.220849 132.449214 
L 181.240822 132.401036 
L 181.360662 132.448614 
L 181.460529 132.422309 
L 181.480503 132.438279 
L 181.840023 132.444137 
L 182.079704 132.466098 
L 182.259464 132.460615 
L 182.459197 132.484038 
L 182.599011 132.453044 
L 182.698878 132.548364 
L 182.778771 132.602642 
L 182.798745 132.34964 
L 182.878638 132.263325 
L 182.898611 132.721321 
L 182.918585 132.227102 
L 182.938558 132.737732 
L 182.998478 132.300297 
L 183.018452 132.63892 
L 183.118318 132.608066 
L 183.178239 132.369622 
L 183.158265 132.639787 
L 183.218185 132.418613 
L 183.338026 132.594687 
L 183.357999 132.428119 
L 183.437892 132.483827 
L 183.557733 132.574172 
L 183.577706 132.475453 
L 183.677573 132.538392 
L 183.977173 132.52254 
L 184.116987 132.56757 
L 184.236827 132.554681 
L 185.295415 132.609121 
L 185.435229 132.585912 
L 185.535096 132.649243 
L 185.614989 132.706948 
L 185.634962 132.492423 
L 185.714856 132.339418 
L 185.734829 132.897762 
L 185.794749 132.209247 
L 185.774776 132.95681 
L 185.834696 132.314944 
L 185.954536 132.83949 
L 185.97451 132.399243 
L 186.074376 132.523469 
L 186.09435 132.778666 
L 186.114323 132.477765 
L 186.194217 132.665382 
L 186.254137 132.528606 
L 186.234163 132.745354 
L 186.294083 132.573924 
L 186.413924 132.729613 
L 186.533764 132.597582 
L 186.553737 132.711694 
L 186.653604 132.68693 
L 186.713524 132.628049 
L 186.693551 132.702909 
L 186.773444 132.656773 
L 186.913258 132.684105 
L 187.132965 132.667558 
L 187.292752 132.695361 
L 187.452539 132.691754 
L 188.35134 132.737866 
L 188.610994 132.73855 
L 188.850674 132.762982 
L 189.030434 132.760682 
L 189.290088 132.69872 
L 189.369982 132.658093 
L 189.389955 132.902649 
L 189.469848 132.970564 
L 189.489822 132.548489 
L 189.549742 133.007317 
L 189.529769 132.526188 
L 189.589689 132.97636 
L 189.609662 132.612858 
L 189.709529 132.745132 
L 189.789422 132.667444 
L 189.809396 132.914857 
L 189.829369 132.676911 
L 189.929236 132.810311 
L 190.24881 132.856286 
L 190.30873 132.768465 
L 190.348676 132.778615 
L 190.408597 132.84638 
L 190.468517 132.830126 
L 190.60833 132.784695 
L 190.708197 132.867028 
L 190.828037 132.840137 
L 191.087691 132.89275 
L 191.187558 132.802131 
L 191.267451 132.783734 
L 191.287425 132.935044 
L 191.367318 132.971242 
L 191.387291 132.732994 
L 191.467185 132.696559 
L 191.487158 133.032945 
L 191.507132 132.681636 
L 191.527105 133.040957 
L 191.587025 132.714079 
L 191.606998 133.004984 
L 191.706865 132.853086 
L 191.826705 132.950815 
L 191.886626 132.80238 
L 191.866652 132.96336 
L 191.926572 132.817163 
L 191.946546 132.951614 
L 192.046412 132.868672 
L 192.166253 132.924252 
L 192.206199 132.938283 
L 192.266119 132.85781 
L 192.365986 132.957535 
L 192.465853 132.859667 
L 192.56572 132.968544 
L 192.665587 132.874786 
L 192.765454 132.98128 
L 192.845347 133.007115 
L 192.86532 132.835702 
L 192.945214 132.792783 
L 192.965187 133.078182 
L 193.045081 133.119311 
L 193.065054 132.724318 
L 193.085027 133.128775 
L 193.164921 133.071947 
L 193.184894 132.835076 
L 193.284761 132.883729 
L 193.364655 132.829853 
L 193.384628 133.063547 
L 193.404601 132.844195 
L 193.504468 132.970533 
L 193.624308 132.910274 
L 193.724175 133.000775 
L 193.744148 132.933192 
L 193.844015 132.977872 
L 194.183562 132.979258 
L 194.363323 132.993581 
L 194.58303 133.037851 
L 194.662923 133.070469 
L 194.682897 132.928452 
L 194.76279 132.87233 
L 194.782763 133.157007 
L 194.862657 133.243599 
L 194.88263 132.717642 
L 194.902604 133.278548 
L 194.922577 132.699774 
L 194.982497 133.20968 
L 195.102337 132.875913 
L 195.122311 133.175923 
L 195.142284 132.861664 
L 195.202204 133.109939 
L 195.322044 132.944483 
L 195.342018 133.120946 
L 195.441884 133.04701 
L 195.481831 133.086176 
L 195.541751 132.996602 
L 195.661591 133.067973 
L 195.761458 133.021739 
L 195.881298 133.058996 
L 196.200872 133.066779 
L 196.440553 133.085201 
L 196.72018 133.085452 
L 196.859993 133.13024 
L 196.89994 133.143469 
L 196.95986 133.045909 
L 197.039754 133.022358 
L 197.059727 133.197261 
L 197.13962 133.228866 
L 197.159594 132.971932 
L 197.239487 132.932019 
L 197.259461 133.287031 
L 197.319381 132.919201 
L 197.299407 133.297144 
L 197.359327 132.946346 
L 197.379301 133.25888 
L 197.479168 133.119544 
L 197.539088 133.065694 
L 197.618981 133.038653 
L 197.638955 133.219722 
L 197.658928 133.047387 
L 197.738821 133.094359 
L 197.858662 133.15876 
L 197.958528 133.110831 
L 198.058395 133.183153 
L 198.158262 133.133633 
L 198.178235 133.173055 
L 198.318049 133.142903 
L 198.457862 133.163333 
L 198.637623 133.204914 
L 198.73749 133.130944 
L 198.817383 133.103294 
L 198.837356 133.268912 
L 198.91725 133.33554 
L 198.937223 132.999757 
L 199.017117 132.922608 
L 199.03709 133.425345 
L 199.057063 132.915797 
L 199.136957 133.043979 
L 199.256797 133.309574 
L 199.316717 133.071213 
L 199.296744 133.334519 
L 199.356664 133.125102 
L 199.476504 133.279922 
L 199.496477 133.12962 
L 199.516451 133.295896 
L 199.576371 133.170698 
L 199.696211 133.265041 
L 199.756131 133.188683 
L 199.816051 133.235088 
L 200.93456 133.372924 
L 201.014453 133.41746 
L 201.034427 133.107623 
L 201.11432 133.059295 
L 201.134293 133.480532 
L 201.154267 133.058722 
L 201.23416 133.15784 
L 201.254134 133.37917 
L 201.354 133.355626 
L 201.41392 133.18734 
L 201.393947 133.389513 
L 201.453867 133.201019 
L 201.473841 133.377658 
L 201.573707 133.301174 
L 201.713521 133.266727 
L 201.813388 133.335512 
L 201.833361 133.296401 
L 201.973175 133.312018 
L 202.152935 133.333656 
L 202.352669 133.329094 
L 202.492482 133.373421 
L 202.532429 133.394094 
L 202.592349 133.285751 
L 202.672242 133.266944 
L 202.692216 133.432536 
L 202.772109 133.459217 
L 202.792083 133.21731 
L 202.871976 133.145387 
L 202.891949 133.551003 
L 202.951869 133.121819 
L 202.931896 133.562034 
L 202.991816 133.145982 
L 203.01179 133.527162 
L 203.111656 133.379117 
L 203.19155 133.47676 
L 203.211523 133.25248 
L 203.231497 133.477609 
L 203.31139 133.424963 
L 203.43123 133.344731 
L 203.49115 133.431027 
L 203.471177 133.333568 
L 203.531097 133.420671 
L 203.650937 133.377009 
L 203.790751 133.409594 
L 203.930564 133.397086 
L 204.150271 133.427761 
L 204.290085 133.401548 
L 204.429898 133.44177 
L 204.529765 133.401141 
L 204.629632 133.47186 
L 204.709526 133.502782 
L 204.729499 133.353539 
L 204.809392 133.273164 
L 204.829366 133.605074 
L 204.909259 133.691723 
L 204.929233 133.105429 
L 204.949206 133.716792 
L 205.049073 133.372824 
L 205.108993 133.314226 
L 205.128966 133.606593 
L 205.14894 133.266614 
L 205.248806 133.454376 
L 205.288753 133.376029 
L 205.308727 133.556221 
L 205.3287 133.34719 
L 205.348673 133.560492 
L 205.428567 133.456145 
L 205.468513 133.413444 
L 205.528434 133.526642 
L 205.548407 133.423451 
L 205.648274 133.444384 
L 205.748141 133.510986 
L 205.867981 133.463493 
L 205.987821 133.491659 
L 206.187555 133.47708 
L 206.287421 133.507271 
L 206.307395 133.496966 
L 206.567048 133.529297 
L 206.706862 133.48531 
L 206.806729 133.549076 
L 206.866649 133.480023 
L 206.846676 133.563606 
L 206.906596 133.496488 
L 207.046409 133.55391 
L 207.146276 133.49599 
L 207.246143 133.606111 
L 207.326036 133.653819 
L 207.34601 133.408028 
L 207.425903 133.359 
L 207.445877 133.719052 
L 207.46585 133.345858 
L 207.485823 133.727411 
L 207.545743 133.378441 
L 207.565717 133.688164 
L 207.665584 133.541114 
L 207.785424 133.636333 
L 207.805397 133.485996 
L 207.885291 133.520735 
L 208.005131 133.581079 
L 208.144944 133.553702 
L 208.264784 133.590801 
L 208.524438 133.585253 
L 208.664252 133.621692 
L 208.764119 133.545981 
L 208.844012 133.513118 
L 208.863985 133.71277 
L 208.943879 133.799958 
L 208.963852 133.364409 
L 209.023772 133.859674 
L 209.043746 133.302415 
L 209.063719 133.853204 
L 209.083692 133.364314 
L 209.183559 133.551958 
L 209.243479 133.760108 
L 209.263453 133.466961 
L 209.283426 133.754899 
L 209.303399 133.510826 
L 209.403266 133.55378 
L 209.463186 133.717426 
L 209.443213 133.537868 
L 209.503133 133.684088 
L 209.622973 133.573782 
L 209.642947 133.706403 
L 209.742813 133.629398 
L 209.862654 133.682702 
L 209.96252 133.624174 
L 210.082361 133.673818 
L 210.222174 133.667552 
L 211.200869 133.627527 
L 211.280763 133.572547 
L 211.300736 133.848797 
L 211.380629 133.923358 
L 211.400603 133.443413 
L 211.420576 133.939387 
L 211.50047 133.862925 
L 211.62031 133.594711 
L 211.68023 133.855066 
L 211.660256 133.573377 
L 211.720177 133.82066 
L 211.840017 133.650992 
L 211.85999 133.822239 
L 211.879963 133.642624 
L 211.939884 133.786592 
L 212.059724 133.696494 
L 212.119644 133.797515 
L 212.09967 133.685421 
L 212.159591 133.780109 
L 212.279431 133.736586 
L 212.419244 133.773981 
L 212.539084 133.740278 
L 212.638951 133.820293 
L 212.698871 133.715611 
L 212.738818 133.728306 
L 212.798738 133.798654 
L 212.858658 133.76981 
L 213.218179 133.817816 
L 213.318046 133.739694 
L 213.397939 133.704968 
L 213.417913 133.890142 
L 213.497806 133.923782 
L 213.517779 133.648979 
L 213.597673 133.571032 
L 213.617646 134.011191 
L 213.63762 133.553445 
L 213.657593 134.014218 
L 213.717513 133.628622 
L 213.737486 133.936274 
L 213.837353 133.859864 
L 213.917247 133.924763 
L 213.93722 133.706397 
L 213.957193 133.909912 
L 214.05706 133.829733 
L 214.097007 133.871895 
L 214.156927 133.750505 
L 214.1769 133.898622 
L 214.276767 133.81147 
L 214.396607 133.876768 
L 214.496474 133.798384 
L 214.556394 133.880261 
L 214.616314 133.832694 
L 214.776101 133.876143 
L 214.895941 133.839432 
L 215.035755 133.887755 
L 215.155595 133.848674 
L 215.295409 133.895424 
L 215.335356 133.912248 
L 215.395276 133.817687 
L 215.475169 133.794169 
L 215.495142 133.978863 
L 215.575036 134.044513 
L 215.595009 133.681456 
L 215.674903 133.595685 
L 215.694876 134.125618 
L 215.714849 133.590553 
L 215.794743 133.790124 
L 215.89461 133.732851 
L 215.914583 134.055873 
L 215.934556 133.745407 
L 216.034423 133.864573 
L 216.094343 133.993521 
L 216.07437 133.819083 
L 216.13429 133.984845 
L 216.154263 133.849102 
L 216.25413 133.874202 
L 216.31405 133.964281 
L 216.294077 133.86469 
L 216.353997 133.949552 
L 216.473837 133.888524 
L 216.533757 133.964306 
L 216.593677 133.921622 
L 217.272772 133.965823 
L 217.412585 133.938186 
L 217.552399 133.983748 
L 217.692213 133.954845 
L 217.832026 133.971848 
L 217.991813 134.006216 
L 218.071706 134.050936 
L 218.09168 133.901579 
L 218.171573 133.788196 
L 218.191547 134.192924 
L 218.27144 134.2836 
L 218.291413 133.587 
L 218.311387 134.283729 
L 218.411254 134.103706 
L 218.471174 133.761031 
L 218.4512 134.206373 
L 218.51112 133.87041 
L 218.610987 133.854363 
L 218.630961 134.145731 
L 218.650934 133.889007 
L 218.750801 133.909825 
L 218.770774 134.127045 
L 218.870641 134.080848 
L 218.930561 133.946698 
L 218.910588 134.108094 
L 218.990481 134.016771 
L 219.030428 133.984497 
L 219.090348 134.06425 
L 219.210188 134.004037 
L 219.330028 134.044918 
L 219.469842 134.040794 
L 220.548404 134.106787 
L 220.64827 134.061087 
L 220.748137 134.115242 
L 220.768111 134.078719 
L 220.887951 134.128696 
L 220.987818 134.053315 
L 221.067711 134.033607 
L 221.087685 134.181392 
L 221.127631 134.190849 
L 221.187551 134.028365 
L 221.287418 134.181966 
L 221.387285 134.043661 
L 221.487152 134.208032 
L 221.567045 134.224405 
L 221.587019 134.0163 
L 221.666912 133.973972 
L 221.686885 134.276308 
L 221.746806 133.959279 
L 221.726832 134.285361 
L 221.786752 133.976554 
L 221.806726 134.266278 
L 221.886619 134.207186 
L 222.006459 134.093032 
L 222.086353 134.039953 
L 222.106326 134.252791 
L 222.126299 134.038009 
L 222.206193 134.073833 
L 222.226166 134.211211 
L 222.326033 134.173657 
L 222.4259 134.133826 
L 222.525767 134.207703 
L 222.585687 134.125908 
L 222.625634 134.136982 
L 222.7255 134.189768 
L 222.745474 134.154717 
L 222.845341 134.216386 
L 222.905261 134.150855 
L 222.945207 134.161903 
L 223.085021 134.21438 
L 223.184888 134.165625 
L 223.264781 134.132396 
L 223.284755 134.266197 
L 223.364648 134.333136 
L 223.384621 134.018404 
L 223.464515 133.864477 
L 223.484488 134.47968 
L 223.504462 133.828322 
L 223.524435 134.482882 
L 223.584355 134.070359 
L 223.684222 133.99618 
L 223.704195 134.398063 
L 223.724169 134.036806 
L 223.824035 134.113109 
L 223.844009 134.333778 
L 223.863982 134.091157 
L 223.943876 134.209204 
L 224.62297 134.225392 
L 224.722837 134.261939 
L 224.74281 134.247374 
L 225.302064 134.281584 
L 225.441878 134.260624 
L 225.561718 134.29198 
L 225.581692 134.280048 
L 226.021106 134.344877 
L 226.041079 134.257085 
L 226.120972 134.275373 
L 226.220839 134.355371 
L 226.300733 134.40818 
L 226.320706 134.190975 
L 226.400599 134.075653 
L 226.420573 134.537316 
L 226.480493 133.958814 
L 226.500466 134.592847 
L 226.52044 134.011456 
L 226.540413 134.535999 
L 226.64028 134.48048 
L 226.660253 134.118874 
L 226.680227 134.526587 
L 226.740147 134.249383 
L 226.840014 134.182952 
L 226.859987 134.465987 
L 226.87996 134.233174 
L 226.979827 134.256374 
L 226.9998 134.425686 
L 227.099667 134.361657 
L 227.139614 134.390638 
L 227.199534 134.312028 
L 227.319374 134.382281 
L 227.419241 134.328162 
L 227.539081 134.368934 
L 227.698868 134.376438 
L 227.998469 134.371155 
L 228.158256 134.400072 
L 228.298069 134.39896 
L 228.497803 134.38213 
L 228.637616 134.413212 
L 228.77743 134.384823 
L 228.877297 134.459644 
L 228.977164 134.357696 
L 229.057057 134.327945 
L 229.07703 134.517037 
L 229.156924 134.569013 
L 229.176897 134.232084 
L 229.256791 134.163978 
L 229.276764 134.635271 
L 229.296737 134.188838 
L 229.396604 134.441877 
L 229.436551 134.347688 
L 229.456524 134.556291 
L 229.516444 134.287614 
L 229.496471 134.584706 
L 229.556391 134.342926 
L 229.676231 134.542018 
L 229.696205 134.335362 
L 229.716178 134.557298 
L 229.776098 134.392752 
L 229.895938 134.530861 
L 229.915912 134.381342 
L 229.995805 134.427376 
L 230.115645 134.517196 
L 230.175565 134.413739 
L 230.215512 134.428848 
L 230.335352 134.472571 
L 230.595006 134.444463 
L 230.694873 134.505508 
L 230.714846 134.469568 
L 230.834686 134.52235 
L 230.91458 134.550032 
L 230.934553 134.432289 
L 231.03442 134.566397 
L 231.134287 134.419476 
L 231.174234 134.412428 
L 231.234154 134.598631 
L 231.314047 134.610187 
L 231.334021 134.39443 
L 231.393941 134.617077 
L 231.433887 134.609637 
L 231.453861 134.421462 
L 231.533754 134.471504 
L 231.653594 134.532506 
L 231.793408 134.512203 
L 231.893275 134.565123 
L 231.973168 134.605759 
L 231.993142 134.44686 
L 232.073035 134.387098 
L 232.093008 134.681976 
L 232.172902 134.727902 
L 232.192875 134.305427 
L 232.212849 134.737376 
L 232.292742 134.683351 
L 232.312715 134.432615 
L 232.412582 134.484202 
L 232.492476 134.434113 
L 232.512449 134.661662 
L 232.532422 134.456836 
L 232.632289 134.558333 
L 232.672236 134.522148 
L 232.732156 134.628325 
L 232.752129 134.498568 
L 232.832023 134.529298 
L 232.951863 134.584131 
L 233.091677 134.566019 
L 233.23149 134.590702 
L 233.331357 134.553672 
L 233.431224 134.642684 
L 233.471171 134.652446 
L 233.531091 134.526124 
L 233.630957 134.659872 
L 233.730824 134.532549 
L 233.810718 134.50845 
L 233.830691 134.693425 
L 233.910585 134.733604 
L 233.930558 134.445481 
L 233.970505 134.432947 
L 234.030425 134.768353 
L 234.050398 134.445268 
L 234.130292 134.528145 
L 234.150265 134.687469 
L 234.250132 134.656784 
L 234.330025 134.702289 
L 234.349999 134.542032 
L 234.409919 134.707943 
L 234.449865 134.697122 
L 234.469839 134.570521 
L 234.549732 134.608116 
L 234.669572 134.656244 
L 234.769439 134.606113 
L 234.869306 134.681158 
L 234.969173 134.627023 
L 234.989146 134.665728 
L 235.12896 134.657706 
L 235.36864 134.654708 
L 235.468507 134.71396 
L 235.5484 134.793047 
L 235.568374 134.447176 
L 235.648267 134.286516 
L 235.668241 134.955882 
L 235.688214 134.330441 
L 235.788081 134.656203 
L 235.828028 134.540758 
L 235.848001 134.845037 
L 235.867974 134.502848 
L 235.967841 134.632282 
L 236.027761 134.824718 
L 236.007788 134.554297 
L 236.067708 134.771052 
L 236.167575 134.793827 
L 236.187548 134.599726 
L 236.307388 134.766228 
L 236.327362 134.636556 
L 236.427228 134.676275 
L 236.547069 134.712443 
L 236.726829 134.701512 
L 236.886616 134.71636 
L 237.046403 134.707471 
L 237.20619 134.744956 
L 237.32603 134.712632 
L 237.465843 134.747713 
L 237.62563 134.734693 
L 237.805391 134.750853 
L 238.005124 134.726832 
L 238.104991 134.768227 
L 238.124964 134.758218 
L 238.304725 134.672537 
L 238.384618 134.616907 
L 238.404592 134.913501 
L 238.484485 134.973617 
L 238.504458 134.486494 
L 238.524432 134.995887 
L 238.544405 134.484771 
L 238.604325 134.936377 
L 238.724165 134.629184 
L 238.784086 134.934089 
L 238.764112 134.604084 
L 238.824032 134.875768 
L 238.923899 134.890767 
L 238.943872 134.662003 
L 238.963846 134.907449 
L 239.063713 134.807143 
L 239.143606 134.883501 
L 239.163579 134.703189 
L 239.183553 134.868977 
L 239.28342 134.823062 
L 239.323366 134.844849 
L 239.383286 134.758227 
L 239.40326 134.834892 
L 239.503127 134.803269 
L 240.621635 134.925436 
L 240.701529 134.955021 
L 240.721502 134.706944 
L 240.801395 134.635024 
L 240.821369 135.026593 
L 240.881289 134.565371 
L 240.901262 135.062384 
L 240.921236 134.599185 
L 240.941209 135.036768 
L 241.041076 134.906826 
L 241.100996 134.701344 
L 241.120969 135.006869 
L 241.140943 134.707725 
L 241.160916 134.982578 
L 241.260783 134.923948 
L 241.320703 134.755876 
L 241.340676 134.974256 
L 241.36065 134.782469 
L 241.48049 134.937117 
L 241.500463 134.801158 
L 241.520436 134.949992 
L 241.580357 134.83683 
L 241.700197 134.925377 
L 241.72017 134.835516 
L 241.820037 134.869693 
L 241.919904 134.921774 
L 242.039744 134.876446 
L 242.139611 134.922422 
L 242.239478 134.856757 
L 242.339344 134.927063 
L 242.439211 134.875792 
L 242.539078 134.913983 
L 242.559051 134.895579 
L 242.718838 134.948928 
L 242.798732 134.989732 
L 242.818705 134.81064 
L 242.898599 134.750025 
L 242.918572 135.068877 
L 242.998465 135.102745 
L 243.018439 134.68857 
L 243.038412 135.098509 
L 243.138279 134.880432 
L 243.218172 135.006102 
L 243.278093 134.818734 
L 243.258119 135.034082 
L 243.318039 134.83444 
L 243.338013 135.012492 
L 243.437879 134.958786 
L 243.517773 135.005738 
L 243.537746 134.863781 
L 243.55772 135.00806 
L 243.657586 134.923083 
L 243.777427 134.980308 
L 243.877293 134.908431 
L 243.97716 134.977682 
L 244.077027 134.936896 
L 244.097 134.973353 
L 244.236814 134.950858 
L 244.416574 134.974458 
L 244.576361 134.912634 
L 244.656255 134.826824 
L 244.676228 135.118487 
L 244.756122 135.198325 
L 244.776095 134.702147 
L 244.796068 135.215712 
L 244.875962 135.148348 
L 244.895935 134.85419 
L 244.995802 134.88422 
L 245.055722 135.13334 
L 245.035749 134.842132 
L 245.095669 135.115477 
L 245.115642 134.879724 
L 245.215509 134.952593 
L 245.295402 134.90801 
L 245.315376 135.078524 
L 245.335349 134.921188 
L 245.435216 134.992185 
L 245.475163 134.966978 
L 245.535083 135.055686 
L 245.555056 134.948764 
L 245.63495 134.976492 
L 245.75479 135.02726 
L 245.894603 134.990013 
L 246.014443 135.015669 
L 246.294071 135.099354 
L 246.373964 135.158616 
L 246.393937 134.81322 
L 246.453857 135.216292 
L 246.433884 134.791749 
L 246.493804 135.204708 
L 246.513778 134.873203 
L 246.613644 134.995306 
L 246.693538 134.916964 
L 246.713511 135.156746 
L 246.733485 134.933077 
L 246.833351 135.035775 
L 246.873298 134.994569 
L 246.933218 135.12162 
L 246.953192 134.986298 
L 247.053058 135.034863 
L 247.093005 135.009309 
L 247.152925 135.106676 
L 247.172899 135.004038 
L 247.272765 135.060722 
L 247.931886 135.077357 
L 248.291407 134.970811 
L 248.3713 134.828525 
L 248.391274 135.317823 
L 248.451194 134.720271 
L 248.471167 135.378611 
L 248.491141 134.779485 
L 248.511114 135.326207 
L 248.610981 135.202332 
L 248.670901 134.911893 
L 248.650928 135.278138 
L 248.710848 134.965508 
L 248.830688 135.230771 
L 248.850661 134.972472 
L 248.950528 135.099769 
L 249.030422 135.016647 
L 249.050395 135.199028 
L 249.070368 135.044228 
L 249.170235 135.060472 
L 249.230155 135.187335 
L 249.210182 135.04512 
L 249.270102 135.156044 
L 249.389942 135.076899 
L 249.409915 135.169807 
L 249.509782 135.114806 
L 249.929223 135.136972 
L 250.38861 135.139973 
L 250.548397 135.159232 
L 250.728158 135.121064 
L 250.808051 135.073636 
L 250.828024 135.25251 
L 250.907918 135.338673 
L 250.927891 134.880324 
L 250.987811 135.406349 
L 250.967838 134.83163 
L 251.027758 135.384751 
L 251.047731 134.976738 
L 251.147598 135.052117 
L 251.207518 135.322037 
L 251.187545 135.013392 
L 251.247465 135.279142 
L 251.367305 135.088943 
L 251.387279 135.283507 
L 251.487145 135.198254 
L 251.527092 135.247158 
L 251.587012 135.131465 
L 251.706852 135.239537 
L 251.726826 135.140339 
L 251.826693 135.168689 
L 251.886613 135.23407 
L 251.866639 135.148124 
L 251.946533 135.180923 
L 252.146266 135.200719 
L 253.344668 135.235947 
L 253.344668 135.235947 
" clip-path="url(#p5f31e0d766)" style="fill: none; stroke-dasharray: 5.55,2.4; stroke-dashoffset: 0; stroke: #0000ff; stroke-width: 1.5"/>
   </g>
   <g id="line2d_63">
    <path d="M 53.630996 19.521901 
L 53.850703 43.237346 
L 54.150304 60.745813 
L 54.429931 65.833091 
L 54.809425 68.737016 
L 55.927933 74.718969 
L 57.126335 80.230367 
L 58.244843 84.321625 
L 59.443245 87.811972 
L 60.6017 90.555324 
L 62.099703 93.396916 
L 63.637652 95.64862 
L 65.495175 97.680871 
L 67.053097 98.988101 
L 68.630993 100.07378 
L 70.208889 101.002657 
L 76.600365 103.919406 
L 81.334053 105.760878 
L 81.633653 106.203907 
L 81.9732 107.314928 
L 82.392641 108.496071 
L 83.111682 109.765358 
L 84.070404 110.889322 
L 84.150297 110.870475 
L 84.190244 110.076551 
L 84.250164 90.628582 
L 84.270137 110.819433 
L 84.370004 100.695847 
L 84.429924 105.367436 
L 84.489844 104.359203 
L 84.609685 102.68515 
L 84.649631 102.777968 
L 84.789445 104.417573 
L 85.029125 106.309271 
L 85.168939 106.315751 
L 85.348699 106.327838 
L 85.88798 106.593067 
L 88.02513 107.082455 
L 92.29943 107.949988 
L 93.477858 108.365735 
L 93.757485 108.727979 
L 95.175594 111.445931 
L 96.174263 112.411864 
L 96.733517 112.794526 
L 96.75349 112.699023 
L 96.793437 111.532428 
L 96.853357 98.040731 
L 96.87333 112.223235 
L 96.93325 100.836035 
L 97.033117 110.329631 
L 97.053091 109.080405 
L 97.113011 108.065296 
L 97.172931 108.24588 
L 97.432585 109.065519 
L 97.832052 111.16973 
L 98.311413 111.907921 
L 98.95056 112.56857 
L 99.689575 113.066035 
L 99.869335 113.047342 
L 99.909282 112.481285 
L 99.969202 99.309417 
L 100.009149 113.082377 
L 100.029122 110.904395 
L 100.128989 112.644938 
L 100.148962 111.760033 
L 100.168936 112.469336 
L 100.268802 112.153348 
L 100.348696 112.391546 
L 100.308749 112.127821 
L 100.388643 112.354651 
L 100.428589 112.333742 
L 100.568403 112.682109 
L 100.588376 112.644289 
L 100.60835 112.745015 
L 100.628323 112.725082 
L 100.828057 112.978943 
L 100.987843 113.097032 
L 101.247497 113.23905 
L 101.267471 113.190038 
L 101.327391 113.136378 
L 101.367337 113.214303 
L 101.427257 113.27748 
L 101.467204 113.209419 
L 101.507151 112.727806 
L 101.547098 108.865176 
L 101.567071 100.690521 
L 101.626991 112.555024 
L 101.646964 110.369669 
L 101.706885 112.901764 
L 101.766805 112.075536 
L 101.786778 112.123053 
L 101.806751 112.581161 
L 101.826725 112.02893 
L 101.906618 112.372648 
L 101.946565 112.207859 
L 102.046432 112.54479 
L 102.066405 112.475604 
L 102.086379 112.658999 
L 102.126325 112.63613 
L 102.286112 112.947368 
L 102.366006 112.999061 
L 102.565739 113.207499 
L 102.585713 113.185359 
L 102.645633 113.250579 
L 102.92526 113.402139 
L 103.025127 113.224421 
L 103.085047 112.152434 
L 103.144967 103.551792 
L 103.16494 110.860054 
L 103.184914 113.337206 
L 103.28478 112.55317 
L 103.304754 112.388335 
L 103.324727 112.746606 
L 103.364674 112.489912 
L 103.424594 112.945503 
L 103.404621 112.390385 
L 103.484514 112.731713 
L 103.504487 112.723465 
L 103.544434 112.690248 
L 103.624328 112.945552 
L 103.644301 112.895948 
L 103.664274 113.041868 
L 103.684248 112.937024 
L 103.824061 113.195909 
L 103.883981 113.21536 
L 104.043768 113.400228 
L 104.063742 113.343666 
L 104.103688 113.435151 
L 104.143635 113.415791 
L 104.243502 113.525253 
L 104.283449 113.491071 
L 104.423262 113.349543 
L 104.463209 112.670885 
L 104.523129 108.081959 
L 104.543102 102.338761 
L 104.563076 112.468662 
L 104.622996 110.421157 
L 104.642969 107.056442 
L 104.662943 113.023103 
L 104.702889 110.551731 
L 104.722863 112.607543 
L 104.802756 111.732219 
L 104.822729 111.189788 
L 104.88265 111.907009 
L 104.902623 111.472253 
L 104.922596 111.502675 
L 105.06241 112.069416 
L 105.082383 111.946091 
L 105.12233 112.263387 
L 105.162277 112.218849 
L 105.262143 112.550553 
L 105.42193 112.88306 
L 105.501824 112.966592 
L 105.681584 113.16102 
L 105.841371 113.289971 
L 106.540439 113.691331 
L 106.640306 113.514871 
L 106.680252 112.645576 
L 106.740172 100.165963 
L 106.820066 107.773359 
L 106.879986 111.944321 
L 106.959879 111.941847 
L 106.979853 110.423039 
L 107.07972 110.764472 
L 107.099693 110.731265 
L 107.279453 111.673814 
L 107.299427 111.659853 
L 107.3194 111.628158 
L 107.339373 111.671339 
L 107.579054 112.61182 
L 107.698894 112.764874 
L 107.878654 113.012467 
L 109.196896 113.906751 
L 109.296763 113.913806 
L 109.33671 113.575019 
L 109.376657 110.359584 
L 109.45655 110.455791 
L 109.476523 99.521177 
L 109.57639 111.510172 
L 109.596364 111.065751 
L 109.63631 108.447375 
L 109.716204 109.7432 
L 109.836044 109.227415 
L 109.875991 109.275959 
L 110.055751 109.843761 
L 110.714872 112.308274 
L 111.393966 113.087599 
L 112.492501 113.809098 
L 113.271463 114.147486 
L 113.311409 113.858273 
L 113.351356 109.968522 
L 113.371329 99.702953 
L 113.43125 113.464065 
L 113.451223 108.583362 
L 113.511143 113.552277 
L 113.571063 112.709977 
L 113.591036 111.682096 
L 113.630983 112.97394 
L 113.67093 112.085393 
L 113.79077 112.753732 
L 113.830717 112.477883 
L 113.870664 112.847969 
L 113.890637 112.746918 
L 113.91061 112.719535 
L 113.930584 112.870901 
L 114.090371 113.287294 
L 114.250158 113.479346 
L 114.429918 113.687968 
L 115.488506 114.265762 
L 115.508479 114.215048 
L 115.548426 113.718387 
L 115.608346 108.02485 
L 115.708213 95.745852 
L 115.648293 114.162534 
L 115.728186 102.377708 
L 115.768133 112.083993 
L 115.848027 109.270821 
L 115.868 109.28556 
L 115.967867 108.540985 
L 116.027787 108.676465 
L 116.467201 110.216428 
L 117.585709 110.476866 
L 121.240835 110.854134 
L 129.389968 111.558664 
L 136.120992 112.121987 
L 138.318062 112.324002 
L 140.415265 112.553451 
L 142.352681 112.837463 
L 144.529778 113.326219 
L 146.467195 113.982221 
L 149.483173 115.266202 
L 152.439231 116.415181 
L 155.814729 117.423707 
L 159.569722 118.284381 
L 162.965194 118.915285 
L 167.27944 119.572349 
L 176.247481 120.569795 
L 185.954536 121.35086 
L 193.424575 121.902851 
L 193.424575 121.902851 
" clip-path="url(#p5f31e0d766)" style="fill: none; stroke: #ff0000; stroke-width: 1.5; stroke-linecap: square"/>
   </g>
   <g id="line2d_64">
    <path d="M 53.630996 15.137008 
L 53.71089 21.606575 
L 54.050437 49.828103 
L 54.330064 57.156989 
L 54.669611 60.546984 
L 55.228865 63.78852 
L 56.067747 67.406633 
L 56.806761 69.755698 
L 57.585722 71.577718 
L 58.724204 73.605461 
L 62.079729 78.892228 
L 65.475201 83.836548 
L 67.512484 86.335767 
L 69.689581 88.608348 
L 71.986518 90.599676 
L 73.864014 91.94306 
L 76.720206 93.543012 
L 78.797435 94.426981 
L 80.834719 95.230008 
L 81.373999 95.630832 
L 81.633653 96.074592 
L 81.9732 96.659501 
L 82.292774 96.548964 
L 82.452561 96.647958 
L 83.75083 98.123068 
L 84.130324 98.311803 
L 84.170271 97.728679 
L 84.230191 80.801908 
L 84.250164 98.61902 
L 84.330057 86.531216 
L 84.449898 96.683169 
L 84.469871 96.534446 
L 84.589711 95.671029 
L 84.629658 95.748244 
L 84.849365 96.798635 
L 84.909285 96.668578 
L 85.288779 95.181136 
L 85.348699 95.235431 
L 86.00782 96.014609 
L 86.846701 96.02504 
L 93.078391 96.939543 
L 93.537778 97.24569 
L 93.837379 97.734335 
L 94.077059 97.999931 
L 94.756154 97.663223 
L 96.254156 98.142381 
L 96.733517 98.226666 
L 96.773464 97.44174 
L 96.833384 86.818266 
L 96.853357 98.158533 
L 96.913277 89.472741 
L 97.013144 98.467709 
L 97.033117 97.477854 
L 97.073064 96.819912 
L 97.132984 97.272856 
L 97.432585 99.080764 
L 97.632318 99.463189 
L 97.752158 99.369928 
L 98.211546 98.67665 
L 98.89064 98.518456 
L 99.849362 98.488897 
L 99.889308 98.105885 
L 99.949229 87.895217 
L 99.969202 95.39611 
L 99.989175 98.783922 
L 100.089042 98.306022 
L 100.208882 99.206217 
L 100.228856 99.059813 
L 100.268802 99.272421 
L 100.308749 99.187419 
L 100.448563 99.433478 
L 100.508483 99.385901 
L 100.488509 99.459883 
L 100.568403 99.422963 
L 100.648296 99.428036 
L 100.60835 99.398483 
L 100.66827 99.411905 
L 101.047764 99.16047 
L 101.467204 98.76804 
L 101.507151 97.49731 
L 101.547098 89.201868 
L 101.587044 97.53112 
L 101.626991 97.304535 
L 101.726858 99.418177 
L 101.746831 98.938679 
L 101.786778 99.487827 
L 101.826725 99.425644 
L 101.846698 99.445032 
L 101.866672 99.228295 
L 101.906618 99.57995 
L 101.926592 99.440056 
L 102.066405 99.723361 
L 102.106352 99.641912 
L 102.186245 99.692678 
L 102.226192 99.718196 
L 102.346032 99.624705 
L 102.905286 99.228234 
L 103.025127 98.920103 
L 103.10502 95.914088 
L 103.124993 91.625253 
L 103.16494 99.272765 
L 103.184914 97.607145 
L 103.304754 99.307322 
L 103.3447 99.138058 
L 103.364674 99.529757 
L 103.384647 99.21108 
L 103.504487 99.651466 
L 103.524461 99.48216 
L 103.544434 99.697302 
L 103.604354 99.681716 
L 103.624328 99.630579 
L 103.644301 99.752373 
L 103.704221 99.663432 
L 103.764141 99.742574 
L 103.824061 99.703502 
L 103.923928 99.679411 
L 104.063742 99.555425 
L 104.143635 99.539676 
L 104.343369 99.327605 
L 104.423262 99.099033 
L 104.503156 95.361596 
L 104.523129 90.709867 
L 104.543102 98.71641 
L 104.603022 97.395388 
L 104.622996 95.027389 
L 104.642969 99.664228 
L 104.682916 97.913075 
L 104.762809 99.763947 
L 104.802756 98.932893 
L 104.94257 99.89542 
L 104.962543 99.711394 
L 104.982516 99.658232 
L 105.00249 99.822881 
L 105.102357 100.163491 
L 105.12233 100.120115 
L 105.142303 100.021735 
L 105.202223 100.208259 
L 105.222197 100.154201 
L 105.30209 100.09255 
L 105.342037 100.150847 
L 105.621664 99.827127 
L 106.240838 99.341475 
L 106.400625 99.292878 
L 106.640306 98.853758 
L 106.680252 96.77639 
L 106.720199 88.782452 
L 106.740172 98.458166 
L 106.800093 95.208318 
L 106.939906 99.504877 
L 106.959879 98.485492 
L 107.0198 99.541979 
L 107.059746 98.953611 
L 107.07972 98.983423 
L 107.25948 100.104965 
L 107.279453 100.046829 
L 107.299427 99.983417 
L 107.339373 100.101419 
L 107.459214 100.389851 
L 107.479187 100.368651 
L 107.519134 100.261409 
L 107.599027 100.28822 
L 107.658947 100.208398 
L 107.938574 99.859544 
L 108.098361 99.691115 
L 108.477855 99.41824 
L 109.037109 99.261194 
L 109.296763 99.13154 
L 109.33671 98.308169 
L 109.45655 88.548119 
L 109.496497 91.743881 
L 109.57639 99.105463 
L 109.676257 98.955233 
L 109.776124 98.612171 
L 109.836044 98.69661 
L 110.115671 99.756598 
L 110.375325 100.560765 
L 110.435245 100.518978 
L 110.754819 99.97795 
L 111.493833 99.285335 
L 111.953221 99.153114 
L 112.592368 99.13444 
L 113.231516 99.178837 
L 113.271463 99.113822 
L 113.311409 98.274371 
L 113.351356 88.231428 
L 113.411276 99.016533 
L 113.43125 95.637548 
L 113.49117 99.544346 
L 113.55109 99.216032 
L 113.571063 98.507662 
L 113.61101 99.705428 
L 113.650957 99.238619 
L 113.770797 99.983386 
L 113.810744 99.862915 
L 113.830717 100.050881 
L 113.890637 100.011245 
L 114.010477 100.336741 
L 114.030451 100.262741 
L 114.070397 100.364524 
L 114.110344 100.332361 
L 114.170264 100.287057 
L 114.210211 100.334534 
L 114.489838 100.033435 
L 114.629651 99.900092 
L 115.009145 99.611619 
L 115.508479 99.311623 
L 115.548426 98.487659 
L 115.68824 85.102619 
L 115.62832 99.500182 
L 115.708213 90.910852 
L 115.74816 99.440885 
L 115.828053 98.295506 
L 115.848027 98.43178 
L 115.907947 98.159662 
L 115.947894 98.197762 
L 116.267467 99.325064 
L 116.347361 99.236735 
L 116.846695 98.556001 
L 117.505816 98.327161 
L 118.624324 98.15949 
L 128.091699 98.228346 
L 141.254146 98.836282 
L 144.150284 99.213247 
L 146.467195 99.773212 
L 149.263466 100.749601 
L 158.591027 104.153417 
L 162.605673 105.302528 
L 166.360666 106.160679 
L 170.435232 106.867245 
L 175.069053 107.428759 
L 181.800076 107.909733 
L 190.24881 108.156337 
L 193.424575 108.172608 
L 193.424575 108.172608 
" clip-path="url(#p5f31e0d766)" style="fill: none; stroke-dasharray: 5.55,2.4; stroke-dashoffset: 0; stroke: #ff0000; stroke-width: 1.5"/>
   </g>
   <g id="patch_3">
    <path d="M 43.645313 181.814173 
L 43.645313 7.2 
" style="fill: none; stroke: #000000; stroke-width: 0.8; stroke-linejoin: miter; stroke-linecap: square"/>
   </g>
   <g id="patch_4">
    <path d="M 263.330352 181.814173 
L 263.330352 7.2 
" style="fill: none; stroke: #000000; stroke-width: 0.8; stroke-linejoin: miter; stroke-linecap: square"/>
   </g>
   <g id="patch_5">
    <path d="M 43.645313 181.814173 
L 263.330352 181.814173 
" style="fill: none; stroke: #000000; stroke-width: 0.8; stroke-linejoin: miter; stroke-linecap: square"/>
   </g>
   <g id="patch_6">
    <path d="M 43.645313 7.2 
L 263.330352 7.2 
" style="fill: none; stroke: #000000; stroke-width: 0.8; stroke-linejoin: miter; stroke-linecap: square"/>
   </g>
   <g id="legend_1">
    <g id="patch_7">
     <path d="M 158.199102 72.015625 
L 256.330352 72.015625 
Q 258.330352 72.015625 258.330352 70.015625 
L 258.330352 14.2 
Q 258.330352 12.2 256.330352 12.2 
L 158.199102 12.2 
Q 156.199102 12.2 156.199102 14.2 
L 156.199102 70.015625 
Q 156.199102 72.015625 158.199102 72.015625 
z
" style="fill: #ffffff; opacity: 0.8; stroke: #000000; stroke-linejoin: miter"/>
    </g>
    <g id="line2d_65">
     <path d="M 160.199102 19.857813 
L 170.199102 19.857813 
L 180.199102 19.857813 
" style="fill: none; stroke: #0000ff; stroke-width: 1.5; stroke-linecap: square"/>
    </g>
    <g id="text_14">
     <!-- BiRNN training -->
     <g transform="translate(188.199102 23.357813) scale(0.1 -0.1)">
      <defs>
       <path id="ArialMT-42" d="M 469 0 
L 469 4581 
L 2188 4581 
Q 2713 4581 3030 4442 
Q 3347 4303 3526 4014 
Q 3706 3725 3706 3409 
Q 3706 3116 3547 2856 
Q 3388 2597 3066 2438 
Q 3481 2316 3704 2022 
Q 3928 1728 3928 1328 
Q 3928 1006 3792 729 
Q 3656 453 3456 303 
Q 3256 153 2954 76 
Q 2653 0 2216 0 
L 469 0 
z
M 1075 2656 
L 2066 2656 
Q 2469 2656 2644 2709 
Q 2875 2778 2992 2937 
Q 3109 3097 3109 3338 
Q 3109 3566 3000 3739 
Q 2891 3913 2687 3977 
Q 2484 4041 1991 4041 
L 1075 4041 
L 1075 2656 
z
M 1075 541 
L 2216 541 
Q 2509 541 2628 563 
Q 2838 600 2978 687 
Q 3119 775 3209 942 
Q 3300 1109 3300 1328 
Q 3300 1584 3169 1773 
Q 3038 1963 2805 2039 
Q 2572 2116 2134 2116 
L 1075 2116 
L 1075 541 
z
" transform="scale(0.015625)"/>
       <path id="ArialMT-69" d="M 425 3934 
L 425 4581 
L 988 4581 
L 988 3934 
L 425 3934 
z
M 425 0 
L 425 3319 
L 988 3319 
L 988 0 
L 425 0 
z
" transform="scale(0.015625)"/>
       <path id="ArialMT-52" d="M 503 0 
L 503 4581 
L 2534 4581 
Q 3147 4581 3465 4457 
Q 3784 4334 3975 4021 
Q 4166 3709 4166 3331 
Q 4166 2844 3850 2509 
Q 3534 2175 2875 2084 
Q 3116 1969 3241 1856 
Q 3506 1613 3744 1247 
L 4541 0 
L 3778 0 
L 3172 953 
Q 2906 1366 2734 1584 
Q 2563 1803 2427 1890 
Q 2291 1978 2150 2013 
Q 2047 2034 1813 2034 
L 1109 2034 
L 1109 0 
L 503 0 
z
M 1109 2559 
L 2413 2559 
Q 2828 2559 3062 2645 
Q 3297 2731 3419 2920 
Q 3541 3109 3541 3331 
Q 3541 3656 3305 3865 
Q 3069 4075 2559 4075 
L 1109 4075 
L 1109 2559 
z
" transform="scale(0.015625)"/>
       <path id="ArialMT-4e" d="M 488 0 
L 488 4581 
L 1109 4581 
L 3516 984 
L 3516 4581 
L 4097 4581 
L 4097 0 
L 3475 0 
L 1069 3600 
L 1069 0 
L 488 0 
z
" transform="scale(0.015625)"/>
       <path id="ArialMT-20" transform="scale(0.015625)"/>
       <path id="ArialMT-74" d="M 1650 503 
L 1731 6 
Q 1494 -44 1306 -44 
Q 1000 -44 831 53 
Q 663 150 594 308 
Q 525 466 525 972 
L 525 2881 
L 113 2881 
L 113 3319 
L 525 3319 
L 525 4141 
L 1084 4478 
L 1084 3319 
L 1650 3319 
L 1650 2881 
L 1084 2881 
L 1084 941 
Q 1084 700 1114 631 
Q 1144 563 1211 522 
Q 1278 481 1403 481 
Q 1497 481 1650 503 
z
" transform="scale(0.015625)"/>
       <path id="ArialMT-72" d="M 416 0 
L 416 3319 
L 922 3319 
L 922 2816 
Q 1116 3169 1280 3281 
Q 1444 3394 1641 3394 
Q 1925 3394 2219 3213 
L 2025 2691 
Q 1819 2813 1613 2813 
Q 1428 2813 1281 2702 
Q 1134 2591 1072 2394 
Q 978 2094 978 1738 
L 978 0 
L 416 0 
z
" transform="scale(0.015625)"/>
       <path id="ArialMT-61" d="M 2588 409 
Q 2275 144 1986 34 
Q 1697 -75 1366 -75 
Q 819 -75 525 192 
Q 231 459 231 875 
Q 231 1119 342 1320 
Q 453 1522 633 1644 
Q 813 1766 1038 1828 
Q 1203 1872 1538 1913 
Q 2219 1994 2541 2106 
Q 2544 2222 2544 2253 
Q 2544 2597 2384 2738 
Q 2169 2928 1744 2928 
Q 1347 2928 1158 2789 
Q 969 2650 878 2297 
L 328 2372 
Q 403 2725 575 2942 
Q 747 3159 1072 3276 
Q 1397 3394 1825 3394 
Q 2250 3394 2515 3294 
Q 2781 3194 2906 3042 
Q 3031 2891 3081 2659 
Q 3109 2516 3109 2141 
L 3109 1391 
Q 3109 606 3145 398 
Q 3181 191 3288 0 
L 2700 0 
Q 2613 175 2588 409 
z
M 2541 1666 
Q 2234 1541 1622 1453 
Q 1275 1403 1131 1340 
Q 988 1278 909 1158 
Q 831 1038 831 891 
Q 831 666 1001 516 
Q 1172 366 1500 366 
Q 1825 366 2078 508 
Q 2331 650 2450 897 
Q 2541 1088 2541 1459 
L 2541 1666 
z
" transform="scale(0.015625)"/>
       <path id="ArialMT-6e" d="M 422 0 
L 422 3319 
L 928 3319 
L 928 2847 
Q 1294 3394 1984 3394 
Q 2284 3394 2536 3286 
Q 2788 3178 2913 3003 
Q 3038 2828 3088 2588 
Q 3119 2431 3119 2041 
L 3119 0 
L 2556 0 
L 2556 2019 
Q 2556 2363 2490 2533 
Q 2425 2703 2258 2804 
Q 2091 2906 1866 2906 
Q 1506 2906 1245 2678 
Q 984 2450 984 1813 
L 984 0 
L 422 0 
z
" transform="scale(0.015625)"/>
       <path id="ArialMT-67" d="M 319 -275 
L 866 -356 
Q 900 -609 1056 -725 
Q 1266 -881 1628 -881 
Q 2019 -881 2231 -725 
Q 2444 -569 2519 -288 
Q 2563 -116 2559 434 
Q 2191 0 1641 0 
Q 956 0 581 494 
Q 206 988 206 1678 
Q 206 2153 378 2554 
Q 550 2956 876 3175 
Q 1203 3394 1644 3394 
Q 2231 3394 2613 2919 
L 2613 3319 
L 3131 3319 
L 3131 450 
Q 3131 -325 2973 -648 
Q 2816 -972 2473 -1159 
Q 2131 -1347 1631 -1347 
Q 1038 -1347 672 -1080 
Q 306 -813 319 -275 
z
M 784 1719 
Q 784 1066 1043 766 
Q 1303 466 1694 466 
Q 2081 466 2343 764 
Q 2606 1063 2606 1700 
Q 2606 2309 2336 2618 
Q 2066 2928 1684 2928 
Q 1309 2928 1046 2623 
Q 784 2319 784 1719 
z
" transform="scale(0.015625)"/>
      </defs>
      <use xlink:href="#ArialMT-42"/>
      <use xlink:href="#ArialMT-69" x="66.699219"/>
      <use xlink:href="#ArialMT-52" x="88.916016"/>
      <use xlink:href="#ArialMT-4e" x="161.132812"/>
      <use xlink:href="#ArialMT-4e" x="233.349609"/>
      <use xlink:href="#ArialMT-20" x="305.566406"/>
      <use xlink:href="#ArialMT-74" x="333.349609"/>
      <use xlink:href="#ArialMT-72" x="361.132812"/>
      <use xlink:href="#ArialMT-61" x="394.433594"/>
      <use xlink:href="#ArialMT-69" x="450.048828"/>
      <use xlink:href="#ArialMT-6e" x="472.265625"/>
      <use xlink:href="#ArialMT-69" x="527.880859"/>
      <use xlink:href="#ArialMT-6e" x="550.097656"/>
      <use xlink:href="#ArialMT-67" x="605.712891"/>
     </g>
    </g>
    <g id="line2d_66">
     <path d="M 160.199102 34.120313 
L 170.199102 34.120313 
L 180.199102 34.120313 
" style="fill: none; stroke-dasharray: 5.55,2.4; stroke-dashoffset: 0; stroke: #0000ff; stroke-width: 1.5"/>
    </g>
    <g id="text_15">
     <!-- BiRNN test -->
     <g transform="translate(188.199102 37.620313) scale(0.1 -0.1)">
      <defs>
       <path id="ArialMT-65" d="M 2694 1069 
L 3275 997 
Q 3138 488 2766 206 
Q 2394 -75 1816 -75 
Q 1088 -75 661 373 
Q 234 822 234 1631 
Q 234 2469 665 2931 
Q 1097 3394 1784 3394 
Q 2450 3394 2872 2941 
Q 3294 2488 3294 1666 
Q 3294 1616 3291 1516 
L 816 1516 
Q 847 969 1125 678 
Q 1403 388 1819 388 
Q 2128 388 2347 550 
Q 2566 713 2694 1069 
z
M 847 1978 
L 2700 1978 
Q 2663 2397 2488 2606 
Q 2219 2931 1791 2931 
Q 1403 2931 1139 2672 
Q 875 2413 847 1978 
z
" transform="scale(0.015625)"/>
      </defs>
      <use xlink:href="#ArialMT-42"/>
      <use xlink:href="#ArialMT-69" x="66.699219"/>
      <use xlink:href="#ArialMT-52" x="88.916016"/>
      <use xlink:href="#ArialMT-4e" x="161.132812"/>
      <use xlink:href="#ArialMT-4e" x="233.349609"/>
      <use xlink:href="#ArialMT-20" x="305.566406"/>
      <use xlink:href="#ArialMT-74" x="333.349609"/>
      <use xlink:href="#ArialMT-65" x="361.132812"/>
      <use xlink:href="#ArialMT-73" x="416.748047"/>
      <use xlink:href="#ArialMT-74" x="466.748047"/>
     </g>
    </g>
    <g id="line2d_67">
     <path d="M 160.199102 48.265625 
L 170.199102 48.265625 
L 180.199102 48.265625 
" style="fill: none; stroke: #ff0000; stroke-width: 1.5; stroke-linecap: square"/>
    </g>
    <g id="text_16">
     <!-- RNN training -->
     <g transform="translate(188.199102 51.765625) scale(0.1 -0.1)">
      <use xlink:href="#ArialMT-52"/>
      <use xlink:href="#ArialMT-4e" x="72.216797"/>
      <use xlink:href="#ArialMT-4e" x="144.433594"/>
      <use xlink:href="#ArialMT-20" x="216.650391"/>
      <use xlink:href="#ArialMT-74" x="244.433594"/>
      <use xlink:href="#ArialMT-72" x="272.216797"/>
      <use xlink:href="#ArialMT-61" x="305.517578"/>
      <use xlink:href="#ArialMT-69" x="361.132812"/>
      <use xlink:href="#ArialMT-6e" x="383.349609"/>
      <use xlink:href="#ArialMT-69" x="438.964844"/>
      <use xlink:href="#ArialMT-6e" x="461.181641"/>
      <use xlink:href="#ArialMT-67" x="516.796875"/>
     </g>
    </g>
    <g id="line2d_68">
     <path d="M 160.199102 62.528125 
L 170.199102 62.528125 
L 180.199102 62.528125 
" style="fill: none; stroke-dasharray: 5.55,2.4; stroke-dashoffset: 0; stroke: #ff0000; stroke-width: 1.5"/>
    </g>
    <g id="text_17">
     <!-- RNN test -->
     <g transform="translate(188.199102 66.028125) scale(0.1 -0.1)">
      <use xlink:href="#ArialMT-52"/>
      <use xlink:href="#ArialMT-4e" x="72.216797"/>
      <use xlink:href="#ArialMT-4e" x="144.433594"/>
      <use xlink:href="#ArialMT-20" x="216.650391"/>
      <use xlink:href="#ArialMT-74" x="244.433594"/>
      <use xlink:href="#ArialMT-65" x="272.216797"/>
      <use xlink:href="#ArialMT-73" x="327.832031"/>
      <use xlink:href="#ArialMT-74" x="377.832031"/>
     </g>
    </g>
   </g>
  </g>
 </g>
 <defs>
  <clipPath id="p5f31e0d766">
   <rect x="43.645313" y="7.2" width="219.685039" height="174.614173"/>
  </clipPath>
 </defs>
</svg>
