<?xml version="1.0" encoding="utf-8" standalone="no"?>
<!DOCTYPE svg PUBLIC "-//W3C//DTD SVG 1.1//EN"
  "http://www.w3.org/Graphics/SVG/1.1/DTD/svg11.dtd">
<svg xmlns:xlink="http://www.w3.org/1999/xlink" width="273.310821pt" height="217.201107pt" viewBox="0 0 273.310821 217.201107" xmlns="http://www.w3.org/2000/svg" version="1.1">
 <metadata>
  <rdf:RDF xmlns:dc="http://purl.org/dc/elements/1.1/" xmlns:cc="http://creativecommons.org/ns#" xmlns:rdf="http://www.w3.org/1999/02/22-rdf-syntax-ns#">
   <cc:Work>
    <dc:type rdf:resource="http://purl.org/dc/dcmitype/StillImage"/>
    <dc:date>2024-04-03T13:07:21.230333</dc:date>
    <dc:format>image/svg+xml</dc:format>
    <dc:creator>
     <cc:Agent>
      <dc:title>Matplotlib v3.8.2, https://matplotlib.org/</dc:title>
     </cc:Agent>
    </dc:creator>
   </cc:Work>
  </rdf:RDF>
 </metadata>
 <defs>
  <style type="text/css">*{stroke-linejoin: round; stroke-linecap: butt}</style>
 </defs>
 <g id="figure_1">
  <g id="patch_1">
   <path d="M 0 217.201107 
L 273.310821 217.201107 
L 273.310821 0 
L 0 0 
z
" style="fill: #ffffff"/>
  </g>
  <g id="axes_1">
   <g id="patch_2">
    <path d="M 43.645313 182.055794 
L 263.330352 182.055794 
L 263.330352 7.441621 
L 43.645313 7.441621 
z
" style="fill: #ffffff"/>
   </g>
   <g id="matplotlib.axis_1">
    <g id="xtick_1">
     <g id="line2d_1">
      <path d="M 45.820412 182.055794 
L 45.820412 7.441621 
" clip-path="url(#pe9a1489267)" style="fill: none; stroke: #b0b0b0; stroke-width: 0.8; stroke-linecap: square"/>
     </g>
     <g id="line2d_2">
      <defs>
       <path id="m9a4086a4fa" d="M 0 0 
L 0 -3.5 
" style="stroke: #000000; stroke-width: 0.8"/>
      </defs>
      <g>
       <use xlink:href="#m9a4086a4fa" x="45.820412" y="182.055794" style="stroke: #000000; stroke-width: 0.8"/>
      </g>
     </g>
     <g id="text_1">
      <!-- 0 -->
      <g transform="translate(43.039943 192.713607) scale(0.1 -0.1)">
       <defs>
        <path id="ArialMT-30" d="M 266 2259 
Q 266 3072 433 3567 
Q 600 4063 929 4331 
Q 1259 4600 1759 4600 
Q 2128 4600 2406 4451 
Q 2684 4303 2865 4023 
Q 3047 3744 3150 3342 
Q 3253 2941 3253 2259 
Q 3253 1453 3087 958 
Q 2922 463 2592 192 
Q 2263 -78 1759 -78 
Q 1097 -78 719 397 
Q 266 969 266 2259 
z
M 844 2259 
Q 844 1131 1108 757 
Q 1372 384 1759 384 
Q 2147 384 2411 759 
Q 2675 1134 2675 2259 
Q 2675 3391 2411 3762 
Q 2147 4134 1753 4134 
Q 1366 4134 1134 3806 
Q 844 3388 844 2259 
z
" transform="scale(0.015625)"/>
       </defs>
       <use xlink:href="#ArialMT-30"/>
      </g>
     </g>
    </g>
    <g id="xtick_2">
     <g id="line2d_3">
      <path d="M 89.3224 182.055794 
L 89.3224 7.441621 
" clip-path="url(#pe9a1489267)" style="fill: none; stroke: #b0b0b0; stroke-width: 0.8; stroke-linecap: square"/>
     </g>
     <g id="line2d_4">
      <g>
       <use xlink:href="#m9a4086a4fa" x="89.3224" y="182.055794" style="stroke: #000000; stroke-width: 0.8"/>
      </g>
     </g>
     <g id="text_2">
      <!-- 1 -->
      <g transform="translate(86.541931 192.713607) scale(0.1 -0.1)">
       <defs>
        <path id="ArialMT-31" d="M 2384 0 
L 1822 0 
L 1822 3584 
Q 1619 3391 1289 3197 
Q 959 3003 697 2906 
L 697 3450 
Q 1169 3672 1522 3987 
Q 1875 4303 2022 4600 
L 2384 4600 
L 2384 0 
z
" transform="scale(0.015625)"/>
       </defs>
       <use xlink:href="#ArialMT-31"/>
      </g>
     </g>
    </g>
    <g id="xtick_3">
     <g id="line2d_5">
      <path d="M 132.824388 182.055794 
L 132.824388 7.441621 
" clip-path="url(#pe9a1489267)" style="fill: none; stroke: #b0b0b0; stroke-width: 0.8; stroke-linecap: square"/>
     </g>
     <g id="line2d_6">
      <g>
       <use xlink:href="#m9a4086a4fa" x="132.824388" y="182.055794" style="stroke: #000000; stroke-width: 0.8"/>
      </g>
     </g>
     <g id="text_3">
      <!-- 2 -->
      <g transform="translate(130.043919 192.713607) scale(0.1 -0.1)">
       <defs>
        <path id="ArialMT-32" d="M 3222 541 
L 3222 0 
L 194 0 
Q 188 203 259 391 
Q 375 700 629 1000 
Q 884 1300 1366 1694 
Q 2113 2306 2375 2664 
Q 2638 3022 2638 3341 
Q 2638 3675 2398 3904 
Q 2159 4134 1775 4134 
Q 1369 4134 1125 3890 
Q 881 3647 878 3216 
L 300 3275 
Q 359 3922 746 4261 
Q 1134 4600 1788 4600 
Q 2447 4600 2831 4234 
Q 3216 3869 3216 3328 
Q 3216 3053 3103 2787 
Q 2991 2522 2730 2228 
Q 2469 1934 1863 1422 
Q 1356 997 1212 845 
Q 1069 694 975 541 
L 3222 541 
z
" transform="scale(0.015625)"/>
       </defs>
       <use xlink:href="#ArialMT-32"/>
      </g>
     </g>
    </g>
    <g id="xtick_4">
     <g id="line2d_7">
      <path d="M 176.326376 182.055794 
L 176.326376 7.441621 
" clip-path="url(#pe9a1489267)" style="fill: none; stroke: #b0b0b0; stroke-width: 0.8; stroke-linecap: square"/>
     </g>
     <g id="line2d_8">
      <g>
       <use xlink:href="#m9a4086a4fa" x="176.326376" y="182.055794" style="stroke: #000000; stroke-width: 0.8"/>
      </g>
     </g>
     <g id="text_4">
      <!-- 3 -->
      <g transform="translate(173.545907 192.713607) scale(0.1 -0.1)">
       <defs>
        <path id="ArialMT-33" d="M 269 1209 
L 831 1284 
Q 928 806 1161 595 
Q 1394 384 1728 384 
Q 2125 384 2398 659 
Q 2672 934 2672 1341 
Q 2672 1728 2419 1979 
Q 2166 2231 1775 2231 
Q 1616 2231 1378 2169 
L 1441 2663 
Q 1497 2656 1531 2656 
Q 1891 2656 2178 2843 
Q 2466 3031 2466 3422 
Q 2466 3731 2256 3934 
Q 2047 4138 1716 4138 
Q 1388 4138 1169 3931 
Q 950 3725 888 3313 
L 325 3413 
Q 428 3978 793 4289 
Q 1159 4600 1703 4600 
Q 2078 4600 2393 4439 
Q 2709 4278 2876 4000 
Q 3044 3722 3044 3409 
Q 3044 3113 2884 2869 
Q 2725 2625 2413 2481 
Q 2819 2388 3044 2092 
Q 3269 1797 3269 1353 
Q 3269 753 2831 336 
Q 2394 -81 1725 -81 
Q 1122 -81 723 278 
Q 325 638 269 1209 
z
" transform="scale(0.015625)"/>
       </defs>
       <use xlink:href="#ArialMT-33"/>
      </g>
     </g>
    </g>
    <g id="xtick_5">
     <g id="line2d_9">
      <path d="M 219.828364 182.055794 
L 219.828364 7.441621 
" clip-path="url(#pe9a1489267)" style="fill: none; stroke: #b0b0b0; stroke-width: 0.8; stroke-linecap: square"/>
     </g>
     <g id="line2d_10">
      <g>
       <use xlink:href="#m9a4086a4fa" x="219.828364" y="182.055794" style="stroke: #000000; stroke-width: 0.8"/>
      </g>
     </g>
     <g id="text_5">
      <!-- 4 -->
      <g transform="translate(217.047895 192.713607) scale(0.1 -0.1)">
       <defs>
        <path id="ArialMT-34" d="M 2069 0 
L 2069 1097 
L 81 1097 
L 81 1613 
L 2172 4581 
L 2631 4581 
L 2631 1613 
L 3250 1613 
L 3250 1097 
L 2631 1097 
L 2631 0 
L 2069 0 
z
M 2069 1613 
L 2069 3678 
L 634 1613 
L 2069 1613 
z
" transform="scale(0.015625)"/>
       </defs>
       <use xlink:href="#ArialMT-34"/>
      </g>
     </g>
    </g>
    <g id="xtick_6">
     <g id="line2d_11">
      <path d="M 263.330352 182.055794 
L 263.330352 7.441621 
" clip-path="url(#pe9a1489267)" style="fill: none; stroke: #b0b0b0; stroke-width: 0.8; stroke-linecap: square"/>
     </g>
     <g id="line2d_12">
      <g>
       <use xlink:href="#m9a4086a4fa" x="263.330352" y="182.055794" style="stroke: #000000; stroke-width: 0.8"/>
      </g>
     </g>
     <g id="text_6">
      <!-- 5 -->
      <g transform="translate(260.549883 192.713607) scale(0.1 -0.1)">
       <defs>
        <path id="ArialMT-35" d="M 266 1200 
L 856 1250 
Q 922 819 1161 601 
Q 1400 384 1738 384 
Q 2144 384 2425 690 
Q 2706 997 2706 1503 
Q 2706 1984 2436 2262 
Q 2166 2541 1728 2541 
Q 1456 2541 1237 2417 
Q 1019 2294 894 2097 
L 366 2166 
L 809 4519 
L 3088 4519 
L 3088 3981 
L 1259 3981 
L 1013 2750 
Q 1425 3038 1878 3038 
Q 2478 3038 2890 2622 
Q 3303 2206 3303 1553 
Q 3303 931 2941 478 
Q 2500 -78 1738 -78 
Q 1113 -78 717 272 
Q 322 622 266 1200 
z
" transform="scale(0.015625)"/>
       </defs>
       <use xlink:href="#ArialMT-35"/>
      </g>
     </g>
    </g>
    <g id="text_7">
     <!-- Epoch ($\times 10^3$) -->
     <g transform="translate(121.587832 207.801107) scale(0.1 -0.1)">
      <defs>
       <path id="ArialMT-45" d="M 506 0 
L 506 4581 
L 3819 4581 
L 3819 4041 
L 1113 4041 
L 1113 2638 
L 3647 2638 
L 3647 2100 
L 1113 2100 
L 1113 541 
L 3925 541 
L 3925 0 
L 506 0 
z
" transform="scale(0.015625)"/>
       <path id="ArialMT-70" d="M 422 -1272 
L 422 3319 
L 934 3319 
L 934 2888 
Q 1116 3141 1344 3267 
Q 1572 3394 1897 3394 
Q 2322 3394 2647 3175 
Q 2972 2956 3137 2557 
Q 3303 2159 3303 1684 
Q 3303 1175 3120 767 
Q 2938 359 2589 142 
Q 2241 -75 1856 -75 
Q 1575 -75 1351 44 
Q 1128 163 984 344 
L 984 -1272 
L 422 -1272 
z
M 931 1641 
Q 931 1000 1190 694 
Q 1450 388 1819 388 
Q 2194 388 2461 705 
Q 2728 1022 2728 1688 
Q 2728 2322 2467 2637 
Q 2206 2953 1844 2953 
Q 1484 2953 1207 2617 
Q 931 2281 931 1641 
z
" transform="scale(0.015625)"/>
       <path id="ArialMT-6f" d="M 213 1659 
Q 213 2581 725 3025 
Q 1153 3394 1769 3394 
Q 2453 3394 2887 2945 
Q 3322 2497 3322 1706 
Q 3322 1066 3130 698 
Q 2938 331 2570 128 
Q 2203 -75 1769 -75 
Q 1072 -75 642 372 
Q 213 819 213 1659 
z
M 791 1659 
Q 791 1022 1069 705 
Q 1347 388 1769 388 
Q 2188 388 2466 706 
Q 2744 1025 2744 1678 
Q 2744 2294 2464 2611 
Q 2184 2928 1769 2928 
Q 1347 2928 1069 2612 
Q 791 2297 791 1659 
z
" transform="scale(0.015625)"/>
       <path id="ArialMT-63" d="M 2588 1216 
L 3141 1144 
Q 3050 572 2676 248 
Q 2303 -75 1759 -75 
Q 1078 -75 664 370 
Q 250 816 250 1647 
Q 250 2184 428 2587 
Q 606 2991 970 3192 
Q 1334 3394 1763 3394 
Q 2303 3394 2647 3120 
Q 2991 2847 3088 2344 
L 2541 2259 
Q 2463 2594 2264 2762 
Q 2066 2931 1784 2931 
Q 1359 2931 1093 2626 
Q 828 2322 828 1663 
Q 828 994 1084 691 
Q 1341 388 1753 388 
Q 2084 388 2306 591 
Q 2528 794 2588 1216 
z
" transform="scale(0.015625)"/>
       <path id="ArialMT-68" d="M 422 0 
L 422 4581 
L 984 4581 
L 984 2938 
Q 1378 3394 1978 3394 
Q 2347 3394 2619 3248 
Q 2891 3103 3008 2847 
Q 3125 2591 3125 2103 
L 3125 0 
L 2563 0 
L 2563 2103 
Q 2563 2525 2380 2717 
Q 2197 2909 1863 2909 
Q 1613 2909 1392 2779 
Q 1172 2650 1078 2428 
Q 984 2206 984 1816 
L 984 0 
L 422 0 
z
" transform="scale(0.015625)"/>
       <path id="ArialMT-20" transform="scale(0.015625)"/>
       <path id="ArialMT-28" d="M 1497 -1347 
Q 1031 -759 709 28 
Q 388 816 388 1659 
Q 388 2403 628 3084 
Q 909 3875 1497 4659 
L 1900 4659 
Q 1522 4009 1400 3731 
Q 1209 3300 1100 2831 
Q 966 2247 966 1656 
Q 966 153 1900 -1347 
L 1497 -1347 
z
" transform="scale(0.015625)"/>
       <path id="DejaVuSans-d7" d="M 4488 3438 
L 3059 2003 
L 4488 575 
L 4116 197 
L 2681 1631 
L 1247 197 
L 878 575 
L 2303 2003 
L 878 3438 
L 1247 3816 
L 2681 2381 
L 4116 3816 
L 4488 3438 
z
" transform="scale(0.015625)"/>
       <path id="DejaVuSans-31" d="M 794 531 
L 1825 531 
L 1825 4091 
L 703 3866 
L 703 4441 
L 1819 4666 
L 2450 4666 
L 2450 531 
L 3481 531 
L 3481 0 
L 794 0 
L 794 531 
z
" transform="scale(0.015625)"/>
       <path id="DejaVuSans-30" d="M 2034 4250 
Q 1547 4250 1301 3770 
Q 1056 3291 1056 2328 
Q 1056 1369 1301 889 
Q 1547 409 2034 409 
Q 2525 409 2770 889 
Q 3016 1369 3016 2328 
Q 3016 3291 2770 3770 
Q 2525 4250 2034 4250 
z
M 2034 4750 
Q 2819 4750 3233 4129 
Q 3647 3509 3647 2328 
Q 3647 1150 3233 529 
Q 2819 -91 2034 -91 
Q 1250 -91 836 529 
Q 422 1150 422 2328 
Q 422 3509 836 4129 
Q 1250 4750 2034 4750 
z
" transform="scale(0.015625)"/>
       <path id="DejaVuSans-33" d="M 2597 2516 
Q 3050 2419 3304 2112 
Q 3559 1806 3559 1356 
Q 3559 666 3084 287 
Q 2609 -91 1734 -91 
Q 1441 -91 1130 -33 
Q 819 25 488 141 
L 488 750 
Q 750 597 1062 519 
Q 1375 441 1716 441 
Q 2309 441 2620 675 
Q 2931 909 2931 1356 
Q 2931 1769 2642 2001 
Q 2353 2234 1838 2234 
L 1294 2234 
L 1294 2753 
L 1863 2753 
Q 2328 2753 2575 2939 
Q 2822 3125 2822 3475 
Q 2822 3834 2567 4026 
Q 2313 4219 1838 4219 
Q 1578 4219 1281 4162 
Q 984 4106 628 3988 
L 628 4550 
Q 988 4650 1302 4700 
Q 1616 4750 1894 4750 
Q 2613 4750 3031 4423 
Q 3450 4097 3450 3541 
Q 3450 3153 3228 2886 
Q 3006 2619 2597 2516 
z
" transform="scale(0.015625)"/>
       <path id="ArialMT-29" d="M 791 -1347 
L 388 -1347 
Q 1322 153 1322 1656 
Q 1322 2244 1188 2822 
Q 1081 3291 891 3722 
Q 769 4003 388 4659 
L 791 4659 
Q 1378 3875 1659 3084 
Q 1900 2403 1900 1659 
Q 1900 816 1576 28 
Q 1253 -759 791 -1347 
z
" transform="scale(0.015625)"/>
      </defs>
      <use xlink:href="#ArialMT-45" transform="translate(0 0.765625)"/>
      <use xlink:href="#ArialMT-70" transform="translate(66.699219 0.765625)"/>
      <use xlink:href="#ArialMT-6f" transform="translate(122.314453 0.765625)"/>
      <use xlink:href="#ArialMT-63" transform="translate(177.929688 0.765625)"/>
      <use xlink:href="#ArialMT-68" transform="translate(227.929688 0.765625)"/>
      <use xlink:href="#ArialMT-20" transform="translate(283.544922 0.765625)"/>
      <use xlink:href="#ArialMT-28" transform="translate(311.328125 0.765625)"/>
      <use xlink:href="#DejaVuSans-d7" transform="translate(344.628906 0.765625)"/>
      <use xlink:href="#DejaVuSans-31" transform="translate(428.417969 0.765625)"/>
      <use xlink:href="#DejaVuSans-30" transform="translate(492.041016 0.765625)"/>
      <use xlink:href="#DejaVuSans-33" transform="translate(556.621094 39.046875) scale(0.7)"/>
      <use xlink:href="#ArialMT-29" transform="translate(603.891602 0.765625)"/>
     </g>
    </g>
   </g>
   <g id="matplotlib.axis_2">
    <g id="ytick_1">
     <g id="line2d_13">
      <path d="M 43.645313 159.746659 
L 263.330352 159.746659 
" clip-path="url(#pe9a1489267)" style="fill: none; stroke: #b0b0b0; stroke-width: 0.8; stroke-linecap: square"/>
     </g>
     <g id="line2d_14">
      <defs>
       <path id="mb3437e509f" d="M 0 0 
L 3.5 0 
" style="stroke: #000000; stroke-width: 0.8"/>
      </defs>
      <g>
       <use xlink:href="#mb3437e509f" x="43.645313" y="159.746659" style="stroke: #000000; stroke-width: 0.8"/>
      </g>
     </g>
     <g id="text_8">
      <!-- $\mathdefault{10^{-7}}$ -->
      <g transform="translate(20.345313 164.852909) scale(0.1 -0.1)">
       <defs>
        <path id="ArialMT-2212" d="M 3381 1997 
L 356 1997 
L 356 2522 
L 3381 2522 
L 3381 1997 
z
" transform="scale(0.015625)"/>
        <path id="ArialMT-37" d="M 303 3981 
L 303 4522 
L 3269 4522 
L 3269 4084 
Q 2831 3619 2401 2847 
Q 1972 2075 1738 1259 
Q 1569 684 1522 0 
L 944 0 
Q 953 541 1156 1306 
Q 1359 2072 1739 2783 
Q 2119 3494 2547 3981 
L 303 3981 
z
" transform="scale(0.015625)"/>
       </defs>
       <use xlink:href="#ArialMT-31" transform="translate(0 0.846875)"/>
       <use xlink:href="#ArialMT-30" transform="translate(55.615234 0.846875)"/>
       <use xlink:href="#ArialMT-2212" transform="translate(112.972813 70.540625) scale(0.7)"/>
       <use xlink:href="#ArialMT-37" transform="translate(153.851719 70.540625) scale(0.7)"/>
      </g>
     </g>
    </g>
    <g id="ytick_2">
     <g id="line2d_15">
      <path d="M 43.645313 122.899057 
L 263.330352 122.899057 
" clip-path="url(#pe9a1489267)" style="fill: none; stroke: #b0b0b0; stroke-width: 0.8; stroke-linecap: square"/>
     </g>
     <g id="line2d_16">
      <g>
       <use xlink:href="#mb3437e509f" x="43.645313" y="122.899057" style="stroke: #000000; stroke-width: 0.8"/>
      </g>
     </g>
     <g id="text_9">
      <!-- $\mathdefault{10^{-6}}$ -->
      <g transform="translate(20.345313 128.055307) scale(0.1 -0.1)">
       <defs>
        <path id="ArialMT-36" d="M 3184 3459 
L 2625 3416 
Q 2550 3747 2413 3897 
Q 2184 4138 1850 4138 
Q 1581 4138 1378 3988 
Q 1113 3794 959 3422 
Q 806 3050 800 2363 
Q 1003 2672 1297 2822 
Q 1591 2972 1913 2972 
Q 2475 2972 2870 2558 
Q 3266 2144 3266 1488 
Q 3266 1056 3080 686 
Q 2894 316 2569 119 
Q 2244 -78 1831 -78 
Q 1128 -78 684 439 
Q 241 956 241 2144 
Q 241 3472 731 4075 
Q 1159 4600 1884 4600 
Q 2425 4600 2770 4297 
Q 3116 3994 3184 3459 
z
M 888 1484 
Q 888 1194 1011 928 
Q 1134 663 1356 523 
Q 1578 384 1822 384 
Q 2178 384 2434 671 
Q 2691 959 2691 1453 
Q 2691 1928 2437 2201 
Q 2184 2475 1800 2475 
Q 1419 2475 1153 2201 
Q 888 1928 888 1484 
z
" transform="scale(0.015625)"/>
       </defs>
       <use xlink:href="#ArialMT-31" transform="translate(0 0.99375)"/>
       <use xlink:href="#ArialMT-30" transform="translate(55.615234 0.99375)"/>
       <use xlink:href="#ArialMT-2212" transform="translate(112.972813 70.6875) scale(0.7)"/>
       <use xlink:href="#ArialMT-36" transform="translate(153.851719 70.6875) scale(0.7)"/>
      </g>
     </g>
    </g>
    <g id="ytick_3">
     <g id="line2d_17">
      <path d="M 43.645313 86.051455 
L 263.330352 86.051455 
" clip-path="url(#pe9a1489267)" style="fill: none; stroke: #b0b0b0; stroke-width: 0.8; stroke-linecap: square"/>
     </g>
     <g id="line2d_18">
      <g>
       <use xlink:href="#mb3437e509f" x="43.645313" y="86.051455" style="stroke: #000000; stroke-width: 0.8"/>
      </g>
     </g>
     <g id="text_10">
      <!-- $\mathdefault{10^{-5}}$ -->
      <g transform="translate(20.345313 91.157705) scale(0.1 -0.1)">
       <use xlink:href="#ArialMT-31" transform="translate(0 0.879688)"/>
       <use xlink:href="#ArialMT-30" transform="translate(55.615234 0.879688)"/>
       <use xlink:href="#ArialMT-2212" transform="translate(112.972813 70.573438) scale(0.7)"/>
       <use xlink:href="#ArialMT-35" transform="translate(153.851719 70.573438) scale(0.7)"/>
      </g>
     </g>
    </g>
    <g id="ytick_4">
     <g id="line2d_19">
      <path d="M 43.645313 49.203852 
L 263.330352 49.203852 
" clip-path="url(#pe9a1489267)" style="fill: none; stroke: #b0b0b0; stroke-width: 0.8; stroke-linecap: square"/>
     </g>
     <g id="line2d_20">
      <g>
       <use xlink:href="#mb3437e509f" x="43.645313" y="49.203852" style="stroke: #000000; stroke-width: 0.8"/>
      </g>
     </g>
     <g id="text_11">
      <!-- $\mathdefault{10^{-4}}$ -->
      <g transform="translate(20.345313 54.310102) scale(0.1 -0.1)">
       <use xlink:href="#ArialMT-31" transform="translate(0 0.201563)"/>
       <use xlink:href="#ArialMT-30" transform="translate(55.615234 0.201563)"/>
       <use xlink:href="#ArialMT-2212" transform="translate(112.972813 69.895313) scale(0.7)"/>
       <use xlink:href="#ArialMT-34" transform="translate(153.851719 69.895313) scale(0.7)"/>
      </g>
     </g>
    </g>
    <g id="ytick_5">
     <g id="line2d_21">
      <path d="M 43.645313 12.35625 
L 263.330352 12.35625 
" clip-path="url(#pe9a1489267)" style="fill: none; stroke: #b0b0b0; stroke-width: 0.8; stroke-linecap: square"/>
     </g>
     <g id="line2d_22">
      <g>
       <use xlink:href="#mb3437e509f" x="43.645313" y="12.35625" style="stroke: #000000; stroke-width: 0.8"/>
      </g>
     </g>
     <g id="text_12">
      <!-- $\mathdefault{10^{-3}}$ -->
      <g transform="translate(20.345313 17.5125) scale(0.1 -0.1)">
       <use xlink:href="#ArialMT-31" transform="translate(0 0.99375)"/>
       <use xlink:href="#ArialMT-30" transform="translate(55.615234 0.99375)"/>
       <use xlink:href="#ArialMT-2212" transform="translate(112.972813 70.6875) scale(0.7)"/>
       <use xlink:href="#ArialMT-33" transform="translate(153.851719 70.6875) scale(0.7)"/>
      </g>
     </g>
    </g>
    <g id="ytick_6">
     <g id="line2d_23">
      <defs>
       <path id="m5042137dfd" d="M 0 0 
L 2 0 
" style="stroke: #000000; stroke-width: 0.6"/>
      </defs>
      <g>
       <use xlink:href="#m5042137dfd" x="43.645313" y="179.013487" style="stroke: #000000; stroke-width: 0.6"/>
      </g>
     </g>
    </g>
    <g id="ytick_7">
     <g id="line2d_24">
      <g>
       <use xlink:href="#m5042137dfd" x="43.645313" y="174.409794" style="stroke: #000000; stroke-width: 0.6"/>
      </g>
     </g>
    </g>
    <g id="ytick_8">
     <g id="line2d_25">
      <g>
       <use xlink:href="#m5042137dfd" x="43.645313" y="170.838893" style="stroke: #000000; stroke-width: 0.6"/>
      </g>
     </g>
    </g>
    <g id="ytick_9">
     <g id="line2d_26">
      <g>
       <use xlink:href="#m5042137dfd" x="43.645313" y="167.921254" style="stroke: #000000; stroke-width: 0.6"/>
      </g>
     </g>
    </g>
    <g id="ytick_10">
     <g id="line2d_27">
      <g>
       <use xlink:href="#m5042137dfd" x="43.645313" y="165.454425" style="stroke: #000000; stroke-width: 0.6"/>
      </g>
     </g>
    </g>
    <g id="ytick_11">
     <g id="line2d_28">
      <g>
       <use xlink:href="#m5042137dfd" x="43.645313" y="163.317561" style="stroke: #000000; stroke-width: 0.6"/>
      </g>
     </g>
    </g>
    <g id="ytick_12">
     <g id="line2d_29">
      <g>
       <use xlink:href="#m5042137dfd" x="43.645313" y="161.432713" style="stroke: #000000; stroke-width: 0.6"/>
      </g>
     </g>
    </g>
    <g id="ytick_13">
     <g id="line2d_30">
      <g>
       <use xlink:href="#m5042137dfd" x="43.645313" y="148.654426" style="stroke: #000000; stroke-width: 0.6"/>
      </g>
     </g>
    </g>
    <g id="ytick_14">
     <g id="line2d_31">
      <g>
       <use xlink:href="#m5042137dfd" x="43.645313" y="142.165885" style="stroke: #000000; stroke-width: 0.6"/>
      </g>
     </g>
    </g>
    <g id="ytick_15">
     <g id="line2d_32">
      <g>
       <use xlink:href="#m5042137dfd" x="43.645313" y="137.562192" style="stroke: #000000; stroke-width: 0.6"/>
      </g>
     </g>
    </g>
    <g id="ytick_16">
     <g id="line2d_33">
      <g>
       <use xlink:href="#m5042137dfd" x="43.645313" y="133.99129" style="stroke: #000000; stroke-width: 0.6"/>
      </g>
     </g>
    </g>
    <g id="ytick_17">
     <g id="line2d_34">
      <g>
       <use xlink:href="#m5042137dfd" x="43.645313" y="131.073651" style="stroke: #000000; stroke-width: 0.6"/>
      </g>
     </g>
    </g>
    <g id="ytick_18">
     <g id="line2d_35">
      <g>
       <use xlink:href="#m5042137dfd" x="43.645313" y="128.606823" style="stroke: #000000; stroke-width: 0.6"/>
      </g>
     </g>
    </g>
    <g id="ytick_19">
     <g id="line2d_36">
      <g>
       <use xlink:href="#m5042137dfd" x="43.645313" y="126.469958" style="stroke: #000000; stroke-width: 0.6"/>
      </g>
     </g>
    </g>
    <g id="ytick_20">
     <g id="line2d_37">
      <g>
       <use xlink:href="#m5042137dfd" x="43.645313" y="124.585111" style="stroke: #000000; stroke-width: 0.6"/>
      </g>
     </g>
    </g>
    <g id="ytick_21">
     <g id="line2d_38">
      <g>
       <use xlink:href="#m5042137dfd" x="43.645313" y="111.806823" style="stroke: #000000; stroke-width: 0.6"/>
      </g>
     </g>
    </g>
    <g id="ytick_22">
     <g id="line2d_39">
      <g>
       <use xlink:href="#m5042137dfd" x="43.645313" y="105.318283" style="stroke: #000000; stroke-width: 0.6"/>
      </g>
     </g>
    </g>
    <g id="ytick_23">
     <g id="line2d_40">
      <g>
       <use xlink:href="#m5042137dfd" x="43.645313" y="100.71459" style="stroke: #000000; stroke-width: 0.6"/>
      </g>
     </g>
    </g>
    <g id="ytick_24">
     <g id="line2d_41">
      <g>
       <use xlink:href="#m5042137dfd" x="43.645313" y="97.143688" style="stroke: #000000; stroke-width: 0.6"/>
      </g>
     </g>
    </g>
    <g id="ytick_25">
     <g id="line2d_42">
      <g>
       <use xlink:href="#m5042137dfd" x="43.645313" y="94.226049" style="stroke: #000000; stroke-width: 0.6"/>
      </g>
     </g>
    </g>
    <g id="ytick_26">
     <g id="line2d_43">
      <g>
       <use xlink:href="#m5042137dfd" x="43.645313" y="91.75922" style="stroke: #000000; stroke-width: 0.6"/>
      </g>
     </g>
    </g>
    <g id="ytick_27">
     <g id="line2d_44">
      <g>
       <use xlink:href="#m5042137dfd" x="43.645313" y="89.622356" style="stroke: #000000; stroke-width: 0.6"/>
      </g>
     </g>
    </g>
    <g id="ytick_28">
     <g id="line2d_45">
      <g>
       <use xlink:href="#m5042137dfd" x="43.645313" y="87.737508" style="stroke: #000000; stroke-width: 0.6"/>
      </g>
     </g>
    </g>
    <g id="ytick_29">
     <g id="line2d_46">
      <g>
       <use xlink:href="#m5042137dfd" x="43.645313" y="74.959221" style="stroke: #000000; stroke-width: 0.6"/>
      </g>
     </g>
    </g>
    <g id="ytick_30">
     <g id="line2d_47">
      <g>
       <use xlink:href="#m5042137dfd" x="43.645313" y="68.47068" style="stroke: #000000; stroke-width: 0.6"/>
      </g>
     </g>
    </g>
    <g id="ytick_31">
     <g id="line2d_48">
      <g>
       <use xlink:href="#m5042137dfd" x="43.645313" y="63.866987" style="stroke: #000000; stroke-width: 0.6"/>
      </g>
     </g>
    </g>
    <g id="ytick_32">
     <g id="line2d_49">
      <g>
       <use xlink:href="#m5042137dfd" x="43.645313" y="60.296086" style="stroke: #000000; stroke-width: 0.6"/>
      </g>
     </g>
    </g>
    <g id="ytick_33">
     <g id="line2d_50">
      <g>
       <use xlink:href="#m5042137dfd" x="43.645313" y="57.378447" style="stroke: #000000; stroke-width: 0.6"/>
      </g>
     </g>
    </g>
    <g id="ytick_34">
     <g id="line2d_51">
      <g>
       <use xlink:href="#m5042137dfd" x="43.645313" y="54.911618" style="stroke: #000000; stroke-width: 0.6"/>
      </g>
     </g>
    </g>
    <g id="ytick_35">
     <g id="line2d_52">
      <g>
       <use xlink:href="#m5042137dfd" x="43.645313" y="52.774754" style="stroke: #000000; stroke-width: 0.6"/>
      </g>
     </g>
    </g>
    <g id="ytick_36">
     <g id="line2d_53">
      <g>
       <use xlink:href="#m5042137dfd" x="43.645313" y="50.889906" style="stroke: #000000; stroke-width: 0.6"/>
      </g>
     </g>
    </g>
    <g id="ytick_37">
     <g id="line2d_54">
      <g>
       <use xlink:href="#m5042137dfd" x="43.645313" y="38.111619" style="stroke: #000000; stroke-width: 0.6"/>
      </g>
     </g>
    </g>
    <g id="ytick_38">
     <g id="line2d_55">
      <g>
       <use xlink:href="#m5042137dfd" x="43.645313" y="31.623078" style="stroke: #000000; stroke-width: 0.6"/>
      </g>
     </g>
    </g>
    <g id="ytick_39">
     <g id="line2d_56">
      <g>
       <use xlink:href="#m5042137dfd" x="43.645313" y="27.019385" style="stroke: #000000; stroke-width: 0.6"/>
      </g>
     </g>
    </g>
    <g id="ytick_40">
     <g id="line2d_57">
      <g>
       <use xlink:href="#m5042137dfd" x="43.645313" y="23.448484" style="stroke: #000000; stroke-width: 0.6"/>
      </g>
     </g>
    </g>
    <g id="ytick_41">
     <g id="line2d_58">
      <g>
       <use xlink:href="#m5042137dfd" x="43.645313" y="20.530844" style="stroke: #000000; stroke-width: 0.6"/>
      </g>
     </g>
    </g>
    <g id="ytick_42">
     <g id="line2d_59">
      <g>
       <use xlink:href="#m5042137dfd" x="43.645313" y="18.064016" style="stroke: #000000; stroke-width: 0.6"/>
      </g>
     </g>
    </g>
    <g id="ytick_43">
     <g id="line2d_60">
      <g>
       <use xlink:href="#m5042137dfd" x="43.645313" y="15.927152" style="stroke: #000000; stroke-width: 0.6"/>
      </g>
     </g>
    </g>
    <g id="ytick_44">
     <g id="line2d_61">
      <g>
       <use xlink:href="#m5042137dfd" x="43.645313" y="14.042304" style="stroke: #000000; stroke-width: 0.6"/>
      </g>
     </g>
    </g>
    <g id="text_13">
     <!-- Loss -->
     <g transform="translate(14.357813 105.309645) rotate(-90) scale(0.1 -0.1)">
      <defs>
       <path id="ArialMT-4c" d="M 469 0 
L 469 4581 
L 1075 4581 
L 1075 541 
L 3331 541 
L 3331 0 
L 469 0 
z
" transform="scale(0.015625)"/>
       <path id="ArialMT-73" d="M 197 991 
L 753 1078 
Q 800 744 1014 566 
Q 1228 388 1613 388 
Q 2000 388 2187 545 
Q 2375 703 2375 916 
Q 2375 1106 2209 1216 
Q 2094 1291 1634 1406 
Q 1016 1563 777 1677 
Q 538 1791 414 1992 
Q 291 2194 291 2438 
Q 291 2659 392 2848 
Q 494 3038 669 3163 
Q 800 3259 1026 3326 
Q 1253 3394 1513 3394 
Q 1903 3394 2198 3281 
Q 2494 3169 2634 2976 
Q 2775 2784 2828 2463 
L 2278 2388 
Q 2241 2644 2061 2787 
Q 1881 2931 1553 2931 
Q 1166 2931 1000 2803 
Q 834 2675 834 2503 
Q 834 2394 903 2306 
Q 972 2216 1119 2156 
Q 1203 2125 1616 2013 
Q 2213 1853 2448 1751 
Q 2684 1650 2818 1456 
Q 2953 1263 2953 975 
Q 2953 694 2789 445 
Q 2625 197 2315 61 
Q 2006 -75 1616 -75 
Q 969 -75 630 194 
Q 291 463 197 991 
z
" transform="scale(0.015625)"/>
      </defs>
      <use xlink:href="#ArialMT-4c"/>
      <use xlink:href="#ArialMT-6f" x="55.615234"/>
      <use xlink:href="#ArialMT-73" x="111.230469"/>
      <use xlink:href="#ArialMT-73" x="161.230469"/>
     </g>
    </g>
   </g>
   <g id="line2d_62">
    <path d="M 45.820412 91.499047 
L 46.342436 105.564691 
L 46.820958 112.065613 
L 47.386483 116.638724 
L 48.039013 120.160329 
L 48.909053 123.575318 
L 50.083607 127.237851 
L 51.345164 130.443654 
L 52.432714 132.623735 
L 53.476762 134.239591 
L 54.651315 135.643457 
L 56.043379 136.955605 
L 57.870463 138.347422 
L 60.045562 139.709115 
L 62.307665 140.889487 
L 65.439808 142.226139 
L 68.876466 143.40526 
L 73.226664 144.608159 
L 78.794919 145.866761 
L 87.495316 147.525806 
L 109.594326 151.245954 
L 133.911938 155.168969 
L 138.740658 155.946436 
L 168.97454 160.841151 
L 171.062635 161.181655 
L 185.940315 163.52654 
L 186.288331 163.60139 
L 187.767399 163.829612 
L 194.510207 164.868828 
L 240.143792 171.316558 
L 240.361302 171.19368 
L 240.491808 171.182519 
L 240.665816 171.38848 
L 240.839824 171.379671 
L 241.013832 171.406382 
L 241.796868 171.545114 
L 244.493991 171.892357 
L 254.586452 173.138654 
L 256.979062 173.365131 
L 257.283576 173.356916 
L 257.544587 173.468893 
L 257.849101 173.527051 
L 260.111205 173.765493 
L 260.894241 173.837883 
L 261.285758 173.913204 
L 263.28685 174.078234 
L 263.28685 174.078234 
" clip-path="url(#pe9a1489267)" style="fill: none; stroke: #0000ff; stroke-width: 1.5; stroke-linecap: square"/>
   </g>
   <g id="line2d_63">
    <path d="M 45.820412 86.754178 
L 46.255432 98.512966 
L 46.777456 105.639302 
L 47.168974 108.57216 
L 47.821503 111.701667 
L 48.474033 113.482765 
L 49.822595 116.630164 
L 50.866643 118.406216 
L 51.823686 119.636542 
L 52.824232 120.594503 
L 53.911782 121.30788 
L 55.042833 121.786229 
L 56.521901 122.164644 
L 58.566494 122.460546 
L 61.916147 122.744292 
L 68.96347 123.112871 
L 79.621457 123.393419 
L 93.455089 123.963871 
L 105.374633 124.807926 
L 122.688425 126.288395 
L 157.011493 129.152981 
L 161.75321 129.522218 
L 168.713528 130.064577 
L 169.018042 130.05114 
L 169.148548 130.127261 
L 169.279054 130.058841 
L 169.40956 130.116952 
L 175.97836 130.589012 
L 176.108866 130.643451 
L 176.239372 130.563049 
L 176.369878 130.681373 
L 176.41338 130.594133 
L 176.500384 130.649768 
L 176.63089 130.608453 
L 176.761396 130.668911 
L 177.326922 130.712274 
L 177.587934 130.721022 
L 177.935949 130.760799 
L 178.196961 130.764526 
L 178.631981 130.803024 
L 185.722805 131.326427 
L 185.853311 131.287347 
L 185.983817 131.372669 
L 186.114323 131.263431 
L 186.244829 131.353163 
L 186.592845 131.393749 
L 186.723351 131.353732 
L 186.897359 131.413835 
L 187.071367 131.399435 
L 187.332379 131.426042 
L 187.680395 131.437443 
L 187.984909 131.460266 
L 188.463431 131.50237 
L 189.637984 131.578866 
L 193.292151 131.819074 
L 203.34111 132.353956 
L 203.471616 132.480424 
L 203.515118 132.348899 
L 203.602122 132.400144 
L 203.77613 132.479217 
L 203.906636 132.430052 
L 204.298154 132.485651 
L 204.42866 132.459039 
L 204.733174 132.486987 
L 206.777767 132.596389 
L 211.127966 132.798289 
L 211.693492 132.832195 
L 211.998006 132.807444 
L 212.128512 132.884724 
L 212.259018 132.771327 
L 212.389524 132.907969 
L 212.433026 132.818045 
L 212.52003 132.875163 
L 212.650536 132.819582 
L 212.781042 132.894767 
L 213.085556 132.904207 
L 213.564078 132.897284 
L 213.738086 132.914928 
L 215.173651 132.974895 
L 216.087193 133.014543 
L 217.392253 133.059159 
L 218.566806 133.104963 
L 219.567352 133.112496 
L 219.697858 133.181687 
L 219.828364 133.062817 
L 219.95887 133.223917 
L 220.002372 133.074902 
L 220.089376 133.143042 
L 221.785953 133.223078 
L 222.046965 133.222532 
L 222.655993 133.24302 
L 223.874049 133.278117 
L 224.961598 133.311037 
L 225.962144 133.331067 
L 227.136698 133.412375 
L 227.267204 133.27362 
L 227.39771 133.462704 
L 227.441212 133.273171 
L 227.528216 133.333252 
L 227.702224 133.441051 
L 227.83273 133.337701 
L 228.006738 133.425082 
L 228.137244 133.355487 
L 228.26775 133.396822 
L 228.615765 133.413259 
L 228.876777 133.41519 
L 233.836004 133.570318 
L 233.96651 133.41122 
L 234.053514 133.389218 
L 234.097016 133.626474 
L 234.140518 133.38744 
L 234.227522 133.436539 
L 234.271024 133.566578 
L 234.358028 133.503621 
L 234.488534 133.600042 
L 234.532036 133.446142 
L 234.61904 133.477163 
L 234.749546 133.517176 
L 234.880052 133.58614 
L 235.010558 133.517068 
L 235.184566 133.561351 
L 235.315072 133.508852 
L 235.48908 133.551832 
L 235.793593 133.531571 
L 235.967601 133.569305 
L 236.141609 133.561053 
L 236.489625 133.547581 
L 236.837641 133.561719 
L 239.752274 133.591581 
L 239.969784 133.636503 
L 240.10029 133.530527 
L 240.187294 133.489502 
L 240.230796 133.726474 
L 240.3178 133.796398 
L 240.361302 133.323601 
L 240.404804 133.848748 
L 240.491808 133.801933 
L 240.53531 133.480289 
L 240.578812 133.645688 
L 240.622314 133.676046 
L 240.709318 133.794806 
L 240.75282 133.408463 
L 240.796322 133.753395 
L 240.883326 133.593831 
L 240.926828 133.714541 
L 240.97033 133.482018 
L 241.013832 133.745729 
L 241.057334 133.509707 
L 241.100836 133.672905 
L 241.18784 133.575348 
L 241.274844 133.521986 
L 241.318346 133.715537 
L 241.361848 133.560773 
L 241.448852 133.661853 
L 241.535856 133.71188 
L 241.579358 133.551616 
L 241.62286 133.669212 
L 241.709864 133.598082 
L 241.84037 133.671432 
L 242.014378 133.610241 
L 242.144884 133.665149 
L 242.318892 133.603515 
L 242.449398 133.660381 
L 242.623406 133.615046 
L 242.753912 133.650001 
L 243.145429 133.645387 
L 247.060608 133.65979 
L 247.191114 133.71198 
L 247.32162 133.640963 
L 247.452126 133.715846 
L 247.582632 133.611075 
L 247.713138 133.752452 
L 247.843644 133.564881 
L 247.930648 133.523751 
L 247.97415 133.842258 
L 248.061154 133.880449 
L 248.104656 133.439128 
L 248.19166 133.425788 
L 248.235162 133.901842 
L 248.278664 133.452748 
L 248.365668 133.51618 
L 248.40917 133.791893 
L 248.496174 133.69396 
L 248.539676 133.723473 
L 248.62668 133.792118 
L 248.670182 133.554757 
L 248.713684 133.808277 
L 248.800688 133.784963 
L 248.84419 133.613711 
L 248.931194 133.681306 
L 249.0617 133.619132 
L 249.192206 133.765411 
L 249.322712 133.633317 
L 249.453218 133.683012 
L 249.583724 133.7456 
L 249.71423 133.621106 
L 249.757732 133.754268 
L 249.844736 133.72406 
L 250.018744 133.674596 
L 250.14925 133.711176 
L 250.279755 133.661541 
L 250.410261 133.721154 
L 250.540767 133.665108 
L 250.671273 133.705647 
L 250.888783 133.68696 
L 251.236799 133.692669 
L 251.715321 133.752366 
L 251.802325 133.78571 
L 251.845827 133.580032 
L 251.932831 133.531502 
L 251.976333 133.882375 
L 252.063337 133.94252 
L 252.106839 133.377278 
L 252.193843 133.316342 
L 252.237345 134.033778 
L 252.280847 133.335132 
L 252.367851 133.487896 
L 252.411353 133.801126 
L 252.454855 133.698252 
L 252.498357 133.608506 
L 252.585361 133.488933 
L 252.628863 133.902394 
L 252.672365 133.502071 
L 252.759369 133.621775 
L 252.846373 133.765721 
L 252.933377 133.840101 
L 252.976879 133.548169 
L 253.020381 133.830181 
L 253.107385 133.759426 
L 253.194389 133.655872 
L 253.281393 133.597704 
L 253.324895 133.810187 
L 253.368397 133.603931 
L 253.455401 133.665441 
L 253.629409 133.763072 
L 253.759915 133.653889 
L 253.89042 133.687076 
L 254.020926 133.761289 
L 254.151432 133.653369 
L 254.281938 133.691241 
L 254.412444 133.754779 
L 254.54295 133.662646 
L 254.673456 133.706575 
L 256.71805 133.788736 
L 256.805054 133.82892 
L 256.848556 133.540427 
L 256.93556 133.473267 
L 256.979062 133.950893 
L 257.066066 134.009581 
L 257.109568 133.346628 
L 257.15307 134.026932 
L 257.240074 133.97313 
L 257.283576 133.467654 
L 257.37058 133.639767 
L 257.457583 133.79224 
L 257.544587 133.868958 
L 257.588089 133.516921 
L 257.631591 133.871111 
L 257.718595 133.817865 
L 257.762097 133.630451 
L 257.849101 133.7092 
L 257.979607 133.623563 
L 258.110113 133.777619 
L 258.153615 133.647947 
L 258.240619 133.686933 
L 258.414627 133.747583 
L 258.545133 133.637658 
L 258.675639 133.74548 
L 258.806145 133.691919 
L 259.676185 133.718511 
L 259.806691 133.657438 
L 259.937197 133.748411 
L 260.067703 133.606302 
L 260.154707 133.583446 
L 260.198209 133.802972 
L 260.285213 133.835056 
L 260.328715 133.527808 
L 260.415719 133.49575 
L 260.459221 133.895148 
L 260.546225 133.911464 
L 260.589727 133.462644 
L 260.633229 133.90817 
L 260.720233 133.891908 
L 260.763735 133.498396 
L 260.850739 133.554456 
L 260.894241 133.792718 
L 260.981245 133.727621 
L 261.155252 133.643523 
L 261.285758 133.772882 
L 261.416264 133.616247 
L 261.54677 133.763454 
L 261.677276 133.642444 
L 261.807782 133.731936 
L 261.938288 133.675302 
L 262.1993 133.703633 
L 262.460312 133.68601 
L 262.85183 133.734259 
L 262.982336 133.589729 
L 263.06934 133.558443 
L 263.112842 133.833912 
L 263.199846 133.882727 
L 263.243348 133.427579 
L 263.28685 133.959285 
L 263.28685 133.959285 
" clip-path="url(#pe9a1489267)" style="fill: none; stroke-dasharray: 5.55,2.4; stroke-dashoffset: 0; stroke: #0000ff; stroke-width: 1.5"/>
   </g>
   <g id="line2d_64">
    <path d="M 45.820412 15.378629 
L 45.99442 39.025312 
L 46.472942 55.725872 
L 46.907962 62.553261 
L 47.386483 66.915679 
L 47.908507 69.646478 
L 48.517535 71.635255 
L 49.518081 74.025544 
L 51.432168 77.932275 
L 53.346256 81.378718 
L 55.216841 84.302411 
L 57.087427 86.821409 
L 59.001514 89.042007 
L 61.002606 91.049518 
L 63.308211 93.043543 
L 65.91833 94.974773 
L 68.658956 96.709076 
L 71.443083 98.234266 
L 74.836238 99.852311 
L 78.316397 101.314859 
L 84.711189 103.660053 
L 91.410495 105.80082 
L 97.544276 107.54212 
L 104.156578 109.210741 
L 111.508414 110.848175 
L 117.859704 112.103452 
L 125.124536 113.387322 
L 146.179498 116.441698 
L 167.799986 118.899561 
L 183.156188 120.383245 
L 200.295971 121.882742 
L 211.998006 122.839874 
L 219.784862 123.456908 
L 219.784862 123.456908 
" clip-path="url(#pe9a1489267)" style="fill: none; stroke: #ff0000; stroke-width: 1.5; stroke-linecap: square"/>
   </g>
   <g id="line2d_65">
    <path d="M 45.820412 17.985124 
L 46.037922 34.696156 
L 46.472942 48.617084 
L 46.951464 55.685763 
L 47.429985 59.756357 
L 47.952009 62.353794 
L 48.604539 64.4229 
L 49.692089 66.997341 
L 51.388666 70.455881 
L 53.041742 73.374978 
L 54.651315 75.755062 
L 56.173885 77.599963 
L 57.739957 79.146169 
L 59.436534 80.517289 
L 61.394124 81.836858 
L 64.656773 83.682957 
L 68.571952 85.613021 
L 74.140206 88.082854 
L 80.404492 90.627902 
L 88.626368 93.716467 
L 96.239216 96.301239 
L 105.200626 98.896788 
L 111.725924 100.452926 
L 118.816748 101.84358 
L 124.3415 102.737768 
L 130.257771 103.544139 
L 136.130539 104.218629 
L 142.786343 104.860285 
L 149.268139 105.382073 
L 161.666206 106.147255 
L 185.113777 106.912271 
L 204.037142 106.962021 
L 218.87132 106.657587 
L 219.784862 106.629378 
L 219.784862 106.629378 
" clip-path="url(#pe9a1489267)" style="fill: none; stroke-dasharray: 5.55,2.4; stroke-dashoffset: 0; stroke: #ff0000; stroke-width: 1.5"/>
   </g>
   <g id="patch_3">
    <path d="M 43.645313 182.055794 
L 43.645313 7.441621 
" style="fill: none; stroke: #000000; stroke-width: 0.8; stroke-linejoin: miter; stroke-linecap: square"/>
   </g>
   <g id="patch_4">
    <path d="M 263.330352 182.055794 
L 263.330352 7.441621 
" style="fill: none; stroke: #000000; stroke-width: 0.8; stroke-linejoin: miter; stroke-linecap: square"/>
   </g>
   <g id="patch_5">
    <path d="M 43.645313 182.055794 
L 263.330352 182.055794 
" style="fill: none; stroke: #000000; stroke-width: 0.8; stroke-linejoin: miter; stroke-linecap: square"/>
   </g>
   <g id="patch_6">
    <path d="M 43.645313 7.441621 
L 263.330352 7.441621 
" style="fill: none; stroke: #000000; stroke-width: 0.8; stroke-linejoin: miter; stroke-linecap: square"/>
   </g>
   <g id="legend_1">
    <g id="patch_7">
     <path d="M 158.199102 72.257246 
L 256.330352 72.257246 
Q 258.330352 72.257246 258.330352 70.257246 
L 258.330352 14.441621 
Q 258.330352 12.441621 256.330352 12.441621 
L 158.199102 12.441621 
Q 156.199102 12.441621 156.199102 14.441621 
L 156.199102 70.257246 
Q 156.199102 72.257246 158.199102 72.257246 
z
" style="fill: #ffffff; opacity: 0.8; stroke: #000000; stroke-linejoin: miter"/>
    </g>
    <g id="line2d_66">
     <path d="M 160.199102 20.099433 
L 170.199102 20.099433 
L 180.199102 20.099433 
" style="fill: none; stroke: #0000ff; stroke-width: 1.5; stroke-linecap: square"/>
    </g>
    <g id="text_14">
     <!-- BiRNN training -->
     <g transform="translate(188.199102 23.599433) scale(0.1 -0.1)">
      <defs>
       <path id="ArialMT-42" d="M 469 0 
L 469 4581 
L 2188 4581 
Q 2713 4581 3030 4442 
Q 3347 4303 3526 4014 
Q 3706 3725 3706 3409 
Q 3706 3116 3547 2856 
Q 3388 2597 3066 2438 
Q 3481 2316 3704 2022 
Q 3928 1728 3928 1328 
Q 3928 1006 3792 729 
Q 3656 453 3456 303 
Q 3256 153 2954 76 
Q 2653 0 2216 0 
L 469 0 
z
M 1075 2656 
L 2066 2656 
Q 2469 2656 2644 2709 
Q 2875 2778 2992 2937 
Q 3109 3097 3109 3338 
Q 3109 3566 3000 3739 
Q 2891 3913 2687 3977 
Q 2484 4041 1991 4041 
L 1075 4041 
L 1075 2656 
z
M 1075 541 
L 2216 541 
Q 2509 541 2628 563 
Q 2838 600 2978 687 
Q 3119 775 3209 942 
Q 3300 1109 3300 1328 
Q 3300 1584 3169 1773 
Q 3038 1963 2805 2039 
Q 2572 2116 2134 2116 
L 1075 2116 
L 1075 541 
z
" transform="scale(0.015625)"/>
       <path id="ArialMT-69" d="M 425 3934 
L 425 4581 
L 988 4581 
L 988 3934 
L 425 3934 
z
M 425 0 
L 425 3319 
L 988 3319 
L 988 0 
L 425 0 
z
" transform="scale(0.015625)"/>
       <path id="ArialMT-52" d="M 503 0 
L 503 4581 
L 2534 4581 
Q 3147 4581 3465 4457 
Q 3784 4334 3975 4021 
Q 4166 3709 4166 3331 
Q 4166 2844 3850 2509 
Q 3534 2175 2875 2084 
Q 3116 1969 3241 1856 
Q 3506 1613 3744 1247 
L 4541 0 
L 3778 0 
L 3172 953 
Q 2906 1366 2734 1584 
Q 2563 1803 2427 1890 
Q 2291 1978 2150 2013 
Q 2047 2034 1813 2034 
L 1109 2034 
L 1109 0 
L 503 0 
z
M 1109 2559 
L 2413 2559 
Q 2828 2559 3062 2645 
Q 3297 2731 3419 2920 
Q 3541 3109 3541 3331 
Q 3541 3656 3305 3865 
Q 3069 4075 2559 4075 
L 1109 4075 
L 1109 2559 
z
" transform="scale(0.015625)"/>
       <path id="ArialMT-4e" d="M 488 0 
L 488 4581 
L 1109 4581 
L 3516 984 
L 3516 4581 
L 4097 4581 
L 4097 0 
L 3475 0 
L 1069 3600 
L 1069 0 
L 488 0 
z
" transform="scale(0.015625)"/>
       <path id="ArialMT-74" d="M 1650 503 
L 1731 6 
Q 1494 -44 1306 -44 
Q 1000 -44 831 53 
Q 663 150 594 308 
Q 525 466 525 972 
L 525 2881 
L 113 2881 
L 113 3319 
L 525 3319 
L 525 4141 
L 1084 4478 
L 1084 3319 
L 1650 3319 
L 1650 2881 
L 1084 2881 
L 1084 941 
Q 1084 700 1114 631 
Q 1144 563 1211 522 
Q 1278 481 1403 481 
Q 1497 481 1650 503 
z
" transform="scale(0.015625)"/>
       <path id="ArialMT-72" d="M 416 0 
L 416 3319 
L 922 3319 
L 922 2816 
Q 1116 3169 1280 3281 
Q 1444 3394 1641 3394 
Q 1925 3394 2219 3213 
L 2025 2691 
Q 1819 2813 1613 2813 
Q 1428 2813 1281 2702 
Q 1134 2591 1072 2394 
Q 978 2094 978 1738 
L 978 0 
L 416 0 
z
" transform="scale(0.015625)"/>
       <path id="ArialMT-61" d="M 2588 409 
Q 2275 144 1986 34 
Q 1697 -75 1366 -75 
Q 819 -75 525 192 
Q 231 459 231 875 
Q 231 1119 342 1320 
Q 453 1522 633 1644 
Q 813 1766 1038 1828 
Q 1203 1872 1538 1913 
Q 2219 1994 2541 2106 
Q 2544 2222 2544 2253 
Q 2544 2597 2384 2738 
Q 2169 2928 1744 2928 
Q 1347 2928 1158 2789 
Q 969 2650 878 2297 
L 328 2372 
Q 403 2725 575 2942 
Q 747 3159 1072 3276 
Q 1397 3394 1825 3394 
Q 2250 3394 2515 3294 
Q 2781 3194 2906 3042 
Q 3031 2891 3081 2659 
Q 3109 2516 3109 2141 
L 3109 1391 
Q 3109 606 3145 398 
Q 3181 191 3288 0 
L 2700 0 
Q 2613 175 2588 409 
z
M 2541 1666 
Q 2234 1541 1622 1453 
Q 1275 1403 1131 1340 
Q 988 1278 909 1158 
Q 831 1038 831 891 
Q 831 666 1001 516 
Q 1172 366 1500 366 
Q 1825 366 2078 508 
Q 2331 650 2450 897 
Q 2541 1088 2541 1459 
L 2541 1666 
z
" transform="scale(0.015625)"/>
       <path id="ArialMT-6e" d="M 422 0 
L 422 3319 
L 928 3319 
L 928 2847 
Q 1294 3394 1984 3394 
Q 2284 3394 2536 3286 
Q 2788 3178 2913 3003 
Q 3038 2828 3088 2588 
Q 3119 2431 3119 2041 
L 3119 0 
L 2556 0 
L 2556 2019 
Q 2556 2363 2490 2533 
Q 2425 2703 2258 2804 
Q 2091 2906 1866 2906 
Q 1506 2906 1245 2678 
Q 984 2450 984 1813 
L 984 0 
L 422 0 
z
" transform="scale(0.015625)"/>
       <path id="ArialMT-67" d="M 319 -275 
L 866 -356 
Q 900 -609 1056 -725 
Q 1266 -881 1628 -881 
Q 2019 -881 2231 -725 
Q 2444 -569 2519 -288 
Q 2563 -116 2559 434 
Q 2191 0 1641 0 
Q 956 0 581 494 
Q 206 988 206 1678 
Q 206 2153 378 2554 
Q 550 2956 876 3175 
Q 1203 3394 1644 3394 
Q 2231 3394 2613 2919 
L 2613 3319 
L 3131 3319 
L 3131 450 
Q 3131 -325 2973 -648 
Q 2816 -972 2473 -1159 
Q 2131 -1347 1631 -1347 
Q 1038 -1347 672 -1080 
Q 306 -813 319 -275 
z
M 784 1719 
Q 784 1066 1043 766 
Q 1303 466 1694 466 
Q 2081 466 2343 764 
Q 2606 1063 2606 1700 
Q 2606 2309 2336 2618 
Q 2066 2928 1684 2928 
Q 1309 2928 1046 2623 
Q 784 2319 784 1719 
z
" transform="scale(0.015625)"/>
      </defs>
      <use xlink:href="#ArialMT-42"/>
      <use xlink:href="#ArialMT-69" x="66.699219"/>
      <use xlink:href="#ArialMT-52" x="88.916016"/>
      <use xlink:href="#ArialMT-4e" x="161.132812"/>
      <use xlink:href="#ArialMT-4e" x="233.349609"/>
      <use xlink:href="#ArialMT-20" x="305.566406"/>
      <use xlink:href="#ArialMT-74" x="333.349609"/>
      <use xlink:href="#ArialMT-72" x="361.132812"/>
      <use xlink:href="#ArialMT-61" x="394.433594"/>
      <use xlink:href="#ArialMT-69" x="450.048828"/>
      <use xlink:href="#ArialMT-6e" x="472.265625"/>
      <use xlink:href="#ArialMT-69" x="527.880859"/>
      <use xlink:href="#ArialMT-6e" x="550.097656"/>
      <use xlink:href="#ArialMT-67" x="605.712891"/>
     </g>
    </g>
    <g id="line2d_67">
     <path d="M 160.199102 34.361933 
L 170.199102 34.361933 
L 180.199102 34.361933 
" style="fill: none; stroke-dasharray: 5.55,2.4; stroke-dashoffset: 0; stroke: #0000ff; stroke-width: 1.5"/>
    </g>
    <g id="text_15">
     <!-- BiRNN test -->
     <g transform="translate(188.199102 37.861933) scale(0.1 -0.1)">
      <defs>
       <path id="ArialMT-65" d="M 2694 1069 
L 3275 997 
Q 3138 488 2766 206 
Q 2394 -75 1816 -75 
Q 1088 -75 661 373 
Q 234 822 234 1631 
Q 234 2469 665 2931 
Q 1097 3394 1784 3394 
Q 2450 3394 2872 2941 
Q 3294 2488 3294 1666 
Q 3294 1616 3291 1516 
L 816 1516 
Q 847 969 1125 678 
Q 1403 388 1819 388 
Q 2128 388 2347 550 
Q 2566 713 2694 1069 
z
M 847 1978 
L 2700 1978 
Q 2663 2397 2488 2606 
Q 2219 2931 1791 2931 
Q 1403 2931 1139 2672 
Q 875 2413 847 1978 
z
" transform="scale(0.015625)"/>
      </defs>
      <use xlink:href="#ArialMT-42"/>
      <use xlink:href="#ArialMT-69" x="66.699219"/>
      <use xlink:href="#ArialMT-52" x="88.916016"/>
      <use xlink:href="#ArialMT-4e" x="161.132812"/>
      <use xlink:href="#ArialMT-4e" x="233.349609"/>
      <use xlink:href="#ArialMT-20" x="305.566406"/>
      <use xlink:href="#ArialMT-74" x="333.349609"/>
      <use xlink:href="#ArialMT-65" x="361.132812"/>
      <use xlink:href="#ArialMT-73" x="416.748047"/>
      <use xlink:href="#ArialMT-74" x="466.748047"/>
     </g>
    </g>
    <g id="line2d_68">
     <path d="M 160.199102 48.507246 
L 170.199102 48.507246 
L 180.199102 48.507246 
" style="fill: none; stroke: #ff0000; stroke-width: 1.5; stroke-linecap: square"/>
    </g>
    <g id="text_16">
     <!-- RNN training -->
     <g transform="translate(188.199102 52.007246) scale(0.1 -0.1)">
      <use xlink:href="#ArialMT-52"/>
      <use xlink:href="#ArialMT-4e" x="72.216797"/>
      <use xlink:href="#ArialMT-4e" x="144.433594"/>
      <use xlink:href="#ArialMT-20" x="216.650391"/>
      <use xlink:href="#ArialMT-74" x="244.433594"/>
      <use xlink:href="#ArialMT-72" x="272.216797"/>
      <use xlink:href="#ArialMT-61" x="305.517578"/>
      <use xlink:href="#ArialMT-69" x="361.132812"/>
      <use xlink:href="#ArialMT-6e" x="383.349609"/>
      <use xlink:href="#ArialMT-69" x="438.964844"/>
      <use xlink:href="#ArialMT-6e" x="461.181641"/>
      <use xlink:href="#ArialMT-67" x="516.796875"/>
     </g>
    </g>
    <g id="line2d_69">
     <path d="M 160.199102 62.769746 
L 170.199102 62.769746 
L 180.199102 62.769746 
" style="fill: none; stroke-dasharray: 5.55,2.4; stroke-dashoffset: 0; stroke: #ff0000; stroke-width: 1.5"/>
    </g>
    <g id="text_17">
     <!-- RNN test -->
     <g transform="translate(188.199102 66.269746) scale(0.1 -0.1)">
      <use xlink:href="#ArialMT-52"/>
      <use xlink:href="#ArialMT-4e" x="72.216797"/>
      <use xlink:href="#ArialMT-4e" x="144.433594"/>
      <use xlink:href="#ArialMT-20" x="216.650391"/>
      <use xlink:href="#ArialMT-74" x="244.433594"/>
      <use xlink:href="#ArialMT-65" x="272.216797"/>
      <use xlink:href="#ArialMT-73" x="327.832031"/>
      <use xlink:href="#ArialMT-74" x="377.832031"/>
     </g>
    </g>
   </g>
  </g>
 </g>
 <defs>
  <clipPath id="pe9a1489267">
   <rect x="43.645313" y="7.441621" width="219.685039" height="174.614173"/>
  </clipPath>
 </defs>
</svg>
