<?xml version="1.0" encoding="utf-8" standalone="no"?>
<!DOCTYPE svg PUBLIC "-//W3C//DTD SVG 1.1//EN"
  "http://www.w3.org/Graphics/SVG/1.1/DTD/svg11.dtd">
<svg xmlns:xlink="http://www.w3.org/1999/xlink" width="271.699834pt" height="214.804798pt" viewBox="0 0 271.699834 214.804798" xmlns="http://www.w3.org/2000/svg" version="1.1">
 <metadata>
  <rdf:RDF xmlns:dc="http://purl.org/dc/elements/1.1/" xmlns:cc="http://creativecommons.org/ns#" xmlns:rdf="http://www.w3.org/1999/02/22-rdf-syntax-ns#">
   <cc:Work>
    <dc:type rdf:resource="http://purl.org/dc/dcmitype/StillImage"/>
    <dc:date>2024-03-17T22:23:05.003736</dc:date>
    <dc:format>image/svg+xml</dc:format>
    <dc:creator>
     <cc:Agent>
      <dc:title>Matplotlib v3.8.2, https://matplotlib.org/</dc:title>
     </cc:Agent>
    </dc:creator>
   </cc:Work>
  </rdf:RDF>
 </metadata>
 <defs>
  <style type="text/css">*{stroke-linejoin: round; stroke-linecap: butt}</style>
 </defs>
 <g id="figure_1">
  <g id="patch_1">
   <path d="M 0 214.804798 
L 271.699834 214.804798 
L 271.699834 0 
L 0 0 
z
" style="fill: #ffffff"/>
  </g>
  <g id="axes_1">
   <g id="patch_2">
    <path d="M 43.645313 181.814173 
L 263.330352 181.814173 
L 263.330352 7.2 
L 43.645313 7.2 
z
" style="fill: #ffffff"/>
   </g>
   <g id="matplotlib.axis_1">
    <g id="xtick_1">
     <g id="line2d_1">
      <path d="M 53.630996 181.814173 
L 53.630996 7.2 
" clip-path="url(#pc7b52c6346)" style="fill: none; stroke: #b0b0b0; stroke-width: 0.8; stroke-linecap: square"/>
     </g>
     <g id="line2d_2">
      <defs>
       <path id="mf3845c62b8" d="M 0 0 
L 0 -3.5 
" style="stroke: #000000; stroke-width: 0.8"/>
      </defs>
      <g>
       <use xlink:href="#mf3845c62b8" x="53.630996" y="181.814173" style="stroke: #000000; stroke-width: 0.8"/>
      </g>
     </g>
     <g id="text_1">
      <!-- 0 -->
      <g transform="translate(50.850527 192.471986) scale(0.1 -0.1)">
       <defs>
        <path id="ArialMT-30" d="M 266 2259 
Q 266 3072 433 3567 
Q 600 4063 929 4331 
Q 1259 4600 1759 4600 
Q 2128 4600 2406 4451 
Q 2684 4303 2865 4023 
Q 3047 3744 3150 3342 
Q 3253 2941 3253 2259 
Q 3253 1453 3087 958 
Q 2922 463 2592 192 
Q 2263 -78 1759 -78 
Q 1097 -78 719 397 
Q 266 969 266 2259 
z
M 844 2259 
Q 844 1131 1108 757 
Q 1372 384 1759 384 
Q 2147 384 2411 759 
Q 2675 1134 2675 2259 
Q 2675 3391 2411 3762 
Q 2147 4134 1753 4134 
Q 1366 4134 1134 3806 
Q 844 3388 844 2259 
z
" transform="scale(0.015625)"/>
       </defs>
       <use xlink:href="#ArialMT-30"/>
      </g>
     </g>
    </g>
    <g id="xtick_2">
     <g id="line2d_3">
      <path d="M 86.922157 181.814173 
L 86.922157 7.2 
" clip-path="url(#pc7b52c6346)" style="fill: none; stroke: #b0b0b0; stroke-width: 0.8; stroke-linecap: square"/>
     </g>
     <g id="line2d_4">
      <g>
       <use xlink:href="#mf3845c62b8" x="86.922157" y="181.814173" style="stroke: #000000; stroke-width: 0.8"/>
      </g>
     </g>
     <g id="text_2">
      <!-- 1000 -->
      <g transform="translate(75.800282 192.471986) scale(0.1 -0.1)">
       <defs>
        <path id="ArialMT-31" d="M 2384 0 
L 1822 0 
L 1822 3584 
Q 1619 3391 1289 3197 
Q 959 3003 697 2906 
L 697 3450 
Q 1169 3672 1522 3987 
Q 1875 4303 2022 4600 
L 2384 4600 
L 2384 0 
z
" transform="scale(0.015625)"/>
       </defs>
       <use xlink:href="#ArialMT-31"/>
       <use xlink:href="#ArialMT-30" x="55.615234"/>
       <use xlink:href="#ArialMT-30" x="111.230469"/>
       <use xlink:href="#ArialMT-30" x="166.845703"/>
      </g>
     </g>
    </g>
    <g id="xtick_3">
     <g id="line2d_5">
      <path d="M 120.213317 181.814173 
L 120.213317 7.2 
" clip-path="url(#pc7b52c6346)" style="fill: none; stroke: #b0b0b0; stroke-width: 0.8; stroke-linecap: square"/>
     </g>
     <g id="line2d_6">
      <g>
       <use xlink:href="#mf3845c62b8" x="120.213317" y="181.814173" style="stroke: #000000; stroke-width: 0.8"/>
      </g>
     </g>
     <g id="text_3">
      <!-- 2000 -->
      <g transform="translate(109.091442 192.471986) scale(0.1 -0.1)">
       <defs>
        <path id="ArialMT-32" d="M 3222 541 
L 3222 0 
L 194 0 
Q 188 203 259 391 
Q 375 700 629 1000 
Q 884 1300 1366 1694 
Q 2113 2306 2375 2664 
Q 2638 3022 2638 3341 
Q 2638 3675 2398 3904 
Q 2159 4134 1775 4134 
Q 1369 4134 1125 3890 
Q 881 3647 878 3216 
L 300 3275 
Q 359 3922 746 4261 
Q 1134 4600 1788 4600 
Q 2447 4600 2831 4234 
Q 3216 3869 3216 3328 
Q 3216 3053 3103 2787 
Q 2991 2522 2730 2228 
Q 2469 1934 1863 1422 
Q 1356 997 1212 845 
Q 1069 694 975 541 
L 3222 541 
z
" transform="scale(0.015625)"/>
       </defs>
       <use xlink:href="#ArialMT-32"/>
       <use xlink:href="#ArialMT-30" x="55.615234"/>
       <use xlink:href="#ArialMT-30" x="111.230469"/>
       <use xlink:href="#ArialMT-30" x="166.845703"/>
      </g>
     </g>
    </g>
    <g id="xtick_4">
     <g id="line2d_7">
      <path d="M 153.504478 181.814173 
L 153.504478 7.2 
" clip-path="url(#pc7b52c6346)" style="fill: none; stroke: #b0b0b0; stroke-width: 0.8; stroke-linecap: square"/>
     </g>
     <g id="line2d_8">
      <g>
       <use xlink:href="#mf3845c62b8" x="153.504478" y="181.814173" style="stroke: #000000; stroke-width: 0.8"/>
      </g>
     </g>
     <g id="text_4">
      <!-- 3000 -->
      <g transform="translate(142.382603 192.471986) scale(0.1 -0.1)">
       <defs>
        <path id="ArialMT-33" d="M 269 1209 
L 831 1284 
Q 928 806 1161 595 
Q 1394 384 1728 384 
Q 2125 384 2398 659 
Q 2672 934 2672 1341 
Q 2672 1728 2419 1979 
Q 2166 2231 1775 2231 
Q 1616 2231 1378 2169 
L 1441 2663 
Q 1497 2656 1531 2656 
Q 1891 2656 2178 2843 
Q 2466 3031 2466 3422 
Q 2466 3731 2256 3934 
Q 2047 4138 1716 4138 
Q 1388 4138 1169 3931 
Q 950 3725 888 3313 
L 325 3413 
Q 428 3978 793 4289 
Q 1159 4600 1703 4600 
Q 2078 4600 2393 4439 
Q 2709 4278 2876 4000 
Q 3044 3722 3044 3409 
Q 3044 3113 2884 2869 
Q 2725 2625 2413 2481 
Q 2819 2388 3044 2092 
Q 3269 1797 3269 1353 
Q 3269 753 2831 336 
Q 2394 -81 1725 -81 
Q 1122 -81 723 278 
Q 325 638 269 1209 
z
" transform="scale(0.015625)"/>
       </defs>
       <use xlink:href="#ArialMT-33"/>
       <use xlink:href="#ArialMT-30" x="55.615234"/>
       <use xlink:href="#ArialMT-30" x="111.230469"/>
       <use xlink:href="#ArialMT-30" x="166.845703"/>
      </g>
     </g>
    </g>
    <g id="xtick_5">
     <g id="line2d_9">
      <path d="M 186.795638 181.814173 
L 186.795638 7.2 
" clip-path="url(#pc7b52c6346)" style="fill: none; stroke: #b0b0b0; stroke-width: 0.8; stroke-linecap: square"/>
     </g>
     <g id="line2d_10">
      <g>
       <use xlink:href="#mf3845c62b8" x="186.795638" y="181.814173" style="stroke: #000000; stroke-width: 0.8"/>
      </g>
     </g>
     <g id="text_5">
      <!-- 4000 -->
      <g transform="translate(175.673763 192.471986) scale(0.1 -0.1)">
       <defs>
        <path id="ArialMT-34" d="M 2069 0 
L 2069 1097 
L 81 1097 
L 81 1613 
L 2172 4581 
L 2631 4581 
L 2631 1613 
L 3250 1613 
L 3250 1097 
L 2631 1097 
L 2631 0 
L 2069 0 
z
M 2069 1613 
L 2069 3678 
L 634 1613 
L 2069 1613 
z
" transform="scale(0.015625)"/>
       </defs>
       <use xlink:href="#ArialMT-34"/>
       <use xlink:href="#ArialMT-30" x="55.615234"/>
       <use xlink:href="#ArialMT-30" x="111.230469"/>
       <use xlink:href="#ArialMT-30" x="166.845703"/>
      </g>
     </g>
    </g>
    <g id="xtick_6">
     <g id="line2d_11">
      <path d="M 220.086799 181.814173 
L 220.086799 7.2 
" clip-path="url(#pc7b52c6346)" style="fill: none; stroke: #b0b0b0; stroke-width: 0.8; stroke-linecap: square"/>
     </g>
     <g id="line2d_12">
      <g>
       <use xlink:href="#mf3845c62b8" x="220.086799" y="181.814173" style="stroke: #000000; stroke-width: 0.8"/>
      </g>
     </g>
     <g id="text_6">
      <!-- 5000 -->
      <g transform="translate(208.964924 192.471986) scale(0.1 -0.1)">
       <defs>
        <path id="ArialMT-35" d="M 266 1200 
L 856 1250 
Q 922 819 1161 601 
Q 1400 384 1738 384 
Q 2144 384 2425 690 
Q 2706 997 2706 1503 
Q 2706 1984 2436 2262 
Q 2166 2541 1728 2541 
Q 1456 2541 1237 2417 
Q 1019 2294 894 2097 
L 366 2166 
L 809 4519 
L 3088 4519 
L 3088 3981 
L 1259 3981 
L 1013 2750 
Q 1425 3038 1878 3038 
Q 2478 3038 2890 2622 
Q 3303 2206 3303 1553 
Q 3303 931 2941 478 
Q 2500 -78 1738 -78 
Q 1113 -78 717 272 
Q 322 622 266 1200 
z
" transform="scale(0.015625)"/>
       </defs>
       <use xlink:href="#ArialMT-35"/>
       <use xlink:href="#ArialMT-30" x="55.615234"/>
       <use xlink:href="#ArialMT-30" x="111.230469"/>
       <use xlink:href="#ArialMT-30" x="166.845703"/>
      </g>
     </g>
    </g>
    <g id="xtick_7">
     <g id="line2d_13">
      <path d="M 253.377959 181.814173 
L 253.377959 7.2 
" clip-path="url(#pc7b52c6346)" style="fill: none; stroke: #b0b0b0; stroke-width: 0.8; stroke-linecap: square"/>
     </g>
     <g id="line2d_14">
      <g>
       <use xlink:href="#mf3845c62b8" x="253.377959" y="181.814173" style="stroke: #000000; stroke-width: 0.8"/>
      </g>
     </g>
     <g id="text_7">
      <!-- 6000 -->
      <g transform="translate(242.256084 192.471986) scale(0.1 -0.1)">
       <defs>
        <path id="ArialMT-36" d="M 3184 3459 
L 2625 3416 
Q 2550 3747 2413 3897 
Q 2184 4138 1850 4138 
Q 1581 4138 1378 3988 
Q 1113 3794 959 3422 
Q 806 3050 800 2363 
Q 1003 2672 1297 2822 
Q 1591 2972 1913 2972 
Q 2475 2972 2870 2558 
Q 3266 2144 3266 1488 
Q 3266 1056 3080 686 
Q 2894 316 2569 119 
Q 2244 -78 1831 -78 
Q 1128 -78 684 439 
Q 241 956 241 2144 
Q 241 3472 731 4075 
Q 1159 4600 1884 4600 
Q 2425 4600 2770 4297 
Q 3116 3994 3184 3459 
z
M 888 1484 
Q 888 1194 1011 928 
Q 1134 663 1356 523 
Q 1578 384 1822 384 
Q 2178 384 2434 671 
Q 2691 959 2691 1453 
Q 2691 1928 2437 2201 
Q 2184 2475 1800 2475 
Q 1419 2475 1153 2201 
Q 888 1928 888 1484 
z
" transform="scale(0.015625)"/>
       </defs>
       <use xlink:href="#ArialMT-36"/>
       <use xlink:href="#ArialMT-30" x="55.615234"/>
       <use xlink:href="#ArialMT-30" x="111.230469"/>
       <use xlink:href="#ArialMT-30" x="166.845703"/>
      </g>
     </g>
    </g>
    <g id="text_8">
     <!-- Epoch -->
     <g transform="translate(139.31127 205.617298) scale(0.1 -0.1)">
      <defs>
       <path id="ArialMT-45" d="M 506 0 
L 506 4581 
L 3819 4581 
L 3819 4041 
L 1113 4041 
L 1113 2638 
L 3647 2638 
L 3647 2100 
L 1113 2100 
L 1113 541 
L 3925 541 
L 3925 0 
L 506 0 
z
" transform="scale(0.015625)"/>
       <path id="ArialMT-70" d="M 422 -1272 
L 422 3319 
L 934 3319 
L 934 2888 
Q 1116 3141 1344 3267 
Q 1572 3394 1897 3394 
Q 2322 3394 2647 3175 
Q 2972 2956 3137 2557 
Q 3303 2159 3303 1684 
Q 3303 1175 3120 767 
Q 2938 359 2589 142 
Q 2241 -75 1856 -75 
Q 1575 -75 1351 44 
Q 1128 163 984 344 
L 984 -1272 
L 422 -1272 
z
M 931 1641 
Q 931 1000 1190 694 
Q 1450 388 1819 388 
Q 2194 388 2461 705 
Q 2728 1022 2728 1688 
Q 2728 2322 2467 2637 
Q 2206 2953 1844 2953 
Q 1484 2953 1207 2617 
Q 931 2281 931 1641 
z
" transform="scale(0.015625)"/>
       <path id="ArialMT-6f" d="M 213 1659 
Q 213 2581 725 3025 
Q 1153 3394 1769 3394 
Q 2453 3394 2887 2945 
Q 3322 2497 3322 1706 
Q 3322 1066 3130 698 
Q 2938 331 2570 128 
Q 2203 -75 1769 -75 
Q 1072 -75 642 372 
Q 213 819 213 1659 
z
M 791 1659 
Q 791 1022 1069 705 
Q 1347 388 1769 388 
Q 2188 388 2466 706 
Q 2744 1025 2744 1678 
Q 2744 2294 2464 2611 
Q 2184 2928 1769 2928 
Q 1347 2928 1069 2612 
Q 791 2297 791 1659 
z
" transform="scale(0.015625)"/>
       <path id="ArialMT-63" d="M 2588 1216 
L 3141 1144 
Q 3050 572 2676 248 
Q 2303 -75 1759 -75 
Q 1078 -75 664 370 
Q 250 816 250 1647 
Q 250 2184 428 2587 
Q 606 2991 970 3192 
Q 1334 3394 1763 3394 
Q 2303 3394 2647 3120 
Q 2991 2847 3088 2344 
L 2541 2259 
Q 2463 2594 2264 2762 
Q 2066 2931 1784 2931 
Q 1359 2931 1093 2626 
Q 828 2322 828 1663 
Q 828 994 1084 691 
Q 1341 388 1753 388 
Q 2084 388 2306 591 
Q 2528 794 2588 1216 
z
" transform="scale(0.015625)"/>
       <path id="ArialMT-68" d="M 422 0 
L 422 4581 
L 984 4581 
L 984 2938 
Q 1378 3394 1978 3394 
Q 2347 3394 2619 3248 
Q 2891 3103 3008 2847 
Q 3125 2591 3125 2103 
L 3125 0 
L 2563 0 
L 2563 2103 
Q 2563 2525 2380 2717 
Q 2197 2909 1863 2909 
Q 1613 2909 1392 2779 
Q 1172 2650 1078 2428 
Q 984 2206 984 1816 
L 984 0 
L 422 0 
z
" transform="scale(0.015625)"/>
      </defs>
      <use xlink:href="#ArialMT-45"/>
      <use xlink:href="#ArialMT-70" x="66.699219"/>
      <use xlink:href="#ArialMT-6f" x="122.314453"/>
      <use xlink:href="#ArialMT-63" x="177.929688"/>
      <use xlink:href="#ArialMT-68" x="227.929688"/>
     </g>
    </g>
   </g>
   <g id="matplotlib.axis_2">
    <g id="ytick_1">
     <g id="line2d_15">
      <path d="M 43.645313 145.804054 
L 263.330352 145.804054 
" clip-path="url(#pc7b52c6346)" style="fill: none; stroke: #b0b0b0; stroke-width: 0.8; stroke-linecap: square"/>
     </g>
     <g id="line2d_16">
      <defs>
       <path id="md846e93238" d="M 0 0 
L 3.5 0 
" style="stroke: #000000; stroke-width: 0.8"/>
      </defs>
      <g>
       <use xlink:href="#md846e93238" x="43.645313" y="145.804054" style="stroke: #000000; stroke-width: 0.8"/>
      </g>
     </g>
     <g id="text_9">
      <!-- $\mathdefault{10^{-7}}$ -->
      <g transform="translate(20.345313 150.910304) scale(0.1 -0.1)">
       <defs>
        <path id="ArialMT-2212" d="M 3381 1997 
L 356 1997 
L 356 2522 
L 3381 2522 
L 3381 1997 
z
" transform="scale(0.015625)"/>
        <path id="ArialMT-37" d="M 303 3981 
L 303 4522 
L 3269 4522 
L 3269 4084 
Q 2831 3619 2401 2847 
Q 1972 2075 1738 1259 
Q 1569 684 1522 0 
L 944 0 
Q 953 541 1156 1306 
Q 1359 2072 1739 2783 
Q 2119 3494 2547 3981 
L 303 3981 
z
" transform="scale(0.015625)"/>
       </defs>
       <use xlink:href="#ArialMT-31" transform="translate(0 0.846875)"/>
       <use xlink:href="#ArialMT-30" transform="translate(55.615234 0.846875)"/>
       <use xlink:href="#ArialMT-2212" transform="translate(112.972813 70.540625) scale(0.7)"/>
       <use xlink:href="#ArialMT-37" transform="translate(153.851719 70.540625) scale(0.7)"/>
      </g>
     </g>
    </g>
    <g id="ytick_2">
     <g id="line2d_17">
      <path d="M 43.645313 105.834749 
L 263.330352 105.834749 
" clip-path="url(#pc7b52c6346)" style="fill: none; stroke: #b0b0b0; stroke-width: 0.8; stroke-linecap: square"/>
     </g>
     <g id="line2d_18">
      <g>
       <use xlink:href="#md846e93238" x="43.645313" y="105.834749" style="stroke: #000000; stroke-width: 0.8"/>
      </g>
     </g>
     <g id="text_10">
      <!-- $\mathdefault{10^{-6}}$ -->
      <g transform="translate(20.345313 110.990999) scale(0.1 -0.1)">
       <use xlink:href="#ArialMT-31" transform="translate(0 0.99375)"/>
       <use xlink:href="#ArialMT-30" transform="translate(55.615234 0.99375)"/>
       <use xlink:href="#ArialMT-2212" transform="translate(112.972813 70.6875) scale(0.7)"/>
       <use xlink:href="#ArialMT-36" transform="translate(153.851719 70.6875) scale(0.7)"/>
      </g>
     </g>
    </g>
    <g id="ytick_3">
     <g id="line2d_19">
      <path d="M 43.645313 65.865444 
L 263.330352 65.865444 
" clip-path="url(#pc7b52c6346)" style="fill: none; stroke: #b0b0b0; stroke-width: 0.8; stroke-linecap: square"/>
     </g>
     <g id="line2d_20">
      <g>
       <use xlink:href="#md846e93238" x="43.645313" y="65.865444" style="stroke: #000000; stroke-width: 0.8"/>
      </g>
     </g>
     <g id="text_11">
      <!-- $\mathdefault{10^{-5}}$ -->
      <g transform="translate(20.345313 70.971694) scale(0.1 -0.1)">
       <use xlink:href="#ArialMT-31" transform="translate(0 0.879688)"/>
       <use xlink:href="#ArialMT-30" transform="translate(55.615234 0.879688)"/>
       <use xlink:href="#ArialMT-2212" transform="translate(112.972813 70.573438) scale(0.7)"/>
       <use xlink:href="#ArialMT-35" transform="translate(153.851719 70.573438) scale(0.7)"/>
      </g>
     </g>
    </g>
    <g id="ytick_4">
     <g id="line2d_21">
      <path d="M 43.645313 25.896139 
L 263.330352 25.896139 
" clip-path="url(#pc7b52c6346)" style="fill: none; stroke: #b0b0b0; stroke-width: 0.8; stroke-linecap: square"/>
     </g>
     <g id="line2d_22">
      <g>
       <use xlink:href="#md846e93238" x="43.645313" y="25.896139" style="stroke: #000000; stroke-width: 0.8"/>
      </g>
     </g>
     <g id="text_12">
      <!-- $\mathdefault{10^{-4}}$ -->
      <g transform="translate(20.345313 31.002389) scale(0.1 -0.1)">
       <use xlink:href="#ArialMT-31" transform="translate(0 0.201563)"/>
       <use xlink:href="#ArialMT-30" transform="translate(55.615234 0.201563)"/>
       <use xlink:href="#ArialMT-2212" transform="translate(112.972813 69.895313) scale(0.7)"/>
       <use xlink:href="#ArialMT-34" transform="translate(153.851719 69.895313) scale(0.7)"/>
      </g>
     </g>
    </g>
    <g id="ytick_5">
     <g id="line2d_23">
      <defs>
       <path id="m0ded1e1a1b" d="M 0 0 
L 2 0 
" style="stroke: #000000; stroke-width: 0.6"/>
      </defs>
      <g>
       <use xlink:href="#m0ded1e1a1b" x="43.645313" y="173.741399" style="stroke: #000000; stroke-width: 0.6"/>
      </g>
     </g>
    </g>
    <g id="ytick_6">
     <g id="line2d_24">
      <g>
       <use xlink:href="#m0ded1e1a1b" x="43.645313" y="166.703154" style="stroke: #000000; stroke-width: 0.6"/>
      </g>
     </g>
    </g>
    <g id="ytick_7">
     <g id="line2d_25">
      <g>
       <use xlink:href="#m0ded1e1a1b" x="43.645313" y="161.709439" style="stroke: #000000; stroke-width: 0.6"/>
      </g>
     </g>
    </g>
    <g id="ytick_8">
     <g id="line2d_26">
      <g>
       <use xlink:href="#m0ded1e1a1b" x="43.645313" y="157.836013" style="stroke: #000000; stroke-width: 0.6"/>
      </g>
     </g>
    </g>
    <g id="ytick_9">
     <g id="line2d_27">
      <g>
       <use xlink:href="#m0ded1e1a1b" x="43.645313" y="154.671194" style="stroke: #000000; stroke-width: 0.6"/>
      </g>
     </g>
    </g>
    <g id="ytick_10">
     <g id="line2d_28">
      <g>
       <use xlink:href="#m0ded1e1a1b" x="43.645313" y="151.995377" style="stroke: #000000; stroke-width: 0.6"/>
      </g>
     </g>
    </g>
    <g id="ytick_11">
     <g id="line2d_29">
      <g>
       <use xlink:href="#m0ded1e1a1b" x="43.645313" y="149.67748" style="stroke: #000000; stroke-width: 0.6"/>
      </g>
     </g>
    </g>
    <g id="ytick_12">
     <g id="line2d_30">
      <g>
       <use xlink:href="#m0ded1e1a1b" x="43.645313" y="147.632949" style="stroke: #000000; stroke-width: 0.6"/>
      </g>
     </g>
    </g>
    <g id="ytick_13">
     <g id="line2d_31">
      <g>
       <use xlink:href="#m0ded1e1a1b" x="43.645313" y="133.772094" style="stroke: #000000; stroke-width: 0.6"/>
      </g>
     </g>
    </g>
    <g id="ytick_14">
     <g id="line2d_32">
      <g>
       <use xlink:href="#m0ded1e1a1b" x="43.645313" y="126.733849" style="stroke: #000000; stroke-width: 0.6"/>
      </g>
     </g>
    </g>
    <g id="ytick_15">
     <g id="line2d_33">
      <g>
       <use xlink:href="#m0ded1e1a1b" x="43.645313" y="121.740134" style="stroke: #000000; stroke-width: 0.6"/>
      </g>
     </g>
    </g>
    <g id="ytick_16">
     <g id="line2d_34">
      <g>
       <use xlink:href="#m0ded1e1a1b" x="43.645313" y="117.866708" style="stroke: #000000; stroke-width: 0.6"/>
      </g>
     </g>
    </g>
    <g id="ytick_17">
     <g id="line2d_35">
      <g>
       <use xlink:href="#m0ded1e1a1b" x="43.645313" y="114.701889" style="stroke: #000000; stroke-width: 0.6"/>
      </g>
     </g>
    </g>
    <g id="ytick_18">
     <g id="line2d_36">
      <g>
       <use xlink:href="#m0ded1e1a1b" x="43.645313" y="112.026072" style="stroke: #000000; stroke-width: 0.6"/>
      </g>
     </g>
    </g>
    <g id="ytick_19">
     <g id="line2d_37">
      <g>
       <use xlink:href="#m0ded1e1a1b" x="43.645313" y="109.708175" style="stroke: #000000; stroke-width: 0.6"/>
      </g>
     </g>
    </g>
    <g id="ytick_20">
     <g id="line2d_38">
      <g>
       <use xlink:href="#m0ded1e1a1b" x="43.645313" y="107.663644" style="stroke: #000000; stroke-width: 0.6"/>
      </g>
     </g>
    </g>
    <g id="ytick_21">
     <g id="line2d_39">
      <g>
       <use xlink:href="#m0ded1e1a1b" x="43.645313" y="93.802789" style="stroke: #000000; stroke-width: 0.6"/>
      </g>
     </g>
    </g>
    <g id="ytick_22">
     <g id="line2d_40">
      <g>
       <use xlink:href="#m0ded1e1a1b" x="43.645313" y="86.764544" style="stroke: #000000; stroke-width: 0.6"/>
      </g>
     </g>
    </g>
    <g id="ytick_23">
     <g id="line2d_41">
      <g>
       <use xlink:href="#m0ded1e1a1b" x="43.645313" y="81.770829" style="stroke: #000000; stroke-width: 0.6"/>
      </g>
     </g>
    </g>
    <g id="ytick_24">
     <g id="line2d_42">
      <g>
       <use xlink:href="#m0ded1e1a1b" x="43.645313" y="77.897404" style="stroke: #000000; stroke-width: 0.6"/>
      </g>
     </g>
    </g>
    <g id="ytick_25">
     <g id="line2d_43">
      <g>
       <use xlink:href="#m0ded1e1a1b" x="43.645313" y="74.732584" style="stroke: #000000; stroke-width: 0.6"/>
      </g>
     </g>
    </g>
    <g id="ytick_26">
     <g id="line2d_44">
      <g>
       <use xlink:href="#m0ded1e1a1b" x="43.645313" y="72.056768" style="stroke: #000000; stroke-width: 0.6"/>
      </g>
     </g>
    </g>
    <g id="ytick_27">
     <g id="line2d_45">
      <g>
       <use xlink:href="#m0ded1e1a1b" x="43.645313" y="69.73887" style="stroke: #000000; stroke-width: 0.6"/>
      </g>
     </g>
    </g>
    <g id="ytick_28">
     <g id="line2d_46">
      <g>
       <use xlink:href="#m0ded1e1a1b" x="43.645313" y="67.694339" style="stroke: #000000; stroke-width: 0.6"/>
      </g>
     </g>
    </g>
    <g id="ytick_29">
     <g id="line2d_47">
      <g>
       <use xlink:href="#m0ded1e1a1b" x="43.645313" y="53.833484" style="stroke: #000000; stroke-width: 0.6"/>
      </g>
     </g>
    </g>
    <g id="ytick_30">
     <g id="line2d_48">
      <g>
       <use xlink:href="#m0ded1e1a1b" x="43.645313" y="46.795239" style="stroke: #000000; stroke-width: 0.6"/>
      </g>
     </g>
    </g>
    <g id="ytick_31">
     <g id="line2d_49">
      <g>
       <use xlink:href="#m0ded1e1a1b" x="43.645313" y="41.801525" style="stroke: #000000; stroke-width: 0.6"/>
      </g>
     </g>
    </g>
    <g id="ytick_32">
     <g id="line2d_50">
      <g>
       <use xlink:href="#m0ded1e1a1b" x="43.645313" y="37.928099" style="stroke: #000000; stroke-width: 0.6"/>
      </g>
     </g>
    </g>
    <g id="ytick_33">
     <g id="line2d_51">
      <g>
       <use xlink:href="#m0ded1e1a1b" x="43.645313" y="34.763279" style="stroke: #000000; stroke-width: 0.6"/>
      </g>
     </g>
    </g>
    <g id="ytick_34">
     <g id="line2d_52">
      <g>
       <use xlink:href="#m0ded1e1a1b" x="43.645313" y="32.087463" style="stroke: #000000; stroke-width: 0.6"/>
      </g>
     </g>
    </g>
    <g id="ytick_35">
     <g id="line2d_53">
      <g>
       <use xlink:href="#m0ded1e1a1b" x="43.645313" y="29.769565" style="stroke: #000000; stroke-width: 0.6"/>
      </g>
     </g>
    </g>
    <g id="ytick_36">
     <g id="line2d_54">
      <g>
       <use xlink:href="#m0ded1e1a1b" x="43.645313" y="27.725034" style="stroke: #000000; stroke-width: 0.6"/>
      </g>
     </g>
    </g>
    <g id="ytick_37">
     <g id="line2d_55">
      <g>
       <use xlink:href="#m0ded1e1a1b" x="43.645313" y="13.864179" style="stroke: #000000; stroke-width: 0.6"/>
      </g>
     </g>
    </g>
    <g id="text_13">
     <!-- Loss -->
     <g transform="translate(14.357813 105.068024) rotate(-90) scale(0.1 -0.1)">
      <defs>
       <path id="ArialMT-4c" d="M 469 0 
L 469 4581 
L 1075 4581 
L 1075 541 
L 3331 541 
L 3331 0 
L 469 0 
z
" transform="scale(0.015625)"/>
       <path id="ArialMT-73" d="M 197 991 
L 753 1078 
Q 800 744 1014 566 
Q 1228 388 1613 388 
Q 2000 388 2187 545 
Q 2375 703 2375 916 
Q 2375 1106 2209 1216 
Q 2094 1291 1634 1406 
Q 1016 1563 777 1677 
Q 538 1791 414 1992 
Q 291 2194 291 2438 
Q 291 2659 392 2848 
Q 494 3038 669 3163 
Q 800 3259 1026 3326 
Q 1253 3394 1513 3394 
Q 1903 3394 2198 3281 
Q 2494 3169 2634 2976 
Q 2775 2784 2828 2463 
L 2278 2388 
Q 2241 2644 2061 2787 
Q 1881 2931 1553 2931 
Q 1166 2931 1000 2803 
Q 834 2675 834 2503 
Q 834 2394 903 2306 
Q 972 2216 1119 2156 
Q 1203 2125 1616 2013 
Q 2213 1853 2448 1751 
Q 2684 1650 2818 1456 
Q 2953 1263 2953 975 
Q 2953 694 2789 445 
Q 2625 197 2315 61 
Q 2006 -75 1616 -75 
Q 969 -75 630 194 
Q 291 463 197 991 
z
" transform="scale(0.015625)"/>
      </defs>
      <use xlink:href="#ArialMT-4c"/>
      <use xlink:href="#ArialMT-6f" x="55.615234"/>
      <use xlink:href="#ArialMT-73" x="111.230469"/>
      <use xlink:href="#ArialMT-73" x="161.230469"/>
     </g>
    </g>
   </g>
   <g id="line2d_56">
    <path d="M 53.630996 75.877548 
L 53.797452 105.08413 
L 54.03049 114.147865 
L 54.33011 117.145269 
L 55.395428 122.546262 
L 56.127833 124.652661 
L 57.226441 126.935412 
L 58.391632 128.803761 
L 59.556823 130.2714 
L 60.755304 131.46744 
L 62.220116 132.629947 
L 63.984547 133.756778 
L 66.747713 135.193452 
L 72.573666 137.642745 
L 84.458611 141.77175 
L 98.807101 146.480982 
L 104.533181 148.371279 
L 111.424451 150.603885 
L 119.980279 153.160215 
L 126.072561 154.700257 
L 126.638511 154.840185 
L 127.337626 155.006384 
L 138.190544 157.153527 
L 138.357 157.074377 
L 138.456873 157.036189 
L 138.590038 157.213338 
L 138.623329 157.173795 
L 138.723202 157.241584 
L 138.956241 157.295942 
L 139.189279 157.325571 
L 140.787254 157.614904 
L 146.879537 158.459607 
L 146.946119 158.427042 
L 146.97941 158.48667 
L 147.079284 158.662348 
L 147.112575 158.62324 
L 147.179157 158.593776 
L 147.212448 158.640709 
L 147.345613 158.660766 
L 148.11131 158.830006 
L 149.309792 159.027985 
L 154.869415 159.808958 
L 155.00258 159.717588 
L 155.135745 159.952931 
L 155.169036 159.913691 
L 155.235618 159.881286 
L 155.268909 159.923231 
L 155.402074 159.957197 
L 155.86815 160.068315 
L 156.533973 160.180544 
L 162.4598 161.05479 
L 162.626256 160.772333 
L 162.692838 160.95139 
L 162.75942 161.161845 
L 162.826003 161.037061 
L 162.859294 161.013876 
L 162.892585 161.073422 
L 162.959167 161.192143 
L 163.02575 161.119978 
L 165.788916 161.630116 
L 172.047654 162.446551 
L 172.180819 161.861698 
L 172.21411 162.070195 
L 172.280692 162.647644 
L 172.313983 162.515871 
L 172.347275 162.305564 
L 172.413857 162.548994 
L 172.447148 162.673663 
L 172.480439 162.571143 
L 172.51373 162.459277 
L 172.547022 162.530255 
L 172.613604 162.678265 
L 172.646895 162.588153 
L 172.713477 162.671353 
L 172.879933 162.738031 
L 173.112971 162.743943 
L 173.346009 162.802665 
L 173.812086 162.876597 
L 175.94272 163.204749 
L 185.13108 164.579085 
L 185.230954 164.257437 
L 185.330827 163.490169 
L 185.364118 163.776698 
L 185.430701 164.679913 
L 185.463992 164.433816 
L 185.497283 164.114315 
L 185.530574 164.218505 
L 185.597157 164.682788 
L 185.630448 164.450447 
L 185.663739 164.362457 
L 185.69703 164.573293 
L 185.730321 164.723801 
L 185.763612 164.607753 
L 185.796904 164.504491 
L 185.830195 164.618715 
L 185.863486 164.74121 
L 185.930068 164.605658 
L 186.129815 164.782043 
L 186.329562 164.771519 
L 186.662474 164.86216 
L 187.794373 165.03104 
L 193.853364 165.945018 
L 197.648557 166.526031 
L 198.580709 166.59713 
L 198.713874 166.24726 
L 198.780456 166.007239 
L 198.813747 166.056273 
L 198.913621 166.713765 
L 198.980203 166.525413 
L 199.013494 166.431944 
L 199.046785 166.485142 
L 199.113368 166.744135 
L 199.17995 166.643563 
L 199.213241 166.602667 
L 199.246532 166.6519 
L 199.313115 166.779829 
L 199.379697 166.70763 
L 199.812482 166.840202 
L 200.112103 166.890043 
L 206.770335 167.880227 
L 206.93679 167.79162 
L 207.103246 167.295436 
L 207.169829 167.488849 
L 207.269702 167.957717 
L 207.302993 167.856838 
L 207.369576 167.709451 
L 207.402867 167.79767 
L 207.469449 167.997058 
L 207.536031 167.901584 
L 207.569323 167.869775 
L 207.602614 167.910352 
L 207.702487 168.015926 
L 207.735778 167.979905 
L 207.835652 168.030771 
L 208.06869 168.084792 
L 208.63464 168.163815 
L 210.232615 168.398399 
L 214.627049 168.922889 
L 214.726922 168.575145 
L 214.826796 168.133372 
L 214.860087 168.31429 
L 214.95996 169.072751 
L 214.993251 168.896932 
L 215.059834 168.70429 
L 215.093125 168.887017 
L 215.159707 169.099526 
L 215.192998 168.986115 
L 215.226289 168.898828 
L 215.259581 168.945588 
L 215.326163 169.136277 
L 215.392745 169.032862 
L 215.459328 169.095446 
L 215.52591 169.154066 
L 215.559201 169.115842 
L 215.659075 169.175173 
L 216.225024 169.262988 
L 216.857556 169.348547 
L 223.182877 170.189856 
L 223.316041 170.025703 
L 223.482497 169.573889 
L 223.515788 169.722632 
L 223.615662 170.288753 
L 223.648953 170.223706 
L 223.715535 170.014477 
L 223.748827 170.047859 
L 223.8487 170.317421 
L 223.881991 170.269258 
L 223.948573 170.190091 
L 223.981865 170.236131 
L 224.081738 170.335525 
L 224.115029 170.301465 
L 224.214903 170.341442 
L 224.447941 170.397682 
L 227.144525 170.758165 
L 230.040856 171.097941 
L 230.174021 170.909233 
L 230.307185 170.416804 
L 230.373767 170.617047 
L 230.473641 171.197654 
L 230.506932 171.110537 
L 230.573514 170.897118 
L 230.606806 170.950069 
L 230.706679 171.221913 
L 230.73997 171.162397 
L 230.806553 171.089782 
L 230.839844 171.147633 
L 230.906426 171.255613 
L 230.973008 171.200621 
L 231.072882 171.252886 
L 231.30592 171.303603 
L 237.098582 171.931761 
L 237.198455 171.661199 
L 237.33162 171.119653 
L 237.364911 171.306467 
L 237.464785 172.077487 
L 237.498076 171.958699 
L 237.564658 171.684299 
L 237.597949 171.780343 
L 237.664532 172.096387 
L 237.731114 171.970632 
L 237.764405 171.906205 
L 237.797696 171.947796 
L 237.89757 172.11213 
L 237.930861 172.055601 
L 237.997443 172.056124 
L 238.030734 172.115225 
L 238.163899 172.101637 
L 238.496811 172.195836 
L 238.863013 172.245171 
L 240.594154 172.450356 
L 244.655675 172.812415 
L 244.78884 172.379474 
L 244.888713 172.063907 
L 244.922005 172.239308 
L 245.021878 172.969733 
L 245.055169 172.886986 
L 245.121752 172.611893 
L 245.155043 172.654225 
L 245.254916 172.991725 
L 245.288207 172.924103 
L 245.35479 172.82209 
L 245.388081 172.886603 
L 245.454663 173.017253 
L 245.521246 172.948048 
L 245.621119 173.007874 
L 245.787575 173.01209 
L 246.020613 173.066841 
L 246.386816 173.112947 
L 251.746693 173.65644 
L 251.846566 173.504064 
L 252.013022 172.628002 
L 252.079604 172.991274 
L 252.179478 173.719024 
L 252.212769 173.509558 
L 252.279351 173.309111 
L 252.312642 173.495528 
L 252.379225 173.773824 
L 252.412516 173.678909 
L 252.479098 173.544778 
L 252.512389 173.647295 
L 252.578972 173.793766 
L 252.612263 173.735201 
L 252.678845 173.683412 
L 252.712136 173.748633 
L 252.778719 173.811723 
L 252.81201 173.775598 
L 252.911883 173.806541 
L 253.11163 173.842515 
L 253.344668 173.877165 
L 253.344668 173.877165 
" clip-path="url(#pc7b52c6346)" style="fill: none; stroke: #0000ff; stroke-width: 1.5; stroke-linecap: square"/>
   </g>
   <g id="line2d_57">
    <path d="M 53.630996 82.225949 
L 53.830743 103.435828 
L 53.963908 106.038814 
L 53.997199 105.919324 
L 54.263528 104.472363 
L 54.296819 104.54825 
L 54.529857 105.386018 
L 54.563149 105.356524 
L 54.629731 105.354415 
L 54.729604 105.926804 
L 55.295554 111.24498 
L 55.46201 111.856743 
L 55.76163 112.735313 
L 55.994669 113.437737 
L 56.394162 114.568993 
L 57.925556 117.826198 
L 58.691253 118.904564 
L 59.323785 119.449172 
L 59.956317 119.718748 
L 60.722013 119.775032 
L 61.620875 119.595421 
L 63.019103 119.07014 
L 65.482649 118.128887 
L 67.280372 117.675657 
L 69.144677 117.429389 
L 71.375185 117.366344 
L 74.737592 117.57073 
L 78.665949 118.064724 
L 83.060382 118.79929 
L 92.148869 120.665419 
L 101.903179 122.821039 
L 108.994196 124.25355 
L 117.350277 125.672312 
L 126.139144 126.961701 
L 126.205726 126.982395 
L 126.239017 126.778001 
L 126.272308 126.985364 
L 126.338891 126.960031 
L 126.472055 126.872451 
L 126.571929 126.99141 
L 126.60522 126.898563 
L 126.705094 126.93751 
L 126.804967 127.007894 
L 126.838258 126.932286 
L 126.90484 126.965109 
L 127.17117 127.023636 
L 127.47079 127.053951 
L 128.635981 127.187566 
L 129.335095 127.272822 
L 130.866489 127.497784 
L 130.933071 127.529282 
L 130.966362 127.342733 
L 131.032944 127.29199 
L 131.066236 127.600786 
L 131.099527 127.275014 
L 131.166109 127.365498 
L 131.299274 127.588057 
L 131.332565 127.374651 
L 131.399147 127.448552 
L 131.532312 127.597552 
L 131.565603 127.449359 
L 131.665476 127.507907 
L 131.732059 127.480254 
L 131.76535 127.597351 
L 131.898515 127.521392 
L 131.998388 127.594142 
L 132.031679 127.577407 
L 132.231426 127.600571 
L 132.497755 127.644601 
L 132.63092 127.646006 
L 134.195605 127.81248 
L 135.560542 127.949532 
L 138.123962 128.227502 
L 138.190544 128.255333 
L 138.223835 128.114664 
L 138.290417 128.054652 
L 138.323709 128.339461 
L 138.390291 128.37601 
L 138.423582 127.95958 
L 138.456873 128.36149 
L 138.556747 128.302629 
L 138.590038 128.083767 
L 138.623329 128.36358 
L 138.65662 128.094519 
L 138.789785 128.346431 
L 138.823076 128.134035 
L 138.889658 128.23738 
L 138.989532 128.178135 
L 139.122696 128.328014 
L 139.155988 128.216047 
L 139.22257 128.254188 
L 139.355735 128.347357 
L 139.488899 128.278805 
L 139.622064 128.330974 
L 139.78852 128.338153 
L 140.154722 128.373715 
L 141.120166 128.455868 
L 146.746372 128.756768 
L 146.812954 128.680736 
L 146.846246 129.032408 
L 146.879537 128.599215 
L 146.912828 129.058852 
L 146.946119 128.635872 
L 146.97941 129.013267 
L 147.079284 128.999371 
L 147.112575 128.719108 
L 147.145866 129.034387 
L 147.179157 128.771797 
L 147.312322 129.015527 
L 147.345613 128.791545 
L 147.412195 128.903832 
L 147.445487 128.878335 
L 147.512069 128.829907 
L 147.54536 128.996094 
L 147.678525 128.866185 
L 147.711816 128.997503 
L 147.811689 128.968536 
L 147.911563 128.910625 
L 148.044727 128.998189 
L 148.177892 128.959451 
L 148.344348 128.981817 
L 148.677259 129.013661 
L 148.943589 129.021461 
L 149.442956 129.048236 
L 149.942324 129.08588 
L 151.57359 129.182657 
L 154.536504 129.369207 
L 154.636377 129.313419 
L 154.736251 129.433843 
L 154.802833 129.473344 
L 154.836124 129.17563 
L 154.902707 129.087383 
L 154.935998 129.554085 
L 154.969289 129.065842 
L 155.035871 129.219705 
L 155.169036 129.520741 
L 155.202327 129.190914 
L 155.268909 129.315997 
L 155.335492 129.461772 
L 155.368783 129.266013 
L 155.402074 129.503618 
L 155.435365 129.288252 
L 155.56853 129.483192 
L 155.601821 129.308526 
L 155.668403 129.374581 
L 155.901441 129.432126 
L 156.001315 129.377669 
L 156.134479 129.460797 
L 156.234353 129.413944 
L 156.367518 129.472851 
L 156.500682 129.450266 
L 156.767011 129.480173 
L 156.933467 129.479954 
L 157.266379 129.488018 
L 157.599291 129.51234 
L 159.197266 129.594879 
L 162.393218 129.83936 
L 162.4598 129.893956 
L 162.493091 129.506964 
L 162.559673 129.369894 
L 162.592965 130.002564 
L 162.626256 129.346537 
L 162.692838 129.607294 
L 162.75942 129.889149 
L 162.792712 129.520708 
L 162.826003 129.965786 
L 162.859294 129.545755 
L 162.992459 129.93219 
L 163.02575 129.590598 
L 163.092332 129.748794 
L 163.125623 129.7273 
L 163.192205 129.636977 
L 163.225497 129.888045 
L 163.358661 129.684586 
L 163.391952 129.886295 
L 163.491826 129.853179 
L 163.525117 129.72509 
L 163.558408 129.876891 
L 163.591699 129.755776 
L 163.724864 129.871545 
L 163.858029 129.784085 
L 163.957902 129.846486 
L 163.991193 129.828595 
L 164.19094 129.828025 
L 164.357396 129.845601 
L 164.623725 129.87347 
L 164.823472 129.858496 
L 165.023219 129.887086 
L 165.289549 129.888707 
L 165.988663 129.926658 
L 170.183349 130.124492 
L 171.881198 130.265453 
L 171.947781 130.319371 
L 171.981072 130.014853 
L 172.047654 129.817792 
L 172.080945 130.509047 
L 172.114237 129.525015 
L 172.147528 130.587098 
L 172.180819 129.56253 
L 172.313983 130.546592 
L 172.347275 129.746251 
L 172.447148 129.979457 
L 172.480439 130.514929 
L 172.51373 129.897908 
L 172.580313 130.338453 
L 172.613604 129.963044 
L 172.646895 130.453849 
L 172.680186 130.080472 
L 172.746769 130.388881 
L 172.78006 129.99988 
L 172.879933 130.130679 
L 172.913224 130.403818 
L 172.946516 130.099704 
L 173.013098 130.306504 
L 173.046389 130.117632 
L 173.07968 130.380106 
L 173.112971 130.189853 
L 173.246136 130.326584 
L 173.279427 130.267293 
L 173.346009 130.353887 
L 173.379301 130.198374 
L 173.512465 130.335721 
L 173.64563 130.226192 
L 173.778795 130.334335 
L 173.911959 130.260536 
L 174.045124 130.327268 
L 174.178288 130.293724 
L 174.311453 130.321336 
L 174.5112 130.310954 
L 174.710947 130.342716 
L 175.110441 130.349328 
L 175.476644 130.375332 
L 176.042593 130.397451 
L 178.772469 130.525407 
L 181.335888 130.641686 
L 184.898042 130.823242 
L 184.997916 130.750562 
L 185.064498 130.69337 
L 185.097789 130.958835 
L 185.164371 131.083011 
L 185.197663 130.29174 
L 185.264245 129.855242 
L 185.297536 131.356743 
L 185.330827 129.870408 
L 185.430701 130.356853 
L 185.463992 131.311117 
L 185.497283 130.173667 
L 185.530574 131.057303 
L 185.563865 130.939468 
L 185.597157 130.376472 
L 185.630448 131.231929 
L 185.663739 130.475834 
L 185.763612 130.379598 
L 185.796904 131.096242 
L 185.896777 131.118564 
L 185.930068 130.587505 
L 186.029942 130.567281 
L 186.063233 131.046503 
L 186.196397 130.686227 
L 186.329562 130.988441 
L 186.462727 130.749777 
L 186.595891 130.957246 
L 186.729056 130.801531 
L 186.862221 130.947094 
L 186.995385 130.840198 
L 187.12855 130.942528 
L 187.261715 130.866327 
L 187.394879 130.939797 
L 187.528044 130.889407 
L 187.661208 130.941902 
L 187.794373 130.911406 
L 187.960829 130.921779 
L 188.193867 130.949607 
L 188.493488 130.954691 
L 188.892981 130.97384 
L 198.281089 131.39408 
L 198.380962 131.304232 
L 198.447545 131.264869 
L 198.480836 131.497416 
L 198.547418 131.576961 
L 198.580709 131.071065 
L 198.647291 130.869659 
L 198.680583 131.827586 
L 198.747165 131.925654 
L 198.780456 130.565916 
L 198.813747 131.857263 
L 198.913621 131.573455 
L 198.980203 131.795135 
L 199.013494 130.909194 
L 199.146659 131.665556 
L 199.17995 131.010012 
L 199.213241 131.671129 
L 199.246532 131.231972 
L 199.313115 131.554145 
L 199.346406 131.140259 
L 199.379697 131.635802 
L 199.412988 131.215313 
L 199.546153 131.59885 
L 199.579444 131.235403 
L 199.679317 131.318114 
L 199.712609 131.55148 
L 199.7459 131.269165 
L 199.779191 131.51546 
L 199.912356 131.306998 
L 199.945647 131.515956 
L 200.04552 131.479712 
L 200.078811 131.348146 
L 200.112103 131.510858 
L 200.145394 131.371783 
L 200.278558 131.498495 
L 200.31185 131.381858 
L 200.411723 131.421315 
L 200.511596 131.486502 
L 200.644761 131.418738 
L 200.777926 131.457468 
L 200.977673 131.463484 
L 201.310584 131.488842 
L 201.510331 131.474813 
L 201.776661 131.497765 
L 202.575648 131.521481 
L 203.574383 131.559074 
L 206.737043 131.763385 
L 206.803626 131.818574 
L 206.836917 131.468856 
L 206.903499 131.342712 
L 206.93679 132.018812 
L 207.003373 132.156932 
L 207.036664 130.91765 
L 207.069955 132.255218 
L 207.103246 130.855618 
L 207.136537 132.196657 
L 207.169829 131.217133 
L 207.269702 131.355958 
L 207.302993 132.078407 
L 207.336284 131.168864 
L 207.369576 132.038443 
L 207.50274 131.380034 
L 207.536031 132.005529 
L 207.602614 131.865545 
L 207.702487 131.899254 
L 207.735778 131.440471 
L 207.769069 131.901435 
L 207.868943 131.793551 
L 207.902234 131.535349 
L 207.935525 131.881431 
L 207.968816 131.549359 
L 208.101981 131.827221 
L 208.135272 131.574408 
L 208.201855 131.649925 
L 208.335019 131.815499 
L 208.36831 131.634779 
L 208.468184 131.688661 
L 208.534766 131.650462 
L 208.568057 131.790504 
L 208.701222 131.688704 
L 208.801095 131.770315 
L 208.93426 131.701569 
L 209.034134 131.760751 
L 209.067425 131.738233 
L 209.633374 131.747103 
L 209.833121 131.776689 
L 210.032868 131.771469 
L 210.6654 131.794455 
L 211.530971 131.817621 
L 213.79477 131.884456 
L 214.360719 131.848183 
L 214.427302 131.814328 
L 214.460593 132.00858 
L 214.527175 132.076887 
L 214.560466 131.657623 
L 214.627049 131.478787 
L 214.66034 132.347647 
L 214.726922 132.524596 
L 214.760213 130.896029 
L 214.793504 132.61423 
L 214.860087 132.419188 
L 214.993251 131.268493 
L 215.026542 132.419472 
L 215.093125 132.08226 
L 215.126416 132.024998 
L 215.192998 132.315596 
L 215.226289 131.486716 
L 215.359454 132.215348 
L 215.392745 131.579773 
L 215.459328 131.858251 
L 215.492619 131.825687 
L 215.52591 132.132175 
L 215.559201 131.662955 
L 215.592492 132.121145 
L 215.725657 131.731986 
L 215.758948 132.095863 
L 215.858821 132.02479 
L 215.892113 131.792033 
L 215.925404 132.071313 
L 215.958695 131.84286 
L 216.09186 132.04921 
L 216.125151 131.853863 
L 216.225024 131.881616 
L 216.258315 132.028322 
L 216.324898 131.993226 
L 216.458062 131.888964 
L 216.591227 131.98955 
L 216.6911 131.928717 
L 216.824265 131.996007 
L 216.95743 131.949961 
L 217.057303 131.988745 
L 217.090594 131.957081 
L 217.556671 131.985544 
L 217.823 131.979466 
L 218.089329 131.99532 
L 218.755152 132.006058 
L 219.720596 132.030187 
L 222.916548 132.055281 
L 223.016421 132.17731 
L 223.083003 132.216807 
L 223.116294 131.950435 
L 223.182877 131.86275 
L 223.216168 132.373689 
L 223.28275 132.501768 
L 223.316041 131.520649 
L 223.382624 131.284895 
L 223.415915 132.761635 
L 223.449206 131.205068 
L 223.515788 131.534734 
L 223.648953 132.498996 
L 223.682244 131.559014 
L 223.715535 132.542147 
L 223.748827 131.736932 
L 223.881991 132.42258 
L 223.915282 131.734909 
L 223.981865 131.935132 
L 224.081738 131.889199 
L 224.115029 132.363936 
L 224.14832 131.877065 
L 224.214903 132.073368 
L 224.248194 132.060281 
L 224.314776 131.931385 
L 224.348067 132.295301 
L 224.381359 131.989305 
L 224.481232 132.034546 
L 224.514523 132.250674 
L 224.547814 131.988775 
L 224.581106 132.234165 
L 224.71427 132.044674 
L 224.747561 132.22711 
L 224.814144 132.194479 
L 224.947308 132.068337 
L 224.980599 132.203244 
L 225.047182 132.172892 
L 225.180346 132.089647 
L 225.213638 132.188079 
L 225.313511 132.138415 
L 225.57984 132.137645 
L 225.746296 132.16408 
L 225.946043 132.136221 
L 226.14579 132.165613 
L 226.345537 132.158072 
L 226.978069 132.171752 
L 227.843639 132.181615 
L 229.075412 132.204956 
L 229.57478 132.19169 
L 229.741235 132.248819 
L 229.841109 132.141702 
L 229.907691 132.106502 
L 229.940982 132.338383 
L 230.007565 132.406661 
L 230.040856 131.953059 
L 230.107438 131.80415 
L 230.140729 132.64401 
L 230.207312 132.804165 
L 230.240603 131.338543 
L 230.273894 132.913464 
L 230.307185 131.277939 
L 230.340476 132.835924 
L 230.373767 131.653157 
L 230.473641 131.916111 
L 230.540223 131.635802 
L 230.573514 132.664394 
L 230.606806 131.85253 
L 230.706679 131.959117 
L 230.73997 132.552984 
L 230.773261 131.827868 
L 230.806553 132.503174 
L 230.939717 131.973715 
L 230.973008 132.480106 
L 231.039591 132.365298 
L 231.172755 132.025116 
L 231.206046 132.401735 
L 231.272629 132.272513 
L 231.30592 132.264796 
L 231.372502 132.362167 
L 231.405793 132.088325 
L 231.439085 132.334487 
L 231.538958 132.287951 
L 231.60554 132.332597 
L 231.638832 132.141428 
L 231.771996 132.287317 
L 231.838579 132.305667 
L 231.87187 132.176316 
L 232.005034 132.281926 
L 232.104908 132.200715 
L 232.238072 132.271557 
L 232.337946 132.21379 
L 232.471111 132.263261 
L 232.570984 132.220951 
L 232.604275 132.258501 
L 232.804022 132.2284 
L 232.970478 132.239015 
L 233.170225 132.249659 
L 234.368707 132.258524 
L 235.03453 132.268461 
L 235.933391 132.270171 
L 236.432759 132.283286 
L 236.665797 132.255874 
L 236.76567 132.317346 
L 236.865544 132.202545 
L 236.932126 132.157491 
L 236.965417 132.426579 
L 237.032 132.509355 
L 237.065291 131.962356 
L 237.131873 131.764668 
L 237.165164 132.808719 
L 237.231747 132.987579 
L 237.265038 131.223512 
L 237.298329 133.055878 
L 237.364911 132.831385 
L 237.498076 131.694744 
L 237.531367 132.825877 
L 237.597949 132.603531 
L 237.697823 132.616944 
L 237.731114 131.818746 
L 237.764405 132.648148 
L 237.864279 132.411088 
L 237.930861 132.58664 
L 237.964152 131.989812 
L 238.097317 132.48541 
L 238.130608 132.040527 
L 238.19719 132.175071 
L 238.297064 132.122191 
L 238.330355 132.453929 
L 238.363646 132.141994 
L 238.463519 132.207698 
L 238.496811 132.405463 
L 238.530102 132.155463 
L 238.563393 132.386841 
L 238.696558 132.198742 
L 238.729849 132.381166 
L 238.796431 132.329998 
L 238.929596 132.219368 
L 238.962887 132.346969 
L 239.06276 132.310319 
L 239.162634 132.244053 
L 239.295799 132.316747 
L 239.395672 132.263427 
L 239.528837 132.314481 
L 239.62871 132.272797 
L 239.662001 132.304375 
L 240.028204 132.281004 
L 240.227951 132.302454 
L 240.49428 132.290297 
L 240.827192 132.300818 
L 241.326559 132.297766 
L 244.422637 132.206739 
L 244.48922 132.159334 
L 244.522511 132.459715 
L 244.589093 132.544928 
L 244.622384 131.95762 
L 244.688967 131.762345 
L 244.722258 132.839774 
L 244.78884 133.008449 
L 244.822131 131.268974 
L 244.855422 133.063181 
L 244.922005 132.844244 
L 245.055169 131.774658 
L 245.08846 132.819371 
L 245.121752 131.699131 
L 245.155043 132.67273 
L 245.288207 131.885151 
L 245.321499 132.675841 
L 245.388081 132.474097 
L 245.487954 132.545693 
L 245.521246 131.98314 
L 245.554537 132.540585 
L 245.65441 132.384287 
L 245.720992 132.502715 
L 245.754284 132.090747 
L 245.787575 132.422411 
L 245.887448 132.411033 
L 245.920739 132.135549 
L 245.954031 132.438439 
L 245.987322 132.18143 
L 246.120486 132.399387 
L 246.153778 132.176641 
L 246.22036 132.238183 
L 246.353525 132.373884 
L 246.386816 132.214744 
L 246.453398 132.268415 
L 246.753018 132.322623 
L 246.852892 132.257042 
L 246.986057 132.311529 
L 247.08593 132.266519 
L 247.119221 132.30925 
L 247.318968 132.27395 
L 247.485424 132.279391 
L 247.685171 132.290915 
L 248.317703 132.283079 
L 248.750488 132.280334 
L 249.283147 132.285141 
L 249.849096 132.276156 
L 250.614793 132.274355 
L 251.38049 132.243791 
L 251.480363 132.308766 
L 251.546946 132.33195 
L 251.580237 132.178723 
L 251.646819 132.125587 
L 251.68011 132.431795 
L 251.746693 132.52919 
L 251.779984 131.891971 
L 251.846566 131.659602 
L 251.879857 132.873307 
L 251.94644 133.062828 
L 251.979731 131.09432 
L 252.013022 133.091883 
L 252.079604 132.758322 
L 252.212769 131.55947 
L 252.24606 132.83897 
L 252.312642 132.492592 
L 252.379225 131.940339 
L 252.412516 132.678045 
L 252.445807 131.75516 
L 252.479098 132.594552 
L 252.612263 131.896307 
L 252.645554 132.572248 
L 252.712136 132.335662 
L 252.745427 132.332517 
L 252.81201 132.502013 
L 252.845301 132.006451 
L 252.978465 132.414023 
L 253.011757 132.050861 
L 253.078339 132.155607 
L 253.178212 132.116851 
L 253.211504 132.388676 
L 253.244795 132.132403 
L 253.344668 132.185013 
" clip-path="url(#pc7b52c6346)" style="fill: none; stroke-dasharray: 5.55,2.4; stroke-dashoffset: 0; stroke: #0000ff; stroke-width: 1.5"/>
   </g>
   <g id="line2d_58">
    <path d="M 53.630996 15.137008 
L 53.797452 64.500312 
L 54.097072 78.458493 
L 54.429984 84.30461 
L 54.929351 88.889991 
L 55.428719 91.700032 
L 55.894795 93.143545 
L 56.560618 94.441262 
L 57.526062 95.844434 
L 58.791126 97.276338 
L 60.455684 98.793344 
L 62.120242 100.079503 
L 64.583788 101.72556 
L 68.179233 103.741921 
L 71.508349 105.295827 
L 74.770883 106.586805 
L 78.832405 107.93073 
L 82.527723 108.953084 
L 88.15393 110.235786 
L 96.143808 111.671116 
L 102.136217 112.561722 
L 113.788123 114.052364 
L 128.369652 115.751111 
L 148.510804 118.087966 
L 161.094862 119.592984 
L 172.380566 120.971802 
L 180.104115 121.929802 
L 180.104115 121.929802 
" clip-path="url(#pc7b52c6346)" style="fill: none; stroke: #ff0000; stroke-width: 1.5; stroke-linecap: square"/>
   </g>
   <g id="line2d_59">
    <path d="M 53.630996 26.432157 
L 53.797452 58.519846 
L 54.097072 72.147082 
L 54.429984 78.380939 
L 54.829478 82.024005 
L 55.228972 83.902887 
L 55.661757 84.879692 
L 57.026694 87.005503 
L 57.992138 88.160555 
L 59.357076 89.401733 
L 61.887204 91.344129 
L 65.649105 93.784876 
L 68.612018 95.358268 
L 70.709361 96.304717 
L 73.938604 97.527437 
L 78.266455 98.781663 
L 81.429115 99.472207 
L 84.858105 100.0521 
L 91.483046 100.809353 
L 99.939 101.369512 
L 114.720276 101.957292 
L 153.304731 102.893216 
L 168.119297 102.682619 
L 180.104115 102.096496 
L 180.104115 102.096496 
" clip-path="url(#pc7b52c6346)" style="fill: none; stroke-dasharray: 5.55,2.4; stroke-dashoffset: 0; stroke: #ff0000; stroke-width: 1.5"/>
   </g>
   <g id="patch_3">
    <path d="M 43.645313 181.814173 
L 43.645313 7.2 
" style="fill: none; stroke: #000000; stroke-width: 0.8; stroke-linejoin: miter; stroke-linecap: square"/>
   </g>
   <g id="patch_4">
    <path d="M 263.330352 181.814173 
L 263.330352 7.2 
" style="fill: none; stroke: #000000; stroke-width: 0.8; stroke-linejoin: miter; stroke-linecap: square"/>
   </g>
   <g id="patch_5">
    <path d="M 43.645312 181.814173 
L 263.330352 181.814173 
" style="fill: none; stroke: #000000; stroke-width: 0.8; stroke-linejoin: miter; stroke-linecap: square"/>
   </g>
   <g id="patch_6">
    <path d="M 43.645312 7.2 
L 263.330352 7.2 
" style="fill: none; stroke: #000000; stroke-width: 0.8; stroke-linejoin: miter; stroke-linecap: square"/>
   </g>
   <g id="legend_1">
    <g id="patch_7">
     <path d="M 158.199102 72.015625 
L 256.330352 72.015625 
Q 258.330352 72.015625 258.330352 70.015625 
L 258.330352 14.2 
Q 258.330352 12.2 256.330352 12.2 
L 158.199102 12.2 
Q 156.199102 12.2 156.199102 14.2 
L 156.199102 70.015625 
Q 156.199102 72.015625 158.199102 72.015625 
z
" style="fill: #ffffff; opacity: 0.8; stroke: #000000; stroke-linejoin: miter"/>
    </g>
    <g id="line2d_60">
     <path d="M 160.199102 19.857813 
L 170.199102 19.857813 
L 180.199102 19.857813 
" style="fill: none; stroke: #0000ff; stroke-width: 1.5; stroke-linecap: square"/>
    </g>
    <g id="text_14">
     <!-- BiRNN training -->
     <g transform="translate(188.199102 23.357813) scale(0.1 -0.1)">
      <defs>
       <path id="ArialMT-42" d="M 469 0 
L 469 4581 
L 2188 4581 
Q 2713 4581 3030 4442 
Q 3347 4303 3526 4014 
Q 3706 3725 3706 3409 
Q 3706 3116 3547 2856 
Q 3388 2597 3066 2438 
Q 3481 2316 3704 2022 
Q 3928 1728 3928 1328 
Q 3928 1006 3792 729 
Q 3656 453 3456 303 
Q 3256 153 2954 76 
Q 2653 0 2216 0 
L 469 0 
z
M 1075 2656 
L 2066 2656 
Q 2469 2656 2644 2709 
Q 2875 2778 2992 2937 
Q 3109 3097 3109 3338 
Q 3109 3566 3000 3739 
Q 2891 3913 2687 3977 
Q 2484 4041 1991 4041 
L 1075 4041 
L 1075 2656 
z
M 1075 541 
L 2216 541 
Q 2509 541 2628 563 
Q 2838 600 2978 687 
Q 3119 775 3209 942 
Q 3300 1109 3300 1328 
Q 3300 1584 3169 1773 
Q 3038 1963 2805 2039 
Q 2572 2116 2134 2116 
L 1075 2116 
L 1075 541 
z
" transform="scale(0.015625)"/>
       <path id="ArialMT-69" d="M 425 3934 
L 425 4581 
L 988 4581 
L 988 3934 
L 425 3934 
z
M 425 0 
L 425 3319 
L 988 3319 
L 988 0 
L 425 0 
z
" transform="scale(0.015625)"/>
       <path id="ArialMT-52" d="M 503 0 
L 503 4581 
L 2534 4581 
Q 3147 4581 3465 4457 
Q 3784 4334 3975 4021 
Q 4166 3709 4166 3331 
Q 4166 2844 3850 2509 
Q 3534 2175 2875 2084 
Q 3116 1969 3241 1856 
Q 3506 1613 3744 1247 
L 4541 0 
L 3778 0 
L 3172 953 
Q 2906 1366 2734 1584 
Q 2563 1803 2427 1890 
Q 2291 1978 2150 2013 
Q 2047 2034 1813 2034 
L 1109 2034 
L 1109 0 
L 503 0 
z
M 1109 2559 
L 2413 2559 
Q 2828 2559 3062 2645 
Q 3297 2731 3419 2920 
Q 3541 3109 3541 3331 
Q 3541 3656 3305 3865 
Q 3069 4075 2559 4075 
L 1109 4075 
L 1109 2559 
z
" transform="scale(0.015625)"/>
       <path id="ArialMT-4e" d="M 488 0 
L 488 4581 
L 1109 4581 
L 3516 984 
L 3516 4581 
L 4097 4581 
L 4097 0 
L 3475 0 
L 1069 3600 
L 1069 0 
L 488 0 
z
" transform="scale(0.015625)"/>
       <path id="ArialMT-20" transform="scale(0.015625)"/>
       <path id="ArialMT-74" d="M 1650 503 
L 1731 6 
Q 1494 -44 1306 -44 
Q 1000 -44 831 53 
Q 663 150 594 308 
Q 525 466 525 972 
L 525 2881 
L 113 2881 
L 113 3319 
L 525 3319 
L 525 4141 
L 1084 4478 
L 1084 3319 
L 1650 3319 
L 1650 2881 
L 1084 2881 
L 1084 941 
Q 1084 700 1114 631 
Q 1144 563 1211 522 
Q 1278 481 1403 481 
Q 1497 481 1650 503 
z
" transform="scale(0.015625)"/>
       <path id="ArialMT-72" d="M 416 0 
L 416 3319 
L 922 3319 
L 922 2816 
Q 1116 3169 1280 3281 
Q 1444 3394 1641 3394 
Q 1925 3394 2219 3213 
L 2025 2691 
Q 1819 2813 1613 2813 
Q 1428 2813 1281 2702 
Q 1134 2591 1072 2394 
Q 978 2094 978 1738 
L 978 0 
L 416 0 
z
" transform="scale(0.015625)"/>
       <path id="ArialMT-61" d="M 2588 409 
Q 2275 144 1986 34 
Q 1697 -75 1366 -75 
Q 819 -75 525 192 
Q 231 459 231 875 
Q 231 1119 342 1320 
Q 453 1522 633 1644 
Q 813 1766 1038 1828 
Q 1203 1872 1538 1913 
Q 2219 1994 2541 2106 
Q 2544 2222 2544 2253 
Q 2544 2597 2384 2738 
Q 2169 2928 1744 2928 
Q 1347 2928 1158 2789 
Q 969 2650 878 2297 
L 328 2372 
Q 403 2725 575 2942 
Q 747 3159 1072 3276 
Q 1397 3394 1825 3394 
Q 2250 3394 2515 3294 
Q 2781 3194 2906 3042 
Q 3031 2891 3081 2659 
Q 3109 2516 3109 2141 
L 3109 1391 
Q 3109 606 3145 398 
Q 3181 191 3288 0 
L 2700 0 
Q 2613 175 2588 409 
z
M 2541 1666 
Q 2234 1541 1622 1453 
Q 1275 1403 1131 1340 
Q 988 1278 909 1158 
Q 831 1038 831 891 
Q 831 666 1001 516 
Q 1172 366 1500 366 
Q 1825 366 2078 508 
Q 2331 650 2450 897 
Q 2541 1088 2541 1459 
L 2541 1666 
z
" transform="scale(0.015625)"/>
       <path id="ArialMT-6e" d="M 422 0 
L 422 3319 
L 928 3319 
L 928 2847 
Q 1294 3394 1984 3394 
Q 2284 3394 2536 3286 
Q 2788 3178 2913 3003 
Q 3038 2828 3088 2588 
Q 3119 2431 3119 2041 
L 3119 0 
L 2556 0 
L 2556 2019 
Q 2556 2363 2490 2533 
Q 2425 2703 2258 2804 
Q 2091 2906 1866 2906 
Q 1506 2906 1245 2678 
Q 984 2450 984 1813 
L 984 0 
L 422 0 
z
" transform="scale(0.015625)"/>
       <path id="ArialMT-67" d="M 319 -275 
L 866 -356 
Q 900 -609 1056 -725 
Q 1266 -881 1628 -881 
Q 2019 -881 2231 -725 
Q 2444 -569 2519 -288 
Q 2563 -116 2559 434 
Q 2191 0 1641 0 
Q 956 0 581 494 
Q 206 988 206 1678 
Q 206 2153 378 2554 
Q 550 2956 876 3175 
Q 1203 3394 1644 3394 
Q 2231 3394 2613 2919 
L 2613 3319 
L 3131 3319 
L 3131 450 
Q 3131 -325 2973 -648 
Q 2816 -972 2473 -1159 
Q 2131 -1347 1631 -1347 
Q 1038 -1347 672 -1080 
Q 306 -813 319 -275 
z
M 784 1719 
Q 784 1066 1043 766 
Q 1303 466 1694 466 
Q 2081 466 2343 764 
Q 2606 1063 2606 1700 
Q 2606 2309 2336 2618 
Q 2066 2928 1684 2928 
Q 1309 2928 1046 2623 
Q 784 2319 784 1719 
z
" transform="scale(0.015625)"/>
      </defs>
      <use xlink:href="#ArialMT-42"/>
      <use xlink:href="#ArialMT-69" x="66.699219"/>
      <use xlink:href="#ArialMT-52" x="88.916016"/>
      <use xlink:href="#ArialMT-4e" x="161.132812"/>
      <use xlink:href="#ArialMT-4e" x="233.349609"/>
      <use xlink:href="#ArialMT-20" x="305.566406"/>
      <use xlink:href="#ArialMT-74" x="333.349609"/>
      <use xlink:href="#ArialMT-72" x="361.132812"/>
      <use xlink:href="#ArialMT-61" x="394.433594"/>
      <use xlink:href="#ArialMT-69" x="450.048828"/>
      <use xlink:href="#ArialMT-6e" x="472.265625"/>
      <use xlink:href="#ArialMT-69" x="527.880859"/>
      <use xlink:href="#ArialMT-6e" x="550.097656"/>
      <use xlink:href="#ArialMT-67" x="605.712891"/>
     </g>
    </g>
    <g id="line2d_61">
     <path d="M 160.199102 34.120313 
L 170.199102 34.120313 
L 180.199102 34.120313 
" style="fill: none; stroke-dasharray: 5.55,2.4; stroke-dashoffset: 0; stroke: #0000ff; stroke-width: 1.5"/>
    </g>
    <g id="text_15">
     <!-- BiRNN test -->
     <g transform="translate(188.199102 37.620313) scale(0.1 -0.1)">
      <defs>
       <path id="ArialMT-65" d="M 2694 1069 
L 3275 997 
Q 3138 488 2766 206 
Q 2394 -75 1816 -75 
Q 1088 -75 661 373 
Q 234 822 234 1631 
Q 234 2469 665 2931 
Q 1097 3394 1784 3394 
Q 2450 3394 2872 2941 
Q 3294 2488 3294 1666 
Q 3294 1616 3291 1516 
L 816 1516 
Q 847 969 1125 678 
Q 1403 388 1819 388 
Q 2128 388 2347 550 
Q 2566 713 2694 1069 
z
M 847 1978 
L 2700 1978 
Q 2663 2397 2488 2606 
Q 2219 2931 1791 2931 
Q 1403 2931 1139 2672 
Q 875 2413 847 1978 
z
" transform="scale(0.015625)"/>
      </defs>
      <use xlink:href="#ArialMT-42"/>
      <use xlink:href="#ArialMT-69" x="66.699219"/>
      <use xlink:href="#ArialMT-52" x="88.916016"/>
      <use xlink:href="#ArialMT-4e" x="161.132812"/>
      <use xlink:href="#ArialMT-4e" x="233.349609"/>
      <use xlink:href="#ArialMT-20" x="305.566406"/>
      <use xlink:href="#ArialMT-74" x="333.349609"/>
      <use xlink:href="#ArialMT-65" x="361.132812"/>
      <use xlink:href="#ArialMT-73" x="416.748047"/>
      <use xlink:href="#ArialMT-74" x="466.748047"/>
     </g>
    </g>
    <g id="line2d_62">
     <path d="M 160.199102 48.265625 
L 170.199102 48.265625 
L 180.199102 48.265625 
" style="fill: none; stroke: #ff0000; stroke-width: 1.5; stroke-linecap: square"/>
    </g>
    <g id="text_16">
     <!-- RNN training -->
     <g transform="translate(188.199102 51.765625) scale(0.1 -0.1)">
      <use xlink:href="#ArialMT-52"/>
      <use xlink:href="#ArialMT-4e" x="72.216797"/>
      <use xlink:href="#ArialMT-4e" x="144.433594"/>
      <use xlink:href="#ArialMT-20" x="216.650391"/>
      <use xlink:href="#ArialMT-74" x="244.433594"/>
      <use xlink:href="#ArialMT-72" x="272.216797"/>
      <use xlink:href="#ArialMT-61" x="305.517578"/>
      <use xlink:href="#ArialMT-69" x="361.132812"/>
      <use xlink:href="#ArialMT-6e" x="383.349609"/>
      <use xlink:href="#ArialMT-69" x="438.964844"/>
      <use xlink:href="#ArialMT-6e" x="461.181641"/>
      <use xlink:href="#ArialMT-67" x="516.796875"/>
     </g>
    </g>
    <g id="line2d_63">
     <path d="M 160.199102 62.528125 
L 170.199102 62.528125 
L 180.199102 62.528125 
" style="fill: none; stroke-dasharray: 5.55,2.4; stroke-dashoffset: 0; stroke: #ff0000; stroke-width: 1.5"/>
    </g>
    <g id="text_17">
     <!-- RNN test -->
     <g transform="translate(188.199102 66.028125) scale(0.1 -0.1)">
      <use xlink:href="#ArialMT-52"/>
      <use xlink:href="#ArialMT-4e" x="72.216797"/>
      <use xlink:href="#ArialMT-4e" x="144.433594"/>
      <use xlink:href="#ArialMT-20" x="216.650391"/>
      <use xlink:href="#ArialMT-74" x="244.433594"/>
      <use xlink:href="#ArialMT-65" x="272.216797"/>
      <use xlink:href="#ArialMT-73" x="327.832031"/>
      <use xlink:href="#ArialMT-74" x="377.832031"/>
     </g>
    </g>
   </g>
  </g>
 </g>
 <defs>
  <clipPath id="pc7b52c6346">
   <rect x="43.645313" y="7.2" width="219.685039" height="174.614173"/>
  </clipPath>
 </defs>
</svg>
