<?xml version="1.0" encoding="utf-8" standalone="no"?>
<!DOCTYPE svg PUBLIC "-//W3C//DTD SVG 1.1//EN"
  "http://www.w3.org/Graphics/SVG/1.1/DTD/svg11.dtd">
<svg xmlns:xlink="http://www.w3.org/1999/xlink" width="493.177891pt" height="215.043861pt" viewBox="0 0 493.177891 215.043861" xmlns="http://www.w3.org/2000/svg" version="1.1">
 <metadata>
  <rdf:RDF xmlns:dc="http://purl.org/dc/elements/1.1/" xmlns:cc="http://creativecommons.org/ns#" xmlns:rdf="http://www.w3.org/1999/02/22-rdf-syntax-ns#">
   <cc:Work>
    <dc:type rdf:resource="http://purl.org/dc/dcmitype/StillImage"/>
    <dc:date>2024-04-03T13:05:39.482260</dc:date>
    <dc:format>image/svg+xml</dc:format>
    <dc:creator>
     <cc:Agent>
      <dc:title>Matplotlib v3.8.2, https://matplotlib.org/</dc:title>
     </cc:Agent>
    </dc:creator>
   </cc:Work>
  </rdf:RDF>
 </metadata>
 <defs>
  <style type="text/css">*{stroke-linejoin: round; stroke-linecap: butt}</style>
 </defs>
 <g id="figure_1">
  <g id="patch_1">
   <path d="M 0 215.043861 
L 493.177891 215.043861 
L 493.177891 0 
L 0 0 
z
" style="fill: #ffffff"/>
  </g>
  <g id="axes_1">
   <g id="patch_2">
    <path d="M 41.046875 181.814173 
L 480.416954 181.814173 
L 480.416954 7.2 
L 41.046875 7.2 
z
" style="fill: #ffffff"/>
   </g>
   <g id="matplotlib.axis_1">
    <g id="xtick_1">
     <g id="line2d_1">
      <path d="M 41.046875 181.814173 
L 41.046875 7.2 
" clip-path="url(#p946ed43440)" style="fill: none; stroke: #b0b0b0; stroke-width: 0.8; stroke-linecap: square"/>
     </g>
     <g id="line2d_2">
      <defs>
       <path id="m2dc4ac0cac" d="M 0 0 
L 0 -3.5 
" style="stroke: #000000; stroke-width: 0.8"/>
      </defs>
      <g>
       <use xlink:href="#m2dc4ac0cac" x="41.046875" y="181.814173" style="stroke: #000000; stroke-width: 0.8"/>
      </g>
     </g>
     <g id="text_1">
      <!-- 0 -->
      <g transform="translate(38.266406 192.471986) scale(0.1 -0.1)">
       <defs>
        <path id="ArialMT-30" d="M 266 2259 
Q 266 3072 433 3567 
Q 600 4063 929 4331 
Q 1259 4600 1759 4600 
Q 2128 4600 2406 4451 
Q 2684 4303 2865 4023 
Q 3047 3744 3150 3342 
Q 3253 2941 3253 2259 
Q 3253 1453 3087 958 
Q 2922 463 2592 192 
Q 2263 -78 1759 -78 
Q 1097 -78 719 397 
Q 266 969 266 2259 
z
M 844 2259 
Q 844 1131 1108 757 
Q 1372 384 1759 384 
Q 2147 384 2411 759 
Q 2675 1134 2675 2259 
Q 2675 3391 2411 3762 
Q 2147 4134 1753 4134 
Q 1366 4134 1134 3806 
Q 844 3388 844 2259 
z
" transform="scale(0.015625)"/>
       </defs>
       <use xlink:href="#ArialMT-30"/>
      </g>
     </g>
    </g>
    <g id="xtick_2">
     <g id="line2d_3">
      <path d="M 95.968135 181.814173 
L 95.968135 7.2 
" clip-path="url(#p946ed43440)" style="fill: none; stroke: #b0b0b0; stroke-width: 0.8; stroke-linecap: square"/>
     </g>
     <g id="line2d_4">
      <g>
       <use xlink:href="#m2dc4ac0cac" x="95.968135" y="181.814173" style="stroke: #000000; stroke-width: 0.8"/>
      </g>
     </g>
     <g id="text_2">
      <!-- 5 -->
      <g transform="translate(93.187666 192.471986) scale(0.1 -0.1)">
       <defs>
        <path id="ArialMT-35" d="M 266 1200 
L 856 1250 
Q 922 819 1161 601 
Q 1400 384 1738 384 
Q 2144 384 2425 690 
Q 2706 997 2706 1503 
Q 2706 1984 2436 2262 
Q 2166 2541 1728 2541 
Q 1456 2541 1237 2417 
Q 1019 2294 894 2097 
L 366 2166 
L 809 4519 
L 3088 4519 
L 3088 3981 
L 1259 3981 
L 1013 2750 
Q 1425 3038 1878 3038 
Q 2478 3038 2890 2622 
Q 3303 2206 3303 1553 
Q 3303 931 2941 478 
Q 2500 -78 1738 -78 
Q 1113 -78 717 272 
Q 322 622 266 1200 
z
" transform="scale(0.015625)"/>
       </defs>
       <use xlink:href="#ArialMT-35"/>
      </g>
     </g>
    </g>
    <g id="xtick_3">
     <g id="line2d_5">
      <path d="M 150.889395 181.814173 
L 150.889395 7.2 
" clip-path="url(#p946ed43440)" style="fill: none; stroke: #b0b0b0; stroke-width: 0.8; stroke-linecap: square"/>
     </g>
     <g id="line2d_6">
      <g>
       <use xlink:href="#m2dc4ac0cac" x="150.889395" y="181.814173" style="stroke: #000000; stroke-width: 0.8"/>
      </g>
     </g>
     <g id="text_3">
      <!-- 10 -->
      <g transform="translate(145.328457 192.471986) scale(0.1 -0.1)">
       <defs>
        <path id="ArialMT-31" d="M 2384 0 
L 1822 0 
L 1822 3584 
Q 1619 3391 1289 3197 
Q 959 3003 697 2906 
L 697 3450 
Q 1169 3672 1522 3987 
Q 1875 4303 2022 4600 
L 2384 4600 
L 2384 0 
z
" transform="scale(0.015625)"/>
       </defs>
       <use xlink:href="#ArialMT-31"/>
       <use xlink:href="#ArialMT-30" x="55.615234"/>
      </g>
     </g>
    </g>
    <g id="xtick_4">
     <g id="line2d_7">
      <path d="M 205.810655 181.814173 
L 205.810655 7.2 
" clip-path="url(#p946ed43440)" style="fill: none; stroke: #b0b0b0; stroke-width: 0.8; stroke-linecap: square"/>
     </g>
     <g id="line2d_8">
      <g>
       <use xlink:href="#m2dc4ac0cac" x="205.810655" y="181.814173" style="stroke: #000000; stroke-width: 0.8"/>
      </g>
     </g>
     <g id="text_4">
      <!-- 15 -->
      <g transform="translate(200.249717 192.471986) scale(0.1 -0.1)">
       <use xlink:href="#ArialMT-31"/>
       <use xlink:href="#ArialMT-35" x="55.615234"/>
      </g>
     </g>
    </g>
    <g id="xtick_5">
     <g id="line2d_9">
      <path d="M 260.731914 181.814173 
L 260.731914 7.2 
" clip-path="url(#p946ed43440)" style="fill: none; stroke: #b0b0b0; stroke-width: 0.8; stroke-linecap: square"/>
     </g>
     <g id="line2d_10">
      <g>
       <use xlink:href="#m2dc4ac0cac" x="260.731914" y="181.814173" style="stroke: #000000; stroke-width: 0.8"/>
      </g>
     </g>
     <g id="text_5">
      <!-- 20 -->
      <g transform="translate(255.170977 192.471986) scale(0.1 -0.1)">
       <defs>
        <path id="ArialMT-32" d="M 3222 541 
L 3222 0 
L 194 0 
Q 188 203 259 391 
Q 375 700 629 1000 
Q 884 1300 1366 1694 
Q 2113 2306 2375 2664 
Q 2638 3022 2638 3341 
Q 2638 3675 2398 3904 
Q 2159 4134 1775 4134 
Q 1369 4134 1125 3890 
Q 881 3647 878 3216 
L 300 3275 
Q 359 3922 746 4261 
Q 1134 4600 1788 4600 
Q 2447 4600 2831 4234 
Q 3216 3869 3216 3328 
Q 3216 3053 3103 2787 
Q 2991 2522 2730 2228 
Q 2469 1934 1863 1422 
Q 1356 997 1212 845 
Q 1069 694 975 541 
L 3222 541 
z
" transform="scale(0.015625)"/>
       </defs>
       <use xlink:href="#ArialMT-32"/>
       <use xlink:href="#ArialMT-30" x="55.615234"/>
      </g>
     </g>
    </g>
    <g id="xtick_6">
     <g id="line2d_11">
      <path d="M 315.653174 181.814173 
L 315.653174 7.2 
" clip-path="url(#p946ed43440)" style="fill: none; stroke: #b0b0b0; stroke-width: 0.8; stroke-linecap: square"/>
     </g>
     <g id="line2d_12">
      <g>
       <use xlink:href="#m2dc4ac0cac" x="315.653174" y="181.814173" style="stroke: #000000; stroke-width: 0.8"/>
      </g>
     </g>
     <g id="text_6">
      <!-- 25 -->
      <g transform="translate(310.092237 192.471986) scale(0.1 -0.1)">
       <use xlink:href="#ArialMT-32"/>
       <use xlink:href="#ArialMT-35" x="55.615234"/>
      </g>
     </g>
    </g>
    <g id="xtick_7">
     <g id="line2d_13">
      <path d="M 370.574434 181.814173 
L 370.574434 7.2 
" clip-path="url(#p946ed43440)" style="fill: none; stroke: #b0b0b0; stroke-width: 0.8; stroke-linecap: square"/>
     </g>
     <g id="line2d_14">
      <g>
       <use xlink:href="#m2dc4ac0cac" x="370.574434" y="181.814173" style="stroke: #000000; stroke-width: 0.8"/>
      </g>
     </g>
     <g id="text_7">
      <!-- 30 -->
      <g transform="translate(365.013497 192.471986) scale(0.1 -0.1)">
       <defs>
        <path id="ArialMT-33" d="M 269 1209 
L 831 1284 
Q 928 806 1161 595 
Q 1394 384 1728 384 
Q 2125 384 2398 659 
Q 2672 934 2672 1341 
Q 2672 1728 2419 1979 
Q 2166 2231 1775 2231 
Q 1616 2231 1378 2169 
L 1441 2663 
Q 1497 2656 1531 2656 
Q 1891 2656 2178 2843 
Q 2466 3031 2466 3422 
Q 2466 3731 2256 3934 
Q 2047 4138 1716 4138 
Q 1388 4138 1169 3931 
Q 950 3725 888 3313 
L 325 3413 
Q 428 3978 793 4289 
Q 1159 4600 1703 4600 
Q 2078 4600 2393 4439 
Q 2709 4278 2876 4000 
Q 3044 3722 3044 3409 
Q 3044 3113 2884 2869 
Q 2725 2625 2413 2481 
Q 2819 2388 3044 2092 
Q 3269 1797 3269 1353 
Q 3269 753 2831 336 
Q 2394 -81 1725 -81 
Q 1122 -81 723 278 
Q 325 638 269 1209 
z
" transform="scale(0.015625)"/>
       </defs>
       <use xlink:href="#ArialMT-33"/>
       <use xlink:href="#ArialMT-30" x="55.615234"/>
      </g>
     </g>
    </g>
    <g id="xtick_8">
     <g id="line2d_15">
      <path d="M 425.495694 181.814173 
L 425.495694 7.2 
" clip-path="url(#p946ed43440)" style="fill: none; stroke: #b0b0b0; stroke-width: 0.8; stroke-linecap: square"/>
     </g>
     <g id="line2d_16">
      <g>
       <use xlink:href="#m2dc4ac0cac" x="425.495694" y="181.814173" style="stroke: #000000; stroke-width: 0.8"/>
      </g>
     </g>
     <g id="text_8">
      <!-- 35 -->
      <g transform="translate(419.934756 192.471986) scale(0.1 -0.1)">
       <use xlink:href="#ArialMT-33"/>
       <use xlink:href="#ArialMT-35" x="55.615234"/>
      </g>
     </g>
    </g>
    <g id="xtick_9">
     <g id="line2d_17">
      <path d="M 480.416954 181.814173 
L 480.416954 7.2 
" clip-path="url(#p946ed43440)" style="fill: none; stroke: #b0b0b0; stroke-width: 0.8; stroke-linecap: square"/>
     </g>
     <g id="line2d_18">
      <g>
       <use xlink:href="#m2dc4ac0cac" x="480.416954" y="181.814173" style="stroke: #000000; stroke-width: 0.8"/>
      </g>
     </g>
     <g id="text_9">
      <!-- 40 -->
      <g transform="translate(474.856016 192.471986) scale(0.1 -0.1)">
       <defs>
        <path id="ArialMT-34" d="M 2069 0 
L 2069 1097 
L 81 1097 
L 81 1613 
L 2172 4581 
L 2631 4581 
L 2631 1613 
L 3250 1613 
L 3250 1097 
L 2631 1097 
L 2631 0 
L 2069 0 
z
M 2069 1613 
L 2069 3678 
L 634 1613 
L 2069 1613 
z
" transform="scale(0.015625)"/>
       </defs>
       <use xlink:href="#ArialMT-34"/>
       <use xlink:href="#ArialMT-30" x="55.615234"/>
      </g>
     </g>
    </g>
    <g id="text_10">
     <!-- Time (s) -->
     <g transform="translate(242.590508 205.739173) scale(0.1 -0.1)">
      <defs>
       <path id="ArialMT-54" d="M 1659 0 
L 1659 4041 
L 150 4041 
L 150 4581 
L 3781 4581 
L 3781 4041 
L 2266 4041 
L 2266 0 
L 1659 0 
z
" transform="scale(0.015625)"/>
       <path id="ArialMT-69" d="M 425 3934 
L 425 4581 
L 988 4581 
L 988 3934 
L 425 3934 
z
M 425 0 
L 425 3319 
L 988 3319 
L 988 0 
L 425 0 
z
" transform="scale(0.015625)"/>
       <path id="ArialMT-6d" d="M 422 0 
L 422 3319 
L 925 3319 
L 925 2853 
Q 1081 3097 1340 3245 
Q 1600 3394 1931 3394 
Q 2300 3394 2536 3241 
Q 2772 3088 2869 2813 
Q 3263 3394 3894 3394 
Q 4388 3394 4653 3120 
Q 4919 2847 4919 2278 
L 4919 0 
L 4359 0 
L 4359 2091 
Q 4359 2428 4304 2576 
Q 4250 2725 4106 2815 
Q 3963 2906 3769 2906 
Q 3419 2906 3187 2673 
Q 2956 2441 2956 1928 
L 2956 0 
L 2394 0 
L 2394 2156 
Q 2394 2531 2256 2718 
Q 2119 2906 1806 2906 
Q 1569 2906 1367 2781 
Q 1166 2656 1075 2415 
Q 984 2175 984 1722 
L 984 0 
L 422 0 
z
" transform="scale(0.015625)"/>
       <path id="ArialMT-65" d="M 2694 1069 
L 3275 997 
Q 3138 488 2766 206 
Q 2394 -75 1816 -75 
Q 1088 -75 661 373 
Q 234 822 234 1631 
Q 234 2469 665 2931 
Q 1097 3394 1784 3394 
Q 2450 3394 2872 2941 
Q 3294 2488 3294 1666 
Q 3294 1616 3291 1516 
L 816 1516 
Q 847 969 1125 678 
Q 1403 388 1819 388 
Q 2128 388 2347 550 
Q 2566 713 2694 1069 
z
M 847 1978 
L 2700 1978 
Q 2663 2397 2488 2606 
Q 2219 2931 1791 2931 
Q 1403 2931 1139 2672 
Q 875 2413 847 1978 
z
" transform="scale(0.015625)"/>
       <path id="ArialMT-20" transform="scale(0.015625)"/>
       <path id="ArialMT-28" d="M 1497 -1347 
Q 1031 -759 709 28 
Q 388 816 388 1659 
Q 388 2403 628 3084 
Q 909 3875 1497 4659 
L 1900 4659 
Q 1522 4009 1400 3731 
Q 1209 3300 1100 2831 
Q 966 2247 966 1656 
Q 966 153 1900 -1347 
L 1497 -1347 
z
" transform="scale(0.015625)"/>
       <path id="ArialMT-73" d="M 197 991 
L 753 1078 
Q 800 744 1014 566 
Q 1228 388 1613 388 
Q 2000 388 2187 545 
Q 2375 703 2375 916 
Q 2375 1106 2209 1216 
Q 2094 1291 1634 1406 
Q 1016 1563 777 1677 
Q 538 1791 414 1992 
Q 291 2194 291 2438 
Q 291 2659 392 2848 
Q 494 3038 669 3163 
Q 800 3259 1026 3326 
Q 1253 3394 1513 3394 
Q 1903 3394 2198 3281 
Q 2494 3169 2634 2976 
Q 2775 2784 2828 2463 
L 2278 2388 
Q 2241 2644 2061 2787 
Q 1881 2931 1553 2931 
Q 1166 2931 1000 2803 
Q 834 2675 834 2503 
Q 834 2394 903 2306 
Q 972 2216 1119 2156 
Q 1203 2125 1616 2013 
Q 2213 1853 2448 1751 
Q 2684 1650 2818 1456 
Q 2953 1263 2953 975 
Q 2953 694 2789 445 
Q 2625 197 2315 61 
Q 2006 -75 1616 -75 
Q 969 -75 630 194 
Q 291 463 197 991 
z
" transform="scale(0.015625)"/>
       <path id="ArialMT-29" d="M 791 -1347 
L 388 -1347 
Q 1322 153 1322 1656 
Q 1322 2244 1188 2822 
Q 1081 3291 891 3722 
Q 769 4003 388 4659 
L 791 4659 
Q 1378 3875 1659 3084 
Q 1900 2403 1900 1659 
Q 1900 816 1576 28 
Q 1253 -759 791 -1347 
z
" transform="scale(0.015625)"/>
      </defs>
      <use xlink:href="#ArialMT-54"/>
      <use xlink:href="#ArialMT-69" x="57.333984"/>
      <use xlink:href="#ArialMT-6d" x="79.550781"/>
      <use xlink:href="#ArialMT-65" x="162.851562"/>
      <use xlink:href="#ArialMT-20" x="218.466797"/>
      <use xlink:href="#ArialMT-28" x="246.25"/>
      <use xlink:href="#ArialMT-73" x="279.550781"/>
      <use xlink:href="#ArialMT-29" x="329.550781"/>
     </g>
    </g>
   </g>
   <g id="matplotlib.axis_2">
    <g id="ytick_1">
     <g id="line2d_19">
      <path d="M 41.046875 181.814173 
L 480.416954 181.814173 
" clip-path="url(#p946ed43440)" style="fill: none; stroke: #b0b0b0; stroke-width: 0.8; stroke-linecap: square"/>
     </g>
     <g id="line2d_20">
      <defs>
       <path id="m307f1a21d8" d="M 0 0 
L 3.5 0 
" style="stroke: #000000; stroke-width: 0.8"/>
      </defs>
      <g>
       <use xlink:href="#m307f1a21d8" x="41.046875" y="181.814173" style="stroke: #000000; stroke-width: 0.8"/>
      </g>
     </g>
     <g id="text_11">
      <!-- −20 -->
      <g transform="translate(20.584375 185.393079) scale(0.1 -0.1)">
       <defs>
        <path id="ArialMT-2212" d="M 3381 1997 
L 356 1997 
L 356 2522 
L 3381 2522 
L 3381 1997 
z
" transform="scale(0.015625)"/>
       </defs>
       <use xlink:href="#ArialMT-2212"/>
       <use xlink:href="#ArialMT-32" x="58.398438"/>
       <use xlink:href="#ArialMT-30" x="114.013672"/>
      </g>
     </g>
    </g>
    <g id="ytick_2">
     <g id="line2d_21">
      <path d="M 41.046875 138.16063 
L 480.416954 138.16063 
" clip-path="url(#p946ed43440)" style="fill: none; stroke: #b0b0b0; stroke-width: 0.8; stroke-linecap: square"/>
     </g>
     <g id="line2d_22">
      <g>
       <use xlink:href="#m307f1a21d8" x="41.046875" y="138.16063" style="stroke: #000000; stroke-width: 0.8"/>
      </g>
     </g>
     <g id="text_12">
      <!-- −10 -->
      <g transform="translate(20.584375 141.739536) scale(0.1 -0.1)">
       <use xlink:href="#ArialMT-2212"/>
       <use xlink:href="#ArialMT-31" x="58.398438"/>
       <use xlink:href="#ArialMT-30" x="114.013672"/>
      </g>
     </g>
    </g>
    <g id="ytick_3">
     <g id="line2d_23">
      <path d="M 41.046875 94.507087 
L 480.416954 94.507087 
" clip-path="url(#p946ed43440)" style="fill: none; stroke: #b0b0b0; stroke-width: 0.8; stroke-linecap: square"/>
     </g>
     <g id="line2d_24">
      <g>
       <use xlink:href="#m307f1a21d8" x="41.046875" y="94.507087" style="stroke: #000000; stroke-width: 0.8"/>
      </g>
     </g>
     <g id="text_13">
      <!-- 0 -->
      <g transform="translate(31.985938 98.085993) scale(0.1 -0.1)">
       <use xlink:href="#ArialMT-30"/>
      </g>
     </g>
    </g>
    <g id="ytick_4">
     <g id="line2d_25">
      <path d="M 41.046875 50.853543 
L 480.416954 50.853543 
" clip-path="url(#p946ed43440)" style="fill: none; stroke: #b0b0b0; stroke-width: 0.8; stroke-linecap: square"/>
     </g>
     <g id="line2d_26">
      <g>
       <use xlink:href="#m307f1a21d8" x="41.046875" y="50.853543" style="stroke: #000000; stroke-width: 0.8"/>
      </g>
     </g>
     <g id="text_14">
      <!-- 10 -->
      <g transform="translate(26.425 54.43245) scale(0.1 -0.1)">
       <use xlink:href="#ArialMT-31"/>
       <use xlink:href="#ArialMT-30" x="55.615234"/>
      </g>
     </g>
    </g>
    <g id="text_15">
     <!-- Displacement (cm) -->
     <g transform="translate(14.479688 136.179743) rotate(-90) scale(0.1 -0.1)">
      <defs>
       <path id="ArialMT-44" d="M 494 0 
L 494 4581 
L 2072 4581 
Q 2606 4581 2888 4516 
Q 3281 4425 3559 4188 
Q 3922 3881 4101 3404 
Q 4281 2928 4281 2316 
Q 4281 1794 4159 1391 
Q 4038 988 3847 723 
Q 3656 459 3429 307 
Q 3203 156 2883 78 
Q 2563 0 2147 0 
L 494 0 
z
M 1100 541 
L 2078 541 
Q 2531 541 2789 625 
Q 3047 709 3200 863 
Q 3416 1078 3536 1442 
Q 3656 1806 3656 2325 
Q 3656 3044 3420 3430 
Q 3184 3816 2847 3947 
Q 2603 4041 2063 4041 
L 1100 4041 
L 1100 541 
z
" transform="scale(0.015625)"/>
       <path id="ArialMT-70" d="M 422 -1272 
L 422 3319 
L 934 3319 
L 934 2888 
Q 1116 3141 1344 3267 
Q 1572 3394 1897 3394 
Q 2322 3394 2647 3175 
Q 2972 2956 3137 2557 
Q 3303 2159 3303 1684 
Q 3303 1175 3120 767 
Q 2938 359 2589 142 
Q 2241 -75 1856 -75 
Q 1575 -75 1351 44 
Q 1128 163 984 344 
L 984 -1272 
L 422 -1272 
z
M 931 1641 
Q 931 1000 1190 694 
Q 1450 388 1819 388 
Q 2194 388 2461 705 
Q 2728 1022 2728 1688 
Q 2728 2322 2467 2637 
Q 2206 2953 1844 2953 
Q 1484 2953 1207 2617 
Q 931 2281 931 1641 
z
" transform="scale(0.015625)"/>
       <path id="ArialMT-6c" d="M 409 0 
L 409 4581 
L 972 4581 
L 972 0 
L 409 0 
z
" transform="scale(0.015625)"/>
       <path id="ArialMT-61" d="M 2588 409 
Q 2275 144 1986 34 
Q 1697 -75 1366 -75 
Q 819 -75 525 192 
Q 231 459 231 875 
Q 231 1119 342 1320 
Q 453 1522 633 1644 
Q 813 1766 1038 1828 
Q 1203 1872 1538 1913 
Q 2219 1994 2541 2106 
Q 2544 2222 2544 2253 
Q 2544 2597 2384 2738 
Q 2169 2928 1744 2928 
Q 1347 2928 1158 2789 
Q 969 2650 878 2297 
L 328 2372 
Q 403 2725 575 2942 
Q 747 3159 1072 3276 
Q 1397 3394 1825 3394 
Q 2250 3394 2515 3294 
Q 2781 3194 2906 3042 
Q 3031 2891 3081 2659 
Q 3109 2516 3109 2141 
L 3109 1391 
Q 3109 606 3145 398 
Q 3181 191 3288 0 
L 2700 0 
Q 2613 175 2588 409 
z
M 2541 1666 
Q 2234 1541 1622 1453 
Q 1275 1403 1131 1340 
Q 988 1278 909 1158 
Q 831 1038 831 891 
Q 831 666 1001 516 
Q 1172 366 1500 366 
Q 1825 366 2078 508 
Q 2331 650 2450 897 
Q 2541 1088 2541 1459 
L 2541 1666 
z
" transform="scale(0.015625)"/>
       <path id="ArialMT-63" d="M 2588 1216 
L 3141 1144 
Q 3050 572 2676 248 
Q 2303 -75 1759 -75 
Q 1078 -75 664 370 
Q 250 816 250 1647 
Q 250 2184 428 2587 
Q 606 2991 970 3192 
Q 1334 3394 1763 3394 
Q 2303 3394 2647 3120 
Q 2991 2847 3088 2344 
L 2541 2259 
Q 2463 2594 2264 2762 
Q 2066 2931 1784 2931 
Q 1359 2931 1093 2626 
Q 828 2322 828 1663 
Q 828 994 1084 691 
Q 1341 388 1753 388 
Q 2084 388 2306 591 
Q 2528 794 2588 1216 
z
" transform="scale(0.015625)"/>
       <path id="ArialMT-6e" d="M 422 0 
L 422 3319 
L 928 3319 
L 928 2847 
Q 1294 3394 1984 3394 
Q 2284 3394 2536 3286 
Q 2788 3178 2913 3003 
Q 3038 2828 3088 2588 
Q 3119 2431 3119 2041 
L 3119 0 
L 2556 0 
L 2556 2019 
Q 2556 2363 2490 2533 
Q 2425 2703 2258 2804 
Q 2091 2906 1866 2906 
Q 1506 2906 1245 2678 
Q 984 2450 984 1813 
L 984 0 
L 422 0 
z
" transform="scale(0.015625)"/>
       <path id="ArialMT-74" d="M 1650 503 
L 1731 6 
Q 1494 -44 1306 -44 
Q 1000 -44 831 53 
Q 663 150 594 308 
Q 525 466 525 972 
L 525 2881 
L 113 2881 
L 113 3319 
L 525 3319 
L 525 4141 
L 1084 4478 
L 1084 3319 
L 1650 3319 
L 1650 2881 
L 1084 2881 
L 1084 941 
Q 1084 700 1114 631 
Q 1144 563 1211 522 
Q 1278 481 1403 481 
Q 1497 481 1650 503 
z
" transform="scale(0.015625)"/>
      </defs>
      <use xlink:href="#ArialMT-44"/>
      <use xlink:href="#ArialMT-69" x="72.216797"/>
      <use xlink:href="#ArialMT-73" x="94.433594"/>
      <use xlink:href="#ArialMT-70" x="144.433594"/>
      <use xlink:href="#ArialMT-6c" x="200.048828"/>
      <use xlink:href="#ArialMT-61" x="222.265625"/>
      <use xlink:href="#ArialMT-63" x="277.880859"/>
      <use xlink:href="#ArialMT-65" x="327.880859"/>
      <use xlink:href="#ArialMT-6d" x="383.496094"/>
      <use xlink:href="#ArialMT-65" x="466.796875"/>
      <use xlink:href="#ArialMT-6e" x="522.412109"/>
      <use xlink:href="#ArialMT-74" x="578.027344"/>
      <use xlink:href="#ArialMT-20" x="605.810547"/>
      <use xlink:href="#ArialMT-28" x="633.59375"/>
      <use xlink:href="#ArialMT-63" x="666.894531"/>
      <use xlink:href="#ArialMT-6d" x="716.894531"/>
      <use xlink:href="#ArialMT-29" x="800.195312"/>
     </g>
    </g>
   </g>
   <g id="line2d_27">
    <path d="M 41.046875 94.507087 
L 77.844119 94.428381 
L 83.885458 94.05455 
L 85.533095 94.159043 
L 87.180733 94.70531 
L 88.279158 95.327531 
L 89.377584 95.537428 
L 89.926796 95.905904 
L 90.476009 96.434245 
L 91.025221 96.782953 
L 91.574434 96.682126 
L 92.123647 97.26717 
L 92.672859 98.182915 
L 93.222072 98.222624 
L 94.86971 94.878466 
L 95.418922 94.504914 
L 95.968135 95.449329 
L 97.615773 102.151418 
L 98.164985 103.425154 
L 98.714198 102.728106 
L 99.26341 100.002512 
L 100.361836 92.797683 
L 100.911048 90.439821 
L 101.460261 89.662089 
L 102.009473 91.219751 
L 102.558686 93.569382 
L 103.107899 95.294655 
L 103.657111 93.880755 
L 105.304749 81.032115 
L 105.853962 78.026156 
L 106.403174 75.821179 
L 107.501599 72.496709 
L 108.050812 69.398289 
L 108.600025 67.413777 
L 109.149237 67.655638 
L 109.69845 70.008054 
L 110.247662 75.777206 
L 111.8953 103.129264 
L 112.444513 109.656814 
L 112.993725 113.552815 
L 113.542938 113.788829 
L 114.092151 111.892993 
L 114.641363 112.257244 
L 115.190576 116.641428 
L 115.739788 122.622735 
L 116.289001 127.226125 
L 116.838214 129.752476 
L 117.387426 130.969716 
L 117.936639 129.596255 
L 119.035064 121.176988 
L 119.584277 119.798554 
L 120.133489 120.103438 
L 120.682702 117.646804 
L 121.231914 108.93469 
L 123.428765 54.786703 
L 123.977977 52.163891 
L 124.52719 57.659893 
L 125.625615 78.800198 
L 126.174828 80.820399 
L 126.72404 73.840114 
L 128.371678 35.489605 
L 128.920891 32.620907 
L 129.470103 42.124154 
L 130.568529 80.417203 
L 131.117741 93.25755 
L 131.666954 98.563553 
L 132.216166 98.400951 
L 132.765379 96.334295 
L 133.314592 97.597809 
L 133.863804 105.864164 
L 135.511442 149.1763 
L 136.060655 153.615441 
L 136.609867 149.061714 
L 137.15908 138.315082 
L 138.257505 113.9649 
L 138.806718 109.305962 
L 139.35593 113.434482 
L 140.454355 134.305571 
L 141.003568 139.161291 
L 141.552781 135.194923 
L 142.101993 123.090446 
L 143.749631 73.778976 
L 144.298844 64.426313 
L 144.848056 61.46275 
L 145.397269 63.252214 
L 145.946481 67.567436 
L 147.594119 84.288858 
L 148.143332 85.469577 
L 148.692544 82.447118 
L 150.340182 67.090927 
L 150.889395 64.279426 
L 151.438607 65.452445 
L 151.98782 72.33694 
L 153.635458 104.267368 
L 154.18467 109.129976 
L 154.733883 109.927631 
L 155.283095 106.444168 
L 156.381521 91.680769 
L 156.930733 84.616023 
L 157.479946 79.255352 
L 158.029158 75.228317 
L 158.578371 72.510661 
L 159.127584 72.492277 
L 159.676796 76.421696 
L 160.226009 83.19158 
L 161.873647 109.201014 
L 162.422859 113.881138 
L 162.972072 112.677353 
L 163.521284 107.165177 
L 164.070497 100.38966 
L 164.61971 96.380007 
L 165.168922 97.27193 
L 165.718135 103.229155 
L 166.81656 122.302518 
L 167.365773 127.886536 
L 167.914985 127.544092 
L 168.464198 122.038825 
L 170.111836 99.929027 
L 170.661048 97.188634 
L 171.210261 98.048244 
L 171.759473 99.994857 
L 172.308686 100.77886 
L 172.857899 100.343655 
L 173.407111 98.932054 
L 174.505536 94.853035 
L 175.603962 92.657961 
L 176.153174 90.548551 
L 176.702387 86.835516 
L 178.350025 70.919791 
L 178.899237 67.46198 
L 179.44845 65.694472 
L 179.997662 65.054113 
L 180.546875 65.565653 
L 181.096088 67.502912 
L 183.292938 78.787807 
L 183.842151 82.402375 
L 184.391363 84.859553 
L 184.940576 86.136235 
L 186.039001 87.40483 
L 186.588214 89.426163 
L 187.137426 94.085849 
L 187.686639 101.085586 
L 188.785064 117.861642 
L 189.334277 124.271868 
L 189.883489 128.079663 
L 190.432702 129.838016 
L 190.981914 130.151953 
L 191.531127 129.553029 
L 192.08034 127.717496 
L 192.629552 124.200643 
L 193.727977 113.92059 
L 195.375615 95.905884 
L 195.924828 92.338815 
L 197.572466 86.125331 
L 198.121678 82.609036 
L 198.670891 77.333702 
L 199.769316 64.913936 
L 200.318529 61.635104 
L 200.867741 62.047584 
L 201.416954 65.561683 
L 203.613804 85.441315 
L 205.261442 95.823404 
L 205.810655 98.249048 
L 206.359867 99.412972 
L 206.90908 99.110296 
L 208.007505 97.35698 
L 208.556718 97.34952 
L 209.10593 98.896025 
L 209.655143 102.178628 
L 210.753568 109.564745 
L 211.302781 111.076633 
L 211.851993 109.873218 
L 212.401206 105.551278 
L 213.499631 94.159097 
L 214.048844 90.788442 
L 214.598056 89.208608 
L 215.147269 88.861474 
L 216.245694 90.139537 
L 216.794906 90.360791 
L 217.344119 91.416907 
L 217.893332 94.735865 
L 220.090182 113.713972 
L 220.639395 115.254328 
L 221.188607 114.911738 
L 221.73782 112.774722 
L 222.287032 109.794893 
L 222.836245 107.552858 
L 223.385458 106.71565 
L 223.93467 106.654103 
L 224.483883 106.406483 
L 225.033095 105.582025 
L 225.582308 103.474236 
L 226.131521 99.216087 
L 227.229946 86.933787 
L 228.877584 67.650172 
L 229.426796 62.481249 
L 229.976009 58.958055 
L 230.525221 57.651687 
L 231.074434 58.646058 
L 231.623647 61.51005 
L 232.722072 70.438979 
L 233.820497 78.733238 
L 234.918922 84.420659 
L 235.468135 88.074091 
L 236.017347 93.362279 
L 237.115773 108.586674 
L 238.214198 123.723907 
L 238.76341 129.119908 
L 239.312623 133.195348 
L 239.861836 136.344845 
L 240.411048 138.598566 
L 240.960261 139.576826 
L 241.509473 139.072051 
L 242.058686 136.914365 
L 242.607899 132.223421 
L 243.157111 124.945466 
L 245.353962 90.516314 
L 245.903174 84.064347 
L 247.550812 68.143844 
L 249.19845 49.813644 
L 249.747662 46.069612 
L 250.296875 44.765246 
L 250.846088 45.935588 
L 251.3953 49.117241 
L 251.944513 53.643766 
L 253.042938 65.604526 
L 254.690576 88.784085 
L 256.338214 112.294635 
L 257.436639 123.761296 
L 257.985851 128.09801 
L 259.084277 134.155315 
L 259.633489 136.577901 
L 260.182702 138.29845 
L 260.731914 138.627158 
L 261.281127 137.216383 
L 261.83034 133.974215 
L 262.379552 129.104654 
L 263.477977 115.458449 
L 266.773253 66.895493 
L 267.322466 61.304091 
L 267.871678 57.303679 
L 268.420891 54.871068 
L 268.970103 53.538614 
L 269.519316 53.009252 
L 270.068529 53.012903 
L 270.617741 53.443516 
L 271.166954 54.61845 
L 271.716166 57.338154 
L 272.265379 62.225054 
L 272.814592 69.178791 
L 273.913017 87.94285 
L 275.011442 108.50463 
L 276.109867 125.025533 
L 276.65908 131.578215 
L 277.208292 136.495075 
L 277.757505 139.758821 
L 278.306718 141.545235 
L 278.85593 141.833186 
L 279.405143 140.288229 
L 279.954355 136.766986 
L 281.052781 125.612364 
L 282.151206 111.510306 
L 283.798844 86.838689 
L 285.446481 61.765 
L 285.995694 55.275903 
L 286.544906 50.511726 
L 287.094119 47.389556 
L 287.643332 45.836139 
L 288.192544 46.066177 
L 288.741757 48.212702 
L 289.290969 52.106907 
L 289.840182 57.455233 
L 290.938607 71.772855 
L 292.586245 95.786334 
L 294.233883 116.540195 
L 295.332308 128.28941 
L 296.430733 136.983073 
L 296.979946 139.358478 
L 297.529158 140.061068 
L 298.078371 139.404818 
L 298.627584 137.536423 
L 299.176796 134.175048 
L 299.726009 129.321272 
L 300.275221 123.195067 
L 301.373647 107.282623 
L 303.021284 82.520918 
L 303.570497 75.90864 
L 304.668922 66.359929 
L 305.767347 59.216282 
L 306.865773 54.117613 
L 307.414985 52.541932 
L 307.964198 52.460881 
L 308.51341 54.196013 
L 309.062623 57.576909 
L 309.611836 62.459184 
L 310.710261 75.324564 
L 314.005536 117.966861 
L 314.554749 122.396101 
L 315.103962 125.630694 
L 315.653174 128.007006 
L 316.202387 129.752343 
L 316.751599 130.933505 
L 317.300812 131.754482 
L 317.850025 132.06824 
L 318.399237 131.535481 
L 318.94845 129.813466 
L 319.497662 126.722705 
L 320.046875 122.214595 
L 321.1453 109.474535 
L 323.891363 73.721255 
L 324.440576 68.119835 
L 324.989788 63.700252 
L 325.539001 60.448319 
L 326.088214 58.153002 
L 326.637426 56.783908 
L 327.186639 56.389952 
L 327.735851 56.877966 
L 328.285064 58.123228 
L 328.834277 60.208417 
L 329.383489 63.133534 
L 329.932702 66.991846 
L 331.031127 77.717187 
L 332.678765 98.306823 
L 333.77719 112.206749 
L 334.875615 123.441868 
L 335.424828 127.812549 
L 335.97404 131.064673 
L 336.523253 133.227887 
L 337.072466 134.392122 
L 337.621678 134.611939 
L 338.170891 133.916556 
L 338.720103 132.368531 
L 339.269316 129.934854 
L 339.818529 126.635389 
L 340.367741 122.539556 
L 340.916954 117.430245 
L 342.015379 104.059151 
L 344.761442 65.275937 
L 345.859867 54.326923 
L 346.40908 50.757895 
L 346.958292 48.52718 
L 347.507505 47.610913 
L 348.056718 47.979525 
L 348.60593 49.626245 
L 349.155143 52.550808 
L 349.704355 56.775953 
L 350.802781 68.458291 
L 351.901206 83.323496 
L 355.196481 131.723129 
L 355.745694 137.870189 
L 356.294906 142.756821 
L 356.844119 146.088371 
L 357.393332 147.631422 
L 357.942544 147.322301 
L 358.491757 145.167592 
L 359.040969 141.294432 
L 359.590182 135.878879 
L 360.688607 121.342628 
L 362.885458 85.853686 
L 364.533095 60.704399 
L 365.631521 48.291118 
L 366.180733 44.070308 
L 366.729946 41.427272 
L 367.279158 40.537778 
L 367.828371 41.410503 
L 368.377584 43.973582 
L 368.926796 48.215582 
L 369.476009 54.045745 
L 370.574434 69.349654 
L 373.320497 112.774 
L 374.418922 126.975833 
L 375.517347 138.687632 
L 376.06656 143.186826 
L 376.615773 146.401934 
L 377.164985 148.091705 
L 377.714198 148.02199 
L 378.26341 146.099075 
L 378.812623 142.441165 
L 379.361836 137.18379 
L 380.460261 122.63071 
L 382.107899 94.917905 
L 383.755536 67.542157 
L 384.853962 53.190789 
L 385.403174 47.690629 
L 385.952387 43.380773 
L 386.501599 40.379501 
L 387.050812 38.849706 
L 387.600025 38.9735 
L 388.149237 40.847419 
L 388.69845 44.470197 
L 389.247662 49.737992 
L 390.346088 64.679078 
L 391.993725 93.658627 
L 393.641363 122.898615 
L 394.739788 138.272002 
L 395.289001 144.050904 
L 395.838214 148.449226 
L 396.387426 151.371533 
L 396.936639 152.760502 
L 397.485851 152.557212 
L 398.035064 150.72465 
L 398.584277 147.166767 
L 399.133489 141.800788 
L 399.682702 134.722649 
L 400.781127 116.458658 
L 404.076403 55.039275 
L 405.174828 40.760585 
L 405.72404 35.86862 
L 406.273253 32.761866 
L 406.822466 31.557819 
L 407.371678 32.370611 
L 407.920891 35.274404 
L 408.470103 40.134442 
L 409.019316 46.642999 
L 410.117741 63.795756 
L 411.765379 95.788318 
L 413.413017 128.375362 
L 414.511442 145.841756 
L 415.060655 152.190153 
L 415.609867 156.65648 
L 416.15908 159.193618 
L 416.708292 159.726244 
L 417.257505 158.240783 
L 417.806718 154.895199 
L 418.35593 149.796993 
L 418.905143 142.894925 
L 420.003568 124.355678 
L 423.848056 48.893856 
L 424.946481 35.192861 
L 425.495694 30.768003 
L 426.044906 28.252734 
L 426.594119 27.80034 
L 427.143332 29.452743 
L 427.692544 33.241283 
L 428.241757 39.131433 
L 429.340182 56.200892 
L 430.98782 89.641148 
L 432.635458 123.314359 
L 433.733883 141.528582 
L 434.283095 148.676371 
L 434.832308 154.257454 
L 435.381521 158.054712 
L 435.930733 159.952423 
L 436.479946 159.879522 
L 437.029158 157.764242 
L 437.578371 153.653605 
L 438.127584 147.709226 
L 439.226009 131.034931 
L 440.324434 109.773115 
L 442.521284 64.76204 
L 443.61971 46.956129 
L 444.168922 40.182098 
L 444.718135 34.908407 
L 445.267347 31.295284 
L 445.81656 29.504969 
L 446.365773 29.629051 
L 446.914985 31.731792 
L 447.464198 35.829137 
L 448.01341 41.893638 
L 449.111836 59.249607 
L 450.759473 92.802244 
L 452.407111 126.354152 
L 453.505536 144.270372 
L 454.054749 151.104339 
L 454.603962 156.18608 
L 455.153174 159.374206 
L 455.702387 160.554798 
L 456.251599 159.67212 
L 456.800812 156.722108 
L 457.350025 151.805572 
L 457.899237 145.113875 
L 458.997662 127.080134 
L 460.6453 93.063407 
L 462.292938 59.647702 
L 463.391363 42.748494 
L 463.940576 36.656633 
L 464.489788 32.334563 
L 465.039001 29.882631 
L 465.588214 29.398714 
L 466.137426 30.918629 
L 466.686639 34.413828 
L 467.235851 39.838752 
L 467.785064 47.060544 
L 468.883489 65.770275 
L 472.178765 130.040793 
L 473.27719 145.487295 
L 473.826403 151.023537 
L 474.375615 154.856207 
L 474.924828 156.848583 
L 475.47404 156.922745 
L 476.023253 155.061503 
L 476.572466 151.311013 
L 477.121678 145.773185 
L 478.220103 130.051955 
L 479.867741 99.26995 
L 481.515379 68.061528 
L 482.613804 51.172918 
L 483.163017 44.603284 
L 483.712229 39.508533 
L 484.261442 36.041481 
L 484.810655 34.338209 
L 485.359867 34.486487 
L 485.90908 36.515166 
L 486.458292 40.391132 
L 487.007505 46.013705 
L 488.10593 61.720889 
L 489.753568 91.900677 
L 490.302781 102.377564 
L 490.302781 102.377564 
" clip-path="url(#p946ed43440)" style="fill: none; stroke: #000000; stroke-width: 1.2; stroke-linecap: square"/>
   </g>
   <g id="line2d_28">
    <path d="M 41.046875 94.509376 
L 66.310655 94.626064 
L 67.40908 94.708673 
L 69.056718 94.559254 
L 70.155143 94.381164 
L 70.704355 94.277183 
L 72.351993 94.368742 
L 72.901206 94.22334 
L 73.450418 94.495229 
L 73.999631 94.521 
L 74.548844 94.723124 
L 75.098056 94.514353 
L 75.647269 94.855746 
L 76.196481 94.608424 
L 76.745694 94.762132 
L 77.294906 94.662569 
L 77.844119 94.782158 
L 78.393332 94.464472 
L 79.491757 94.406316 
L 81.139395 93.044189 
L 81.688607 93.193534 
L 82.23782 93.004613 
L 82.787032 93.269035 
L 83.336245 92.851787 
L 83.885458 93.64419 
L 84.43467 93.668972 
L 84.983883 94.265021 
L 86.082308 95.182469 
L 86.631521 94.492503 
L 87.180733 94.699755 
L 87.729946 94.409067 
L 88.279158 93.906189 
L 88.828371 95.695058 
L 89.926796 96.825466 
L 90.476009 96.664356 
L 91.025221 96.777509 
L 91.574434 95.597342 
L 92.123647 97.420119 
L 92.672859 96.539724 
L 93.222072 96.296199 
L 93.771284 96.560444 
L 94.320497 96.369907 
L 94.86971 95.315591 
L 95.418922 96.846436 
L 95.968135 95.24846 
L 96.517347 96.076953 
L 97.06656 97.235444 
L 97.615773 101.981048 
L 98.164985 104.095037 
L 98.714198 103.636932 
L 99.26341 98.850814 
L 99.812623 99.527799 
L 100.361836 95.124089 
L 100.911048 93.86186 
L 101.460261 89.957253 
L 102.009473 88.327653 
L 102.558686 90.22567 
L 103.107899 91.616101 
L 103.657111 95.096802 
L 104.206324 90.549246 
L 104.755536 88.714176 
L 105.304749 79.995801 
L 105.853962 74.646449 
L 106.403174 75.284494 
L 106.952387 74.314098 
L 107.501599 75.188232 
L 108.050812 72.656177 
L 108.600025 71.818319 
L 109.149237 73.405251 
L 109.69845 69.922695 
L 110.247662 79.03787 
L 110.796875 82.940165 
L 111.346088 90.392421 
L 112.444513 107.825956 
L 112.993725 114.44877 
L 113.542938 115.858296 
L 114.641363 113.191401 
L 115.739788 115.963933 
L 116.838214 133.541687 
L 117.387426 136.045928 
L 119.035064 120.066984 
L 119.584277 116.684279 
L 120.133489 111.856606 
L 120.682702 105.811491 
L 121.231914 101.225132 
L 121.781127 101.948544 
L 122.33034 84.152959 
L 122.879552 70.758254 
L 123.977977 51.133064 
L 124.52719 54.821652 
L 125.625615 75.288451 
L 126.174828 78.455314 
L 126.72404 80.204056 
L 127.273253 69.386712 
L 128.371678 41.792636 
L 128.920891 35.661771 
L 129.470103 38.957069 
L 130.568529 72.517799 
L 131.117741 95.562849 
L 131.666954 107.679882 
L 132.216166 110.071214 
L 132.765379 102.339997 
L 133.314592 98.788673 
L 133.863804 101.849347 
L 134.413017 110.467581 
L 135.511442 141.03367 
L 136.060655 150.964133 
L 136.609867 147.690122 
L 137.15908 139.975649 
L 138.257505 115.636114 
L 138.806718 111.155174 
L 139.35593 110.958368 
L 139.905143 117.084133 
L 140.454355 127.178498 
L 141.003568 134.242783 
L 141.552781 135.900581 
L 142.101993 123.652949 
L 142.651206 107.986508 
L 143.200418 82.523888 
L 143.749631 71.0001 
L 144.298844 68.195831 
L 144.848056 63.330416 
L 145.397269 67.593951 
L 145.946481 70.015552 
L 146.495694 74.705303 
L 147.044906 83.08402 
L 147.594119 85.743501 
L 148.143332 85.80072 
L 148.692544 84.924708 
L 149.241757 76.743324 
L 149.790969 72.765151 
L 150.340182 67.02656 
L 150.889395 66.769964 
L 151.438607 67.284325 
L 151.98782 71.143178 
L 153.086245 91.188599 
L 153.635458 103.990832 
L 154.18467 111.915819 
L 154.733883 112.445436 
L 156.930733 82.465418 
L 157.479946 79.895753 
L 158.029158 74.619913 
L 159.127584 76.313567 
L 160.226009 85.03394 
L 162.422859 109.8496 
L 162.972072 113.28085 
L 163.521284 111.489924 
L 164.61971 99.012523 
L 165.168922 95.633628 
L 165.718135 98.977509 
L 166.81656 117.830923 
L 167.365773 126.185955 
L 167.914985 129.990553 
L 169.01341 118.688891 
L 169.562623 106.2808 
L 170.111836 98.632607 
L 170.661048 94.478559 
L 171.210261 93.551871 
L 172.857899 103.938898 
L 173.956324 96.249886 
L 174.505536 92.395288 
L 175.054749 91.298869 
L 175.603962 89.28369 
L 176.702387 87.555343 
L 178.350025 71.152081 
L 178.899237 68.096372 
L 179.44845 65.990271 
L 179.997662 65.527375 
L 180.546875 67.883226 
L 181.096088 69.431988 
L 181.6453 72.931116 
L 182.194513 72.134098 
L 182.743725 75.686486 
L 183.292938 77.833806 
L 183.842151 79.5042 
L 184.940576 87.333405 
L 185.489788 89.482354 
L 186.039001 90.879075 
L 186.588214 93.427837 
L 187.137426 95.381775 
L 187.686639 100.104191 
L 189.334277 123.892666 
L 189.883489 128.538429 
L 190.432702 127.917043 
L 190.981914 126.454631 
L 191.531127 125.605576 
L 193.727977 114.493067 
L 195.924828 93.454992 
L 197.023253 85.794896 
L 198.121678 82.481103 
L 198.670891 78.039136 
L 199.769316 66.870023 
L 200.318529 61.274288 
L 200.867741 61.485822 
L 201.416954 65.31273 
L 203.064592 84.446358 
L 204.163017 91.051369 
L 204.712229 92.724288 
L 205.261442 93.369353 
L 205.810655 96.215402 
L 206.90908 98.564792 
L 207.458292 99.151761 
L 208.007505 98.631658 
L 208.556718 97.521114 
L 209.655143 101.390397 
L 211.302781 110.647649 
L 211.851993 110.208097 
L 212.401206 106.675273 
L 214.048844 89.311535 
L 214.598056 86.441371 
L 215.147269 88.20147 
L 216.245694 93.742956 
L 216.794906 93.7824 
L 217.344119 96.034416 
L 217.893332 96.921094 
L 218.442544 98.391434 
L 219.540969 108.581876 
L 220.639395 114.319777 
L 221.188607 114.397694 
L 223.385458 105.255468 
L 223.93467 104.816572 
L 224.483883 106.021237 
L 225.033095 106.028293 
L 225.582308 105.260591 
L 226.131521 100.022367 
L 227.229946 87.20922 
L 227.779158 78.011392 
L 229.426796 63.905042 
L 229.976009 61.226776 
L 230.525221 59.81451 
L 231.074434 59.956683 
L 231.623647 63.027116 
L 232.722072 71.275025 
L 233.820497 80.680225 
L 234.918922 87.219729 
L 235.468135 89.134643 
L 236.017347 93.220075 
L 237.115773 106.615267 
L 238.214198 124.043258 
L 238.76341 129.591909 
L 239.312623 133.135882 
L 239.861836 135.286732 
L 240.411048 135.639299 
L 240.960261 136.843721 
L 241.509473 136.073913 
L 242.058686 135.014943 
L 242.607899 129.883902 
L 243.706324 116.252405 
L 245.353962 89.541988 
L 246.452387 77.935705 
L 248.100025 64.329648 
L 249.19845 51.297636 
L 249.747662 47.28522 
L 250.296875 46.058429 
L 250.846088 47.386134 
L 251.3953 50.970735 
L 251.944513 55.783109 
L 253.592151 74.872927 
L 254.690576 89.535708 
L 255.789001 104.126637 
L 257.436639 123.577613 
L 259.084277 133.104971 
L 259.633489 135.510529 
L 260.731914 137.252252 
L 261.281127 136.185251 
L 261.83034 132.861141 
L 262.379552 127.638187 
L 263.477977 113.598926 
L 266.22404 75.304723 
L 267.322466 63.324448 
L 267.871678 59.106221 
L 268.970103 54.345132 
L 269.519316 54.404036 
L 270.068529 54.822626 
L 271.166954 57.329116 
L 271.716166 59.781861 
L 272.265379 64.180812 
L 272.814592 69.801628 
L 273.913017 88.357302 
L 275.011442 108.376719 
L 276.109867 124.646537 
L 277.208292 133.367119 
L 277.757505 136.673349 
L 278.306718 138.531768 
L 278.85593 138.957003 
L 279.405143 137.851951 
L 279.954355 134.719298 
L 280.503568 130.299369 
L 281.052781 124.611931 
L 283.249631 95.05119 
L 285.446481 63.090822 
L 285.995694 56.148923 
L 286.544906 51.912335 
L 287.094119 48.998063 
L 287.643332 48.270257 
L 288.192544 48.810335 
L 288.741757 50.93467 
L 289.840182 59.513816 
L 290.938607 73.154095 
L 293.135458 103.526342 
L 294.783095 121.741451 
L 296.430733 136.074641 
L 296.979946 138.171779 
L 297.529158 139.079757 
L 298.078371 137.958818 
L 298.627584 135.397509 
L 299.176796 131.619085 
L 300.275221 121.55884 
L 301.922859 98.537539 
L 303.021284 82.702069 
L 303.570497 76.303567 
L 305.218135 63.340016 
L 306.865773 55.60188 
L 307.414985 54.221771 
L 307.964198 54.205788 
L 308.51341 55.531078 
L 309.062623 58.460233 
L 309.611836 63.705828 
L 311.259473 83.858856 
L 313.456324 111.100531 
L 314.554749 121.255279 
L 315.103962 124.476255 
L 315.653174 126.919598 
L 316.202387 128.481434 
L 316.751599 129.44199 
L 317.300812 130.680687 
L 317.850025 130.44333 
L 318.399237 129.723855 
L 318.94845 128.395126 
L 319.497662 125.628333 
L 320.046875 121.138202 
L 320.596088 115.604641 
L 323.891363 74.695181 
L 324.989788 65.59432 
L 325.539001 61.998859 
L 326.088214 59.430824 
L 326.637426 58.256352 
L 327.186639 57.804407 
L 327.735851 57.938335 
L 328.285064 59.152386 
L 329.383489 63.980638 
L 329.932702 67.75839 
L 331.031127 78.255247 
L 332.129552 91.400557 
L 333.227977 105.48215 
L 334.326403 117.314012 
L 334.875615 122.202272 
L 335.97404 129.03564 
L 336.523253 131.437889 
L 337.072466 132.462626 
L 337.621678 132.812894 
L 338.170891 132.030372 
L 338.720103 130.821051 
L 339.269316 128.250776 
L 340.367741 121.329693 
L 341.466166 110.340332 
L 342.564592 95.920039 
L 344.212229 72.770226 
L 345.310655 60.431933 
L 345.859867 55.834537 
L 346.40908 52.398113 
L 346.958292 50.38647 
L 347.507505 49.486943 
L 348.056718 49.901195 
L 348.60593 51.641436 
L 349.155143 54.252086 
L 350.253568 63.467402 
L 350.802781 69.510019 
L 352.999631 100.108871 
L 354.647269 123.699066 
L 355.745694 136.019746 
L 356.294906 140.619376 
L 356.844119 143.761758 
L 357.393332 145.224989 
L 357.942544 144.940548 
L 358.491757 142.646752 
L 359.040969 138.603682 
L 359.590182 133.578456 
L 360.688607 119.606325 
L 362.336245 94.35535 
L 363.983883 69.117547 
L 365.082308 55.067139 
L 365.631521 49.431519 
L 366.180733 45.545586 
L 366.729946 43.139974 
L 367.279158 42.74018 
L 367.828371 43.509214 
L 368.377584 46.075885 
L 368.926796 50.599305 
L 369.476009 56.346364 
L 370.574434 70.998978 
L 373.320497 112.464684 
L 374.418922 126.008887 
L 375.517347 136.987594 
L 376.06656 141.361287 
L 376.615773 144.402763 
L 377.164985 146.157479 
L 377.714198 145.718619 
L 378.26341 143.875578 
L 378.812623 140.021335 
L 379.361836 134.677196 
L 380.460261 120.499372 
L 382.107899 94.308698 
L 383.755536 68.383842 
L 384.853962 54.570591 
L 385.403174 49.171495 
L 385.952387 45.214131 
L 386.501599 42.507986 
L 387.050812 41.064185 
L 387.600025 41.134629 
L 388.149237 42.917426 
L 388.69845 46.624519 
L 389.247662 51.860287 
L 390.346088 66.796346 
L 391.993725 94.470697 
L 393.641363 121.733881 
L 394.739788 136.337847 
L 395.289001 142.130512 
L 395.838214 146.350278 
L 396.387426 148.982623 
L 396.936639 150.08384 
L 397.485851 149.787434 
L 398.035064 147.8818 
L 398.584277 144.355104 
L 399.133489 139.143261 
L 399.682702 132.365467 
L 400.781127 114.638202 
L 404.076403 56.134444 
L 405.174828 42.858571 
L 405.72404 38.403614 
L 406.273253 35.343521 
L 406.822466 34.194373 
L 407.371678 35.056069 
L 407.920891 38.324864 
L 408.470103 43.006783 
L 409.568529 57.230391 
L 410.666954 75.828565 
L 413.962229 136.203057 
L 415.060655 150.121687 
L 415.609867 154.267582 
L 416.15908 156.571631 
L 416.708292 156.717016 
L 417.257505 155.083684 
L 417.806718 151.428472 
L 418.35593 146.48105 
L 419.454355 131.113531 
L 420.552781 111.387684 
L 423.298844 58.773629 
L 424.397269 43.019634 
L 424.946481 37.141196 
L 425.495694 33.041995 
L 426.044906 30.921377 
L 426.594119 30.729948 
L 427.143332 32.486692 
L 427.692544 36.522497 
L 428.241757 42.403858 
L 429.340182 59.093603 
L 430.98782 90.945855 
L 432.635458 122.498897 
L 433.733883 139.927198 
L 434.283095 146.743052 
L 434.832308 152.014282 
L 435.381521 155.562165 
L 435.930733 157.209531 
L 436.479946 156.984901 
L 437.029158 154.596186 
L 437.578371 150.287409 
L 438.127584 144.402801 
L 439.226009 128.067684 
L 440.873647 96.790404 
L 442.521284 65.763422 
L 443.61971 48.802479 
L 444.168922 42.203516 
L 444.718135 37.173169 
L 445.267347 34.025949 
L 445.81656 32.489489 
L 446.365773 32.697542 
L 446.914985 34.942212 
L 447.464198 39.083573 
L 448.01341 44.989763 
L 449.111836 61.826851 
L 450.759473 94.071316 
L 452.407111 125.511173 
L 453.505536 142.552891 
L 454.054749 149.036968 
L 454.603962 153.871428 
L 455.153174 156.869341 
L 455.702387 157.621738 
L 456.251599 156.628595 
L 456.800812 153.4924 
L 457.350025 148.506365 
L 457.899237 141.988858 
L 458.997662 124.486234 
L 460.6453 92.154008 
L 462.292938 60.814797 
L 463.391363 44.574841 
L 463.940576 38.769948 
L 464.489788 34.787548 
L 465.039001 32.622056 
L 465.588214 32.403687 
L 466.137426 34.020184 
L 466.686639 37.707985 
L 467.235851 43.022603 
L 468.334277 58.575322 
L 469.432702 78.516286 
L 471.629552 120.007455 
L 472.727977 136.953307 
L 473.27719 143.662539 
L 473.826403 148.886138 
L 474.375615 152.421124 
L 474.924828 154.091345 
L 475.47404 153.986355 
L 476.023253 152.021072 
L 476.572466 148.058046 
L 477.121678 142.655553 
L 478.220103 127.422008 
L 479.318529 108.385235 
L 481.515379 68.650825 
L 482.613804 52.314651 
L 483.163017 45.868591 
L 483.712229 40.881694 
L 484.261442 37.552688 
L 484.810655 36.040595 
L 485.359867 36.305757 
L 485.90908 38.417669 
L 486.458292 42.488936 
L 487.007505 48.026189 
L 488.10593 63.207265 
L 490.302781 100.667102 
L 490.302781 100.667102 
" clip-path="url(#p946ed43440)" style="fill: none; stroke-dasharray: 7.68,1.92,1.2,1.92; stroke-dashoffset: 0; stroke: #ff0000; stroke-width: 1.2"/>
   </g>
   <g id="line2d_29">
    <path d="M 41.046875 94.473438 
L 52.58034 94.302395 
L 56.424828 94.227479 
L 64.113804 94.483993 
L 65.761442 94.518904 
L 66.859867 94.646561 
L 67.958292 94.876702 
L 69.60593 94.588358 
L 70.155143 94.447636 
L 70.704355 94.147177 
L 72.351993 93.547894 
L 72.901206 93.270334 
L 73.450418 93.153379 
L 73.999631 93.521079 
L 74.548844 93.519958 
L 75.098056 93.643994 
L 75.647269 93.888764 
L 76.196481 94.282329 
L 76.745694 94.501779 
L 77.844119 95.437951 
L 78.942544 95.097041 
L 79.491757 95.243623 
L 80.040969 94.793297 
L 81.139395 92.742892 
L 81.688607 92.229517 
L 82.23782 92.427503 
L 82.787032 91.389782 
L 83.336245 90.796084 
L 83.885458 90.612313 
L 84.43467 91.496299 
L 84.983883 91.696883 
L 86.082308 93.156846 
L 87.180733 92.287861 
L 87.729946 90.715982 
L 88.279158 90.043091 
L 88.828371 91.554758 
L 89.377584 94.471687 
L 89.926796 96.010473 
L 90.476009 96.411538 
L 91.574434 93.994974 
L 92.123647 94.111028 
L 92.672859 96.271553 
L 93.222072 96.055082 
L 93.771284 93.75198 
L 94.320497 88.486307 
L 94.86971 88.725422 
L 95.418922 93.108963 
L 95.968135 94.665588 
L 96.517347 92.880688 
L 97.06656 92.421554 
L 97.615773 95.69779 
L 98.164985 102.285155 
L 98.714198 100.667288 
L 99.812623 91.676447 
L 100.361836 90.753909 
L 100.911048 92.064715 
L 101.460261 91.287799 
L 102.009473 91.437454 
L 102.558686 90.056334 
L 103.107899 90.959259 
L 103.657111 91.172423 
L 104.206324 87.765968 
L 104.755536 85.401891 
L 105.304749 79.509251 
L 105.853962 78.049912 
L 106.403174 75.3366 
L 106.952387 75.162231 
L 107.501599 75.122203 
L 108.050812 70.687599 
L 108.600025 68.196249 
L 109.149237 68.288219 
L 109.69845 70.953987 
L 111.346088 92.894181 
L 111.8953 102.783563 
L 112.444513 108.069308 
L 113.542938 115.779188 
L 114.092151 115.192558 
L 114.641363 114.101209 
L 115.190576 117.475123 
L 115.739788 123.933456 
L 116.289001 131.969449 
L 116.838214 137.235683 
L 117.387426 138.530149 
L 117.936639 135.524763 
L 118.485851 129.996552 
L 119.035064 128.687846 
L 119.584277 126.842343 
L 120.133489 127.877458 
L 120.682702 119.799309 
L 121.231914 113.530315 
L 121.781127 105.27823 
L 122.879552 68.005563 
L 123.428765 58.53459 
L 123.977977 58.275927 
L 124.52719 64.294361 
L 125.625615 83.22403 
L 126.174828 83.729821 
L 126.72404 78.820834 
L 127.822466 50.970144 
L 128.371678 41.56488 
L 128.920891 41.869092 
L 129.470103 53.976625 
L 130.568529 90.279774 
L 131.666954 105.478238 
L 132.216166 105.466807 
L 132.765379 103.223413 
L 133.314592 100.176684 
L 133.863804 114.66275 
L 134.413017 137.961599 
L 135.511442 162.238604 
L 136.060655 167.48222 
L 136.609867 161.869106 
L 137.708292 138.457007 
L 138.257505 127.824749 
L 138.806718 124.675273 
L 139.35593 130.002713 
L 139.905143 140.898164 
L 141.003568 155.312856 
L 141.552781 148.127017 
L 142.101993 134.471767 
L 143.200418 99.909848 
L 143.749631 89.128537 
L 144.298844 88.943071 
L 144.848056 84.021773 
L 145.397269 83.303874 
L 145.946481 86.177003 
L 146.495694 90.242056 
L 147.044906 95.675747 
L 147.594119 96.59139 
L 148.143332 99.166663 
L 148.692544 96.679315 
L 149.241757 92.356065 
L 149.790969 85.479149 
L 150.340182 82.402289 
L 150.889395 83.342301 
L 151.438607 87.700388 
L 151.98782 93.255423 
L 153.086245 114.43116 
L 153.635458 122.312122 
L 154.18467 126.492419 
L 154.733883 124.601201 
L 155.283095 117.276767 
L 157.479946 93.827005 
L 158.029158 90.600461 
L 158.578371 90.369291 
L 159.127584 91.100752 
L 159.676796 94.275304 
L 161.873647 119.858682 
L 162.422859 124.713645 
L 162.972072 122.790765 
L 164.070497 113.479542 
L 164.61971 112.722721 
L 165.168922 115.613082 
L 165.718135 120.40667 
L 166.267347 130.011456 
L 167.365773 141.469566 
L 167.914985 139.593128 
L 168.464198 133.924557 
L 169.562623 119.206686 
L 170.111836 114.567194 
L 170.661048 111.452814 
L 171.210261 111.778476 
L 171.759473 115.996148 
L 172.308686 118.178923 
L 172.857899 117.467892 
L 173.407111 116.244341 
L 175.054749 107.468454 
L 175.603962 105.662165 
L 176.153174 103.367364 
L 176.702387 100.072072 
L 177.251599 95.314774 
L 178.350025 84.747822 
L 178.899237 81.146308 
L 179.44845 79.068538 
L 179.997662 78.845114 
L 180.546875 78.82285 
L 181.096088 79.917089 
L 181.6453 82.956547 
L 182.194513 85.321213 
L 182.743725 86.780602 
L 183.292938 89.605259 
L 184.391363 93.323909 
L 184.940576 96.290787 
L 186.039001 99.338668 
L 186.588214 102.768458 
L 187.686639 113.250763 
L 188.785064 128.288323 
L 189.334277 133.610945 
L 189.883489 136.722087 
L 190.432702 137.813304 
L 191.531127 139.369485 
L 192.08034 137.611484 
L 193.178765 128.361551 
L 193.727977 124.750286 
L 195.375615 107.516242 
L 196.47404 99.621117 
L 198.121678 87.906406 
L 198.670891 83.418093 
L 199.769316 72.500206 
L 200.318529 69.975981 
L 200.867741 72.143819 
L 203.613804 93.060947 
L 204.163017 95.622692 
L 204.712229 97.213675 
L 205.261442 99.685093 
L 205.810655 102.797252 
L 206.359867 102.962272 
L 206.90908 102.436145 
L 208.007505 105.108912 
L 208.556718 105.237281 
L 209.10593 106.45012 
L 209.655143 109.396498 
L 210.204355 113.03886 
L 210.753568 114.798402 
L 211.302781 114.522732 
L 211.851993 112.686308 
L 213.499631 96.183765 
L 214.048844 93.675369 
L 214.598056 92.410409 
L 215.147269 92.325885 
L 215.696481 93.703557 
L 216.245694 95.651883 
L 216.794906 95.6086 
L 217.893332 99.852113 
L 218.442544 102.933976 
L 219.540969 110.675319 
L 220.090182 112.872227 
L 220.639395 114.395746 
L 221.188607 114.881955 
L 222.287032 110.017173 
L 222.836245 109.160305 
L 223.385458 107.754701 
L 223.93467 107.594501 
L 224.483883 107.002393 
L 225.033095 105.720385 
L 225.582308 103.693227 
L 226.131521 97.877252 
L 227.229946 82.990935 
L 228.328371 67.71586 
L 229.426796 58.626079 
L 230.525221 53.352418 
L 231.074434 53.867384 
L 231.623647 56.85872 
L 233.820497 71.356493 
L 234.918922 76.830419 
L 235.468135 80.12201 
L 236.017347 85.405059 
L 237.115773 100.987753 
L 238.214198 116.52777 
L 238.76341 121.105923 
L 239.312623 124.490846 
L 239.861836 126.482555 
L 240.411048 129.702789 
L 240.960261 131.952459 
L 241.509473 131.546426 
L 242.058686 128.664449 
L 242.607899 123.87327 
L 243.706324 107.235746 
L 245.353962 82.337963 
L 245.903174 75.103752 
L 247.550812 59.069032 
L 249.19845 38.017984 
L 249.747662 34.878083 
L 250.296875 34.455289 
L 250.846088 36.459925 
L 251.3953 39.178443 
L 251.944513 42.506234 
L 252.493725 48.144947 
L 256.887426 107.585247 
L 257.985851 117.385354 
L 259.084277 124.183639 
L 260.182702 128.876661 
L 260.731914 129.125811 
L 261.281127 127.61755 
L 261.83034 123.90233 
L 262.379552 118.497387 
L 262.928765 111.619059 
L 266.22404 62.454084 
L 267.322466 49.921898 
L 267.871678 45.023356 
L 268.420891 41.683596 
L 268.970103 40.196664 
L 269.519316 39.694454 
L 270.068529 39.465066 
L 270.617741 39.855047 
L 271.166954 41.307915 
L 271.716166 44.216096 
L 272.265379 49.558461 
L 273.363804 65.696581 
L 275.560655 105.123625 
L 276.65908 117.461456 
L 277.757505 127.092661 
L 278.306718 129.589307 
L 278.85593 129.664501 
L 279.405143 128.208756 
L 279.954355 124.539636 
L 281.052781 113.533848 
L 282.151206 98.679539 
L 283.798844 73.128236 
L 284.897269 55.624257 
L 285.995694 41.83378 
L 286.544906 36.948847 
L 287.094119 33.607201 
L 287.643332 32.144795 
L 288.192544 31.807349 
L 288.741757 32.944881 
L 289.290969 37.348428 
L 290.389395 49.845301 
L 291.48782 65.059398 
L 293.135458 88.326619 
L 295.332308 114.08392 
L 295.881521 119.60542 
L 296.430733 123.411321 
L 296.979946 125.288387 
L 297.529158 125.825466 
L 298.078371 125.004876 
L 298.627584 123.44085 
L 299.176796 120.422612 
L 300.275221 108.487307 
L 303.570497 62.170667 
L 304.668922 51.797969 
L 305.767347 43.646256 
L 306.31656 40.268179 
L 306.865773 37.944484 
L 307.414985 36.656029 
L 307.964198 36.670534 
L 308.51341 38.697085 
L 309.062623 42.288498 
L 309.611836 47.4747 
L 311.259473 68.404451 
L 312.907111 90.383822 
L 314.005536 102.077971 
L 314.554749 106.664819 
L 315.653174 113.149525 
L 316.202387 115.359416 
L 316.751599 116.660114 
L 317.300812 117.65134 
L 317.850025 117.724286 
L 318.399237 116.937281 
L 318.94845 115.338419 
L 319.497662 111.677392 
L 320.046875 106.971778 
L 321.1453 93.613695 
L 323.342151 65.166251 
L 324.989788 49.266601 
L 325.539001 45.276832 
L 326.088214 42.580679 
L 326.637426 40.914171 
L 327.186639 40.250931 
L 327.735851 40.498986 
L 328.285064 41.773794 
L 328.834277 44.222961 
L 329.383489 47.401246 
L 329.932702 51.362265 
L 331.031127 62.822121 
L 332.678765 84.283732 
L 333.77719 97.753591 
L 334.875615 108.282869 
L 335.97404 116.262577 
L 336.523253 119.107071 
L 337.072466 120.989333 
L 337.621678 121.190917 
L 338.170891 120.353646 
L 338.720103 118.884962 
L 339.269316 116.73433 
L 339.818529 113.424235 
L 340.367741 109.360355 
L 340.916954 104.21799 
L 342.015379 90.664172 
L 344.212229 59.43806 
L 345.310655 46.769966 
L 345.859867 41.684191 
L 346.40908 37.82867 
L 346.958292 35.456112 
L 347.507505 34.03269 
L 348.056718 34.000917 
L 348.60593 35.725696 
L 349.155143 38.978217 
L 350.253568 48.901562 
L 351.351993 62.323997 
L 352.999631 87.577848 
L 354.647269 112.014494 
L 355.745694 125.442858 
L 356.294906 130.897511 
L 356.844119 134.952825 
L 357.393332 136.979218 
L 357.942544 137.25729 
L 358.491757 134.916093 
L 359.040969 130.783633 
L 359.590182 125.275823 
L 360.688607 111.081308 
L 362.885458 76.260316 
L 364.533095 50.765706 
L 365.082308 43.39591 
L 365.631521 37.580831 
L 366.180733 33.392555 
L 366.729946 30.677605 
L 367.279158 29.48738 
L 367.828371 29.941898 
L 368.377584 32.383725 
L 368.926796 37.322038 
L 370.025221 51.418409 
L 371.672859 76.811491 
L 373.320497 101.849087 
L 374.968135 123.327417 
L 376.06656 134.452138 
L 376.615773 138.145655 
L 377.164985 139.889127 
L 377.714198 139.803724 
L 378.26341 137.922258 
L 378.812623 134.089342 
L 379.361836 128.398219 
L 380.460261 113.497206 
L 384.853962 44.475093 
L 385.403174 38.419717 
L 385.952387 33.840112 
L 386.501599 30.5757 
L 387.050812 28.794407 
L 387.600025 28.651283 
L 388.149237 30.579601 
L 388.69845 34.819038 
L 389.247662 40.601657 
L 390.346088 56.470525 
L 391.993725 85.966513 
L 393.641363 113.913202 
L 394.739788 130.641528 
L 395.289001 137.380123 
L 395.838214 142.337599 
L 396.387426 145.626081 
L 396.936639 147.587401 
L 397.485851 147.618079 
L 398.035064 145.869254 
L 398.584277 141.958962 
L 399.133489 136.342293 
L 399.682702 129.25365 
L 400.781127 110.993439 
L 403.52719 59.329344 
L 404.625615 41.997383 
L 405.72404 29.232214 
L 406.273253 25.421438 
L 406.822466 23.740975 
L 407.371678 24.805074 
L 407.920891 28.260552 
L 408.470103 33.686725 
L 409.568529 48.580027 
L 410.666954 68.287461 
L 413.962229 132.585346 
L 415.060655 148.983842 
L 415.609867 154.112939 
L 416.15908 156.964689 
L 416.708292 158.160976 
L 417.257505 157.099907 
L 417.806718 153.59035 
L 418.35593 148.224701 
L 419.454355 132.37366 
L 420.552781 111.729067 
L 422.749631 67.658307 
L 423.848056 47.694397 
L 424.946481 32.174953 
L 425.495694 27.242797 
L 426.044906 24.407558 
L 426.594119 23.620536 
L 427.143332 25.242494 
L 427.692544 29.471423 
L 428.241757 35.942536 
L 429.340182 53.716188 
L 431.537032 98.41265 
L 433.18467 130.39025 
L 434.283095 147.99358 
L 434.832308 154.473083 
L 435.381521 158.847259 
L 435.930733 161.183472 
L 436.479946 161.28591 
L 437.029158 159.006827 
L 437.578371 154.468549 
L 438.127584 148.084345 
L 439.226009 131.0373 
L 440.873647 98.129721 
L 443.070497 56.682195 
L 444.168922 40.132952 
L 444.718135 34.161538 
L 445.267347 30.235506 
L 445.81656 28.044927 
L 446.365773 27.949275 
L 446.914985 30.348997 
L 447.464198 34.959947 
L 448.01341 41.44671 
L 449.111836 59.356079 
L 450.759473 93.249169 
L 452.956324 135.818122 
L 454.054749 153.022004 
L 454.603962 158.939759 
L 455.153174 162.627839 
L 455.702387 164.103118 
L 456.251599 163.407335 
L 456.800812 160.290152 
L 457.350025 154.892543 
L 457.899237 147.99251 
L 458.997662 129.786522 
L 463.391363 45.037493 
L 463.940576 38.110755 
L 464.489788 33.245909 
L 465.039001 30.389009 
L 465.588214 29.478021 
L 466.137426 30.918892 
L 466.686639 34.916742 
L 467.235851 40.892119 
L 468.334277 57.31688 
L 469.981914 89.597402 
L 471.629552 121.214699 
L 472.727977 140.115784 
L 473.27719 148.006032 
L 473.826403 154.274227 
L 474.375615 158.587126 
L 474.924828 160.8274 
L 475.47404 161.12896 
L 476.023253 159.243851 
L 476.572466 154.931543 
L 477.121678 148.847846 
L 478.220103 132.50618 
L 479.867741 101.103312 
L 482.064592 60.408289 
L 483.163017 43.648042 
L 483.712229 37.387607 
L 484.261442 32.924445 
L 484.810655 30.411523 
L 485.359867 29.948367 
L 485.90908 31.683325 
L 486.458292 35.839191 
L 487.007505 41.582977 
L 488.10593 56.841655 
L 490.302781 92.812736 
L 490.302781 92.812736 
" clip-path="url(#p946ed43440)" style="fill: none; stroke-dasharray: 4.44,1.92; stroke-dashoffset: 0; stroke: #0000ff; stroke-width: 1.2"/>
   </g>
   <g id="patch_3">
    <path d="M 41.046875 181.814173 
L 41.046875 7.2 
" style="fill: none; stroke: #000000; stroke-width: 0.8; stroke-linejoin: miter; stroke-linecap: square"/>
   </g>
   <g id="patch_4">
    <path d="M 480.416954 181.814173 
L 480.416954 7.2 
" style="fill: none; stroke: #000000; stroke-width: 0.8; stroke-linejoin: miter; stroke-linecap: square"/>
   </g>
   <g id="patch_5">
    <path d="M 41.046875 181.814173 
L 480.416954 181.814173 
" style="fill: none; stroke: #000000; stroke-width: 0.8; stroke-linejoin: miter; stroke-linecap: square"/>
   </g>
   <g id="patch_6">
    <path d="M 41.046875 7.2 
L 480.416954 7.2 
" style="fill: none; stroke: #000000; stroke-width: 0.8; stroke-linejoin: miter; stroke-linecap: square"/>
   </g>
   <g id="text_16">
    <!-- 8th floor -->
    <g transform="translate(66.919039 162.572558) scale(0.1 -0.1)">
     <defs>
      <path id="ArialMT-38" d="M 1131 2484 
Q 781 2613 612 2850 
Q 444 3088 444 3419 
Q 444 3919 803 4259 
Q 1163 4600 1759 4600 
Q 2359 4600 2725 4251 
Q 3091 3903 3091 3403 
Q 3091 3084 2923 2848 
Q 2756 2613 2416 2484 
Q 2838 2347 3058 2040 
Q 3278 1734 3278 1309 
Q 3278 722 2862 322 
Q 2447 -78 1769 -78 
Q 1091 -78 675 323 
Q 259 725 259 1325 
Q 259 1772 486 2073 
Q 713 2375 1131 2484 
z
M 1019 3438 
Q 1019 3113 1228 2906 
Q 1438 2700 1772 2700 
Q 2097 2700 2305 2904 
Q 2513 3109 2513 3406 
Q 2513 3716 2298 3927 
Q 2084 4138 1766 4138 
Q 1444 4138 1231 3931 
Q 1019 3725 1019 3438 
z
M 838 1322 
Q 838 1081 952 856 
Q 1066 631 1291 507 
Q 1516 384 1775 384 
Q 2178 384 2440 643 
Q 2703 903 2703 1303 
Q 2703 1709 2433 1975 
Q 2163 2241 1756 2241 
Q 1359 2241 1098 1978 
Q 838 1716 838 1322 
z
" transform="scale(0.015625)"/>
      <path id="ArialMT-68" d="M 422 0 
L 422 4581 
L 984 4581 
L 984 2938 
Q 1378 3394 1978 3394 
Q 2347 3394 2619 3248 
Q 2891 3103 3008 2847 
Q 3125 2591 3125 2103 
L 3125 0 
L 2563 0 
L 2563 2103 
Q 2563 2525 2380 2717 
Q 2197 2909 1863 2909 
Q 1613 2909 1392 2779 
Q 1172 2650 1078 2428 
Q 984 2206 984 1816 
L 984 0 
L 422 0 
z
" transform="scale(0.015625)"/>
      <path id="ArialMT-66" d="M 556 0 
L 556 2881 
L 59 2881 
L 59 3319 
L 556 3319 
L 556 3672 
Q 556 4006 616 4169 
Q 697 4388 901 4523 
Q 1106 4659 1475 4659 
Q 1713 4659 2000 4603 
L 1916 4113 
Q 1741 4144 1584 4144 
Q 1328 4144 1222 4034 
Q 1116 3925 1116 3625 
L 1116 3319 
L 1763 3319 
L 1763 2881 
L 1116 2881 
L 1116 0 
L 556 0 
z
" transform="scale(0.015625)"/>
      <path id="ArialMT-6f" d="M 213 1659 
Q 213 2581 725 3025 
Q 1153 3394 1769 3394 
Q 2453 3394 2887 2945 
Q 3322 2497 3322 1706 
Q 3322 1066 3130 698 
Q 2938 331 2570 128 
Q 2203 -75 1769 -75 
Q 1072 -75 642 372 
Q 213 819 213 1659 
z
M 791 1659 
Q 791 1022 1069 705 
Q 1347 388 1769 388 
Q 2188 388 2466 706 
Q 2744 1025 2744 1678 
Q 2744 2294 2464 2611 
Q 2184 2928 1769 2928 
Q 1347 2928 1069 2612 
Q 791 2297 791 1659 
z
" transform="scale(0.015625)"/>
      <path id="ArialMT-72" d="M 416 0 
L 416 3319 
L 922 3319 
L 922 2816 
Q 1116 3169 1280 3281 
Q 1444 3394 1641 3394 
Q 1925 3394 2219 3213 
L 2025 2691 
Q 1819 2813 1613 2813 
Q 1428 2813 1281 2702 
Q 1134 2591 1072 2394 
Q 978 2094 978 1738 
L 978 0 
L 416 0 
z
" transform="scale(0.015625)"/>
     </defs>
     <use xlink:href="#ArialMT-38"/>
     <use xlink:href="#ArialMT-74" x="55.615234"/>
     <use xlink:href="#ArialMT-68" x="83.398438"/>
     <use xlink:href="#ArialMT-20" x="139.013672"/>
     <use xlink:href="#ArialMT-66" x="166.796875"/>
     <use xlink:href="#ArialMT-6c" x="194.580078"/>
     <use xlink:href="#ArialMT-6f" x="216.796875"/>
     <use xlink:href="#ArialMT-6f" x="272.412109"/>
     <use xlink:href="#ArialMT-72" x="328.027344"/>
    </g>
   </g>
   <g id="legend_1">
    <g id="patch_7">
     <path d="M 48.046875 29.345312 
L 321.6375 29.345312 
Q 323.6375 29.345312 323.6375 27.345312 
L 323.6375 14.2 
Q 323.6375 12.2 321.6375 12.2 
L 48.046875 12.2 
Q 46.046875 12.2 46.046875 14.2 
L 46.046875 27.345312 
Q 46.046875 29.345312 48.046875 29.345312 
z
" style="fill: #ffffff; stroke: #000000; stroke-linejoin: miter"/>
    </g>
    <g id="line2d_30">
     <path d="M 50.046875 19.857812 
L 60.046875 19.857812 
L 70.046875 19.857812 
" style="fill: none; stroke: #000000; stroke-width: 1.2; stroke-linecap: square"/>
    </g>
    <g id="text_17">
     <!-- Ref. -->
     <g transform="translate(78.046875 23.357812) scale(0.1 -0.1)">
      <defs>
       <path id="ArialMT-52" d="M 503 0 
L 503 4581 
L 2534 4581 
Q 3147 4581 3465 4457 
Q 3784 4334 3975 4021 
Q 4166 3709 4166 3331 
Q 4166 2844 3850 2509 
Q 3534 2175 2875 2084 
Q 3116 1969 3241 1856 
Q 3506 1613 3744 1247 
L 4541 0 
L 3778 0 
L 3172 953 
Q 2906 1366 2734 1584 
Q 2563 1803 2427 1890 
Q 2291 1978 2150 2013 
Q 2047 2034 1813 2034 
L 1109 2034 
L 1109 0 
L 503 0 
z
M 1109 2559 
L 2413 2559 
Q 2828 2559 3062 2645 
Q 3297 2731 3419 2920 
Q 3541 3109 3541 3331 
Q 3541 3656 3305 3865 
Q 3069 4075 2559 4075 
L 1109 4075 
L 1109 2559 
z
" transform="scale(0.015625)"/>
       <path id="ArialMT-2e" d="M 581 0 
L 581 641 
L 1222 641 
L 1222 0 
L 581 0 
z
" transform="scale(0.015625)"/>
      </defs>
      <use xlink:href="#ArialMT-52"/>
      <use xlink:href="#ArialMT-65" x="72.216797"/>
      <use xlink:href="#ArialMT-66" x="127.832031"/>
      <use xlink:href="#ArialMT-2e" x="155.615234"/>
     </g>
    </g>
    <g id="line2d_31">
     <path d="M 116.385938 19.857812 
L 126.385938 19.857812 
L 136.385938 19.857812 
" style="fill: none; stroke-dasharray: 7.68,1.92,1.2,1.92; stroke-dashoffset: 0; stroke: #ff0000; stroke-width: 1.2"/>
    </g>
    <g id="text_18">
     <!-- TL-BiRNN pred. -->
     <g transform="translate(144.385938 23.357812) scale(0.1 -0.1)">
      <defs>
       <path id="ArialMT-4c" d="M 469 0 
L 469 4581 
L 1075 4581 
L 1075 541 
L 3331 541 
L 3331 0 
L 469 0 
z
" transform="scale(0.015625)"/>
       <path id="ArialMT-2d" d="M 203 1375 
L 203 1941 
L 1931 1941 
L 1931 1375 
L 203 1375 
z
" transform="scale(0.015625)"/>
       <path id="ArialMT-42" d="M 469 0 
L 469 4581 
L 2188 4581 
Q 2713 4581 3030 4442 
Q 3347 4303 3526 4014 
Q 3706 3725 3706 3409 
Q 3706 3116 3547 2856 
Q 3388 2597 3066 2438 
Q 3481 2316 3704 2022 
Q 3928 1728 3928 1328 
Q 3928 1006 3792 729 
Q 3656 453 3456 303 
Q 3256 153 2954 76 
Q 2653 0 2216 0 
L 469 0 
z
M 1075 2656 
L 2066 2656 
Q 2469 2656 2644 2709 
Q 2875 2778 2992 2937 
Q 3109 3097 3109 3338 
Q 3109 3566 3000 3739 
Q 2891 3913 2687 3977 
Q 2484 4041 1991 4041 
L 1075 4041 
L 1075 2656 
z
M 1075 541 
L 2216 541 
Q 2509 541 2628 563 
Q 2838 600 2978 687 
Q 3119 775 3209 942 
Q 3300 1109 3300 1328 
Q 3300 1584 3169 1773 
Q 3038 1963 2805 2039 
Q 2572 2116 2134 2116 
L 1075 2116 
L 1075 541 
z
" transform="scale(0.015625)"/>
       <path id="ArialMT-4e" d="M 488 0 
L 488 4581 
L 1109 4581 
L 3516 984 
L 3516 4581 
L 4097 4581 
L 4097 0 
L 3475 0 
L 1069 3600 
L 1069 0 
L 488 0 
z
" transform="scale(0.015625)"/>
       <path id="ArialMT-64" d="M 2575 0 
L 2575 419 
Q 2259 -75 1647 -75 
Q 1250 -75 917 144 
Q 584 363 401 755 
Q 219 1147 219 1656 
Q 219 2153 384 2558 
Q 550 2963 881 3178 
Q 1213 3394 1622 3394 
Q 1922 3394 2156 3267 
Q 2391 3141 2538 2938 
L 2538 4581 
L 3097 4581 
L 3097 0 
L 2575 0 
z
M 797 1656 
Q 797 1019 1065 703 
Q 1334 388 1700 388 
Q 2069 388 2326 689 
Q 2584 991 2584 1609 
Q 2584 2291 2321 2609 
Q 2059 2928 1675 2928 
Q 1300 2928 1048 2622 
Q 797 2316 797 1656 
z
" transform="scale(0.015625)"/>
      </defs>
      <use xlink:href="#ArialMT-54"/>
      <use xlink:href="#ArialMT-4c" x="61.083984"/>
      <use xlink:href="#ArialMT-2d" x="116.699219"/>
      <use xlink:href="#ArialMT-42" x="150"/>
      <use xlink:href="#ArialMT-69" x="216.699219"/>
      <use xlink:href="#ArialMT-52" x="238.916016"/>
      <use xlink:href="#ArialMT-4e" x="311.132812"/>
      <use xlink:href="#ArialMT-4e" x="383.349609"/>
      <use xlink:href="#ArialMT-20" x="455.566406"/>
      <use xlink:href="#ArialMT-70" x="483.349609"/>
      <use xlink:href="#ArialMT-72" x="538.964844"/>
      <use xlink:href="#ArialMT-65" x="572.265625"/>
      <use xlink:href="#ArialMT-64" x="627.880859"/>
      <use xlink:href="#ArialMT-2e" x="683.496094"/>
     </g>
    </g>
    <g id="line2d_32">
     <path d="M 235.510938 19.857812 
L 245.510938 19.857812 
L 255.510938 19.857812 
" style="fill: none; stroke-dasharray: 4.44,1.92; stroke-dashoffset: 0; stroke: #0000ff; stroke-width: 1.2"/>
    </g>
    <g id="text_19">
     <!-- BiRNN pred. -->
     <g transform="translate(263.510938 23.357812) scale(0.1 -0.1)">
      <use xlink:href="#ArialMT-42"/>
      <use xlink:href="#ArialMT-69" x="66.699219"/>
      <use xlink:href="#ArialMT-52" x="88.916016"/>
      <use xlink:href="#ArialMT-4e" x="161.132812"/>
      <use xlink:href="#ArialMT-4e" x="233.349609"/>
      <use xlink:href="#ArialMT-20" x="305.566406"/>
      <use xlink:href="#ArialMT-70" x="333.349609"/>
      <use xlink:href="#ArialMT-72" x="388.964844"/>
      <use xlink:href="#ArialMT-65" x="422.265625"/>
      <use xlink:href="#ArialMT-64" x="477.880859"/>
      <use xlink:href="#ArialMT-2e" x="533.496094"/>
     </g>
    </g>
   </g>
  </g>
 </g>
 <defs>
  <clipPath id="p946ed43440">
   <rect x="41.046875" y="7.2" width="439.370079" height="174.614173"/>
  </clipPath>
 </defs>
</svg>
