<?xml version="1.0" encoding="utf-8" standalone="no"?>
<!DOCTYPE svg PUBLIC "-//W3C//DTD SVG 1.1//EN"
  "http://www.w3.org/Graphics/SVG/1.1/DTD/svg11.dtd">
<svg xmlns:xlink="http://www.w3.org/1999/xlink" width="274.466985pt" height="216.420694pt" viewBox="0 0 274.466985 216.420694" xmlns="http://www.w3.org/2000/svg" version="1.1">
 <metadata>
  <rdf:RDF xmlns:dc="http://purl.org/dc/elements/1.1/" xmlns:cc="http://creativecommons.org/ns#" xmlns:rdf="http://www.w3.org/1999/02/22-rdf-syntax-ns#">
   <cc:Work>
    <dc:type rdf:resource="http://purl.org/dc/dcmitype/StillImage"/>
    <dc:date>2024-03-17T22:23:10.691150</dc:date>
    <dc:format>image/svg+xml</dc:format>
    <dc:creator>
     <cc:Agent>
      <dc:title>Matplotlib v3.8.2, https://matplotlib.org/</dc:title>
     </cc:Agent>
    </dc:creator>
   </cc:Work>
  </rdf:RDF>
 </metadata>
 <defs>
  <style type="text/css">*{stroke-linejoin: round; stroke-linecap: butt}</style>
 </defs>
 <g id="figure_1">
  <g id="patch_1">
   <path d="M 0 216.420694 
L 274.466985 216.420694 
L 274.466985 0 
L 0 0 
z
" style="fill: #ffffff"/>
  </g>
  <g id="axes_1">
   <g id="patch_2">
    <path d="M 43.645313 183.430069 
L 263.330352 183.430069 
L 263.330352 8.815896 
L 43.645313 8.815896 
z
" style="fill: #ffffff"/>
   </g>
   <g id="matplotlib.axis_1">
    <g id="xtick_1">
     <g id="line2d_1">
      <path d="M 53.630996 183.430069 
L 53.630996 8.815896 
" clip-path="url(#pf2a986f171)" style="fill: none; stroke: #b0b0b0; stroke-width: 0.8; stroke-linecap: square"/>
     </g>
     <g id="line2d_2">
      <defs>
       <path id="mf8b0b22952" d="M 0 0 
L 0 -3.5 
" style="stroke: #000000; stroke-width: 0.8"/>
      </defs>
      <g>
       <use xlink:href="#mf8b0b22952" x="53.630996" y="183.430069" style="stroke: #000000; stroke-width: 0.8"/>
      </g>
     </g>
     <g id="text_1">
      <!-- 0 -->
      <g transform="translate(50.850527 194.087882) scale(0.1 -0.1)">
       <defs>
        <path id="ArialMT-30" d="M 266 2259 
Q 266 3072 433 3567 
Q 600 4063 929 4331 
Q 1259 4600 1759 4600 
Q 2128 4600 2406 4451 
Q 2684 4303 2865 4023 
Q 3047 3744 3150 3342 
Q 3253 2941 3253 2259 
Q 3253 1453 3087 958 
Q 2922 463 2592 192 
Q 2263 -78 1759 -78 
Q 1097 -78 719 397 
Q 266 969 266 2259 
z
M 844 2259 
Q 844 1131 1108 757 
Q 1372 384 1759 384 
Q 2147 384 2411 759 
Q 2675 1134 2675 2259 
Q 2675 3391 2411 3762 
Q 2147 4134 1753 4134 
Q 1366 4134 1134 3806 
Q 844 3388 844 2259 
z
" transform="scale(0.015625)"/>
       </defs>
       <use xlink:href="#ArialMT-30"/>
      </g>
     </g>
    </g>
    <g id="xtick_2">
     <g id="line2d_3">
      <path d="M 93.577725 183.430069 
L 93.577725 8.815896 
" clip-path="url(#pf2a986f171)" style="fill: none; stroke: #b0b0b0; stroke-width: 0.8; stroke-linecap: square"/>
     </g>
     <g id="line2d_4">
      <g>
       <use xlink:href="#mf8b0b22952" x="93.577725" y="183.430069" style="stroke: #000000; stroke-width: 0.8"/>
      </g>
     </g>
     <g id="text_2">
      <!-- 2000 -->
      <g transform="translate(82.45585 194.087882) scale(0.1 -0.1)">
       <defs>
        <path id="ArialMT-32" d="M 3222 541 
L 3222 0 
L 194 0 
Q 188 203 259 391 
Q 375 700 629 1000 
Q 884 1300 1366 1694 
Q 2113 2306 2375 2664 
Q 2638 3022 2638 3341 
Q 2638 3675 2398 3904 
Q 2159 4134 1775 4134 
Q 1369 4134 1125 3890 
Q 881 3647 878 3216 
L 300 3275 
Q 359 3922 746 4261 
Q 1134 4600 1788 4600 
Q 2447 4600 2831 4234 
Q 3216 3869 3216 3328 
Q 3216 3053 3103 2787 
Q 2991 2522 2730 2228 
Q 2469 1934 1863 1422 
Q 1356 997 1212 845 
Q 1069 694 975 541 
L 3222 541 
z
" transform="scale(0.015625)"/>
       </defs>
       <use xlink:href="#ArialMT-32"/>
       <use xlink:href="#ArialMT-30" x="55.615234"/>
       <use xlink:href="#ArialMT-30" x="111.230469"/>
       <use xlink:href="#ArialMT-30" x="166.845703"/>
      </g>
     </g>
    </g>
    <g id="xtick_3">
     <g id="line2d_5">
      <path d="M 133.524454 183.430069 
L 133.524454 8.815896 
" clip-path="url(#pf2a986f171)" style="fill: none; stroke: #b0b0b0; stroke-width: 0.8; stroke-linecap: square"/>
     </g>
     <g id="line2d_6">
      <g>
       <use xlink:href="#mf8b0b22952" x="133.524454" y="183.430069" style="stroke: #000000; stroke-width: 0.8"/>
      </g>
     </g>
     <g id="text_3">
      <!-- 4000 -->
      <g transform="translate(122.402579 194.087882) scale(0.1 -0.1)">
       <defs>
        <path id="ArialMT-34" d="M 2069 0 
L 2069 1097 
L 81 1097 
L 81 1613 
L 2172 4581 
L 2631 4581 
L 2631 1613 
L 3250 1613 
L 3250 1097 
L 2631 1097 
L 2631 0 
L 2069 0 
z
M 2069 1613 
L 2069 3678 
L 634 1613 
L 2069 1613 
z
" transform="scale(0.015625)"/>
       </defs>
       <use xlink:href="#ArialMT-34"/>
       <use xlink:href="#ArialMT-30" x="55.615234"/>
       <use xlink:href="#ArialMT-30" x="111.230469"/>
       <use xlink:href="#ArialMT-30" x="166.845703"/>
      </g>
     </g>
    </g>
    <g id="xtick_4">
     <g id="line2d_7">
      <path d="M 173.471183 183.430069 
L 173.471183 8.815896 
" clip-path="url(#pf2a986f171)" style="fill: none; stroke: #b0b0b0; stroke-width: 0.8; stroke-linecap: square"/>
     </g>
     <g id="line2d_8">
      <g>
       <use xlink:href="#mf8b0b22952" x="173.471183" y="183.430069" style="stroke: #000000; stroke-width: 0.8"/>
      </g>
     </g>
     <g id="text_4">
      <!-- 6000 -->
      <g transform="translate(162.349308 194.087882) scale(0.1 -0.1)">
       <defs>
        <path id="ArialMT-36" d="M 3184 3459 
L 2625 3416 
Q 2550 3747 2413 3897 
Q 2184 4138 1850 4138 
Q 1581 4138 1378 3988 
Q 1113 3794 959 3422 
Q 806 3050 800 2363 
Q 1003 2672 1297 2822 
Q 1591 2972 1913 2972 
Q 2475 2972 2870 2558 
Q 3266 2144 3266 1488 
Q 3266 1056 3080 686 
Q 2894 316 2569 119 
Q 2244 -78 1831 -78 
Q 1128 -78 684 439 
Q 241 956 241 2144 
Q 241 3472 731 4075 
Q 1159 4600 1884 4600 
Q 2425 4600 2770 4297 
Q 3116 3994 3184 3459 
z
M 888 1484 
Q 888 1194 1011 928 
Q 1134 663 1356 523 
Q 1578 384 1822 384 
Q 2178 384 2434 671 
Q 2691 959 2691 1453 
Q 2691 1928 2437 2201 
Q 2184 2475 1800 2475 
Q 1419 2475 1153 2201 
Q 888 1928 888 1484 
z
" transform="scale(0.015625)"/>
       </defs>
       <use xlink:href="#ArialMT-36"/>
       <use xlink:href="#ArialMT-30" x="55.615234"/>
       <use xlink:href="#ArialMT-30" x="111.230469"/>
       <use xlink:href="#ArialMT-30" x="166.845703"/>
      </g>
     </g>
    </g>
    <g id="xtick_5">
     <g id="line2d_9">
      <path d="M 213.417913 183.430069 
L 213.417913 8.815896 
" clip-path="url(#pf2a986f171)" style="fill: none; stroke: #b0b0b0; stroke-width: 0.8; stroke-linecap: square"/>
     </g>
     <g id="line2d_10">
      <g>
       <use xlink:href="#mf8b0b22952" x="213.417913" y="183.430069" style="stroke: #000000; stroke-width: 0.8"/>
      </g>
     </g>
     <g id="text_5">
      <!-- 8000 -->
      <g transform="translate(202.296038 194.087882) scale(0.1 -0.1)">
       <defs>
        <path id="ArialMT-38" d="M 1131 2484 
Q 781 2613 612 2850 
Q 444 3088 444 3419 
Q 444 3919 803 4259 
Q 1163 4600 1759 4600 
Q 2359 4600 2725 4251 
Q 3091 3903 3091 3403 
Q 3091 3084 2923 2848 
Q 2756 2613 2416 2484 
Q 2838 2347 3058 2040 
Q 3278 1734 3278 1309 
Q 3278 722 2862 322 
Q 2447 -78 1769 -78 
Q 1091 -78 675 323 
Q 259 725 259 1325 
Q 259 1772 486 2073 
Q 713 2375 1131 2484 
z
M 1019 3438 
Q 1019 3113 1228 2906 
Q 1438 2700 1772 2700 
Q 2097 2700 2305 2904 
Q 2513 3109 2513 3406 
Q 2513 3716 2298 3927 
Q 2084 4138 1766 4138 
Q 1444 4138 1231 3931 
Q 1019 3725 1019 3438 
z
M 838 1322 
Q 838 1081 952 856 
Q 1066 631 1291 507 
Q 1516 384 1775 384 
Q 2178 384 2440 643 
Q 2703 903 2703 1303 
Q 2703 1709 2433 1975 
Q 2163 2241 1756 2241 
Q 1359 2241 1098 1978 
Q 838 1716 838 1322 
z
" transform="scale(0.015625)"/>
       </defs>
       <use xlink:href="#ArialMT-38"/>
       <use xlink:href="#ArialMT-30" x="55.615234"/>
       <use xlink:href="#ArialMT-30" x="111.230469"/>
       <use xlink:href="#ArialMT-30" x="166.845703"/>
      </g>
     </g>
    </g>
    <g id="xtick_6">
     <g id="line2d_11">
      <path d="M 253.364642 183.430069 
L 253.364642 8.815896 
" clip-path="url(#pf2a986f171)" style="fill: none; stroke: #b0b0b0; stroke-width: 0.8; stroke-linecap: square"/>
     </g>
     <g id="line2d_12">
      <g>
       <use xlink:href="#mf8b0b22952" x="253.364642" y="183.430069" style="stroke: #000000; stroke-width: 0.8"/>
      </g>
     </g>
     <g id="text_6">
      <!-- 10000 -->
      <g transform="translate(239.462298 194.087882) scale(0.1 -0.1)">
       <defs>
        <path id="ArialMT-31" d="M 2384 0 
L 1822 0 
L 1822 3584 
Q 1619 3391 1289 3197 
Q 959 3003 697 2906 
L 697 3450 
Q 1169 3672 1522 3987 
Q 1875 4303 2022 4600 
L 2384 4600 
L 2384 0 
z
" transform="scale(0.015625)"/>
       </defs>
       <use xlink:href="#ArialMT-31"/>
       <use xlink:href="#ArialMT-30" x="55.615234"/>
       <use xlink:href="#ArialMT-30" x="111.230469"/>
       <use xlink:href="#ArialMT-30" x="166.845703"/>
       <use xlink:href="#ArialMT-30" x="222.460938"/>
      </g>
     </g>
    </g>
    <g id="text_7">
     <!-- Epoch -->
     <g transform="translate(139.31127 207.233194) scale(0.1 -0.1)">
      <defs>
       <path id="ArialMT-45" d="M 506 0 
L 506 4581 
L 3819 4581 
L 3819 4041 
L 1113 4041 
L 1113 2638 
L 3647 2638 
L 3647 2100 
L 1113 2100 
L 1113 541 
L 3925 541 
L 3925 0 
L 506 0 
z
" transform="scale(0.015625)"/>
       <path id="ArialMT-70" d="M 422 -1272 
L 422 3319 
L 934 3319 
L 934 2888 
Q 1116 3141 1344 3267 
Q 1572 3394 1897 3394 
Q 2322 3394 2647 3175 
Q 2972 2956 3137 2557 
Q 3303 2159 3303 1684 
Q 3303 1175 3120 767 
Q 2938 359 2589 142 
Q 2241 -75 1856 -75 
Q 1575 -75 1351 44 
Q 1128 163 984 344 
L 984 -1272 
L 422 -1272 
z
M 931 1641 
Q 931 1000 1190 694 
Q 1450 388 1819 388 
Q 2194 388 2461 705 
Q 2728 1022 2728 1688 
Q 2728 2322 2467 2637 
Q 2206 2953 1844 2953 
Q 1484 2953 1207 2617 
Q 931 2281 931 1641 
z
" transform="scale(0.015625)"/>
       <path id="ArialMT-6f" d="M 213 1659 
Q 213 2581 725 3025 
Q 1153 3394 1769 3394 
Q 2453 3394 2887 2945 
Q 3322 2497 3322 1706 
Q 3322 1066 3130 698 
Q 2938 331 2570 128 
Q 2203 -75 1769 -75 
Q 1072 -75 642 372 
Q 213 819 213 1659 
z
M 791 1659 
Q 791 1022 1069 705 
Q 1347 388 1769 388 
Q 2188 388 2466 706 
Q 2744 1025 2744 1678 
Q 2744 2294 2464 2611 
Q 2184 2928 1769 2928 
Q 1347 2928 1069 2612 
Q 791 2297 791 1659 
z
" transform="scale(0.015625)"/>
       <path id="ArialMT-63" d="M 2588 1216 
L 3141 1144 
Q 3050 572 2676 248 
Q 2303 -75 1759 -75 
Q 1078 -75 664 370 
Q 250 816 250 1647 
Q 250 2184 428 2587 
Q 606 2991 970 3192 
Q 1334 3394 1763 3394 
Q 2303 3394 2647 3120 
Q 2991 2847 3088 2344 
L 2541 2259 
Q 2463 2594 2264 2762 
Q 2066 2931 1784 2931 
Q 1359 2931 1093 2626 
Q 828 2322 828 1663 
Q 828 994 1084 691 
Q 1341 388 1753 388 
Q 2084 388 2306 591 
Q 2528 794 2588 1216 
z
" transform="scale(0.015625)"/>
       <path id="ArialMT-68" d="M 422 0 
L 422 4581 
L 984 4581 
L 984 2938 
Q 1378 3394 1978 3394 
Q 2347 3394 2619 3248 
Q 2891 3103 3008 2847 
Q 3125 2591 3125 2103 
L 3125 0 
L 2563 0 
L 2563 2103 
Q 2563 2525 2380 2717 
Q 2197 2909 1863 2909 
Q 1613 2909 1392 2779 
Q 1172 2650 1078 2428 
Q 984 2206 984 1816 
L 984 0 
L 422 0 
z
" transform="scale(0.015625)"/>
      </defs>
      <use xlink:href="#ArialMT-45"/>
      <use xlink:href="#ArialMT-70" x="66.699219"/>
      <use xlink:href="#ArialMT-6f" x="122.314453"/>
      <use xlink:href="#ArialMT-63" x="177.929688"/>
      <use xlink:href="#ArialMT-68" x="227.929688"/>
     </g>
    </g>
   </g>
   <g id="matplotlib.axis_2">
    <g id="ytick_1">
     <g id="line2d_13">
      <path d="M 43.645313 169.048461 
L 263.330352 169.048461 
" clip-path="url(#pf2a986f171)" style="fill: none; stroke: #b0b0b0; stroke-width: 0.8; stroke-linecap: square"/>
     </g>
     <g id="line2d_14">
      <defs>
       <path id="m18f8805766" d="M 0 0 
L 3.5 0 
" style="stroke: #000000; stroke-width: 0.8"/>
      </defs>
      <g>
       <use xlink:href="#m18f8805766" x="43.645313" y="169.048461" style="stroke: #000000; stroke-width: 0.8"/>
      </g>
     </g>
     <g id="text_8">
      <!-- $\mathdefault{10^{-8}}$ -->
      <g transform="translate(20.345313 174.204711) scale(0.1 -0.1)">
       <defs>
        <path id="ArialMT-2212" d="M 3381 1997 
L 356 1997 
L 356 2522 
L 3381 2522 
L 3381 1997 
z
" transform="scale(0.015625)"/>
       </defs>
       <use xlink:href="#ArialMT-31" transform="translate(0 0.99375)"/>
       <use xlink:href="#ArialMT-30" transform="translate(55.615234 0.99375)"/>
       <use xlink:href="#ArialMT-2212" transform="translate(112.972813 70.6875) scale(0.7)"/>
       <use xlink:href="#ArialMT-38" transform="translate(153.851719 70.6875) scale(0.7)"/>
      </g>
     </g>
    </g>
    <g id="ytick_2">
     <g id="line2d_15">
      <path d="M 43.645313 137.710019 
L 263.330352 137.710019 
" clip-path="url(#pf2a986f171)" style="fill: none; stroke: #b0b0b0; stroke-width: 0.8; stroke-linecap: square"/>
     </g>
     <g id="line2d_16">
      <g>
       <use xlink:href="#m18f8805766" x="43.645313" y="137.710019" style="stroke: #000000; stroke-width: 0.8"/>
      </g>
     </g>
     <g id="text_9">
      <!-- $\mathdefault{10^{-7}}$ -->
      <g transform="translate(20.345313 142.816269) scale(0.1 -0.1)">
       <defs>
        <path id="ArialMT-37" d="M 303 3981 
L 303 4522 
L 3269 4522 
L 3269 4084 
Q 2831 3619 2401 2847 
Q 1972 2075 1738 1259 
Q 1569 684 1522 0 
L 944 0 
Q 953 541 1156 1306 
Q 1359 2072 1739 2783 
Q 2119 3494 2547 3981 
L 303 3981 
z
" transform="scale(0.015625)"/>
       </defs>
       <use xlink:href="#ArialMT-31" transform="translate(0 0.846875)"/>
       <use xlink:href="#ArialMT-30" transform="translate(55.615234 0.846875)"/>
       <use xlink:href="#ArialMT-2212" transform="translate(112.972813 70.540625) scale(0.7)"/>
       <use xlink:href="#ArialMT-37" transform="translate(153.851719 70.540625) scale(0.7)"/>
      </g>
     </g>
    </g>
    <g id="ytick_3">
     <g id="line2d_17">
      <path d="M 43.645313 106.371577 
L 263.330352 106.371577 
" clip-path="url(#pf2a986f171)" style="fill: none; stroke: #b0b0b0; stroke-width: 0.8; stroke-linecap: square"/>
     </g>
     <g id="line2d_18">
      <g>
       <use xlink:href="#m18f8805766" x="43.645313" y="106.371577" style="stroke: #000000; stroke-width: 0.8"/>
      </g>
     </g>
     <g id="text_10">
      <!-- $\mathdefault{10^{-6}}$ -->
      <g transform="translate(20.345313 111.527827) scale(0.1 -0.1)">
       <use xlink:href="#ArialMT-31" transform="translate(0 0.99375)"/>
       <use xlink:href="#ArialMT-30" transform="translate(55.615234 0.99375)"/>
       <use xlink:href="#ArialMT-2212" transform="translate(112.972813 70.6875) scale(0.7)"/>
       <use xlink:href="#ArialMT-36" transform="translate(153.851719 70.6875) scale(0.7)"/>
      </g>
     </g>
    </g>
    <g id="ytick_4">
     <g id="line2d_19">
      <path d="M 43.645313 75.033134 
L 263.330352 75.033134 
" clip-path="url(#pf2a986f171)" style="fill: none; stroke: #b0b0b0; stroke-width: 0.8; stroke-linecap: square"/>
     </g>
     <g id="line2d_20">
      <g>
       <use xlink:href="#m18f8805766" x="43.645313" y="75.033134" style="stroke: #000000; stroke-width: 0.8"/>
      </g>
     </g>
     <g id="text_11">
      <!-- $\mathdefault{10^{-5}}$ -->
      <g transform="translate(20.345313 80.139384) scale(0.1 -0.1)">
       <defs>
        <path id="ArialMT-35" d="M 266 1200 
L 856 1250 
Q 922 819 1161 601 
Q 1400 384 1738 384 
Q 2144 384 2425 690 
Q 2706 997 2706 1503 
Q 2706 1984 2436 2262 
Q 2166 2541 1728 2541 
Q 1456 2541 1237 2417 
Q 1019 2294 894 2097 
L 366 2166 
L 809 4519 
L 3088 4519 
L 3088 3981 
L 1259 3981 
L 1013 2750 
Q 1425 3038 1878 3038 
Q 2478 3038 2890 2622 
Q 3303 2206 3303 1553 
Q 3303 931 2941 478 
Q 2500 -78 1738 -78 
Q 1113 -78 717 272 
Q 322 622 266 1200 
z
" transform="scale(0.015625)"/>
       </defs>
       <use xlink:href="#ArialMT-31" transform="translate(0 0.879688)"/>
       <use xlink:href="#ArialMT-30" transform="translate(55.615234 0.879688)"/>
       <use xlink:href="#ArialMT-2212" transform="translate(112.972813 70.573438) scale(0.7)"/>
       <use xlink:href="#ArialMT-35" transform="translate(153.851719 70.573438) scale(0.7)"/>
      </g>
     </g>
    </g>
    <g id="ytick_5">
     <g id="line2d_21">
      <path d="M 43.645313 43.694692 
L 263.330352 43.694692 
" clip-path="url(#pf2a986f171)" style="fill: none; stroke: #b0b0b0; stroke-width: 0.8; stroke-linecap: square"/>
     </g>
     <g id="line2d_22">
      <g>
       <use xlink:href="#m18f8805766" x="43.645313" y="43.694692" style="stroke: #000000; stroke-width: 0.8"/>
      </g>
     </g>
     <g id="text_12">
      <!-- $\mathdefault{10^{-4}}$ -->
      <g transform="translate(20.345313 48.800942) scale(0.1 -0.1)">
       <use xlink:href="#ArialMT-31" transform="translate(0 0.201563)"/>
       <use xlink:href="#ArialMT-30" transform="translate(55.615234 0.201563)"/>
       <use xlink:href="#ArialMT-2212" transform="translate(112.972813 69.895313) scale(0.7)"/>
       <use xlink:href="#ArialMT-34" transform="translate(153.851719 69.895313) scale(0.7)"/>
      </g>
     </g>
    </g>
    <g id="ytick_6">
     <g id="line2d_23">
      <path d="M 43.645313 12.35625 
L 263.330352 12.35625 
" clip-path="url(#pf2a986f171)" style="fill: none; stroke: #b0b0b0; stroke-width: 0.8; stroke-linecap: square"/>
     </g>
     <g id="line2d_24">
      <g>
       <use xlink:href="#m18f8805766" x="43.645313" y="12.35625" style="stroke: #000000; stroke-width: 0.8"/>
      </g>
     </g>
     <g id="text_13">
      <!-- $\mathdefault{10^{-3}}$ -->
      <g transform="translate(20.345313 17.5125) scale(0.1 -0.1)">
       <defs>
        <path id="ArialMT-33" d="M 269 1209 
L 831 1284 
Q 928 806 1161 595 
Q 1394 384 1728 384 
Q 2125 384 2398 659 
Q 2672 934 2672 1341 
Q 2672 1728 2419 1979 
Q 2166 2231 1775 2231 
Q 1616 2231 1378 2169 
L 1441 2663 
Q 1497 2656 1531 2656 
Q 1891 2656 2178 2843 
Q 2466 3031 2466 3422 
Q 2466 3731 2256 3934 
Q 2047 4138 1716 4138 
Q 1388 4138 1169 3931 
Q 950 3725 888 3313 
L 325 3413 
Q 428 3978 793 4289 
Q 1159 4600 1703 4600 
Q 2078 4600 2393 4439 
Q 2709 4278 2876 4000 
Q 3044 3722 3044 3409 
Q 3044 3113 2884 2869 
Q 2725 2625 2413 2481 
Q 2819 2388 3044 2092 
Q 3269 1797 3269 1353 
Q 3269 753 2831 336 
Q 2394 -81 1725 -81 
Q 1122 -81 723 278 
Q 325 638 269 1209 
z
" transform="scale(0.015625)"/>
       </defs>
       <use xlink:href="#ArialMT-31" transform="translate(0 0.99375)"/>
       <use xlink:href="#ArialMT-30" transform="translate(55.615234 0.99375)"/>
       <use xlink:href="#ArialMT-2212" transform="translate(112.972813 70.6875) scale(0.7)"/>
       <use xlink:href="#ArialMT-33" transform="translate(153.851719 70.6875) scale(0.7)"/>
      </g>
     </g>
    </g>
    <g id="ytick_7">
     <g id="line2d_25">
      <defs>
       <path id="me92c8569b8" d="M 0 0 
L 2 0 
" style="stroke: #000000; stroke-width: 0.6"/>
      </defs>
      <g>
       <use xlink:href="#me92c8569b8" x="43.645313" y="181.519281" style="stroke: #000000; stroke-width: 0.6"/>
      </g>
     </g>
    </g>
    <g id="ytick_8">
     <g id="line2d_26">
      <g>
       <use xlink:href="#me92c8569b8" x="43.645313" y="178.482272" style="stroke: #000000; stroke-width: 0.6"/>
      </g>
     </g>
    </g>
    <g id="ytick_9">
     <g id="line2d_27">
      <g>
       <use xlink:href="#me92c8569b8" x="43.645313" y="176.000855" style="stroke: #000000; stroke-width: 0.6"/>
      </g>
     </g>
    </g>
    <g id="ytick_10">
     <g id="line2d_28">
      <g>
       <use xlink:href="#me92c8569b8" x="43.645313" y="173.902847" style="stroke: #000000; stroke-width: 0.6"/>
      </g>
     </g>
    </g>
    <g id="ytick_11">
     <g id="line2d_29">
      <g>
       <use xlink:href="#me92c8569b8" x="43.645313" y="172.08547" style="stroke: #000000; stroke-width: 0.6"/>
      </g>
     </g>
    </g>
    <g id="ytick_12">
     <g id="line2d_30">
      <g>
       <use xlink:href="#me92c8569b8" x="43.645313" y="170.48243" style="stroke: #000000; stroke-width: 0.6"/>
      </g>
     </g>
    </g>
    <g id="ytick_13">
     <g id="line2d_31">
      <g>
       <use xlink:href="#me92c8569b8" x="43.645313" y="159.61465" style="stroke: #000000; stroke-width: 0.6"/>
      </g>
     </g>
    </g>
    <g id="ytick_14">
     <g id="line2d_32">
      <g>
       <use xlink:href="#me92c8569b8" x="43.645313" y="154.096224" style="stroke: #000000; stroke-width: 0.6"/>
      </g>
     </g>
    </g>
    <g id="ytick_15">
     <g id="line2d_33">
      <g>
       <use xlink:href="#me92c8569b8" x="43.645313" y="150.180839" style="stroke: #000000; stroke-width: 0.6"/>
      </g>
     </g>
    </g>
    <g id="ytick_16">
     <g id="line2d_34">
      <g>
       <use xlink:href="#me92c8569b8" x="43.645313" y="147.14383" style="stroke: #000000; stroke-width: 0.6"/>
      </g>
     </g>
    </g>
    <g id="ytick_17">
     <g id="line2d_35">
      <g>
       <use xlink:href="#me92c8569b8" x="43.645313" y="144.662413" style="stroke: #000000; stroke-width: 0.6"/>
      </g>
     </g>
    </g>
    <g id="ytick_18">
     <g id="line2d_36">
      <g>
       <use xlink:href="#me92c8569b8" x="43.645313" y="142.564405" style="stroke: #000000; stroke-width: 0.6"/>
      </g>
     </g>
    </g>
    <g id="ytick_19">
     <g id="line2d_37">
      <g>
       <use xlink:href="#me92c8569b8" x="43.645313" y="140.747028" style="stroke: #000000; stroke-width: 0.6"/>
      </g>
     </g>
    </g>
    <g id="ytick_20">
     <g id="line2d_38">
      <g>
       <use xlink:href="#me92c8569b8" x="43.645313" y="139.143987" style="stroke: #000000; stroke-width: 0.6"/>
      </g>
     </g>
    </g>
    <g id="ytick_21">
     <g id="line2d_39">
      <g>
       <use xlink:href="#me92c8569b8" x="43.645313" y="128.276208" style="stroke: #000000; stroke-width: 0.6"/>
      </g>
     </g>
    </g>
    <g id="ytick_22">
     <g id="line2d_40">
      <g>
       <use xlink:href="#me92c8569b8" x="43.645313" y="122.757782" style="stroke: #000000; stroke-width: 0.6"/>
      </g>
     </g>
    </g>
    <g id="ytick_23">
     <g id="line2d_41">
      <g>
       <use xlink:href="#me92c8569b8" x="43.645313" y="118.842397" style="stroke: #000000; stroke-width: 0.6"/>
      </g>
     </g>
    </g>
    <g id="ytick_24">
     <g id="line2d_42">
      <g>
       <use xlink:href="#me92c8569b8" x="43.645313" y="115.805388" style="stroke: #000000; stroke-width: 0.6"/>
      </g>
     </g>
    </g>
    <g id="ytick_25">
     <g id="line2d_43">
      <g>
       <use xlink:href="#me92c8569b8" x="43.645313" y="113.323971" style="stroke: #000000; stroke-width: 0.6"/>
      </g>
     </g>
    </g>
    <g id="ytick_26">
     <g id="line2d_44">
      <g>
       <use xlink:href="#me92c8569b8" x="43.645313" y="111.225963" style="stroke: #000000; stroke-width: 0.6"/>
      </g>
     </g>
    </g>
    <g id="ytick_27">
     <g id="line2d_45">
      <g>
       <use xlink:href="#me92c8569b8" x="43.645313" y="109.408585" style="stroke: #000000; stroke-width: 0.6"/>
      </g>
     </g>
    </g>
    <g id="ytick_28">
     <g id="line2d_46">
      <g>
       <use xlink:href="#me92c8569b8" x="43.645313" y="107.805545" style="stroke: #000000; stroke-width: 0.6"/>
      </g>
     </g>
    </g>
    <g id="ytick_29">
     <g id="line2d_47">
      <g>
       <use xlink:href="#me92c8569b8" x="43.645313" y="96.937766" style="stroke: #000000; stroke-width: 0.6"/>
      </g>
     </g>
    </g>
    <g id="ytick_30">
     <g id="line2d_48">
      <g>
       <use xlink:href="#me92c8569b8" x="43.645313" y="91.41934" style="stroke: #000000; stroke-width: 0.6"/>
      </g>
     </g>
    </g>
    <g id="ytick_31">
     <g id="line2d_49">
      <g>
       <use xlink:href="#me92c8569b8" x="43.645313" y="87.503954" style="stroke: #000000; stroke-width: 0.6"/>
      </g>
     </g>
    </g>
    <g id="ytick_32">
     <g id="line2d_50">
      <g>
       <use xlink:href="#me92c8569b8" x="43.645313" y="84.466946" style="stroke: #000000; stroke-width: 0.6"/>
      </g>
     </g>
    </g>
    <g id="ytick_33">
     <g id="line2d_51">
      <g>
       <use xlink:href="#me92c8569b8" x="43.645313" y="81.985529" style="stroke: #000000; stroke-width: 0.6"/>
      </g>
     </g>
    </g>
    <g id="ytick_34">
     <g id="line2d_52">
      <g>
       <use xlink:href="#me92c8569b8" x="43.645313" y="79.887521" style="stroke: #000000; stroke-width: 0.6"/>
      </g>
     </g>
    </g>
    <g id="ytick_35">
     <g id="line2d_53">
      <g>
       <use xlink:href="#me92c8569b8" x="43.645313" y="78.070143" style="stroke: #000000; stroke-width: 0.6"/>
      </g>
     </g>
    </g>
    <g id="ytick_36">
     <g id="line2d_54">
      <g>
       <use xlink:href="#me92c8569b8" x="43.645313" y="76.467103" style="stroke: #000000; stroke-width: 0.6"/>
      </g>
     </g>
    </g>
    <g id="ytick_37">
     <g id="line2d_55">
      <g>
       <use xlink:href="#me92c8569b8" x="43.645313" y="65.599323" style="stroke: #000000; stroke-width: 0.6"/>
      </g>
     </g>
    </g>
    <g id="ytick_38">
     <g id="line2d_56">
      <g>
       <use xlink:href="#me92c8569b8" x="43.645313" y="60.080898" style="stroke: #000000; stroke-width: 0.6"/>
      </g>
     </g>
    </g>
    <g id="ytick_39">
     <g id="line2d_57">
      <g>
       <use xlink:href="#me92c8569b8" x="43.645313" y="56.165512" style="stroke: #000000; stroke-width: 0.6"/>
      </g>
     </g>
    </g>
    <g id="ytick_40">
     <g id="line2d_58">
      <g>
       <use xlink:href="#me92c8569b8" x="43.645313" y="53.128503" style="stroke: #000000; stroke-width: 0.6"/>
      </g>
     </g>
    </g>
    <g id="ytick_41">
     <g id="line2d_59">
      <g>
       <use xlink:href="#me92c8569b8" x="43.645313" y="50.647086" style="stroke: #000000; stroke-width: 0.6"/>
      </g>
     </g>
    </g>
    <g id="ytick_42">
     <g id="line2d_60">
      <g>
       <use xlink:href="#me92c8569b8" x="43.645313" y="48.549078" style="stroke: #000000; stroke-width: 0.6"/>
      </g>
     </g>
    </g>
    <g id="ytick_43">
     <g id="line2d_61">
      <g>
       <use xlink:href="#me92c8569b8" x="43.645313" y="46.731701" style="stroke: #000000; stroke-width: 0.6"/>
      </g>
     </g>
    </g>
    <g id="ytick_44">
     <g id="line2d_62">
      <g>
       <use xlink:href="#me92c8569b8" x="43.645313" y="45.128661" style="stroke: #000000; stroke-width: 0.6"/>
      </g>
     </g>
    </g>
    <g id="ytick_45">
     <g id="line2d_63">
      <g>
       <use xlink:href="#me92c8569b8" x="43.645313" y="34.260881" style="stroke: #000000; stroke-width: 0.6"/>
      </g>
     </g>
    </g>
    <g id="ytick_46">
     <g id="line2d_64">
      <g>
       <use xlink:href="#me92c8569b8" x="43.645313" y="28.742455" style="stroke: #000000; stroke-width: 0.6"/>
      </g>
     </g>
    </g>
    <g id="ytick_47">
     <g id="line2d_65">
      <g>
       <use xlink:href="#me92c8569b8" x="43.645313" y="24.82707" style="stroke: #000000; stroke-width: 0.6"/>
      </g>
     </g>
    </g>
    <g id="ytick_48">
     <g id="line2d_66">
      <g>
       <use xlink:href="#me92c8569b8" x="43.645313" y="21.790061" style="stroke: #000000; stroke-width: 0.6"/>
      </g>
     </g>
    </g>
    <g id="ytick_49">
     <g id="line2d_67">
      <g>
       <use xlink:href="#me92c8569b8" x="43.645313" y="19.308644" style="stroke: #000000; stroke-width: 0.6"/>
      </g>
     </g>
    </g>
    <g id="ytick_50">
     <g id="line2d_68">
      <g>
       <use xlink:href="#me92c8569b8" x="43.645313" y="17.210636" style="stroke: #000000; stroke-width: 0.6"/>
      </g>
     </g>
    </g>
    <g id="ytick_51">
     <g id="line2d_69">
      <g>
       <use xlink:href="#me92c8569b8" x="43.645313" y="15.393259" style="stroke: #000000; stroke-width: 0.6"/>
      </g>
     </g>
    </g>
    <g id="ytick_52">
     <g id="line2d_70">
      <g>
       <use xlink:href="#me92c8569b8" x="43.645313" y="13.790218" style="stroke: #000000; stroke-width: 0.6"/>
      </g>
     </g>
    </g>
    <g id="text_14">
     <!-- Loss -->
     <g transform="translate(14.357813 106.68392) rotate(-90) scale(0.1 -0.1)">
      <defs>
       <path id="ArialMT-4c" d="M 469 0 
L 469 4581 
L 1075 4581 
L 1075 541 
L 3331 541 
L 3331 0 
L 469 0 
z
" transform="scale(0.015625)"/>
       <path id="ArialMT-73" d="M 197 991 
L 753 1078 
Q 800 744 1014 566 
Q 1228 388 1613 388 
Q 2000 388 2187 545 
Q 2375 703 2375 916 
Q 2375 1106 2209 1216 
Q 2094 1291 1634 1406 
Q 1016 1563 777 1677 
Q 538 1791 414 1992 
Q 291 2194 291 2438 
Q 291 2659 392 2848 
Q 494 3038 669 3163 
Q 800 3259 1026 3326 
Q 1253 3394 1513 3394 
Q 1903 3394 2198 3281 
Q 2494 3169 2634 2976 
Q 2775 2784 2828 2463 
L 2278 2388 
Q 2241 2644 2061 2787 
Q 1881 2931 1553 2931 
Q 1166 2931 1000 2803 
Q 834 2675 834 2503 
Q 834 2394 903 2306 
Q 972 2216 1119 2156 
Q 1203 2125 1616 2013 
Q 2213 1853 2448 1751 
Q 2684 1650 2818 1456 
Q 2953 1263 2953 975 
Q 2953 694 2789 445 
Q 2625 197 2315 61 
Q 2006 -75 1616 -75 
Q 969 -75 630 194 
Q 291 463 197 991 
z
" transform="scale(0.015625)"/>
      </defs>
      <use xlink:href="#ArialMT-4c"/>
      <use xlink:href="#ArialMT-6f" x="55.615234"/>
      <use xlink:href="#ArialMT-73" x="111.230469"/>
      <use xlink:href="#ArialMT-73" x="161.230469"/>
     </g>
    </g>
   </g>
   <g id="line2d_71">
    <path d="M 53.630996 85.883735 
L 53.750836 103.215555 
L 54.170277 109.024898 
L 54.589718 112.967862 
L 55.049105 115.532556 
L 55.528466 117.046351 
L 56.26748 118.532327 
L 57.405962 120.334644 
L 58.784124 122.058599 
L 60.941248 124.237413 
L 64.63632 127.461765 
L 71.906625 133.216 
L 78.258155 137.737636 
L 84.11035 141.20612 
L 86.18758 142.193723 
L 91.480522 144.142902 
L 96.673597 145.575792 
L 104.083715 147.351959 
L 105.661611 147.713553 
L 107.25948 148.079783 
L 108.717536 148.411631 
L 110.555085 148.83202 
L 120.441901 151.246397 
L 127.073058 152.851225 
L 136.061072 154.535296 
L 141.314066 155.412177 
L 143.211536 155.729457 
L 144.949219 156.017055 
L 153.218192 157.420837 
L 155.634969 157.83897 
L 166.520453 159.721505 
L 166.600346 159.782623 
L 166.780106 159.831943 
L 167.079707 159.888221 
L 167.818721 160.027852 
L 188.810727 164.186163 
L 189.070381 164.255233 
L 190.708197 164.610356 
L 191.367318 164.628019 
L 191.407265 164.619724 
L 191.447212 164.705601 
L 191.587025 164.76059 
L 191.786759 164.844525 
L 192.066386 164.904647 
L 197.119647 165.996854 
L 197.299407 166.055152 
L 199.816051 166.574028 
L 199.875971 166.614725 
L 199.935891 166.580661 
L 200.235492 166.697582 
L 200.914586 166.859718 
L 202.093015 167.066395 
L 202.212855 166.914728 
L 202.252802 167.037998 
L 202.312722 167.166632 
L 202.372642 167.095226 
L 202.632296 167.229617 
L 202.951869 167.311057 
L 204.050405 167.54874 
L 204.789419 167.696337 
L 205.128966 167.797702 
L 207.925237 168.270062 
L 207.985157 168.248015 
L 208.025104 168.321586 
L 208.124971 168.456983 
L 208.164918 168.432505 
L 208.384625 168.502821 
L 209.283426 168.674541 
L 209.523106 168.726764 
L 209.702867 168.788925 
L 210.521775 168.949632 
L 210.701535 169.021412 
L 211.021109 169.104847 
L 211.360656 169.140789 
L 211.460523 168.92994 
L 211.520443 168.72503 
L 211.56039 168.930688 
L 211.600336 169.216977 
L 211.68023 169.047219 
L 211.85999 169.278778 
L 212.299404 169.378084 
L 212.718845 169.465083 
L 213.318046 169.548973 
L 213.417913 169.358261 
L 213.477833 169.258754 
L 213.517779 169.407285 
L 213.577699 169.633426 
L 213.63762 169.554344 
L 213.717513 169.635944 
L 213.93722 169.718873 
L 214.955862 169.907984 
L 215.015782 169.824748 
L 215.115649 168.975726 
L 215.155595 169.308387 
L 215.195542 169.974267 
L 215.295409 169.941108 
L 215.315382 169.972726 
L 215.335356 169.832938 
L 215.355329 169.743216 
L 215.395276 169.978168 
L 215.415249 169.999507 
L 215.435222 169.91592 
L 215.455196 169.867428 
L 215.495142 170.020315 
L 217.152932 170.357662 
L 217.931893 170.442383 
L 217.991813 170.173701 
L 218.071706 169.185561 
L 218.111653 170.06849 
L 218.191547 169.912496 
L 218.231493 170.511021 
L 218.251467 170.519976 
L 218.291413 170.202445 
L 218.33136 170.567699 
L 218.371307 170.372575 
L 218.39128 170.384144 
L 218.51112 170.60214 
L 218.531094 170.595275 
L 218.571041 170.536452 
L 218.610987 170.627855 
L 218.650934 170.576898 
L 218.830694 170.645742 
L 220.828031 171.006278 
L 220.927898 170.892686 
L 221.027764 170.574932 
L 221.067711 170.6777 
L 221.147605 171.088207 
L 221.207525 170.946133 
L 221.886619 171.223759 
L 222.445873 171.19617 
L 222.565713 170.423382 
L 222.60566 170.769897 
L 222.645607 171.340941 
L 222.7255 171.030967 
L 222.78542 171.365713 
L 222.865314 171.325133 
L 222.945207 171.297696 
L 223.005128 171.418209 
L 223.204861 171.438006 
L 223.464515 171.492609 
L 224.123636 171.624716 
L 224.483156 171.532678 
L 224.602997 170.98671 
L 224.642943 171.202121 
L 224.702863 171.727585 
L 224.762784 171.469989 
L 224.80273 171.573541 
L 224.842677 171.747504 
L 224.922571 171.618365 
L 225.082357 171.75037 
L 225.242144 171.788771 
L 225.481825 171.859736 
L 225.921239 171.8781 
L 226.180892 171.787257 
L 226.200866 171.832482 
L 226.320706 172.013433 
L 226.360653 171.983681 
L 226.500466 171.954064 
L 226.740147 172.098553 
L 226.919907 172.004625 
L 226.9998 171.430022 
L 227.059721 170.793121 
L 227.099667 171.57154 
L 227.139614 172.144613 
L 227.219507 171.930453 
L 227.299401 171.879447 
L 227.339348 172.175326 
L 227.359321 172.183421 
L 227.379294 172.081986 
L 227.399268 172.022437 
L 227.439214 172.188439 
L 227.499135 172.124929 
L 227.579028 172.237389 
L 227.618975 172.194046 
L 227.678895 172.268268 
L 227.898602 172.2873 
L 228.278096 172.385462 
L 228.497803 172.330789 
L 228.557723 171.976935 
L 228.637616 170.46977 
L 228.677563 171.445709 
L 228.797403 172.436337 
L 228.83735 172.013588 
L 228.937217 172.21763 
L 229.057057 172.516533 
L 229.097004 172.391016 
L 229.196871 172.445288 
L 229.376631 172.578361 
L 229.396604 172.558633 
L 229.576364 172.62308 
L 229.975832 172.664379 
L 230.055725 172.564352 
L 230.135619 171.706323 
L 230.175565 170.967755 
L 230.215512 171.817699 
L 230.335352 172.736574 
L 230.375299 172.302588 
L 230.415246 172.752415 
L 230.455192 172.46717 
L 230.595006 172.791016 
L 230.634953 172.678286 
L 230.674899 172.818586 
L 230.714846 172.750995 
L 231.453861 172.834287 
L 231.513781 171.388671 
L 231.553728 168.571937 
L 231.593674 171.889584 
L 231.633621 170.852968 
L 231.673568 172.774904 
L 231.693541 171.426451 
L 231.773435 172.603094 
L 231.813381 172.092464 
L 231.833355 172.866393 
L 231.873301 172.48697 
L 231.913248 172.481191 
L 231.993142 172.937578 
L 232.033088 172.72331 
L 232.053062 172.984635 
L 232.093008 172.817137 
L 232.172902 173.025183 
L 232.212849 172.920609 
L 232.312715 173.046628 
L 232.332689 173.000646 
L 232.432556 173.105552 
L 232.472502 173.078241 
L 232.632289 173.155989 
L 233.091677 173.267653 
L 233.29141 173.196407 
L 233.35133 172.775408 
L 233.41125 171.905911 
L 233.451197 172.903638 
L 233.471171 173.304062 
L 233.511117 172.706488 
L 233.551064 173.264055 
L 233.591011 172.972802 
L 233.610984 173.272681 
L 233.650931 173.033547 
L 233.770771 173.345332 
L 233.810718 173.204239 
L 233.850664 173.37857 
L 233.890611 173.272815 
L 234.349999 173.487931 
L 234.449865 173.398111 
L 234.509785 172.460346 
L 234.569706 169.57105 
L 234.589679 172.195305 
L 234.629626 171.452123 
L 234.709519 173.199796 
L 234.729492 172.477153 
L 234.809386 173.270353 
L 234.829359 172.905448 
L 234.909253 173.374771 
L 234.989146 173.167059 
L 234.969173 173.44554 
L 235.00912 173.34778 
L 235.049066 173.225617 
L 235.148933 173.476483 
L 235.168907 173.386526 
L 235.208853 173.519386 
L 235.2488 173.489611 
L 235.388614 173.578325 
L 235.5484 173.644678 
L 235.828028 173.663956 
L 235.887948 173.405475 
L 235.967841 171.02773 
L 235.987814 172.394039 
L 236.007788 173.664412 
L 236.107655 173.250986 
L 236.147601 173.069164 
L 236.227495 173.625938 
L 236.247468 173.353204 
L 236.327362 173.654936 
L 236.427228 173.570485 
L 236.447202 173.662516 
L 236.547069 173.769924 
L 236.507122 173.613384 
L 236.567042 173.704276 
L 236.606989 173.763379 
L 236.746802 173.83256 
L 236.866643 173.872934 
L 236.966509 173.816069 
L 237.026429 172.993977 
L 237.066376 170.53134 
L 237.126296 173.442341 
L 237.14627 172.187317 
L 237.26611 173.563783 
L 237.286083 173.078487 
L 237.365977 173.704506 
L 237.38595 173.3496 
L 237.465843 173.792383 
L 237.50579 173.777503 
L 237.545737 173.644859 
L 237.56571 173.842437 
L 237.605657 173.721995 
L 237.705524 173.888702 
L 237.725497 173.832676 
L 237.925231 173.987974 
L 238.104991 174.029606 
L 238.164911 173.911672 
L 238.204858 173.172997 
L 238.244805 169.999301 
L 238.284751 173.335184 
L 238.324698 172.319995 
L 238.344671 173.685323 
L 238.444538 173.175379 
L 238.804059 173.989896 
L 238.824032 173.88612 
L 238.863979 174.02163 
L 238.903926 173.957329 
L 238.983819 174.081031 
L 239.023766 174.021619 
L 239.163579 174.156928 
L 239.183553 174.139183 
L 239.363313 174.020928 
L 239.423233 172.542181 
L 239.443207 171.136509 
L 239.483153 173.922072 
L 239.5231 173.158078 
L 239.543073 173.954287 
L 239.563047 173.151018 
L 239.64294 173.685703 
L 239.662914 173.6212 
L 239.682887 173.918645 
L 239.70286 173.634619 
L 239.8227 174.107374 
L 239.842674 173.947851 
L 239.922567 174.188393 
L 239.942541 174.070316 
L 239.982487 174.214398 
L 240.022434 174.084149 
L 240.162248 174.295278 
L 240.222168 174.154495 
L 240.302061 173.842956 
L 240.342008 173.992083 
L 240.461848 174.331364 
L 240.501795 174.233401 
L 240.581688 174.290863 
L 240.641608 174.379744 
L 240.701529 174.279358 
L 240.741475 174.089348 
L 240.801395 171.036476 
L 240.821369 169.307752 
L 240.841342 173.399541 
L 240.881289 172.232928 
L 240.921236 172.101161 
L 240.981156 173.739515 
L 241.001129 172.528228 
L 241.061049 173.847212 
L 241.081022 173.067906 
L 241.180889 174.07851 
L 241.200863 173.672365 
L 241.260783 174.112014 
L 241.320703 174.106932 
L 241.340676 174.016897 
L 241.400596 174.248099 
L 241.42057 174.160336 
L 241.78009 174.494898 
L 241.95985 174.335234 
L 241.999797 172.869812 
L 242.019771 170.046316 
L 242.059717 173.545574 
L 242.099664 172.969702 
L 242.139611 172.864145 
L 242.239478 173.406521 
L 242.259451 173.366941 
L 242.279424 173.496644 
L 242.499131 174.187914 
L 243.018439 174.618562 
L 243.038412 174.590286 
L 243.098332 174.152796 
L 243.158252 171.593646 
L 243.198199 174.193631 
L 243.218172 172.942878 
L 243.238146 174.346152 
L 243.318039 174.147043 
L 243.338013 173.448675 
L 243.397933 174.230563 
L 243.417906 173.789486 
L 243.517773 174.450808 
L 243.537746 174.20447 
L 243.657586 174.570181 
L 243.67756 174.396105 
L 243.757453 174.608799 
L 243.85732 174.654384 
L 243.877293 174.548145 
L 243.91724 174.47279 
L 243.97716 174.592682 
L 244.097 174.780313 
L 244.156921 174.723088 
L 244.216841 174.448148 
L 244.296734 173.23579 
L 244.316707 174.582169 
L 244.356654 173.994696 
L 244.376628 174.638891 
L 244.476494 174.446026 
L 244.516441 174.571743 
L 244.536414 174.397859 
L 244.656255 174.742858 
L 244.676228 174.625562 
L 244.716175 174.764281 
L 244.756122 174.761782 
L 244.776095 174.828753 
L 244.816042 174.699369 
L 244.836015 174.69476 
L 244.875962 174.67594 
L 244.915908 174.154803 
L 244.975829 170.130083 
L 244.995802 174.65291 
L 245.015775 171.625602 
L 245.035749 174.195155 
L 245.115642 174.015592 
L 245.135615 172.581546 
L 245.155589 174.023582 
L 245.215509 173.239468 
L 245.335349 174.236774 
L 245.355322 174.134348 
L 245.375296 174.421731 
L 245.395269 174.221896 
L 245.495136 174.555623 
L 245.515109 174.531781 
L 245.555056 174.644491 
L 245.575029 174.509182 
L 245.69487 174.786764 
L 245.834683 174.873623 
L 245.854657 174.922336 
L 245.894603 174.781111 
L 245.914577 174.761577 
L 245.954523 174.843817 
L 246.074364 174.984927 
L 246.094337 174.952481 
L 246.134284 174.373932 
L 246.194204 167.808776 
L 246.214177 174.541131 
L 246.23415 169.66913 
L 246.254124 174.050437 
L 246.353991 172.495806 
L 246.393937 173.27383 
L 246.413911 171.896564 
L 246.533751 173.824444 
L 246.553724 173.227571 
L 246.573698 174.145757 
L 246.633618 174.06135 
L 246.653591 174.093251 
L 246.793405 174.619579 
L 246.813378 174.393846 
L 246.873298 174.705364 
L 246.893272 174.519196 
L 247.013112 174.821322 
L 247.033085 174.734025 
L 247.053058 174.875861 
L 247.093005 174.846974 
L 247.232819 175.026188 
L 247.272765 174.969638 
L 247.332686 175.077782 
L 247.392606 175.027589 
L 247.432552 174.183288 
L 247.472499 168.045358 
L 247.552393 170.569644 
L 247.612313 173.244144 
L 247.592339 169.914629 
L 247.672233 172.282791 
L 247.692206 171.085478 
L 247.712179 172.97235 
L 247.7721 172.813835 
L 247.792073 172.041054 
L 247.812046 173.37324 
L 247.851993 173.108679 
L 247.89194 173.098034 
L 248.01178 174.416231 
L 248.031753 174.144161 
L 248.0717 174.454915 
L 248.091673 174.331956 
L 248.19154 174.70838 
L 248.211514 174.526915 
L 248.351327 174.860485 
L 248.411247 174.938179 
L 248.431221 174.852144 
L 248.571034 175.082699 
L 248.730821 175.012157 
L 248.770768 173.69927 
L 248.810715 168.871967 
L 248.830688 174.935494 
L 248.890608 172.104442 
L 248.970501 173.851143 
L 249.010448 173.802158 
L 249.030422 173.109475 
L 249.110315 174.040792 
L 249.130288 173.645226 
L 249.170235 174.215926 
L 249.190208 173.881905 
L 249.310049 174.765703 
L 249.330022 174.524115 
L 249.349995 174.791643 
L 249.409915 174.794297 
L 249.429889 174.773162 
L 249.449862 174.856277 
L 249.469836 174.824539 
L 249.629622 175.071492 
L 249.789409 175.190935 
L 249.849329 175.061313 
L 249.90925 173.739524 
L 249.929223 173.348793 
L 249.949196 173.799701 
L 249.96917 175.182446 
L 250.069036 174.420804 
L 250.08901 174.9597 
L 250.188877 174.851433 
L 250.20885 174.793847 
L 250.228823 174.973612 
L 250.248797 174.847913 
L 250.38861 175.205885 
L 250.408584 175.115716 
L 250.428557 175.229894 
L 250.468504 175.212683 
L 250.548397 175.314234 
L 250.568371 175.243768 
L 250.668237 175.219782 
L 250.708184 173.423399 
L 250.728158 168.616108 
L 250.768104 174.626172 
L 250.808051 173.603444 
L 250.828024 173.674769 
L 250.887944 172.61165 
L 250.867971 173.899503 
L 250.947865 172.916889 
L 251.067705 174.042124 
L 251.087678 173.755568 
L 251.127625 174.273589 
L 251.147598 174.189694 
L 251.267438 174.930297 
L 251.287412 174.787931 
L 251.347332 175.003537 
L 251.367305 174.945365 
L 251.507119 175.191219 
L 251.527092 175.160403 
L 251.666906 175.326435 
L 251.706852 175.160871 
L 251.746799 173.985163 
L 251.766772 171.525324 
L 251.806719 175.282823 
L 251.846666 175.066006 
L 251.866639 174.084207 
L 251.966506 174.169295 
L 252.086346 174.877711 
L 252.10632 174.67994 
L 252.16624 174.971361 
L 252.306053 175.286161 
L 252.326027 175.209298 
L 252.385947 175.343706 
L 252.40592 175.333612 
L 252.485814 175.321014 
L 252.505787 175.390944 
L 252.565707 175.493062 
L 252.58568 175.458453 
L 252.605654 175.1903 
L 252.645601 166.521951 
L 252.665574 158.799714 
L 252.685547 167.702733 
L 252.725494 163.033424 
L 252.745467 171.156192 
L 252.845334 166.925865 
L 252.885281 166.62915 
L 252.985148 172.237586 
L 253.005121 170.168167 
L 253.045068 173.172763 
L 253.085015 171.398599 
L 253.164908 173.585889 
L 253.204855 172.695195 
L 253.284748 174.09204 
L 253.324695 173.839617 
L 253.344668 174.285295 
L 253.344668 174.285295 
" clip-path="url(#pf2a986f171)" style="fill: none; stroke: #0000ff; stroke-width: 1.5; stroke-linecap: square"/>
   </g>
   <g id="line2d_72">
    <path d="M 53.630996 94.196083 
L 53.77081 99.779434 
L 54.230197 105.143594 
L 54.589718 107.394047 
L 55.508492 111.286657 
L 55.90796 111.946123 
L 56.347374 112.234684 
L 56.846708 112.307739 
L 57.545776 112.145208 
L 59.543112 111.538272 
L 60.461887 111.548068 
L 61.420608 111.762038 
L 62.818744 112.324579 
L 65.115681 113.515447 
L 68.990513 115.450277 
L 71.926598 116.63262 
L 75.741511 117.855016 
L 82.652295 119.641302 
L 92.978524 122.071269 
L 98.89064 123.228625 
L 102.186245 123.750837 
L 111.873327 124.753384 
L 115.62832 124.924191 
L 127.752152 125.083008 
L 144.429911 125.100422 
L 144.569725 125.069948 
L 144.689565 125.088143 
L 145.208873 125.07776 
L 146.507141 125.051018 
L 152.299417 124.874854 
L 183.997147 122.98187 
L 184.856001 122.919189 
L 187.013125 122.768659 
L 187.352672 122.743985 
L 187.812059 122.708408 
L 188.630967 122.675876 
L 188.730834 122.607376 
L 188.850674 122.645124 
L 188.990488 122.612686 
L 189.150275 122.627781 
L 189.310062 122.595301 
L 189.469848 122.59905 
L 189.689555 122.582158 
L 190.089023 122.548634 
L 190.508463 122.525543 
L 191.067718 122.477147 
L 191.207531 122.491971 
L 191.307398 122.411877 
L 191.387291 122.369954 
L 191.407265 122.537976 
L 191.527105 122.38979 
L 191.547078 122.514456 
L 191.646945 122.477554 
L 191.706865 122.405362 
L 191.766785 122.431618 
L 191.866652 122.449122 
L 191.886626 122.424924 
L 194.682897 122.196516 
L 194.76279 122.148344 
L 194.782763 122.350447 
L 194.802737 122.136313 
L 194.88263 122.182287 
L 195.00247 122.293343 
L 195.022444 122.170721 
L 195.122311 122.239721 
L 195.421911 122.188252 
L 195.521778 122.214426 
L 195.541751 122.200887 
L 195.921245 122.185297 
L 196.220846 122.165954 
L 196.879967 122.201784 
L 196.95986 122.268744 
L 196.979833 121.954877 
L 196.999807 122.288217 
L 197.01978 121.938966 
L 197.0797 122.228165 
L 197.199541 121.995871 
L 197.219514 122.218294 
L 197.319381 122.162727 
L 197.379301 122.033389 
L 197.359327 122.183126 
L 197.439221 122.099314 
L 197.479168 122.055834 
L 197.539088 122.139436 
L 197.658928 122.05569 
L 197.678901 122.122202 
L 197.778768 122.089936 
L 197.938555 122.078451 
L 199.236824 122.030292 
L 199.376637 121.993854 
L 199.476504 122.047671 
L 199.556398 122.084246 
L 199.576371 121.902029 
L 199.656264 121.817523 
L 199.676238 122.188413 
L 199.736158 121.76136 
L 199.716184 122.211192 
L 199.776105 121.828019 
L 199.895945 122.119141 
L 199.915918 121.851665 
L 200.015785 121.930398 
L 200.075705 122.062553 
L 200.055732 121.890503 
L 200.115652 122.02309 
L 200.235492 121.916754 
L 200.255465 122.018282 
L 200.355332 121.995661 
L 200.415252 121.934876 
L 200.475172 121.97055 
L 201.034427 121.937379 
L 201.23416 121.949222 
L 201.373974 121.90521 
L 201.473841 121.947844 
L 201.493814 121.906177 
L 201.633627 121.945664 
L 201.733494 121.897501 
L 201.753468 121.937643 
L 201.893281 121.881964 
L 201.993148 121.977921 
L 202.073041 122.069706 
L 202.093015 121.708114 
L 202.172908 121.570256 
L 202.192882 122.220748 
L 202.212855 121.601602 
L 202.312722 121.756073 
L 202.332695 122.090607 
L 202.352669 121.688952 
L 202.432562 121.91748 
L 202.492482 121.747306 
L 202.472509 122.023742 
L 202.532429 121.79574 
L 202.652269 121.986262 
L 202.772109 121.823132 
L 202.792083 121.949499 
L 202.891949 121.92287 
L 202.951869 121.840794 
L 202.931896 121.935 
L 203.01179 121.887122 
L 203.25147 121.909161 
L 203.37131 121.866114 
L 203.531097 121.877968 
L 203.710857 121.859514 
L 203.890618 121.877955 
L 204.030431 121.828244 
L 204.110325 121.793129 
L 204.130298 121.934838 
L 204.170245 121.953319 
L 204.230165 121.760913 
L 204.250138 121.946307 
L 204.330032 121.906877 
L 204.429898 121.803226 
L 204.509792 121.744168 
L 204.529765 121.975058 
L 204.609659 122.004901 
L 204.629632 121.70308 
L 204.649605 121.993083 
L 204.729499 121.958863 
L 204.749472 121.7503 
L 204.829366 121.782412 
L 204.849339 121.912322 
L 204.949206 121.83945 
L 205.108993 121.895791 
L 205.20886 121.775296 
L 205.288753 121.741023 
L 205.308727 121.961159 
L 205.38862 122.015481 
L 205.408593 121.657363 
L 205.468513 122.049443 
L 205.44854 121.632456 
L 205.50846 122.029356 
L 205.528434 121.680427 
L 205.6283 121.807792 
L 205.708194 121.719171 
L 205.728167 121.966788 
L 205.748141 121.724721 
L 205.848007 121.853828 
L 205.987821 121.919392 
L 206.007794 121.765531 
L 206.087688 121.789226 
L 206.107661 121.888196 
L 206.207528 121.841701 
L 206.427235 121.769697 
L 206.507128 121.737343 
L 206.527102 121.964804 
L 206.606995 122.039215 
L 206.626969 121.625289 
L 206.686889 122.077338 
L 206.666915 121.601128 
L 206.726835 122.044695 
L 206.746809 121.675322 
L 206.846676 121.793347 
L 206.926569 121.714604 
L 206.946542 121.969056 
L 206.966516 121.732127 
L 207.066383 121.850711 
L 207.206196 121.901823 
L 207.22617 121.80052 
L 207.326036 121.859784 
L 207.485823 121.81034 
L 207.58569 121.903117 
L 207.665584 121.920294 
L 207.685557 121.78571 
L 207.76545 121.744082 
L 207.785424 121.982523 
L 207.865317 122.062724 
L 207.885291 121.620881 
L 207.945211 122.136559 
L 207.965184 121.572457 
L 207.985157 122.119714 
L 208.005131 121.626253 
L 208.104998 121.786713 
L 208.164918 122.010518 
L 208.144944 121.719337 
L 208.204864 121.982879 
L 208.324705 121.776691 
L 208.384625 121.962402 
L 208.364651 121.762133 
L 208.424571 121.927604 
L 208.544412 121.803115 
L 208.604332 121.960024 
L 208.584358 121.785607 
L 208.644278 121.946703 
L 208.664252 121.807594 
L 208.764119 121.879246 
L 209.103666 121.967303 
L 209.183559 121.995075 
L 209.203533 121.773843 
L 209.283426 121.735057 
L 209.303399 122.055617 
L 209.383293 122.101201 
L 209.403266 121.675638 
L 209.42324 122.107077 
L 209.503133 122.038248 
L 209.523106 121.791884 
L 209.622973 121.841962 
L 209.702867 121.789903 
L 209.72284 122.016266 
L 209.742813 121.793787 
L 209.822707 121.842111 
L 209.84268 121.955998 
L 209.942547 121.933868 
L 210.022441 121.971383 
L 210.042414 121.853449 
L 210.122307 121.835291 
L 210.142281 122.012165 
L 210.222174 122.042218 
L 210.242148 121.794423 
L 210.322041 121.75299 
L 210.342014 122.10668 
L 210.401934 121.72592 
L 210.381961 122.125435 
L 210.441881 121.735455 
L 210.461855 122.111467 
L 210.541748 122.007807 
L 210.661588 121.873615 
L 210.741482 121.82508 
L 210.761455 122.06373 
L 210.781428 121.818717 
L 210.801402 122.070671 
L 210.861322 121.838524 
L 210.881295 122.04247 
L 210.961189 121.997195 
L 210.981162 121.921669 
L 211.081029 121.948099 
L 211.220842 122.011985 
L 211.300736 122.053991 
L 211.320709 121.868015 
L 211.400603 121.755324 
L 211.420576 122.227681 
L 211.480496 121.561598 
L 211.50047 122.379955 
L 211.520443 121.572052 
L 211.540416 122.292067 
L 211.640283 122.227265 
L 211.660256 121.715237 
L 211.760123 121.841953 
L 211.780097 122.164791 
L 211.80007 121.816487 
L 211.879963 122.070309 
L 211.899937 121.879379 
L 211.91991 122.11554 
L 211.999804 121.96976 
L 212.059724 122.079516 
L 212.03975 121.916831 
L 212.119644 122.009575 
L 212.179564 121.939068 
L 212.159591 122.0634 
L 212.219511 121.969482 
L 212.339351 122.074966 
L 212.359324 121.972012 
L 212.459191 121.995082 
L 212.559058 122.047798 
L 212.579031 122.028868 
L 213.038419 122.04532 
L 213.138285 122.102344 
L 213.218179 122.135874 
L 213.238152 121.992288 
L 213.318046 121.928735 
L 213.338019 122.241005 
L 213.417913 122.376425 
L 213.437886 121.733171 
L 213.457859 122.406391 
L 213.557726 122.066879 
L 213.597673 122.226724 
L 213.617646 121.909325 
L 213.63762 122.275858 
L 213.737486 122.112309 
L 213.797406 121.980335 
L 213.81738 122.214463 
L 213.837353 121.996488 
L 213.857327 122.178429 
L 213.957193 122.148582 
L 214.017113 122.047421 
L 213.99714 122.170058 
L 214.05706 122.066051 
L 214.1769 122.152006 
L 214.276767 122.098213 
L 214.376634 122.142179 
L 214.396607 122.127343 
L 214.576368 122.156919 
L 214.716181 122.154416 
L 214.935888 122.250877 
L 215.015782 122.413184 
L 215.035755 121.843903 
L 215.095675 122.681401 
L 215.115649 121.606985 
L 215.135622 122.600324 
L 215.215515 121.8419 
L 215.255462 121.881339 
L 215.335356 122.44994 
L 215.375302 122.288514 
L 215.455196 122.017112 
L 215.435222 122.387996 
L 215.515116 122.058123 
L 215.535089 122.343608 
L 215.634956 122.304158 
L 215.714849 122.12184 
L 215.754796 122.147813 
L 215.83469 122.265048 
L 215.89461 122.230989 
L 215.934556 122.257888 
L 216.01445 122.187238 
L 216.13429 122.250875 
L 216.25413 122.221584 
L 216.393944 122.249773 
L 217.891946 122.238366 
L 217.97184 122.037422 
L 217.991813 122.711302 
L 218.051733 121.698944 
L 218.03176 122.870918 
L 218.09168 121.981225 
L 218.171573 122.741223 
L 218.1516 121.977153 
L 218.21152 122.464356 
L 218.231493 122.461266 
L 218.251467 122.070874 
L 218.27144 122.654775 
L 218.351334 122.107046 
L 218.371307 122.580137 
L 218.471174 122.506819 
L 218.551067 122.204357 
L 218.591014 122.364819 
L 218.650934 122.257899 
L 218.630961 122.483699 
L 218.710854 122.272854 
L 218.830694 122.45272 
L 218.910588 122.30496 
L 218.950535 122.348993 
L 219.090348 122.431701 
L 219.210188 122.378183 
L 219.330028 122.430396 
L 219.469842 122.429736 
L 220.728164 122.447634 
L 220.808057 122.416246 
L 220.828031 122.588541 
L 220.907924 122.687687 
L 220.927898 122.270048 
L 221.007791 122.152686 
L 221.027764 122.827739 
L 221.047738 122.185596 
L 221.147605 122.392936 
L 221.207525 122.69344 
L 221.187551 122.313722 
L 221.247471 122.606662 
L 221.347338 122.648596 
L 221.367312 122.386793 
L 221.387285 122.609958 
L 221.487152 122.593939 
L 221.507125 122.439429 
L 221.527099 122.601506 
L 221.587019 122.497253 
L 221.706859 122.591899 
L 221.726832 122.480432 
L 221.826699 122.550114 
L 222.146273 122.543317 
L 222.24614 122.606417 
L 222.326033 122.644125 
L 222.346006 122.495294 
L 222.4259 122.408418 
L 222.445873 122.780229 
L 222.525767 122.981704 
L 222.54574 122.093538 
L 222.565713 122.993595 
L 222.66558 122.799192 
L 222.685554 122.280612 
L 222.705527 122.850903 
L 222.78542 122.418873 
L 222.805394 122.786602 
L 222.825367 122.38208 
L 222.905261 122.716949 
L 222.925234 122.426352 
L 223.025101 122.497588 
L 223.045074 122.694797 
L 223.144941 122.65418 
L 223.164914 122.531599 
L 223.264781 122.566983 
L 223.324701 122.652075 
L 223.304728 122.553123 
L 223.384621 122.628948 
L 223.444542 122.577934 
L 223.424568 122.656193 
L 223.504462 122.625076 
L 223.664249 122.651408 
L 223.764115 122.624596 
L 223.784089 122.657446 
L 223.943876 122.646781 
L 224.283423 122.708227 
L 224.363316 122.750174 
L 224.38329 122.571797 
L 224.463183 122.490295 
L 224.483156 122.877566 
L 224.56305 123.025868 
L 224.583023 122.263376 
L 224.602997 123.028066 
L 224.702863 122.783815 
L 224.762784 122.436272 
L 224.74281 122.902089 
L 224.80273 122.567567 
L 224.882624 122.844273 
L 224.902597 122.500519 
L 224.922571 122.816909 
L 225.042411 122.568969 
L 225.162251 122.772382 
L 225.182224 122.594397 
L 225.202198 122.785433 
L 225.282091 122.694014 
L 225.361985 122.612483 
L 225.381958 122.79306 
L 225.401931 122.62564 
L 225.501798 122.68228 
L 225.541745 122.650817 
L 225.601665 122.792277 
L 225.621638 122.654306 
L 225.721505 122.728563 
L 225.821372 122.80245 
L 225.901265 122.847776 
L 225.921239 122.606021 
L 226.001132 122.565808 
L 226.021106 122.913346 
L 226.100999 122.947735 
L 226.120972 122.510669 
L 226.140946 122.946947 
L 226.220839 122.849355 
L 226.340679 122.651958 
L 226.420573 122.584637 
L 226.440546 122.89494 
L 226.46052 122.603584 
L 226.540413 122.657954 
L 226.560386 122.828773 
L 226.660253 122.753525 
L 226.800067 122.697497 
L 226.87996 122.638899 
L 226.899934 122.913505 
L 226.979827 123.107882 
L 226.9998 122.303411 
L 227.019774 123.216349 
L 227.039747 122.214931 
L 227.119641 122.840843 
L 227.179561 122.435147 
L 227.159587 123.082034 
L 227.239481 122.659567 
L 227.259454 122.986805 
L 227.279428 122.513194 
L 227.359321 122.915708 
L 227.379294 122.574528 
L 227.479161 122.628095 
L 227.499135 122.89286 
L 227.599001 122.882786 
L 227.618975 122.687489 
L 227.718842 122.708574 
L 227.838682 122.857119 
L 227.858655 122.729789 
L 227.958522 122.80063 
L 228.098335 122.822063 
L 228.258122 122.792989 
L 228.357989 122.843387 
L 228.437883 122.893505 
L 228.457856 122.710343 
L 228.537749 122.527022 
L 228.557723 123.137571 
L 228.617643 122.164659 
L 228.637616 123.311318 
L 228.65759 122.366782 
L 228.737483 123.179328 
L 228.77743 122.861603 
L 228.83735 123.052017 
L 228.817377 122.513037 
L 228.857323 122.70378 
L 228.877297 122.70096 
L 228.89727 123.007661 
L 228.917243 122.570394 
L 228.997137 122.9722 
L 229.07703 122.640521 
L 229.116977 122.727972 
L 229.176897 122.684864 
L 229.256791 122.908156 
L 229.276764 122.731457 
L 229.296737 122.925678 
L 229.376631 122.773976 
L 229.396604 122.922691 
L 229.496471 122.902072 
L 229.616311 122.800315 
L 229.636285 122.89951 
L 229.736151 122.852003 
L 229.836018 122.812336 
L 229.915912 122.790461 
L 229.935885 122.914803 
L 230.015778 122.968548 
L 230.035752 122.692109 
L 230.115645 122.433748 
L 230.135619 123.249913 
L 230.155592 122.265737 
L 230.175565 123.283202 
L 230.255459 122.533553 
L 230.275432 123.170225 
L 230.375299 123.023175 
L 230.435219 123.04328 
L 230.515113 122.634369 
L 230.535086 122.967036 
L 230.634953 122.930079 
L 230.714846 122.744504 
L 230.694873 122.956645 
L 230.754793 122.839555 
L 230.814713 122.790339 
L 230.934553 122.948913 
L 230.954527 122.816719 
L 231.054393 122.845811 
L 231.09434 122.817934 
L 231.15426 122.923112 
L 231.174234 122.825757 
L 231.2741 122.880961 
L 231.393941 122.804925 
L 231.433887 122.726309 
L 231.453861 123.050384 
L 231.533754 123.468293 
L 231.553728 121.950898 
L 231.633621 123.339008 
L 231.653594 122.993359 
L 231.673568 122.306661 
L 231.693541 123.224079 
L 231.753461 123.078795 
L 231.773435 123.102222 
L 231.793408 122.427423 
L 231.833355 123.145383 
L 231.873301 122.76518 
L 231.893275 123.090389 
L 231.913248 122.615908 
L 231.973168 122.737508 
L 231.993142 122.664204 
L 232.013115 123.032386 
L 232.093008 122.839961 
L 232.112982 122.726161 
L 232.132955 123.030785 
L 232.172902 122.792014 
L 232.192875 123.057905 
L 232.272769 122.875577 
L 232.292742 122.870295 
L 232.312715 123.050214 
L 232.392609 122.866593 
L 232.432556 123.006627 
L 232.492476 122.967536 
L 232.512449 122.862004 
L 232.612316 122.898912 
L 232.81205 122.940764 
L 232.851996 122.959128 
L 232.93189 122.893265 
L 232.99181 122.945417 
L 232.971836 122.874222 
L 233.05173 122.905949 
L 233.191543 122.840317 
L 233.271437 122.779851 
L 233.29141 123.003307 
L 233.371304 123.185926 
L 233.391277 122.432228 
L 233.41125 123.194229 
L 233.511117 123.053453 
L 233.551064 122.665021 
L 233.571037 123.091556 
L 233.610984 122.760808 
L 233.630957 123.06673 
L 233.710851 122.714094 
L 233.730824 122.942247 
L 233.770771 122.734498 
L 233.790744 123.001562 
L 233.830691 122.882731 
L 233.890611 122.993629 
L 233.870638 122.768768 
L 233.950531 122.953066 
L 234.010451 122.832913 
L 233.990478 123.016262 
L 234.050398 122.894795 
L 234.130292 123.006384 
L 234.190212 122.839959 
L 234.170238 123.016216 
L 234.230158 122.865255 
L 234.250132 122.960466 
L 234.349999 122.929021 
L 234.429892 122.99428 
L 234.449865 122.749681 
L 234.489812 122.553281 
L 234.509785 123.260672 
L 234.529759 122.173403 
L 234.609652 123.453584 
L 234.629626 122.611115 
L 234.649599 122.667425 
L 234.669572 123.37504 
L 234.709519 122.519111 
L 234.749466 123.070229 
L 234.769439 122.498055 
L 234.809386 123.17364 
L 234.849333 122.801217 
L 234.869306 123.168199 
L 234.909253 122.626622 
L 234.9492 122.891037 
L 234.969173 122.652077 
L 234.989146 123.015068 
L 235.049066 122.973672 
L 235.06904 122.991563 
L 235.089013 122.752898 
L 235.168907 123.041318 
L 235.328693 122.94663 
L 235.348667 123.079539 
L 235.42856 122.908361 
L 235.448534 123.001905 
L 235.648267 122.919903 
L 235.688214 122.900365 
L 235.748134 122.980535 
L 235.828028 123.003831 
L 235.848001 122.813356 
L 235.927894 122.426976 
L 235.947868 123.318467 
L 235.967841 122.469145 
L 236.047735 122.951997 
L 236.067708 123.239941 
L 236.087681 122.71082 
L 236.147601 122.852479 
L 236.187548 123.121528 
L 236.227495 122.707772 
L 236.247468 123.052686 
L 236.287415 122.697911 
L 236.327362 122.96553 
L 236.347335 122.713342 
L 236.427228 122.990494 
L 236.467175 122.807917 
L 236.487149 123.044219 
L 236.527095 122.911355 
L 236.567042 122.873074 
L 236.646935 123.059523 
L 236.766776 122.916509 
L 236.786749 123.023648 
L 236.886616 122.960822 
L 236.966509 123.038119 
L 236.986483 122.753583 
L 237.046403 123.321106 
L 237.066376 122.241299 
L 237.106323 123.097128 
L 237.126296 122.421987 
L 237.166243 123.304355 
L 237.20619 122.831726 
L 237.226163 123.310199 
L 237.26611 122.621546 
L 237.306057 123.114281 
L 237.32603 122.642325 
L 237.365977 123.185064 
L 237.405923 122.705258 
L 237.425897 123.045155 
L 237.465843 122.663602 
L 237.50579 123.010083 
L 237.525764 122.7385 
L 237.605657 122.954231 
L 237.645604 122.832419 
L 237.68555 123.020203 
L 237.705524 122.894651 
L 237.725497 123.08163 
L 237.805391 122.927902 
L 237.885284 123.054585 
L 237.925231 122.986342 
L 237.965178 122.938908 
L 238.025098 122.995975 
L 238.124964 122.876686 
L 238.164911 122.78009 
L 238.184885 123.141397 
L 238.244805 122.187157 
L 238.224831 123.339786 
L 238.304725 122.416697 
L 238.344671 123.479569 
L 238.424565 123.256662 
L 238.524432 122.619659 
L 238.544405 122.940187 
L 238.564378 123.192588 
L 238.604325 122.653405 
L 238.644272 122.968742 
L 238.664245 122.676379 
L 238.704192 123.063442 
L 238.744139 122.787981 
L 238.824032 123.046695 
L 238.844006 122.968847 
L 238.863979 122.863376 
L 238.883952 123.082082 
L 238.923899 122.931344 
L 238.943872 123.108672 
L 239.043739 123.022769 
L 239.063713 123.069139 
L 239.083686 122.938532 
L 239.123633 122.985857 
L 239.2235 122.939637 
L 239.163579 123.039761 
L 239.243473 122.972533 
L 239.28342 122.929012 
L 239.303393 123.028049 
L 239.383286 123.146886 
L 239.40326 122.567173 
L 239.423233 123.302146 
L 239.443207 122.390629 
L 239.5231 122.945935 
L 239.543073 123.349884 
L 239.58302 122.662692 
L 239.622967 123.17628 
L 239.682887 123.195759 
L 239.722834 122.720347 
L 239.76278 123.09514 
L 239.8227 123.034348 
L 239.862647 122.766759 
L 239.922567 122.787924 
L 240.002461 123.042591 
L 240.042407 122.925285 
L 240.102328 123.077346 
L 240.082354 122.888565 
L 240.162248 123.035111 
L 240.242141 123.118604 
L 240.262114 122.82493 
L 240.282088 123.145471 
L 240.302061 122.796361 
L 240.381955 123.075563 
L 240.401928 122.847723 
L 240.501795 122.913938 
L 240.561715 122.87677 
L 240.641608 122.986129 
L 240.721502 123.036886 
L 240.741475 122.705378 
L 240.801395 123.367563 
L 240.781422 122.326398 
L 240.821369 122.471764 
L 240.841342 122.424924 
L 240.941209 123.547495 
L 240.901262 122.326204 
L 240.961182 123.093471 
L 240.981156 122.450483 
L 241.021102 123.420107 
L 241.061049 122.504249 
L 241.100996 123.363339 
L 241.180889 123.1355 
L 241.220836 122.597755 
L 241.300729 122.738988 
L 241.36065 122.729758 
L 241.400596 123.045403 
L 241.42057 122.834025 
L 241.460516 123.118322 
L 241.500463 122.957876 
L 241.520436 123.114609 
L 241.560383 122.944898 
L 241.60033 122.997004 
L 241.620303 122.981313 
L 241.640277 123.108696 
L 241.72017 122.949244 
L 241.84001 123.049544 
L 241.939877 122.868773 
L 241.979824 122.629833 
L 241.999797 123.318248 
L 242.019771 122.170651 
L 242.099664 122.67143 
L 242.119637 123.579228 
L 242.159584 122.573983 
L 242.219504 123.305209 
L 242.339344 122.68169 
L 242.379291 123.166922 
L 242.419238 122.584651 
L 242.459185 123.010703 
L 242.559051 122.683068 
L 242.519105 123.029522 
L 242.579025 122.845456 
L 242.658918 123.053523 
L 242.678892 122.961759 
L 242.698865 122.867673 
L 242.718838 123.082286 
L 242.758785 122.917972 
L 242.838679 123.08594 
L 242.878625 123.002158 
L 242.898599 123.077692 
L 242.918572 122.942647 
L 242.998465 123.037285 
L 243.078359 123.119821 
L 243.098332 122.725021 
L 243.138279 122.403906 
L 243.238146 123.525542 
L 243.278093 122.568199 
L 243.357986 122.649086 
L 243.397933 123.286608 
L 243.477826 123.220408 
L 243.517773 122.668522 
L 243.597666 122.781616 
L 243.61764 123.037282 
L 243.657586 122.738442 
L 243.697533 122.966343 
L 243.717507 122.787929 
L 243.7974 123.031235 
L 243.85732 123.089693 
L 243.91724 122.863706 
L 243.97716 123.081313 
L 244.03708 122.956998 
L 244.156921 123.042992 
L 244.236814 123.175474 
L 244.256787 122.622067 
L 244.336681 123.250311 
L 244.356654 123.027296 
L 244.376628 122.708756 
L 244.416574 123.199156 
L 244.456521 122.831354 
L 244.476494 123.15554 
L 244.516441 122.775423 
L 244.556388 123.128562 
L 244.656255 122.788728 
L 244.676228 122.960355 
L 244.696201 122.960607 
L 244.796068 122.997307 
L 244.816042 122.827159 
L 244.895935 122.745468 
L 244.915908 123.181391 
L 244.995802 122.206299 
L 244.955855 123.402522 
L 245.015775 123.345968 
L 245.035749 123.729419 
L 245.055722 122.874734 
L 245.075695 122.344233 
L 245.115642 123.660364 
L 245.155589 122.511246 
L 245.195536 123.433382 
L 245.295402 123.252219 
L 245.335349 122.557021 
L 245.415243 122.645751 
L 245.455189 123.026407 
L 245.535083 122.971219 
L 245.555056 122.745073 
L 245.595003 123.035233 
L 245.63495 122.935279 
L 245.654923 123.113951 
L 245.734816 122.927119 
L 245.87463 123.10038 
L 245.894603 122.914708 
L 245.974497 122.951101 
L 246.094337 123.066865 
L 246.134284 123.207515 
L 246.154257 122.308328 
L 246.254124 124.119255 
L 246.214177 121.804284 
L 246.274097 123.435611 
L 246.294071 122.122885 
L 246.353991 123.759939 
L 246.393937 122.304634 
L 246.433884 123.54008 
L 246.533751 123.437492 
L 246.573698 122.280254 
L 246.673565 122.493341 
L 246.793405 123.007149 
L 246.833351 122.637639 
L 246.913245 122.804155 
L 247.013112 123.04375 
L 247.033085 122.968047 
L 247.053058 122.948322 
L 247.073032 123.099951 
L 247.112979 122.914997 
L 247.152925 123.019694 
L 247.192872 123.089025 
L 247.232819 122.974627 
L 247.292739 123.076598 
L 247.352659 123.046834 
L 247.392606 123.081415 
L 247.412579 122.817624 
L 247.472499 123.576551 
L 247.452526 122.123936 
L 247.492472 123.197697 
L 247.512446 121.858598 
L 247.572366 124.421884 
L 247.612313 121.951277 
L 247.672233 123.984164 
L 247.7721 123.629407 
L 247.911913 122.187161 
L 247.931886 122.235561 
L 247.971833 123.116728 
L 248.051727 122.72652 
L 248.0717 122.782913 
L 248.091673 122.525138 
L 248.111647 122.400729 
L 248.13162 122.689927 
L 248.151593 122.929427 
L 248.19154 122.54465 
L 248.25146 122.844539 
L 248.271434 122.718491 
L 248.31138 122.944409 
L 248.351327 122.758902 
L 248.451194 123.035212 
L 248.471167 122.886638 
L 248.610981 123.087749 
L 248.710848 123.113235 
L 248.730821 122.900264 
L 248.790741 123.428229 
L 248.770768 122.549805 
L 248.810715 122.817535 
L 248.830688 122.163079 
L 248.870635 123.892554 
L 248.930555 122.436993 
L 248.970501 123.857143 
L 249.050395 123.212137 
L 249.070368 123.504879 
L 249.110315 122.655266 
L 249.150262 123.212774 
L 249.170235 123.354096 
L 249.190208 122.950114 
L 249.210182 122.493901 
L 249.270102 123.107487 
L 249.310049 122.55935 
L 249.449862 122.933886 
L 249.489809 122.717376 
L 249.529756 122.953679 
L 249.549729 122.826415 
L 249.589676 123.01813 
L 249.669569 122.93849 
L 249.689543 122.938097 
L 249.809383 123.065186 
L 249.889276 123.168469 
L 249.90925 122.650876 
L 250.009116 123.370264 
L 250.02909 123.039611 
L 250.049063 122.755389 
L 250.08901 123.360483 
L 250.14893 122.893967 
L 250.188877 123.226699 
L 250.228823 122.856535 
L 250.26877 123.183683 
L 250.38861 122.814235 
L 250.488477 122.979904 
L 250.50845 122.870209 
L 250.668237 123.062257 
L 250.728158 122.224385 
L 250.708184 123.243235 
L 250.748131 122.788607 
L 250.828024 122.431414 
L 250.867971 123.874014 
L 250.927891 122.546677 
L 251.027758 122.665946 
L 251.067705 123.379928 
L 251.127625 122.553841 
L 251.167572 123.066738 
L 251.227492 122.515183 
L 251.247465 122.758981 
L 251.267438 122.934827 
L 251.307385 122.614982 
L 251.347332 122.843693 
L 251.387279 122.643159 
L 251.427225 122.904315 
L 251.467172 122.784686 
L 251.606986 122.989369 
L 251.686879 122.914773 
L 251.726826 122.776421 
L 251.746799 123.264406 
L 251.766772 122.507917 
L 251.806719 123.367687 
L 251.846666 122.632336 
L 251.886613 123.569239 
L 251.986479 123.40285 
L 252.146266 122.855584 
L 252.16624 123.079013 
L 252.186213 123.115664 
L 252.22616 122.716936 
L 252.306053 122.812639 
L 252.346 122.980537 
L 252.425893 122.899726 
L 252.445867 122.871465 
L 252.46584 123.010869 
L 252.485814 122.901847 
L 252.605654 123.138031 
L 252.645601 123.516173 
L 252.705521 120.819351 
L 252.745467 125.67177 
L 252.805387 120.678109 
L 252.865308 124.879137 
L 252.925228 121.54558 
L 252.945201 121.554774 
L 252.985148 123.683817 
L 253.045068 121.72206 
L 253.065041 121.628016 
L 253.104988 123.020183 
L 253.164908 121.299146 
L 253.184881 121.29731 
L 253.244801 122.839184 
L 253.284748 121.676536 
L 253.304722 121.61116 
L 253.344668 122.39103 
L 253.344668 122.39103 
" clip-path="url(#pf2a986f171)" style="fill: none; stroke-dasharray: 5.55,2.4; stroke-dashoffset: 0; stroke: #0000ff; stroke-width: 1.5"/>
   </g>
   <g id="line2d_73">
    <path d="M 53.630996 16.752904 
L 53.77081 56.577489 
L 53.970543 60.540039 
L 54.350037 66.308115 
L 54.889318 71.231321 
L 55.488519 74.758148 
L 56.14764 77.346473 
L 57.026468 79.853274 
L 58.304763 82.781536 
L 59.742846 85.544749 
L 61.340715 88.109906 
L 63.038451 90.386681 
L 64.536453 92.101383 
L 66.433923 93.952069 
L 68.73086 95.77786 
L 70.448569 96.886805 
L 72.425932 97.933587 
L 74.403295 98.779717 
L 76.600365 99.545145 
L 80.914612 100.702443 
L 85.82806 101.748569 
L 113.291436 107.050049 
L 116.247494 107.643723 
L 123.877319 109.217719 
L 128.231513 110.142439 
L 132.306079 111.009297 
L 133.504481 111.259973 
L 133.504481 111.259973 
" clip-path="url(#pf2a986f171)" style="fill: none; stroke: #ff0000; stroke-width: 1.5; stroke-linecap: square"/>
   </g>
   <g id="line2d_74">
    <path d="M 53.630996 33.240693 
L 53.77081 49.933656 
L 53.970543 54.063413 
L 54.370011 59.902201 
L 54.929265 64.881289 
L 55.528466 68.351143 
L 56.20756 70.988285 
L 57.046441 73.308925 
L 57.98519 75.276488 
L 59.043778 76.959211 
L 60.18226 78.301114 
L 61.320741 79.316374 
L 62.878664 80.391858 
L 64.376666 81.239858 
L 66.813417 82.421437 
L 72.485852 84.632155 
L 75.38199 85.527669 
L 79.436583 86.575607 
L 86.806755 88.069045 
L 93.717539 89.21197 
L 114.889305 92.458692 
L 125.654949 94.124045 
L 133.504481 95.312789 
L 133.504481 95.312789 
" clip-path="url(#pf2a986f171)" style="fill: none; stroke-dasharray: 5.55,2.4; stroke-dashoffset: 0; stroke: #ff0000; stroke-width: 1.5"/>
   </g>
   <g id="patch_3">
    <path d="M 43.645313 183.430069 
L 43.645313 8.815896 
" style="fill: none; stroke: #000000; stroke-width: 0.8; stroke-linejoin: miter; stroke-linecap: square"/>
   </g>
   <g id="patch_4">
    <path d="M 263.330352 183.430069 
L 263.330352 8.815896 
" style="fill: none; stroke: #000000; stroke-width: 0.8; stroke-linejoin: miter; stroke-linecap: square"/>
   </g>
   <g id="patch_5">
    <path d="M 43.645313 183.430069 
L 263.330352 183.430069 
" style="fill: none; stroke: #000000; stroke-width: 0.8; stroke-linejoin: miter; stroke-linecap: square"/>
   </g>
   <g id="patch_6">
    <path d="M 43.645313 8.815896 
L 263.330352 8.815896 
" style="fill: none; stroke: #000000; stroke-width: 0.8; stroke-linejoin: miter; stroke-linecap: square"/>
   </g>
   <g id="legend_1">
    <g id="patch_7">
     <path d="M 158.199102 73.631521 
L 256.330352 73.631521 
Q 258.330352 73.631521 258.330352 71.631521 
L 258.330352 15.815896 
Q 258.330352 13.815896 256.330352 13.815896 
L 158.199102 13.815896 
Q 156.199102 13.815896 156.199102 15.815896 
L 156.199102 71.631521 
Q 156.199102 73.631521 158.199102 73.631521 
z
" style="fill: #ffffff; opacity: 0.8; stroke: #000000; stroke-linejoin: miter"/>
    </g>
    <g id="line2d_75">
     <path d="M 160.199102 21.473709 
L 170.199102 21.473709 
L 180.199102 21.473709 
" style="fill: none; stroke: #0000ff; stroke-width: 1.5; stroke-linecap: square"/>
    </g>
    <g id="text_15">
     <!-- BiRNN training -->
     <g transform="translate(188.199102 24.973709) scale(0.1 -0.1)">
      <defs>
       <path id="ArialMT-42" d="M 469 0 
L 469 4581 
L 2188 4581 
Q 2713 4581 3030 4442 
Q 3347 4303 3526 4014 
Q 3706 3725 3706 3409 
Q 3706 3116 3547 2856 
Q 3388 2597 3066 2438 
Q 3481 2316 3704 2022 
Q 3928 1728 3928 1328 
Q 3928 1006 3792 729 
Q 3656 453 3456 303 
Q 3256 153 2954 76 
Q 2653 0 2216 0 
L 469 0 
z
M 1075 2656 
L 2066 2656 
Q 2469 2656 2644 2709 
Q 2875 2778 2992 2937 
Q 3109 3097 3109 3338 
Q 3109 3566 3000 3739 
Q 2891 3913 2687 3977 
Q 2484 4041 1991 4041 
L 1075 4041 
L 1075 2656 
z
M 1075 541 
L 2216 541 
Q 2509 541 2628 563 
Q 2838 600 2978 687 
Q 3119 775 3209 942 
Q 3300 1109 3300 1328 
Q 3300 1584 3169 1773 
Q 3038 1963 2805 2039 
Q 2572 2116 2134 2116 
L 1075 2116 
L 1075 541 
z
" transform="scale(0.015625)"/>
       <path id="ArialMT-69" d="M 425 3934 
L 425 4581 
L 988 4581 
L 988 3934 
L 425 3934 
z
M 425 0 
L 425 3319 
L 988 3319 
L 988 0 
L 425 0 
z
" transform="scale(0.015625)"/>
       <path id="ArialMT-52" d="M 503 0 
L 503 4581 
L 2534 4581 
Q 3147 4581 3465 4457 
Q 3784 4334 3975 4021 
Q 4166 3709 4166 3331 
Q 4166 2844 3850 2509 
Q 3534 2175 2875 2084 
Q 3116 1969 3241 1856 
Q 3506 1613 3744 1247 
L 4541 0 
L 3778 0 
L 3172 953 
Q 2906 1366 2734 1584 
Q 2563 1803 2427 1890 
Q 2291 1978 2150 2013 
Q 2047 2034 1813 2034 
L 1109 2034 
L 1109 0 
L 503 0 
z
M 1109 2559 
L 2413 2559 
Q 2828 2559 3062 2645 
Q 3297 2731 3419 2920 
Q 3541 3109 3541 3331 
Q 3541 3656 3305 3865 
Q 3069 4075 2559 4075 
L 1109 4075 
L 1109 2559 
z
" transform="scale(0.015625)"/>
       <path id="ArialMT-4e" d="M 488 0 
L 488 4581 
L 1109 4581 
L 3516 984 
L 3516 4581 
L 4097 4581 
L 4097 0 
L 3475 0 
L 1069 3600 
L 1069 0 
L 488 0 
z
" transform="scale(0.015625)"/>
       <path id="ArialMT-20" transform="scale(0.015625)"/>
       <path id="ArialMT-74" d="M 1650 503 
L 1731 6 
Q 1494 -44 1306 -44 
Q 1000 -44 831 53 
Q 663 150 594 308 
Q 525 466 525 972 
L 525 2881 
L 113 2881 
L 113 3319 
L 525 3319 
L 525 4141 
L 1084 4478 
L 1084 3319 
L 1650 3319 
L 1650 2881 
L 1084 2881 
L 1084 941 
Q 1084 700 1114 631 
Q 1144 563 1211 522 
Q 1278 481 1403 481 
Q 1497 481 1650 503 
z
" transform="scale(0.015625)"/>
       <path id="ArialMT-72" d="M 416 0 
L 416 3319 
L 922 3319 
L 922 2816 
Q 1116 3169 1280 3281 
Q 1444 3394 1641 3394 
Q 1925 3394 2219 3213 
L 2025 2691 
Q 1819 2813 1613 2813 
Q 1428 2813 1281 2702 
Q 1134 2591 1072 2394 
Q 978 2094 978 1738 
L 978 0 
L 416 0 
z
" transform="scale(0.015625)"/>
       <path id="ArialMT-61" d="M 2588 409 
Q 2275 144 1986 34 
Q 1697 -75 1366 -75 
Q 819 -75 525 192 
Q 231 459 231 875 
Q 231 1119 342 1320 
Q 453 1522 633 1644 
Q 813 1766 1038 1828 
Q 1203 1872 1538 1913 
Q 2219 1994 2541 2106 
Q 2544 2222 2544 2253 
Q 2544 2597 2384 2738 
Q 2169 2928 1744 2928 
Q 1347 2928 1158 2789 
Q 969 2650 878 2297 
L 328 2372 
Q 403 2725 575 2942 
Q 747 3159 1072 3276 
Q 1397 3394 1825 3394 
Q 2250 3394 2515 3294 
Q 2781 3194 2906 3042 
Q 3031 2891 3081 2659 
Q 3109 2516 3109 2141 
L 3109 1391 
Q 3109 606 3145 398 
Q 3181 191 3288 0 
L 2700 0 
Q 2613 175 2588 409 
z
M 2541 1666 
Q 2234 1541 1622 1453 
Q 1275 1403 1131 1340 
Q 988 1278 909 1158 
Q 831 1038 831 891 
Q 831 666 1001 516 
Q 1172 366 1500 366 
Q 1825 366 2078 508 
Q 2331 650 2450 897 
Q 2541 1088 2541 1459 
L 2541 1666 
z
" transform="scale(0.015625)"/>
       <path id="ArialMT-6e" d="M 422 0 
L 422 3319 
L 928 3319 
L 928 2847 
Q 1294 3394 1984 3394 
Q 2284 3394 2536 3286 
Q 2788 3178 2913 3003 
Q 3038 2828 3088 2588 
Q 3119 2431 3119 2041 
L 3119 0 
L 2556 0 
L 2556 2019 
Q 2556 2363 2490 2533 
Q 2425 2703 2258 2804 
Q 2091 2906 1866 2906 
Q 1506 2906 1245 2678 
Q 984 2450 984 1813 
L 984 0 
L 422 0 
z
" transform="scale(0.015625)"/>
       <path id="ArialMT-67" d="M 319 -275 
L 866 -356 
Q 900 -609 1056 -725 
Q 1266 -881 1628 -881 
Q 2019 -881 2231 -725 
Q 2444 -569 2519 -288 
Q 2563 -116 2559 434 
Q 2191 0 1641 0 
Q 956 0 581 494 
Q 206 988 206 1678 
Q 206 2153 378 2554 
Q 550 2956 876 3175 
Q 1203 3394 1644 3394 
Q 2231 3394 2613 2919 
L 2613 3319 
L 3131 3319 
L 3131 450 
Q 3131 -325 2973 -648 
Q 2816 -972 2473 -1159 
Q 2131 -1347 1631 -1347 
Q 1038 -1347 672 -1080 
Q 306 -813 319 -275 
z
M 784 1719 
Q 784 1066 1043 766 
Q 1303 466 1694 466 
Q 2081 466 2343 764 
Q 2606 1063 2606 1700 
Q 2606 2309 2336 2618 
Q 2066 2928 1684 2928 
Q 1309 2928 1046 2623 
Q 784 2319 784 1719 
z
" transform="scale(0.015625)"/>
      </defs>
      <use xlink:href="#ArialMT-42"/>
      <use xlink:href="#ArialMT-69" x="66.699219"/>
      <use xlink:href="#ArialMT-52" x="88.916016"/>
      <use xlink:href="#ArialMT-4e" x="161.132812"/>
      <use xlink:href="#ArialMT-4e" x="233.349609"/>
      <use xlink:href="#ArialMT-20" x="305.566406"/>
      <use xlink:href="#ArialMT-74" x="333.349609"/>
      <use xlink:href="#ArialMT-72" x="361.132812"/>
      <use xlink:href="#ArialMT-61" x="394.433594"/>
      <use xlink:href="#ArialMT-69" x="450.048828"/>
      <use xlink:href="#ArialMT-6e" x="472.265625"/>
      <use xlink:href="#ArialMT-69" x="527.880859"/>
      <use xlink:href="#ArialMT-6e" x="550.097656"/>
      <use xlink:href="#ArialMT-67" x="605.712891"/>
     </g>
    </g>
    <g id="line2d_76">
     <path d="M 160.199102 35.736209 
L 170.199102 35.736209 
L 180.199102 35.736209 
" style="fill: none; stroke-dasharray: 5.55,2.4; stroke-dashoffset: 0; stroke: #0000ff; stroke-width: 1.5"/>
    </g>
    <g id="text_16">
     <!-- BiRNN test -->
     <g transform="translate(188.199102 39.236209) scale(0.1 -0.1)">
      <defs>
       <path id="ArialMT-65" d="M 2694 1069 
L 3275 997 
Q 3138 488 2766 206 
Q 2394 -75 1816 -75 
Q 1088 -75 661 373 
Q 234 822 234 1631 
Q 234 2469 665 2931 
Q 1097 3394 1784 3394 
Q 2450 3394 2872 2941 
Q 3294 2488 3294 1666 
Q 3294 1616 3291 1516 
L 816 1516 
Q 847 969 1125 678 
Q 1403 388 1819 388 
Q 2128 388 2347 550 
Q 2566 713 2694 1069 
z
M 847 1978 
L 2700 1978 
Q 2663 2397 2488 2606 
Q 2219 2931 1791 2931 
Q 1403 2931 1139 2672 
Q 875 2413 847 1978 
z
" transform="scale(0.015625)"/>
      </defs>
      <use xlink:href="#ArialMT-42"/>
      <use xlink:href="#ArialMT-69" x="66.699219"/>
      <use xlink:href="#ArialMT-52" x="88.916016"/>
      <use xlink:href="#ArialMT-4e" x="161.132812"/>
      <use xlink:href="#ArialMT-4e" x="233.349609"/>
      <use xlink:href="#ArialMT-20" x="305.566406"/>
      <use xlink:href="#ArialMT-74" x="333.349609"/>
      <use xlink:href="#ArialMT-65" x="361.132812"/>
      <use xlink:href="#ArialMT-73" x="416.748047"/>
      <use xlink:href="#ArialMT-74" x="466.748047"/>
     </g>
    </g>
    <g id="line2d_77">
     <path d="M 160.199102 49.881521 
L 170.199102 49.881521 
L 180.199102 49.881521 
" style="fill: none; stroke: #ff0000; stroke-width: 1.5; stroke-linecap: square"/>
    </g>
    <g id="text_17">
     <!-- RNN training -->
     <g transform="translate(188.199102 53.381521) scale(0.1 -0.1)">
      <use xlink:href="#ArialMT-52"/>
      <use xlink:href="#ArialMT-4e" x="72.216797"/>
      <use xlink:href="#ArialMT-4e" x="144.433594"/>
      <use xlink:href="#ArialMT-20" x="216.650391"/>
      <use xlink:href="#ArialMT-74" x="244.433594"/>
      <use xlink:href="#ArialMT-72" x="272.216797"/>
      <use xlink:href="#ArialMT-61" x="305.517578"/>
      <use xlink:href="#ArialMT-69" x="361.132812"/>
      <use xlink:href="#ArialMT-6e" x="383.349609"/>
      <use xlink:href="#ArialMT-69" x="438.964844"/>
      <use xlink:href="#ArialMT-6e" x="461.181641"/>
      <use xlink:href="#ArialMT-67" x="516.796875"/>
     </g>
    </g>
    <g id="line2d_78">
     <path d="M 160.199102 64.144021 
L 170.199102 64.144021 
L 180.199102 64.144021 
" style="fill: none; stroke-dasharray: 5.55,2.4; stroke-dashoffset: 0; stroke: #ff0000; stroke-width: 1.5"/>
    </g>
    <g id="text_18">
     <!-- RNN test -->
     <g transform="translate(188.199102 67.644021) scale(0.1 -0.1)">
      <use xlink:href="#ArialMT-52"/>
      <use xlink:href="#ArialMT-4e" x="72.216797"/>
      <use xlink:href="#ArialMT-4e" x="144.433594"/>
      <use xlink:href="#ArialMT-20" x="216.650391"/>
      <use xlink:href="#ArialMT-74" x="244.433594"/>
      <use xlink:href="#ArialMT-65" x="272.216797"/>
      <use xlink:href="#ArialMT-73" x="327.832031"/>
      <use xlink:href="#ArialMT-74" x="377.832031"/>
     </g>
    </g>
   </g>
  </g>
 </g>
 <defs>
  <clipPath id="pf2a986f171">
   <rect x="43.645313" y="8.815896" width="219.685039" height="174.614173"/>
  </clipPath>
 </defs>
</svg>
