<?xml version="1.0" encoding="utf-8" standalone="no"?>
<!DOCTYPE svg PUBLIC "-//W3C//DTD SVG 1.1//EN"
  "http://www.w3.org/Graphics/SVG/1.1/DTD/svg11.dtd">
<svg xmlns:xlink="http://www.w3.org/1999/xlink" width="273.310821pt" height="216.959486pt" viewBox="0 0 273.310821 216.959486" xmlns="http://www.w3.org/2000/svg" version="1.1">
 <metadata>
  <rdf:RDF xmlns:dc="http://purl.org/dc/elements/1.1/" xmlns:cc="http://creativecommons.org/ns#" xmlns:rdf="http://www.w3.org/1999/02/22-rdf-syntax-ns#">
   <cc:Work>
    <dc:type rdf:resource="http://purl.org/dc/dcmitype/StillImage"/>
    <dc:date>2024-04-03T13:07:28.045393</dc:date>
    <dc:format>image/svg+xml</dc:format>
    <dc:creator>
     <cc:Agent>
      <dc:title>Matplotlib v3.8.2, https://matplotlib.org/</dc:title>
     </cc:Agent>
    </dc:creator>
   </cc:Work>
  </rdf:RDF>
 </metadata>
 <defs>
  <style type="text/css">*{stroke-linejoin: round; stroke-linecap: butt}</style>
 </defs>
 <g id="figure_1">
  <g id="patch_1">
   <path d="M 0 216.959486 
L 273.310821 216.959486 
L 273.310821 0 
L 0 0 
z
" style="fill: #ffffff"/>
  </g>
  <g id="axes_1">
   <g id="patch_2">
    <path d="M 43.645313 181.814173 
L 263.330352 181.814173 
L 263.330352 7.2 
L 43.645313 7.2 
z
" style="fill: #ffffff"/>
   </g>
   <g id="matplotlib.axis_1">
    <g id="xtick_1">
     <g id="line2d_1">
      <path d="M 45.820412 181.814173 
L 45.820412 7.2 
" clip-path="url(#p2decaa8ba5)" style="fill: none; stroke: #b0b0b0; stroke-width: 0.8; stroke-linecap: square"/>
     </g>
     <g id="line2d_2">
      <defs>
       <path id="m6c6b75b3bf" d="M 0 0 
L 0 -3.5 
" style="stroke: #000000; stroke-width: 0.8"/>
      </defs>
      <g>
       <use xlink:href="#m6c6b75b3bf" x="45.820412" y="181.814173" style="stroke: #000000; stroke-width: 0.8"/>
      </g>
     </g>
     <g id="text_1">
      <!-- 0 -->
      <g transform="translate(43.039943 192.471986) scale(0.1 -0.1)">
       <defs>
        <path id="ArialMT-30" d="M 266 2259 
Q 266 3072 433 3567 
Q 600 4063 929 4331 
Q 1259 4600 1759 4600 
Q 2128 4600 2406 4451 
Q 2684 4303 2865 4023 
Q 3047 3744 3150 3342 
Q 3253 2941 3253 2259 
Q 3253 1453 3087 958 
Q 2922 463 2592 192 
Q 2263 -78 1759 -78 
Q 1097 -78 719 397 
Q 266 969 266 2259 
z
M 844 2259 
Q 844 1131 1108 757 
Q 1372 384 1759 384 
Q 2147 384 2411 759 
Q 2675 1134 2675 2259 
Q 2675 3391 2411 3762 
Q 2147 4134 1753 4134 
Q 1366 4134 1134 3806 
Q 844 3388 844 2259 
z
" transform="scale(0.015625)"/>
       </defs>
       <use xlink:href="#ArialMT-30"/>
      </g>
     </g>
    </g>
    <g id="xtick_2">
     <g id="line2d_3">
      <path d="M 82.072069 181.814173 
L 82.072069 7.2 
" clip-path="url(#p2decaa8ba5)" style="fill: none; stroke: #b0b0b0; stroke-width: 0.8; stroke-linecap: square"/>
     </g>
     <g id="line2d_4">
      <g>
       <use xlink:href="#m6c6b75b3bf" x="82.072069" y="181.814173" style="stroke: #000000; stroke-width: 0.8"/>
      </g>
     </g>
     <g id="text_2">
      <!-- 1 -->
      <g transform="translate(79.2916 192.471986) scale(0.1 -0.1)">
       <defs>
        <path id="ArialMT-31" d="M 2384 0 
L 1822 0 
L 1822 3584 
Q 1619 3391 1289 3197 
Q 959 3003 697 2906 
L 697 3450 
Q 1169 3672 1522 3987 
Q 1875 4303 2022 4600 
L 2384 4600 
L 2384 0 
z
" transform="scale(0.015625)"/>
       </defs>
       <use xlink:href="#ArialMT-31"/>
      </g>
     </g>
    </g>
    <g id="xtick_3">
     <g id="line2d_5">
      <path d="M 118.323725 181.814173 
L 118.323725 7.2 
" clip-path="url(#p2decaa8ba5)" style="fill: none; stroke: #b0b0b0; stroke-width: 0.8; stroke-linecap: square"/>
     </g>
     <g id="line2d_6">
      <g>
       <use xlink:href="#m6c6b75b3bf" x="118.323725" y="181.814173" style="stroke: #000000; stroke-width: 0.8"/>
      </g>
     </g>
     <g id="text_3">
      <!-- 2 -->
      <g transform="translate(115.543256 192.471986) scale(0.1 -0.1)">
       <defs>
        <path id="ArialMT-32" d="M 3222 541 
L 3222 0 
L 194 0 
Q 188 203 259 391 
Q 375 700 629 1000 
Q 884 1300 1366 1694 
Q 2113 2306 2375 2664 
Q 2638 3022 2638 3341 
Q 2638 3675 2398 3904 
Q 2159 4134 1775 4134 
Q 1369 4134 1125 3890 
Q 881 3647 878 3216 
L 300 3275 
Q 359 3922 746 4261 
Q 1134 4600 1788 4600 
Q 2447 4600 2831 4234 
Q 3216 3869 3216 3328 
Q 3216 3053 3103 2787 
Q 2991 2522 2730 2228 
Q 2469 1934 1863 1422 
Q 1356 997 1212 845 
Q 1069 694 975 541 
L 3222 541 
z
" transform="scale(0.015625)"/>
       </defs>
       <use xlink:href="#ArialMT-32"/>
      </g>
     </g>
    </g>
    <g id="xtick_4">
     <g id="line2d_7">
      <path d="M 154.575382 181.814173 
L 154.575382 7.2 
" clip-path="url(#p2decaa8ba5)" style="fill: none; stroke: #b0b0b0; stroke-width: 0.8; stroke-linecap: square"/>
     </g>
     <g id="line2d_8">
      <g>
       <use xlink:href="#m6c6b75b3bf" x="154.575382" y="181.814173" style="stroke: #000000; stroke-width: 0.8"/>
      </g>
     </g>
     <g id="text_4">
      <!-- 3 -->
      <g transform="translate(151.794913 192.471986) scale(0.1 -0.1)">
       <defs>
        <path id="ArialMT-33" d="M 269 1209 
L 831 1284 
Q 928 806 1161 595 
Q 1394 384 1728 384 
Q 2125 384 2398 659 
Q 2672 934 2672 1341 
Q 2672 1728 2419 1979 
Q 2166 2231 1775 2231 
Q 1616 2231 1378 2169 
L 1441 2663 
Q 1497 2656 1531 2656 
Q 1891 2656 2178 2843 
Q 2466 3031 2466 3422 
Q 2466 3731 2256 3934 
Q 2047 4138 1716 4138 
Q 1388 4138 1169 3931 
Q 950 3725 888 3313 
L 325 3413 
Q 428 3978 793 4289 
Q 1159 4600 1703 4600 
Q 2078 4600 2393 4439 
Q 2709 4278 2876 4000 
Q 3044 3722 3044 3409 
Q 3044 3113 2884 2869 
Q 2725 2625 2413 2481 
Q 2819 2388 3044 2092 
Q 3269 1797 3269 1353 
Q 3269 753 2831 336 
Q 2394 -81 1725 -81 
Q 1122 -81 723 278 
Q 325 638 269 1209 
z
" transform="scale(0.015625)"/>
       </defs>
       <use xlink:href="#ArialMT-33"/>
      </g>
     </g>
    </g>
    <g id="xtick_5">
     <g id="line2d_9">
      <path d="M 190.827039 181.814173 
L 190.827039 7.2 
" clip-path="url(#p2decaa8ba5)" style="fill: none; stroke: #b0b0b0; stroke-width: 0.8; stroke-linecap: square"/>
     </g>
     <g id="line2d_10">
      <g>
       <use xlink:href="#m6c6b75b3bf" x="190.827039" y="181.814173" style="stroke: #000000; stroke-width: 0.8"/>
      </g>
     </g>
     <g id="text_5">
      <!-- 4 -->
      <g transform="translate(188.04657 192.471986) scale(0.1 -0.1)">
       <defs>
        <path id="ArialMT-34" d="M 2069 0 
L 2069 1097 
L 81 1097 
L 81 1613 
L 2172 4581 
L 2631 4581 
L 2631 1613 
L 3250 1613 
L 3250 1097 
L 2631 1097 
L 2631 0 
L 2069 0 
z
M 2069 1613 
L 2069 3678 
L 634 1613 
L 2069 1613 
z
" transform="scale(0.015625)"/>
       </defs>
       <use xlink:href="#ArialMT-34"/>
      </g>
     </g>
    </g>
    <g id="xtick_6">
     <g id="line2d_11">
      <path d="M 227.078695 181.814173 
L 227.078695 7.2 
" clip-path="url(#p2decaa8ba5)" style="fill: none; stroke: #b0b0b0; stroke-width: 0.8; stroke-linecap: square"/>
     </g>
     <g id="line2d_12">
      <g>
       <use xlink:href="#m6c6b75b3bf" x="227.078695" y="181.814173" style="stroke: #000000; stroke-width: 0.8"/>
      </g>
     </g>
     <g id="text_6">
      <!-- 5 -->
      <g transform="translate(224.298226 192.471986) scale(0.1 -0.1)">
       <defs>
        <path id="ArialMT-35" d="M 266 1200 
L 856 1250 
Q 922 819 1161 601 
Q 1400 384 1738 384 
Q 2144 384 2425 690 
Q 2706 997 2706 1503 
Q 2706 1984 2436 2262 
Q 2166 2541 1728 2541 
Q 1456 2541 1237 2417 
Q 1019 2294 894 2097 
L 366 2166 
L 809 4519 
L 3088 4519 
L 3088 3981 
L 1259 3981 
L 1013 2750 
Q 1425 3038 1878 3038 
Q 2478 3038 2890 2622 
Q 3303 2206 3303 1553 
Q 3303 931 2941 478 
Q 2500 -78 1738 -78 
Q 1113 -78 717 272 
Q 322 622 266 1200 
z
" transform="scale(0.015625)"/>
       </defs>
       <use xlink:href="#ArialMT-35"/>
      </g>
     </g>
    </g>
    <g id="xtick_7">
     <g id="line2d_13">
      <path d="M 263.330352 181.814173 
L 263.330352 7.2 
" clip-path="url(#p2decaa8ba5)" style="fill: none; stroke: #b0b0b0; stroke-width: 0.8; stroke-linecap: square"/>
     </g>
     <g id="line2d_14">
      <g>
       <use xlink:href="#m6c6b75b3bf" x="263.330352" y="181.814173" style="stroke: #000000; stroke-width: 0.8"/>
      </g>
     </g>
     <g id="text_7">
      <!-- 6 -->
      <g transform="translate(260.549883 192.471986) scale(0.1 -0.1)">
       <defs>
        <path id="ArialMT-36" d="M 3184 3459 
L 2625 3416 
Q 2550 3747 2413 3897 
Q 2184 4138 1850 4138 
Q 1581 4138 1378 3988 
Q 1113 3794 959 3422 
Q 806 3050 800 2363 
Q 1003 2672 1297 2822 
Q 1591 2972 1913 2972 
Q 2475 2972 2870 2558 
Q 3266 2144 3266 1488 
Q 3266 1056 3080 686 
Q 2894 316 2569 119 
Q 2244 -78 1831 -78 
Q 1128 -78 684 439 
Q 241 956 241 2144 
Q 241 3472 731 4075 
Q 1159 4600 1884 4600 
Q 2425 4600 2770 4297 
Q 3116 3994 3184 3459 
z
M 888 1484 
Q 888 1194 1011 928 
Q 1134 663 1356 523 
Q 1578 384 1822 384 
Q 2178 384 2434 671 
Q 2691 959 2691 1453 
Q 2691 1928 2437 2201 
Q 2184 2475 1800 2475 
Q 1419 2475 1153 2201 
Q 888 1928 888 1484 
z
" transform="scale(0.015625)"/>
       </defs>
       <use xlink:href="#ArialMT-36"/>
      </g>
     </g>
    </g>
    <g id="text_8">
     <!-- Epoch ($\times 10^3$) -->
     <g transform="translate(121.587832 207.559486) scale(0.1 -0.1)">
      <defs>
       <path id="ArialMT-45" d="M 506 0 
L 506 4581 
L 3819 4581 
L 3819 4041 
L 1113 4041 
L 1113 2638 
L 3647 2638 
L 3647 2100 
L 1113 2100 
L 1113 541 
L 3925 541 
L 3925 0 
L 506 0 
z
" transform="scale(0.015625)"/>
       <path id="ArialMT-70" d="M 422 -1272 
L 422 3319 
L 934 3319 
L 934 2888 
Q 1116 3141 1344 3267 
Q 1572 3394 1897 3394 
Q 2322 3394 2647 3175 
Q 2972 2956 3137 2557 
Q 3303 2159 3303 1684 
Q 3303 1175 3120 767 
Q 2938 359 2589 142 
Q 2241 -75 1856 -75 
Q 1575 -75 1351 44 
Q 1128 163 984 344 
L 984 -1272 
L 422 -1272 
z
M 931 1641 
Q 931 1000 1190 694 
Q 1450 388 1819 388 
Q 2194 388 2461 705 
Q 2728 1022 2728 1688 
Q 2728 2322 2467 2637 
Q 2206 2953 1844 2953 
Q 1484 2953 1207 2617 
Q 931 2281 931 1641 
z
" transform="scale(0.015625)"/>
       <path id="ArialMT-6f" d="M 213 1659 
Q 213 2581 725 3025 
Q 1153 3394 1769 3394 
Q 2453 3394 2887 2945 
Q 3322 2497 3322 1706 
Q 3322 1066 3130 698 
Q 2938 331 2570 128 
Q 2203 -75 1769 -75 
Q 1072 -75 642 372 
Q 213 819 213 1659 
z
M 791 1659 
Q 791 1022 1069 705 
Q 1347 388 1769 388 
Q 2188 388 2466 706 
Q 2744 1025 2744 1678 
Q 2744 2294 2464 2611 
Q 2184 2928 1769 2928 
Q 1347 2928 1069 2612 
Q 791 2297 791 1659 
z
" transform="scale(0.015625)"/>
       <path id="ArialMT-63" d="M 2588 1216 
L 3141 1144 
Q 3050 572 2676 248 
Q 2303 -75 1759 -75 
Q 1078 -75 664 370 
Q 250 816 250 1647 
Q 250 2184 428 2587 
Q 606 2991 970 3192 
Q 1334 3394 1763 3394 
Q 2303 3394 2647 3120 
Q 2991 2847 3088 2344 
L 2541 2259 
Q 2463 2594 2264 2762 
Q 2066 2931 1784 2931 
Q 1359 2931 1093 2626 
Q 828 2322 828 1663 
Q 828 994 1084 691 
Q 1341 388 1753 388 
Q 2084 388 2306 591 
Q 2528 794 2588 1216 
z
" transform="scale(0.015625)"/>
       <path id="ArialMT-68" d="M 422 0 
L 422 4581 
L 984 4581 
L 984 2938 
Q 1378 3394 1978 3394 
Q 2347 3394 2619 3248 
Q 2891 3103 3008 2847 
Q 3125 2591 3125 2103 
L 3125 0 
L 2563 0 
L 2563 2103 
Q 2563 2525 2380 2717 
Q 2197 2909 1863 2909 
Q 1613 2909 1392 2779 
Q 1172 2650 1078 2428 
Q 984 2206 984 1816 
L 984 0 
L 422 0 
z
" transform="scale(0.015625)"/>
       <path id="ArialMT-20" transform="scale(0.015625)"/>
       <path id="ArialMT-28" d="M 1497 -1347 
Q 1031 -759 709 28 
Q 388 816 388 1659 
Q 388 2403 628 3084 
Q 909 3875 1497 4659 
L 1900 4659 
Q 1522 4009 1400 3731 
Q 1209 3300 1100 2831 
Q 966 2247 966 1656 
Q 966 153 1900 -1347 
L 1497 -1347 
z
" transform="scale(0.015625)"/>
       <path id="DejaVuSans-d7" d="M 4488 3438 
L 3059 2003 
L 4488 575 
L 4116 197 
L 2681 1631 
L 1247 197 
L 878 575 
L 2303 2003 
L 878 3438 
L 1247 3816 
L 2681 2381 
L 4116 3816 
L 4488 3438 
z
" transform="scale(0.015625)"/>
       <path id="DejaVuSans-31" d="M 794 531 
L 1825 531 
L 1825 4091 
L 703 3866 
L 703 4441 
L 1819 4666 
L 2450 4666 
L 2450 531 
L 3481 531 
L 3481 0 
L 794 0 
L 794 531 
z
" transform="scale(0.015625)"/>
       <path id="DejaVuSans-30" d="M 2034 4250 
Q 1547 4250 1301 3770 
Q 1056 3291 1056 2328 
Q 1056 1369 1301 889 
Q 1547 409 2034 409 
Q 2525 409 2770 889 
Q 3016 1369 3016 2328 
Q 3016 3291 2770 3770 
Q 2525 4250 2034 4250 
z
M 2034 4750 
Q 2819 4750 3233 4129 
Q 3647 3509 3647 2328 
Q 3647 1150 3233 529 
Q 2819 -91 2034 -91 
Q 1250 -91 836 529 
Q 422 1150 422 2328 
Q 422 3509 836 4129 
Q 1250 4750 2034 4750 
z
" transform="scale(0.015625)"/>
       <path id="DejaVuSans-33" d="M 2597 2516 
Q 3050 2419 3304 2112 
Q 3559 1806 3559 1356 
Q 3559 666 3084 287 
Q 2609 -91 1734 -91 
Q 1441 -91 1130 -33 
Q 819 25 488 141 
L 488 750 
Q 750 597 1062 519 
Q 1375 441 1716 441 
Q 2309 441 2620 675 
Q 2931 909 2931 1356 
Q 2931 1769 2642 2001 
Q 2353 2234 1838 2234 
L 1294 2234 
L 1294 2753 
L 1863 2753 
Q 2328 2753 2575 2939 
Q 2822 3125 2822 3475 
Q 2822 3834 2567 4026 
Q 2313 4219 1838 4219 
Q 1578 4219 1281 4162 
Q 984 4106 628 3988 
L 628 4550 
Q 988 4650 1302 4700 
Q 1616 4750 1894 4750 
Q 2613 4750 3031 4423 
Q 3450 4097 3450 3541 
Q 3450 3153 3228 2886 
Q 3006 2619 2597 2516 
z
" transform="scale(0.015625)"/>
       <path id="ArialMT-29" d="M 791 -1347 
L 388 -1347 
Q 1322 153 1322 1656 
Q 1322 2244 1188 2822 
Q 1081 3291 891 3722 
Q 769 4003 388 4659 
L 791 4659 
Q 1378 3875 1659 3084 
Q 1900 2403 1900 1659 
Q 1900 816 1576 28 
Q 1253 -759 791 -1347 
z
" transform="scale(0.015625)"/>
      </defs>
      <use xlink:href="#ArialMT-45" transform="translate(0 0.765625)"/>
      <use xlink:href="#ArialMT-70" transform="translate(66.699219 0.765625)"/>
      <use xlink:href="#ArialMT-6f" transform="translate(122.314453 0.765625)"/>
      <use xlink:href="#ArialMT-63" transform="translate(177.929688 0.765625)"/>
      <use xlink:href="#ArialMT-68" transform="translate(227.929688 0.765625)"/>
      <use xlink:href="#ArialMT-20" transform="translate(283.544922 0.765625)"/>
      <use xlink:href="#ArialMT-28" transform="translate(311.328125 0.765625)"/>
      <use xlink:href="#DejaVuSans-d7" transform="translate(344.628906 0.765625)"/>
      <use xlink:href="#DejaVuSans-31" transform="translate(428.417969 0.765625)"/>
      <use xlink:href="#DejaVuSans-30" transform="translate(492.041016 0.765625)"/>
      <use xlink:href="#DejaVuSans-33" transform="translate(556.621094 39.046875) scale(0.7)"/>
      <use xlink:href="#ArialMT-29" transform="translate(603.891602 0.765625)"/>
     </g>
    </g>
   </g>
   <g id="matplotlib.axis_2">
    <g id="ytick_1">
     <g id="line2d_15">
      <path d="M 43.645313 145.804054 
L 263.330352 145.804054 
" clip-path="url(#p2decaa8ba5)" style="fill: none; stroke: #b0b0b0; stroke-width: 0.8; stroke-linecap: square"/>
     </g>
     <g id="line2d_16">
      <defs>
       <path id="md8b59b225b" d="M 0 0 
L 3.5 0 
" style="stroke: #000000; stroke-width: 0.8"/>
      </defs>
      <g>
       <use xlink:href="#md8b59b225b" x="43.645313" y="145.804054" style="stroke: #000000; stroke-width: 0.8"/>
      </g>
     </g>
     <g id="text_9">
      <!-- $\mathdefault{10^{-7}}$ -->
      <g transform="translate(20.345313 150.910304) scale(0.1 -0.1)">
       <defs>
        <path id="ArialMT-2212" d="M 3381 1997 
L 356 1997 
L 356 2522 
L 3381 2522 
L 3381 1997 
z
" transform="scale(0.015625)"/>
        <path id="ArialMT-37" d="M 303 3981 
L 303 4522 
L 3269 4522 
L 3269 4084 
Q 2831 3619 2401 2847 
Q 1972 2075 1738 1259 
Q 1569 684 1522 0 
L 944 0 
Q 953 541 1156 1306 
Q 1359 2072 1739 2783 
Q 2119 3494 2547 3981 
L 303 3981 
z
" transform="scale(0.015625)"/>
       </defs>
       <use xlink:href="#ArialMT-31" transform="translate(0 0.846875)"/>
       <use xlink:href="#ArialMT-30" transform="translate(55.615234 0.846875)"/>
       <use xlink:href="#ArialMT-2212" transform="translate(112.972813 70.540625) scale(0.7)"/>
       <use xlink:href="#ArialMT-37" transform="translate(153.851719 70.540625) scale(0.7)"/>
      </g>
     </g>
    </g>
    <g id="ytick_2">
     <g id="line2d_17">
      <path d="M 43.645313 105.834749 
L 263.330352 105.834749 
" clip-path="url(#p2decaa8ba5)" style="fill: none; stroke: #b0b0b0; stroke-width: 0.8; stroke-linecap: square"/>
     </g>
     <g id="line2d_18">
      <g>
       <use xlink:href="#md8b59b225b" x="43.645313" y="105.834749" style="stroke: #000000; stroke-width: 0.8"/>
      </g>
     </g>
     <g id="text_10">
      <!-- $\mathdefault{10^{-6}}$ -->
      <g transform="translate(20.345313 110.990999) scale(0.1 -0.1)">
       <use xlink:href="#ArialMT-31" transform="translate(0 0.99375)"/>
       <use xlink:href="#ArialMT-30" transform="translate(55.615234 0.99375)"/>
       <use xlink:href="#ArialMT-2212" transform="translate(112.972813 70.6875) scale(0.7)"/>
       <use xlink:href="#ArialMT-36" transform="translate(153.851719 70.6875) scale(0.7)"/>
      </g>
     </g>
    </g>
    <g id="ytick_3">
     <g id="line2d_19">
      <path d="M 43.645313 65.865444 
L 263.330352 65.865444 
" clip-path="url(#p2decaa8ba5)" style="fill: none; stroke: #b0b0b0; stroke-width: 0.8; stroke-linecap: square"/>
     </g>
     <g id="line2d_20">
      <g>
       <use xlink:href="#md8b59b225b" x="43.645313" y="65.865444" style="stroke: #000000; stroke-width: 0.8"/>
      </g>
     </g>
     <g id="text_11">
      <!-- $\mathdefault{10^{-5}}$ -->
      <g transform="translate(20.345313 70.971694) scale(0.1 -0.1)">
       <use xlink:href="#ArialMT-31" transform="translate(0 0.879688)"/>
       <use xlink:href="#ArialMT-30" transform="translate(55.615234 0.879688)"/>
       <use xlink:href="#ArialMT-2212" transform="translate(112.972813 70.573438) scale(0.7)"/>
       <use xlink:href="#ArialMT-35" transform="translate(153.851719 70.573438) scale(0.7)"/>
      </g>
     </g>
    </g>
    <g id="ytick_4">
     <g id="line2d_21">
      <path d="M 43.645313 25.896139 
L 263.330352 25.896139 
" clip-path="url(#p2decaa8ba5)" style="fill: none; stroke: #b0b0b0; stroke-width: 0.8; stroke-linecap: square"/>
     </g>
     <g id="line2d_22">
      <g>
       <use xlink:href="#md8b59b225b" x="43.645313" y="25.896139" style="stroke: #000000; stroke-width: 0.8"/>
      </g>
     </g>
     <g id="text_12">
      <!-- $\mathdefault{10^{-4}}$ -->
      <g transform="translate(20.345313 31.002389) scale(0.1 -0.1)">
       <use xlink:href="#ArialMT-31" transform="translate(0 0.201563)"/>
       <use xlink:href="#ArialMT-30" transform="translate(55.615234 0.201563)"/>
       <use xlink:href="#ArialMT-2212" transform="translate(112.972813 69.895313) scale(0.7)"/>
       <use xlink:href="#ArialMT-34" transform="translate(153.851719 69.895313) scale(0.7)"/>
      </g>
     </g>
    </g>
    <g id="ytick_5">
     <g id="line2d_23">
      <defs>
       <path id="m1af67fbfdc" d="M 0 0 
L 2 0 
" style="stroke: #000000; stroke-width: 0.6"/>
      </defs>
      <g>
       <use xlink:href="#m1af67fbfdc" x="43.645313" y="173.741399" style="stroke: #000000; stroke-width: 0.6"/>
      </g>
     </g>
    </g>
    <g id="ytick_6">
     <g id="line2d_24">
      <g>
       <use xlink:href="#m1af67fbfdc" x="43.645313" y="166.703154" style="stroke: #000000; stroke-width: 0.6"/>
      </g>
     </g>
    </g>
    <g id="ytick_7">
     <g id="line2d_25">
      <g>
       <use xlink:href="#m1af67fbfdc" x="43.645313" y="161.709439" style="stroke: #000000; stroke-width: 0.6"/>
      </g>
     </g>
    </g>
    <g id="ytick_8">
     <g id="line2d_26">
      <g>
       <use xlink:href="#m1af67fbfdc" x="43.645313" y="157.836013" style="stroke: #000000; stroke-width: 0.6"/>
      </g>
     </g>
    </g>
    <g id="ytick_9">
     <g id="line2d_27">
      <g>
       <use xlink:href="#m1af67fbfdc" x="43.645313" y="154.671194" style="stroke: #000000; stroke-width: 0.6"/>
      </g>
     </g>
    </g>
    <g id="ytick_10">
     <g id="line2d_28">
      <g>
       <use xlink:href="#m1af67fbfdc" x="43.645313" y="151.995377" style="stroke: #000000; stroke-width: 0.6"/>
      </g>
     </g>
    </g>
    <g id="ytick_11">
     <g id="line2d_29">
      <g>
       <use xlink:href="#m1af67fbfdc" x="43.645313" y="149.67748" style="stroke: #000000; stroke-width: 0.6"/>
      </g>
     </g>
    </g>
    <g id="ytick_12">
     <g id="line2d_30">
      <g>
       <use xlink:href="#m1af67fbfdc" x="43.645313" y="147.632949" style="stroke: #000000; stroke-width: 0.6"/>
      </g>
     </g>
    </g>
    <g id="ytick_13">
     <g id="line2d_31">
      <g>
       <use xlink:href="#m1af67fbfdc" x="43.645313" y="133.772094" style="stroke: #000000; stroke-width: 0.6"/>
      </g>
     </g>
    </g>
    <g id="ytick_14">
     <g id="line2d_32">
      <g>
       <use xlink:href="#m1af67fbfdc" x="43.645313" y="126.733849" style="stroke: #000000; stroke-width: 0.6"/>
      </g>
     </g>
    </g>
    <g id="ytick_15">
     <g id="line2d_33">
      <g>
       <use xlink:href="#m1af67fbfdc" x="43.645313" y="121.740134" style="stroke: #000000; stroke-width: 0.6"/>
      </g>
     </g>
    </g>
    <g id="ytick_16">
     <g id="line2d_34">
      <g>
       <use xlink:href="#m1af67fbfdc" x="43.645313" y="117.866708" style="stroke: #000000; stroke-width: 0.6"/>
      </g>
     </g>
    </g>
    <g id="ytick_17">
     <g id="line2d_35">
      <g>
       <use xlink:href="#m1af67fbfdc" x="43.645313" y="114.701889" style="stroke: #000000; stroke-width: 0.6"/>
      </g>
     </g>
    </g>
    <g id="ytick_18">
     <g id="line2d_36">
      <g>
       <use xlink:href="#m1af67fbfdc" x="43.645313" y="112.026072" style="stroke: #000000; stroke-width: 0.6"/>
      </g>
     </g>
    </g>
    <g id="ytick_19">
     <g id="line2d_37">
      <g>
       <use xlink:href="#m1af67fbfdc" x="43.645313" y="109.708175" style="stroke: #000000; stroke-width: 0.6"/>
      </g>
     </g>
    </g>
    <g id="ytick_20">
     <g id="line2d_38">
      <g>
       <use xlink:href="#m1af67fbfdc" x="43.645313" y="107.663644" style="stroke: #000000; stroke-width: 0.6"/>
      </g>
     </g>
    </g>
    <g id="ytick_21">
     <g id="line2d_39">
      <g>
       <use xlink:href="#m1af67fbfdc" x="43.645313" y="93.802789" style="stroke: #000000; stroke-width: 0.6"/>
      </g>
     </g>
    </g>
    <g id="ytick_22">
     <g id="line2d_40">
      <g>
       <use xlink:href="#m1af67fbfdc" x="43.645313" y="86.764544" style="stroke: #000000; stroke-width: 0.6"/>
      </g>
     </g>
    </g>
    <g id="ytick_23">
     <g id="line2d_41">
      <g>
       <use xlink:href="#m1af67fbfdc" x="43.645313" y="81.770829" style="stroke: #000000; stroke-width: 0.6"/>
      </g>
     </g>
    </g>
    <g id="ytick_24">
     <g id="line2d_42">
      <g>
       <use xlink:href="#m1af67fbfdc" x="43.645313" y="77.897404" style="stroke: #000000; stroke-width: 0.6"/>
      </g>
     </g>
    </g>
    <g id="ytick_25">
     <g id="line2d_43">
      <g>
       <use xlink:href="#m1af67fbfdc" x="43.645313" y="74.732584" style="stroke: #000000; stroke-width: 0.6"/>
      </g>
     </g>
    </g>
    <g id="ytick_26">
     <g id="line2d_44">
      <g>
       <use xlink:href="#m1af67fbfdc" x="43.645313" y="72.056768" style="stroke: #000000; stroke-width: 0.6"/>
      </g>
     </g>
    </g>
    <g id="ytick_27">
     <g id="line2d_45">
      <g>
       <use xlink:href="#m1af67fbfdc" x="43.645313" y="69.73887" style="stroke: #000000; stroke-width: 0.6"/>
      </g>
     </g>
    </g>
    <g id="ytick_28">
     <g id="line2d_46">
      <g>
       <use xlink:href="#m1af67fbfdc" x="43.645313" y="67.694339" style="stroke: #000000; stroke-width: 0.6"/>
      </g>
     </g>
    </g>
    <g id="ytick_29">
     <g id="line2d_47">
      <g>
       <use xlink:href="#m1af67fbfdc" x="43.645313" y="53.833484" style="stroke: #000000; stroke-width: 0.6"/>
      </g>
     </g>
    </g>
    <g id="ytick_30">
     <g id="line2d_48">
      <g>
       <use xlink:href="#m1af67fbfdc" x="43.645313" y="46.795239" style="stroke: #000000; stroke-width: 0.6"/>
      </g>
     </g>
    </g>
    <g id="ytick_31">
     <g id="line2d_49">
      <g>
       <use xlink:href="#m1af67fbfdc" x="43.645313" y="41.801525" style="stroke: #000000; stroke-width: 0.6"/>
      </g>
     </g>
    </g>
    <g id="ytick_32">
     <g id="line2d_50">
      <g>
       <use xlink:href="#m1af67fbfdc" x="43.645313" y="37.928099" style="stroke: #000000; stroke-width: 0.6"/>
      </g>
     </g>
    </g>
    <g id="ytick_33">
     <g id="line2d_51">
      <g>
       <use xlink:href="#m1af67fbfdc" x="43.645313" y="34.763279" style="stroke: #000000; stroke-width: 0.6"/>
      </g>
     </g>
    </g>
    <g id="ytick_34">
     <g id="line2d_52">
      <g>
       <use xlink:href="#m1af67fbfdc" x="43.645313" y="32.087463" style="stroke: #000000; stroke-width: 0.6"/>
      </g>
     </g>
    </g>
    <g id="ytick_35">
     <g id="line2d_53">
      <g>
       <use xlink:href="#m1af67fbfdc" x="43.645313" y="29.769565" style="stroke: #000000; stroke-width: 0.6"/>
      </g>
     </g>
    </g>
    <g id="ytick_36">
     <g id="line2d_54">
      <g>
       <use xlink:href="#m1af67fbfdc" x="43.645313" y="27.725034" style="stroke: #000000; stroke-width: 0.6"/>
      </g>
     </g>
    </g>
    <g id="ytick_37">
     <g id="line2d_55">
      <g>
       <use xlink:href="#m1af67fbfdc" x="43.645313" y="13.864179" style="stroke: #000000; stroke-width: 0.6"/>
      </g>
     </g>
    </g>
    <g id="text_13">
     <!-- Loss -->
     <g transform="translate(14.357813 105.068024) rotate(-90) scale(0.1 -0.1)">
      <defs>
       <path id="ArialMT-4c" d="M 469 0 
L 469 4581 
L 1075 4581 
L 1075 541 
L 3331 541 
L 3331 0 
L 469 0 
z
" transform="scale(0.015625)"/>
       <path id="ArialMT-73" d="M 197 991 
L 753 1078 
Q 800 744 1014 566 
Q 1228 388 1613 388 
Q 2000 388 2187 545 
Q 2375 703 2375 916 
Q 2375 1106 2209 1216 
Q 2094 1291 1634 1406 
Q 1016 1563 777 1677 
Q 538 1791 414 1992 
Q 291 2194 291 2438 
Q 291 2659 392 2848 
Q 494 3038 669 3163 
Q 800 3259 1026 3326 
Q 1253 3394 1513 3394 
Q 1903 3394 2198 3281 
Q 2494 3169 2634 2976 
Q 2775 2784 2828 2463 
L 2278 2388 
Q 2241 2644 2061 2787 
Q 1881 2931 1553 2931 
Q 1166 2931 1000 2803 
Q 834 2675 834 2503 
Q 834 2394 903 2306 
Q 972 2216 1119 2156 
Q 1203 2125 1616 2013 
Q 2213 1853 2448 1751 
Q 2684 1650 2818 1456 
Q 2953 1263 2953 975 
Q 2953 694 2789 445 
Q 2625 197 2315 61 
Q 2006 -75 1616 -75 
Q 969 -75 630 194 
Q 291 463 197 991 
z
" transform="scale(0.015625)"/>
      </defs>
      <use xlink:href="#ArialMT-4c"/>
      <use xlink:href="#ArialMT-6f" x="55.615234"/>
      <use xlink:href="#ArialMT-73" x="111.230469"/>
      <use xlink:href="#ArialMT-73" x="161.230469"/>
     </g>
    </g>
   </g>
   <g id="line2d_56">
    <path d="M 45.820412 75.877548 
L 46.00167 105.08413 
L 46.255432 114.147865 
L 46.581697 117.145269 
L 47.705498 122.430477 
L 48.466783 124.490682 
L 49.445578 126.437289 
L 50.714386 128.414736 
L 51.801935 129.767296 
L 53.179498 131.129621 
L 54.702068 132.313465 
L 56.587154 133.480627 
L 59.487286 134.920008 
L 62.423671 136.152038 
L 68.658956 138.400695 
L 82.76085 142.787171 
L 97.732784 147.305696 
L 101.249195 148.371279 
L 108.717036 150.594106 
L 123.181447 154.381119 
L 130.105514 155.733556 
L 130.25052 155.744611 
L 130.431779 155.823939 
L 130.90305 155.939416 
L 131.954348 156.143541 
L 136.81207 156.985615 
L 138.080878 157.074377 
L 138.189633 157.036189 
L 138.33464 157.213338 
L 138.370891 157.173795 
L 138.479646 157.241584 
L 138.733408 157.295942 
L 138.98717 157.325571 
L 140.727249 157.614904 
L 147.361302 158.459607 
L 147.433806 158.427042 
L 147.470057 158.48667 
L 147.578812 158.662348 
L 147.615064 158.62324 
L 147.687567 158.593776 
L 147.723819 158.640709 
L 147.868825 158.660766 
L 148.702614 158.830006 
L 150.007673 159.027985 
L 156.0617 159.808958 
L 156.206706 159.717588 
L 156.351713 159.952931 
L 156.387965 159.913691 
L 156.460468 159.881286 
L 156.49672 159.923231 
L 156.641726 159.957197 
L 157.14925 160.068315 
L 157.874283 160.180544 
L 164.327078 161.05479 
L 164.508336 160.772333 
L 164.580839 160.95139 
L 164.653342 161.161845 
L 164.689594 161.117016 
L 164.762097 161.013876 
L 164.798349 161.073422 
L 164.870852 161.192143 
L 164.907104 161.160856 
L 164.979607 161.127487 
L 165.015859 161.176056 
L 165.197117 161.207454 
L 165.414627 161.263167 
L 166.030905 161.356988 
L 170.381104 161.977899 
L 174.695051 162.555508 
L 174.803806 162.320997 
L 174.912561 161.861698 
L 174.948813 162.070195 
L 175.021316 162.647644 
L 175.057568 162.515871 
L 175.09382 162.305564 
L 175.130071 162.324907 
L 175.202575 162.673663 
L 175.238826 162.571143 
L 175.275078 162.459277 
L 175.311329 162.530255 
L 175.383833 162.678265 
L 175.420084 162.588153 
L 175.492588 162.671353 
L 175.673846 162.738031 
L 175.927608 162.743943 
L 176.145118 162.805305 
L 176.688892 162.876597 
L 179.008998 163.204749 
L 189.014456 164.579085 
L 189.123211 164.257437 
L 189.231966 163.490169 
L 189.268217 163.776698 
L 189.340721 164.679913 
L 189.376972 164.433816 
L 189.413224 164.114315 
L 189.449476 164.218505 
L 189.521979 164.682788 
L 189.558231 164.450447 
L 189.594482 164.362457 
L 189.666986 164.723801 
L 189.703237 164.607753 
L 189.739489 164.504491 
L 189.775741 164.618715 
L 189.811992 164.74121 
L 189.884495 164.605658 
L 190.102005 164.782043 
L 190.319515 164.771519 
L 190.682032 164.86216 
L 191.914588 165.03104 
L 198.51239 165.945018 
L 202.608827 166.521836 
L 203.696377 166.554666 
L 203.877635 166.007239 
L 203.950138 166.274924 
L 204.022642 166.713765 
L 204.058893 166.674432 
L 204.131397 166.431944 
L 204.167648 166.485142 
L 204.240152 166.744135 
L 204.312655 166.643563 
L 204.348906 166.602667 
L 204.385158 166.6519 
L 204.457661 166.779829 
L 204.493913 166.750837 
L 204.566416 166.709956 
L 204.602668 166.757822 
L 204.747675 166.766297 
L 205.110191 166.856726 
L 205.835224 166.967392 
L 212.650536 167.871848 
L 212.795542 167.726903 
L 212.940549 167.295436 
L 212.976801 167.319276 
L 213.121807 167.957717 
L 213.158059 167.856838 
L 213.230562 167.709451 
L 213.266814 167.79767 
L 213.339317 167.997058 
L 213.375569 167.970383 
L 213.448072 167.869775 
L 213.484324 167.910352 
L 213.593079 168.015926 
L 213.629331 167.979905 
L 213.738086 168.030771 
L 213.991847 168.084792 
L 214.608125 168.163815 
L 216.348205 168.398399 
L 221.133424 168.922889 
L 221.242178 168.575145 
L 221.350933 168.133372 
L 221.387185 168.31429 
L 221.49594 169.072751 
L 221.532192 168.896932 
L 221.604695 168.70429 
L 221.640947 168.887017 
L 221.71345 169.099526 
L 221.749702 168.986115 
L 221.785953 168.898828 
L 221.822205 168.945588 
L 221.894708 169.136277 
L 221.93096 169.099898 
L 222.003463 169.028699 
L 222.039715 169.095446 
L 222.112218 169.154066 
L 222.14847 169.115842 
L 222.257225 169.175173 
L 222.873503 169.262988 
L 223.562285 169.348547 
L 230.450099 170.189856 
L 230.595106 170.025703 
L 230.776364 169.573889 
L 230.812616 169.722632 
L 230.921371 170.288753 
L 230.957622 170.223706 
L 231.030126 170.014477 
L 231.066377 170.047859 
L 231.175132 170.317421 
L 231.211384 170.269258 
L 231.283887 170.190091 
L 231.320139 170.236131 
L 231.428894 170.335525 
L 231.465146 170.301465 
L 231.573901 170.341442 
L 231.791411 170.376913 
L 232.081424 170.431283 
L 233.676497 170.625811 
L 237.881689 171.109742 
L 238.026696 170.989745 
L 238.207954 170.416804 
L 238.280457 170.617047 
L 238.389212 171.197654 
L 238.425464 171.110537 
L 238.497967 170.897118 
L 238.534219 170.950069 
L 238.642974 171.221913 
L 238.679225 171.162397 
L 238.751729 171.089782 
L 238.78798 171.147633 
L 238.860484 171.255613 
L 238.932987 171.200621 
L 239.041742 171.252886 
L 239.295504 171.303603 
L 245.603292 171.931761 
L 245.712047 171.661199 
L 245.857053 171.119653 
L 245.893305 171.306467 
L 246.00206 172.077487 
L 246.038312 171.958699 
L 246.110815 171.684299 
L 246.147067 171.780343 
L 246.21957 172.096387 
L 246.292073 171.970632 
L 246.328325 171.906205 
L 246.364577 171.947796 
L 246.473332 172.11213 
L 246.509583 172.055601 
L 246.582086 172.056124 
L 246.690841 172.140894 
L 246.727093 172.111212 
L 246.980855 172.152966 
L 247.379623 172.221024 
L 253.107385 172.84912 
L 253.796166 172.848326 
L 253.904921 172.665027 
L 254.086179 172.063907 
L 254.122431 172.239308 
L 254.231186 172.969733 
L 254.267438 172.886986 
L 254.339941 172.611893 
L 254.376193 172.654225 
L 254.484948 172.991725 
L 254.521199 172.924103 
L 254.593703 172.82209 
L 254.629954 172.886603 
L 254.702458 173.017253 
L 254.774961 172.948048 
L 254.883716 173.007874 
L 255.028722 173.00021 
L 255.717504 173.112947 
L 261.554021 173.65644 
L 261.662776 173.504064 
L 261.844034 172.628002 
L 261.916537 172.991274 
L 262.025292 173.719024 
L 262.061544 173.509558 
L 262.134047 173.309111 
L 262.170299 173.495528 
L 262.242802 173.773824 
L 262.279054 173.678909 
L 262.351557 173.544778 
L 262.387809 173.647295 
L 262.460312 173.793766 
L 262.496564 173.735201 
L 262.569067 173.683412 
L 262.605319 173.748633 
L 262.677822 173.811723 
L 262.714074 173.775598 
L 262.822829 173.806541 
L 263.040339 173.842515 
L 263.2941 173.877165 
L 263.2941 173.877165 
" clip-path="url(#p2decaa8ba5)" style="fill: none; stroke: #0000ff; stroke-width: 1.5; stroke-linecap: square"/>
   </g>
   <g id="line2d_57">
    <path d="M 45.820412 82.225949 
L 46.037922 103.435828 
L 46.182928 106.038814 
L 46.291683 105.396289 
L 46.509193 104.472363 
L 46.617948 104.876698 
L 46.799207 105.386018 
L 46.907962 105.354415 
L 47.016717 105.926804 
L 47.632995 111.24498 
L 47.814253 111.856743 
L 48.104266 112.668503 
L 48.358028 113.310212 
L 48.829299 114.568993 
L 50.424372 117.70753 
L 51.185657 118.750677 
L 51.874439 119.361354 
L 52.599472 119.691282 
L 53.360756 119.78326 
L 54.230796 119.667854 
L 55.427101 119.300916 
L 59.088518 118.027771 
L 61.299869 117.579107 
L 63.329962 117.39352 
L 65.505061 117.373648 
L 68.550201 117.5489 
L 72.211618 117.948938 
L 77.105592 118.672921 
L 84.682188 120.051427 
L 91.642506 121.457316 
L 102.082983 123.530103 
L 113.61101 125.444751 
L 119.447527 126.296628 
L 119.52003 126.320513 
L 119.556282 126.143455 
L 119.665037 126.322006 
L 119.810043 126.239932 
L 119.918798 126.347528 
L 119.95505 126.258886 
L 120.027553 126.310953 
L 120.208811 126.299318 
L 120.353818 126.371602 
L 120.462573 126.340404 
L 120.60758 126.395306 
L 120.788838 126.397858 
L 121.187606 126.462499 
L 121.477619 126.490074 
L 122.057646 126.565274 
L 123.797725 126.770182 
L 124.55901 126.892093 
L 124.667765 126.811654 
L 124.77652 126.961701 
L 124.849023 126.982395 
L 124.885275 126.778001 
L 124.921527 126.985364 
L 124.99403 126.960031 
L 125.139037 126.872451 
L 125.247792 126.99141 
L 125.284043 126.898563 
L 125.356547 126.949751 
L 125.537805 126.932286 
L 125.682812 126.999831 
L 125.791566 126.970904 
L 125.936573 127.014342 
L 127.096626 127.142331 
L 127.604149 127.204954 
L 128.365434 127.285354 
L 130.03301 127.342733 
L 130.105514 127.29199 
L 130.141765 127.600786 
L 130.178017 127.275014 
L 130.25052 127.365498 
L 130.395527 127.588057 
L 130.431779 127.374651 
L 130.504282 127.448552 
L 130.649288 127.597552 
L 130.68554 127.449359 
L 130.758043 127.528012 
L 130.866798 127.480254 
L 131.011805 127.582096 
L 131.12056 127.531775 
L 131.265567 127.614466 
L 131.374322 127.581172 
L 131.700587 127.644601 
L 131.845593 127.646006 
L 133.549421 127.81248 
L 135.035739 127.949532 
L 137.827117 128.227502 
L 137.935871 128.114664 
L 138.008375 128.054652 
L 138.044626 128.339461 
L 138.11713 128.37601 
L 138.153381 127.95958 
L 138.189633 128.36149 
L 138.262136 128.232992 
L 138.298388 128.302629 
L 138.370891 128.36358 
L 138.407143 128.094519 
L 138.55215 128.346431 
L 138.588401 128.134035 
L 138.660905 128.23738 
L 138.76966 128.178135 
L 138.914666 128.328014 
L 138.950918 128.216047 
L 139.023421 128.254188 
L 139.168428 128.347357 
L 139.313434 128.278805 
L 139.458441 128.330974 
L 139.639699 128.338153 
L 140.038468 128.373715 
L 141.089766 128.455868 
L 147.216296 128.756768 
L 147.288799 128.680736 
L 147.325051 129.032408 
L 147.361302 128.599215 
L 147.397554 129.058852 
L 147.433806 128.635872 
L 147.470057 129.013267 
L 147.578812 128.999371 
L 147.615064 128.719108 
L 147.651315 129.034387 
L 147.687567 128.771797 
L 147.832574 129.015527 
L 147.868825 128.791545 
L 147.941329 128.903832 
L 147.97758 128.878335 
L 148.050084 128.829907 
L 148.086335 128.996094 
L 148.231342 128.866185 
L 148.267594 128.997503 
L 148.340097 128.954115 
L 148.557607 128.961065 
L 148.666362 128.926165 
L 148.811368 128.996224 
L 148.956375 128.981817 
L 149.318892 129.013661 
L 149.608905 129.021461 
L 150.15268 129.048236 
L 150.696455 129.08588 
L 152.472786 129.182657 
L 155.699183 129.369207 
L 155.807938 129.313419 
L 155.916693 129.433843 
L 155.989196 129.473344 
L 156.025448 129.17563 
L 156.097951 129.087383 
L 156.134203 129.554085 
L 156.170455 129.065842 
L 156.242958 129.219705 
L 156.387965 129.520741 
L 156.424216 129.190914 
L 156.49672 129.315997 
L 156.569223 129.461772 
L 156.605475 129.266013 
L 156.641726 129.503618 
L 156.677978 129.288252 
L 156.822985 129.483192 
L 156.859236 129.308526 
L 156.93174 129.374581 
L 157.185501 129.432126 
L 157.294256 129.377669 
L 157.439263 129.460797 
L 157.548018 129.413944 
L 157.693024 129.472851 
L 157.838031 129.450266 
L 158.128044 129.480173 
L 158.309303 129.479954 
L 158.671819 129.488018 
L 159.034336 129.51234 
L 160.774415 129.594879 
L 164.254574 129.83936 
L 164.327078 129.893956 
L 164.363329 129.506964 
L 164.435832 129.369894 
L 164.472084 130.002564 
L 164.508336 129.346537 
L 164.580839 129.607294 
L 164.653342 129.889149 
L 164.689594 129.520708 
L 164.725846 129.965786 
L 164.762097 129.545755 
L 164.907104 129.93219 
L 164.943356 129.590598 
L 165.015859 129.748794 
L 165.052111 129.7273 
L 165.124614 129.636977 
L 165.160866 129.888045 
L 165.305872 129.684586 
L 165.342124 129.886295 
L 165.414627 129.795293 
L 165.487131 129.72509 
L 165.523382 129.876891 
L 165.668389 129.754782 
L 165.70464 129.871545 
L 165.777144 129.835806 
L 166.393422 129.845601 
L 166.683435 129.87347 
L 166.864693 129.876771 
L 167.082203 129.871543 
L 167.372217 129.896288 
L 167.843488 129.909634 
L 168.74978 129.952878 
L 172.882468 130.130275 
L 174.586296 130.265453 
L 174.6588 130.319371 
L 174.695051 130.014853 
L 174.767555 129.817792 
L 174.803806 130.509047 
L 174.840058 129.525015 
L 174.87631 130.587098 
L 174.912561 129.56253 
L 175.057568 130.546592 
L 175.09382 129.746251 
L 175.166323 130.221973 
L 175.202575 129.979457 
L 175.238826 130.514929 
L 175.275078 129.897908 
L 175.311329 130.332404 
L 175.347581 130.338453 
L 175.383833 129.963044 
L 175.420084 130.453849 
L 175.456336 130.080472 
L 175.528839 130.388881 
L 175.565091 129.99988 
L 175.637594 130.222876 
L 175.673846 130.130679 
L 175.710098 130.403818 
L 175.746349 130.099704 
L 175.782601 130.300117 
L 175.818853 130.306504 
L 175.855104 130.117632 
L 175.891356 130.380106 
L 175.927608 130.189853 
L 176.072614 130.326584 
L 176.108866 130.267293 
L 176.181369 130.353887 
L 176.217621 130.198374 
L 176.362628 130.335721 
L 176.507634 130.226192 
L 176.652641 130.334335 
L 176.797647 130.260536 
L 176.942654 130.327268 
L 177.087661 130.293724 
L 177.232667 130.321336 
L 177.450177 130.310954 
L 177.667687 130.342716 
L 178.102707 130.349328 
L 178.501475 130.375332 
L 179.117753 130.397451 
L 182.090389 130.525407 
L 184.881767 130.641686 
L 188.760694 130.823242 
L 188.869449 130.750562 
L 188.941952 130.69337 
L 188.978204 130.958835 
L 189.050707 131.083011 
L 189.086959 130.29174 
L 189.159462 129.855242 
L 189.195714 131.356743 
L 189.231966 129.870408 
L 189.304469 130.818001 
L 189.376972 131.311117 
L 189.413224 130.173667 
L 189.558231 131.231929 
L 189.703237 130.379598 
L 189.848244 131.118564 
L 189.99325 130.567281 
L 190.138257 131.053803 
L 190.283264 130.685903 
L 190.42827 131.000756 
L 190.573277 130.755119 
L 190.718284 130.962863 
L 190.86329 130.807147 
L 191.008297 130.946227 
L 191.153303 130.849966 
L 191.29831 130.93845 
L 191.443317 130.881915 
L 191.588323 130.934491 
L 191.73333 130.906035 
L 191.878337 130.934441 
L 192.095847 130.921779 
L 192.349608 130.949607 
L 192.675873 130.954691 
L 193.110893 130.97384 
L 203.33386 131.39408 
L 203.442615 131.304232 
L 203.515118 131.264869 
L 203.55137 131.497416 
L 203.623873 131.576961 
L 203.660125 131.071065 
L 203.732628 130.869659 
L 203.76888 131.827586 
L 203.841383 131.925654 
L 203.877635 130.565916 
L 203.913887 131.857263 
L 203.98639 131.456202 
L 204.022642 131.573455 
L 204.095145 131.795135 
L 204.131397 130.909194 
L 204.276403 131.665556 
L 204.312655 131.010012 
L 204.348906 131.671129 
L 204.385158 131.231972 
L 204.457661 131.554145 
L 204.493913 131.140259 
L 204.530165 131.635802 
L 204.566416 131.215313 
L 204.711423 131.59885 
L 204.747675 131.235403 
L 204.820178 131.423911 
L 204.892681 131.55148 
L 204.928933 131.269165 
L 205.07394 131.515434 
L 205.110191 131.306998 
L 205.182695 131.375837 
L 205.327701 131.510858 
L 205.472708 131.385506 
L 205.508959 131.498495 
L 205.581463 131.474297 
L 205.726469 131.39681 
L 205.871476 131.471312 
L 205.980231 131.426504 
L 206.125238 131.484107 
L 206.270244 131.463484 
L 206.632761 131.488842 
L 206.850271 131.474813 
L 207.140284 131.497765 
L 208.010324 131.521481 
L 209.097874 131.559074 
L 212.541781 131.763385 
L 212.614284 131.818574 
L 212.650536 131.468856 
L 212.723039 131.342712 
L 212.759291 132.018812 
L 212.831794 132.156932 
L 212.868046 130.91765 
L 212.904297 132.255218 
L 212.940549 130.855618 
L 212.976801 132.196657 
L 213.013052 131.217133 
L 213.085556 131.773078 
L 213.158059 132.078407 
L 213.194311 131.168864 
L 213.230562 132.038443 
L 213.303066 131.720202 
L 213.339317 131.844491 
L 213.411821 132.005529 
L 213.448072 131.378658 
L 213.593079 131.899254 
L 213.629331 131.440471 
L 213.701834 131.571245 
L 213.774337 131.793551 
L 213.810589 131.535349 
L 213.846841 131.881431 
L 213.883092 131.549359 
L 214.028099 131.827221 
L 214.06435 131.574408 
L 214.136854 131.649925 
L 214.28186 131.815499 
L 214.318112 131.634779 
L 214.390615 131.715615 
L 214.49937 131.650462 
L 214.535622 131.790504 
L 214.608125 131.739269 
L 214.898139 131.762786 
L 215.006894 131.709193 
L 215.1519 131.766774 
L 215.260655 131.728541 
L 215.478165 131.772569 
L 215.623172 131.749618 
L 215.840682 131.766586 
L 216.348205 131.779255 
L 218.414549 131.835709 
L 220.807159 131.936557 
L 220.915914 131.814328 
L 220.988417 131.758207 
L 221.024669 132.076887 
L 221.097172 132.187841 
L 221.133424 131.478787 
L 221.205927 131.197794 
L 221.242178 132.524596 
L 221.27843 130.896029 
L 221.314682 132.61423 
L 221.350933 130.96733 
L 221.387185 132.419188 
L 221.459688 131.800359 
L 221.49594 132.286503 
L 221.532192 131.268493 
L 221.568443 132.419472 
L 221.604695 131.448781 
L 221.749702 132.315596 
L 221.785953 131.486716 
L 221.858457 131.908093 
L 221.894708 131.722473 
L 221.93096 132.215348 
L 221.967212 131.579773 
L 222.003463 132.138527 
L 222.14847 131.662955 
L 222.184722 132.121145 
L 222.257225 131.887034 
L 222.329728 131.731986 
L 222.36598 132.095863 
L 222.510986 131.792033 
L 222.547238 132.071313 
L 222.619741 131.960687 
L 222.655993 131.988565 
L 222.728496 132.04921 
L 222.764748 131.853863 
L 222.909755 132.028322 
L 222.946006 131.869208 
L 223.01851 131.944049 
L 223.127265 131.888964 
L 223.272271 131.98955 
L 223.381026 131.928717 
L 223.526033 131.996007 
L 223.671039 131.949961 
L 223.816046 131.957081 
L 224.323569 131.985544 
L 224.613583 131.979466 
L 224.903596 131.99532 
L 225.628629 132.006058 
L 226.679927 132.030187 
L 230.160086 132.055281 
L 230.268841 132.17731 
L 230.341344 132.216807 
L 230.377596 131.950435 
L 230.450099 131.86275 
L 230.486351 132.373689 
L 230.558854 132.501768 
L 230.595106 131.520649 
L 230.667609 131.284895 
L 230.703861 132.761635 
L 230.740113 131.205068 
L 230.812616 131.534734 
L 230.957622 132.498996 
L 230.993874 131.559014 
L 231.030126 132.542147 
L 231.066377 131.736932 
L 231.211384 132.42258 
L 231.247636 131.734909 
L 231.320139 131.935132 
L 231.392642 132.234467 
L 231.465146 132.363936 
L 231.501397 131.877065 
L 231.646404 132.260606 
L 231.682656 131.931385 
L 231.718907 132.295301 
L 231.755159 131.989305 
L 231.900166 132.250674 
L 231.936417 131.988775 
L 232.008921 132.064497 
L 232.153927 132.22711 
L 232.190179 132.03875 
L 232.262682 132.106762 
L 232.588947 132.17638 
L 232.697702 132.101626 
L 232.842709 132.170242 
L 232.951464 132.115871 
L 233.09647 132.165478 
L 233.205225 132.127179 
L 233.241477 132.16408 
L 233.458987 132.136221 
L 233.640245 132.14908 
L 233.930258 132.164215 
L 234.292775 132.160857 
L 234.727795 132.174387 
L 235.815344 132.186736 
L 237.591676 132.248819 
L 237.700431 132.141702 
L 237.772934 132.106502 
L 237.809186 132.338383 
L 237.881689 132.406661 
L 237.917941 131.953059 
L 237.990444 131.80415 
L 238.026696 132.64401 
L 238.099199 132.804165 
L 238.13545 131.338543 
L 238.171702 132.913464 
L 238.207954 131.277939 
L 238.244205 132.835924 
L 238.280457 131.653157 
L 238.35296 132.254899 
L 238.389212 131.916111 
L 238.461715 131.635802 
L 238.497967 132.664394 
L 238.534219 131.85253 
L 238.606722 132.293618 
L 238.679225 132.552984 
L 238.715477 131.827868 
L 238.751729 132.503174 
L 238.824232 132.223925 
L 238.860484 132.363507 
L 238.896735 131.973715 
L 238.932987 132.480106 
L 238.969239 131.982227 
L 239.114245 132.379544 
L 239.150497 132.025116 
L 239.186749 132.401735 
L 239.223 132.098741 
L 239.368007 132.362167 
L 239.404258 132.088325 
L 239.476762 132.174082 
L 239.621768 132.332597 
L 239.65802 132.141428 
L 239.730523 132.216257 
L 239.839278 132.162399 
L 239.87553 132.305667 
L 239.948033 132.268858 
L 240.09304 132.183388 
L 240.129292 132.287475 
L 240.201795 132.258019 
L 240.419305 132.21379 
L 240.564311 132.263261 
L 240.673066 132.220951 
L 240.818073 132.25793 
L 240.999331 132.239408 
L 241.543106 132.257552 
L 241.978126 132.25589 
L 243.319437 132.264974 
L 244.515742 132.277634 
L 245.059517 132.263701 
L 245.240775 132.317346 
L 245.34953 132.202545 
L 245.422033 132.157491 
L 245.458285 132.426579 
L 245.530788 132.509355 
L 245.56704 131.962356 
L 245.639543 131.764668 
L 245.675795 132.808719 
L 245.748298 132.987579 
L 245.78455 131.223512 
L 245.820802 133.055878 
L 245.893305 132.831385 
L 246.038312 131.694744 
L 246.074563 132.825877 
L 246.147067 132.603531 
L 246.255822 132.616944 
L 246.292073 131.818746 
L 246.328325 132.648148 
L 246.400828 132.343436 
L 246.43708 132.411088 
L 246.509583 132.58664 
L 246.545835 131.989812 
L 246.690841 132.48541 
L 246.727093 132.040527 
L 246.799596 132.175071 
L 246.8721 132.381139 
L 246.908351 132.122191 
L 246.944603 132.453929 
L 246.980855 132.141994 
L 247.125861 132.405463 
L 247.162113 132.155463 
L 247.234616 132.235177 
L 247.379623 132.381166 
L 247.415875 132.209633 
L 247.488378 132.289311 
L 247.597133 132.219368 
L 247.633385 132.346969 
L 247.705888 132.29697 
L 247.995901 132.316747 
L 248.104656 132.263427 
L 248.249663 132.314481 
L 248.358418 132.272797 
L 248.394669 132.304375 
L 248.793438 132.281004 
L 248.974696 132.29105 
L 249.337212 132.301419 
L 249.699729 132.293159 
L 250.279755 132.29801 
L 253.578656 132.206739 
L 253.65116 132.159334 
L 253.687411 132.459715 
L 253.759915 132.544928 
L 253.796166 131.95762 
L 253.868669 131.762345 
L 253.904921 132.839774 
L 253.977424 133.008449 
L 254.013676 131.268974 
L 254.049928 133.063181 
L 254.122431 132.844244 
L 254.267438 131.774658 
L 254.303689 132.819371 
L 254.339941 131.699131 
L 254.376193 132.67273 
L 254.521199 131.885151 
L 254.557451 132.675841 
L 254.629954 132.474097 
L 254.702458 132.137025 
L 254.774961 131.98314 
L 254.811213 132.540585 
L 254.956219 132.108858 
L 254.992471 132.502715 
L 255.028722 132.090747 
L 255.064974 132.422411 
L 255.209981 132.135549 
L 255.246232 132.438439 
L 255.318736 132.341713 
L 255.391239 132.218161 
L 255.463742 132.176641 
L 255.499994 132.385115 
L 255.645001 132.223625 
L 255.681252 132.373884 
L 255.753756 132.348522 
L 255.898762 132.236575 
L 255.935014 132.35188 
L 256.007517 132.326659 
L 256.152524 132.251441 
L 256.261279 132.314221 
L 256.406285 132.265263 
L 256.51504 132.30925 
L 256.551292 132.284982 
L 258.182617 132.287819 
L 258.762643 132.279102 
L 259.451425 132.280252 
L 260.502723 132.267912 
L 261.119001 132.28543 
L 261.227756 132.230907 
L 261.336511 132.33195 
L 261.409014 132.370756 
L 261.445266 132.125587 
L 261.517769 132.037885 
L 261.554021 132.52919 
L 261.626524 132.677007 
L 261.662776 131.659602 
L 261.735279 131.339921 
L 261.771531 133.062828 
L 261.807782 131.09432 
L 261.844034 133.091883 
L 261.880286 131.327053 
L 261.916537 132.758322 
L 262.025292 132.698364 
L 262.061544 131.55947 
L 262.097796 132.83897 
L 262.134047 131.721031 
L 262.279054 132.678045 
L 262.315305 131.75516 
L 262.387809 132.091629 
L 262.460312 132.490401 
L 262.496564 131.896307 
L 262.532815 132.572248 
L 262.569067 132.009151 
L 262.714074 132.502013 
L 262.750325 132.006451 
L 262.822829 132.219661 
L 262.85908 132.165695 
L 262.931584 132.050861 
L 262.967835 132.412262 
L 263.112842 132.116851 
L 263.149094 132.388676 
L 263.221597 132.309086 
L 263.2941 132.185013 
L 263.2941 132.185013 
" clip-path="url(#p2decaa8ba5)" style="fill: none; stroke-dasharray: 5.55,2.4; stroke-dashoffset: 0; stroke: #0000ff; stroke-width: 1.5"/>
   </g>
   <g id="line2d_58">
    <path d="M 45.820412 15.137008 
L 46.00167 64.500312 
L 46.291683 77.567652 
L 46.6542 83.89628 
L 47.161723 88.387867 
L 47.669246 91.266805 
L 48.140518 92.805133 
L 48.756796 94.035458 
L 49.699339 95.402614 
L 51.004399 96.856648 
L 52.490717 98.193076 
L 54.412055 99.636777 
L 56.369644 100.910767 
L 59.269777 102.555279 
L 62.387419 104.074134 
L 66.157591 105.632425 
L 70.544042 107.136604 
L 75.691777 108.567602 
L 80.585751 109.67964 
L 88.379857 111.098337 
L 93.853857 111.921249 
L 116.764904 114.64414 
L 124.015235 115.414337 
L 135.94203 116.673803 
L 155.84419 118.819824 
L 183.540456 121.929802 
L 183.540456 121.929802 
" clip-path="url(#p2decaa8ba5)" style="fill: none; stroke: #ff0000; stroke-width: 1.5; stroke-linecap: square"/>
   </g>
   <g id="line2d_59">
    <path d="M 45.820412 26.432157 
L 46.00167 58.519846 
L 46.291683 71.201427 
L 46.6542 77.951605 
L 47.08922 81.799875 
L 47.52424 83.7953 
L 47.95926 84.762204 
L 49.119313 86.474548 
L 50.170611 87.761318 
L 51.47567 88.946897 
L 53.360756 90.356516 
L 55.970876 92.085518 
L 58.508492 93.57061 
L 62.061154 95.326541 
L 65.505061 96.712141 
L 69.166479 97.893624 
L 72.827896 98.821904 
L 76.344307 99.51675 
L 80.295737 100.114508 
L 85.189711 100.650458 
L 90.011181 101.025358 
L 96.898996 101.398727 
L 105.454387 101.72975 
L 123.000189 102.283616 
L 136.37705 102.643799 
L 160.738164 102.869786 
L 172.157435 102.629864 
L 183.141687 102.120897 
L 183.540456 102.096496 
L 183.540456 102.096496 
" clip-path="url(#p2decaa8ba5)" style="fill: none; stroke-dasharray: 5.55,2.4; stroke-dashoffset: 0; stroke: #ff0000; stroke-width: 1.5"/>
   </g>
   <g id="patch_3">
    <path d="M 43.645313 181.814173 
L 43.645313 7.2 
" style="fill: none; stroke: #000000; stroke-width: 0.8; stroke-linejoin: miter; stroke-linecap: square"/>
   </g>
   <g id="patch_4">
    <path d="M 263.330352 181.814173 
L 263.330352 7.2 
" style="fill: none; stroke: #000000; stroke-width: 0.8; stroke-linejoin: miter; stroke-linecap: square"/>
   </g>
   <g id="patch_5">
    <path d="M 43.645313 181.814173 
L 263.330352 181.814173 
" style="fill: none; stroke: #000000; stroke-width: 0.8; stroke-linejoin: miter; stroke-linecap: square"/>
   </g>
   <g id="patch_6">
    <path d="M 43.645313 7.2 
L 263.330352 7.2 
" style="fill: none; stroke: #000000; stroke-width: 0.8; stroke-linejoin: miter; stroke-linecap: square"/>
   </g>
   <g id="legend_1">
    <g id="patch_7">
     <path d="M 158.199102 72.015625 
L 256.330352 72.015625 
Q 258.330352 72.015625 258.330352 70.015625 
L 258.330352 14.2 
Q 258.330352 12.2 256.330352 12.2 
L 158.199102 12.2 
Q 156.199102 12.2 156.199102 14.2 
L 156.199102 70.015625 
Q 156.199102 72.015625 158.199102 72.015625 
z
" style="fill: #ffffff; opacity: 0.8; stroke: #000000; stroke-linejoin: miter"/>
    </g>
    <g id="line2d_60">
     <path d="M 160.199102 19.857813 
L 170.199102 19.857813 
L 180.199102 19.857813 
" style="fill: none; stroke: #0000ff; stroke-width: 1.5; stroke-linecap: square"/>
    </g>
    <g id="text_14">
     <!-- BiRNN training -->
     <g transform="translate(188.199102 23.357813) scale(0.1 -0.1)">
      <defs>
       <path id="ArialMT-42" d="M 469 0 
L 469 4581 
L 2188 4581 
Q 2713 4581 3030 4442 
Q 3347 4303 3526 4014 
Q 3706 3725 3706 3409 
Q 3706 3116 3547 2856 
Q 3388 2597 3066 2438 
Q 3481 2316 3704 2022 
Q 3928 1728 3928 1328 
Q 3928 1006 3792 729 
Q 3656 453 3456 303 
Q 3256 153 2954 76 
Q 2653 0 2216 0 
L 469 0 
z
M 1075 2656 
L 2066 2656 
Q 2469 2656 2644 2709 
Q 2875 2778 2992 2937 
Q 3109 3097 3109 3338 
Q 3109 3566 3000 3739 
Q 2891 3913 2687 3977 
Q 2484 4041 1991 4041 
L 1075 4041 
L 1075 2656 
z
M 1075 541 
L 2216 541 
Q 2509 541 2628 563 
Q 2838 600 2978 687 
Q 3119 775 3209 942 
Q 3300 1109 3300 1328 
Q 3300 1584 3169 1773 
Q 3038 1963 2805 2039 
Q 2572 2116 2134 2116 
L 1075 2116 
L 1075 541 
z
" transform="scale(0.015625)"/>
       <path id="ArialMT-69" d="M 425 3934 
L 425 4581 
L 988 4581 
L 988 3934 
L 425 3934 
z
M 425 0 
L 425 3319 
L 988 3319 
L 988 0 
L 425 0 
z
" transform="scale(0.015625)"/>
       <path id="ArialMT-52" d="M 503 0 
L 503 4581 
L 2534 4581 
Q 3147 4581 3465 4457 
Q 3784 4334 3975 4021 
Q 4166 3709 4166 3331 
Q 4166 2844 3850 2509 
Q 3534 2175 2875 2084 
Q 3116 1969 3241 1856 
Q 3506 1613 3744 1247 
L 4541 0 
L 3778 0 
L 3172 953 
Q 2906 1366 2734 1584 
Q 2563 1803 2427 1890 
Q 2291 1978 2150 2013 
Q 2047 2034 1813 2034 
L 1109 2034 
L 1109 0 
L 503 0 
z
M 1109 2559 
L 2413 2559 
Q 2828 2559 3062 2645 
Q 3297 2731 3419 2920 
Q 3541 3109 3541 3331 
Q 3541 3656 3305 3865 
Q 3069 4075 2559 4075 
L 1109 4075 
L 1109 2559 
z
" transform="scale(0.015625)"/>
       <path id="ArialMT-4e" d="M 488 0 
L 488 4581 
L 1109 4581 
L 3516 984 
L 3516 4581 
L 4097 4581 
L 4097 0 
L 3475 0 
L 1069 3600 
L 1069 0 
L 488 0 
z
" transform="scale(0.015625)"/>
       <path id="ArialMT-74" d="M 1650 503 
L 1731 6 
Q 1494 -44 1306 -44 
Q 1000 -44 831 53 
Q 663 150 594 308 
Q 525 466 525 972 
L 525 2881 
L 113 2881 
L 113 3319 
L 525 3319 
L 525 4141 
L 1084 4478 
L 1084 3319 
L 1650 3319 
L 1650 2881 
L 1084 2881 
L 1084 941 
Q 1084 700 1114 631 
Q 1144 563 1211 522 
Q 1278 481 1403 481 
Q 1497 481 1650 503 
z
" transform="scale(0.015625)"/>
       <path id="ArialMT-72" d="M 416 0 
L 416 3319 
L 922 3319 
L 922 2816 
Q 1116 3169 1280 3281 
Q 1444 3394 1641 3394 
Q 1925 3394 2219 3213 
L 2025 2691 
Q 1819 2813 1613 2813 
Q 1428 2813 1281 2702 
Q 1134 2591 1072 2394 
Q 978 2094 978 1738 
L 978 0 
L 416 0 
z
" transform="scale(0.015625)"/>
       <path id="ArialMT-61" d="M 2588 409 
Q 2275 144 1986 34 
Q 1697 -75 1366 -75 
Q 819 -75 525 192 
Q 231 459 231 875 
Q 231 1119 342 1320 
Q 453 1522 633 1644 
Q 813 1766 1038 1828 
Q 1203 1872 1538 1913 
Q 2219 1994 2541 2106 
Q 2544 2222 2544 2253 
Q 2544 2597 2384 2738 
Q 2169 2928 1744 2928 
Q 1347 2928 1158 2789 
Q 969 2650 878 2297 
L 328 2372 
Q 403 2725 575 2942 
Q 747 3159 1072 3276 
Q 1397 3394 1825 3394 
Q 2250 3394 2515 3294 
Q 2781 3194 2906 3042 
Q 3031 2891 3081 2659 
Q 3109 2516 3109 2141 
L 3109 1391 
Q 3109 606 3145 398 
Q 3181 191 3288 0 
L 2700 0 
Q 2613 175 2588 409 
z
M 2541 1666 
Q 2234 1541 1622 1453 
Q 1275 1403 1131 1340 
Q 988 1278 909 1158 
Q 831 1038 831 891 
Q 831 666 1001 516 
Q 1172 366 1500 366 
Q 1825 366 2078 508 
Q 2331 650 2450 897 
Q 2541 1088 2541 1459 
L 2541 1666 
z
" transform="scale(0.015625)"/>
       <path id="ArialMT-6e" d="M 422 0 
L 422 3319 
L 928 3319 
L 928 2847 
Q 1294 3394 1984 3394 
Q 2284 3394 2536 3286 
Q 2788 3178 2913 3003 
Q 3038 2828 3088 2588 
Q 3119 2431 3119 2041 
L 3119 0 
L 2556 0 
L 2556 2019 
Q 2556 2363 2490 2533 
Q 2425 2703 2258 2804 
Q 2091 2906 1866 2906 
Q 1506 2906 1245 2678 
Q 984 2450 984 1813 
L 984 0 
L 422 0 
z
" transform="scale(0.015625)"/>
       <path id="ArialMT-67" d="M 319 -275 
L 866 -356 
Q 900 -609 1056 -725 
Q 1266 -881 1628 -881 
Q 2019 -881 2231 -725 
Q 2444 -569 2519 -288 
Q 2563 -116 2559 434 
Q 2191 0 1641 0 
Q 956 0 581 494 
Q 206 988 206 1678 
Q 206 2153 378 2554 
Q 550 2956 876 3175 
Q 1203 3394 1644 3394 
Q 2231 3394 2613 2919 
L 2613 3319 
L 3131 3319 
L 3131 450 
Q 3131 -325 2973 -648 
Q 2816 -972 2473 -1159 
Q 2131 -1347 1631 -1347 
Q 1038 -1347 672 -1080 
Q 306 -813 319 -275 
z
M 784 1719 
Q 784 1066 1043 766 
Q 1303 466 1694 466 
Q 2081 466 2343 764 
Q 2606 1063 2606 1700 
Q 2606 2309 2336 2618 
Q 2066 2928 1684 2928 
Q 1309 2928 1046 2623 
Q 784 2319 784 1719 
z
" transform="scale(0.015625)"/>
      </defs>
      <use xlink:href="#ArialMT-42"/>
      <use xlink:href="#ArialMT-69" x="66.699219"/>
      <use xlink:href="#ArialMT-52" x="88.916016"/>
      <use xlink:href="#ArialMT-4e" x="161.132812"/>
      <use xlink:href="#ArialMT-4e" x="233.349609"/>
      <use xlink:href="#ArialMT-20" x="305.566406"/>
      <use xlink:href="#ArialMT-74" x="333.349609"/>
      <use xlink:href="#ArialMT-72" x="361.132812"/>
      <use xlink:href="#ArialMT-61" x="394.433594"/>
      <use xlink:href="#ArialMT-69" x="450.048828"/>
      <use xlink:href="#ArialMT-6e" x="472.265625"/>
      <use xlink:href="#ArialMT-69" x="527.880859"/>
      <use xlink:href="#ArialMT-6e" x="550.097656"/>
      <use xlink:href="#ArialMT-67" x="605.712891"/>
     </g>
    </g>
    <g id="line2d_61">
     <path d="M 160.199102 34.120313 
L 170.199102 34.120313 
L 180.199102 34.120313 
" style="fill: none; stroke-dasharray: 5.55,2.4; stroke-dashoffset: 0; stroke: #0000ff; stroke-width: 1.5"/>
    </g>
    <g id="text_15">
     <!-- BiRNN test -->
     <g transform="translate(188.199102 37.620313) scale(0.1 -0.1)">
      <defs>
       <path id="ArialMT-65" d="M 2694 1069 
L 3275 997 
Q 3138 488 2766 206 
Q 2394 -75 1816 -75 
Q 1088 -75 661 373 
Q 234 822 234 1631 
Q 234 2469 665 2931 
Q 1097 3394 1784 3394 
Q 2450 3394 2872 2941 
Q 3294 2488 3294 1666 
Q 3294 1616 3291 1516 
L 816 1516 
Q 847 969 1125 678 
Q 1403 388 1819 388 
Q 2128 388 2347 550 
Q 2566 713 2694 1069 
z
M 847 1978 
L 2700 1978 
Q 2663 2397 2488 2606 
Q 2219 2931 1791 2931 
Q 1403 2931 1139 2672 
Q 875 2413 847 1978 
z
" transform="scale(0.015625)"/>
      </defs>
      <use xlink:href="#ArialMT-42"/>
      <use xlink:href="#ArialMT-69" x="66.699219"/>
      <use xlink:href="#ArialMT-52" x="88.916016"/>
      <use xlink:href="#ArialMT-4e" x="161.132812"/>
      <use xlink:href="#ArialMT-4e" x="233.349609"/>
      <use xlink:href="#ArialMT-20" x="305.566406"/>
      <use xlink:href="#ArialMT-74" x="333.349609"/>
      <use xlink:href="#ArialMT-65" x="361.132812"/>
      <use xlink:href="#ArialMT-73" x="416.748047"/>
      <use xlink:href="#ArialMT-74" x="466.748047"/>
     </g>
    </g>
    <g id="line2d_62">
     <path d="M 160.199102 48.265625 
L 170.199102 48.265625 
L 180.199102 48.265625 
" style="fill: none; stroke: #ff0000; stroke-width: 1.5; stroke-linecap: square"/>
    </g>
    <g id="text_16">
     <!-- RNN training -->
     <g transform="translate(188.199102 51.765625) scale(0.1 -0.1)">
      <use xlink:href="#ArialMT-52"/>
      <use xlink:href="#ArialMT-4e" x="72.216797"/>
      <use xlink:href="#ArialMT-4e" x="144.433594"/>
      <use xlink:href="#ArialMT-20" x="216.650391"/>
      <use xlink:href="#ArialMT-74" x="244.433594"/>
      <use xlink:href="#ArialMT-72" x="272.216797"/>
      <use xlink:href="#ArialMT-61" x="305.517578"/>
      <use xlink:href="#ArialMT-69" x="361.132812"/>
      <use xlink:href="#ArialMT-6e" x="383.349609"/>
      <use xlink:href="#ArialMT-69" x="438.964844"/>
      <use xlink:href="#ArialMT-6e" x="461.181641"/>
      <use xlink:href="#ArialMT-67" x="516.796875"/>
     </g>
    </g>
    <g id="line2d_63">
     <path d="M 160.199102 62.528125 
L 170.199102 62.528125 
L 180.199102 62.528125 
" style="fill: none; stroke-dasharray: 5.55,2.4; stroke-dashoffset: 0; stroke: #ff0000; stroke-width: 1.5"/>
    </g>
    <g id="text_17">
     <!-- RNN test -->
     <g transform="translate(188.199102 66.028125) scale(0.1 -0.1)">
      <use xlink:href="#ArialMT-52"/>
      <use xlink:href="#ArialMT-4e" x="72.216797"/>
      <use xlink:href="#ArialMT-4e" x="144.433594"/>
      <use xlink:href="#ArialMT-20" x="216.650391"/>
      <use xlink:href="#ArialMT-74" x="244.433594"/>
      <use xlink:href="#ArialMT-65" x="272.216797"/>
      <use xlink:href="#ArialMT-73" x="327.832031"/>
      <use xlink:href="#ArialMT-74" x="377.832031"/>
     </g>
    </g>
   </g>
  </g>
 </g>
 <defs>
  <clipPath id="p2decaa8ba5">
   <rect x="43.645313" y="7.2" width="219.685039" height="174.614173"/>
  </clipPath>
 </defs>
</svg>
