<?xml version="1.0" encoding="utf-8" standalone="no"?>
<!DOCTYPE svg PUBLIC "-//W3C//DTD SVG 1.1//EN"
  "http://www.w3.org/Graphics/SVG/1.1/DTD/svg11.dtd">
<svg xmlns:xlink="http://www.w3.org/1999/xlink" width="487.616954pt" height="218.622767pt" viewBox="0 0 487.616954 218.622767" xmlns="http://www.w3.org/2000/svg" version="1.1">
 <metadata>
  <rdf:RDF xmlns:dc="http://purl.org/dc/elements/1.1/" xmlns:cc="http://creativecommons.org/ns#" xmlns:rdf="http://www.w3.org/1999/02/22-rdf-syntax-ns#">
   <cc:Work>
    <dc:type rdf:resource="http://purl.org/dc/dcmitype/StillImage"/>
    <dc:date>2024-03-15T14:33:06.972214</dc:date>
    <dc:format>image/svg+xml</dc:format>
    <dc:creator>
     <cc:Agent>
      <dc:title>Matplotlib v3.8.2, https://matplotlib.org/</dc:title>
     </cc:Agent>
    </dc:creator>
   </cc:Work>
  </rdf:RDF>
 </metadata>
 <defs>
  <style type="text/css">*{stroke-linejoin: round; stroke-linecap: butt}</style>
 </defs>
 <g id="figure_1">
  <g id="patch_1">
   <path d="M 0 218.622767 
L 487.616954 218.622767 
L 487.616954 0 
L 0 0 
z
" style="fill: #ffffff"/>
  </g>
  <g id="axes_1">
   <g id="patch_2">
    <path d="M 41.046875 185.393079 
L 480.416954 185.393079 
L 480.416954 10.778906 
L 41.046875 10.778906 
z
" style="fill: #ffffff"/>
   </g>
   <g id="matplotlib.axis_1">
    <g id="xtick_1">
     <g id="line2d_1">
      <path d="M 41.046875 185.393079 
L 41.046875 10.778906 
" clip-path="url(#p4289f7ae58)" style="fill: none; stroke: #b0b0b0; stroke-width: 0.8; stroke-linecap: square"/>
     </g>
     <g id="line2d_2">
      <defs>
       <path id="mf94fb34e06" d="M 0 0 
L 0 -3.5 
" style="stroke: #000000; stroke-width: 0.8"/>
      </defs>
      <g>
       <use xlink:href="#mf94fb34e06" x="41.046875" y="185.393079" style="stroke: #000000; stroke-width: 0.8"/>
      </g>
     </g>
     <g id="text_1">
      <!-- 0 -->
      <g transform="translate(38.266406 196.050892) scale(0.1 -0.1)">
       <defs>
        <path id="ArialMT-30" d="M 266 2259 
Q 266 3072 433 3567 
Q 600 4063 929 4331 
Q 1259 4600 1759 4600 
Q 2128 4600 2406 4451 
Q 2684 4303 2865 4023 
Q 3047 3744 3150 3342 
Q 3253 2941 3253 2259 
Q 3253 1453 3087 958 
Q 2922 463 2592 192 
Q 2263 -78 1759 -78 
Q 1097 -78 719 397 
Q 266 969 266 2259 
z
M 844 2259 
Q 844 1131 1108 757 
Q 1372 384 1759 384 
Q 2147 384 2411 759 
Q 2675 1134 2675 2259 
Q 2675 3391 2411 3762 
Q 2147 4134 1753 4134 
Q 1366 4134 1134 3806 
Q 844 3388 844 2259 
z
" transform="scale(0.015625)"/>
       </defs>
       <use xlink:href="#ArialMT-30"/>
      </g>
     </g>
    </g>
    <g id="xtick_2">
     <g id="line2d_3">
      <path d="M 120.932344 185.393079 
L 120.932344 10.778906 
" clip-path="url(#p4289f7ae58)" style="fill: none; stroke: #b0b0b0; stroke-width: 0.8; stroke-linecap: square"/>
     </g>
     <g id="line2d_4">
      <g>
       <use xlink:href="#mf94fb34e06" x="120.932344" y="185.393079" style="stroke: #000000; stroke-width: 0.8"/>
      </g>
     </g>
     <g id="text_2">
      <!-- 10 -->
      <g transform="translate(115.371406 196.050892) scale(0.1 -0.1)">
       <defs>
        <path id="ArialMT-31" d="M 2384 0 
L 1822 0 
L 1822 3584 
Q 1619 3391 1289 3197 
Q 959 3003 697 2906 
L 697 3450 
Q 1169 3672 1522 3987 
Q 1875 4303 2022 4600 
L 2384 4600 
L 2384 0 
z
" transform="scale(0.015625)"/>
       </defs>
       <use xlink:href="#ArialMT-31"/>
       <use xlink:href="#ArialMT-30" x="55.615234"/>
      </g>
     </g>
    </g>
    <g id="xtick_3">
     <g id="line2d_5">
      <path d="M 200.817813 185.393079 
L 200.817813 10.778906 
" clip-path="url(#p4289f7ae58)" style="fill: none; stroke: #b0b0b0; stroke-width: 0.8; stroke-linecap: square"/>
     </g>
     <g id="line2d_6">
      <g>
       <use xlink:href="#mf94fb34e06" x="200.817813" y="185.393079" style="stroke: #000000; stroke-width: 0.8"/>
      </g>
     </g>
     <g id="text_3">
      <!-- 20 -->
      <g transform="translate(195.256875 196.050892) scale(0.1 -0.1)">
       <defs>
        <path id="ArialMT-32" d="M 3222 541 
L 3222 0 
L 194 0 
Q 188 203 259 391 
Q 375 700 629 1000 
Q 884 1300 1366 1694 
Q 2113 2306 2375 2664 
Q 2638 3022 2638 3341 
Q 2638 3675 2398 3904 
Q 2159 4134 1775 4134 
Q 1369 4134 1125 3890 
Q 881 3647 878 3216 
L 300 3275 
Q 359 3922 746 4261 
Q 1134 4600 1788 4600 
Q 2447 4600 2831 4234 
Q 3216 3869 3216 3328 
Q 3216 3053 3103 2787 
Q 2991 2522 2730 2228 
Q 2469 1934 1863 1422 
Q 1356 997 1212 845 
Q 1069 694 975 541 
L 3222 541 
z
" transform="scale(0.015625)"/>
       </defs>
       <use xlink:href="#ArialMT-32"/>
       <use xlink:href="#ArialMT-30" x="55.615234"/>
      </g>
     </g>
    </g>
    <g id="xtick_4">
     <g id="line2d_7">
      <path d="M 280.703282 185.393079 
L 280.703282 10.778906 
" clip-path="url(#p4289f7ae58)" style="fill: none; stroke: #b0b0b0; stroke-width: 0.8; stroke-linecap: square"/>
     </g>
     <g id="line2d_8">
      <g>
       <use xlink:href="#mf94fb34e06" x="280.703282" y="185.393079" style="stroke: #000000; stroke-width: 0.8"/>
      </g>
     </g>
     <g id="text_4">
      <!-- 30 -->
      <g transform="translate(275.142344 196.050892) scale(0.1 -0.1)">
       <defs>
        <path id="ArialMT-33" d="M 269 1209 
L 831 1284 
Q 928 806 1161 595 
Q 1394 384 1728 384 
Q 2125 384 2398 659 
Q 2672 934 2672 1341 
Q 2672 1728 2419 1979 
Q 2166 2231 1775 2231 
Q 1616 2231 1378 2169 
L 1441 2663 
Q 1497 2656 1531 2656 
Q 1891 2656 2178 2843 
Q 2466 3031 2466 3422 
Q 2466 3731 2256 3934 
Q 2047 4138 1716 4138 
Q 1388 4138 1169 3931 
Q 950 3725 888 3313 
L 325 3413 
Q 428 3978 793 4289 
Q 1159 4600 1703 4600 
Q 2078 4600 2393 4439 
Q 2709 4278 2876 4000 
Q 3044 3722 3044 3409 
Q 3044 3113 2884 2869 
Q 2725 2625 2413 2481 
Q 2819 2388 3044 2092 
Q 3269 1797 3269 1353 
Q 3269 753 2831 336 
Q 2394 -81 1725 -81 
Q 1122 -81 723 278 
Q 325 638 269 1209 
z
" transform="scale(0.015625)"/>
       </defs>
       <use xlink:href="#ArialMT-33"/>
       <use xlink:href="#ArialMT-30" x="55.615234"/>
      </g>
     </g>
    </g>
    <g id="xtick_5">
     <g id="line2d_9">
      <path d="M 360.58875 185.393079 
L 360.58875 10.778906 
" clip-path="url(#p4289f7ae58)" style="fill: none; stroke: #b0b0b0; stroke-width: 0.8; stroke-linecap: square"/>
     </g>
     <g id="line2d_10">
      <g>
       <use xlink:href="#mf94fb34e06" x="360.58875" y="185.393079" style="stroke: #000000; stroke-width: 0.8"/>
      </g>
     </g>
     <g id="text_5">
      <!-- 40 -->
      <g transform="translate(355.027813 196.050892) scale(0.1 -0.1)">
       <defs>
        <path id="ArialMT-34" d="M 2069 0 
L 2069 1097 
L 81 1097 
L 81 1613 
L 2172 4581 
L 2631 4581 
L 2631 1613 
L 3250 1613 
L 3250 1097 
L 2631 1097 
L 2631 0 
L 2069 0 
z
M 2069 1613 
L 2069 3678 
L 634 1613 
L 2069 1613 
z
" transform="scale(0.015625)"/>
       </defs>
       <use xlink:href="#ArialMT-34"/>
       <use xlink:href="#ArialMT-30" x="55.615234"/>
      </g>
     </g>
    </g>
    <g id="xtick_6">
     <g id="line2d_11">
      <path d="M 440.474219 185.393079 
L 440.474219 10.778906 
" clip-path="url(#p4289f7ae58)" style="fill: none; stroke: #b0b0b0; stroke-width: 0.8; stroke-linecap: square"/>
     </g>
     <g id="line2d_12">
      <g>
       <use xlink:href="#mf94fb34e06" x="440.474219" y="185.393079" style="stroke: #000000; stroke-width: 0.8"/>
      </g>
     </g>
     <g id="text_6">
      <!-- 50 -->
      <g transform="translate(434.913282 196.050892) scale(0.1 -0.1)">
       <defs>
        <path id="ArialMT-35" d="M 266 1200 
L 856 1250 
Q 922 819 1161 601 
Q 1400 384 1738 384 
Q 2144 384 2425 690 
Q 2706 997 2706 1503 
Q 2706 1984 2436 2262 
Q 2166 2541 1728 2541 
Q 1456 2541 1237 2417 
Q 1019 2294 894 2097 
L 366 2166 
L 809 4519 
L 3088 4519 
L 3088 3981 
L 1259 3981 
L 1013 2750 
Q 1425 3038 1878 3038 
Q 2478 3038 2890 2622 
Q 3303 2206 3303 1553 
Q 3303 931 2941 478 
Q 2500 -78 1738 -78 
Q 1113 -78 717 272 
Q 322 622 266 1200 
z
" transform="scale(0.015625)"/>
       </defs>
       <use xlink:href="#ArialMT-35"/>
       <use xlink:href="#ArialMT-30" x="55.615234"/>
      </g>
     </g>
    </g>
    <g id="text_7">
     <!-- Time (s) -->
     <g transform="translate(242.590508 209.318079) scale(0.1 -0.1)">
      <defs>
       <path id="ArialMT-54" d="M 1659 0 
L 1659 4041 
L 150 4041 
L 150 4581 
L 3781 4581 
L 3781 4041 
L 2266 4041 
L 2266 0 
L 1659 0 
z
" transform="scale(0.015625)"/>
       <path id="ArialMT-69" d="M 425 3934 
L 425 4581 
L 988 4581 
L 988 3934 
L 425 3934 
z
M 425 0 
L 425 3319 
L 988 3319 
L 988 0 
L 425 0 
z
" transform="scale(0.015625)"/>
       <path id="ArialMT-6d" d="M 422 0 
L 422 3319 
L 925 3319 
L 925 2853 
Q 1081 3097 1340 3245 
Q 1600 3394 1931 3394 
Q 2300 3394 2536 3241 
Q 2772 3088 2869 2813 
Q 3263 3394 3894 3394 
Q 4388 3394 4653 3120 
Q 4919 2847 4919 2278 
L 4919 0 
L 4359 0 
L 4359 2091 
Q 4359 2428 4304 2576 
Q 4250 2725 4106 2815 
Q 3963 2906 3769 2906 
Q 3419 2906 3187 2673 
Q 2956 2441 2956 1928 
L 2956 0 
L 2394 0 
L 2394 2156 
Q 2394 2531 2256 2718 
Q 2119 2906 1806 2906 
Q 1569 2906 1367 2781 
Q 1166 2656 1075 2415 
Q 984 2175 984 1722 
L 984 0 
L 422 0 
z
" transform="scale(0.015625)"/>
       <path id="ArialMT-65" d="M 2694 1069 
L 3275 997 
Q 3138 488 2766 206 
Q 2394 -75 1816 -75 
Q 1088 -75 661 373 
Q 234 822 234 1631 
Q 234 2469 665 2931 
Q 1097 3394 1784 3394 
Q 2450 3394 2872 2941 
Q 3294 2488 3294 1666 
Q 3294 1616 3291 1516 
L 816 1516 
Q 847 969 1125 678 
Q 1403 388 1819 388 
Q 2128 388 2347 550 
Q 2566 713 2694 1069 
z
M 847 1978 
L 2700 1978 
Q 2663 2397 2488 2606 
Q 2219 2931 1791 2931 
Q 1403 2931 1139 2672 
Q 875 2413 847 1978 
z
" transform="scale(0.015625)"/>
       <path id="ArialMT-20" transform="scale(0.015625)"/>
       <path id="ArialMT-28" d="M 1497 -1347 
Q 1031 -759 709 28 
Q 388 816 388 1659 
Q 388 2403 628 3084 
Q 909 3875 1497 4659 
L 1900 4659 
Q 1522 4009 1400 3731 
Q 1209 3300 1100 2831 
Q 966 2247 966 1656 
Q 966 153 1900 -1347 
L 1497 -1347 
z
" transform="scale(0.015625)"/>
       <path id="ArialMT-73" d="M 197 991 
L 753 1078 
Q 800 744 1014 566 
Q 1228 388 1613 388 
Q 2000 388 2187 545 
Q 2375 703 2375 916 
Q 2375 1106 2209 1216 
Q 2094 1291 1634 1406 
Q 1016 1563 777 1677 
Q 538 1791 414 1992 
Q 291 2194 291 2438 
Q 291 2659 392 2848 
Q 494 3038 669 3163 
Q 800 3259 1026 3326 
Q 1253 3394 1513 3394 
Q 1903 3394 2198 3281 
Q 2494 3169 2634 2976 
Q 2775 2784 2828 2463 
L 2278 2388 
Q 2241 2644 2061 2787 
Q 1881 2931 1553 2931 
Q 1166 2931 1000 2803 
Q 834 2675 834 2503 
Q 834 2394 903 2306 
Q 972 2216 1119 2156 
Q 1203 2125 1616 2013 
Q 2213 1853 2448 1751 
Q 2684 1650 2818 1456 
Q 2953 1263 2953 975 
Q 2953 694 2789 445 
Q 2625 197 2315 61 
Q 2006 -75 1616 -75 
Q 969 -75 630 194 
Q 291 463 197 991 
z
" transform="scale(0.015625)"/>
       <path id="ArialMT-29" d="M 791 -1347 
L 388 -1347 
Q 1322 153 1322 1656 
Q 1322 2244 1188 2822 
Q 1081 3291 891 3722 
Q 769 4003 388 4659 
L 791 4659 
Q 1378 3875 1659 3084 
Q 1900 2403 1900 1659 
Q 1900 816 1576 28 
Q 1253 -759 791 -1347 
z
" transform="scale(0.015625)"/>
      </defs>
      <use xlink:href="#ArialMT-54"/>
      <use xlink:href="#ArialMT-69" x="57.333984"/>
      <use xlink:href="#ArialMT-6d" x="79.550781"/>
      <use xlink:href="#ArialMT-65" x="162.851562"/>
      <use xlink:href="#ArialMT-20" x="218.466797"/>
      <use xlink:href="#ArialMT-28" x="246.25"/>
      <use xlink:href="#ArialMT-73" x="279.550781"/>
      <use xlink:href="#ArialMT-29" x="329.550781"/>
     </g>
    </g>
   </g>
   <g id="matplotlib.axis_2">
    <g id="ytick_1">
     <g id="line2d_13">
      <path d="M 41.046875 185.393079 
L 480.416954 185.393079 
" clip-path="url(#p4289f7ae58)" style="fill: none; stroke: #b0b0b0; stroke-width: 0.8; stroke-linecap: square"/>
     </g>
     <g id="line2d_14">
      <defs>
       <path id="medac2facb3" d="M 0 0 
L 3.5 0 
" style="stroke: #000000; stroke-width: 0.8"/>
      </defs>
      <g>
       <use xlink:href="#medac2facb3" x="41.046875" y="185.393079" style="stroke: #000000; stroke-width: 0.8"/>
      </g>
     </g>
     <g id="text_8">
      <!-- −15 -->
      <g transform="translate(20.584375 188.971986) scale(0.1 -0.1)">
       <defs>
        <path id="ArialMT-2212" d="M 3381 1997 
L 356 1997 
L 356 2522 
L 3381 2522 
L 3381 1997 
z
" transform="scale(0.015625)"/>
       </defs>
       <use xlink:href="#ArialMT-2212"/>
       <use xlink:href="#ArialMT-31" x="58.398438"/>
       <use xlink:href="#ArialMT-35" x="114.013672"/>
      </g>
     </g>
    </g>
    <g id="ytick_2">
     <g id="line2d_15">
      <path d="M 41.046875 156.290717 
L 480.416954 156.290717 
" clip-path="url(#p4289f7ae58)" style="fill: none; stroke: #b0b0b0; stroke-width: 0.8; stroke-linecap: square"/>
     </g>
     <g id="line2d_16">
      <g>
       <use xlink:href="#medac2facb3" x="41.046875" y="156.290717" style="stroke: #000000; stroke-width: 0.8"/>
      </g>
     </g>
     <g id="text_9">
      <!-- −10 -->
      <g transform="translate(20.584375 159.869624) scale(0.1 -0.1)">
       <use xlink:href="#ArialMT-2212"/>
       <use xlink:href="#ArialMT-31" x="58.398438"/>
       <use xlink:href="#ArialMT-30" x="114.013672"/>
      </g>
     </g>
    </g>
    <g id="ytick_3">
     <g id="line2d_17">
      <path d="M 41.046875 127.188355 
L 480.416954 127.188355 
" clip-path="url(#p4289f7ae58)" style="fill: none; stroke: #b0b0b0; stroke-width: 0.8; stroke-linecap: square"/>
     </g>
     <g id="line2d_18">
      <g>
       <use xlink:href="#medac2facb3" x="41.046875" y="127.188355" style="stroke: #000000; stroke-width: 0.8"/>
      </g>
     </g>
     <g id="text_10">
      <!-- −5 -->
      <g transform="translate(26.145313 130.767261) scale(0.1 -0.1)">
       <use xlink:href="#ArialMT-2212"/>
       <use xlink:href="#ArialMT-35" x="58.398438"/>
      </g>
     </g>
    </g>
    <g id="ytick_4">
     <g id="line2d_19">
      <path d="M 41.046875 98.085993 
L 480.416954 98.085993 
" clip-path="url(#p4289f7ae58)" style="fill: none; stroke: #b0b0b0; stroke-width: 0.8; stroke-linecap: square"/>
     </g>
     <g id="line2d_20">
      <g>
       <use xlink:href="#medac2facb3" x="41.046875" y="98.085993" style="stroke: #000000; stroke-width: 0.8"/>
      </g>
     </g>
     <g id="text_11">
      <!-- 0 -->
      <g transform="translate(31.985938 101.664899) scale(0.1 -0.1)">
       <use xlink:href="#ArialMT-30"/>
      </g>
     </g>
    </g>
    <g id="ytick_5">
     <g id="line2d_21">
      <path d="M 41.046875 68.983631 
L 480.416954 68.983631 
" clip-path="url(#p4289f7ae58)" style="fill: none; stroke: #b0b0b0; stroke-width: 0.8; stroke-linecap: square"/>
     </g>
     <g id="line2d_22">
      <g>
       <use xlink:href="#medac2facb3" x="41.046875" y="68.983631" style="stroke: #000000; stroke-width: 0.8"/>
      </g>
     </g>
     <g id="text_12">
      <!-- 5 -->
      <g transform="translate(31.985938 72.562537) scale(0.1 -0.1)">
       <use xlink:href="#ArialMT-35"/>
      </g>
     </g>
    </g>
    <g id="ytick_6">
     <g id="line2d_23">
      <path d="M 41.046875 39.881268 
L 480.416954 39.881268 
" clip-path="url(#p4289f7ae58)" style="fill: none; stroke: #b0b0b0; stroke-width: 0.8; stroke-linecap: square"/>
     </g>
     <g id="line2d_24">
      <g>
       <use xlink:href="#medac2facb3" x="41.046875" y="39.881268" style="stroke: #000000; stroke-width: 0.8"/>
      </g>
     </g>
     <g id="text_13">
      <!-- 10 -->
      <g transform="translate(26.425 43.460175) scale(0.1 -0.1)">
       <use xlink:href="#ArialMT-31"/>
       <use xlink:href="#ArialMT-30" x="55.615234"/>
      </g>
     </g>
    </g>
    <g id="ytick_7">
     <g id="line2d_25">
      <path d="M 41.046875 10.778906 
L 480.416954 10.778906 
" clip-path="url(#p4289f7ae58)" style="fill: none; stroke: #b0b0b0; stroke-width: 0.8; stroke-linecap: square"/>
     </g>
     <g id="line2d_26">
      <g>
       <use xlink:href="#medac2facb3" x="41.046875" y="10.778906" style="stroke: #000000; stroke-width: 0.8"/>
      </g>
     </g>
     <g id="text_14">
      <!-- 15 -->
      <g transform="translate(26.425 14.357812) scale(0.1 -0.1)">
       <use xlink:href="#ArialMT-31"/>
       <use xlink:href="#ArialMT-35" x="55.615234"/>
      </g>
     </g>
    </g>
    <g id="text_15">
     <!-- Displacement (cm) -->
     <g transform="translate(14.479688 139.758649) rotate(-90) scale(0.1 -0.1)">
      <defs>
       <path id="ArialMT-44" d="M 494 0 
L 494 4581 
L 2072 4581 
Q 2606 4581 2888 4516 
Q 3281 4425 3559 4188 
Q 3922 3881 4101 3404 
Q 4281 2928 4281 2316 
Q 4281 1794 4159 1391 
Q 4038 988 3847 723 
Q 3656 459 3429 307 
Q 3203 156 2883 78 
Q 2563 0 2147 0 
L 494 0 
z
M 1100 541 
L 2078 541 
Q 2531 541 2789 625 
Q 3047 709 3200 863 
Q 3416 1078 3536 1442 
Q 3656 1806 3656 2325 
Q 3656 3044 3420 3430 
Q 3184 3816 2847 3947 
Q 2603 4041 2063 4041 
L 1100 4041 
L 1100 541 
z
" transform="scale(0.015625)"/>
       <path id="ArialMT-70" d="M 422 -1272 
L 422 3319 
L 934 3319 
L 934 2888 
Q 1116 3141 1344 3267 
Q 1572 3394 1897 3394 
Q 2322 3394 2647 3175 
Q 2972 2956 3137 2557 
Q 3303 2159 3303 1684 
Q 3303 1175 3120 767 
Q 2938 359 2589 142 
Q 2241 -75 1856 -75 
Q 1575 -75 1351 44 
Q 1128 163 984 344 
L 984 -1272 
L 422 -1272 
z
M 931 1641 
Q 931 1000 1190 694 
Q 1450 388 1819 388 
Q 2194 388 2461 705 
Q 2728 1022 2728 1688 
Q 2728 2322 2467 2637 
Q 2206 2953 1844 2953 
Q 1484 2953 1207 2617 
Q 931 2281 931 1641 
z
" transform="scale(0.015625)"/>
       <path id="ArialMT-6c" d="M 409 0 
L 409 4581 
L 972 4581 
L 972 0 
L 409 0 
z
" transform="scale(0.015625)"/>
       <path id="ArialMT-61" d="M 2588 409 
Q 2275 144 1986 34 
Q 1697 -75 1366 -75 
Q 819 -75 525 192 
Q 231 459 231 875 
Q 231 1119 342 1320 
Q 453 1522 633 1644 
Q 813 1766 1038 1828 
Q 1203 1872 1538 1913 
Q 2219 1994 2541 2106 
Q 2544 2222 2544 2253 
Q 2544 2597 2384 2738 
Q 2169 2928 1744 2928 
Q 1347 2928 1158 2789 
Q 969 2650 878 2297 
L 328 2372 
Q 403 2725 575 2942 
Q 747 3159 1072 3276 
Q 1397 3394 1825 3394 
Q 2250 3394 2515 3294 
Q 2781 3194 2906 3042 
Q 3031 2891 3081 2659 
Q 3109 2516 3109 2141 
L 3109 1391 
Q 3109 606 3145 398 
Q 3181 191 3288 0 
L 2700 0 
Q 2613 175 2588 409 
z
M 2541 1666 
Q 2234 1541 1622 1453 
Q 1275 1403 1131 1340 
Q 988 1278 909 1158 
Q 831 1038 831 891 
Q 831 666 1001 516 
Q 1172 366 1500 366 
Q 1825 366 2078 508 
Q 2331 650 2450 897 
Q 2541 1088 2541 1459 
L 2541 1666 
z
" transform="scale(0.015625)"/>
       <path id="ArialMT-63" d="M 2588 1216 
L 3141 1144 
Q 3050 572 2676 248 
Q 2303 -75 1759 -75 
Q 1078 -75 664 370 
Q 250 816 250 1647 
Q 250 2184 428 2587 
Q 606 2991 970 3192 
Q 1334 3394 1763 3394 
Q 2303 3394 2647 3120 
Q 2991 2847 3088 2344 
L 2541 2259 
Q 2463 2594 2264 2762 
Q 2066 2931 1784 2931 
Q 1359 2931 1093 2626 
Q 828 2322 828 1663 
Q 828 994 1084 691 
Q 1341 388 1753 388 
Q 2084 388 2306 591 
Q 2528 794 2588 1216 
z
" transform="scale(0.015625)"/>
       <path id="ArialMT-6e" d="M 422 0 
L 422 3319 
L 928 3319 
L 928 2847 
Q 1294 3394 1984 3394 
Q 2284 3394 2536 3286 
Q 2788 3178 2913 3003 
Q 3038 2828 3088 2588 
Q 3119 2431 3119 2041 
L 3119 0 
L 2556 0 
L 2556 2019 
Q 2556 2363 2490 2533 
Q 2425 2703 2258 2804 
Q 2091 2906 1866 2906 
Q 1506 2906 1245 2678 
Q 984 2450 984 1813 
L 984 0 
L 422 0 
z
" transform="scale(0.015625)"/>
       <path id="ArialMT-74" d="M 1650 503 
L 1731 6 
Q 1494 -44 1306 -44 
Q 1000 -44 831 53 
Q 663 150 594 308 
Q 525 466 525 972 
L 525 2881 
L 113 2881 
L 113 3319 
L 525 3319 
L 525 4141 
L 1084 4478 
L 1084 3319 
L 1650 3319 
L 1650 2881 
L 1084 2881 
L 1084 941 
Q 1084 700 1114 631 
Q 1144 563 1211 522 
Q 1278 481 1403 481 
Q 1497 481 1650 503 
z
" transform="scale(0.015625)"/>
      </defs>
      <use xlink:href="#ArialMT-44"/>
      <use xlink:href="#ArialMT-69" x="72.216797"/>
      <use xlink:href="#ArialMT-73" x="94.433594"/>
      <use xlink:href="#ArialMT-70" x="144.433594"/>
      <use xlink:href="#ArialMT-6c" x="200.048828"/>
      <use xlink:href="#ArialMT-61" x="222.265625"/>
      <use xlink:href="#ArialMT-63" x="277.880859"/>
      <use xlink:href="#ArialMT-65" x="327.880859"/>
      <use xlink:href="#ArialMT-6d" x="383.496094"/>
      <use xlink:href="#ArialMT-65" x="466.796875"/>
      <use xlink:href="#ArialMT-6e" x="522.412109"/>
      <use xlink:href="#ArialMT-74" x="578.027344"/>
      <use xlink:href="#ArialMT-20" x="605.810547"/>
      <use xlink:href="#ArialMT-28" x="633.59375"/>
      <use xlink:href="#ArialMT-63" x="666.894531"/>
      <use xlink:href="#ArialMT-6d" x="716.894531"/>
      <use xlink:href="#ArialMT-29" x="800.195312"/>
     </g>
    </g>
   </g>
   <g id="line2d_27">
    <path d="M 41.046875 98.085993 
L 43.443439 97.98069 
L 46.638858 97.851997 
L 48.236567 97.728226 
L 49.834277 97.649335 
L 50.633131 97.807207 
L 52.630268 98.766843 
L 53.429123 98.687563 
L 54.227977 98.548897 
L 55.426259 98.542686 
L 56.624541 98.226319 
L 57.023969 97.901936 
L 57.822823 97.460429 
L 58.222251 97.105299 
L 58.621678 97.06868 
L 59.420533 97.46588 
L 59.81996 97.504511 
L 60.618815 97.231855 
L 61.018242 96.952679 
L 61.41767 96.835814 
L 62.216524 97.167214 
L 63.015379 97.485808 
L 63.814234 97.502391 
L 65.411943 98.072118 
L 65.81137 98.29403 
L 67.009652 98.433762 
L 67.808507 98.025633 
L 68.207934 98.637551 
L 69.406216 102.574536 
L 69.805644 102.902997 
L 70.205071 102.233598 
L 71.403353 97.703048 
L 71.802781 97.394304 
L 72.202208 97.423938 
L 72.601635 97.690031 
L 73.001063 98.175532 
L 73.40049 98.918439 
L 73.799917 98.835494 
L 75.397627 97.002284 
L 76.196481 96.89777 
L 76.595909 96.550792 
L 77.394763 94.083818 
L 77.794191 93.639032 
L 78.193618 94.153433 
L 78.593045 95.131508 
L 79.3919 98.300237 
L 79.791327 98.770348 
L 80.190755 98.614455 
L 80.989609 97.795478 
L 81.389037 98.026321 
L 81.788464 98.634792 
L 82.986746 101.578171 
L 83.386173 101.4397 
L 83.785601 100.933446 
L 84.185028 100.664123 
L 84.584456 101.3356 
L 85.38331 103.313406 
L 86.182165 104.834332 
L 86.581592 104.253053 
L 87.380447 101.103815 
L 88.179302 99.410836 
L 88.978156 96.122726 
L 90.575866 89.702893 
L 90.975293 90.185491 
L 92.173575 95.488164 
L 92.573002 95.565952 
L 92.97243 94.61935 
L 93.371857 93.37464 
L 93.771284 92.531276 
L 94.170712 92.601026 
L 94.570139 94.360429 
L 95.368994 99.393934 
L 95.768421 101.034435 
L 96.167849 101.088146 
L 96.567276 99.786441 
L 96.966703 99.252463 
L 97.366131 99.571325 
L 97.765558 99.525105 
L 98.564413 102.457442 
L 98.96384 102.082112 
L 99.363267 100.329934 
L 99.762695 99.156245 
L 100.162122 99.237066 
L 100.561549 100.647228 
L 100.960977 104.153458 
L 101.360404 108.738612 
L 101.759831 111.536904 
L 102.159259 110.945457 
L 102.558686 107.84011 
L 104.156395 85.435176 
L 104.555823 85.16938 
L 106.952387 94.160051 
L 108.150669 104.680861 
L 108.550096 105.160432 
L 108.949524 102.275763 
L 109.748378 94.745688 
L 110.147806 94.955222 
L 110.547233 98.165027 
L 111.745515 112.774651 
L 112.144942 113.023407 
L 112.54437 109.215901 
L 113.343224 98.639156 
L 113.742652 94.631155 
L 114.142079 92.291221 
L 114.541506 91.622622 
L 114.940934 91.864543 
L 115.340361 92.793285 
L 115.739788 92.918419 
L 116.139216 92.675923 
L 116.538643 93.903675 
L 117.736925 103.464413 
L 118.136352 103.405713 
L 118.53578 100.435317 
L 119.734062 82.374575 
L 120.133489 80.391255 
L 120.532917 81.849516 
L 121.331771 90.8872 
L 121.731199 93.298132 
L 122.130626 93.651816 
L 122.530053 94.213297 
L 122.929481 94.286193 
L 123.328908 94.623034 
L 124.127763 97.914361 
L 124.52719 98.946855 
L 124.926617 99.01319 
L 125.725472 95.961992 
L 126.124899 97.941244 
L 127.722609 117.607243 
L 128.122036 117.817258 
L 128.521463 113.645136 
L 129.719745 94.785541 
L 130.119173 93.006393 
L 130.5186 92.869462 
L 130.918027 93.833586 
L 131.317455 94.319702 
L 131.716882 93.715438 
L 132.515737 88.070752 
L 132.915164 87.554364 
L 133.314592 89.480806 
L 134.113446 96.303931 
L 134.512874 97.423868 
L 134.912301 96.693899 
L 135.711156 91.508943 
L 136.110583 90.754773 
L 136.51001 92.251786 
L 136.909438 96.750932 
L 138.10772 114.568376 
L 138.507147 117.967989 
L 138.906574 118.982361 
L 139.306002 117.184335 
L 139.705429 114.673193 
L 140.504284 108.401021 
L 141.303138 105.577605 
L 141.702566 104.478007 
L 142.101993 104.778491 
L 143.300275 113.297915 
L 143.699702 114.321797 
L 144.09913 113.584682 
L 144.498557 110.023294 
L 146.096267 89.905151 
L 146.895121 83.345173 
L 147.294549 81.520937 
L 147.693976 81.187275 
L 148.093403 81.202878 
L 148.492831 81.474744 
L 148.892258 82.072923 
L 149.291685 82.070787 
L 150.09054 79.767303 
L 150.889395 76.591236 
L 151.288822 76.911877 
L 151.688249 79.751314 
L 152.487104 90.566532 
L 153.285959 101.790819 
L 153.685386 105.078225 
L 154.084813 105.950371 
L 154.484241 105.363407 
L 154.883668 105.02747 
L 156.481378 110.665616 
L 156.880805 111.508882 
L 157.280232 110.759809 
L 159.676796 99.901453 
L 160.076224 97.794897 
L 160.475651 96.458822 
L 160.875078 96.530759 
L 161.274506 96.812975 
L 161.673933 95.952505 
L 162.07336 94.808383 
L 162.472788 93.139949 
L 163.67107 83.23312 
L 164.070497 82.73701 
L 164.469924 84.514159 
L 165.268779 92.074942 
L 165.668206 93.672136 
L 166.067634 93.41386 
L 166.467061 91.785717 
L 167.265916 85.50948 
L 167.665343 85.41752 
L 168.06477 87.381236 
L 168.464198 90.316037 
L 169.263053 97.978649 
L 169.66248 99.049819 
L 170.461335 99.596641 
L 170.860762 100.162954 
L 171.260189 102.122246 
L 172.059044 110.019564 
L 172.458471 112.552785 
L 172.857899 113.229356 
L 173.656753 111.785228 
L 174.056181 112.608679 
L 175.254463 121.453243 
L 175.65389 122.483065 
L 176.053317 121.613729 
L 176.452745 118.755353 
L 177.251599 111.385257 
L 177.651027 109.650063 
L 178.050454 108.867267 
L 178.449881 108.358262 
L 178.849309 107.123586 
L 179.248736 104.497459 
L 179.648163 99.404936 
L 180.846446 80.53245 
L 181.245873 78.737737 
L 181.6453 79.229151 
L 182.444155 81.884739 
L 182.843582 81.45154 
L 184.041864 74.457501 
L 184.441292 73.460601 
L 184.840719 74.237366 
L 185.639574 78.52389 
L 186.039001 80.156653 
L 186.837856 84.711397 
L 187.237283 87.227039 
L 187.63671 90.819622 
L 188.834992 105.872344 
L 189.23442 109.006319 
L 189.633847 111.054596 
L 190.832129 114.019115 
L 191.231556 116.203411 
L 192.030411 122.20451 
L 192.429838 124.118602 
L 192.829266 124.705716 
L 193.228693 123.94118 
L 194.027548 119.5573 
L 195.625257 107.895001 
L 197.222967 94.096341 
L 198.820676 85.05747 
L 199.619531 79.210162 
L 200.018958 77.525965 
L 200.418385 76.763845 
L 200.817813 76.858149 
L 201.21724 78.329315 
L 201.616667 80.383679 
L 202.016095 81.739119 
L 202.415522 82.487514 
L 203.613804 85.804426 
L 204.013231 87.254786 
L 205.211514 94.799002 
L 206.409796 99.734244 
L 206.809223 100.707296 
L 208.406932 106.126379 
L 210.404069 116.309484 
L 210.803496 116.920254 
L 211.202924 116.060874 
L 211.602351 114.291628 
L 212.001778 111.870182 
L 212.800633 105.699053 
L 213.20006 103.890343 
L 213.599488 102.91128 
L 214.398342 101.459407 
L 214.79777 99.97959 
L 215.197197 97.691034 
L 216.395479 89.058364 
L 216.794906 87.306491 
L 217.194334 86.699856 
L 217.593761 86.800807 
L 218.392616 87.378358 
L 218.792043 87.584621 
L 219.191471 88.311924 
L 219.590898 89.76588 
L 220.389753 94.53617 
L 221.188607 100.068169 
L 221.588035 101.676974 
L 221.987462 102.404865 
L 222.786317 103.33886 
L 223.585171 105.221528 
L 224.384026 107.975391 
L 224.783453 108.438862 
L 225.182881 107.561494 
L 225.582308 105.076089 
L 227.978872 84.690888 
L 228.777727 79.820337 
L 229.177154 77.298009 
L 229.576582 75.636998 
L 229.976009 74.498702 
L 230.375436 73.834958 
L 230.774864 74.553327 
L 231.174291 76.467858 
L 231.973146 82.264638 
L 233.570855 97.991405 
L 235.967419 129.064149 
L 236.766274 134.274757 
L 237.165701 135.574065 
L 237.565128 135.92835 
L 237.964556 135.314023 
L 238.363983 133.617529 
L 238.76341 131.061855 
L 239.162838 127.640437 
L 239.961692 118.01784 
L 243.157111 73.943488 
L 243.955966 66.470829 
L 244.355393 64.361572 
L 244.754821 63.015409 
L 245.154248 62.539791 
L 245.553675 62.9765 
L 245.953103 64.262443 
L 246.35253 66.189498 
L 247.151385 72.247505 
L 247.950239 80.8961 
L 251.545085 123.468335 
L 251.944513 126.498969 
L 252.34394 128.580599 
L 252.743367 129.552345 
L 253.142795 129.37169 
L 253.542222 128.154811 
L 253.94165 125.962156 
L 254.740504 119.328232 
L 255.539359 110.55538 
L 256.737641 94.380975 
L 257.935923 77.230204 
L 258.734778 69.396527 
L 259.134205 67.178072 
L 259.533632 66.236975 
L 259.93306 66.470354 
L 260.332487 67.385889 
L 260.731914 69.182725 
L 261.131342 72.013046 
L 261.930196 80.956425 
L 262.729051 92.943158 
L 264.32676 118.119323 
L 265.125615 127.84055 
L 265.92447 134.740372 
L 266.323897 136.268614 
L 266.723325 136.239111 
L 267.122752 134.484514 
L 267.522179 131.025597 
L 268.321034 120.560067 
L 269.519316 100.779318 
L 271.91588 57.639719 
L 272.315307 53.740849 
L 272.714735 51.634099 
L 273.114162 51.272975 
L 273.513589 52.372701 
L 273.913017 54.939932 
L 274.312444 59.01445 
L 275.111299 71.952653 
L 275.910153 90.43242 
L 277.108435 120.150634 
L 277.90729 135.956074 
L 278.706145 147.559753 
L 279.105572 151.591669 
L 279.505 154.224513 
L 279.904427 154.978594 
L 280.303854 153.544325 
L 280.703282 149.879925 
L 281.102709 144.141027 
L 281.901564 127.739844 
L 283.099846 95.85393 
L 284.298128 63.873091 
L 285.096982 48.201754 
L 285.49641 43.069496 
L 285.895837 39.942 
L 286.295264 38.718468 
L 286.694692 39.144995 
L 287.094119 41.148618 
L 287.493546 44.796344 
L 287.892974 50.276545 
L 288.691828 66.21158 
L 291.887247 144.375927 
L 292.286675 149.55837 
L 292.686102 152.851375 
L 293.085529 154.252823 
L 293.484957 153.742384 
L 293.884384 151.38187 
L 294.283811 147.406578 
L 295.082666 135.909985 
L 295.881521 121.362455 
L 297.079803 94.075521 
L 298.278085 65.764685 
L 299.076939 52.606783 
L 299.476367 48.523325 
L 299.875794 46.198374 
L 300.275221 45.534483 
L 300.674649 46.58696 
L 301.074076 49.17058 
L 301.473503 52.992049 
L 302.272358 64.099851 
L 303.071213 79.595312 
L 305.467777 131.011185 
L 306.266632 141.852668 
L 306.666059 144.926737 
L 307.065486 146.307868 
L 307.464914 146.019913 
L 307.864341 144.097514 
L 308.263768 140.592648 
L 309.062623 129.381818 
L 310.260905 105.76826 
L 311.858614 72.982286 
L 312.657469 61.080904 
L 313.056896 57.055938 
L 313.456324 54.497861 
L 313.855751 53.466493 
L 314.255179 54.049212 
L 314.654606 56.210554 
L 315.054033 59.832985 
L 315.852888 70.808648 
L 317.05117 93.634333 
L 318.249452 117.427917 
L 319.048307 129.847224 
L 319.847161 137.930198 
L 320.246589 140.024595 
L 320.646016 140.843992 
L 321.045443 140.327462 
L 321.444871 138.488115 
L 321.844298 135.487128 
L 322.643153 126.644803 
L 323.442007 114.431029 
L 325.838571 74.519634 
L 326.637426 65.563453 
L 327.036854 62.454056 
L 327.436281 60.39937 
L 327.835708 59.466588 
L 328.235136 59.633707 
L 328.634563 61.003453 
L 329.03399 63.476461 
L 329.832845 71.243686 
L 331.031127 87.50508 
L 333.827118 129.361754 
L 334.226546 133.339965 
L 334.625973 136.174608 
L 335.0254 137.703041 
L 335.424828 138.011579 
L 335.824255 137.063238 
L 336.223682 134.81818 
L 336.62311 131.321315 
L 337.421964 121.030679 
L 338.620247 99.887989 
L 340.217956 69.826148 
L 341.016811 58.220573 
L 341.416238 54.244709 
L 341.815665 51.772079 
L 342.215093 50.884261 
L 342.61452 51.539729 
L 343.013947 53.699884 
L 343.413375 57.419371 
L 344.212229 69.298063 
L 345.011084 85.934414 
L 347.008221 131.357931 
L 347.807075 144.114403 
L 348.206503 148.61056 
L 348.60593 151.61899 
L 349.005357 153.120646 
L 349.404785 152.87843 
L 349.804212 150.59843 
L 350.203639 146.292981 
L 351.002494 132.453028 
L 351.801349 113.167932 
L 353.798486 59.918087 
L 354.59734 44.831015 
L 354.996768 39.816113 
L 355.396195 36.746462 
L 355.795622 35.633919 
L 356.19505 36.379929 
L 356.594477 38.935034 
L 356.993904 43.225724 
L 357.792759 56.674371 
L 358.591614 75.584681 
L 360.988178 137.940256 
L 361.787032 151.660033 
L 362.18646 156.169864 
L 362.585887 158.941807 
L 362.985315 159.983799 
L 363.384742 159.250306 
L 363.784169 156.731282 
L 364.183597 152.519441 
L 364.982451 139.463397 
L 365.781306 121.724596 
L 368.17787 63.331876 
L 368.976725 49.588874 
L 369.376152 44.796966 
L 369.775579 41.564404 
L 370.175007 40.066694 
L 370.574434 40.430773 
L 370.973861 42.660766 
L 371.373289 46.750671 
L 372.172143 59.831944 
L 373.370425 87.290972 
L 374.968135 124.575821 
L 375.76699 139.347187 
L 376.565844 148.992452 
L 376.965272 151.569399 
L 377.364699 152.58554 
L 377.764126 151.920961 
L 378.163554 149.582589 
L 378.562981 145.603361 
L 379.361836 132.934915 
L 380.560118 105.57172 
L 381.7584 77.334374 
L 382.557254 62.170253 
L 383.356109 51.097919 
L 383.755536 47.45692 
L 384.154964 45.270519 
L 384.554391 44.648725 
L 384.953818 45.717577 
L 385.353246 48.466701 
L 385.752673 52.878296 
L 386.551528 66.207944 
L 387.350383 84.521971 
L 388.948092 124.685986 
L 389.746947 139.557755 
L 390.146374 144.78292 
L 390.545801 148.532526 
L 390.945229 150.887507 
L 391.344656 151.895227 
L 391.744083 151.523366 
L 392.143511 149.629388 
L 392.542938 146.132922 
L 392.942365 141.085476 
L 393.74122 126.730267 
L 395.338929 89.293797 
L 396.537211 64.240115 
L 397.336066 53.32009 
L 397.735493 50.129864 
L 398.134921 48.477308 
L 398.534348 48.295058 
L 398.933776 49.465235 
L 399.333203 51.883911 
L 399.73263 55.492332 
L 400.531485 66.068127 
L 401.33034 80.432192 
L 403.726904 127.124437 
L 404.525758 136.904909 
L 404.925186 139.902468 
L 405.324613 141.435287 
L 405.72404 141.431562 
L 406.123468 139.889179 
L 406.522895 136.981632 
L 407.32175 128.130784 
L 408.120604 116.579575 
L 409.318886 95.867316 
L 410.517168 74.758361 
L 411.316023 63.914966 
L 411.715451 60.118936 
L 412.114878 57.588513 
L 412.514305 56.355586 
L 412.913733 56.410548 
L 413.31316 57.746492 
L 413.712587 60.347536 
L 414.112015 64.161404 
L 414.910869 74.933533 
L 418.505715 132.534029 
L 418.905143 136.563405 
L 419.30457 139.34182 
L 419.703997 140.750558 
L 420.103425 140.75234 
L 420.502852 139.40735 
L 420.902279 136.809065 
L 421.701134 128.290823 
L 422.499989 116.17035 
L 424.896553 75.41834 
L 425.695408 65.00885 
L 426.494262 57.612387 
L 426.89369 55.509112 
L 427.293117 54.701365 
L 427.692544 55.251486 
L 428.091972 57.16643 
L 428.491399 60.405007 
L 429.290254 70.364229 
L 430.089108 83.913799 
L 432.485672 128.783113 
L 433.284527 139.654964 
L 433.683954 143.596574 
L 434.083382 146.333207 
L 434.482809 147.764646 
L 434.882236 147.773677 
L 435.281664 146.1854 
L 435.681091 142.952119 
L 436.080519 138.175589 
L 436.879373 124.633036 
L 438.077655 97.7039 
L 439.275937 70.294563 
L 440.074792 55.546619 
L 440.873647 45.544103 
L 441.273074 42.673122 
L 441.672501 41.434631 
L 442.071929 41.918375 
L 442.471356 44.127907 
L 442.870783 48.035728 
L 443.669638 60.710508 
L 444.468493 78.562295 
L 446.865057 137.814038 
L 447.663912 150.565569 
L 448.063339 154.649774 
L 448.462766 157.091303 
L 448.862194 157.886555 
L 449.261621 156.971427 
L 449.661048 154.292067 
L 450.060476 149.890577 
L 450.85933 136.337422 
L 451.658185 117.789404 
L 454.054749 58.200906 
L 454.853604 45.505713 
L 455.253031 41.526636 
L 455.652458 39.266325 
L 456.051886 38.74458 
L 456.451313 39.936599 
L 456.85074 42.794213 
L 457.250168 47.235836 
L 458.049022 60.483981 
L 459.247304 88.239042 
L 460.845014 127.342976 
L 461.643869 142.173015 
L 462.043296 147.575307 
L 462.442723 151.437383 
L 462.842151 153.647138 
L 463.241578 154.15339 
L 463.641005 152.973871 
L 464.040433 150.164061 
L 464.43986 145.81129 
L 465.238715 132.976974 
L 466.436997 106.515134 
L 468.034706 69.579668 
L 468.833561 55.530091 
L 469.232988 50.454199 
L 469.632415 46.892251 
L 470.031843 44.937485 
L 470.43127 44.638789 
L 470.830697 46.001486 
L 471.230125 48.983977 
L 471.629552 53.495935 
L 472.428407 66.495741 
L 473.626689 92.500613 
L 475.224398 127.730375 
L 476.023253 140.777782 
L 476.42268 145.400706 
L 476.822108 148.550328 
L 477.221535 150.118244 
L 477.620962 150.048442 
L 478.02039 148.342993 
L 478.419817 145.054106 
L 478.819244 140.277341 
L 479.618099 126.878535 
L 480.416954 109.923587 
L 480.416954 109.923587 
" clip-path="url(#p4289f7ae58)" style="fill: none; stroke: #000000; stroke-width: 1.2; stroke-linecap: square"/>
   </g>
   <g id="line2d_28">
    <path d="M 41.046875 98.088791 
L 42.644584 98.028266 
L 46.23943 97.850787 
L 46.638858 97.774558 
L 47.038285 97.880207 
L 47.437713 97.755546 
L 47.83714 97.86231 
L 49.035422 97.687583 
L 49.434849 97.830595 
L 49.834277 97.677904 
L 50.233704 97.779812 
L 50.633131 98.008597 
L 51.032559 98.028513 
L 51.831413 98.456228 
L 52.230841 98.815049 
L 52.630268 98.912457 
L 53.029695 98.556965 
L 53.429123 98.613984 
L 53.82855 98.165477 
L 54.227977 98.395885 
L 54.627405 98.305697 
L 55.026832 98.852664 
L 55.426259 98.551623 
L 55.825687 98.679058 
L 56.225114 98.604543 
L 56.624541 98.240494 
L 57.023969 98.568069 
L 57.423396 97.758925 
L 57.822823 97.667226 
L 59.021105 96.898471 
L 59.81996 97.855704 
L 60.219388 97.833913 
L 60.618815 97.330001 
L 61.018242 97.017992 
L 61.41767 96.923593 
L 62.216524 97.267376 
L 62.615952 97.635538 
L 63.414806 97.559196 
L 63.814234 97.193944 
L 64.213661 97.6684 
L 64.613088 96.938406 
L 65.411943 98.920178 
L 65.81137 98.874602 
L 66.210798 99.106745 
L 67.009652 98.544628 
L 67.40908 98.352931 
L 67.808507 98.407714 
L 68.607362 100.798286 
L 69.006789 101.146272 
L 69.406216 103.037877 
L 69.805644 101.961083 
L 70.205071 102.406943 
L 70.604498 99.56526 
L 71.003926 100.024434 
L 71.403353 97.450201 
L 71.802781 98.288022 
L 72.202208 97.812051 
L 72.601635 98.09579 
L 73.001063 98.077693 
L 73.40049 97.070439 
L 73.799917 99.316872 
L 74.199345 97.336896 
L 74.598772 100.04007 
L 74.998199 97.973709 
L 75.397627 98.470952 
L 75.797054 97.181963 
L 76.196481 97.231958 
L 76.595909 95.989111 
L 76.995336 95.971986 
L 77.394763 94.459428 
L 77.794191 94.891577 
L 78.193618 94.723661 
L 78.593045 95.757887 
L 78.992473 96.259146 
L 79.3919 97.871238 
L 79.791327 98.989016 
L 80.190755 97.251043 
L 80.590182 97.442316 
L 81.389037 96.226454 
L 81.788464 96.765847 
L 82.587319 101.578766 
L 82.986746 100.967616 
L 83.386173 102.537412 
L 83.785601 101.434587 
L 84.185028 102.568479 
L 84.584456 102.436377 
L 84.983883 103.923323 
L 85.38331 104.841582 
L 85.782738 105.41404 
L 86.182165 104.153674 
L 86.581592 102.126115 
L 86.98102 101.528483 
L 87.380447 99.804638 
L 87.779874 99.508748 
L 88.179302 99.580383 
L 88.578729 96.124961 
L 88.978156 95.638544 
L 89.377584 92.79536 
L 89.777011 91.506896 
L 90.176438 91.076605 
L 90.975293 91.853949 
L 91.37472 92.83034 
L 91.774148 95.04015 
L 92.173575 94.052401 
L 92.573002 94.842247 
L 92.97243 92.43964 
L 93.371857 93.258876 
L 93.771284 91.124439 
L 94.170712 92.81739 
L 94.570139 93.134436 
L 94.969566 95.589786 
L 95.368994 99.277084 
L 95.768421 100.234323 
L 96.167849 101.510102 
L 96.567276 100.549977 
L 96.966703 100.650892 
L 97.366131 99.087365 
L 97.765558 103.173836 
L 98.164985 98.444679 
L 98.564413 101.910822 
L 98.96384 99.302388 
L 99.363267 99.99542 
L 99.762695 97.395748 
L 100.162122 98.142153 
L 100.561549 101.744346 
L 100.960977 102.65937 
L 101.360404 109.3871 
L 101.759831 109.080856 
L 102.159259 113.003496 
L 102.558686 106.813125 
L 102.958113 105.405068 
L 103.357541 96.45116 
L 103.756968 91.652059 
L 104.555823 85.56763 
L 104.95525 86.206662 
L 105.354677 86.480722 
L 105.754105 89.55137 
L 106.153532 89.482065 
L 106.552959 94.602904 
L 106.952387 96.120642 
L 108.150669 104.479929 
L 108.550096 102.880916 
L 108.949524 102.855874 
L 109.348951 96.898061 
L 109.748378 94.792283 
L 110.147806 93.536846 
L 110.547233 100.343764 
L 110.94666 103.967111 
L 111.346088 110.543757 
L 111.745515 113.961334 
L 112.144942 111.10037 
L 112.54437 109.86631 
L 113.343224 99.377838 
L 113.742652 94.06553 
L 114.142079 95.269076 
L 114.541506 88.574257 
L 114.940934 91.238055 
L 115.340361 87.54559 
L 115.739788 92.081371 
L 116.139216 92.244184 
L 116.538643 98.997973 
L 116.93807 98.098844 
L 117.337498 105.279986 
L 117.736925 103.101963 
L 118.136352 104.560776 
L 118.53578 98.55985 
L 118.935207 94.24403 
L 119.334634 85.377681 
L 119.734062 82.345783 
L 120.133489 81.88301 
L 120.532917 83.081464 
L 120.932344 86.438856 
L 121.331771 86.107675 
L 121.731199 93.165987 
L 122.530053 98.282261 
L 122.929481 96.621584 
L 123.328908 97.642032 
L 123.728335 96.935253 
L 124.127763 97.366823 
L 124.52719 96.930699 
L 124.926617 96.151396 
L 125.326045 94.30547 
L 126.124899 97.230735 
L 126.923754 111.939 
L 127.323181 113.722633 
L 127.722609 118.363826 
L 128.521463 114.652832 
L 128.920891 105.814323 
L 129.320318 103.897898 
L 130.119173 90.684824 
L 130.5186 92.47723 
L 130.918027 86.289565 
L 131.317455 93.246684 
L 131.716882 90.533565 
L 132.11631 96.493198 
L 132.515737 92.873525 
L 132.915164 95.700077 
L 133.314592 94.482104 
L 133.714019 95.455621 
L 134.113446 95.811658 
L 134.512874 93.630352 
L 134.912301 94.837149 
L 135.311728 90.956719 
L 135.711156 92.468641 
L 136.110583 88.181706 
L 136.51001 92.689731 
L 136.909438 95.7433 
L 137.308865 104.015802 
L 137.708292 109.115567 
L 138.10772 116.091266 
L 138.507147 117.441386 
L 138.906574 121.63351 
L 139.306002 120.785769 
L 139.705429 116.029449 
L 140.104856 113.844023 
L 140.504284 106.609371 
L 141.303138 99.723646 
L 141.702566 101.117962 
L 142.101993 103.544685 
L 142.50142 104.676451 
L 142.900848 111.563702 
L 143.300275 113.11692 
L 143.699702 117.321919 
L 144.09913 113.142451 
L 144.498557 112.348994 
L 144.897985 102.031367 
L 145.297412 101.071961 
L 145.696839 92.985417 
L 146.096267 90.200648 
L 146.495694 83.881535 
L 146.895121 82.782146 
L 147.294549 78.292922 
L 147.693976 78.100936 
L 148.492831 80.402205 
L 148.892258 82.774639 
L 149.291685 82.961509 
L 149.691113 81.992092 
L 150.09054 79.305599 
L 150.889395 75.172515 
L 151.288822 74.592663 
L 152.487104 89.840759 
L 152.886531 96.820316 
L 153.685386 105.43712 
L 154.084813 107.081723 
L 154.484241 107.118983 
L 155.283095 106.538041 
L 155.682523 107.456056 
L 156.08195 106.782794 
L 156.481378 107.57989 
L 156.880805 106.783304 
L 157.280232 109.175854 
L 157.67966 107.730168 
L 158.079087 109.477494 
L 158.478514 106.213098 
L 158.877942 105.751054 
L 159.277369 102.182566 
L 159.676796 102.32258 
L 160.076224 99.856679 
L 160.475651 99.38183 
L 160.875078 96.733148 
L 161.274506 96.125836 
L 162.07336 93.051518 
L 163.67107 83.63753 
L 164.070497 82.830838 
L 164.469924 86.053416 
L 165.668206 93.437515 
L 166.067634 94.239037 
L 166.467061 93.476202 
L 167.265916 87.798004 
L 167.665343 86.383276 
L 168.464198 89.474428 
L 169.263053 94.577866 
L 169.66248 98.358284 
L 170.061907 100.673095 
L 170.461335 104.31507 
L 170.860762 103.161672 
L 171.260189 105.434235 
L 171.659617 106.171168 
L 172.059044 110.1598 
L 172.458471 110.641929 
L 172.857899 112.556745 
L 173.257326 112.841885 
L 173.656753 112.959838 
L 174.056181 113.243539 
L 174.455608 114.68062 
L 174.855035 118.486797 
L 175.254463 120.155436 
L 175.65389 122.658191 
L 176.053317 121.69239 
L 176.452745 119.86898 
L 177.251599 112.280301 
L 177.651027 110.578532 
L 178.050454 109.759405 
L 178.449881 108.526932 
L 178.849309 103.518143 
L 179.248736 100.922168 
L 181.245873 79.181711 
L 181.6453 78.555022 
L 182.044728 79.092842 
L 182.444155 79.325389 
L 182.843582 80.914729 
L 183.24301 80.67171 
L 183.642437 78.212979 
L 184.441292 72.420869 
L 185.240146 73.982685 
L 185.639574 76.917452 
L 186.039001 77.723834 
L 186.438428 80.352202 
L 187.237283 87.646085 
L 188.036138 96.067114 
L 188.435565 100.533151 
L 188.834992 103.331161 
L 189.23442 107.250846 
L 190.033274 110.891805 
L 190.432702 111.494152 
L 190.832129 113.821077 
L 191.231556 115.453 
L 191.630984 118.375705 
L 192.030411 120.116078 
L 192.429838 123.460559 
L 192.829266 124.737054 
L 193.228693 123.997596 
L 193.628121 124.353896 
L 194.027548 120.410133 
L 194.426975 118.362427 
L 194.826403 112.904387 
L 195.22583 109.966991 
L 195.625257 105.541298 
L 196.823539 95.546634 
L 197.222967 94.309207 
L 197.622394 90.97866 
L 198.021821 89.863401 
L 198.421249 86.507996 
L 198.820676 86.097027 
L 199.220103 82.705083 
L 200.418385 77.232793 
L 200.817813 78.106731 
L 201.21724 78.015877 
L 201.616667 79.92051 
L 202.016095 80.524284 
L 202.814949 83.657127 
L 203.613804 86.587933 
L 204.412659 90.063886 
L 204.812086 92.820521 
L 205.211514 94.352719 
L 205.610941 96.843035 
L 206.010368 97.883728 
L 206.409796 100.203714 
L 206.809223 101.611523 
L 207.20865 102.357673 
L 207.608078 103.653682 
L 208.007505 103.8754 
L 208.406932 106.503711 
L 208.80636 106.637378 
L 209.605214 111.913659 
L 210.404069 116.930442 
L 210.803496 117.56616 
L 211.202924 116.690095 
L 213.20006 103.89804 
L 214.79777 100.151314 
L 215.596624 96.048467 
L 215.996052 92.654985 
L 217.194334 85.905966 
L 217.593761 86.203183 
L 217.993189 86.035076 
L 218.392616 87.434179 
L 218.792043 87.786704 
L 219.590898 90.636041 
L 220.389753 94.998713 
L 221.188607 100.033206 
L 221.588035 101.958536 
L 221.987462 101.686662 
L 222.386889 103.087899 
L 223.185744 104.652316 
L 223.585171 105.572279 
L 223.984599 105.752058 
L 224.384026 107.430038 
L 224.783453 106.914252 
L 225.182881 107.737828 
L 225.981735 102.461907 
L 227.978872 83.637474 
L 229.177154 78.549311 
L 229.576582 75.771263 
L 229.976009 75.280363 
L 230.375436 75.213581 
L 230.774864 73.864053 
L 231.573718 78.709443 
L 233.570855 98.531916 
L 235.567992 125.624127 
L 236.366846 131.993941 
L 237.165701 135.645618 
L 237.565128 136.421084 
L 238.363983 133.733109 
L 239.562265 122.941914 
L 240.36112 113.102474 
L 243.157111 74.072708 
L 244.355393 64.577886 
L 244.754821 63.088264 
L 245.154248 62.080029 
L 245.953103 63.975989 
L 246.751957 69.155626 
L 247.151385 73.796893 
L 247.550812 77.048667 
L 250.346803 110.908008 
L 251.545085 123.271061 
L 252.34394 128.474905 
L 253.142795 130.068581 
L 253.542222 128.690489 
L 253.94165 126.44761 
L 254.740504 119.318584 
L 256.338214 100.072651 
L 257.935923 78.462961 
L 258.33535 73.623762 
L 258.734778 70.136958 
L 259.134205 68.494597 
L 259.533632 67.426583 
L 259.93306 67.880674 
L 260.731914 70.236884 
L 261.530769 77.387426 
L 262.329624 88.36868 
L 265.125615 128.928156 
L 265.92447 134.950676 
L 266.323897 136.887501 
L 266.723325 136.691165 
L 267.122752 134.880552 
L 267.921607 126.537464 
L 269.119889 107.579187 
L 270.318171 85.434278 
L 271.516453 63.892843 
L 272.315307 54.553702 
L 273.114162 51.822666 
L 273.913017 55.48395 
L 274.711871 65.908243 
L 275.910153 91.820734 
L 277.108435 121.068132 
L 277.90729 136.159731 
L 278.706145 146.771818 
L 279.105572 150.660855 
L 279.505 153.182977 
L 279.904427 154.325511 
L 280.303854 152.952806 
L 280.703282 148.938264 
L 281.102709 143.175335 
L 281.901564 126.576334 
L 283.499273 83.451921 
L 284.298128 63.349555 
L 285.096982 48.607714 
L 285.49641 43.597408 
L 285.895837 40.063486 
L 286.295264 38.691913 
L 286.694692 39.453604 
L 287.094119 41.732672 
L 287.892974 50.644837 
L 288.691828 66.295433 
L 291.48782 136.942638 
L 292.286675 149.003831 
L 292.686102 152.494324 
L 293.085529 153.4437 
L 293.484957 152.849871 
L 293.884384 149.996204 
L 294.283811 145.979603 
L 295.082666 134.426014 
L 296.280948 111.411158 
L 297.47923 83.666904 
L 298.278085 65.657956 
L 299.076939 52.991325 
L 299.476367 48.926621 
L 299.875794 46.086702 
L 300.275221 45.594826 
L 300.674649 46.288597 
L 301.473503 53.894193 
L 302.671786 72.538746 
L 303.870068 97.665093 
L 305.06835 123.164002 
L 305.867204 136.33685 
L 306.266632 141.575576 
L 306.666059 144.258647 
L 307.065486 145.971493 
L 307.464914 145.624299 
L 307.864341 144.027871 
L 308.263768 140.045851 
L 309.062623 128.180267 
L 310.260905 104.958484 
L 311.858614 73.002893 
L 312.657469 61.484472 
L 313.056896 57.698558 
L 313.456324 55.349267 
L 313.855751 54.119152 
L 314.255179 54.726286 
L 314.654606 56.94796 
L 315.054033 60.550114 
L 315.852888 71.611335 
L 317.05117 94.41187 
L 318.249452 117.907112 
L 319.048307 129.590679 
L 319.847161 137.081367 
L 320.246589 139.198794 
L 320.646016 140.097363 
L 321.045443 139.662225 
L 321.444871 137.697021 
L 321.844298 134.819255 
L 322.643153 126.102537 
L 323.841435 107.244265 
L 325.838571 74.6148 
L 326.637426 65.934005 
L 327.036854 62.895294 
L 327.436281 60.798111 
L 327.835708 59.653043 
L 328.235136 59.941678 
L 328.634563 61.591403 
L 329.433418 67.561024 
L 330.232272 76.623488 
L 331.430554 93.6792 
L 333.028264 118.450053 
L 333.827118 128.847314 
L 334.226546 132.771593 
L 334.625973 135.531524 
L 335.0254 137.317694 
L 335.424828 137.625624 
L 335.824255 136.546427 
L 336.223682 134.156835 
L 336.62311 130.548856 
L 337.421964 120.256922 
L 338.620247 99.886602 
L 340.217956 70.250509 
L 341.016811 58.751774 
L 341.416238 54.740193 
L 341.815665 52.193062 
L 342.215093 51.406589 
L 342.61452 51.936011 
L 343.013947 54.171719 
L 343.413375 57.888436 
L 344.212229 70.247436 
L 345.011084 87.153017 
L 347.008221 131.502867 
L 347.807075 144.006031 
L 348.60593 151.363019 
L 349.005357 152.557992 
L 349.404785 152.327521 
L 349.804212 149.884948 
L 350.203639 145.767539 
L 351.002494 131.999172 
L 351.801349 112.555575 
L 353.798486 60.359698 
L 354.59734 45.75595 
L 354.996768 40.715587 
L 355.396195 37.894824 
L 355.795622 36.692242 
L 356.19505 37.996988 
L 356.594477 40.304819 
L 357.393332 50.907036 
L 358.192186 67.023969 
L 359.789896 109.750709 
L 360.58875 129.76833 
L 361.387605 145.948762 
L 362.18646 156.516597 
L 362.585887 159.252499 
L 362.985315 160.231905 
L 363.384742 159.328384 
L 363.784169 156.330261 
L 364.583024 145.390476 
L 365.381879 130.003963 
L 366.580161 101.060028 
L 367.778443 71.987468 
L 368.577297 56.614941 
L 369.376152 45.581682 
L 369.775579 42.312479 
L 370.175007 40.649943 
L 370.574434 41.031757 
L 370.973861 43.475379 
L 371.373289 48.15355 
L 372.172143 61.635394 
L 373.370425 88.686802 
L 374.968135 124.780086 
L 375.76699 139.066507 
L 376.166417 144.657849 
L 376.565844 148.66982 
L 376.965272 151.20704 
L 377.364699 152.01416 
L 377.764126 151.423956 
L 378.163554 149.47382 
L 378.562981 145.338836 
L 379.361836 132.20933 
L 380.560118 104.528697 
L 381.7584 76.961026 
L 382.557254 62.372092 
L 383.356109 51.803222 
L 383.755536 48.101295 
L 384.154964 46.130565 
L 384.554391 45.711655 
L 384.953818 46.824775 
L 385.353246 49.564217 
L 385.752673 53.715193 
L 386.551528 67.036006 
L 387.350383 85.175764 
L 388.948092 124.476689 
L 389.746947 138.784738 
L 390.146374 144.107442 
L 390.545801 147.752661 
L 390.945229 149.97727 
L 391.344656 151.084806 
L 391.744083 150.507946 
L 392.143511 148.484661 
L 392.542938 144.868625 
L 393.341793 133.447854 
L 394.140647 117.088557 
L 396.137784 71.030446 
L 396.936639 58.082379 
L 397.735493 50.322961 
L 398.134921 48.698842 
L 398.534348 48.568031 
L 398.933776 49.74316 
L 399.333203 52.501242 
L 399.73263 56.277553 
L 400.531485 66.682818 
L 401.729767 88.393788 
L 403.327476 120.827489 
L 404.126331 132.089304 
L 404.525758 136.206436 
L 404.925186 139.097128 
L 405.324613 140.835294 
L 405.72404 140.898102 
L 406.123468 139.059882 
L 406.922322 131.59838 
L 407.721177 121.478455 
L 408.919459 102.85132 
L 410.517168 75.05823 
L 411.316023 64.600725 
L 411.715451 60.836237 
L 412.114878 58.137968 
L 412.514305 56.782451 
L 412.913733 56.767381 
L 413.31316 58.091002 
L 413.712587 61.067049 
L 414.511442 70.316766 
L 415.709724 88.798166 
L 418.106288 127.41582 
L 418.905143 136.344507 
L 419.30457 139.189871 
L 419.703997 140.625636 
L 420.103425 140.999416 
L 420.502852 139.786047 
L 420.902279 137.097834 
L 421.701134 127.826077 
L 422.899416 108.817431 
L 424.896553 75.935011 
L 425.695408 65.816085 
L 426.494262 58.682802 
L 426.89369 56.510077 
L 427.293117 55.637738 
L 427.692544 55.961052 
L 428.091972 57.911313 
L 428.491399 61.214338 
L 429.290254 71.225674 
L 430.089108 84.765904 
L 432.485672 128.732461 
L 433.284527 139.446203 
L 433.683954 143.286868 
L 434.083382 146.052513 
L 434.482809 147.415681 
L 434.882236 147.275983 
L 435.281664 145.907647 
L 435.681091 142.561018 
L 436.080519 137.902582 
L 436.879373 124.323591 
L 438.077655 97.285386 
L 439.275937 70.474302 
L 440.074792 56.239374 
L 440.873647 46.371477 
L 441.273074 43.511898 
L 441.672501 42.374193 
L 442.071929 42.805487 
L 442.471356 45.003401 
L 442.870783 49.210712 
L 443.270211 54.831682 
L 444.069065 70.393426 
L 445.267347 100.238769 
L 446.465629 129.664707 
L 447.264484 144.738014 
L 448.063339 154.230997 
L 448.462766 156.687441 
L 448.862194 157.496725 
L 449.261621 156.555359 
L 449.661048 153.577619 
L 450.060476 148.867658 
L 450.85933 135.186986 
L 451.658185 116.901894 
L 453.655322 66.482491 
L 454.454176 51.482608 
L 454.853604 45.912101 
L 455.253031 41.918536 
L 455.652458 39.778789 
L 456.051886 39.41612 
L 456.451313 40.676231 
L 456.85074 43.777899 
L 457.649595 54.652027 
L 458.44845 70.177013 
L 460.046159 109.320686 
L 461.244441 135.08988 
L 462.043296 147.084824 
L 462.442723 150.972279 
L 462.842151 153.23375 
L 463.241578 153.774352 
L 463.641005 152.584447 
L 464.040433 149.372706 
L 464.43986 144.729849 
L 465.238715 131.796409 
L 466.436997 105.885123 
L 468.034706 69.679972 
L 468.833561 56.150652 
L 469.232988 51.13552 
L 469.632415 47.565523 
L 470.031843 45.582553 
L 470.43127 45.258262 
L 470.830697 46.607726 
L 471.230125 49.978021 
L 472.02898 60.83841 
L 472.827834 75.889357 
L 475.623826 135.352496 
L 476.42268 146.169702 
L 476.822108 149.64896 
L 477.221535 151.585158 
L 477.620962 151.895083 
L 478.02039 150.519825 
L 478.419817 147.179826 
L 479.218672 136.44755 
L 480.416954 113.895222 
L 480.416954 113.895222 
" clip-path="url(#p4289f7ae58)" style="fill: none; stroke-dasharray: 7.68,1.92,1.2,1.92; stroke-dashoffset: 0; stroke: #ff0000; stroke-width: 1.2"/>
   </g>
   <g id="line2d_29">
    <path d="M 41.046875 98.148553 
L 42.644584 98.090181 
L 47.038285 97.824822 
L 47.437713 97.902151 
L 47.83714 97.830477 
L 48.236567 97.882467 
L 48.635995 97.777708 
L 49.035422 97.805981 
L 49.434849 97.987542 
L 49.834277 97.741432 
L 51.032559 98.391836 
L 51.431986 98.36948 
L 52.230841 99.048287 
L 52.630268 98.768348 
L 53.029695 98.705455 
L 53.429123 98.287275 
L 53.82855 98.213729 
L 54.227977 98.009106 
L 54.627405 98.25219 
L 55.026832 98.646197 
L 55.426259 98.214507 
L 55.825687 98.357171 
L 56.225114 98.119067 
L 56.624541 98.244685 
L 57.023969 97.741031 
L 57.423396 97.659144 
L 58.222251 96.617818 
L 58.621678 96.835553 
L 59.021105 96.72546 
L 59.420533 97.569431 
L 59.81996 97.812883 
L 60.219388 97.506743 
L 60.618815 96.87213 
L 61.018242 96.810184 
L 61.41767 96.881173 
L 62.216524 97.311342 
L 63.015379 97.2194 
L 63.414806 96.707075 
L 64.213661 97.339131 
L 64.613088 96.716804 
L 65.012516 97.755469 
L 65.81137 98.874028 
L 66.210798 98.700278 
L 66.610225 99.099017 
L 67.009652 99.233219 
L 67.40908 98.336286 
L 67.808507 98.931361 
L 68.207934 99.830003 
L 68.607362 102.354855 
L 69.006789 103.29891 
L 69.406216 103.882513 
L 69.805644 103.254524 
L 70.205071 102.112148 
L 70.604498 101.40679 
L 71.003926 100.305364 
L 71.403353 99.691452 
L 71.802781 99.543014 
L 72.202208 99.675472 
L 73.001063 98.738673 
L 73.40049 99.822975 
L 74.199345 99.355562 
L 74.598772 101.122164 
L 74.998199 99.698157 
L 75.397627 100.221775 
L 75.797054 100.5388 
L 76.196481 100.519832 
L 76.595909 102.396159 
L 77.394763 99.616813 
L 77.794191 99.960682 
L 78.193618 101.286771 
L 78.593045 100.969742 
L 78.992473 101.70223 
L 79.3919 103.149942 
L 79.791327 101.81379 
L 80.190755 101.736389 
L 80.590182 101.386624 
L 80.989609 101.338105 
L 81.389037 100.907323 
L 81.788464 101.236905 
L 82.587319 106.843273 
L 82.986746 107.526356 
L 83.386173 107.779982 
L 83.785601 106.996924 
L 84.185028 108.036214 
L 84.584456 107.943889 
L 84.983883 110.728701 
L 85.38331 109.454369 
L 85.782738 111.737937 
L 86.581592 111.478964 
L 86.98102 110.648925 
L 87.380447 109.085387 
L 87.779874 109.420179 
L 88.578729 106.130829 
L 88.978156 103.360917 
L 89.377584 102.218786 
L 89.777011 99.606461 
L 90.575866 98.575227 
L 91.774148 100.703679 
L 92.173575 102.286555 
L 92.97243 101.153311 
L 93.371857 101.619355 
L 93.771284 100.01196 
L 94.969566 104.1723 
L 95.768421 108.62314 
L 96.167849 108.54816 
L 96.567276 104.965657 
L 96.966703 103.794154 
L 97.366131 106.191918 
L 97.765558 103.939421 
L 98.164985 105.941036 
L 98.564413 105.712291 
L 98.96384 103.496795 
L 99.363267 104.466237 
L 99.762695 101.792316 
L 100.162122 105.036092 
L 100.561549 104.564349 
L 100.960977 108.230954 
L 101.759831 113.059483 
L 102.159259 112.791361 
L 102.958113 104.996773 
L 103.357541 97.702081 
L 103.756968 93.508119 
L 104.156395 87.525367 
L 104.555823 90.146086 
L 104.95525 88.849564 
L 105.354677 91.397231 
L 106.153532 93.517128 
L 106.552959 95.898361 
L 106.952387 96.595702 
L 107.751241 102.901753 
L 108.150669 105.000293 
L 108.550096 105.87975 
L 108.949524 103.446993 
L 109.348951 99.904169 
L 109.748378 98.331554 
L 110.147806 98.912436 
L 110.547233 104.753522 
L 110.94666 107.60102 
L 111.346088 113.22115 
L 111.745515 113.761845 
L 112.144942 112.849492 
L 112.54437 110.780844 
L 113.742652 96.64473 
L 114.142079 96.278455 
L 114.940934 94.686584 
L 115.340361 96.680736 
L 115.739788 96.603452 
L 116.139216 97.180286 
L 116.538643 97.12481 
L 116.93807 97.991774 
L 117.337498 100.309541 
L 118.136352 101.686964 
L 118.53578 99.389567 
L 118.935207 93.057063 
L 119.334634 84.906182 
L 119.734062 84.627435 
L 120.133489 81.259087 
L 120.532917 86.114926 
L 120.932344 84.18598 
L 121.331771 88.127993 
L 121.731199 89.667816 
L 122.130626 92.308632 
L 122.530053 91.705359 
L 122.929481 90.07572 
L 123.328908 90.013233 
L 123.728335 92.412467 
L 124.127763 92.510874 
L 124.52719 94.841573 
L 124.926617 98.526237 
L 125.326045 98.110364 
L 125.725472 96.677513 
L 126.124899 98.51716 
L 126.524327 105.41174 
L 126.923754 106.676573 
L 127.323181 111.108799 
L 127.722609 111.512078 
L 128.122036 111.28874 
L 128.521463 104.083775 
L 128.920891 99.699604 
L 129.719745 87.932284 
L 130.119173 86.626114 
L 130.5186 84.789775 
L 130.918027 88.151287 
L 131.716882 88.452915 
L 132.515737 83.649782 
L 132.915164 84.157178 
L 133.314592 83.014375 
L 133.714019 84.883078 
L 134.113446 83.539824 
L 134.512874 83.527739 
L 134.912301 83.236531 
L 135.311728 81.931287 
L 135.711156 80.07915 
L 136.110583 80.494279 
L 136.51001 80.68651 
L 138.10772 103.795728 
L 138.906574 107.261443 
L 139.306002 101.160936 
L 139.705429 99.371362 
L 140.504284 91.760141 
L 140.903711 91.401667 
L 141.303138 90.009828 
L 141.702566 91.293065 
L 142.101993 91.768236 
L 142.50142 93.203667 
L 142.900848 97.552332 
L 143.300275 98.014769 
L 143.699702 99.312079 
L 144.09913 97.581431 
L 144.897985 88.961595 
L 145.696839 80.803675 
L 147.294549 69.563535 
L 147.693976 68.295413 
L 148.093403 67.457232 
L 148.492831 66.245803 
L 148.892258 66.601126 
L 149.691113 60.8444 
L 150.09054 60.129083 
L 150.489967 60.566533 
L 150.889395 60.526129 
L 151.288822 61.567213 
L 152.087677 70.666191 
L 152.487104 78.902096 
L 153.285959 89.783927 
L 153.685386 90.315689 
L 154.084813 91.846821 
L 154.484241 88.136662 
L 154.883668 87.810328 
L 155.283095 89.79996 
L 156.08195 91.345785 
L 157.280232 96.004695 
L 157.67966 96.323926 
L 158.079087 95.314209 
L 159.277369 89.992805 
L 159.676796 90.977176 
L 160.875078 86.504285 
L 161.274506 86.188345 
L 161.673933 84.274402 
L 162.07336 81.103731 
L 162.472788 79.878252 
L 162.872215 77.392116 
L 163.271642 78.192259 
L 163.67107 75.537105 
L 164.070497 74.798166 
L 164.469924 75.896507 
L 165.268779 81.342772 
L 165.668206 80.530948 
L 166.067634 81.74273 
L 166.866488 77.266051 
L 167.265916 73.953624 
L 167.665343 76.17719 
L 168.06477 75.827068 
L 168.464198 78.565077 
L 169.263053 88.207265 
L 169.66248 88.841418 
L 170.061907 91.012341 
L 170.461335 91.458235 
L 170.860762 90.58857 
L 171.260189 93.883984 
L 171.659617 95.756895 
L 172.059044 100.007878 
L 172.458471 101.494293 
L 172.857899 103.918348 
L 173.257326 104.083342 
L 174.056181 105.904361 
L 174.455608 108.600764 
L 174.855035 113.075325 
L 175.254463 115.823323 
L 176.053317 116.922524 
L 176.452745 115.241982 
L 176.852172 109.999836 
L 177.651027 105.437273 
L 178.050454 105.978469 
L 178.849309 102.147962 
L 179.248736 98.976531 
L 180.447018 82.719076 
L 180.846446 76.75139 
L 181.245873 75.945756 
L 181.6453 77.565073 
L 182.044728 77.690136 
L 182.444155 79.463202 
L 182.843582 78.340093 
L 183.24301 76.840907 
L 184.041864 71.279026 
L 184.441292 69.366283 
L 184.840719 70.021381 
L 185.240146 73.020398 
L 185.639574 75.156011 
L 186.039001 76.611039 
L 187.63671 85.53712 
L 188.435565 93.398513 
L 188.834992 96.134365 
L 189.23442 99.951379 
L 190.033274 103.672652 
L 190.432702 103.875616 
L 190.832129 105.155777 
L 191.630984 110.152164 
L 192.030411 113.515301 
L 192.429838 115.707124 
L 192.829266 115.652142 
L 193.228693 114.287625 
L 194.426975 105.851415 
L 195.22583 99.124063 
L 196.823539 85.888627 
L 197.622394 78.652646 
L 198.421249 72.828436 
L 198.820676 70.877431 
L 199.220103 67.02881 
L 200.018958 63.249785 
L 200.817813 62.817746 
L 201.21724 64.304909 
L 201.616667 66.702182 
L 202.016095 67.659498 
L 202.415522 69.401986 
L 202.814949 70.059926 
L 203.214377 71.514209 
L 203.613804 71.53898 
L 204.013231 72.681933 
L 205.211514 80.332597 
L 206.010368 83.952056 
L 206.409796 85.905629 
L 206.809223 86.538155 
L 207.20865 88.119768 
L 207.608078 89.090891 
L 208.007505 90.661445 
L 208.406932 92.693178 
L 208.80636 94.038445 
L 209.205787 96.328855 
L 209.605214 97.424477 
L 210.004642 99.902586 
L 210.404069 101.569774 
L 210.803496 102.033125 
L 211.202924 101.035786 
L 212.001778 96.72523 
L 212.800633 91.666837 
L 213.599488 89.324494 
L 213.998915 88.685511 
L 214.398342 88.336337 
L 215.197197 83.970797 
L 215.996052 77.136177 
L 216.395479 75.523144 
L 216.794906 73.203067 
L 217.593761 73.001547 
L 217.993189 74.014328 
L 218.392616 75.519693 
L 218.792043 75.666725 
L 219.590898 78.010041 
L 221.188607 88.475822 
L 221.987462 90.181075 
L 222.386889 91.224972 
L 223.185744 94.238284 
L 223.585171 94.780422 
L 224.384026 97.727831 
L 224.783453 98.136746 
L 225.182881 98.049552 
L 225.981735 91.5661 
L 226.78059 83.877676 
L 227.180017 81.232452 
L 227.579445 77.317069 
L 229.177154 69.002526 
L 229.576582 66.57265 
L 229.976009 65.836862 
L 230.375436 63.956636 
L 230.774864 64.442307 
L 231.174291 66.388837 
L 232.372573 76.400949 
L 233.970282 93.680189 
L 234.769137 105.98655 
L 235.967419 118.974286 
L 236.766274 124.188345 
L 237.165701 125.979231 
L 237.565128 125.909865 
L 237.964556 125.398483 
L 238.363983 123.470642 
L 239.162838 117.397552 
L 239.961692 108.353201 
L 242.757684 69.711717 
L 243.556539 60.850666 
L 243.955966 57.629156 
L 244.754821 53.175868 
L 245.154248 52.484204 
L 245.553675 52.386748 
L 245.953103 53.611953 
L 246.35253 55.632035 
L 246.751957 58.366346 
L 247.950239 70.636853 
L 251.145658 109.596782 
L 251.944513 115.803442 
L 252.34394 117.540553 
L 252.743367 118.512557 
L 253.142795 118.585669 
L 253.542222 117.279906 
L 253.94165 114.937963 
L 254.740504 107.910793 
L 255.539359 98.470028 
L 256.737641 80.761773 
L 257.935923 62.771608 
L 258.33535 57.838731 
L 259.134205 52.137146 
L 259.533632 51.154704 
L 259.93306 51.639128 
L 260.332487 52.362632 
L 260.731914 54.064118 
L 261.530769 61.243102 
L 262.729051 78.821867 
L 264.726188 110.537529 
L 265.92447 122.167572 
L 266.323897 124.378617 
L 266.723325 124.713374 
L 267.122752 122.754725 
L 267.921607 114.474654 
L 268.720461 102.154546 
L 270.318171 72.24879 
L 271.516453 49.94627 
L 271.91588 44.287566 
L 272.315307 40.570854 
L 272.714735 38.310032 
L 273.114162 38.275157 
L 273.513589 39.237655 
L 273.913017 41.964985 
L 274.711871 52.23841 
L 275.510726 68.496068 
L 277.108435 108.689566 
L 277.90729 124.361848 
L 278.706145 136.111261 
L 279.505 143.552639 
L 279.904427 144.538578 
L 280.303854 143.127603 
L 280.703282 138.808837 
L 281.102709 132.720456 
L 281.901564 115.197072 
L 283.499273 72.138781 
L 284.298128 52.119697 
L 285.096982 35.928241 
L 285.49641 29.807857 
L 285.895837 25.84359 
L 286.295264 24.243423 
L 286.694692 24.418146 
L 287.094119 26.452844 
L 287.493546 29.779115 
L 287.892974 35.324088 
L 288.691828 51.446161 
L 291.48782 121.789283 
L 292.286675 134.400275 
L 292.686102 138.013588 
L 293.085529 139.725599 
L 293.484957 139.37525 
L 293.884384 136.959007 
L 294.283811 132.851109 
L 295.082666 120.411483 
L 295.881521 105.650307 
L 297.079803 77.647506 
L 298.278085 49.526705 
L 299.076939 36.842852 
L 299.476367 32.48225 
L 299.875794 29.634838 
L 300.275221 28.154558 
L 300.674649 28.960339 
L 301.074076 31.900927 
L 301.872931 41.155762 
L 302.671786 54.642329 
L 303.870068 80.945881 
L 305.06835 107.033841 
L 305.867204 120.356877 
L 306.266632 125.05435 
L 306.666059 128.236369 
L 307.065486 129.934522 
L 307.464914 129.949482 
L 307.864341 128.223361 
L 308.263768 124.328065 
L 309.062623 112.721565 
L 309.861478 97.49344 
L 312.258042 49.57498 
L 312.657469 44.025666 
L 313.456324 37.492555 
L 313.855751 36.151329 
L 314.255179 36.86339 
L 314.654606 39.21997 
L 315.453461 48.561193 
L 316.252315 61.818427 
L 318.648879 108.66793 
L 319.447734 118.738985 
L 319.847161 122.101536 
L 320.246589 124.451621 
L 320.646016 125.561036 
L 321.045443 125.07914 
L 321.444871 123.3171 
L 322.243725 116.365294 
L 323.04258 105.290948 
L 324.240862 84.626829 
L 325.439144 64.484521 
L 326.237999 53.963021 
L 327.036854 46.932006 
L 327.436281 44.793963 
L 327.835708 43.519569 
L 328.235136 43.606301 
L 328.634563 45.342385 
L 329.433418 51.408732 
L 330.232272 61.045748 
L 331.829982 85.296644 
L 333.427691 109.886541 
L 334.226546 118.5679 
L 334.625973 121.569506 
L 335.0254 123.308752 
L 335.424828 123.840891 
L 335.824255 122.811072 
L 336.223682 120.52968 
L 336.62311 117.105247 
L 337.421964 106.739525 
L 338.620247 85.673486 
L 340.617383 49.133306 
L 341.416238 39.770224 
L 341.815665 37.36266 
L 342.215093 36.325737 
L 342.61452 36.897439 
L 343.013947 38.946086 
L 343.413375 42.832997 
L 344.212229 55.562677 
L 345.011084 72.391941 
L 347.008221 117.998487 
L 347.807075 131.036735 
L 348.206503 135.922949 
L 348.60593 139.336452 
L 349.005357 141.307176 
L 349.404785 141.139582 
L 349.804212 138.637108 
L 350.203639 134.069237 
L 351.002494 119.712971 
L 351.801349 99.99782 
L 353.798486 47.213772 
L 354.59734 31.693337 
L 354.996768 26.177006 
L 355.396195 22.739346 
L 355.795622 21.351099 
L 356.19505 22.049499 
L 356.594477 24.611887 
L 356.993904 29.227984 
L 357.792759 43.243126 
L 358.591614 62.303392 
L 360.58875 115.793101 
L 361.387605 132.240614 
L 362.18646 144.093906 
L 362.585887 147.711313 
L 362.985315 149.440604 
L 363.384742 149.048515 
L 363.784169 146.226865 
L 364.183597 141.628742 
L 364.982451 128.026942 
L 365.781306 110.415506 
L 368.17787 52.654195 
L 368.976725 38.731868 
L 369.376152 33.572356 
L 369.775579 29.906657 
L 370.175007 28.237737 
L 370.574434 28.46093 
L 370.973861 30.829083 
L 371.373289 35.628368 
L 372.172143 49.493566 
L 373.370425 77.15406 
L 374.968135 114.838556 
L 375.76699 129.969285 
L 376.565844 140.267557 
L 376.965272 143.035143 
L 377.364699 144.162473 
L 377.764126 143.899563 
L 378.163554 141.83921 
L 378.562981 137.658346 
L 379.361836 124.269643 
L 380.560118 96.740834 
L 382.157827 60.763257 
L 382.956682 47.520544 
L 383.755536 38.240769 
L 384.154964 35.803386 
L 384.554391 35.329373 
L 384.953818 36.567248 
L 385.353246 39.621251 
L 385.752673 44.358566 
L 386.551528 58.605248 
L 387.74981 87.702888 
L 388.948092 116.816581 
L 389.746947 131.651435 
L 390.545801 141.502885 
L 390.945229 144.363782 
L 391.344656 145.92934 
L 391.744083 145.866349 
L 392.143511 144.008451 
L 392.542938 140.121981 
L 393.341793 128.003631 
L 394.140647 110.790662 
L 396.137784 65.031281 
L 396.936639 51.797155 
L 397.336066 46.736949 
L 397.735493 43.236154 
L 398.134921 41.234523 
L 398.534348 40.746827 
L 398.933776 41.76772 
L 399.333203 44.396778 
L 400.132058 53.503598 
L 400.930912 66.483257 
L 402.129194 91.445848 
L 403.327476 115.733208 
L 404.126331 127.405923 
L 404.925186 135.031929 
L 405.324613 137.08571 
L 405.72404 137.456318 
L 406.123468 135.72071 
L 406.922322 128.396639 
L 407.721177 118.347793 
L 408.919459 98.547288 
L 410.517168 70.537282 
L 411.316023 60.161924 
L 411.715451 56.554173 
L 412.114878 54.040941 
L 412.514305 52.772145 
L 412.913733 52.709082 
L 413.31316 53.944959 
L 413.712587 56.776476 
L 414.511442 65.829505 
L 415.310297 78.173445 
L 418.505715 130.577515 
L 418.905143 134.721588 
L 419.30457 137.568775 
L 419.703997 139.1262 
L 420.103425 139.408913 
L 420.502852 138.24337 
L 420.902279 135.451631 
L 421.701134 126.503984 
L 422.899416 107.612339 
L 424.896553 73.956704 
L 425.695408 63.46337 
L 426.494262 56.089729 
L 426.89369 54.042581 
L 427.293117 53.237219 
L 427.692544 53.747257 
L 428.091972 55.811349 
L 428.491399 59.319485 
L 429.290254 69.653561 
L 430.488536 90.79533 
L 432.485672 128.493981 
L 433.284527 139.730292 
L 433.683954 143.998546 
L 434.083382 146.943061 
L 434.482809 148.540114 
L 434.882236 148.725662 
L 435.281664 147.151978 
L 435.681091 143.693272 
L 436.479946 132.448485 
L 437.278801 116.560501 
L 439.675365 63.534701 
L 440.474219 50.414522 
L 440.873647 45.793158 
L 441.273074 42.621394 
L 441.672501 41.140292 
L 442.071929 41.396241 
L 442.471356 43.764483 
L 442.870783 48.144308 
L 443.669638 61.639454 
L 444.468493 79.961022 
L 446.465629 130.55764 
L 447.264484 146.310233 
L 448.063339 156.961774 
L 448.462766 160.014151 
L 448.862194 161.471534 
L 449.261621 160.782492 
L 449.661048 157.870757 
L 450.060476 153.144893 
L 450.85933 139.249892 
L 452.057612 110.068558 
L 453.655322 69.878109 
L 454.454176 54.236225 
L 455.253031 43.693588 
L 455.652458 41.203716 
L 456.051886 40.439333 
L 456.451313 41.560518 
L 456.85074 44.651834 
L 457.250168 49.58586 
L 458.049022 63.480907 
L 459.247304 91.618893 
L 460.845014 130.401534 
L 461.643869 145.271727 
L 462.442723 155.423521 
L 462.842151 158.166722 
L 463.241578 159.138296 
L 463.641005 158.137336 
L 464.040433 155.028552 
L 464.43986 150.335187 
L 465.238715 137.086329 
L 466.436997 110.479001 
L 468.034706 73.976057 
L 468.833561 60.167012 
L 469.632415 51.164362 
L 470.031843 48.966664 
L 470.43127 48.424969 
L 470.830697 49.755222 
L 471.230125 53.171841 
L 472.02898 64.460416 
L 472.827834 80.154034 
L 475.623826 142.322071 
L 476.42268 154.094069 
L 476.822108 157.982356 
L 477.221535 160.266692 
L 477.620962 160.844167 
L 478.02039 159.546532 
L 478.419817 156.206106 
L 479.218672 145.283445 
L 480.416954 122.355021 
L 480.416954 122.355021 
" clip-path="url(#p4289f7ae58)" style="fill: none; stroke-dasharray: 4.44,1.92; stroke-dashoffset: 0; stroke: #0000ff; stroke-width: 1.2"/>
   </g>
   <g id="patch_3">
    <path d="M 41.046875 185.393079 
L 41.046875 10.778906 
" style="fill: none; stroke: #000000; stroke-width: 0.8; stroke-linejoin: miter; stroke-linecap: square"/>
   </g>
   <g id="patch_4">
    <path d="M 480.416954 185.393079 
L 480.416954 10.778906 
" style="fill: none; stroke: #000000; stroke-width: 0.8; stroke-linejoin: miter; stroke-linecap: square"/>
   </g>
   <g id="patch_5">
    <path d="M 41.046875 185.393079 
L 480.416954 185.393079 
" style="fill: none; stroke: #000000; stroke-width: 0.8; stroke-linejoin: miter; stroke-linecap: square"/>
   </g>
   <g id="patch_6">
    <path d="M 41.046875 10.778906 
L 480.416954 10.778906 
" style="fill: none; stroke: #000000; stroke-width: 0.8; stroke-linejoin: miter; stroke-linecap: square"/>
   </g>
   <g id="text_16">
    <!-- 8th floor -->
    <g transform="translate(66.919039 35.190834) scale(0.1 -0.1)">
     <defs>
      <path id="ArialMT-38" d="M 1131 2484 
Q 781 2613 612 2850 
Q 444 3088 444 3419 
Q 444 3919 803 4259 
Q 1163 4600 1759 4600 
Q 2359 4600 2725 4251 
Q 3091 3903 3091 3403 
Q 3091 3084 2923 2848 
Q 2756 2613 2416 2484 
Q 2838 2347 3058 2040 
Q 3278 1734 3278 1309 
Q 3278 722 2862 322 
Q 2447 -78 1769 -78 
Q 1091 -78 675 323 
Q 259 725 259 1325 
Q 259 1772 486 2073 
Q 713 2375 1131 2484 
z
M 1019 3438 
Q 1019 3113 1228 2906 
Q 1438 2700 1772 2700 
Q 2097 2700 2305 2904 
Q 2513 3109 2513 3406 
Q 2513 3716 2298 3927 
Q 2084 4138 1766 4138 
Q 1444 4138 1231 3931 
Q 1019 3725 1019 3438 
z
M 838 1322 
Q 838 1081 952 856 
Q 1066 631 1291 507 
Q 1516 384 1775 384 
Q 2178 384 2440 643 
Q 2703 903 2703 1303 
Q 2703 1709 2433 1975 
Q 2163 2241 1756 2241 
Q 1359 2241 1098 1978 
Q 838 1716 838 1322 
z
" transform="scale(0.015625)"/>
      <path id="ArialMT-68" d="M 422 0 
L 422 4581 
L 984 4581 
L 984 2938 
Q 1378 3394 1978 3394 
Q 2347 3394 2619 3248 
Q 2891 3103 3008 2847 
Q 3125 2591 3125 2103 
L 3125 0 
L 2563 0 
L 2563 2103 
Q 2563 2525 2380 2717 
Q 2197 2909 1863 2909 
Q 1613 2909 1392 2779 
Q 1172 2650 1078 2428 
Q 984 2206 984 1816 
L 984 0 
L 422 0 
z
" transform="scale(0.015625)"/>
      <path id="ArialMT-66" d="M 556 0 
L 556 2881 
L 59 2881 
L 59 3319 
L 556 3319 
L 556 3672 
Q 556 4006 616 4169 
Q 697 4388 901 4523 
Q 1106 4659 1475 4659 
Q 1713 4659 2000 4603 
L 1916 4113 
Q 1741 4144 1584 4144 
Q 1328 4144 1222 4034 
Q 1116 3925 1116 3625 
L 1116 3319 
L 1763 3319 
L 1763 2881 
L 1116 2881 
L 1116 0 
L 556 0 
z
" transform="scale(0.015625)"/>
      <path id="ArialMT-6f" d="M 213 1659 
Q 213 2581 725 3025 
Q 1153 3394 1769 3394 
Q 2453 3394 2887 2945 
Q 3322 2497 3322 1706 
Q 3322 1066 3130 698 
Q 2938 331 2570 128 
Q 2203 -75 1769 -75 
Q 1072 -75 642 372 
Q 213 819 213 1659 
z
M 791 1659 
Q 791 1022 1069 705 
Q 1347 388 1769 388 
Q 2188 388 2466 706 
Q 2744 1025 2744 1678 
Q 2744 2294 2464 2611 
Q 2184 2928 1769 2928 
Q 1347 2928 1069 2612 
Q 791 2297 791 1659 
z
" transform="scale(0.015625)"/>
      <path id="ArialMT-72" d="M 416 0 
L 416 3319 
L 922 3319 
L 922 2816 
Q 1116 3169 1280 3281 
Q 1444 3394 1641 3394 
Q 1925 3394 2219 3213 
L 2025 2691 
Q 1819 2813 1613 2813 
Q 1428 2813 1281 2702 
Q 1134 2591 1072 2394 
Q 978 2094 978 1738 
L 978 0 
L 416 0 
z
" transform="scale(0.015625)"/>
     </defs>
     <use xlink:href="#ArialMT-38"/>
     <use xlink:href="#ArialMT-74" x="55.615234"/>
     <use xlink:href="#ArialMT-68" x="83.398438"/>
     <use xlink:href="#ArialMT-20" x="139.013672"/>
     <use xlink:href="#ArialMT-66" x="166.796875"/>
     <use xlink:href="#ArialMT-6c" x="194.580078"/>
     <use xlink:href="#ArialMT-6f" x="216.796875"/>
     <use xlink:href="#ArialMT-6f" x="272.412109"/>
     <use xlink:href="#ArialMT-72" x="328.027344"/>
    </g>
   </g>
   <g id="legend_1">
    <g id="patch_7">
     <path d="M 48.046875 180.393079 
L 321.6375 180.393079 
Q 323.6375 180.393079 323.6375 178.393079 
L 323.6375 165.247767 
Q 323.6375 163.247767 321.6375 163.247767 
L 48.046875 163.247767 
Q 46.046875 163.247767 46.046875 165.247767 
L 46.046875 178.393079 
Q 46.046875 180.393079 48.046875 180.393079 
z
" style="fill: #ffffff; opacity: 0.8; stroke: #000000; stroke-linejoin: miter"/>
    </g>
    <g id="line2d_30">
     <path d="M 50.046875 170.905579 
L 60.046875 170.905579 
L 70.046875 170.905579 
" style="fill: none; stroke: #000000; stroke-width: 1.2; stroke-linecap: square"/>
    </g>
    <g id="text_17">
     <!-- Ref. -->
     <g transform="translate(78.046875 174.405579) scale(0.1 -0.1)">
      <defs>
       <path id="ArialMT-52" d="M 503 0 
L 503 4581 
L 2534 4581 
Q 3147 4581 3465 4457 
Q 3784 4334 3975 4021 
Q 4166 3709 4166 3331 
Q 4166 2844 3850 2509 
Q 3534 2175 2875 2084 
Q 3116 1969 3241 1856 
Q 3506 1613 3744 1247 
L 4541 0 
L 3778 0 
L 3172 953 
Q 2906 1366 2734 1584 
Q 2563 1803 2427 1890 
Q 2291 1978 2150 2013 
Q 2047 2034 1813 2034 
L 1109 2034 
L 1109 0 
L 503 0 
z
M 1109 2559 
L 2413 2559 
Q 2828 2559 3062 2645 
Q 3297 2731 3419 2920 
Q 3541 3109 3541 3331 
Q 3541 3656 3305 3865 
Q 3069 4075 2559 4075 
L 1109 4075 
L 1109 2559 
z
" transform="scale(0.015625)"/>
       <path id="ArialMT-2e" d="M 581 0 
L 581 641 
L 1222 641 
L 1222 0 
L 581 0 
z
" transform="scale(0.015625)"/>
      </defs>
      <use xlink:href="#ArialMT-52"/>
      <use xlink:href="#ArialMT-65" x="72.216797"/>
      <use xlink:href="#ArialMT-66" x="127.832031"/>
      <use xlink:href="#ArialMT-2e" x="155.615234"/>
     </g>
    </g>
    <g id="line2d_31">
     <path d="M 116.385938 170.905579 
L 126.385938 170.905579 
L 136.385938 170.905579 
" style="fill: none; stroke-dasharray: 7.68,1.92,1.2,1.92; stroke-dashoffset: 0; stroke: #ff0000; stroke-width: 1.2"/>
    </g>
    <g id="text_18">
     <!-- TL-BiRNN pred. -->
     <g transform="translate(144.385938 174.405579) scale(0.1 -0.1)">
      <defs>
       <path id="ArialMT-4c" d="M 469 0 
L 469 4581 
L 1075 4581 
L 1075 541 
L 3331 541 
L 3331 0 
L 469 0 
z
" transform="scale(0.015625)"/>
       <path id="ArialMT-2d" d="M 203 1375 
L 203 1941 
L 1931 1941 
L 1931 1375 
L 203 1375 
z
" transform="scale(0.015625)"/>
       <path id="ArialMT-42" d="M 469 0 
L 469 4581 
L 2188 4581 
Q 2713 4581 3030 4442 
Q 3347 4303 3526 4014 
Q 3706 3725 3706 3409 
Q 3706 3116 3547 2856 
Q 3388 2597 3066 2438 
Q 3481 2316 3704 2022 
Q 3928 1728 3928 1328 
Q 3928 1006 3792 729 
Q 3656 453 3456 303 
Q 3256 153 2954 76 
Q 2653 0 2216 0 
L 469 0 
z
M 1075 2656 
L 2066 2656 
Q 2469 2656 2644 2709 
Q 2875 2778 2992 2937 
Q 3109 3097 3109 3338 
Q 3109 3566 3000 3739 
Q 2891 3913 2687 3977 
Q 2484 4041 1991 4041 
L 1075 4041 
L 1075 2656 
z
M 1075 541 
L 2216 541 
Q 2509 541 2628 563 
Q 2838 600 2978 687 
Q 3119 775 3209 942 
Q 3300 1109 3300 1328 
Q 3300 1584 3169 1773 
Q 3038 1963 2805 2039 
Q 2572 2116 2134 2116 
L 1075 2116 
L 1075 541 
z
" transform="scale(0.015625)"/>
       <path id="ArialMT-4e" d="M 488 0 
L 488 4581 
L 1109 4581 
L 3516 984 
L 3516 4581 
L 4097 4581 
L 4097 0 
L 3475 0 
L 1069 3600 
L 1069 0 
L 488 0 
z
" transform="scale(0.015625)"/>
       <path id="ArialMT-64" d="M 2575 0 
L 2575 419 
Q 2259 -75 1647 -75 
Q 1250 -75 917 144 
Q 584 363 401 755 
Q 219 1147 219 1656 
Q 219 2153 384 2558 
Q 550 2963 881 3178 
Q 1213 3394 1622 3394 
Q 1922 3394 2156 3267 
Q 2391 3141 2538 2938 
L 2538 4581 
L 3097 4581 
L 3097 0 
L 2575 0 
z
M 797 1656 
Q 797 1019 1065 703 
Q 1334 388 1700 388 
Q 2069 388 2326 689 
Q 2584 991 2584 1609 
Q 2584 2291 2321 2609 
Q 2059 2928 1675 2928 
Q 1300 2928 1048 2622 
Q 797 2316 797 1656 
z
" transform="scale(0.015625)"/>
      </defs>
      <use xlink:href="#ArialMT-54"/>
      <use xlink:href="#ArialMT-4c" x="61.083984"/>
      <use xlink:href="#ArialMT-2d" x="116.699219"/>
      <use xlink:href="#ArialMT-42" x="150"/>
      <use xlink:href="#ArialMT-69" x="216.699219"/>
      <use xlink:href="#ArialMT-52" x="238.916016"/>
      <use xlink:href="#ArialMT-4e" x="311.132812"/>
      <use xlink:href="#ArialMT-4e" x="383.349609"/>
      <use xlink:href="#ArialMT-20" x="455.566406"/>
      <use xlink:href="#ArialMT-70" x="483.349609"/>
      <use xlink:href="#ArialMT-72" x="538.964844"/>
      <use xlink:href="#ArialMT-65" x="572.265625"/>
      <use xlink:href="#ArialMT-64" x="627.880859"/>
      <use xlink:href="#ArialMT-2e" x="683.496094"/>
     </g>
    </g>
    <g id="line2d_32">
     <path d="M 235.510938 170.905579 
L 245.510938 170.905579 
L 255.510938 170.905579 
" style="fill: none; stroke-dasharray: 4.44,1.92; stroke-dashoffset: 0; stroke: #0000ff; stroke-width: 1.2"/>
    </g>
    <g id="text_19">
     <!-- BiRNN pred. -->
     <g transform="translate(263.510938 174.405579) scale(0.1 -0.1)">
      <use xlink:href="#ArialMT-42"/>
      <use xlink:href="#ArialMT-69" x="66.699219"/>
      <use xlink:href="#ArialMT-52" x="88.916016"/>
      <use xlink:href="#ArialMT-4e" x="161.132812"/>
      <use xlink:href="#ArialMT-4e" x="233.349609"/>
      <use xlink:href="#ArialMT-20" x="305.566406"/>
      <use xlink:href="#ArialMT-70" x="333.349609"/>
      <use xlink:href="#ArialMT-72" x="388.964844"/>
      <use xlink:href="#ArialMT-65" x="422.265625"/>
      <use xlink:href="#ArialMT-64" x="477.880859"/>
      <use xlink:href="#ArialMT-2e" x="533.496094"/>
     </g>
    </g>
   </g>
  </g>
 </g>
 <defs>
  <clipPath id="p4289f7ae58">
   <rect x="41.046875" y="10.778906" width="439.370079" height="174.614173"/>
  </clipPath>
 </defs>
</svg>
