<?xml version="1.0" encoding="utf-8" standalone="no"?>
<!DOCTYPE svg PUBLIC "-//W3C//DTD SVG 1.1//EN"
  "http://www.w3.org/Graphics/SVG/1.1/DTD/svg11.dtd">
<svg xmlns:xlink="http://www.w3.org/1999/xlink" width="276.091289pt" height="216.959486pt" viewBox="0 0 276.091289 216.959486" xmlns="http://www.w3.org/2000/svg" version="1.1">
 <metadata>
  <rdf:RDF xmlns:dc="http://purl.org/dc/elements/1.1/" xmlns:cc="http://creativecommons.org/ns#" xmlns:rdf="http://www.w3.org/1999/02/22-rdf-syntax-ns#">
   <cc:Work>
    <dc:type rdf:resource="http://purl.org/dc/dcmitype/StillImage"/>
    <dc:date>2024-03-18T09:48:32.285548</dc:date>
    <dc:format>image/svg+xml</dc:format>
    <dc:creator>
     <cc:Agent>
      <dc:title>Matplotlib v3.8.2, https://matplotlib.org/</dc:title>
     </cc:Agent>
    </dc:creator>
   </cc:Work>
  </rdf:RDF>
 </metadata>
 <defs>
  <style type="text/css">*{stroke-linejoin: round; stroke-linecap: butt}</style>
 </defs>
 <g id="figure_1">
  <g id="patch_1">
   <path d="M 0 216.959486 
L 276.091289 216.959486 
L 276.091289 0 
L 0 0 
z
" style="fill: #ffffff"/>
  </g>
  <g id="axes_1">
   <g id="patch_2">
    <path d="M 43.645313 181.814173 
L 263.330352 181.814173 
L 263.330352 7.2 
L 43.645313 7.2 
z
" style="fill: #ffffff"/>
   </g>
   <g id="matplotlib.axis_1">
    <g id="xtick_1">
     <g id="line2d_1">
      <path d="M 45.820412 181.814173 
L 45.820412 7.2 
" clip-path="url(#p4db4b0d78a)" style="fill: none; stroke: #b0b0b0; stroke-width: 0.8; stroke-linecap: square"/>
     </g>
     <g id="line2d_2">
      <defs>
       <path id="ma15ef468e0" d="M 0 0 
L 0 -3.5 
" style="stroke: #000000; stroke-width: 0.8"/>
      </defs>
      <g>
       <use xlink:href="#ma15ef468e0" x="45.820412" y="181.814173" style="stroke: #000000; stroke-width: 0.8"/>
      </g>
     </g>
     <g id="text_1">
      <!-- 0 -->
      <g transform="translate(43.039943 192.471986) scale(0.1 -0.1)">
       <defs>
        <path id="ArialMT-30" d="M 266 2259 
Q 266 3072 433 3567 
Q 600 4063 929 4331 
Q 1259 4600 1759 4600 
Q 2128 4600 2406 4451 
Q 2684 4303 2865 4023 
Q 3047 3744 3150 3342 
Q 3253 2941 3253 2259 
Q 3253 1453 3087 958 
Q 2922 463 2592 192 
Q 2263 -78 1759 -78 
Q 1097 -78 719 397 
Q 266 969 266 2259 
z
M 844 2259 
Q 844 1131 1108 757 
Q 1372 384 1759 384 
Q 2147 384 2411 759 
Q 2675 1134 2675 2259 
Q 2675 3391 2411 3762 
Q 2147 4134 1753 4134 
Q 1366 4134 1134 3806 
Q 844 3388 844 2259 
z
" transform="scale(0.015625)"/>
       </defs>
       <use xlink:href="#ArialMT-30"/>
      </g>
     </g>
    </g>
    <g id="xtick_2">
     <g id="line2d_3">
      <path d="M 89.3224 181.814173 
L 89.3224 7.2 
" clip-path="url(#p4db4b0d78a)" style="fill: none; stroke: #b0b0b0; stroke-width: 0.8; stroke-linecap: square"/>
     </g>
     <g id="line2d_4">
      <g>
       <use xlink:href="#ma15ef468e0" x="89.3224" y="181.814173" style="stroke: #000000; stroke-width: 0.8"/>
      </g>
     </g>
     <g id="text_2">
      <!-- 2 -->
      <g transform="translate(86.541931 192.471986) scale(0.1 -0.1)">
       <defs>
        <path id="ArialMT-32" d="M 3222 541 
L 3222 0 
L 194 0 
Q 188 203 259 391 
Q 375 700 629 1000 
Q 884 1300 1366 1694 
Q 2113 2306 2375 2664 
Q 2638 3022 2638 3341 
Q 2638 3675 2398 3904 
Q 2159 4134 1775 4134 
Q 1369 4134 1125 3890 
Q 881 3647 878 3216 
L 300 3275 
Q 359 3922 746 4261 
Q 1134 4600 1788 4600 
Q 2447 4600 2831 4234 
Q 3216 3869 3216 3328 
Q 3216 3053 3103 2787 
Q 2991 2522 2730 2228 
Q 2469 1934 1863 1422 
Q 1356 997 1212 845 
Q 1069 694 975 541 
L 3222 541 
z
" transform="scale(0.015625)"/>
       </defs>
       <use xlink:href="#ArialMT-32"/>
      </g>
     </g>
    </g>
    <g id="xtick_3">
     <g id="line2d_5">
      <path d="M 132.824388 181.814173 
L 132.824388 7.2 
" clip-path="url(#p4db4b0d78a)" style="fill: none; stroke: #b0b0b0; stroke-width: 0.8; stroke-linecap: square"/>
     </g>
     <g id="line2d_6">
      <g>
       <use xlink:href="#ma15ef468e0" x="132.824388" y="181.814173" style="stroke: #000000; stroke-width: 0.8"/>
      </g>
     </g>
     <g id="text_3">
      <!-- 4 -->
      <g transform="translate(130.043919 192.471986) scale(0.1 -0.1)">
       <defs>
        <path id="ArialMT-34" d="M 2069 0 
L 2069 1097 
L 81 1097 
L 81 1613 
L 2172 4581 
L 2631 4581 
L 2631 1613 
L 3250 1613 
L 3250 1097 
L 2631 1097 
L 2631 0 
L 2069 0 
z
M 2069 1613 
L 2069 3678 
L 634 1613 
L 2069 1613 
z
" transform="scale(0.015625)"/>
       </defs>
       <use xlink:href="#ArialMT-34"/>
      </g>
     </g>
    </g>
    <g id="xtick_4">
     <g id="line2d_7">
      <path d="M 176.326376 181.814173 
L 176.326376 7.2 
" clip-path="url(#p4db4b0d78a)" style="fill: none; stroke: #b0b0b0; stroke-width: 0.8; stroke-linecap: square"/>
     </g>
     <g id="line2d_8">
      <g>
       <use xlink:href="#ma15ef468e0" x="176.326376" y="181.814173" style="stroke: #000000; stroke-width: 0.8"/>
      </g>
     </g>
     <g id="text_4">
      <!-- 6 -->
      <g transform="translate(173.545907 192.471986) scale(0.1 -0.1)">
       <defs>
        <path id="ArialMT-36" d="M 3184 3459 
L 2625 3416 
Q 2550 3747 2413 3897 
Q 2184 4138 1850 4138 
Q 1581 4138 1378 3988 
Q 1113 3794 959 3422 
Q 806 3050 800 2363 
Q 1003 2672 1297 2822 
Q 1591 2972 1913 2972 
Q 2475 2972 2870 2558 
Q 3266 2144 3266 1488 
Q 3266 1056 3080 686 
Q 2894 316 2569 119 
Q 2244 -78 1831 -78 
Q 1128 -78 684 439 
Q 241 956 241 2144 
Q 241 3472 731 4075 
Q 1159 4600 1884 4600 
Q 2425 4600 2770 4297 
Q 3116 3994 3184 3459 
z
M 888 1484 
Q 888 1194 1011 928 
Q 1134 663 1356 523 
Q 1578 384 1822 384 
Q 2178 384 2434 671 
Q 2691 959 2691 1453 
Q 2691 1928 2437 2201 
Q 2184 2475 1800 2475 
Q 1419 2475 1153 2201 
Q 888 1928 888 1484 
z
" transform="scale(0.015625)"/>
       </defs>
       <use xlink:href="#ArialMT-36"/>
      </g>
     </g>
    </g>
    <g id="xtick_5">
     <g id="line2d_9">
      <path d="M 219.828364 181.814173 
L 219.828364 7.2 
" clip-path="url(#p4db4b0d78a)" style="fill: none; stroke: #b0b0b0; stroke-width: 0.8; stroke-linecap: square"/>
     </g>
     <g id="line2d_10">
      <g>
       <use xlink:href="#ma15ef468e0" x="219.828364" y="181.814173" style="stroke: #000000; stroke-width: 0.8"/>
      </g>
     </g>
     <g id="text_5">
      <!-- 8 -->
      <g transform="translate(217.047895 192.471986) scale(0.1 -0.1)">
       <defs>
        <path id="ArialMT-38" d="M 1131 2484 
Q 781 2613 612 2850 
Q 444 3088 444 3419 
Q 444 3919 803 4259 
Q 1163 4600 1759 4600 
Q 2359 4600 2725 4251 
Q 3091 3903 3091 3403 
Q 3091 3084 2923 2848 
Q 2756 2613 2416 2484 
Q 2838 2347 3058 2040 
Q 3278 1734 3278 1309 
Q 3278 722 2862 322 
Q 2447 -78 1769 -78 
Q 1091 -78 675 323 
Q 259 725 259 1325 
Q 259 1772 486 2073 
Q 713 2375 1131 2484 
z
M 1019 3438 
Q 1019 3113 1228 2906 
Q 1438 2700 1772 2700 
Q 2097 2700 2305 2904 
Q 2513 3109 2513 3406 
Q 2513 3716 2298 3927 
Q 2084 4138 1766 4138 
Q 1444 4138 1231 3931 
Q 1019 3725 1019 3438 
z
M 838 1322 
Q 838 1081 952 856 
Q 1066 631 1291 507 
Q 1516 384 1775 384 
Q 2178 384 2440 643 
Q 2703 903 2703 1303 
Q 2703 1709 2433 1975 
Q 2163 2241 1756 2241 
Q 1359 2241 1098 1978 
Q 838 1716 838 1322 
z
" transform="scale(0.015625)"/>
       </defs>
       <use xlink:href="#ArialMT-38"/>
      </g>
     </g>
    </g>
    <g id="xtick_6">
     <g id="line2d_11">
      <path d="M 263.330352 181.814173 
L 263.330352 7.2 
" clip-path="url(#p4db4b0d78a)" style="fill: none; stroke: #b0b0b0; stroke-width: 0.8; stroke-linecap: square"/>
     </g>
     <g id="line2d_12">
      <g>
       <use xlink:href="#ma15ef468e0" x="263.330352" y="181.814173" style="stroke: #000000; stroke-width: 0.8"/>
      </g>
     </g>
     <g id="text_6">
      <!-- 10 -->
      <g transform="translate(257.769414 192.471986) scale(0.1 -0.1)">
       <defs>
        <path id="ArialMT-31" d="M 2384 0 
L 1822 0 
L 1822 3584 
Q 1619 3391 1289 3197 
Q 959 3003 697 2906 
L 697 3450 
Q 1169 3672 1522 3987 
Q 1875 4303 2022 4600 
L 2384 4600 
L 2384 0 
z
" transform="scale(0.015625)"/>
       </defs>
       <use xlink:href="#ArialMT-31"/>
       <use xlink:href="#ArialMT-30" x="55.615234"/>
      </g>
     </g>
    </g>
    <g id="text_7">
     <!-- Epoch ($\times 10^3$) -->
     <g transform="translate(121.587832 207.559486) scale(0.1 -0.1)">
      <defs>
       <path id="ArialMT-45" d="M 506 0 
L 506 4581 
L 3819 4581 
L 3819 4041 
L 1113 4041 
L 1113 2638 
L 3647 2638 
L 3647 2100 
L 1113 2100 
L 1113 541 
L 3925 541 
L 3925 0 
L 506 0 
z
" transform="scale(0.015625)"/>
       <path id="ArialMT-70" d="M 422 -1272 
L 422 3319 
L 934 3319 
L 934 2888 
Q 1116 3141 1344 3267 
Q 1572 3394 1897 3394 
Q 2322 3394 2647 3175 
Q 2972 2956 3137 2557 
Q 3303 2159 3303 1684 
Q 3303 1175 3120 767 
Q 2938 359 2589 142 
Q 2241 -75 1856 -75 
Q 1575 -75 1351 44 
Q 1128 163 984 344 
L 984 -1272 
L 422 -1272 
z
M 931 1641 
Q 931 1000 1190 694 
Q 1450 388 1819 388 
Q 2194 388 2461 705 
Q 2728 1022 2728 1688 
Q 2728 2322 2467 2637 
Q 2206 2953 1844 2953 
Q 1484 2953 1207 2617 
Q 931 2281 931 1641 
z
" transform="scale(0.015625)"/>
       <path id="ArialMT-6f" d="M 213 1659 
Q 213 2581 725 3025 
Q 1153 3394 1769 3394 
Q 2453 3394 2887 2945 
Q 3322 2497 3322 1706 
Q 3322 1066 3130 698 
Q 2938 331 2570 128 
Q 2203 -75 1769 -75 
Q 1072 -75 642 372 
Q 213 819 213 1659 
z
M 791 1659 
Q 791 1022 1069 705 
Q 1347 388 1769 388 
Q 2188 388 2466 706 
Q 2744 1025 2744 1678 
Q 2744 2294 2464 2611 
Q 2184 2928 1769 2928 
Q 1347 2928 1069 2612 
Q 791 2297 791 1659 
z
" transform="scale(0.015625)"/>
       <path id="ArialMT-63" d="M 2588 1216 
L 3141 1144 
Q 3050 572 2676 248 
Q 2303 -75 1759 -75 
Q 1078 -75 664 370 
Q 250 816 250 1647 
Q 250 2184 428 2587 
Q 606 2991 970 3192 
Q 1334 3394 1763 3394 
Q 2303 3394 2647 3120 
Q 2991 2847 3088 2344 
L 2541 2259 
Q 2463 2594 2264 2762 
Q 2066 2931 1784 2931 
Q 1359 2931 1093 2626 
Q 828 2322 828 1663 
Q 828 994 1084 691 
Q 1341 388 1753 388 
Q 2084 388 2306 591 
Q 2528 794 2588 1216 
z
" transform="scale(0.015625)"/>
       <path id="ArialMT-68" d="M 422 0 
L 422 4581 
L 984 4581 
L 984 2938 
Q 1378 3394 1978 3394 
Q 2347 3394 2619 3248 
Q 2891 3103 3008 2847 
Q 3125 2591 3125 2103 
L 3125 0 
L 2563 0 
L 2563 2103 
Q 2563 2525 2380 2717 
Q 2197 2909 1863 2909 
Q 1613 2909 1392 2779 
Q 1172 2650 1078 2428 
Q 984 2206 984 1816 
L 984 0 
L 422 0 
z
" transform="scale(0.015625)"/>
       <path id="ArialMT-20" transform="scale(0.015625)"/>
       <path id="ArialMT-28" d="M 1497 -1347 
Q 1031 -759 709 28 
Q 388 816 388 1659 
Q 388 2403 628 3084 
Q 909 3875 1497 4659 
L 1900 4659 
Q 1522 4009 1400 3731 
Q 1209 3300 1100 2831 
Q 966 2247 966 1656 
Q 966 153 1900 -1347 
L 1497 -1347 
z
" transform="scale(0.015625)"/>
       <path id="DejaVuSans-d7" d="M 4488 3438 
L 3059 2003 
L 4488 575 
L 4116 197 
L 2681 1631 
L 1247 197 
L 878 575 
L 2303 2003 
L 878 3438 
L 1247 3816 
L 2681 2381 
L 4116 3816 
L 4488 3438 
z
" transform="scale(0.015625)"/>
       <path id="DejaVuSans-31" d="M 794 531 
L 1825 531 
L 1825 4091 
L 703 3866 
L 703 4441 
L 1819 4666 
L 2450 4666 
L 2450 531 
L 3481 531 
L 3481 0 
L 794 0 
L 794 531 
z
" transform="scale(0.015625)"/>
       <path id="DejaVuSans-30" d="M 2034 4250 
Q 1547 4250 1301 3770 
Q 1056 3291 1056 2328 
Q 1056 1369 1301 889 
Q 1547 409 2034 409 
Q 2525 409 2770 889 
Q 3016 1369 3016 2328 
Q 3016 3291 2770 3770 
Q 2525 4250 2034 4250 
z
M 2034 4750 
Q 2819 4750 3233 4129 
Q 3647 3509 3647 2328 
Q 3647 1150 3233 529 
Q 2819 -91 2034 -91 
Q 1250 -91 836 529 
Q 422 1150 422 2328 
Q 422 3509 836 4129 
Q 1250 4750 2034 4750 
z
" transform="scale(0.015625)"/>
       <path id="DejaVuSans-33" d="M 2597 2516 
Q 3050 2419 3304 2112 
Q 3559 1806 3559 1356 
Q 3559 666 3084 287 
Q 2609 -91 1734 -91 
Q 1441 -91 1130 -33 
Q 819 25 488 141 
L 488 750 
Q 750 597 1062 519 
Q 1375 441 1716 441 
Q 2309 441 2620 675 
Q 2931 909 2931 1356 
Q 2931 1769 2642 2001 
Q 2353 2234 1838 2234 
L 1294 2234 
L 1294 2753 
L 1863 2753 
Q 2328 2753 2575 2939 
Q 2822 3125 2822 3475 
Q 2822 3834 2567 4026 
Q 2313 4219 1838 4219 
Q 1578 4219 1281 4162 
Q 984 4106 628 3988 
L 628 4550 
Q 988 4650 1302 4700 
Q 1616 4750 1894 4750 
Q 2613 4750 3031 4423 
Q 3450 4097 3450 3541 
Q 3450 3153 3228 2886 
Q 3006 2619 2597 2516 
z
" transform="scale(0.015625)"/>
       <path id="ArialMT-29" d="M 791 -1347 
L 388 -1347 
Q 1322 153 1322 1656 
Q 1322 2244 1188 2822 
Q 1081 3291 891 3722 
Q 769 4003 388 4659 
L 791 4659 
Q 1378 3875 1659 3084 
Q 1900 2403 1900 1659 
Q 1900 816 1576 28 
Q 1253 -759 791 -1347 
z
" transform="scale(0.015625)"/>
      </defs>
      <use xlink:href="#ArialMT-45" transform="translate(0 0.765625)"/>
      <use xlink:href="#ArialMT-70" transform="translate(66.699219 0.765625)"/>
      <use xlink:href="#ArialMT-6f" transform="translate(122.314453 0.765625)"/>
      <use xlink:href="#ArialMT-63" transform="translate(177.929688 0.765625)"/>
      <use xlink:href="#ArialMT-68" transform="translate(227.929688 0.765625)"/>
      <use xlink:href="#ArialMT-20" transform="translate(283.544922 0.765625)"/>
      <use xlink:href="#ArialMT-28" transform="translate(311.328125 0.765625)"/>
      <use xlink:href="#DejaVuSans-d7" transform="translate(344.628906 0.765625)"/>
      <use xlink:href="#DejaVuSans-31" transform="translate(428.417969 0.765625)"/>
      <use xlink:href="#DejaVuSans-30" transform="translate(492.041016 0.765625)"/>
      <use xlink:href="#DejaVuSans-33" transform="translate(556.621094 39.046875) scale(0.7)"/>
      <use xlink:href="#ArialMT-29" transform="translate(603.891602 0.765625)"/>
     </g>
    </g>
   </g>
   <g id="matplotlib.axis_2">
    <g id="ytick_1">
     <g id="line2d_13">
      <path d="M 43.645313 166.603848 
L 263.330352 166.603848 
" clip-path="url(#p4db4b0d78a)" style="fill: none; stroke: #b0b0b0; stroke-width: 0.8; stroke-linecap: square"/>
     </g>
     <g id="line2d_14">
      <defs>
       <path id="m53a539fcc9" d="M 0 0 
L 3.5 0 
" style="stroke: #000000; stroke-width: 0.8"/>
      </defs>
      <g>
       <use xlink:href="#m53a539fcc9" x="43.645313" y="166.603848" style="stroke: #000000; stroke-width: 0.8"/>
      </g>
     </g>
     <g id="text_8">
      <!-- $\mathdefault{10^{-9}}$ -->
      <g transform="translate(20.345313 171.760098) scale(0.1 -0.1)">
       <defs>
        <path id="ArialMT-2212" d="M 3381 1997 
L 356 1997 
L 356 2522 
L 3381 2522 
L 3381 1997 
z
" transform="scale(0.015625)"/>
        <path id="ArialMT-39" d="M 350 1059 
L 891 1109 
Q 959 728 1153 556 
Q 1347 384 1650 384 
Q 1909 384 2104 503 
Q 2300 622 2425 820 
Q 2550 1019 2634 1356 
Q 2719 1694 2719 2044 
Q 2719 2081 2716 2156 
Q 2547 1888 2255 1720 
Q 1963 1553 1622 1553 
Q 1053 1553 659 1965 
Q 266 2378 266 3053 
Q 266 3750 677 4175 
Q 1088 4600 1706 4600 
Q 2153 4600 2523 4359 
Q 2894 4119 3086 3673 
Q 3278 3228 3278 2384 
Q 3278 1506 3087 986 
Q 2897 466 2520 194 
Q 2144 -78 1638 -78 
Q 1100 -78 759 220 
Q 419 519 350 1059 
z
M 2653 3081 
Q 2653 3566 2395 3850 
Q 2138 4134 1775 4134 
Q 1400 4134 1122 3828 
Q 844 3522 844 3034 
Q 844 2597 1108 2323 
Q 1372 2050 1759 2050 
Q 2150 2050 2401 2323 
Q 2653 2597 2653 3081 
z
" transform="scale(0.015625)"/>
       </defs>
       <use xlink:href="#ArialMT-31" transform="translate(0 0.99375)"/>
       <use xlink:href="#ArialMT-30" transform="translate(55.615234 0.99375)"/>
       <use xlink:href="#ArialMT-2212" transform="translate(112.972813 70.6875) scale(0.7)"/>
       <use xlink:href="#ArialMT-39" transform="translate(153.851719 70.6875) scale(0.7)"/>
      </g>
     </g>
    </g>
    <g id="ytick_2">
     <g id="line2d_15">
      <path d="M 43.645313 128.630047 
L 263.330352 128.630047 
" clip-path="url(#p4db4b0d78a)" style="fill: none; stroke: #b0b0b0; stroke-width: 0.8; stroke-linecap: square"/>
     </g>
     <g id="line2d_16">
      <g>
       <use xlink:href="#m53a539fcc9" x="43.645313" y="128.630047" style="stroke: #000000; stroke-width: 0.8"/>
      </g>
     </g>
     <g id="text_9">
      <!-- $\mathdefault{10^{-8}}$ -->
      <g transform="translate(20.345313 133.786297) scale(0.1 -0.1)">
       <use xlink:href="#ArialMT-31" transform="translate(0 0.99375)"/>
       <use xlink:href="#ArialMT-30" transform="translate(55.615234 0.99375)"/>
       <use xlink:href="#ArialMT-2212" transform="translate(112.972813 70.6875) scale(0.7)"/>
       <use xlink:href="#ArialMT-38" transform="translate(153.851719 70.6875) scale(0.7)"/>
      </g>
     </g>
    </g>
    <g id="ytick_3">
     <g id="line2d_17">
      <path d="M 43.645313 90.656247 
L 263.330352 90.656247 
" clip-path="url(#p4db4b0d78a)" style="fill: none; stroke: #b0b0b0; stroke-width: 0.8; stroke-linecap: square"/>
     </g>
     <g id="line2d_18">
      <g>
       <use xlink:href="#m53a539fcc9" x="43.645313" y="90.656247" style="stroke: #000000; stroke-width: 0.8"/>
      </g>
     </g>
     <g id="text_10">
      <!-- $\mathdefault{10^{-7}}$ -->
      <g transform="translate(20.345313 95.762497) scale(0.1 -0.1)">
       <defs>
        <path id="ArialMT-37" d="M 303 3981 
L 303 4522 
L 3269 4522 
L 3269 4084 
Q 2831 3619 2401 2847 
Q 1972 2075 1738 1259 
Q 1569 684 1522 0 
L 944 0 
Q 953 541 1156 1306 
Q 1359 2072 1739 2783 
Q 2119 3494 2547 3981 
L 303 3981 
z
" transform="scale(0.015625)"/>
       </defs>
       <use xlink:href="#ArialMT-31" transform="translate(0 0.846875)"/>
       <use xlink:href="#ArialMT-30" transform="translate(55.615234 0.846875)"/>
       <use xlink:href="#ArialMT-2212" transform="translate(112.972813 70.540625) scale(0.7)"/>
       <use xlink:href="#ArialMT-37" transform="translate(153.851719 70.540625) scale(0.7)"/>
      </g>
     </g>
    </g>
    <g id="ytick_4">
     <g id="line2d_19">
      <path d="M 43.645313 52.682446 
L 263.330352 52.682446 
" clip-path="url(#p4db4b0d78a)" style="fill: none; stroke: #b0b0b0; stroke-width: 0.8; stroke-linecap: square"/>
     </g>
     <g id="line2d_20">
      <g>
       <use xlink:href="#m53a539fcc9" x="43.645313" y="52.682446" style="stroke: #000000; stroke-width: 0.8"/>
      </g>
     </g>
     <g id="text_11">
      <!-- $\mathdefault{10^{-6}}$ -->
      <g transform="translate(20.345313 57.838696) scale(0.1 -0.1)">
       <use xlink:href="#ArialMT-31" transform="translate(0 0.99375)"/>
       <use xlink:href="#ArialMT-30" transform="translate(55.615234 0.99375)"/>
       <use xlink:href="#ArialMT-2212" transform="translate(112.972813 70.6875) scale(0.7)"/>
       <use xlink:href="#ArialMT-36" transform="translate(153.851719 70.6875) scale(0.7)"/>
      </g>
     </g>
    </g>
    <g id="ytick_5">
     <g id="line2d_21">
      <path d="M 43.645313 14.708645 
L 263.330352 14.708645 
" clip-path="url(#p4db4b0d78a)" style="fill: none; stroke: #b0b0b0; stroke-width: 0.8; stroke-linecap: square"/>
     </g>
     <g id="line2d_22">
      <g>
       <use xlink:href="#m53a539fcc9" x="43.645313" y="14.708645" style="stroke: #000000; stroke-width: 0.8"/>
      </g>
     </g>
     <g id="text_12">
      <!-- $\mathdefault{10^{-5}}$ -->
      <g transform="translate(20.345313 19.814895) scale(0.1 -0.1)">
       <defs>
        <path id="ArialMT-35" d="M 266 1200 
L 856 1250 
Q 922 819 1161 601 
Q 1400 384 1738 384 
Q 2144 384 2425 690 
Q 2706 997 2706 1503 
Q 2706 1984 2436 2262 
Q 2166 2541 1728 2541 
Q 1456 2541 1237 2417 
Q 1019 2294 894 2097 
L 366 2166 
L 809 4519 
L 3088 4519 
L 3088 3981 
L 1259 3981 
L 1013 2750 
Q 1425 3038 1878 3038 
Q 2478 3038 2890 2622 
Q 3303 2206 3303 1553 
Q 3303 931 2941 478 
Q 2500 -78 1738 -78 
Q 1113 -78 717 272 
Q 322 622 266 1200 
z
" transform="scale(0.015625)"/>
       </defs>
       <use xlink:href="#ArialMT-31" transform="translate(0 0.879688)"/>
       <use xlink:href="#ArialMT-30" transform="translate(55.615234 0.879688)"/>
       <use xlink:href="#ArialMT-2212" transform="translate(112.972813 70.573438) scale(0.7)"/>
       <use xlink:href="#ArialMT-35" transform="translate(153.851719 70.573438) scale(0.7)"/>
      </g>
     </g>
    </g>
    <g id="ytick_6">
     <g id="line2d_23">
      <defs>
       <path id="m2bcfb4e51e" d="M 0 0 
L 2 0 
" style="stroke: #000000; stroke-width: 0.6"/>
      </defs>
      <g>
       <use xlink:href="#m2bcfb4e51e" x="43.645313" y="181.715143" style="stroke: #000000; stroke-width: 0.6"/>
      </g>
     </g>
    </g>
    <g id="ytick_7">
     <g id="line2d_24">
      <g>
       <use xlink:href="#m2bcfb4e51e" x="43.645313" y="178.035102" style="stroke: #000000; stroke-width: 0.6"/>
      </g>
     </g>
    </g>
    <g id="ytick_8">
     <g id="line2d_25">
      <g>
       <use xlink:href="#m2bcfb4e51e" x="43.645313" y="175.028289" style="stroke: #000000; stroke-width: 0.6"/>
      </g>
     </g>
    </g>
    <g id="ytick_9">
     <g id="line2d_26">
      <g>
       <use xlink:href="#m2bcfb4e51e" x="43.645313" y="172.486065" style="stroke: #000000; stroke-width: 0.6"/>
      </g>
     </g>
    </g>
    <g id="ytick_10">
     <g id="line2d_27">
      <g>
       <use xlink:href="#m2bcfb4e51e" x="43.645313" y="170.28389" style="stroke: #000000; stroke-width: 0.6"/>
      </g>
     </g>
    </g>
    <g id="ytick_11">
     <g id="line2d_28">
      <g>
       <use xlink:href="#m2bcfb4e51e" x="43.645313" y="168.341434" style="stroke: #000000; stroke-width: 0.6"/>
      </g>
     </g>
    </g>
    <g id="ytick_12">
     <g id="line2d_29">
      <g>
       <use xlink:href="#m2bcfb4e51e" x="43.645313" y="155.172595" style="stroke: #000000; stroke-width: 0.6"/>
      </g>
     </g>
    </g>
    <g id="ytick_13">
     <g id="line2d_30">
      <g>
       <use xlink:href="#m2bcfb4e51e" x="43.645313" y="148.485741" style="stroke: #000000; stroke-width: 0.6"/>
      </g>
     </g>
    </g>
    <g id="ytick_14">
     <g id="line2d_31">
      <g>
       <use xlink:href="#m2bcfb4e51e" x="43.645313" y="143.741342" style="stroke: #000000; stroke-width: 0.6"/>
      </g>
     </g>
    </g>
    <g id="ytick_15">
     <g id="line2d_32">
      <g>
       <use xlink:href="#m2bcfb4e51e" x="43.645313" y="140.061301" style="stroke: #000000; stroke-width: 0.6"/>
      </g>
     </g>
    </g>
    <g id="ytick_16">
     <g id="line2d_33">
      <g>
       <use xlink:href="#m2bcfb4e51e" x="43.645313" y="137.054488" style="stroke: #000000; stroke-width: 0.6"/>
      </g>
     </g>
    </g>
    <g id="ytick_17">
     <g id="line2d_34">
      <g>
       <use xlink:href="#m2bcfb4e51e" x="43.645313" y="134.512264" style="stroke: #000000; stroke-width: 0.6"/>
      </g>
     </g>
    </g>
    <g id="ytick_18">
     <g id="line2d_35">
      <g>
       <use xlink:href="#m2bcfb4e51e" x="43.645313" y="132.310089" style="stroke: #000000; stroke-width: 0.6"/>
      </g>
     </g>
    </g>
    <g id="ytick_19">
     <g id="line2d_36">
      <g>
       <use xlink:href="#m2bcfb4e51e" x="43.645313" y="130.367633" style="stroke: #000000; stroke-width: 0.6"/>
      </g>
     </g>
    </g>
    <g id="ytick_20">
     <g id="line2d_37">
      <g>
       <use xlink:href="#m2bcfb4e51e" x="43.645313" y="117.198794" style="stroke: #000000; stroke-width: 0.6"/>
      </g>
     </g>
    </g>
    <g id="ytick_21">
     <g id="line2d_38">
      <g>
       <use xlink:href="#m2bcfb4e51e" x="43.645313" y="110.51194" style="stroke: #000000; stroke-width: 0.6"/>
      </g>
     </g>
    </g>
    <g id="ytick_22">
     <g id="line2d_39">
      <g>
       <use xlink:href="#m2bcfb4e51e" x="43.645313" y="105.767541" style="stroke: #000000; stroke-width: 0.6"/>
      </g>
     </g>
    </g>
    <g id="ytick_23">
     <g id="line2d_40">
      <g>
       <use xlink:href="#m2bcfb4e51e" x="43.645313" y="102.0875" style="stroke: #000000; stroke-width: 0.6"/>
      </g>
     </g>
    </g>
    <g id="ytick_24">
     <g id="line2d_41">
      <g>
       <use xlink:href="#m2bcfb4e51e" x="43.645313" y="99.080687" style="stroke: #000000; stroke-width: 0.6"/>
      </g>
     </g>
    </g>
    <g id="ytick_25">
     <g id="line2d_42">
      <g>
       <use xlink:href="#m2bcfb4e51e" x="43.645313" y="96.538463" style="stroke: #000000; stroke-width: 0.6"/>
      </g>
     </g>
    </g>
    <g id="ytick_26">
     <g id="line2d_43">
      <g>
       <use xlink:href="#m2bcfb4e51e" x="43.645313" y="94.336288" style="stroke: #000000; stroke-width: 0.6"/>
      </g>
     </g>
    </g>
    <g id="ytick_27">
     <g id="line2d_44">
      <g>
       <use xlink:href="#m2bcfb4e51e" x="43.645313" y="92.393832" style="stroke: #000000; stroke-width: 0.6"/>
      </g>
     </g>
    </g>
    <g id="ytick_28">
     <g id="line2d_45">
      <g>
       <use xlink:href="#m2bcfb4e51e" x="43.645313" y="79.224993" style="stroke: #000000; stroke-width: 0.6"/>
      </g>
     </g>
    </g>
    <g id="ytick_29">
     <g id="line2d_46">
      <g>
       <use xlink:href="#m2bcfb4e51e" x="43.645313" y="72.538139" style="stroke: #000000; stroke-width: 0.6"/>
      </g>
     </g>
    </g>
    <g id="ytick_30">
     <g id="line2d_47">
      <g>
       <use xlink:href="#m2bcfb4e51e" x="43.645313" y="67.79374" style="stroke: #000000; stroke-width: 0.6"/>
      </g>
     </g>
    </g>
    <g id="ytick_31">
     <g id="line2d_48">
      <g>
       <use xlink:href="#m2bcfb4e51e" x="43.645313" y="64.113699" style="stroke: #000000; stroke-width: 0.6"/>
      </g>
     </g>
    </g>
    <g id="ytick_32">
     <g id="line2d_49">
      <g>
       <use xlink:href="#m2bcfb4e51e" x="43.645313" y="61.106886" style="stroke: #000000; stroke-width: 0.6"/>
      </g>
     </g>
    </g>
    <g id="ytick_33">
     <g id="line2d_50">
      <g>
       <use xlink:href="#m2bcfb4e51e" x="43.645313" y="58.564662" style="stroke: #000000; stroke-width: 0.6"/>
      </g>
     </g>
    </g>
    <g id="ytick_34">
     <g id="line2d_51">
      <g>
       <use xlink:href="#m2bcfb4e51e" x="43.645313" y="56.362487" style="stroke: #000000; stroke-width: 0.6"/>
      </g>
     </g>
    </g>
    <g id="ytick_35">
     <g id="line2d_52">
      <g>
       <use xlink:href="#m2bcfb4e51e" x="43.645313" y="54.420031" style="stroke: #000000; stroke-width: 0.6"/>
      </g>
     </g>
    </g>
    <g id="ytick_36">
     <g id="line2d_53">
      <g>
       <use xlink:href="#m2bcfb4e51e" x="43.645313" y="41.251193" style="stroke: #000000; stroke-width: 0.6"/>
      </g>
     </g>
    </g>
    <g id="ytick_37">
     <g id="line2d_54">
      <g>
       <use xlink:href="#m2bcfb4e51e" x="43.645313" y="34.564338" style="stroke: #000000; stroke-width: 0.6"/>
      </g>
     </g>
    </g>
    <g id="ytick_38">
     <g id="line2d_55">
      <g>
       <use xlink:href="#m2bcfb4e51e" x="43.645313" y="29.819939" style="stroke: #000000; stroke-width: 0.6"/>
      </g>
     </g>
    </g>
    <g id="ytick_39">
     <g id="line2d_56">
      <g>
       <use xlink:href="#m2bcfb4e51e" x="43.645313" y="26.139898" style="stroke: #000000; stroke-width: 0.6"/>
      </g>
     </g>
    </g>
    <g id="ytick_40">
     <g id="line2d_57">
      <g>
       <use xlink:href="#m2bcfb4e51e" x="43.645313" y="23.133085" style="stroke: #000000; stroke-width: 0.6"/>
      </g>
     </g>
    </g>
    <g id="ytick_41">
     <g id="line2d_58">
      <g>
       <use xlink:href="#m2bcfb4e51e" x="43.645313" y="20.590861" style="stroke: #000000; stroke-width: 0.6"/>
      </g>
     </g>
    </g>
    <g id="ytick_42">
     <g id="line2d_59">
      <g>
       <use xlink:href="#m2bcfb4e51e" x="43.645313" y="18.388686" style="stroke: #000000; stroke-width: 0.6"/>
      </g>
     </g>
    </g>
    <g id="ytick_43">
     <g id="line2d_60">
      <g>
       <use xlink:href="#m2bcfb4e51e" x="43.645313" y="16.446231" style="stroke: #000000; stroke-width: 0.6"/>
      </g>
     </g>
    </g>
    <g id="text_13">
     <!-- Loss -->
     <g transform="translate(14.357813 105.068024) rotate(-90) scale(0.1 -0.1)">
      <defs>
       <path id="ArialMT-4c" d="M 469 0 
L 469 4581 
L 1075 4581 
L 1075 541 
L 3331 541 
L 3331 0 
L 469 0 
z
" transform="scale(0.015625)"/>
       <path id="ArialMT-73" d="M 197 991 
L 753 1078 
Q 800 744 1014 566 
Q 1228 388 1613 388 
Q 2000 388 2187 545 
Q 2375 703 2375 916 
Q 2375 1106 2209 1216 
Q 2094 1291 1634 1406 
Q 1016 1563 777 1677 
Q 538 1791 414 1992 
Q 291 2194 291 2438 
Q 291 2659 392 2848 
Q 494 3038 669 3163 
Q 800 3259 1026 3326 
Q 1253 3394 1513 3394 
Q 1903 3394 2198 3281 
Q 2494 3169 2634 2976 
Q 2775 2784 2828 2463 
L 2278 2388 
Q 2241 2644 2061 2787 
Q 1881 2931 1553 2931 
Q 1166 2931 1000 2803 
Q 834 2675 834 2503 
Q 834 2394 903 2306 
Q 972 2216 1119 2156 
Q 1203 2125 1616 2013 
Q 2213 1853 2448 1751 
Q 2684 1650 2818 1456 
Q 2953 1263 2953 975 
Q 2953 694 2789 445 
Q 2625 197 2315 61 
Q 2006 -75 1616 -75 
Q 969 -75 630 194 
Q 291 463 197 991 
z
" transform="scale(0.015625)"/>
      </defs>
      <use xlink:href="#ArialMT-4c"/>
      <use xlink:href="#ArialMT-6f" x="55.615234"/>
      <use xlink:href="#ArialMT-73" x="111.230469"/>
      <use xlink:href="#ArialMT-73" x="161.230469"/>
     </g>
    </g>
   </g>
   <g id="line2d_61">
    <path d="M 45.820412 80.597934 
L 45.842163 73.727638 
L 45.863914 86.672108 
L 45.907416 85.610499 
L 45.929167 85.457534 
L 45.950918 85.700565 
L 46.21193 92.458972 
L 46.64695 103.139208 
L 47.038468 107.779255 
L 47.53874 111.548327 
L 48.169519 114.691255 
L 49.06131 117.839725 
L 50.866643 122.915815 
L 53.803027 130.328085 
L 55.064584 132.643644 
L 56.152134 134.150643 
L 57.283186 135.329289 
L 58.327233 136.155239 
L 59.480036 136.866818 
L 60.828598 137.524117 
L 62.329416 138.120441 
L 67.158137 139.662188 
L 70.855806 140.739497 
L 76.685072 142.449546 
L 79.904219 143.422875 
L 84.73294 144.923124 
L 86.864538 145.599137 
L 93.085322 147.574577 
L 94.955907 148.154443 
L 103.612803 150.565793 
L 106.375179 151.244094 
L 108.419773 151.737126 
L 127.277884 156.548687 
L 130.083763 157.338395 
L 131.889095 157.852449 
L 155.815189 164.467846 
L 159.186593 165.211649 
L 160.709162 165.508352 
L 163.232277 165.961087 
L 166.647184 166.483572 
L 167.647729 166.617279 
L 168.865785 166.778623 
L 171.628161 167.109624 
L 172.672209 167.23556 
L 174.086024 167.385147 
L 174.45579 167.429981 
L 180.654824 168.063702 
L 189.659735 168.810386 
L 189.76849 168.671626 
L 189.811992 168.765768 
L 189.877245 168.900122 
L 189.942498 168.827923 
L 191.07355 169.002496 
L 191.682578 169.051623 
L 199.599939 169.622685 
L 199.730445 169.557885 
L 199.752196 169.588359 
L 199.860951 169.712541 
L 199.904453 169.681992 
L 200.05671 169.730816 
L 200.92675 169.797664 
L 202.210059 169.842918 
L 202.405818 169.882441 
L 202.645079 169.913223 
L 204.058893 169.992307 
L 204.276403 169.978727 
L 204.42866 170.041556 
L 204.624419 170.075645 
L 205.603214 170.150281 
L 206.342748 170.160238 
L 206.60376 170.207163 
L 206.821269 170.22502 
L 207.386795 170.284842 
L 210.56244 170.36778 
L 210.649444 170.322717 
L 210.671195 170.365332 
L 210.758199 170.533319 
L 210.823452 170.477952 
L 211.019211 170.529555 
L 212.259018 170.638778 
L 214.93439 170.770104 
L 215.086647 170.648521 
L 215.130149 170.722853 
L 215.217153 170.851577 
L 215.282406 170.809501 
L 215.412912 170.859868 
L 216.261201 170.923613 
L 217.522759 170.967117 
L 217.740268 170.930815 
L 217.870774 171.015506 
L 217.892525 171.00003 
L 218.066533 171.049232 
L 219.197585 171.12572 
L 219.937119 171.132361 
L 220.17638 171.112879 
L 220.350388 171.185266 
L 220.633151 171.210195 
L 222.264475 171.195911 
L 222.351479 171.151729 
L 222.37323 171.183442 
L 222.481985 171.349387 
L 222.525487 171.308861 
L 222.634242 171.346312 
L 222.895254 171.377222 
L 225.048602 171.39199 
L 225.157357 171.196591 
L 225.179108 171.24872 
L 225.266112 171.535522 
L 225.331365 171.429045 
L 225.396618 171.500949 
L 225.44012 171.548973 
L 225.505373 171.492536 
L 226.070899 171.590623 
L 230.747363 171.738826 
L 230.834367 171.620353 
L 230.877869 171.722839 
L 230.964873 171.90418 
L 231.008375 171.839447 
L 231.051877 171.826993 
L 231.095379 171.887325 
L 231.225885 171.889744 
L 231.921917 171.976293 
L 232.87896 172.036711 
L 233.923008 172.042423 
L 234.075265 171.822744 
L 234.118767 171.911513 
L 234.205771 172.115172 
L 234.249273 172.051662 
L 234.292775 172.032979 
L 234.336277 172.093226 
L 234.466783 172.096893 
L 234.988807 172.170149 
L 236.424372 172.263703 
L 236.989898 172.205427 
L 237.120404 172.140648 
L 237.142155 172.165967 
L 237.25091 172.316305 
L 237.316163 172.27364 
L 237.577175 172.307527 
L 238.425464 172.387251 
L 240.165543 172.441276 
L 240.383053 172.430279 
L 240.557061 172.496898 
L 241.166089 172.561991 
L 241.905623 172.600584 
L 242.427647 172.637663 
L 243.580449 172.714799 
L 243.928465 172.616474 
L 244.03722 172.345807 
L 244.080722 172.446962 
L 244.145975 172.681336 
L 244.232979 172.653597 
L 244.428738 172.749764 
L 244.820256 172.786464 
L 246.995355 172.88663 
L 247.234616 172.782245 
L 247.256367 172.831349 
L 247.343371 172.937556 
L 247.386873 172.909004 
L 247.517379 172.941181 
L 247.821893 172.963308 
L 248.365668 173.005583 
L 249.692479 172.894154 
L 249.757732 172.847851 
L 249.779483 172.883238 
L 249.888238 173.089278 
L 249.953491 173.038631 
L 250.258004 173.104614 
L 251.084542 173.167964 
L 252.150341 173.177415 
L 252.302598 173.211732 
L 253.390148 173.305004 
L 253.933922 173.211255 
L 254.064428 173.251355 
L 254.238436 173.319886 
L 254.521199 173.364716 
L 255.021472 173.401556 
L 255.674002 173.329543 
L 255.782757 173.223109 
L 255.826259 173.278056 
L 256.000267 173.40655 
L 257.82735 173.497982 
L 257.979607 173.278848 
L 258.023109 173.352315 
L 258.110113 173.561224 
L 258.175366 173.521684 
L 258.436378 173.575432 
L 259.045406 173.634939 
L 259.502177 173.660352 
L 260.089454 173.696703 
L 260.589727 173.653415 
L 260.741984 173.390433 
L 260.785486 173.517836 
L 260.850739 173.719244 
L 260.915992 173.64959 
L 261.002996 173.709383 
L 261.198754 173.742927 
L 261.590272 173.771223 
L 262.699573 173.84199 
L 263.308601 173.877144 
L 263.308601 173.877144 
" clip-path="url(#p4db4b0d78a)" style="fill: none; stroke: #0000ff; stroke-width: 1.5; stroke-linecap: square"/>
   </g>
   <g id="line2d_62">
    <path d="M 45.820412 67.553277 
L 45.842163 80.655675 
L 45.950918 80.505675 
L 46.755705 96.156788 
L 47.190725 100.570766 
L 47.603993 104.353483 
L 48.256523 107.552409 
L 48.822049 109.33182 
L 49.626836 111.142532 
L 52.541469 116.690467 
L 53.455011 117.917117 
L 54.194545 118.600721 
L 55.129837 119.08342 
L 56.021628 119.235999 
L 57.087427 119.160276 
L 59.393032 118.604054 
L 63.112452 117.758455 
L 65.091793 117.497422 
L 67.701912 117.3308 
L 73.857443 117.440789 
L 76.902582 117.624841 
L 91.889017 118.832891 
L 96.369722 119.320368 
L 100.154395 119.892213 
L 105.396384 120.975632 
L 118.251222 123.881392 
L 128.517691 125.924519 
L 149.028878 129.345952 
L 150.094677 129.501091 
L 153.466081 129.983995 
L 154.771141 130.119051 
L 154.858145 130.096124 
L 154.879896 130.268384 
L 154.945149 130.078195 
L 154.9669 130.301683 
L 154.988651 130.089344 
L 155.010402 130.294625 
L 155.097406 130.226955 
L 155.380169 130.233077 
L 155.488924 130.293642 
L 155.510675 130.243604 
L 155.597679 130.285648 
L 155.793438 130.301016 
L 156.054449 130.347502 
L 156.467718 130.399231 
L 157.076746 130.484427 
L 157.533517 130.529407 
L 157.685774 130.592648 
L 157.794529 130.519792 
L 157.881533 130.495667 
L 157.903284 130.692546 
L 157.968537 130.47699 
L 157.990288 130.720454 
L 158.012039 130.488722 
L 158.03379 130.708705 
L 158.120794 130.639778 
L 158.2513 130.573598 
L 158.273051 130.69934 
L 158.360055 130.665247 
L 158.577565 130.66217 
L 158.708071 130.716577 
L 158.816826 130.701202 
L 158.990834 130.746635 
L 159.143091 130.750324 
L 159.860873 130.853079 
L 160.056632 130.861839 
L 160.295893 130.903763 
L 160.491652 130.910228 
L 160.643909 130.967568 
L 160.752664 130.893073 
L 160.839668 130.86059 
L 160.861419 131.077605 
L 160.926672 130.825138 
L 160.948423 131.120329 
L 160.970174 130.829328 
L 160.991925 131.111502 
L 161.078929 131.012018 
L 161.361692 130.985954 
L 161.426945 131.080838 
L 161.470447 131.070031 
L 161.600953 131.024577 
L 161.709708 131.079191 
L 161.731459 131.062248 
L 162.427491 131.152525 
L 162.688503 131.170456 
L 162.993017 131.207902 
L 163.819554 131.286005 
L 163.971811 131.329583 
L 164.080566 131.265132 
L 164.16757 131.2282 
L 164.189321 131.437389 
L 164.276325 131.50275 
L 164.298076 131.15156 
L 164.319827 131.510057 
L 164.406831 131.41047 
L 164.493835 131.270233 
L 164.559088 131.454843 
L 164.537337 131.257323 
L 164.60259 131.415747 
L 164.733096 131.316019 
L 164.754847 131.439567 
L 164.841851 131.383035 
L 164.950606 131.436829 
L 165.081112 131.39244 
L 165.189867 131.436964 
L 165.211618 131.414951 
L 165.450879 131.444421 
L 166.168662 131.503442 
L 166.603682 131.539976 
L 167.190958 131.591518 
L 167.473721 131.598275 
L 167.625978 131.64842 
L 167.734733 131.562367 
L 167.821737 131.515666 
L 167.843488 131.766574 
L 167.930492 131.826025 
L 167.952243 131.43946 
L 167.973994 131.820117 
L 168.060998 131.676799 
L 168.148002 131.547615 
L 168.169753 131.76481 
L 168.256757 131.689199 
L 168.387263 131.607003 
L 168.517769 131.713213 
L 168.583022 131.645594 
L 168.626524 131.662088 
L 168.75703 131.726053 
L 168.865785 131.698447 
L 169.931584 131.772703 
L 170.301351 131.791347 
L 170.932129 131.861714 
L 171.040884 131.770706 
L 171.127888 131.744573 
L 171.149639 131.936455 
L 171.236643 131.97678 
L 171.258394 131.696728 
L 171.280145 131.986501 
L 171.367149 131.954554 
L 171.3889 131.767033 
L 171.475904 131.868714 
L 171.519406 131.906749 
L 171.584659 131.79263 
L 171.60641 131.927923 
L 171.693414 131.893399 
L 171.82392 131.840107 
L 171.932675 131.913726 
L 172.04143 131.878613 
L 172.302442 131.912911 
L 172.454699 131.899422 
L 172.650458 131.920051 
L 172.976723 131.930875 
L 173.607502 132.035575 
L 173.694506 132.113276 
L 173.716257 131.781957 
L 173.803261 131.70322 
L 173.825012 132.202162 
L 173.846763 131.751547 
L 173.933767 132.021834 
L 173.99902 131.822332 
L 174.020771 132.122073 
L 174.042522 131.858414 
L 174.173027 132.086131 
L 174.194778 131.890491 
L 174.281782 132.008302 
L 174.347035 131.929802 
L 174.325284 132.054177 
L 174.390537 131.947334 
L 174.521043 132.046908 
L 174.542794 131.965411 
L 174.629798 132.018018 
L 174.738553 131.993524 
L 174.760304 132.028773 
L 174.934312 132.010228 
L 175.10832 132.043304 
L 175.260577 132.04741 
L 175.434585 132.039564 
L 175.717348 132.057793 
L 176.108866 132.071433 
L 177.674938 132.14514 
L 177.827194 132.099779 
L 177.914198 132.052716 
L 177.935949 132.260266 
L 178.022953 132.371352 
L 178.044704 131.873314 
L 178.109957 132.431101 
L 178.088206 131.831045 
L 178.153459 132.341807 
L 178.283965 131.973332 
L 178.305716 132.322647 
L 178.39272 132.101316 
L 178.457973 132.291576 
L 178.436222 132.038858 
L 178.501475 132.229887 
L 178.588479 132.089932 
L 178.61023 132.261839 
L 178.697234 132.16682 
L 178.740736 132.126726 
L 178.805989 132.22518 
L 178.936495 132.149713 
L 179.067001 132.221794 
L 179.197507 132.193501 
L 179.349764 132.203525 
L 179.654278 132.224786 
L 179.871788 132.220741 
L 180.154551 132.239411 
L 181.503112 132.270972 
L 181.611867 132.323571 
L 181.720622 132.266322 
L 181.829377 132.349475 
L 181.916381 132.370414 
L 181.938132 132.234496 
L 182.025136 132.214034 
L 182.046887 132.415023 
L 182.133891 132.444619 
L 182.155642 132.174506 
L 182.220895 132.454295 
L 182.264397 132.443146 
L 182.286148 132.205748 
L 182.373152 132.281995 
L 182.503658 132.378272 
L 182.54716 132.392547 
L 182.612413 132.272877 
L 182.677666 132.387133 
L 182.721168 132.375452 
L 182.829923 132.335719 
L 183.047433 132.368643 
L 183.19969 132.343889 
L 183.351947 132.381227 
L 183.460702 132.345267 
L 183.569457 132.410314 
L 183.678212 132.315109 
L 183.765216 132.282001 
L 183.786967 132.491105 
L 183.873971 132.555092 
L 183.895722 132.183684 
L 183.960975 132.598037 
L 183.939224 132.15807 
L 184.004477 132.583812 
L 184.026228 132.211466 
L 184.113232 132.392334 
L 184.156734 132.469736 
L 184.178485 132.295737 
L 184.243738 132.518595 
L 184.221987 132.271209 
L 184.28724 132.486322 
L 184.417746 132.351266 
L 184.482999 132.468941 
L 184.526501 132.453842 
L 184.657007 132.383094 
L 184.765762 132.449214 
L 184.896268 132.411394 
L 185.005022 132.444289 
L 185.026773 132.422309 
L 185.200781 132.452636 
L 185.353038 132.436438 
L 185.548797 132.451764 
L 186.201327 132.496254 
L 186.310082 132.444026 
L 186.397086 132.410149 
L 186.418837 132.571067 
L 186.505841 132.645234 
L 186.527592 132.304594 
L 186.614596 132.227102 
L 186.636347 132.737732 
L 186.658098 132.23261 
L 186.745102 132.411738 
L 186.832106 132.608066 
L 186.897359 132.369622 
L 186.875608 132.639787 
L 186.940861 132.418613 
L 187.071367 132.594687 
L 187.093118 132.428119 
L 187.180122 132.483827 
L 187.310628 132.574172 
L 187.332379 132.475453 
L 187.419383 132.509486 
L 187.549889 132.564241 
L 187.658644 132.527901 
L 187.876154 132.572972 
L 187.984909 132.535628 
L 188.137166 132.550776 
L 188.354676 132.56861 
L 188.550435 132.558129 
L 188.702691 132.577943 
L 189.420474 132.635973 
L 189.507478 132.673417 
L 189.529229 132.533753 
L 189.616233 132.42503 
L 189.637984 132.822789 
L 189.724988 132.95681 
L 189.746739 132.209247 
L 189.76849 132.941865 
L 189.855494 132.597594 
L 189.898996 132.429061 
L 189.920747 132.83949 
L 189.942498 132.399243 
L 190.029502 132.682228 
L 190.094755 132.477765 
L 190.073004 132.778666 
L 190.138257 132.546067 
L 190.268763 132.740639 
L 190.399269 132.566261 
L 190.42102 132.729613 
L 190.508024 132.621879 
L 190.573277 132.711694 
L 190.551526 132.597582 
L 190.616779 132.684802 
L 190.747285 132.628049 
L 190.877791 132.695043 
L 191.008297 132.663745 
L 191.182305 132.688394 
L 191.334562 132.688314 
L 191.639076 132.694239 
L 191.900088 132.719365 
L 192.074096 132.704812 
L 192.226352 132.734446 
L 192.378609 132.715918 
L 192.552617 132.730265 
L 192.900633 132.750663 
L 193.183396 132.7547 
L 193.400906 132.793092 
L 193.509661 132.713758 
L 193.596665 132.681966 
L 193.618416 132.872325 
L 193.70542 132.936274 
L 193.727171 132.587133 
L 193.814175 132.526188 
L 193.835926 133.007317 
L 193.857677 132.546878 
L 193.944681 132.705409 
L 194.075187 132.904194 
L 194.096938 132.667444 
L 194.118689 132.914857 
L 194.183942 132.715475 
L 194.314448 132.850248 
L 194.35795 132.865245 
L 194.423203 132.75371 
L 194.553709 132.830274 
L 194.597211 132.856286 
L 194.662464 132.768465 
L 194.771219 132.84638 
L 194.901725 132.800286 
L 195.01048 132.873941 
L 195.075733 132.79639 
L 195.119235 132.809182 
L 195.249741 132.847002 
L 195.401998 132.816582 
L 195.510753 132.89275 
L 195.619508 132.802131 
L 195.706512 132.783734 
L 195.728263 132.935044 
L 195.815267 132.971242 
L 195.837017 132.732994 
L 195.924021 132.696559 
L 195.945772 133.032945 
L 195.967523 132.681636 
L 195.989274 133.040957 
L 196.054527 132.714079 
L 196.076278 133.004984 
L 196.163282 132.923303 
L 196.293788 132.823465 
L 196.33729 132.804806 
L 196.402543 132.960493 
L 196.424294 132.817163 
L 196.511298 132.847157 
L 196.641804 132.905777 
L 196.750559 132.861179 
L 196.859314 132.95697 
L 196.968069 132.857017 
L 197.076824 132.96151 
L 197.185579 132.870277 
L 197.294334 132.972409 
L 197.381338 132.990754 
L 197.403089 132.849631 
L 197.490093 132.819716 
L 197.511844 133.046368 
L 197.598848 133.101271 
L 197.620599 132.737657 
L 197.685852 133.128775 
L 197.664101 132.724318 
L 197.729354 133.114283 
L 197.751105 132.768977 
L 197.838109 132.910377 
L 197.925113 133.030673 
L 197.990366 132.829853 
L 198.012117 133.063547 
L 198.033868 132.844195 
L 198.055619 133.038871 
L 198.142623 132.970533 
L 198.273129 132.910274 
L 198.381884 133.000775 
L 198.447137 132.946488 
L 198.490639 132.96103 
L 198.708149 132.989596 
L 198.882157 132.979258 
L 199.056165 132.988764 
L 199.404181 133.070469 
L 199.491184 133.121673 
L 199.512935 132.87233 
L 199.599939 132.773319 
L 199.62169 133.243599 
L 199.686943 132.699774 
L 199.665192 133.278548 
L 199.730445 132.751344 
L 199.752196 133.20968 
L 199.8392 132.966976 
L 199.904453 133.175923 
L 199.926204 132.861664 
L 199.947955 133.163531 
L 199.969706 132.911066 
L 200.05671 133.066336 
L 200.100212 133.112638 
L 200.165465 132.952105 
L 200.187216 133.105189 
L 200.295971 133.086176 
L 200.361224 132.996602 
L 200.404726 133.010444 
L 200.535232 133.079111 
L 200.600485 133.021739 
L 200.643987 133.038503 
L 200.817995 133.079947 
L 200.970252 133.06411 
L 201.427023 133.097169 
L 201.57928 133.090454 
L 202.0143 133.197261 
L 202.101304 133.228866 
L 202.123055 132.971932 
L 202.210059 132.932019 
L 202.23181 133.287031 
L 202.297063 132.919201 
L 202.275312 133.297144 
L 202.340565 132.946346 
L 202.362316 133.25888 
L 202.44932 133.165571 
L 202.536324 133.065694 
L 202.623328 133.038653 
L 202.645079 133.219722 
L 202.66683 133.047387 
L 202.753834 133.094359 
L 202.88434 133.15876 
L 202.993095 133.110831 
L 203.101849 133.183153 
L 203.210604 133.133633 
L 203.319359 133.182077 
L 203.428114 133.14919 
L 203.55862 133.177447 
L 203.710877 133.150022 
L 203.819632 133.217662 
L 203.906636 133.251078 
L 203.928387 133.103294 
L 204.015391 133.04651 
L 204.037142 133.33554 
L 204.124146 133.406672 
L 204.145897 132.922608 
L 204.167648 133.425345 
L 204.189399 132.915797 
L 204.254652 133.374863 
L 204.276403 133.043979 
L 204.363407 133.24524 
L 204.450411 133.334519 
L 204.472162 133.071213 
L 204.493913 133.314061 
L 204.580917 133.197531 
L 204.667921 133.12962 
L 204.689672 133.295896 
L 204.711423 133.1362 
L 204.798427 133.21091 
L 205.255198 133.237863 
L 206.059985 133.30442 
L 206.146989 133.344456 
L 206.16874 133.190372 
L 206.255744 133.158802 
L 206.277495 133.394292 
L 206.364499 133.442827 
L 206.38625 133.083416 
L 206.451503 133.480532 
L 206.429752 133.059295 
L 206.495005 133.467562 
L 206.516756 133.097954 
L 206.60376 133.222893 
L 206.734265 133.389513 
L 206.756016 133.18734 
L 206.84302 133.227602 
L 206.864771 133.351335 
L 206.973526 133.331577 
L 207.082281 133.266727 
L 207.191036 133.335512 
L 207.299791 133.308022 
L 207.321542 133.320226 
L 208.213333 133.24222 
L 208.300337 133.180257 
L 208.322088 133.523738 
L 208.409092 133.562034 
L 208.430843 133.121819 
L 208.452594 133.554063 
L 208.539598 133.474732 
L 208.670104 133.268615 
L 208.735357 133.477609 
L 208.713606 133.25248 
L 208.778859 133.45691 
L 208.80061 133.304029 
L 208.887614 133.376341 
L 209.083373 133.35478 
L 209.213879 133.412708 
L 209.322634 133.379232 
L 209.474891 133.405735 
L 209.714152 133.387684 
L 209.822907 133.420023 
L 209.844658 133.407545 
L 209.996915 133.428495 
L 210.149172 133.401141 
L 210.257927 133.47186 
L 210.34493 133.502782 
L 210.366681 133.353539 
L 210.453685 133.273164 
L 210.475436 133.605074 
L 210.56244 133.691723 
L 210.584191 133.105429 
L 210.605942 133.716792 
L 210.692946 133.587986 
L 210.801701 133.606593 
L 210.823452 133.266614 
L 210.845203 133.607642 
L 210.932207 133.454376 
L 210.975709 133.376029 
L 210.99746 133.556221 
L 211.019211 133.34719 
L 211.106215 133.441829 
L 211.345476 133.492122 
L 211.454231 133.439623 
L 211.584737 133.495742 
L 211.715243 133.487405 
L 212.324271 133.523896 
L 212.476528 133.487838 
L 212.585283 133.537901 
L 212.694038 133.480023 
L 212.802793 133.546565 
L 212.911548 133.513344 
L 213.020303 133.579065 
L 213.107307 133.606111 
L 213.129058 133.461926 
L 213.216062 133.408028 
L 213.237813 133.679472 
L 213.324817 133.719052 
L 213.346568 133.345858 
L 213.368319 133.727411 
L 213.455323 133.688164 
L 213.477074 133.427337 
L 213.564078 133.541114 
L 213.694584 133.636333 
L 213.716335 133.485996 
L 213.803339 133.520735 
L 213.933845 133.581079 
L 214.086101 133.553702 
L 214.216607 133.590801 
L 214.49937 133.585253 
L 214.651627 133.621692 
L 214.760382 133.545981 
L 214.847386 133.513118 
L 214.869137 133.71277 
L 214.956141 133.799958 
L 214.977892 133.364409 
L 215.043145 133.859674 
L 215.064896 133.302415 
L 215.086647 133.853204 
L 215.108398 133.364314 
L 215.195402 133.640269 
L 215.238904 133.726131 
L 215.260655 133.483757 
L 215.282406 133.760108 
L 215.304157 133.466961 
L 215.36941 133.702578 
L 215.499916 133.537868 
L 215.521667 133.717426 
L 215.608671 133.635758 
L 215.652173 133.595215 
L 215.717426 133.706403 
L 215.739177 133.577069 
L 215.826181 133.629398 
L 215.956687 133.682702 
L 216.065442 133.624174 
L 216.195948 133.673818 
L 216.326454 133.66525 
L 217.348751 133.750103 
L 217.435755 133.78782 
L 217.457506 133.606803 
L 217.54451 133.527175 
L 217.566261 133.889857 
L 217.631513 133.443413 
L 217.653264 133.939387 
L 217.675015 133.446699 
L 217.696766 133.920913 
L 217.78377 133.7727 
L 217.849023 133.809256 
L 217.870774 133.594711 
L 217.936027 133.855066 
L 217.914276 133.573377 
L 217.979529 133.82066 
L 218.110035 133.650992 
L 218.131786 133.822239 
L 218.153537 133.642624 
L 218.21879 133.786592 
L 218.349296 133.696494 
L 218.414549 133.797515 
L 218.392798 133.685421 
L 218.458051 133.780109 
L 218.588557 133.736586 
L 218.697312 133.788801 
L 218.827818 133.74628 
L 218.936573 133.803029 
L 218.980075 133.820293 
L 219.045328 133.715611 
L 219.154083 133.798654 
L 219.284589 133.773528 
L 219.697858 133.83857 
L 219.784862 133.869138 
L 219.806613 133.704968 
L 219.893617 133.671772 
L 219.915368 133.923782 
L 220.002372 133.980715 
L 220.024123 133.571032 
L 220.089376 134.014218 
L 220.067625 133.553445 
L 220.132878 133.983598 
L 220.154629 133.628622 
L 220.241633 133.782219 
L 220.328637 133.91161 
L 220.350388 133.700063 
L 220.372139 133.924763 
L 220.437392 133.739974 
L 220.567898 133.871895 
L 220.6114 133.891822 
L 220.676653 133.757682 
L 220.698404 133.891519 
L 220.785408 133.842141 
L 222.025214 133.809029 
L 222.112218 133.762327 
L 222.133969 134.009652 
L 222.220973 134.078526 
L 222.242724 133.638806 
L 222.307977 134.125618 
L 222.329728 133.590553 
L 222.351479 134.121752 
L 222.37323 133.658492 
L 222.460234 133.931861 
L 222.525487 133.732851 
L 222.547238 134.055873 
L 222.568989 133.745407 
L 222.59074 134.011014 
L 222.677744 133.864573 
L 222.721246 133.819083 
L 222.786499 133.984845 
L 222.80825 133.849102 
L 222.895254 133.9377 
L 222.938756 133.96276 
L 223.004009 133.876187 
L 223.134515 133.946188 
L 223.178017 133.965794 
L 223.24327 133.894075 
L 223.373776 133.951754 
L 223.482531 133.92615 
L 223.700041 133.952617 
L 223.830547 133.926099 
L 223.939302 133.966514 
L 224.091559 133.934579 
L 224.200314 133.982392 
L 224.309069 133.941578 
L 224.417824 133.986128 
L 224.439575 133.957263 
L 224.591832 133.981849 
L 224.874594 133.937035 
L 224.961598 133.849159 
L 224.983349 134.137624 
L 225.070353 134.24494 
L 225.092104 133.618131 
L 225.157357 134.283729 
L 225.135606 133.587 
L 225.200859 134.184617 
L 225.309614 134.206373 
L 225.331365 133.761031 
L 225.353116 134.181661 
L 225.44012 133.924168 
L 225.505373 134.145731 
L 225.483622 133.854363 
L 225.548875 134.085209 
L 225.635879 133.909825 
L 225.65763 134.127045 
L 225.744634 133.998826 
L 225.809887 134.108094 
L 225.788136 133.942261 
L 225.853389 134.070871 
L 225.983895 133.98321 
L 226.114401 134.054615 
L 226.179654 134.005912 
L 226.223156 134.025303 
L 226.462417 134.0515 
L 226.658176 134.049061 
L 228.158995 134.033607 
L 228.202497 134.026055 
L 228.26775 134.194221 
L 228.289501 134.028365 
L 228.376505 134.045125 
L 228.485259 134.184636 
L 228.572263 134.205705 
L 228.594014 134.035789 
L 228.702769 134.224405 
L 228.789773 134.258406 
L 228.811524 133.973972 
L 228.876777 134.285361 
L 228.855026 133.960156 
L 228.920279 134.282073 
L 228.94203 133.976554 
L 229.029034 134.048705 
L 229.050785 134.207186 
L 229.137789 134.128851 
L 229.224793 134.060321 
L 229.246544 134.236129 
L 229.311797 134.038009 
L 229.290046 134.252791 
L 229.355299 134.047665 
L 229.37705 134.239854 
L 229.464054 134.181629 
L 229.59456 134.133817 
L 229.703315 134.19878 
L 229.81207 134.125908 
L 229.920825 134.190371 
L 230.02958 134.145997 
L 230.138335 134.212639 
L 230.24709 134.163997 
L 230.355845 134.21438 
L 230.4646 134.165625 
L 230.573355 134.266197 
L 230.660359 134.333136 
L 230.68211 134.018404 
L 230.769114 133.864477 
L 230.790865 134.47968 
L 230.812616 133.828322 
L 230.834367 134.482882 
L 230.89962 134.070359 
L 230.986624 134.381707 
L 231.008375 133.99618 
L 231.030126 134.398063 
L 231.095379 134.160239 
L 231.160632 134.113109 
L 231.182383 134.333778 
L 231.204134 134.091157 
L 231.291138 134.209204 
L 232.030672 134.225392 
L 232.139426 134.261939 
L 232.161177 134.247374 
L 232.770205 134.281584 
L 232.87896 134.254629 
L 233.009466 134.293445 
L 233.183474 134.27011 
L 233.292229 134.310287 
L 233.444486 134.286055 
L 233.553241 134.344877 
L 233.661996 134.275373 
L 233.770751 134.355371 
L 233.857755 134.40818 
L 233.879506 134.190975 
L 233.96651 134.075653 
L 233.988261 134.537316 
L 234.053514 133.958814 
L 234.075265 134.592847 
L 234.097016 134.011456 
L 234.118767 134.535999 
L 234.227522 134.48048 
L 234.249273 134.118874 
L 234.271024 134.526587 
L 234.336277 134.249383 
L 234.40153 134.229497 
L 234.423281 134.468592 
L 234.445032 134.182952 
L 234.532036 134.330726 
L 234.575538 134.404351 
L 234.597289 134.256374 
L 234.61904 134.425686 
L 234.706044 134.359704 
L 236.228613 134.417271 
L 236.337368 134.390983 
L 236.359119 134.415406 
L 236.511376 134.393589 
L 236.620131 134.452103 
L 236.728886 134.362349 
L 236.837641 134.497601 
L 236.924645 134.541424 
L 236.946396 134.27139 
L 237.0334 134.189169 
L 237.055151 134.626467 
L 237.076902 134.163978 
L 237.098653 134.635271 
L 237.163906 134.267006 
L 237.294412 134.556291 
L 237.359665 134.287614 
L 237.337914 134.584706 
L 237.403167 134.342926 
L 237.533673 134.542018 
L 237.555424 134.335362 
L 237.577175 134.557298 
L 237.642428 134.392752 
L 237.772934 134.530861 
L 237.794685 134.381342 
L 237.881689 134.427376 
L 238.012195 134.517196 
L 238.077448 134.413739 
L 238.12095 134.428848 
L 238.251456 134.472571 
L 238.490717 134.446268 
L 238.599472 134.512477 
L 238.729978 134.481596 
L 238.838733 134.537905 
L 238.882235 134.550032 
L 238.947488 134.429682 
L 239.056243 134.568486 
L 239.143247 134.582774 
L 239.164998 134.412428 
L 239.273753 134.605356 
L 239.360756 134.61542 
L 239.382507 134.398203 
L 239.404258 134.617077 
L 239.491262 134.595726 
L 239.513013 134.445539 
L 239.600017 134.496339 
L 239.730523 134.53887 
L 239.88278 134.508099 
L 239.991535 134.583453 
L 240.078539 134.628716 
L 240.10029 134.418026 
L 240.187294 134.357266 
L 240.209045 134.709181 
L 240.274298 134.305427 
L 240.296049 134.737376 
L 240.3178 134.313081 
L 240.339551 134.724541 
L 240.426555 134.618928 
L 240.513559 134.484202 
L 240.600563 134.434113 
L 240.622314 134.661662 
L 240.644065 134.456836 
L 240.731069 134.547212 
L 240.861575 134.628325 
L 240.883326 134.498568 
L 240.97033 134.529298 
L 241.100836 134.584131 
L 241.209591 134.560706 
L 241.231342 134.592518 
L 241.383599 134.571575 
L 241.535856 134.62157 
L 241.644611 134.533662 
L 241.753366 134.657356 
L 241.862121 134.535449 
L 241.970876 134.66804 
L 242.05788 134.693425 
L 242.079631 134.488662 
L 242.166635 134.445481 
L 242.188386 134.751751 
L 242.253639 134.430924 
L 242.231888 134.767495 
L 242.297141 134.445268 
L 242.318892 134.754261 
L 242.405896 134.687469 
L 242.536402 134.570106 
L 242.623406 134.542032 
L 242.645157 134.708608 
L 242.666908 134.545435 
L 242.753912 134.570521 
L 242.775663 134.682196 
L 242.862667 134.650748 
L 242.993172 134.613064 
L 243.101927 134.677957 
L 243.210682 134.61536 
L 243.319437 134.665728 
L 243.449943 134.650181 
L 243.797959 134.696469 
L 243.884963 134.745593 
L 243.906714 134.528302 
L 243.993718 134.349289 
L 244.015469 134.910819 
L 244.03722 134.286516 
L 244.058971 134.955882 
L 244.124224 134.4502 
L 244.25473 134.845037 
L 244.276481 134.502848 
L 244.363485 134.671959 
L 244.406987 134.788082 
L 244.428738 134.554297 
L 244.450489 134.824718 
L 244.537493 134.669891 
L 244.602746 134.793827 
L 244.580995 134.59428 
L 244.646248 134.754049 
L 244.776754 134.636556 
L 244.90726 134.725515 
L 245.037766 134.699506 
L 245.929557 134.761155 
L 246.038312 134.730368 
L 246.321075 134.743531 
L 246.777845 134.768798 
L 246.8866 134.696871 
L 246.973604 134.648053 
L 246.995355 134.884693 
L 247.082359 134.94474 
L 247.10411 134.524632 
L 247.169363 134.995887 
L 247.147612 134.486494 
L 247.212865 134.990492 
L 247.234616 134.54371 
L 247.32162 134.773023 
L 247.365122 134.873597 
L 247.386873 134.629184 
L 247.452126 134.934089 
L 247.430375 134.604084 
L 247.495628 134.875768 
L 247.626134 134.662003 
L 247.647885 134.907449 
L 247.734889 134.809358 
L 248.517925 134.774603 
L 248.62668 134.860077 
L 248.691933 134.777773 
L 248.735435 134.788574 
L 248.84419 134.834814 
L 248.996447 134.812381 
L 249.148704 134.85513 
L 249.257459 134.803916 
L 249.366214 134.893205 
L 249.453218 134.925436 
L 249.474969 134.746454 
L 249.561973 134.706944 
L 249.583724 134.970403 
L 249.670728 135.026593 
L 249.692479 134.588203 
L 249.757732 135.062384 
L 249.735981 134.565371 
L 249.801234 135.036768 
L 249.822985 134.68777 
L 249.909989 134.906826 
L 249.975242 134.701344 
L 249.996993 135.006869 
L 250.018744 134.707725 
L 250.040495 134.982578 
L 250.127499 134.836864 
L 250.214502 134.755876 
L 250.236253 134.974256 
L 250.258004 134.782469 
L 250.345008 134.891984 
L 250.38851 134.937117 
L 250.453763 134.807113 
L 250.584269 134.911738 
L 250.649522 134.835516 
L 250.627771 134.925377 
L 250.693024 134.852095 
L 250.82353 134.918501 
L 250.888783 134.85138 
L 250.932285 134.866399 
L 251.062791 134.917826 
L 251.171546 134.854253 
L 251.280301 134.929354 
L 251.389056 134.869921 
L 251.497811 134.919628 
L 251.628317 134.901286 
L 251.737072 134.948928 
L 251.824076 134.989732 
L 251.845827 134.81064 
L 251.932831 134.750025 
L 251.954582 135.068877 
L 252.041586 135.102745 
L 252.063337 134.68857 
L 252.085088 135.098509 
L 252.172092 135.00619 
L 252.302598 134.826214 
L 252.367851 135.035372 
L 252.3461 134.818734 
L 252.411353 135.012492 
L 252.433104 134.872479 
L 252.541859 134.89541 
L 252.585361 134.871711 
L 252.650614 135.00806 
L 252.672365 134.875936 
L 252.759369 134.923083 
L 252.889875 134.980308 
L 252.99863 134.908431 
L 253.107385 134.977682 
L 253.21614 134.936896 
L 253.324895 134.968968 
L 253.346646 134.950427 
L 253.498903 134.974951 
L 253.672911 134.958446 
L 253.781666 135.036687 
L 253.868669 135.118487 
L 253.89042 134.778591 
L 253.977424 134.702147 
L 253.999175 135.215712 
L 254.020926 134.71162 
L 254.10793 134.85419 
L 254.238436 135.107187 
L 254.303689 134.840124 
L 254.281938 135.13334 
L 254.347191 134.879724 
L 254.477697 135.060139 
L 254.54295 134.90801 
L 254.521199 135.082101 
L 254.586452 134.921188 
L 254.608203 135.057382 
L 254.695207 134.992185 
L 254.803962 135.055686 
L 254.825713 134.948764 
L 254.912717 134.976492 
L 255.043223 135.02726 
L 255.151978 134.987171 
L 255.260733 135.029012 
L 255.434741 135.00353 
L 255.543496 135.065087 
L 255.6305 135.099354 
L 255.652251 134.909173 
L 255.739255 134.81322 
L 255.761006 135.191108 
L 255.782757 134.791749 
L 255.804508 135.216292 
L 255.869761 134.873203 
L 255.891512 135.150435 
L 255.978516 134.995306 
L 256.06552 134.916964 
L 256.087271 135.156746 
L 256.109022 134.933077 
L 256.196026 135.028738 
L 256.478789 135.08842 
L 256.522291 135.106846 
L 256.587544 135.004038 
L 256.609295 135.096581 
L 256.696299 135.060722 
L 257.414082 135.077357 
L 257.805599 134.970811 
L 257.892603 134.828525 
L 257.914354 135.317823 
L 257.979607 134.720271 
L 258.001358 135.378611 
L 258.023109 134.779485 
L 258.04486 135.326207 
L 258.131864 135.038437 
L 258.197117 135.278138 
L 258.218868 134.911893 
L 258.240619 135.271912 
L 258.26237 134.965508 
L 258.371125 135.001352 
L 258.436378 135.228648 
L 258.414627 134.972472 
L 258.47988 135.17728 
L 258.566884 135.036885 
L 258.632137 135.199028 
L 258.610386 135.016647 
L 258.675639 135.159212 
L 258.762643 135.060472 
L 258.827896 135.187335 
L 258.806145 135.04512 
L 258.871398 135.156044 
L 259.001904 135.076899 
L 259.023655 135.169807 
L 259.110659 135.13955 
L 259.241165 135.105644 
L 259.34992 135.138161 
L 259.371671 135.117879 
L 259.56743 135.129118 
L 259.850193 135.165351 
L 259.958948 135.122205 
L 260.067703 135.16712 
L 260.198209 135.156179 
L 260.567976 135.25251 
L 260.65498 135.338673 
L 260.676731 134.880324 
L 260.741984 135.406349 
L 260.720233 134.83163 
L 260.785486 135.384751 
L 260.807237 134.976738 
L 260.894241 135.226938 
L 260.959494 135.013392 
L 260.981245 135.322037 
L 261.002996 135.040103 
L 261.024747 135.279142 
L 261.133501 135.257835 
L 261.155252 135.088943 
L 261.177003 135.283507 
L 261.242256 135.13775 
L 261.372762 135.255215 
L 261.503268 135.150131 
L 261.525019 135.239537 
L 261.612023 135.199307 
L 262.068794 135.217082 
L 262.1993 135.203303 
L 263.308601 135.235947 
L 263.308601 135.235947 
" clip-path="url(#p4db4b0d78a)" style="fill: none; stroke-dasharray: 5.55,2.4; stroke-dashoffset: 0; stroke: #0000ff; stroke-width: 1.5"/>
   </g>
   <g id="line2d_63">
    <path d="M 45.820412 19.521901 
L 46.059673 43.237346 
L 46.364187 60.116401 
L 46.64695 65.37634 
L 47.016717 68.243441 
L 47.865005 72.548302 
L 49.387575 79.308901 
L 50.518627 83.3162 
L 51.714931 86.732568 
L 52.802481 89.297293 
L 54.194545 92.008421 
L 55.673612 94.316015 
L 56.978672 95.945507 
L 58.414237 97.393743 
L 60.611088 99.107489 
L 63.06895 100.582806 
L 65.24405 101.667496 
L 72.03036 104.331333 
L 73.618182 104.849567 
L 75.945539 105.727758 
L 76.228302 106.039089 
L 76.489313 106.687905 
L 77.163594 108.538521 
L 77.816124 109.616602 
L 78.620911 110.563877 
L 79.03418 110.913571 
L 79.055931 110.870475 
L 79.099433 110.076551 
L 79.164686 90.628582 
L 79.186437 110.819433 
L 79.273441 96.440505 
L 79.360445 105.367436 
L 79.403947 104.835825 
L 79.556204 102.68515 
L 79.599706 102.777968 
L 79.751963 104.417573 
L 80.012974 106.309271 
L 80.165231 106.315751 
L 80.36099 106.327838 
L 80.948267 106.593067 
L 83.275624 107.082455 
L 87.930336 107.949988 
L 89.213645 108.365735 
L 89.518159 108.727979 
L 89.97493 109.840059 
L 90.40995 110.613226 
L 91.105981 111.492339 
L 91.95427 112.26238 
L 92.759057 112.794526 
L 92.802559 112.355469 
L 92.867812 106.057896 
L 92.889563 98.040731 
L 92.911314 112.223235 
L 92.976567 100.836035 
L 93.085322 110.329631 
L 93.172326 108.065296 
L 93.215828 108.189619 
L 93.563844 109.360929 
L 93.91186 111.064312 
L 94.259876 111.62667 
L 94.999409 112.430334 
L 95.956453 113.072821 
L 96.195714 112.890067 
L 96.239216 110.885228 
L 96.282718 99.309417 
L 96.32622 113.082377 
L 96.347971 110.904395 
L 96.456726 112.644938 
L 96.478477 111.760033 
L 96.565481 112.411098 
L 96.587232 112.097829 
L 96.674236 112.237979 
L 96.717738 112.222511 
L 96.804742 112.477814 
L 97.392019 113.097032 
L 97.674782 113.23905 
L 97.696533 113.190038 
L 97.761786 113.136378 
L 97.805288 113.214303 
L 97.870541 113.27748 
L 97.914043 113.209419 
L 97.957545 112.727806 
L 98.001046 108.865176 
L 98.022797 100.690521 
L 98.08805 112.555024 
L 98.109801 110.369669 
L 98.175054 112.901764 
L 98.196805 111.551635 
L 98.218556 112.719095 
L 98.30556 112.02893 
L 98.414315 112.436533 
L 98.436066 112.207859 
L 98.457817 112.461077 
L 98.501319 112.347714 
L 98.653576 112.757146 
L 98.675327 112.699105 
L 98.718829 112.814625 
L 98.74058 112.81004 
L 98.871086 113.004928 
L 98.892837 112.999061 
L 99.066845 113.168876 
L 99.197351 113.250579 
L 99.480114 113.416397 
L 99.61062 113.224421 
L 99.675873 112.152434 
L 99.741126 103.551792 
L 99.762877 110.860054 
L 99.784628 113.337206 
L 99.871632 112.133539 
L 100.002138 112.894148 
L 100.023889 112.390385 
L 100.04564 112.945503 
L 100.110893 112.731713 
L 100.132644 112.723465 
L 100.176146 112.690248 
L 100.26315 112.945552 
L 100.284901 112.895948 
L 100.306652 113.041868 
L 100.328403 112.937024 
L 100.437158 113.159314 
L 100.458909 113.130433 
L 100.611166 113.326493 
L 100.632917 113.287758 
L 100.69817 113.332357 
L 100.850427 113.478418 
L 100.893929 113.401858 
L 100.937431 113.525253 
L 101.13319 113.349543 
L 101.176692 112.670885 
L 101.241945 108.081959 
L 101.263696 102.338761 
L 101.285447 112.468662 
L 101.328949 105.476377 
L 101.394202 113.023103 
L 101.459455 112.607543 
L 101.502957 111.124249 
L 101.589961 111.397158 
L 101.720466 111.931279 
L 101.763968 111.668346 
L 101.80747 112.069539 
L 101.829221 112.069416 
L 101.850972 111.946091 
L 101.894474 112.263387 
L 102.046731 112.550553 
L 102.220739 112.88306 
L 102.307743 112.966592 
L 102.503502 113.16102 
L 102.67751 113.289971 
L 103.417044 113.701365 
L 103.525799 113.576971 
L 103.569301 113.229224 
L 103.612803 110.348958 
L 103.656305 100.165963 
L 103.678056 112.40858 
L 103.743309 107.773359 
L 103.808562 111.944321 
L 103.895566 111.941847 
L 103.917317 110.423039 
L 104.004321 111.084615 
L 104.047823 110.731265 
L 104.091325 111.21272 
L 104.178329 111.131683 
L 104.243582 111.673814 
L 104.287084 111.628158 
L 104.308835 111.671339 
L 104.548096 112.520922 
L 104.743855 112.868519 
L 104.830859 112.943088 
L 105.613894 113.547403 
L 106.440432 113.913806 
L 106.462183 113.813753 
L 106.505685 112.649295 
L 106.636191 99.521177 
L 106.744946 111.510172 
L 106.766697 111.065751 
L 106.810199 108.447375 
L 106.875452 109.891631 
L 107.027709 109.227415 
L 107.071211 109.275959 
L 107.245219 109.763363 
L 108.071757 112.41009 
L 108.398022 112.797171 
L 109.137555 113.376946 
L 110.681876 114.146626 
L 110.76888 114.147486 
L 110.790631 114.080886 
L 110.834133 112.861558 
L 110.877635 99.702953 
L 110.921137 109.327275 
L 110.964639 108.583362 
L 111.029892 113.552277 
L 111.051643 110.862836 
L 111.138647 112.272516 
L 111.160398 112.97394 
L 111.2039 112.085393 
L 111.247402 112.677325 
L 111.290904 112.284447 
L 111.334406 112.753732 
L 111.356157 112.565308 
L 111.377908 112.477883 
L 111.399659 112.721745 
L 111.508414 113.013962 
L 111.530165 112.966831 
L 111.551916 112.945166 
L 111.682422 113.299929 
L 111.704173 113.277499 
L 111.878181 113.562748 
L 111.965185 113.615916 
L 112.139193 113.767215 
L 112.334952 113.886944 
L 113.204991 114.215048 
L 113.248493 113.718387 
L 113.313746 108.02485 
L 113.357248 114.162534 
L 113.422501 95.745852 
L 113.487754 112.083993 
L 113.574758 109.270821 
L 113.596509 109.28556 
L 113.705264 108.540985 
L 113.748766 108.603746 
L 114.336043 110.237695 
L 118.577487 110.779464 
L 123.645468 111.194917 
L 143.199612 112.969374 
L 145.592221 113.544379 
L 147.789072 114.306535 
L 153.792346 116.530444 
L 158.381806 117.716843 
L 161.579202 118.357212 
L 167.386717 119.282894 
L 174.325284 120.10733 
L 179.545523 120.58663 
L 198.055619 121.902851 
L 198.055619 121.902851 
" clip-path="url(#p4db4b0d78a)" style="fill: none; stroke: #ff0000; stroke-width: 1.5; stroke-linecap: square"/>
   </g>
   <g id="line2d_64">
    <path d="M 45.820412 15.137008 
L 45.907416 21.606575 
L 46.255432 48.918319 
L 46.538195 56.524042 
L 46.886211 60.097004 
L 47.429985 63.179188 
L 48.321776 66.876863 
L 49.126563 69.365472 
L 49.996603 71.330396 
L 51.105903 73.211433 
L 54.238047 77.761885 
L 57.457194 82.249235 
L 60.350076 85.710406 
L 63.28646 88.588787 
L 65.135295 90.10245 
L 67.397398 91.666201 
L 72.46538 94.14973 
L 74.770985 94.959968 
L 75.771531 95.408729 
L 76.228302 95.902269 
L 76.685072 96.659501 
L 76.750325 96.604584 
L 76.946084 96.532205 
L 77.337602 96.776205 
L 78.142389 97.763765 
L 78.860172 98.271771 
L 79.03418 98.311803 
L 79.077682 97.728679 
L 79.142935 80.801908 
L 79.164686 98.61902 
L 79.25169 86.531216 
L 79.382196 96.683169 
L 79.403947 96.534446 
L 79.534453 95.671029 
L 79.577955 95.748244 
L 79.817216 96.798635 
L 79.882468 96.668578 
L 80.295737 95.181136 
L 80.339239 95.20979 
L 80.643753 95.739594 
L 80.948267 96.001239 
L 81.339785 95.979551 
L 82.079319 96.039527 
L 84.210916 96.28672 
L 87.647573 96.680004 
L 88.974384 97.025428 
L 89.431155 97.430901 
L 89.887926 97.986132 
L 89.909677 97.968712 
L 90.388199 97.636692 
L 91.214736 97.84074 
L 92.302286 98.160179 
L 92.737306 98.273959 
L 92.780808 97.945748 
L 92.82431 95.323097 
L 92.867812 86.818266 
L 92.889563 98.158533 
L 92.954816 89.472741 
L 93.063571 98.467709 
L 93.085322 97.477854 
L 93.128824 96.819912 
L 93.194077 97.272856 
L 93.498591 98.994494 
L 93.716101 99.45472 
L 93.846607 99.404445 
L 94.455634 98.646165 
L 94.890654 98.542292 
L 96.152212 98.488897 
L 96.195714 98.105885 
L 96.239216 95.007732 
L 96.260967 87.895217 
L 96.304469 98.783922 
L 96.32622 97.286398 
L 96.434975 99.094417 
L 96.456726 98.567225 
L 96.478477 99.118874 
L 96.521979 98.821472 
L 96.608983 99.272421 
L 96.652485 99.187419 
L 96.782991 99.391336 
L 96.913497 99.461569 
L 97.087505 99.364745 
L 97.19626 99.327115 
L 97.827039 98.966779 
L 97.892292 98.904437 
L 97.935794 98.559724 
L 97.979296 95.783468 
L 98.001046 89.201868 
L 98.066299 98.717573 
L 98.08805 97.304535 
L 98.153303 99.386939 
L 98.175054 98.523319 
L 98.262058 99.487827 
L 98.30556 99.425644 
L 98.327311 99.445032 
L 98.349062 99.228295 
L 98.392564 99.57995 
L 98.414315 99.440056 
L 98.52307 99.674112 
L 98.544821 99.621167 
L 98.631825 99.735821 
L 98.675327 99.721213 
L 98.914588 99.574893 
L 98.936339 99.60132 
L 99.001592 99.522889 
L 99.132098 99.442549 
L 99.480114 99.228234 
L 99.61062 98.920103 
L 99.697624 95.914088 
L 99.719375 91.625253 
L 99.762877 99.272765 
L 99.784628 97.607145 
L 99.915134 99.307322 
L 99.958636 99.138058 
L 99.980387 99.529757 
L 100.002138 99.21108 
L 100.132644 99.651466 
L 100.154395 99.48216 
L 100.176146 99.697302 
L 100.219648 99.697585 
L 100.306652 99.676725 
L 100.350154 99.663432 
L 100.415407 99.742574 
L 100.524162 99.657455 
L 100.545913 99.693472 
L 100.741672 99.555425 
L 100.828676 99.539676 
L 101.024435 99.323594 
L 101.089688 99.291784 
L 101.154941 98.680477 
L 101.220194 95.361596 
L 101.241945 90.709867 
L 101.263696 98.71641 
L 101.307198 93.419184 
L 101.437704 99.68247 
L 101.481206 98.83609 
L 101.502957 99.763947 
L 101.546459 98.932893 
L 101.698715 99.89542 
L 101.720466 99.711394 
L 101.742217 99.658232 
L 101.763968 99.822881 
L 101.872723 100.163491 
L 101.894474 100.120115 
L 101.916225 100.021735 
L 101.981478 100.208259 
L 102.090233 100.09255 
L 102.111984 100.155829 
L 102.285992 100.003056 
L 102.503502 99.772648 
L 103.243036 99.306561 
L 103.438795 99.223314 
L 103.54755 98.853758 
L 103.591052 96.77639 
L 103.634554 88.782452 
L 103.656305 98.458166 
L 103.721558 95.208318 
L 103.873815 99.504877 
L 103.895566 98.485492 
L 103.960819 99.541979 
L 103.98257 99.178965 
L 104.004321 98.953611 
L 104.047823 99.222813 
L 104.20008 100.058167 
L 104.439341 100.389851 
L 104.265333 99.983417 
L 104.461092 100.368651 
L 104.504594 100.261409 
L 104.591598 100.28822 
L 104.656851 100.208398 
L 104.939614 99.88199 
L 105.52689 99.429997 
L 106.048914 99.266512 
L 106.418681 99.217027 
L 106.462183 98.979137 
L 106.505685 96.722094 
L 106.592689 97.045738 
L 106.61444 88.548119 
L 106.744946 99.105463 
L 106.788448 97.435323 
L 106.853701 98.955233 
L 106.962456 98.612171 
L 107.027709 98.69661 
L 107.332223 99.756598 
L 107.593235 100.544101 
L 107.658488 100.558015 
L 107.680239 100.518978 
L 107.941251 100.167771 
L 108.35452 99.619255 
L 108.833042 99.285335 
L 109.311563 99.157995 
L 109.89884 99.134038 
L 110.76888 99.113822 
L 110.812382 98.274371 
L 110.855884 88.231428 
L 110.899386 95.930972 
L 110.942888 95.637548 
L 111.008141 99.544346 
L 111.029892 97.752316 
L 111.116896 99.048882 
L 111.2039 99.736912 
L 111.225651 99.725885 
L 111.247402 99.468646 
L 111.312655 99.983386 
L 111.356157 99.862915 
L 111.377908 100.050881 
L 111.443161 100.011245 
L 111.551916 100.32027 
L 111.595418 100.262741 
L 111.725924 100.352115 
L 111.878181 100.226981 
L 111.965185 100.18725 
L 112.182695 99.951702 
L 112.922228 99.508814 
L 113.18324 99.391478 
L 113.226742 99.034662 
L 113.291995 94.98357 
L 113.335497 99.500182 
L 113.40075 85.102619 
L 113.466003 99.440885 
L 113.553007 98.295506 
L 113.574758 98.43178 
L 113.640011 98.159662 
L 113.683513 98.197762 
L 114.031529 99.325064 
L 114.118533 99.236735 
L 114.640557 98.56888 
L 115.162581 98.387688 
L 116.163126 98.185772 
L 118.42523 98.114046 
L 123.319204 98.151314 
L 126.277339 98.212424 
L 139.21918 98.695732 
L 145.265956 99.375492 
L 147.419305 99.915793 
L 149.616155 100.628093 
L 160.926672 104.382433 
L 166.255666 105.697423 
L 170.453608 106.485489 
L 176.804898 107.309366 
L 180.676575 107.638446 
L 191.399815 108.105649 
L 198.055619 108.172608 
L 198.055619 108.172608 
" clip-path="url(#p4db4b0d78a)" style="fill: none; stroke-dasharray: 5.55,2.4; stroke-dashoffset: 0; stroke: #ff0000; stroke-width: 1.5"/>
   </g>
   <g id="patch_3">
    <path d="M 43.645313 181.814173 
L 43.645313 7.2 
" style="fill: none; stroke: #000000; stroke-width: 0.8; stroke-linejoin: miter; stroke-linecap: square"/>
   </g>
   <g id="patch_4">
    <path d="M 263.330352 181.814173 
L 263.330352 7.2 
" style="fill: none; stroke: #000000; stroke-width: 0.8; stroke-linejoin: miter; stroke-linecap: square"/>
   </g>
   <g id="patch_5">
    <path d="M 43.645313 181.814173 
L 263.330352 181.814173 
" style="fill: none; stroke: #000000; stroke-width: 0.8; stroke-linejoin: miter; stroke-linecap: square"/>
   </g>
   <g id="patch_6">
    <path d="M 43.645313 7.2 
L 263.330352 7.2 
" style="fill: none; stroke: #000000; stroke-width: 0.8; stroke-linejoin: miter; stroke-linecap: square"/>
   </g>
   <g id="legend_1">
    <g id="patch_7">
     <path d="M 158.199102 72.015625 
L 256.330352 72.015625 
Q 258.330352 72.015625 258.330352 70.015625 
L 258.330352 14.2 
Q 258.330352 12.2 256.330352 12.2 
L 158.199102 12.2 
Q 156.199102 12.2 156.199102 14.2 
L 156.199102 70.015625 
Q 156.199102 72.015625 158.199102 72.015625 
z
" style="fill: #ffffff; opacity: 0.8; stroke: #000000; stroke-linejoin: miter"/>
    </g>
    <g id="line2d_65">
     <path d="M 160.199102 19.857813 
L 170.199102 19.857813 
L 180.199102 19.857813 
" style="fill: none; stroke: #0000ff; stroke-width: 1.5; stroke-linecap: square"/>
    </g>
    <g id="text_14">
     <!-- BiRNN training -->
     <g transform="translate(188.199102 23.357813) scale(0.1 -0.1)">
      <defs>
       <path id="ArialMT-42" d="M 469 0 
L 469 4581 
L 2188 4581 
Q 2713 4581 3030 4442 
Q 3347 4303 3526 4014 
Q 3706 3725 3706 3409 
Q 3706 3116 3547 2856 
Q 3388 2597 3066 2438 
Q 3481 2316 3704 2022 
Q 3928 1728 3928 1328 
Q 3928 1006 3792 729 
Q 3656 453 3456 303 
Q 3256 153 2954 76 
Q 2653 0 2216 0 
L 469 0 
z
M 1075 2656 
L 2066 2656 
Q 2469 2656 2644 2709 
Q 2875 2778 2992 2937 
Q 3109 3097 3109 3338 
Q 3109 3566 3000 3739 
Q 2891 3913 2687 3977 
Q 2484 4041 1991 4041 
L 1075 4041 
L 1075 2656 
z
M 1075 541 
L 2216 541 
Q 2509 541 2628 563 
Q 2838 600 2978 687 
Q 3119 775 3209 942 
Q 3300 1109 3300 1328 
Q 3300 1584 3169 1773 
Q 3038 1963 2805 2039 
Q 2572 2116 2134 2116 
L 1075 2116 
L 1075 541 
z
" transform="scale(0.015625)"/>
       <path id="ArialMT-69" d="M 425 3934 
L 425 4581 
L 988 4581 
L 988 3934 
L 425 3934 
z
M 425 0 
L 425 3319 
L 988 3319 
L 988 0 
L 425 0 
z
" transform="scale(0.015625)"/>
       <path id="ArialMT-52" d="M 503 0 
L 503 4581 
L 2534 4581 
Q 3147 4581 3465 4457 
Q 3784 4334 3975 4021 
Q 4166 3709 4166 3331 
Q 4166 2844 3850 2509 
Q 3534 2175 2875 2084 
Q 3116 1969 3241 1856 
Q 3506 1613 3744 1247 
L 4541 0 
L 3778 0 
L 3172 953 
Q 2906 1366 2734 1584 
Q 2563 1803 2427 1890 
Q 2291 1978 2150 2013 
Q 2047 2034 1813 2034 
L 1109 2034 
L 1109 0 
L 503 0 
z
M 1109 2559 
L 2413 2559 
Q 2828 2559 3062 2645 
Q 3297 2731 3419 2920 
Q 3541 3109 3541 3331 
Q 3541 3656 3305 3865 
Q 3069 4075 2559 4075 
L 1109 4075 
L 1109 2559 
z
" transform="scale(0.015625)"/>
       <path id="ArialMT-4e" d="M 488 0 
L 488 4581 
L 1109 4581 
L 3516 984 
L 3516 4581 
L 4097 4581 
L 4097 0 
L 3475 0 
L 1069 3600 
L 1069 0 
L 488 0 
z
" transform="scale(0.015625)"/>
       <path id="ArialMT-74" d="M 1650 503 
L 1731 6 
Q 1494 -44 1306 -44 
Q 1000 -44 831 53 
Q 663 150 594 308 
Q 525 466 525 972 
L 525 2881 
L 113 2881 
L 113 3319 
L 525 3319 
L 525 4141 
L 1084 4478 
L 1084 3319 
L 1650 3319 
L 1650 2881 
L 1084 2881 
L 1084 941 
Q 1084 700 1114 631 
Q 1144 563 1211 522 
Q 1278 481 1403 481 
Q 1497 481 1650 503 
z
" transform="scale(0.015625)"/>
       <path id="ArialMT-72" d="M 416 0 
L 416 3319 
L 922 3319 
L 922 2816 
Q 1116 3169 1280 3281 
Q 1444 3394 1641 3394 
Q 1925 3394 2219 3213 
L 2025 2691 
Q 1819 2813 1613 2813 
Q 1428 2813 1281 2702 
Q 1134 2591 1072 2394 
Q 978 2094 978 1738 
L 978 0 
L 416 0 
z
" transform="scale(0.015625)"/>
       <path id="ArialMT-61" d="M 2588 409 
Q 2275 144 1986 34 
Q 1697 -75 1366 -75 
Q 819 -75 525 192 
Q 231 459 231 875 
Q 231 1119 342 1320 
Q 453 1522 633 1644 
Q 813 1766 1038 1828 
Q 1203 1872 1538 1913 
Q 2219 1994 2541 2106 
Q 2544 2222 2544 2253 
Q 2544 2597 2384 2738 
Q 2169 2928 1744 2928 
Q 1347 2928 1158 2789 
Q 969 2650 878 2297 
L 328 2372 
Q 403 2725 575 2942 
Q 747 3159 1072 3276 
Q 1397 3394 1825 3394 
Q 2250 3394 2515 3294 
Q 2781 3194 2906 3042 
Q 3031 2891 3081 2659 
Q 3109 2516 3109 2141 
L 3109 1391 
Q 3109 606 3145 398 
Q 3181 191 3288 0 
L 2700 0 
Q 2613 175 2588 409 
z
M 2541 1666 
Q 2234 1541 1622 1453 
Q 1275 1403 1131 1340 
Q 988 1278 909 1158 
Q 831 1038 831 891 
Q 831 666 1001 516 
Q 1172 366 1500 366 
Q 1825 366 2078 508 
Q 2331 650 2450 897 
Q 2541 1088 2541 1459 
L 2541 1666 
z
" transform="scale(0.015625)"/>
       <path id="ArialMT-6e" d="M 422 0 
L 422 3319 
L 928 3319 
L 928 2847 
Q 1294 3394 1984 3394 
Q 2284 3394 2536 3286 
Q 2788 3178 2913 3003 
Q 3038 2828 3088 2588 
Q 3119 2431 3119 2041 
L 3119 0 
L 2556 0 
L 2556 2019 
Q 2556 2363 2490 2533 
Q 2425 2703 2258 2804 
Q 2091 2906 1866 2906 
Q 1506 2906 1245 2678 
Q 984 2450 984 1813 
L 984 0 
L 422 0 
z
" transform="scale(0.015625)"/>
       <path id="ArialMT-67" d="M 319 -275 
L 866 -356 
Q 900 -609 1056 -725 
Q 1266 -881 1628 -881 
Q 2019 -881 2231 -725 
Q 2444 -569 2519 -288 
Q 2563 -116 2559 434 
Q 2191 0 1641 0 
Q 956 0 581 494 
Q 206 988 206 1678 
Q 206 2153 378 2554 
Q 550 2956 876 3175 
Q 1203 3394 1644 3394 
Q 2231 3394 2613 2919 
L 2613 3319 
L 3131 3319 
L 3131 450 
Q 3131 -325 2973 -648 
Q 2816 -972 2473 -1159 
Q 2131 -1347 1631 -1347 
Q 1038 -1347 672 -1080 
Q 306 -813 319 -275 
z
M 784 1719 
Q 784 1066 1043 766 
Q 1303 466 1694 466 
Q 2081 466 2343 764 
Q 2606 1063 2606 1700 
Q 2606 2309 2336 2618 
Q 2066 2928 1684 2928 
Q 1309 2928 1046 2623 
Q 784 2319 784 1719 
z
" transform="scale(0.015625)"/>
      </defs>
      <use xlink:href="#ArialMT-42"/>
      <use xlink:href="#ArialMT-69" x="66.699219"/>
      <use xlink:href="#ArialMT-52" x="88.916016"/>
      <use xlink:href="#ArialMT-4e" x="161.132812"/>
      <use xlink:href="#ArialMT-4e" x="233.349609"/>
      <use xlink:href="#ArialMT-20" x="305.566406"/>
      <use xlink:href="#ArialMT-74" x="333.349609"/>
      <use xlink:href="#ArialMT-72" x="361.132812"/>
      <use xlink:href="#ArialMT-61" x="394.433594"/>
      <use xlink:href="#ArialMT-69" x="450.048828"/>
      <use xlink:href="#ArialMT-6e" x="472.265625"/>
      <use xlink:href="#ArialMT-69" x="527.880859"/>
      <use xlink:href="#ArialMT-6e" x="550.097656"/>
      <use xlink:href="#ArialMT-67" x="605.712891"/>
     </g>
    </g>
    <g id="line2d_66">
     <path d="M 160.199102 34.120313 
L 170.199102 34.120313 
L 180.199102 34.120313 
" style="fill: none; stroke-dasharray: 5.55,2.4; stroke-dashoffset: 0; stroke: #0000ff; stroke-width: 1.5"/>
    </g>
    <g id="text_15">
     <!-- BiRNN test -->
     <g transform="translate(188.199102 37.620313) scale(0.1 -0.1)">
      <defs>
       <path id="ArialMT-65" d="M 2694 1069 
L 3275 997 
Q 3138 488 2766 206 
Q 2394 -75 1816 -75 
Q 1088 -75 661 373 
Q 234 822 234 1631 
Q 234 2469 665 2931 
Q 1097 3394 1784 3394 
Q 2450 3394 2872 2941 
Q 3294 2488 3294 1666 
Q 3294 1616 3291 1516 
L 816 1516 
Q 847 969 1125 678 
Q 1403 388 1819 388 
Q 2128 388 2347 550 
Q 2566 713 2694 1069 
z
M 847 1978 
L 2700 1978 
Q 2663 2397 2488 2606 
Q 2219 2931 1791 2931 
Q 1403 2931 1139 2672 
Q 875 2413 847 1978 
z
" transform="scale(0.015625)"/>
      </defs>
      <use xlink:href="#ArialMT-42"/>
      <use xlink:href="#ArialMT-69" x="66.699219"/>
      <use xlink:href="#ArialMT-52" x="88.916016"/>
      <use xlink:href="#ArialMT-4e" x="161.132812"/>
      <use xlink:href="#ArialMT-4e" x="233.349609"/>
      <use xlink:href="#ArialMT-20" x="305.566406"/>
      <use xlink:href="#ArialMT-74" x="333.349609"/>
      <use xlink:href="#ArialMT-65" x="361.132812"/>
      <use xlink:href="#ArialMT-73" x="416.748047"/>
      <use xlink:href="#ArialMT-74" x="466.748047"/>
     </g>
    </g>
    <g id="line2d_67">
     <path d="M 160.199102 48.265625 
L 170.199102 48.265625 
L 180.199102 48.265625 
" style="fill: none; stroke: #ff0000; stroke-width: 1.5; stroke-linecap: square"/>
    </g>
    <g id="text_16">
     <!-- RNN training -->
     <g transform="translate(188.199102 51.765625) scale(0.1 -0.1)">
      <use xlink:href="#ArialMT-52"/>
      <use xlink:href="#ArialMT-4e" x="72.216797"/>
      <use xlink:href="#ArialMT-4e" x="144.433594"/>
      <use xlink:href="#ArialMT-20" x="216.650391"/>
      <use xlink:href="#ArialMT-74" x="244.433594"/>
      <use xlink:href="#ArialMT-72" x="272.216797"/>
      <use xlink:href="#ArialMT-61" x="305.517578"/>
      <use xlink:href="#ArialMT-69" x="361.132812"/>
      <use xlink:href="#ArialMT-6e" x="383.349609"/>
      <use xlink:href="#ArialMT-69" x="438.964844"/>
      <use xlink:href="#ArialMT-6e" x="461.181641"/>
      <use xlink:href="#ArialMT-67" x="516.796875"/>
     </g>
    </g>
    <g id="line2d_68">
     <path d="M 160.199102 62.528125 
L 170.199102 62.528125 
L 180.199102 62.528125 
" style="fill: none; stroke-dasharray: 5.55,2.4; stroke-dashoffset: 0; stroke: #ff0000; stroke-width: 1.5"/>
    </g>
    <g id="text_17">
     <!-- RNN test -->
     <g transform="translate(188.199102 66.028125) scale(0.1 -0.1)">
      <use xlink:href="#ArialMT-52"/>
      <use xlink:href="#ArialMT-4e" x="72.216797"/>
      <use xlink:href="#ArialMT-4e" x="144.433594"/>
      <use xlink:href="#ArialMT-20" x="216.650391"/>
      <use xlink:href="#ArialMT-74" x="244.433594"/>
      <use xlink:href="#ArialMT-65" x="272.216797"/>
      <use xlink:href="#ArialMT-73" x="327.832031"/>
      <use xlink:href="#ArialMT-74" x="377.832031"/>
     </g>
    </g>
   </g>
  </g>
 </g>
 <defs>
  <clipPath id="p4db4b0d78a">
   <rect x="43.645313" y="7.2" width="219.685039" height="174.614173"/>
  </clipPath>
 </defs>
</svg>
