<?xml version="1.0" encoding="utf-8" standalone="no"?>
<!DOCTYPE svg PUBLIC "-//W3C//DTD SVG 1.1//EN"
  "http://www.w3.org/Graphics/SVG/1.1/DTD/svg11.dtd">
<svg xmlns:xlink="http://www.w3.org/1999/xlink" width="493.177891pt" height="218.622767pt" viewBox="0 0 493.177891 218.622767" xmlns="http://www.w3.org/2000/svg" version="1.1">
 <metadata>
  <rdf:RDF xmlns:dc="http://purl.org/dc/elements/1.1/" xmlns:cc="http://creativecommons.org/ns#" xmlns:rdf="http://www.w3.org/1999/02/22-rdf-syntax-ns#">
   <cc:Work>
    <dc:type rdf:resource="http://purl.org/dc/dcmitype/StillImage"/>
    <dc:date>2024-04-03T13:06:41.510966</dc:date>
    <dc:format>image/svg+xml</dc:format>
    <dc:creator>
     <cc:Agent>
      <dc:title>Matplotlib v3.8.2, https://matplotlib.org/</dc:title>
     </cc:Agent>
    </dc:creator>
   </cc:Work>
  </rdf:RDF>
 </metadata>
 <defs>
  <style type="text/css">*{stroke-linejoin: round; stroke-linecap: butt}</style>
 </defs>
 <g id="figure_1">
  <g id="patch_1">
   <path d="M 0 218.622767 
L 493.177891 218.622767 
L 493.177891 0 
L 0 0 
z
" style="fill: #ffffff"/>
  </g>
  <g id="axes_1">
   <g id="patch_2">
    <path d="M 41.046875 185.393079 
L 480.416954 185.393079 
L 480.416954 10.778906 
L 41.046875 10.778906 
z
" style="fill: #ffffff"/>
   </g>
   <g id="matplotlib.axis_1">
    <g id="xtick_1">
     <g id="line2d_1">
      <path d="M 41.046875 185.393079 
L 41.046875 10.778906 
" clip-path="url(#p5fe193ffa3)" style="fill: none; stroke: #b0b0b0; stroke-width: 0.8; stroke-linecap: square"/>
     </g>
     <g id="line2d_2">
      <defs>
       <path id="m9f72a2a2e4" d="M 0 0 
L 0 -3.5 
" style="stroke: #000000; stroke-width: 0.8"/>
      </defs>
      <g>
       <use xlink:href="#m9f72a2a2e4" x="41.046875" y="185.393079" style="stroke: #000000; stroke-width: 0.8"/>
      </g>
     </g>
     <g id="text_1">
      <!-- 0 -->
      <g transform="translate(38.266406 196.050892) scale(0.1 -0.1)">
       <defs>
        <path id="ArialMT-30" d="M 266 2259 
Q 266 3072 433 3567 
Q 600 4063 929 4331 
Q 1259 4600 1759 4600 
Q 2128 4600 2406 4451 
Q 2684 4303 2865 4023 
Q 3047 3744 3150 3342 
Q 3253 2941 3253 2259 
Q 3253 1453 3087 958 
Q 2922 463 2592 192 
Q 2263 -78 1759 -78 
Q 1097 -78 719 397 
Q 266 969 266 2259 
z
M 844 2259 
Q 844 1131 1108 757 
Q 1372 384 1759 384 
Q 2147 384 2411 759 
Q 2675 1134 2675 2259 
Q 2675 3391 2411 3762 
Q 2147 4134 1753 4134 
Q 1366 4134 1134 3806 
Q 844 3388 844 2259 
z
" transform="scale(0.015625)"/>
       </defs>
       <use xlink:href="#ArialMT-30"/>
      </g>
     </g>
    </g>
    <g id="xtick_2">
     <g id="line2d_3">
      <path d="M 95.968135 185.393079 
L 95.968135 10.778906 
" clip-path="url(#p5fe193ffa3)" style="fill: none; stroke: #b0b0b0; stroke-width: 0.8; stroke-linecap: square"/>
     </g>
     <g id="line2d_4">
      <g>
       <use xlink:href="#m9f72a2a2e4" x="95.968135" y="185.393079" style="stroke: #000000; stroke-width: 0.8"/>
      </g>
     </g>
     <g id="text_2">
      <!-- 5 -->
      <g transform="translate(93.187666 196.050892) scale(0.1 -0.1)">
       <defs>
        <path id="ArialMT-35" d="M 266 1200 
L 856 1250 
Q 922 819 1161 601 
Q 1400 384 1738 384 
Q 2144 384 2425 690 
Q 2706 997 2706 1503 
Q 2706 1984 2436 2262 
Q 2166 2541 1728 2541 
Q 1456 2541 1237 2417 
Q 1019 2294 894 2097 
L 366 2166 
L 809 4519 
L 3088 4519 
L 3088 3981 
L 1259 3981 
L 1013 2750 
Q 1425 3038 1878 3038 
Q 2478 3038 2890 2622 
Q 3303 2206 3303 1553 
Q 3303 931 2941 478 
Q 2500 -78 1738 -78 
Q 1113 -78 717 272 
Q 322 622 266 1200 
z
" transform="scale(0.015625)"/>
       </defs>
       <use xlink:href="#ArialMT-35"/>
      </g>
     </g>
    </g>
    <g id="xtick_3">
     <g id="line2d_5">
      <path d="M 150.889395 185.393079 
L 150.889395 10.778906 
" clip-path="url(#p5fe193ffa3)" style="fill: none; stroke: #b0b0b0; stroke-width: 0.8; stroke-linecap: square"/>
     </g>
     <g id="line2d_6">
      <g>
       <use xlink:href="#m9f72a2a2e4" x="150.889395" y="185.393079" style="stroke: #000000; stroke-width: 0.8"/>
      </g>
     </g>
     <g id="text_3">
      <!-- 10 -->
      <g transform="translate(145.328457 196.050892) scale(0.1 -0.1)">
       <defs>
        <path id="ArialMT-31" d="M 2384 0 
L 1822 0 
L 1822 3584 
Q 1619 3391 1289 3197 
Q 959 3003 697 2906 
L 697 3450 
Q 1169 3672 1522 3987 
Q 1875 4303 2022 4600 
L 2384 4600 
L 2384 0 
z
" transform="scale(0.015625)"/>
       </defs>
       <use xlink:href="#ArialMT-31"/>
       <use xlink:href="#ArialMT-30" x="55.615234"/>
      </g>
     </g>
    </g>
    <g id="xtick_4">
     <g id="line2d_7">
      <path d="M 205.810655 185.393079 
L 205.810655 10.778906 
" clip-path="url(#p5fe193ffa3)" style="fill: none; stroke: #b0b0b0; stroke-width: 0.8; stroke-linecap: square"/>
     </g>
     <g id="line2d_8">
      <g>
       <use xlink:href="#m9f72a2a2e4" x="205.810655" y="185.393079" style="stroke: #000000; stroke-width: 0.8"/>
      </g>
     </g>
     <g id="text_4">
      <!-- 15 -->
      <g transform="translate(200.249717 196.050892) scale(0.1 -0.1)">
       <use xlink:href="#ArialMT-31"/>
       <use xlink:href="#ArialMT-35" x="55.615234"/>
      </g>
     </g>
    </g>
    <g id="xtick_5">
     <g id="line2d_9">
      <path d="M 260.731914 185.393079 
L 260.731914 10.778906 
" clip-path="url(#p5fe193ffa3)" style="fill: none; stroke: #b0b0b0; stroke-width: 0.8; stroke-linecap: square"/>
     </g>
     <g id="line2d_10">
      <g>
       <use xlink:href="#m9f72a2a2e4" x="260.731914" y="185.393079" style="stroke: #000000; stroke-width: 0.8"/>
      </g>
     </g>
     <g id="text_5">
      <!-- 20 -->
      <g transform="translate(255.170977 196.050892) scale(0.1 -0.1)">
       <defs>
        <path id="ArialMT-32" d="M 3222 541 
L 3222 0 
L 194 0 
Q 188 203 259 391 
Q 375 700 629 1000 
Q 884 1300 1366 1694 
Q 2113 2306 2375 2664 
Q 2638 3022 2638 3341 
Q 2638 3675 2398 3904 
Q 2159 4134 1775 4134 
Q 1369 4134 1125 3890 
Q 881 3647 878 3216 
L 300 3275 
Q 359 3922 746 4261 
Q 1134 4600 1788 4600 
Q 2447 4600 2831 4234 
Q 3216 3869 3216 3328 
Q 3216 3053 3103 2787 
Q 2991 2522 2730 2228 
Q 2469 1934 1863 1422 
Q 1356 997 1212 845 
Q 1069 694 975 541 
L 3222 541 
z
" transform="scale(0.015625)"/>
       </defs>
       <use xlink:href="#ArialMT-32"/>
       <use xlink:href="#ArialMT-30" x="55.615234"/>
      </g>
     </g>
    </g>
    <g id="xtick_6">
     <g id="line2d_11">
      <path d="M 315.653174 185.393079 
L 315.653174 10.778906 
" clip-path="url(#p5fe193ffa3)" style="fill: none; stroke: #b0b0b0; stroke-width: 0.8; stroke-linecap: square"/>
     </g>
     <g id="line2d_12">
      <g>
       <use xlink:href="#m9f72a2a2e4" x="315.653174" y="185.393079" style="stroke: #000000; stroke-width: 0.8"/>
      </g>
     </g>
     <g id="text_6">
      <!-- 25 -->
      <g transform="translate(310.092237 196.050892) scale(0.1 -0.1)">
       <use xlink:href="#ArialMT-32"/>
       <use xlink:href="#ArialMT-35" x="55.615234"/>
      </g>
     </g>
    </g>
    <g id="xtick_7">
     <g id="line2d_13">
      <path d="M 370.574434 185.393079 
L 370.574434 10.778906 
" clip-path="url(#p5fe193ffa3)" style="fill: none; stroke: #b0b0b0; stroke-width: 0.8; stroke-linecap: square"/>
     </g>
     <g id="line2d_14">
      <g>
       <use xlink:href="#m9f72a2a2e4" x="370.574434" y="185.393079" style="stroke: #000000; stroke-width: 0.8"/>
      </g>
     </g>
     <g id="text_7">
      <!-- 30 -->
      <g transform="translate(365.013497 196.050892) scale(0.1 -0.1)">
       <defs>
        <path id="ArialMT-33" d="M 269 1209 
L 831 1284 
Q 928 806 1161 595 
Q 1394 384 1728 384 
Q 2125 384 2398 659 
Q 2672 934 2672 1341 
Q 2672 1728 2419 1979 
Q 2166 2231 1775 2231 
Q 1616 2231 1378 2169 
L 1441 2663 
Q 1497 2656 1531 2656 
Q 1891 2656 2178 2843 
Q 2466 3031 2466 3422 
Q 2466 3731 2256 3934 
Q 2047 4138 1716 4138 
Q 1388 4138 1169 3931 
Q 950 3725 888 3313 
L 325 3413 
Q 428 3978 793 4289 
Q 1159 4600 1703 4600 
Q 2078 4600 2393 4439 
Q 2709 4278 2876 4000 
Q 3044 3722 3044 3409 
Q 3044 3113 2884 2869 
Q 2725 2625 2413 2481 
Q 2819 2388 3044 2092 
Q 3269 1797 3269 1353 
Q 3269 753 2831 336 
Q 2394 -81 1725 -81 
Q 1122 -81 723 278 
Q 325 638 269 1209 
z
" transform="scale(0.015625)"/>
       </defs>
       <use xlink:href="#ArialMT-33"/>
       <use xlink:href="#ArialMT-30" x="55.615234"/>
      </g>
     </g>
    </g>
    <g id="xtick_8">
     <g id="line2d_15">
      <path d="M 425.495694 185.393079 
L 425.495694 10.778906 
" clip-path="url(#p5fe193ffa3)" style="fill: none; stroke: #b0b0b0; stroke-width: 0.8; stroke-linecap: square"/>
     </g>
     <g id="line2d_16">
      <g>
       <use xlink:href="#m9f72a2a2e4" x="425.495694" y="185.393079" style="stroke: #000000; stroke-width: 0.8"/>
      </g>
     </g>
     <g id="text_8">
      <!-- 35 -->
      <g transform="translate(419.934756 196.050892) scale(0.1 -0.1)">
       <use xlink:href="#ArialMT-33"/>
       <use xlink:href="#ArialMT-35" x="55.615234"/>
      </g>
     </g>
    </g>
    <g id="xtick_9">
     <g id="line2d_17">
      <path d="M 480.416954 185.393079 
L 480.416954 10.778906 
" clip-path="url(#p5fe193ffa3)" style="fill: none; stroke: #b0b0b0; stroke-width: 0.8; stroke-linecap: square"/>
     </g>
     <g id="line2d_18">
      <g>
       <use xlink:href="#m9f72a2a2e4" x="480.416954" y="185.393079" style="stroke: #000000; stroke-width: 0.8"/>
      </g>
     </g>
     <g id="text_9">
      <!-- 40 -->
      <g transform="translate(474.856016 196.050892) scale(0.1 -0.1)">
       <defs>
        <path id="ArialMT-34" d="M 2069 0 
L 2069 1097 
L 81 1097 
L 81 1613 
L 2172 4581 
L 2631 4581 
L 2631 1613 
L 3250 1613 
L 3250 1097 
L 2631 1097 
L 2631 0 
L 2069 0 
z
M 2069 1613 
L 2069 3678 
L 634 1613 
L 2069 1613 
z
" transform="scale(0.015625)"/>
       </defs>
       <use xlink:href="#ArialMT-34"/>
       <use xlink:href="#ArialMT-30" x="55.615234"/>
      </g>
     </g>
    </g>
    <g id="text_10">
     <!-- Time (s) -->
     <g transform="translate(242.590508 209.318079) scale(0.1 -0.1)">
      <defs>
       <path id="ArialMT-54" d="M 1659 0 
L 1659 4041 
L 150 4041 
L 150 4581 
L 3781 4581 
L 3781 4041 
L 2266 4041 
L 2266 0 
L 1659 0 
z
" transform="scale(0.015625)"/>
       <path id="ArialMT-69" d="M 425 3934 
L 425 4581 
L 988 4581 
L 988 3934 
L 425 3934 
z
M 425 0 
L 425 3319 
L 988 3319 
L 988 0 
L 425 0 
z
" transform="scale(0.015625)"/>
       <path id="ArialMT-6d" d="M 422 0 
L 422 3319 
L 925 3319 
L 925 2853 
Q 1081 3097 1340 3245 
Q 1600 3394 1931 3394 
Q 2300 3394 2536 3241 
Q 2772 3088 2869 2813 
Q 3263 3394 3894 3394 
Q 4388 3394 4653 3120 
Q 4919 2847 4919 2278 
L 4919 0 
L 4359 0 
L 4359 2091 
Q 4359 2428 4304 2576 
Q 4250 2725 4106 2815 
Q 3963 2906 3769 2906 
Q 3419 2906 3187 2673 
Q 2956 2441 2956 1928 
L 2956 0 
L 2394 0 
L 2394 2156 
Q 2394 2531 2256 2718 
Q 2119 2906 1806 2906 
Q 1569 2906 1367 2781 
Q 1166 2656 1075 2415 
Q 984 2175 984 1722 
L 984 0 
L 422 0 
z
" transform="scale(0.015625)"/>
       <path id="ArialMT-65" d="M 2694 1069 
L 3275 997 
Q 3138 488 2766 206 
Q 2394 -75 1816 -75 
Q 1088 -75 661 373 
Q 234 822 234 1631 
Q 234 2469 665 2931 
Q 1097 3394 1784 3394 
Q 2450 3394 2872 2941 
Q 3294 2488 3294 1666 
Q 3294 1616 3291 1516 
L 816 1516 
Q 847 969 1125 678 
Q 1403 388 1819 388 
Q 2128 388 2347 550 
Q 2566 713 2694 1069 
z
M 847 1978 
L 2700 1978 
Q 2663 2397 2488 2606 
Q 2219 2931 1791 2931 
Q 1403 2931 1139 2672 
Q 875 2413 847 1978 
z
" transform="scale(0.015625)"/>
       <path id="ArialMT-20" transform="scale(0.015625)"/>
       <path id="ArialMT-28" d="M 1497 -1347 
Q 1031 -759 709 28 
Q 388 816 388 1659 
Q 388 2403 628 3084 
Q 909 3875 1497 4659 
L 1900 4659 
Q 1522 4009 1400 3731 
Q 1209 3300 1100 2831 
Q 966 2247 966 1656 
Q 966 153 1900 -1347 
L 1497 -1347 
z
" transform="scale(0.015625)"/>
       <path id="ArialMT-73" d="M 197 991 
L 753 1078 
Q 800 744 1014 566 
Q 1228 388 1613 388 
Q 2000 388 2187 545 
Q 2375 703 2375 916 
Q 2375 1106 2209 1216 
Q 2094 1291 1634 1406 
Q 1016 1563 777 1677 
Q 538 1791 414 1992 
Q 291 2194 291 2438 
Q 291 2659 392 2848 
Q 494 3038 669 3163 
Q 800 3259 1026 3326 
Q 1253 3394 1513 3394 
Q 1903 3394 2198 3281 
Q 2494 3169 2634 2976 
Q 2775 2784 2828 2463 
L 2278 2388 
Q 2241 2644 2061 2787 
Q 1881 2931 1553 2931 
Q 1166 2931 1000 2803 
Q 834 2675 834 2503 
Q 834 2394 903 2306 
Q 972 2216 1119 2156 
Q 1203 2125 1616 2013 
Q 2213 1853 2448 1751 
Q 2684 1650 2818 1456 
Q 2953 1263 2953 975 
Q 2953 694 2789 445 
Q 2625 197 2315 61 
Q 2006 -75 1616 -75 
Q 969 -75 630 194 
Q 291 463 197 991 
z
" transform="scale(0.015625)"/>
       <path id="ArialMT-29" d="M 791 -1347 
L 388 -1347 
Q 1322 153 1322 1656 
Q 1322 2244 1188 2822 
Q 1081 3291 891 3722 
Q 769 4003 388 4659 
L 791 4659 
Q 1378 3875 1659 3084 
Q 1900 2403 1900 1659 
Q 1900 816 1576 28 
Q 1253 -759 791 -1347 
z
" transform="scale(0.015625)"/>
      </defs>
      <use xlink:href="#ArialMT-54"/>
      <use xlink:href="#ArialMT-69" x="57.333984"/>
      <use xlink:href="#ArialMT-6d" x="79.550781"/>
      <use xlink:href="#ArialMT-65" x="162.851562"/>
      <use xlink:href="#ArialMT-20" x="218.466797"/>
      <use xlink:href="#ArialMT-28" x="246.25"/>
      <use xlink:href="#ArialMT-73" x="279.550781"/>
      <use xlink:href="#ArialMT-29" x="329.550781"/>
     </g>
    </g>
   </g>
   <g id="matplotlib.axis_2">
    <g id="ytick_1">
     <g id="line2d_19">
      <path d="M 41.046875 185.393079 
L 480.416954 185.393079 
" clip-path="url(#p5fe193ffa3)" style="fill: none; stroke: #b0b0b0; stroke-width: 0.8; stroke-linecap: square"/>
     </g>
     <g id="line2d_20">
      <defs>
       <path id="m3d82179c78" d="M 0 0 
L 3.5 0 
" style="stroke: #000000; stroke-width: 0.8"/>
      </defs>
      <g>
       <use xlink:href="#m3d82179c78" x="41.046875" y="185.393079" style="stroke: #000000; stroke-width: 0.8"/>
      </g>
     </g>
     <g id="text_11">
      <!-- −20 -->
      <g transform="translate(20.584375 188.971986) scale(0.1 -0.1)">
       <defs>
        <path id="ArialMT-2212" d="M 3381 1997 
L 356 1997 
L 356 2522 
L 3381 2522 
L 3381 1997 
z
" transform="scale(0.015625)"/>
       </defs>
       <use xlink:href="#ArialMT-2212"/>
       <use xlink:href="#ArialMT-32" x="58.398438"/>
       <use xlink:href="#ArialMT-30" x="114.013672"/>
      </g>
     </g>
    </g>
    <g id="ytick_2">
     <g id="line2d_21">
      <path d="M 41.046875 127.188355 
L 480.416954 127.188355 
" clip-path="url(#p5fe193ffa3)" style="fill: none; stroke: #b0b0b0; stroke-width: 0.8; stroke-linecap: square"/>
     </g>
     <g id="line2d_22">
      <g>
       <use xlink:href="#m3d82179c78" x="41.046875" y="127.188355" style="stroke: #000000; stroke-width: 0.8"/>
      </g>
     </g>
     <g id="text_12">
      <!-- 0 -->
      <g transform="translate(31.985938 130.767261) scale(0.1 -0.1)">
       <use xlink:href="#ArialMT-30"/>
      </g>
     </g>
    </g>
    <g id="ytick_3">
     <g id="line2d_23">
      <path d="M 41.046875 68.983631 
L 480.416954 68.983631 
" clip-path="url(#p5fe193ffa3)" style="fill: none; stroke: #b0b0b0; stroke-width: 0.8; stroke-linecap: square"/>
     </g>
     <g id="line2d_24">
      <g>
       <use xlink:href="#m3d82179c78" x="41.046875" y="68.983631" style="stroke: #000000; stroke-width: 0.8"/>
      </g>
     </g>
     <g id="text_13">
      <!-- 20 -->
      <g transform="translate(26.425 72.562537) scale(0.1 -0.1)">
       <use xlink:href="#ArialMT-32"/>
       <use xlink:href="#ArialMT-30" x="55.615234"/>
      </g>
     </g>
    </g>
    <g id="ytick_4">
     <g id="line2d_25">
      <path d="M 41.046875 10.778906 
L 480.416954 10.778906 
" clip-path="url(#p5fe193ffa3)" style="fill: none; stroke: #b0b0b0; stroke-width: 0.8; stroke-linecap: square"/>
     </g>
     <g id="line2d_26">
      <g>
       <use xlink:href="#m3d82179c78" x="41.046875" y="10.778906" style="stroke: #000000; stroke-width: 0.8"/>
      </g>
     </g>
     <g id="text_14">
      <!-- 40 -->
      <g transform="translate(26.425 14.357812) scale(0.1 -0.1)">
       <use xlink:href="#ArialMT-34"/>
       <use xlink:href="#ArialMT-30" x="55.615234"/>
      </g>
     </g>
    </g>
    <g id="text_15">
     <!-- Displacement (cm) -->
     <g transform="translate(14.479688 139.758649) rotate(-90) scale(0.1 -0.1)">
      <defs>
       <path id="ArialMT-44" d="M 494 0 
L 494 4581 
L 2072 4581 
Q 2606 4581 2888 4516 
Q 3281 4425 3559 4188 
Q 3922 3881 4101 3404 
Q 4281 2928 4281 2316 
Q 4281 1794 4159 1391 
Q 4038 988 3847 723 
Q 3656 459 3429 307 
Q 3203 156 2883 78 
Q 2563 0 2147 0 
L 494 0 
z
M 1100 541 
L 2078 541 
Q 2531 541 2789 625 
Q 3047 709 3200 863 
Q 3416 1078 3536 1442 
Q 3656 1806 3656 2325 
Q 3656 3044 3420 3430 
Q 3184 3816 2847 3947 
Q 2603 4041 2063 4041 
L 1100 4041 
L 1100 541 
z
" transform="scale(0.015625)"/>
       <path id="ArialMT-70" d="M 422 -1272 
L 422 3319 
L 934 3319 
L 934 2888 
Q 1116 3141 1344 3267 
Q 1572 3394 1897 3394 
Q 2322 3394 2647 3175 
Q 2972 2956 3137 2557 
Q 3303 2159 3303 1684 
Q 3303 1175 3120 767 
Q 2938 359 2589 142 
Q 2241 -75 1856 -75 
Q 1575 -75 1351 44 
Q 1128 163 984 344 
L 984 -1272 
L 422 -1272 
z
M 931 1641 
Q 931 1000 1190 694 
Q 1450 388 1819 388 
Q 2194 388 2461 705 
Q 2728 1022 2728 1688 
Q 2728 2322 2467 2637 
Q 2206 2953 1844 2953 
Q 1484 2953 1207 2617 
Q 931 2281 931 1641 
z
" transform="scale(0.015625)"/>
       <path id="ArialMT-6c" d="M 409 0 
L 409 4581 
L 972 4581 
L 972 0 
L 409 0 
z
" transform="scale(0.015625)"/>
       <path id="ArialMT-61" d="M 2588 409 
Q 2275 144 1986 34 
Q 1697 -75 1366 -75 
Q 819 -75 525 192 
Q 231 459 231 875 
Q 231 1119 342 1320 
Q 453 1522 633 1644 
Q 813 1766 1038 1828 
Q 1203 1872 1538 1913 
Q 2219 1994 2541 2106 
Q 2544 2222 2544 2253 
Q 2544 2597 2384 2738 
Q 2169 2928 1744 2928 
Q 1347 2928 1158 2789 
Q 969 2650 878 2297 
L 328 2372 
Q 403 2725 575 2942 
Q 747 3159 1072 3276 
Q 1397 3394 1825 3394 
Q 2250 3394 2515 3294 
Q 2781 3194 2906 3042 
Q 3031 2891 3081 2659 
Q 3109 2516 3109 2141 
L 3109 1391 
Q 3109 606 3145 398 
Q 3181 191 3288 0 
L 2700 0 
Q 2613 175 2588 409 
z
M 2541 1666 
Q 2234 1541 1622 1453 
Q 1275 1403 1131 1340 
Q 988 1278 909 1158 
Q 831 1038 831 891 
Q 831 666 1001 516 
Q 1172 366 1500 366 
Q 1825 366 2078 508 
Q 2331 650 2450 897 
Q 2541 1088 2541 1459 
L 2541 1666 
z
" transform="scale(0.015625)"/>
       <path id="ArialMT-63" d="M 2588 1216 
L 3141 1144 
Q 3050 572 2676 248 
Q 2303 -75 1759 -75 
Q 1078 -75 664 370 
Q 250 816 250 1647 
Q 250 2184 428 2587 
Q 606 2991 970 3192 
Q 1334 3394 1763 3394 
Q 2303 3394 2647 3120 
Q 2991 2847 3088 2344 
L 2541 2259 
Q 2463 2594 2264 2762 
Q 2066 2931 1784 2931 
Q 1359 2931 1093 2626 
Q 828 2322 828 1663 
Q 828 994 1084 691 
Q 1341 388 1753 388 
Q 2084 388 2306 591 
Q 2528 794 2588 1216 
z
" transform="scale(0.015625)"/>
       <path id="ArialMT-6e" d="M 422 0 
L 422 3319 
L 928 3319 
L 928 2847 
Q 1294 3394 1984 3394 
Q 2284 3394 2536 3286 
Q 2788 3178 2913 3003 
Q 3038 2828 3088 2588 
Q 3119 2431 3119 2041 
L 3119 0 
L 2556 0 
L 2556 2019 
Q 2556 2363 2490 2533 
Q 2425 2703 2258 2804 
Q 2091 2906 1866 2906 
Q 1506 2906 1245 2678 
Q 984 2450 984 1813 
L 984 0 
L 422 0 
z
" transform="scale(0.015625)"/>
       <path id="ArialMT-74" d="M 1650 503 
L 1731 6 
Q 1494 -44 1306 -44 
Q 1000 -44 831 53 
Q 663 150 594 308 
Q 525 466 525 972 
L 525 2881 
L 113 2881 
L 113 3319 
L 525 3319 
L 525 4141 
L 1084 4478 
L 1084 3319 
L 1650 3319 
L 1650 2881 
L 1084 2881 
L 1084 941 
Q 1084 700 1114 631 
Q 1144 563 1211 522 
Q 1278 481 1403 481 
Q 1497 481 1650 503 
z
" transform="scale(0.015625)"/>
      </defs>
      <use xlink:href="#ArialMT-44"/>
      <use xlink:href="#ArialMT-69" x="72.216797"/>
      <use xlink:href="#ArialMT-73" x="94.433594"/>
      <use xlink:href="#ArialMT-70" x="144.433594"/>
      <use xlink:href="#ArialMT-6c" x="200.048828"/>
      <use xlink:href="#ArialMT-61" x="222.265625"/>
      <use xlink:href="#ArialMT-63" x="277.880859"/>
      <use xlink:href="#ArialMT-65" x="327.880859"/>
      <use xlink:href="#ArialMT-6d" x="383.496094"/>
      <use xlink:href="#ArialMT-65" x="466.796875"/>
      <use xlink:href="#ArialMT-6e" x="522.412109"/>
      <use xlink:href="#ArialMT-74" x="578.027344"/>
      <use xlink:href="#ArialMT-20" x="605.810547"/>
      <use xlink:href="#ArialMT-28" x="633.59375"/>
      <use xlink:href="#ArialMT-63" x="666.894531"/>
      <use xlink:href="#ArialMT-6d" x="716.894531"/>
      <use xlink:href="#ArialMT-29" x="800.195312"/>
     </g>
    </g>
   </g>
   <g id="line2d_27">
    <path d="M 41.046875 127.188355 
L 78.393332 127.106642 
L 83.885458 126.886664 
L 85.533095 126.956326 
L 87.729946 127.555239 
L 88.828371 127.803907 
L 89.377584 127.875249 
L 91.025221 128.705599 
L 91.574434 128.638381 
L 92.123647 129.028411 
L 92.672859 129.638907 
L 93.222072 129.66538 
L 94.86971 127.435941 
L 95.418922 127.186906 
L 95.968135 127.816517 
L 97.615773 132.284576 
L 98.164985 133.133733 
L 98.714198 132.669035 
L 99.26341 130.851972 
L 100.361836 126.048753 
L 100.911048 124.476845 
L 101.460261 123.958356 
L 102.009473 124.996798 
L 102.558686 126.563219 
L 103.107899 127.713401 
L 103.657111 126.7708 
L 105.304749 118.20504 
L 105.853962 116.201068 
L 106.403174 114.731084 
L 107.501599 112.51477 
L 108.050812 110.449157 
L 108.600025 109.126149 
L 109.149237 109.287389 
L 109.69845 110.855667 
L 110.247662 114.701768 
L 111.8953 132.936473 
L 112.444513 137.288173 
L 112.993725 139.885507 
L 113.542938 140.04285 
L 114.092151 138.778959 
L 114.641363 139.021793 
L 115.190576 141.944583 
L 115.739788 145.932121 
L 116.289001 149.001047 
L 116.838214 150.685281 
L 117.387426 151.496775 
L 117.936639 150.581134 
L 119.035064 144.968289 
L 119.584277 144.049333 
L 120.133489 144.252589 
L 120.682702 142.614833 
L 121.231914 136.806757 
L 123.428765 100.708099 
L 123.977977 98.959558 
L 124.52719 102.623559 
L 125.625615 116.717096 
L 126.174828 118.063897 
L 126.72404 113.410373 
L 128.371678 87.843367 
L 128.920891 85.930902 
L 129.470103 92.2664 
L 130.568529 117.795099 
L 131.117741 126.355331 
L 131.666954 129.892666 
L 132.216166 129.784265 
L 132.765379 128.406494 
L 133.314592 129.248837 
L 133.863804 134.75974 
L 135.511442 163.634497 
L 136.060655 166.593925 
L 136.609867 163.558106 
L 137.15908 156.393685 
L 138.257505 140.160231 
L 138.806718 137.054272 
L 139.35593 139.806619 
L 140.454355 153.720678 
L 141.003568 156.957825 
L 141.552781 154.313579 
L 142.101993 146.243928 
L 143.749631 113.369615 
L 144.298844 107.134506 
L 144.848056 105.158798 
L 145.397269 106.351773 
L 145.946481 109.228588 
L 147.594119 120.376202 
L 148.143332 121.163349 
L 148.692544 119.148376 
L 150.340182 108.910915 
L 150.889395 107.036581 
L 151.438607 107.818594 
L 151.98782 112.408258 
L 153.635458 133.695209 
L 154.18467 136.936948 
L 154.733883 137.468718 
L 155.283095 135.146409 
L 156.381521 125.304143 
L 156.930733 120.594313 
L 157.479946 117.020532 
L 158.029158 114.335842 
L 158.578371 112.524072 
L 159.127584 112.511815 
L 159.676796 115.131428 
L 160.226009 119.644684 
L 161.873647 136.984306 
L 162.422859 140.104389 
L 162.972072 139.301866 
L 163.521284 135.627082 
L 164.070497 131.110071 
L 164.61971 128.436968 
L 165.168922 129.031584 
L 165.718135 133.003067 
L 166.81656 145.718643 
L 167.365773 149.441321 
L 167.914985 149.213025 
L 168.464198 145.542848 
L 170.111836 130.802982 
L 170.661048 128.976054 
L 171.210261 129.549127 
L 171.759473 130.846869 
L 172.308686 131.369537 
L 172.857899 131.079401 
L 173.407111 130.138334 
L 174.505536 127.418987 
L 175.603962 125.955605 
L 176.153174 124.549331 
L 176.702387 122.073975 
L 178.350025 111.463492 
L 178.899237 109.158284 
L 179.44845 107.979946 
L 179.997662 107.553039 
L 180.546875 107.894066 
L 181.096088 109.185572 
L 183.292938 116.708835 
L 183.842151 119.118548 
L 184.391363 120.756666 
L 184.940576 121.607788 
L 186.039001 122.453517 
L 186.588214 123.801072 
L 187.137426 126.90753 
L 187.686639 131.574021 
L 188.785064 142.758059 
L 189.334277 147.031543 
L 189.883489 149.570073 
L 190.432702 150.742308 
L 190.981914 150.951599 
L 191.531127 150.552317 
L 192.08034 149.328628 
L 192.629552 146.98406 
L 193.727977 140.13069 
L 195.375615 128.120887 
L 195.924828 125.742841 
L 197.572466 121.600518 
L 198.121678 119.256321 
L 198.670891 115.739432 
L 199.769316 107.459588 
L 200.318529 105.2737 
L 200.867741 105.548687 
L 201.416954 107.89142 
L 203.613804 121.144507 
L 205.261442 128.0659 
L 205.810655 129.682996 
L 206.359867 130.458946 
L 206.90908 130.257161 
L 208.007505 129.088284 
L 208.556718 129.083311 
L 209.10593 130.114314 
L 209.655143 132.302716 
L 210.753568 137.226794 
L 211.302781 138.234719 
L 211.851993 137.432443 
L 212.401206 134.551149 
L 213.499631 126.956362 
L 214.048844 124.709259 
L 214.598056 123.656036 
L 215.147269 123.424613 
L 216.245694 124.276655 
L 216.794906 124.424158 
L 217.344119 125.128235 
L 217.893332 127.340874 
L 220.090182 139.992945 
L 220.639395 141.01985 
L 221.188607 140.791456 
L 221.73782 139.366779 
L 222.287032 137.380226 
L 222.836245 135.885536 
L 223.385458 135.327397 
L 223.93467 135.286366 
L 224.483883 135.121286 
L 225.033095 134.571647 
L 225.582308 133.166455 
L 226.131521 130.327689 
L 227.229946 122.139489 
L 228.877584 109.283745 
L 229.426796 105.837796 
L 229.976009 103.489001 
L 230.525221 102.618089 
L 231.074434 103.281003 
L 231.623647 105.19033 
L 232.722072 111.14295 
L 233.820497 116.672456 
L 234.918922 120.46407 
L 235.468135 122.899691 
L 236.017347 126.42515 
L 237.115773 136.574746 
L 238.214198 146.666235 
L 238.76341 150.263569 
L 239.312623 152.98053 
L 239.861836 155.080194 
L 240.411048 156.582675 
L 240.960261 157.234848 
L 241.509473 156.898331 
L 242.058686 155.459874 
L 242.607899 152.332578 
L 243.157111 147.480608 
L 245.353962 124.52784 
L 245.903174 120.226529 
L 247.550812 109.61286 
L 249.19845 97.392727 
L 249.747662 94.896705 
L 250.296875 94.027128 
L 250.846088 94.807356 
L 251.3953 96.928458 
L 251.944513 99.946142 
L 253.042938 107.919981 
L 254.690576 123.37302 
L 256.338214 139.046721 
L 257.436639 146.691161 
L 257.985851 149.582304 
L 259.084277 153.620507 
L 259.633489 155.235565 
L 260.182702 156.382597 
L 260.731914 156.601736 
L 261.281127 155.661219 
L 261.83034 153.499774 
L 262.379552 150.2534 
L 263.477977 141.15593 
L 266.773253 108.780626 
L 267.322466 105.053025 
L 267.871678 102.386083 
L 268.420891 100.764343 
L 268.970103 99.87604 
L 269.519316 99.523132 
L 270.068529 99.525566 
L 270.617741 99.812641 
L 271.166954 100.595931 
L 271.716166 102.409066 
L 272.265379 105.667 
L 272.814592 110.302824 
L 273.913017 122.812197 
L 275.011442 136.520051 
L 276.109867 147.533986 
L 276.65908 151.902441 
L 277.208292 155.180348 
L 277.757505 157.356178 
L 278.306718 158.547121 
L 278.85593 158.739088 
L 279.405143 157.709117 
L 279.954355 155.361621 
L 281.052781 147.925206 
L 282.151206 138.523835 
L 283.798844 122.07609 
L 285.446481 105.360297 
L 285.995694 101.034233 
L 286.544906 97.858114 
L 287.094119 95.776668 
L 287.643332 94.741057 
L 288.192544 94.894415 
L 288.741757 96.325432 
L 289.290969 98.921568 
L 289.840182 102.48712 
L 290.938607 112.032201 
L 292.586245 128.041186 
L 294.233883 141.877094 
L 295.332308 149.709904 
L 296.430733 155.505679 
L 296.979946 157.089283 
L 297.529158 157.557676 
L 298.078371 157.120176 
L 298.627584 155.874579 
L 299.176796 153.633663 
L 299.726009 150.397812 
L 300.275221 146.313675 
L 301.373647 135.705379 
L 303.021284 119.197576 
L 304.11971 111.27792 
L 305.218135 105.870789 
L 306.31656 101.811583 
L 306.865773 100.26204 
L 307.414985 99.211586 
L 307.964198 99.157551 
L 308.51341 100.314306 
L 309.062623 102.568237 
L 309.611836 105.823087 
L 310.710261 114.400007 
L 314.005536 142.828205 
L 314.554749 145.781031 
L 315.103962 147.937427 
L 315.653174 149.521635 
L 316.202387 150.685193 
L 316.751599 151.472634 
L 317.300812 152.019952 
L 317.850025 152.229124 
L 318.399237 151.873951 
L 318.94845 150.725941 
L 319.497662 148.665434 
L 320.046875 145.660027 
L 321.1453 137.166654 
L 323.891363 113.331134 
L 324.440576 109.596854 
L 324.989788 106.650465 
L 325.539001 104.48251 
L 326.088214 102.952299 
L 326.637426 102.03957 
L 327.186639 101.776932 
L 327.735851 102.102275 
L 328.285064 102.932449 
L 328.834277 104.322575 
L 329.383489 106.272653 
L 329.932702 108.844861 
L 331.031127 115.995089 
L 332.678765 129.721513 
L 333.77719 138.98813 
L 334.875615 146.478209 
L 335.424828 149.391997 
L 335.97404 151.560079 
L 336.523253 153.002222 
L 337.072466 153.778379 
L 337.621678 153.924924 
L 338.170891 153.461335 
L 338.720103 152.429318 
L 339.269316 150.806867 
L 339.818529 148.607224 
L 340.367741 145.876668 
L 340.916954 142.47046 
L 342.015379 133.556398 
L 344.761442 107.700922 
L 345.859867 100.401579 
L 346.40908 98.022228 
L 346.958292 96.535084 
L 347.507505 95.92424 
L 348.056718 96.169981 
L 348.60593 97.267794 
L 349.155143 99.217503 
L 349.704355 102.034266 
L 350.802781 109.822491 
L 351.901206 119.732628 
L 355.196481 151.99905 
L 355.745694 156.09709 
L 356.294906 159.354845 
L 356.844119 161.575878 
L 357.393332 162.604578 
L 357.942544 162.398498 
L 358.491757 160.962025 
L 359.040969 158.379918 
L 359.590182 154.76955 
L 360.688607 145.078716 
L 362.885458 121.419421 
L 364.533095 104.65323 
L 365.631521 96.377709 
L 366.180733 93.563836 
L 366.729946 91.801812 
L 367.279158 91.208816 
L 367.828371 91.790633 
L 368.377584 93.499352 
L 368.926796 96.327352 
L 369.476009 100.214128 
L 370.574434 110.416733 
L 373.320497 139.366297 
L 374.418922 148.834186 
L 375.517347 156.642052 
L 376.06656 159.641515 
L 376.615773 161.78492 
L 377.164985 162.911434 
L 377.714198 162.864957 
L 378.26341 161.583014 
L 378.812623 159.144407 
L 379.361836 155.639491 
L 380.460261 145.937437 
L 382.107899 127.462234 
L 383.755536 109.211736 
L 384.853962 99.644157 
L 385.403174 95.977383 
L 385.952387 93.104146 
L 386.501599 91.103298 
L 387.050812 90.083434 
L 387.600025 90.165964 
L 388.149237 91.415244 
L 388.69845 93.830429 
L 389.247662 97.342292 
L 390.346088 107.303016 
L 391.993725 126.622715 
L 393.641363 146.116041 
L 394.739788 156.364965 
L 395.289001 160.217567 
L 395.838214 163.149781 
L 396.387426 165.097986 
L 396.936639 166.023965 
L 397.485851 165.888439 
L 398.035064 164.66673 
L 398.584277 162.294809 
L 399.133489 158.71749 
L 399.682702 153.99873 
L 400.781127 141.822736 
L 404.076403 100.876481 
L 405.174828 91.357354 
L 405.72404 88.096044 
L 406.273253 86.024875 
L 406.822466 85.222177 
L 407.371678 85.764038 
L 407.920891 87.6999 
L 408.470103 90.939925 
L 409.019316 95.278963 
L 410.117741 106.714135 
L 411.765379 128.04251 
L 413.413017 149.767205 
L 414.511442 161.411468 
L 415.060655 165.643733 
L 415.609867 168.621284 
L 416.15908 170.31271 
L 416.708292 170.667794 
L 417.257505 169.677486 
L 417.806718 167.447096 
L 418.35593 164.048292 
L 418.905143 159.446914 
L 420.003568 147.087416 
L 423.848056 96.779534 
L 424.946481 87.645538 
L 425.495694 84.695633 
L 426.044906 83.018787 
L 426.594119 82.71719 
L 427.143332 83.818792 
L 427.692544 86.344486 
L 428.241757 90.271252 
L 429.340182 101.650892 
L 430.98782 123.944396 
L 432.635458 146.393204 
L 433.733883 158.536019 
L 434.283095 163.301211 
L 434.832308 167.021933 
L 435.381521 169.553439 
L 435.930733 170.818579 
L 436.479946 170.769979 
L 437.029158 169.359792 
L 437.578371 166.619367 
L 438.127584 162.656448 
L 439.226009 151.540252 
L 440.324434 137.365707 
L 442.521284 107.358324 
L 443.61971 95.487716 
L 444.168922 90.971696 
L 444.718135 87.455902 
L 445.267347 85.047153 
L 445.81656 83.85361 
L 446.365773 83.936331 
L 446.914985 85.338159 
L 447.464198 88.069722 
L 448.01341 92.112723 
L 449.111836 103.683369 
L 450.759473 126.051793 
L 452.407111 148.419732 
L 453.505536 160.363878 
L 454.054749 164.919857 
L 454.603962 168.307684 
L 455.153174 170.433102 
L 455.702387 171.220163 
L 456.251599 170.63171 
L 456.800812 168.665036 
L 457.350025 165.387345 
L 457.899237 160.926214 
L 458.997662 148.90372 
L 460.6453 126.225902 
L 462.292938 103.948765 
L 463.391363 92.682627 
L 463.940576 88.621386 
L 464.489788 85.740006 
L 465.039001 84.105385 
L 465.588214 83.782773 
L 466.137426 84.79605 
L 466.686639 87.126183 
L 467.235851 90.742799 
L 467.785064 95.557327 
L 468.883489 108.03048 
L 472.178765 150.877493 
L 473.27719 161.175161 
L 473.826403 164.865989 
L 474.375615 167.421102 
L 474.924828 168.749353 
L 475.47404 168.798794 
L 476.023253 167.557966 
L 476.572466 165.05764 
L 477.121678 161.365754 
L 478.220103 150.884934 
L 479.867741 130.363598 
L 481.515379 109.557983 
L 482.613804 98.298909 
L 483.163017 93.919153 
L 483.712229 90.522653 
L 484.261442 88.211285 
L 484.810655 87.07577 
L 485.359867 87.174622 
L 485.90908 88.527075 
L 486.458292 91.111052 
L 487.007505 94.859434 
L 488.10593 105.33089 
L 489.753568 125.450749 
L 490.302781 132.43534 
L 490.302781 132.43534 
" clip-path="url(#p5fe193ffa3)" style="fill: none; stroke: #000000; stroke-width: 1.2; stroke-linecap: square"/>
   </g>
   <g id="line2d_28">
    <path d="M 41.046875 127.188355 
L 55.875615 127.29372 
L 66.310655 127.55283 
L 70.155143 127.456633 
L 73.999631 127.27601 
L 75.647269 127.430908 
L 78.942544 127.80327 
L 80.040969 127.5758 
L 82.787032 126.843771 
L 85.533095 126.668799 
L 87.180733 126.911986 
L 87.729946 127.244026 
L 89.377584 128.594309 
L 91.025221 129.919401 
L 92.123647 129.972139 
L 92.672859 130.463257 
L 93.222072 130.718847 
L 93.771284 130.275965 
L 94.320497 129.605886 
L 94.86971 129.194464 
L 95.418922 129.007803 
L 95.968135 129.276756 
L 96.517347 130.286749 
L 97.615773 132.813879 
L 98.164985 133.887974 
L 98.714198 134.424599 
L 99.26341 133.888257 
L 100.911048 129.720483 
L 101.460261 129.295547 
L 102.009473 129.637683 
L 102.558686 130.609392 
L 103.107899 131.814942 
L 103.657111 132.362785 
L 104.206324 131.274365 
L 105.304749 127.639065 
L 106.403174 123.801969 
L 108.050812 117.987729 
L 108.600025 116.51257 
L 109.149237 116.963856 
L 109.69845 119.131202 
L 110.247662 122.674683 
L 111.8953 136.9238 
L 112.444513 139.728737 
L 112.993725 141.700713 
L 113.542938 142.735318 
L 114.092151 142.687514 
L 114.641363 143.007264 
L 115.190576 145.188905 
L 116.289001 151.504016 
L 117.387426 154.722148 
L 117.936639 155.725272 
L 118.485851 154.897941 
L 119.584277 150.515525 
L 120.133489 149.211801 
L 120.682702 146.546189 
L 121.231914 140.250346 
L 122.879552 111.066089 
L 123.428765 104.462592 
L 123.977977 101.36365 
L 124.52719 102.395479 
L 125.625615 111.8727 
L 126.174828 114.001004 
L 126.72404 111.506385 
L 128.371678 92.660471 
L 128.920891 89.23743 
L 129.470103 90.715651 
L 130.019316 97.92793 
L 131.117741 117.980123 
L 131.666954 125.121204 
L 132.216166 129.750077 
L 132.765379 132.48214 
L 133.314592 134.639702 
L 133.863804 137.828432 
L 135.511442 151.700233 
L 136.060655 153.56852 
L 136.609867 153.285153 
L 137.15908 151.270547 
L 137.708292 148.043085 
L 138.806718 140.81258 
L 139.35593 139.420316 
L 139.905143 140.020544 
L 140.454355 141.694907 
L 141.003568 142.71528 
L 141.552781 141.433491 
L 142.101993 137.104559 
L 142.651206 129.861585 
L 143.749631 108.834627 
L 144.298844 97.998782 
L 144.848056 90.093241 
L 145.397269 86.029832 
L 145.946481 85.620104 
L 146.495694 88.607112 
L 147.044906 94.773321 
L 147.594119 102.511092 
L 148.143332 108.529196 
L 148.692544 110.08289 
L 149.241757 106.754556 
L 150.889395 86.197333 
L 151.438607 83.580698 
L 151.98782 86.480304 
L 152.537032 94.418574 
L 153.635458 113.961131 
L 154.18467 119.61238 
L 154.733883 121.249495 
L 155.283095 119.083894 
L 155.832308 113.817665 
L 156.930733 100.459969 
L 157.479946 95.892607 
L 158.029158 93.501431 
L 158.578371 92.734365 
L 159.127584 93.355732 
L 159.676796 95.537789 
L 161.873647 109.141838 
L 162.422859 110.942017 
L 162.972072 110.33061 
L 163.521284 107.686341 
L 164.070497 104.324835 
L 164.61971 101.768869 
L 165.168922 101.278071 
L 165.718135 103.20555 
L 166.267347 107.43319 
L 167.365773 117.475462 
L 167.914985 119.93659 
L 168.464198 119.733257 
L 169.01341 117.459062 
L 169.562623 113.545959 
L 170.661048 103.168627 
L 171.210261 99.208266 
L 171.759473 96.649119 
L 172.308686 95.050429 
L 172.857899 94.571234 
L 173.407111 95.242602 
L 173.956324 96.193497 
L 174.505536 96.443547 
L 175.054749 95.669369 
L 175.603962 93.748507 
L 176.153174 90.638905 
L 177.251599 83.163775 
L 177.800812 80.310889 
L 178.350025 78.649952 
L 178.899237 78.170033 
L 179.997662 78.838924 
L 181.096088 78.40718 
L 181.6453 78.549164 
L 182.194513 78.898873 
L 182.743725 79.541484 
L 183.292938 81.172676 
L 184.391363 85.643627 
L 184.940576 86.90536 
L 186.039001 88.079902 
L 186.588214 89.134838 
L 187.137426 91.52646 
L 187.686639 95.52216 
L 189.334277 111.426131 
L 189.883489 115.029184 
L 190.432702 116.796128 
L 190.981914 116.765913 
L 191.531127 115.299006 
L 192.08034 112.732388 
L 193.178765 104.909276 
L 194.27719 97.47408 
L 195.375615 92.316333 
L 195.924828 90.633863 
L 196.47404 89.324098 
L 197.023253 87.624787 
L 197.572466 85.040821 
L 198.670891 77.9129 
L 199.769316 69.642349 
L 200.318529 66.749613 
L 200.867741 65.60112 
L 201.416954 66.275502 
L 201.966166 68.370962 
L 203.064592 75.115908 
L 204.712229 86.395357 
L 205.261442 89.475614 
L 205.810655 91.510251 
L 206.359867 92.287783 
L 206.90908 91.893232 
L 208.007505 90.166211 
L 208.556718 90.200399 
L 209.10593 91.381408 
L 210.753568 98.28941 
L 211.302781 99.060517 
L 211.851993 98.2712 
L 212.401206 95.803054 
L 214.048844 84.994491 
L 214.598056 82.876236 
L 215.147269 81.565432 
L 215.696481 81.135859 
L 216.245694 81.498281 
L 216.794906 82.117097 
L 217.344119 82.971322 
L 217.893332 84.734642 
L 219.540969 92.313363 
L 220.090182 93.706823 
L 220.639395 94.06047 
L 221.188607 93.543631 
L 222.836245 89.946438 
L 223.385458 89.491801 
L 224.483883 89.402516 
L 225.033095 89.151522 
L 225.582308 88.688818 
L 226.131521 87.490409 
L 226.680733 85.174542 
L 227.229946 81.906289 
L 228.328371 73.130348 
L 229.426796 64.054685 
L 229.976009 60.810186 
L 230.525221 59.06902 
L 231.074434 59.078924 
L 231.623647 60.745646 
L 232.722072 67.096388 
L 233.820497 73.510014 
L 235.468135 80.24133 
L 236.017347 83.404274 
L 236.56656 87.676008 
L 238.76341 107.777357 
L 239.312623 111.134084 
L 239.861836 113.646398 
L 240.411048 115.280377 
L 240.960261 115.832308 
L 241.509473 115.220562 
L 242.058686 113.624479 
L 242.607899 110.895418 
L 243.157111 106.841216 
L 245.903174 82.833201 
L 249.19845 59.947881 
L 249.747662 57.177623 
L 250.296875 55.557054 
L 250.846088 55.358435 
L 251.3953 56.555889 
L 251.944513 58.991974 
L 252.493725 62.614217 
L 253.592151 73.06351 
L 255.789001 96.601885 
L 256.887426 105.087775 
L 257.985851 111.77879 
L 259.084277 116.72881 
L 259.633489 118.476556 
L 260.182702 119.636824 
L 260.731914 119.80539 
L 261.281127 118.761011 
L 261.83034 116.538144 
L 262.379552 113.254536 
L 263.477977 104.199043 
L 267.322466 67.561119 
L 267.871678 64.564344 
L 268.420891 62.724938 
L 268.970103 61.782225 
L 269.519316 61.3724 
L 270.068529 61.309477 
L 270.617741 61.527094 
L 271.166954 62.161858 
L 271.716166 63.595972 
L 272.265379 66.276474 
L 272.814592 70.321399 
L 273.913017 81.803007 
L 275.560655 102.105659 
L 276.65908 112.553443 
L 277.208292 116.260336 
L 277.757505 118.636724 
L 278.306718 119.800422 
L 278.85593 119.977579 
L 279.405143 119.198086 
L 279.954355 117.376778 
L 280.503568 114.640597 
L 281.601993 107.391601 
L 282.700418 97.667383 
L 285.995694 63.313219 
L 286.544906 59.480274 
L 287.094119 56.765199 
L 287.643332 55.136125 
L 288.192544 54.693912 
L 288.741757 55.625267 
L 289.290969 57.963709 
L 289.840182 61.525365 
L 290.938607 71.224921 
L 293.135458 92.760083 
L 294.783095 106.476203 
L 295.881521 113.851819 
L 296.430733 116.651734 
L 296.979946 118.595534 
L 297.529158 119.455283 
L 298.078371 119.259702 
L 298.627584 118.108292 
L 299.176796 115.887556 
L 299.726009 112.52427 
L 300.824434 103.189884 
L 303.021284 80.910648 
L 304.11971 72.371157 
L 305.218135 66.496592 
L 306.31656 62.317355 
L 306.865773 60.892091 
L 307.414985 59.916902 
L 307.964198 59.653604 
L 308.51341 60.415185 
L 309.062623 62.254607 
L 309.611836 65.135013 
L 310.161048 69.0158 
L 311.259473 78.919084 
L 313.456324 99.970245 
L 314.005536 103.888217 
L 314.554749 106.91075 
L 315.103962 109.120611 
L 315.653174 110.70929 
L 316.202387 111.886169 
L 316.751599 112.712537 
L 317.300812 113.234811 
L 317.850025 113.407305 
L 318.399237 113.005477 
L 318.94845 111.807742 
L 319.497662 109.710503 
L 320.046875 106.744992 
L 321.1453 98.509874 
L 323.891363 74.348693 
L 324.440576 70.680822 
L 324.989788 67.76914 
L 325.539001 65.688187 
L 326.088214 64.304996 
L 326.637426 63.49453 
L 327.186639 63.224694 
L 327.735851 63.488152 
L 328.285064 64.221633 
L 328.834277 65.436493 
L 329.383489 67.210685 
L 329.932702 69.619024 
L 330.481914 72.769901 
L 331.58034 81.100198 
L 334.326403 104.996139 
L 335.424828 111.564517 
L 335.97404 113.770169 
L 336.523253 115.174377 
L 337.072466 115.830347 
L 337.621678 115.811085 
L 338.170891 115.168091 
L 338.720103 113.9522 
L 339.269316 112.207422 
L 339.818529 109.940463 
L 340.916954 103.925339 
L 342.015379 95.562664 
L 345.310655 66.352773 
L 345.859867 63.035109 
L 346.40908 60.574326 
L 346.958292 59.002524 
L 347.507505 58.309196 
L 348.056718 58.46761 
L 348.60593 59.446129 
L 349.155143 61.214563 
L 349.704355 63.758391 
L 350.802781 70.92122 
L 351.901206 80.445529 
L 355.745694 117.480807 
L 356.294906 120.892629 
L 356.844119 123.307299 
L 357.393332 124.569956 
L 357.942544 124.584714 
L 358.491757 123.328173 
L 359.040969 120.866579 
L 359.590182 117.344262 
L 360.688607 107.829475 
L 362.336245 90.497705 
L 364.533095 67.335699 
L 365.631521 58.261626 
L 366.180733 54.971493 
L 366.729946 52.686935 
L 367.279158 51.590247 
L 367.828371 51.779157 
L 368.377584 53.225533 
L 368.926796 55.872157 
L 369.476009 59.651569 
L 370.574434 69.860486 
L 373.86971 105.093368 
L 374.968135 114.189638 
L 376.06656 120.975955 
L 376.615773 123.138849 
L 377.164985 124.293732 
L 377.714198 124.338075 
L 378.26341 123.182901 
L 378.812623 120.83769 
L 379.361836 117.388662 
L 380.460261 107.65294 
L 382.107899 89.159499 
L 383.755536 71.260893 
L 384.853962 61.69769 
L 385.952387 54.862675 
L 386.501599 52.641663 
L 387.050812 51.384232 
L 387.600025 51.229395 
L 388.149237 52.259876 
L 388.69845 54.492678 
L 389.247662 57.875378 
L 389.796875 62.327372 
L 390.8953 73.784748 
L 394.190576 113.396623 
L 395.289001 122.539865 
L 395.838214 125.670615 
L 396.387426 127.766092 
L 396.936639 128.782259 
L 397.485851 128.694875 
L 398.035064 127.503459 
L 398.584277 125.208691 
L 399.133489 121.784678 
L 399.682702 117.262907 
L 400.781127 105.457357 
L 404.076403 63.866589 
L 405.174828 53.997558 
L 405.72404 50.519115 
L 406.273253 48.232643 
L 406.822466 47.191008 
L 407.371678 47.446736 
L 407.920891 49.062456 
L 408.470103 52.026521 
L 409.019316 56.177039 
L 410.117741 67.385692 
L 411.765379 89.014298 
L 413.413017 111.437341 
L 414.511442 123.860241 
L 415.060655 128.591635 
L 415.609867 132.051928 
L 416.15908 134.148889 
L 416.708292 134.837945 
L 417.257505 134.072911 
L 417.806718 131.910434 
L 418.35593 128.496347 
L 418.905143 123.921005 
L 420.003568 111.67203 
L 421.651206 88.936005 
L 423.298844 66.320281 
L 424.397269 54.265532 
L 424.946481 49.78177 
L 425.495694 46.503864 
L 426.044906 44.540079 
L 426.594119 43.97768 
L 427.143332 44.833097 
L 427.692544 47.0837 
L 428.241757 50.711111 
L 428.790969 55.637581 
L 429.889395 68.62005 
L 433.733883 120.721841 
L 434.283095 125.889939 
L 434.832308 129.992833 
L 435.381521 132.895862 
L 435.930733 134.495798 
L 436.479946 134.748189 
L 437.029158 133.605205 
L 437.578371 131.047331 
L 438.127584 127.153741 
L 439.226009 115.926549 
L 440.324434 101.424889 
L 442.521284 70.531542 
L 443.61971 57.9905 
L 444.168922 53.142016 
L 444.718135 49.373591 
L 445.267347 46.760695 
L 445.81656 45.411929 
L 446.365773 45.389812 
L 446.914985 46.70417 
L 447.464198 49.334074 
L 448.01341 53.22998 
L 448.562623 58.307048 
L 449.661048 71.357949 
L 453.505536 122.702431 
L 454.054749 127.639481 
L 454.603962 131.392063 
L 455.153174 133.857728 
L 455.702387 134.980565 
L 456.251599 134.716136 
L 456.800812 133.049747 
L 457.350025 130.023983 
L 457.899237 125.749485 
L 458.997662 113.930638 
L 460.6453 90.886562 
L 462.292938 67.614852 
L 463.391363 55.398437 
L 463.940576 50.865575 
L 464.489788 47.567991 
L 465.039001 45.591101 
L 465.588214 44.992146 
L 466.137426 45.802006 
L 466.686639 47.990993 
L 467.235851 51.49395 
L 467.785064 56.211561 
L 468.883489 68.625295 
L 471.08034 99.157978 
L 472.178765 113.378978 
L 473.27719 124.580678 
L 473.826403 128.64038 
L 474.375615 131.509235 
L 474.924828 133.103398 
L 475.47404 133.377898 
L 476.023253 132.317868 
L 476.572466 129.947852 
L 477.121678 126.336498 
L 477.670891 121.592575 
L 478.769316 109.342205 
L 482.064592 66.776312 
L 483.163017 56.422283 
L 483.712229 52.69307 
L 484.261442 50.081938 
L 484.810655 48.679886 
L 485.359867 48.550169 
L 485.90908 49.717798 
L 486.458292 52.159611 
L 487.007505 55.802718 
L 488.10593 66.176581 
L 489.204355 79.43679 
L 490.302781 93.806066 
L 490.302781 93.806066 
" clip-path="url(#p5fe193ffa3)" style="fill: none; stroke-dasharray: 7.68,1.92,1.2,1.92; stroke-dashoffset: 0; stroke: #ff0000; stroke-width: 1.2"/>
   </g>
   <g id="line2d_29">
    <path d="M 41.046875 127.188355 
L 55.875615 127.29372 
L 66.310655 127.55283 
L 70.155143 127.456633 
L 73.999631 127.27601 
L 75.647269 127.430908 
L 78.942544 127.80327 
L 80.040969 127.5758 
L 82.787032 126.843771 
L 85.533095 126.668799 
L 87.180733 126.911986 
L 87.729946 127.244026 
L 89.377584 128.594309 
L 91.025221 129.919401 
L 92.123647 129.972139 
L 92.672859 130.463257 
L 93.222072 130.718847 
L 93.771284 130.275965 
L 94.320497 129.605886 
L 94.86971 129.194464 
L 95.418922 129.007803 
L 95.968135 129.276756 
L 96.517347 130.286749 
L 97.615773 132.813879 
L 98.164985 133.887974 
L 98.714198 134.424599 
L 99.26341 133.888257 
L 100.911048 129.720483 
L 101.460261 129.295547 
L 102.009473 129.637683 
L 102.558686 130.609392 
L 103.107899 131.814942 
L 103.657111 132.362785 
L 104.206324 131.274365 
L 105.304749 127.639065 
L 106.403174 123.801969 
L 108.050812 117.987729 
L 108.600025 116.51257 
L 109.149237 116.963856 
L 109.69845 119.131202 
L 110.247662 122.674683 
L 111.8953 136.9238 
L 112.444513 139.728737 
L 112.993725 141.700713 
L 113.542938 142.735318 
L 114.092151 142.687514 
L 114.641363 143.007264 
L 115.190576 145.188905 
L 116.289001 151.504016 
L 117.387426 154.722148 
L 117.936639 155.725272 
L 118.485851 154.897941 
L 119.584277 150.515525 
L 120.133489 149.211801 
L 120.682702 146.546189 
L 121.231914 140.250346 
L 122.879552 111.066089 
L 123.428765 104.462592 
L 123.977977 101.36365 
L 124.52719 102.395479 
L 125.625615 111.8727 
L 126.174828 114.001004 
L 126.72404 111.506385 
L 128.371678 92.660471 
L 128.920891 89.23743 
L 129.470103 90.715651 
L 130.019316 97.92793 
L 131.117741 117.980123 
L 131.666954 125.121204 
L 132.216166 129.750077 
L 132.765379 132.48214 
L 133.314592 134.639702 
L 133.863804 137.828432 
L 135.511442 151.700233 
L 136.060655 153.56852 
L 136.609867 153.285153 
L 137.15908 151.270547 
L 137.708292 148.043085 
L 138.806718 140.81258 
L 139.35593 139.420316 
L 139.905143 140.020544 
L 140.454355 141.694907 
L 141.003568 142.71528 
L 141.552781 141.433491 
L 142.101993 137.104559 
L 142.651206 129.861585 
L 143.749631 108.834627 
L 144.298844 97.998782 
L 144.848056 90.093241 
L 145.397269 86.029832 
L 145.946481 85.620104 
L 146.495694 88.607112 
L 147.044906 94.773321 
L 147.594119 102.511092 
L 148.143332 108.529196 
L 148.692544 110.08289 
L 149.241757 106.754556 
L 150.889395 86.197333 
L 151.438607 83.580698 
L 151.98782 86.480304 
L 152.537032 94.418574 
L 153.635458 113.961131 
L 154.18467 119.61238 
L 154.733883 121.249495 
L 155.283095 119.083894 
L 155.832308 113.817665 
L 156.930733 100.459969 
L 157.479946 95.892607 
L 158.029158 93.501431 
L 158.578371 92.734365 
L 159.127584 93.355732 
L 159.676796 95.537789 
L 161.873647 109.141838 
L 162.422859 110.942017 
L 162.972072 110.33061 
L 163.521284 107.686341 
L 164.070497 104.324835 
L 164.61971 101.768869 
L 165.168922 101.278071 
L 165.718135 103.20555 
L 166.267347 107.43319 
L 167.365773 117.475462 
L 167.914985 119.93659 
L 168.464198 119.733257 
L 169.01341 117.459062 
L 169.562623 113.545959 
L 170.661048 103.168627 
L 171.210261 99.208266 
L 171.759473 96.649119 
L 172.308686 95.050429 
L 172.857899 94.571234 
L 173.407111 95.242602 
L 173.956324 96.193497 
L 174.505536 96.443547 
L 175.054749 95.669369 
L 175.603962 93.748507 
L 176.153174 90.638905 
L 177.251599 83.163775 
L 177.800812 80.310889 
L 178.350025 78.649952 
L 178.899237 78.170033 
L 179.997662 78.838924 
L 181.096088 78.40718 
L 181.6453 78.549164 
L 182.194513 78.898873 
L 182.743725 79.541484 
L 183.292938 81.172676 
L 184.391363 85.643627 
L 184.940576 86.90536 
L 186.039001 88.079902 
L 186.588214 89.134838 
L 187.137426 91.52646 
L 187.686639 95.52216 
L 189.334277 111.426131 
L 189.883489 115.029184 
L 190.432702 116.796128 
L 190.981914 116.765913 
L 191.531127 115.299006 
L 192.08034 112.732388 
L 193.178765 104.909276 
L 194.27719 97.47408 
L 195.375615 92.316333 
L 195.924828 90.633863 
L 196.47404 89.324098 
L 197.023253 87.624787 
L 197.572466 85.040821 
L 198.670891 77.9129 
L 199.769316 69.642349 
L 200.318529 66.749613 
L 200.867741 65.60112 
L 201.416954 66.275502 
L 201.966166 68.370962 
L 203.064592 75.115908 
L 204.712229 86.395357 
L 205.261442 89.475614 
L 205.810655 91.510251 
L 206.359867 92.287783 
L 206.90908 91.893232 
L 208.007505 90.166211 
L 208.556718 90.200399 
L 209.10593 91.381408 
L 210.753568 98.28941 
L 211.302781 99.060517 
L 211.851993 98.2712 
L 212.401206 95.803054 
L 214.048844 84.994491 
L 214.598056 82.876236 
L 215.147269 81.565432 
L 215.696481 81.135859 
L 216.245694 81.498281 
L 216.794906 82.117097 
L 217.344119 82.971322 
L 217.893332 84.734642 
L 219.540969 92.313363 
L 220.090182 93.706823 
L 220.639395 94.06047 
L 221.188607 93.543631 
L 222.836245 89.946438 
L 223.385458 89.491801 
L 224.483883 89.402516 
L 225.033095 89.151522 
L 225.582308 88.688818 
L 226.131521 87.490409 
L 226.680733 85.174542 
L 227.229946 81.906289 
L 228.328371 73.130348 
L 229.426796 64.054685 
L 229.976009 60.810186 
L 230.525221 59.06902 
L 231.074434 59.078924 
L 231.623647 60.745646 
L 232.722072 67.096388 
L 233.820497 73.510014 
L 235.468135 80.24133 
L 236.017347 83.404274 
L 236.56656 87.676008 
L 238.76341 107.777357 
L 239.312623 111.134084 
L 239.861836 113.646398 
L 240.411048 115.280377 
L 240.960261 115.832308 
L 241.509473 115.220562 
L 242.058686 113.624479 
L 242.607899 110.895418 
L 243.157111 106.841216 
L 245.903174 82.833201 
L 249.19845 59.947881 
L 249.747662 57.177623 
L 250.296875 55.557054 
L 250.846088 55.358435 
L 251.3953 56.555889 
L 251.944513 58.991974 
L 252.493725 62.614217 
L 253.592151 73.06351 
L 255.789001 96.601885 
L 256.887426 105.087775 
L 257.985851 111.77879 
L 259.084277 116.72881 
L 259.633489 118.476556 
L 260.182702 119.636824 
L 260.731914 119.80539 
L 261.281127 118.761011 
L 261.83034 116.538144 
L 262.379552 113.254536 
L 263.477977 104.199043 
L 267.322466 67.561119 
L 267.871678 64.564344 
L 268.420891 62.724938 
L 268.970103 61.782225 
L 269.519316 61.3724 
L 270.068529 61.309477 
L 270.617741 61.527094 
L 271.166954 62.161858 
L 271.716166 63.595972 
L 272.265379 66.276474 
L 272.814592 70.321399 
L 273.913017 81.803007 
L 275.560655 102.105659 
L 276.65908 112.553443 
L 277.208292 116.260336 
L 277.757505 118.636724 
L 278.306718 119.800422 
L 278.85593 119.977579 
L 279.405143 119.198086 
L 279.954355 117.376778 
L 280.503568 114.640597 
L 281.601993 107.391601 
L 282.700418 97.667383 
L 285.995694 63.313219 
L 286.544906 59.480274 
L 287.094119 56.765199 
L 287.643332 55.136125 
L 288.192544 54.693912 
L 288.741757 55.625267 
L 289.290969 57.963709 
L 289.840182 61.525365 
L 290.938607 71.224921 
L 293.135458 92.760083 
L 294.783095 106.476203 
L 295.881521 113.851819 
L 296.430733 116.651734 
L 296.979946 118.595534 
L 297.529158 119.455283 
L 298.078371 119.259702 
L 298.627584 118.108292 
L 299.176796 115.887556 
L 299.726009 112.52427 
L 300.824434 103.189884 
L 303.021284 80.910648 
L 304.11971 72.371157 
L 305.218135 66.496592 
L 306.31656 62.317355 
L 306.865773 60.892091 
L 307.414985 59.916902 
L 307.964198 59.653604 
L 308.51341 60.415185 
L 309.062623 62.254607 
L 309.611836 65.135013 
L 310.161048 69.0158 
L 311.259473 78.919084 
L 313.456324 99.970245 
L 314.005536 103.888217 
L 314.554749 106.91075 
L 315.103962 109.120611 
L 315.653174 110.70929 
L 316.202387 111.886169 
L 316.751599 112.712537 
L 317.300812 113.234811 
L 317.850025 113.407305 
L 318.399237 113.005477 
L 318.94845 111.807742 
L 319.497662 109.710503 
L 320.046875 106.744992 
L 321.1453 98.509874 
L 323.891363 74.348693 
L 324.440576 70.680822 
L 324.989788 67.76914 
L 325.539001 65.688187 
L 326.088214 64.304996 
L 326.637426 63.49453 
L 327.186639 63.224694 
L 327.735851 63.488152 
L 328.285064 64.221633 
L 328.834277 65.436493 
L 329.383489 67.210685 
L 329.932702 69.619024 
L 330.481914 72.769901 
L 331.58034 81.100198 
L 334.326403 104.996139 
L 335.424828 111.564517 
L 335.97404 113.770169 
L 336.523253 115.174377 
L 337.072466 115.830347 
L 337.621678 115.811085 
L 338.170891 115.168091 
L 338.720103 113.9522 
L 339.269316 112.207422 
L 339.818529 109.940463 
L 340.916954 103.925339 
L 342.015379 95.562664 
L 345.310655 66.352773 
L 345.859867 63.035109 
L 346.40908 60.574326 
L 346.958292 59.002524 
L 347.507505 58.309196 
L 348.056718 58.46761 
L 348.60593 59.446129 
L 349.155143 61.214563 
L 349.704355 63.758391 
L 350.802781 70.92122 
L 351.901206 80.445529 
L 355.745694 117.480807 
L 356.294906 120.892629 
L 356.844119 123.307299 
L 357.393332 124.569956 
L 357.942544 124.584714 
L 358.491757 123.328173 
L 359.040969 120.866579 
L 359.590182 117.344262 
L 360.688607 107.829475 
L 362.336245 90.497705 
L 364.533095 67.335699 
L 365.631521 58.261626 
L 366.180733 54.971493 
L 366.729946 52.686935 
L 367.279158 51.590247 
L 367.828371 51.779157 
L 368.377584 53.225533 
L 368.926796 55.872157 
L 369.476009 59.651569 
L 370.574434 69.860486 
L 373.86971 105.093368 
L 374.968135 114.189638 
L 376.06656 120.975955 
L 376.615773 123.138849 
L 377.164985 124.293732 
L 377.714198 124.338075 
L 378.26341 123.182901 
L 378.812623 120.83769 
L 379.361836 117.388662 
L 380.460261 107.65294 
L 382.107899 89.159499 
L 383.755536 71.260893 
L 384.853962 61.69769 
L 385.952387 54.862675 
L 386.501599 52.641663 
L 387.050812 51.384232 
L 387.600025 51.229395 
L 388.149237 52.259876 
L 388.69845 54.492678 
L 389.247662 57.875378 
L 389.796875 62.327372 
L 390.8953 73.784748 
L 394.190576 113.396623 
L 395.289001 122.539865 
L 395.838214 125.670615 
L 396.387426 127.766092 
L 396.936639 128.782259 
L 397.485851 128.694875 
L 398.035064 127.503459 
L 398.584277 125.208691 
L 399.133489 121.784678 
L 399.682702 117.262907 
L 400.781127 105.457357 
L 404.076403 63.866589 
L 405.174828 53.997558 
L 405.72404 50.519115 
L 406.273253 48.232643 
L 406.822466 47.191008 
L 407.371678 47.446736 
L 407.920891 49.062456 
L 408.470103 52.026521 
L 409.019316 56.177039 
L 410.117741 67.385692 
L 411.765379 89.014298 
L 413.413017 111.437341 
L 414.511442 123.860241 
L 415.060655 128.591635 
L 415.609867 132.051928 
L 416.15908 134.148889 
L 416.708292 134.837945 
L 417.257505 134.072911 
L 417.806718 131.910434 
L 418.35593 128.496347 
L 418.905143 123.921005 
L 420.003568 111.67203 
L 421.651206 88.936005 
L 423.298844 66.320281 
L 424.397269 54.265532 
L 424.946481 49.78177 
L 425.495694 46.503864 
L 426.044906 44.540079 
L 426.594119 43.97768 
L 427.143332 44.833097 
L 427.692544 47.0837 
L 428.241757 50.711111 
L 428.790969 55.637581 
L 429.889395 68.62005 
L 433.733883 120.721841 
L 434.283095 125.889939 
L 434.832308 129.992833 
L 435.381521 132.895862 
L 435.930733 134.495798 
L 436.479946 134.748189 
L 437.029158 133.605205 
L 437.578371 131.047331 
L 438.127584 127.153741 
L 439.226009 115.926549 
L 440.324434 101.424889 
L 442.521284 70.531542 
L 443.61971 57.9905 
L 444.168922 53.142016 
L 444.718135 49.373591 
L 445.267347 46.760695 
L 445.81656 45.411929 
L 446.365773 45.389812 
L 446.914985 46.70417 
L 447.464198 49.334074 
L 448.01341 53.22998 
L 448.562623 58.307048 
L 449.661048 71.357949 
L 453.505536 122.702431 
L 454.054749 127.639481 
L 454.603962 131.392063 
L 455.153174 133.857728 
L 455.702387 134.980565 
L 456.251599 134.716136 
L 456.800812 133.049747 
L 457.350025 130.023983 
L 457.899237 125.749485 
L 458.997662 113.930638 
L 460.6453 90.886562 
L 462.292938 67.614852 
L 463.391363 55.398437 
L 463.940576 50.865575 
L 464.489788 47.567991 
L 465.039001 45.591101 
L 465.588214 44.992146 
L 466.137426 45.802006 
L 466.686639 47.990993 
L 467.235851 51.49395 
L 467.785064 56.211561 
L 468.883489 68.625295 
L 471.08034 99.157978 
L 472.178765 113.378978 
L 473.27719 124.580678 
L 473.826403 128.64038 
L 474.375615 131.509235 
L 474.924828 133.103398 
L 475.47404 133.377898 
L 476.023253 132.317868 
L 476.572466 129.947852 
L 477.121678 126.336498 
L 477.670891 121.592575 
L 478.769316 109.342205 
L 482.064592 66.776312 
L 483.163017 56.422283 
L 483.712229 52.69307 
L 484.261442 50.081938 
L 484.810655 48.679886 
L 485.359867 48.550169 
L 485.90908 49.717798 
L 486.458292 52.159611 
L 487.007505 55.802718 
L 488.10593 66.176581 
L 489.204355 79.43679 
L 490.302781 93.806066 
L 490.302781 93.806066 
" clip-path="url(#p5fe193ffa3)" style="fill: none; stroke-dasharray: 4.44,1.92; stroke-dashoffset: 0; stroke: #0000ff; stroke-width: 1.2"/>
   </g>
   <g id="line2d_30">
    <path d="M 41.046875 127.188355 
L 56.424828 127.295659 
L 64.663017 127.500674 
L 69.60593 127.394168 
L 74.548844 127.29793 
L 76.196481 127.750857 
L 76.745694 127.724033 
L 77.294906 127.892341 
L 77.844119 127.903196 
L 79.491757 127.540661 
L 80.590182 126.938696 
L 81.688607 126.991166 
L 83.336245 126.755628 
L 84.43467 126.857383 
L 85.533095 126.634525 
L 86.082308 126.302832 
L 86.631521 126.500809 
L 87.729946 127.477128 
L 88.279158 128.357382 
L 88.828371 129.611908 
L 89.377584 129.461927 
L 89.926796 128.596546 
L 90.476009 128.833537 
L 91.025221 129.851298 
L 91.574434 131.247562 
L 92.123647 130.256826 
L 92.672859 128.200688 
L 93.222072 129.810358 
L 93.771284 132.840019 
L 94.320497 131.873445 
L 94.86971 129.059674 
L 95.418922 127.255711 
L 95.968135 126.112603 
L 96.517347 128.384973 
L 97.06656 133.821467 
L 97.615773 136.119761 
L 98.164985 133.576042 
L 98.714198 132.754249 
L 99.26341 137.212352 
L 99.812623 137.781959 
L 100.361836 133.326518 
L 100.911048 126.840598 
L 101.460261 125.460669 
L 102.009473 128.044889 
L 102.558686 131.95172 
L 103.107899 133.389721 
L 103.657111 133.25392 
L 104.206324 135.364536 
L 104.755536 132.991419 
L 105.304749 126.734705 
L 105.853962 123.943747 
L 106.403174 124.151242 
L 106.952387 121.036248 
L 107.501599 118.792147 
L 108.050812 118.944911 
L 108.600025 115.422431 
L 109.149237 110.681252 
L 109.69845 116.725208 
L 110.247662 125.453696 
L 110.796875 128.228644 
L 111.346088 129.100645 
L 111.8953 133.889 
L 112.993725 139.495228 
L 114.092151 148.537813 
L 114.641363 146.988927 
L 115.190576 141.734186 
L 115.739788 142.245541 
L 116.838214 157.527695 
L 117.387426 156.894301 
L 117.936639 154.842318 
L 118.485851 157.184141 
L 119.035064 156.922984 
L 120.133489 142.710421 
L 120.682702 142.951581 
L 121.231914 144.97783 
L 121.781127 135.219653 
L 122.33034 117.980286 
L 122.879552 106.106225 
L 123.428765 99.631543 
L 123.977977 97.378549 
L 125.076403 106.597542 
L 125.625615 104.672604 
L 126.174828 109.539084 
L 126.72404 120.657547 
L 127.273253 121.914816 
L 128.371678 87.9289 
L 128.920891 79.684065 
L 129.470103 82.655394 
L 130.019316 90.159826 
L 130.568529 101.683314 
L 131.666954 134.744883 
L 132.216166 142.903938 
L 132.765379 143.215167 
L 133.314592 137.385433 
L 133.863804 128.714208 
L 134.413017 128.210232 
L 135.511442 151.651384 
L 136.060655 152.120739 
L 136.609867 153.379666 
L 137.15908 161.062692 
L 137.708292 163.72799 
L 138.257505 155.672019 
L 139.35593 123.788842 
L 139.905143 118.683684 
L 140.454355 126.817206 
L 141.552781 154.336397 
L 142.101993 154.849951 
L 144.298844 89.373313 
L 144.848056 74.202154 
L 145.397269 71.920378 
L 145.946481 81.172765 
L 147.044906 102.75523 
L 147.594119 110.569242 
L 148.143332 116.774756 
L 148.692544 118.456358 
L 149.241757 111.664043 
L 150.340182 80.305131 
L 150.889395 72.485863 
L 151.438607 77.421236 
L 152.537032 100.23418 
L 153.635458 115.820792 
L 154.18467 124.802411 
L 154.733883 126.852179 
L 155.283095 122.251899 
L 156.381521 104.156432 
L 156.930733 99.797305 
L 157.479946 97.285199 
L 158.029158 93.015922 
L 158.578371 90.306119 
L 159.676796 93.245702 
L 160.226009 95.166786 
L 160.775221 99.094381 
L 161.873647 109.302713 
L 162.422859 113.337819 
L 162.972072 114.105678 
L 164.070497 104.473488 
L 165.168922 98.169126 
L 165.718135 98.00609 
L 166.267347 102.163475 
L 167.365773 122.95048 
L 167.914985 128.655101 
L 168.464198 127.160301 
L 169.562623 115.740526 
L 170.111836 108.348141 
L 171.210261 89.332161 
L 171.759473 87.39515 
L 173.956324 103.529608 
L 174.505536 102.710267 
L 175.603962 89.469344 
L 176.702387 85.122999 
L 177.251599 83.752872 
L 177.800812 83.923977 
L 178.350025 84.646195 
L 178.899237 83.087735 
L 179.997662 78.136136 
L 180.546875 76.754316 
L 181.6453 72.751329 
L 182.194513 76.566221 
L 182.743725 82.662578 
L 183.292938 84.350987 
L 183.842151 83.67067 
L 184.940576 87.275284 
L 186.039001 89.12293 
L 186.588214 88.826031 
L 187.137426 88.796628 
L 187.686639 93.778738 
L 188.785064 108.21694 
L 189.334277 112.35464 
L 189.883489 115.338927 
L 190.432702 117.178926 
L 190.981914 117.934028 
L 191.531127 115.819117 
L 192.08034 111.204691 
L 192.629552 107.99032 
L 193.178765 106.052072 
L 194.27719 96.247577 
L 194.826403 95.084317 
L 195.375615 95.401436 
L 195.924828 93.317395 
L 197.023253 85.620482 
L 198.670891 77.932906 
L 199.220103 76.420432 
L 199.769316 71.852391 
L 200.318529 65.707537 
L 200.867741 61.87501 
L 201.416954 61.900764 
L 201.966166 64.968766 
L 203.613804 82.293489 
L 204.163017 85.572075 
L 204.712229 87.699002 
L 205.810655 94.332637 
L 206.359867 94.329864 
L 207.458292 88.414806 
L 208.007505 88.377137 
L 209.10593 93.967397 
L 209.655143 94.601049 
L 210.204355 95.426336 
L 210.753568 97.346814 
L 211.302781 97.984132 
L 211.851993 97.884904 
L 212.401206 97.386479 
L 212.950418 95.039461 
L 214.048844 81.487258 
L 214.598056 79.749166 
L 215.147269 80.942418 
L 216.245694 80.249107 
L 216.794906 82.599439 
L 217.344119 83.952443 
L 217.893332 83.098962 
L 218.442544 84.979921 
L 218.991757 90.306678 
L 219.540969 92.428499 
L 220.090182 92.44688 
L 220.639395 92.878129 
L 221.188607 92.451107 
L 221.73782 92.356998 
L 222.287032 94.067959 
L 222.836245 93.391982 
L 223.385458 90.599138 
L 223.93467 89.027098 
L 224.483883 88.399994 
L 225.033095 88.764765 
L 226.131521 91.949445 
L 226.680733 90.220398 
L 229.426796 60.211819 
L 229.976009 59.326401 
L 230.525221 59.11105 
L 231.074434 58.160845 
L 231.623647 59.70486 
L 232.172859 63.703855 
L 232.722072 68.589686 
L 233.271284 72.463234 
L 233.820497 74.471137 
L 234.36971 75.949549 
L 234.918922 77.879398 
L 236.56656 86.266212 
L 237.115773 90.889264 
L 238.214198 104.661841 
L 238.76341 110.168392 
L 239.312623 113.464955 
L 239.861836 114.481797 
L 240.411048 115.105274 
L 240.960261 116.210828 
L 241.509473 116.345903 
L 243.157111 108.486822 
L 243.706324 104.596948 
L 244.804749 92.708434 
L 245.903174 82.964946 
L 246.452387 77.48307 
L 247.001599 73.413071 
L 247.550812 71.370643 
L 248.100025 68.58495 
L 250.296875 52.699195 
L 250.846088 51.985556 
L 251.3953 54.75294 
L 253.042938 66.94959 
L 253.592151 73.339734 
L 254.141363 81.545076 
L 254.690576 87.955513 
L 255.789001 94.979058 
L 256.887426 105.537223 
L 257.436639 108.157152 
L 257.985851 111.891777 
L 258.535064 116.448768 
L 259.084277 118.506711 
L 259.633489 118.122255 
L 260.182702 118.085249 
L 260.731914 118.70191 
L 261.281127 118.356901 
L 261.83034 116.837647 
L 262.379552 114.265258 
L 262.928765 109.722188 
L 264.02719 98.185775 
L 265.125615 88.591782 
L 266.773253 70.02907 
L 267.322466 66.856302 
L 268.420891 61.949613 
L 268.970103 61.086573 
L 269.519316 61.779116 
L 270.068529 61.888675 
L 270.617741 61.06165 
L 271.166954 61.354877 
L 271.716166 62.675297 
L 272.265379 64.694734 
L 272.814592 68.818462 
L 274.462229 87.822434 
L 275.560655 103.869104 
L 276.109867 109.509749 
L 277.208292 117.172178 
L 277.757505 119.84507 
L 278.306718 120.426865 
L 278.85593 119.926811 
L 279.954355 117.734264 
L 280.503568 116.140358 
L 281.052781 112.929884 
L 282.151206 103.437808 
L 284.348056 79.43371 
L 285.446481 66.980398 
L 286.544906 58.630156 
L 287.094119 55.127003 
L 287.643332 53.119796 
L 288.192544 53.525294 
L 288.741757 55.249849 
L 289.290969 57.360905 
L 289.840182 60.937793 
L 293.68467 98.467709 
L 294.783095 107.020803 
L 295.881521 114.547798 
L 296.430733 117.129929 
L 296.979946 118.881963 
L 297.529158 120.029802 
L 298.078371 119.885468 
L 298.627584 118.52752 
L 299.176796 116.377252 
L 299.726009 112.888562 
L 301.922859 92.315083 
L 302.472072 85.380193 
L 303.021284 80.124838 
L 304.11971 72.023842 
L 304.668922 67.772363 
L 305.218135 65.546834 
L 305.767347 64.223629 
L 306.31656 62.576767 
L 306.865773 61.436793 
L 307.414985 60.733775 
L 307.964198 59.566486 
L 308.51341 59.033375 
L 309.062623 60.813455 
L 309.611836 64.339306 
L 310.161048 68.770673 
L 313.456324 100.323387 
L 314.005536 104.585497 
L 314.554749 107.724541 
L 315.103962 109.31771 
L 315.653174 110.174234 
L 316.751599 112.963393 
L 317.300812 113.428867 
L 318.399237 112.670981 
L 318.94845 111.752236 
L 319.497662 109.627641 
L 320.046875 107.044123 
L 320.596088 103.809171 
L 321.694513 94.067965 
L 323.342151 77.836255 
L 323.891363 73.766337 
L 325.539001 65.519366 
L 326.088214 64.157759 
L 326.637426 63.723057 
L 327.186639 63.489283 
L 327.735851 63.61546 
L 328.285064 64.099334 
L 328.834277 64.791248 
L 329.383489 66.665107 
L 331.031127 76.348039 
L 331.58034 80.752803 
L 332.678765 91.208487 
L 334.875615 109.138618 
L 335.424828 111.650582 
L 335.97404 113.636784 
L 336.523253 114.759118 
L 337.072466 115.450971 
L 337.621678 115.830914 
L 338.170891 115.156572 
L 340.367741 107.717137 
L 341.466166 100.676842 
L 342.564592 91.437751 
L 344.761442 70.308491 
L 345.859867 62.651352 
L 346.40908 59.845238 
L 346.958292 58.438835 
L 347.507505 58.282632 
L 348.056718 58.745539 
L 348.60593 59.378516 
L 349.155143 60.615976 
L 349.704355 62.850147 
L 350.253568 66.275663 
L 351.901206 79.770985 
L 355.745694 118.221779 
L 356.294906 121.486206 
L 356.844119 123.63864 
L 357.393332 124.84487 
L 357.942544 125.014793 
L 358.491757 123.948636 
L 359.040969 121.420376 
L 360.139395 112.843842 
L 361.23782 102.735108 
L 362.885458 84.421557 
L 363.983883 72.40078 
L 365.631521 56.948657 
L 366.180733 53.905666 
L 366.729946 51.870959 
L 367.279158 50.730743 
L 367.828371 51.079161 
L 368.377584 52.91054 
L 368.926796 55.718345 
L 369.476009 59.41715 
L 370.574434 69.882257 
L 373.86971 105.888768 
L 374.968135 114.72645 
L 376.06656 120.95804 
L 376.615773 123.231315 
L 377.164985 124.552495 
L 377.714198 124.713067 
L 378.26341 123.466598 
L 378.812623 120.994456 
L 379.361836 117.567006 
L 379.911048 113.360581 
L 381.009473 101.829273 
L 384.304749 66.163932 
L 385.403174 57.380552 
L 385.952387 54.336989 
L 386.501599 52.079155 
L 387.050812 50.944451 
L 387.600025 51.052377 
L 388.149237 52.157557 
L 388.69845 54.174083 
L 389.247662 57.608815 
L 390.346088 67.453345 
L 391.444513 80.260077 
L 394.190576 114.1005 
L 395.289001 123.194739 
L 395.838214 126.028265 
L 396.387426 127.926502 
L 396.936639 128.948502 
L 397.485851 128.781714 
L 398.035064 127.448346 
L 398.584277 125.24148 
L 399.133489 122.081335 
L 399.682702 117.817905 
L 400.781127 106.013876 
L 404.076403 62.940791 
L 405.174828 53.553116 
L 405.72404 50.104363 
L 406.273253 47.724392 
L 406.822466 46.677632 
L 407.371678 47.075218 
L 407.920891 48.631305 
L 408.470103 51.443605 
L 409.019316 55.733663 
L 410.117741 67.204111 
L 411.216166 81.360613 
L 413.962229 119.181546 
L 415.060655 129.703457 
L 415.609867 133.333667 
L 416.15908 135.038014 
L 416.708292 135.087667 
L 417.257505 133.94316 
L 417.806718 131.908079 
L 418.35593 128.440792 
L 419.454355 118.571504 
L 420.552781 104.646949 
L 423.848056 58.397351 
L 424.397269 52.818798 
L 424.946481 48.707858 
L 425.495694 45.96078 
L 426.044906 44.290442 
L 426.594119 43.67663 
L 427.143332 44.4737 
L 427.692544 46.649645 
L 428.241757 50.167799 
L 428.790969 55.064786 
L 429.889395 68.486696 
L 433.733883 121.953 
L 434.283095 126.957742 
L 434.832308 130.924586 
L 435.381521 133.622786 
L 435.930733 135.028201 
L 436.479946 135.051621 
L 437.029158 133.727234 
L 437.578371 131.199747 
L 438.127584 127.328651 
L 439.226009 115.852957 
L 440.873647 93.626071 
L 442.521284 69.493101 
L 443.61971 57.061678 
L 444.168922 52.193432 
L 444.718135 48.680379 
L 445.267347 46.396617 
L 445.81656 45.261109 
L 446.365773 45.44597 
L 446.914985 46.80269 
L 447.464198 49.082091 
L 448.01341 52.817038 
L 449.111836 63.914241 
L 450.210261 78.672118 
L 452.407111 111.257197 
L 453.505536 123.724789 
L 454.054749 128.582273 
L 454.603962 132.214942 
L 455.153174 134.482394 
L 455.702387 135.48649 
L 456.251599 135.151127 
L 456.800812 133.40109 
L 457.350025 130.384801 
L 457.899237 126.066229 
L 458.997662 114.230734 
L 460.096088 98.872383 
L 462.292938 66.253583 
L 463.391363 54.169041 
L 463.940576 49.735737 
L 464.489788 46.651736 
L 465.039001 45.051039 
L 465.588214 44.794852 
L 466.137426 45.773564 
L 466.686639 47.881084 
L 467.235851 51.345188 
L 467.785064 56.059615 
L 468.883489 68.474312 
L 470.531127 92.054268 
L 471.629552 107.845413 
L 472.727977 120.694007 
L 473.27719 125.608824 
L 473.826403 129.448869 
L 474.375615 132.126313 
L 474.924828 133.519269 
L 475.47404 133.608255 
L 476.023253 132.416577 
L 476.572466 130.080967 
L 477.121678 126.459143 
L 478.220103 115.883325 
L 479.318529 102.159822 
L 482.064592 65.7344 
L 483.163017 55.475726 
L 483.712229 51.882587 
L 484.261442 49.484532 
L 484.810655 48.309484 
L 485.359867 48.369545 
L 485.90908 49.647049 
L 486.458292 52.004338 
L 487.007505 55.598155 
L 488.10593 66.073355 
L 489.204355 79.435067 
L 490.302781 94.269351 
L 490.302781 94.269351 
" clip-path="url(#p5fe193ffa3)" style="fill: none; stroke-dasharray: 1.2,1.98; stroke-dashoffset: 0; stroke: #00ff00; stroke-width: 1.2"/>
   </g>
   <g id="line2d_31">
    <path d="M 41.046875 127.188355 
L 56.424828 127.295395 
L 64.663017 127.491699 
L 69.60593 127.372798 
L 74.548844 127.261804 
L 76.196481 127.68007 
L 76.745694 127.661196 
L 77.294906 127.816735 
L 77.844119 127.826112 
L 79.491757 127.483836 
L 80.590182 126.924527 
L 81.688607 126.945492 
L 83.336245 126.718382 
L 84.43467 126.809182 
L 86.082308 126.367708 
L 86.631521 126.552433 
L 87.729946 127.446395 
L 88.279158 128.244577 
L 88.828371 129.329654 
L 89.377584 129.236812 
L 89.926796 128.574589 
L 90.476009 128.832268 
L 91.574434 130.75645 
L 92.123647 129.917236 
L 92.672859 128.345859 
L 93.222072 129.630069 
L 93.771284 131.84667 
L 94.320497 130.848047 
L 94.86971 128.489966 
L 95.418922 127.041729 
L 95.968135 126.249834 
L 96.517347 128.254677 
L 97.06656 132.699444 
L 97.615773 134.585548 
L 98.164985 132.664679 
L 98.714198 131.983998 
L 99.26341 135.117904 
L 99.812623 135.046557 
L 100.361836 131.117518 
L 100.911048 125.902972 
L 101.460261 124.843485 
L 102.009473 126.990203 
L 102.558686 130.209956 
L 103.107899 131.529416 
L 103.657111 131.468232 
L 104.206324 132.649006 
L 104.755536 130.319817 
L 105.304749 125.249259 
L 105.853962 122.813757 
L 106.403174 122.603908 
L 106.952387 120.027568 
L 107.501599 118.220796 
L 108.050812 118.218145 
L 109.149237 112.938502 
L 109.69845 118.42212 
L 110.247662 126.029807 
L 110.796875 129.423493 
L 111.346088 131.372529 
L 111.8953 135.821133 
L 114.092151 146.945087 
L 114.641363 145.435633 
L 115.190576 141.837876 
L 115.739788 142.787341 
L 116.838214 154.149835 
L 117.387426 153.463829 
L 117.936639 151.565993 
L 118.485851 152.237432 
L 119.035064 150.557827 
L 120.133489 137.902754 
L 120.682702 136.756024 
L 121.231914 135.953762 
L 121.781127 126.071549 
L 122.33034 111.015529 
L 122.879552 100.59693 
L 123.428765 95.077464 
L 123.977977 93.59853 
L 125.076403 103.01713 
L 125.625615 103.598009 
L 126.174828 108.060097 
L 126.72404 115.476826 
L 127.273253 114.835307 
L 128.371678 88.156369 
L 128.920891 82.528937 
L 129.470103 86.468808 
L 130.019316 95.226656 
L 130.568529 107.465886 
L 131.666954 136.563388 
L 132.216166 143.473912 
L 132.765379 143.999398 
L 133.314592 139.990886 
L 133.863804 134.440012 
L 134.413017 135.184859 
L 135.511442 153.385109 
L 136.060655 153.714823 
L 136.609867 153.885366 
L 137.15908 157.892474 
L 137.708292 157.871207 
L 138.257505 150.087339 
L 139.35593 125.407286 
L 139.905143 122.160837 
L 140.454355 128.537318 
L 141.003568 139.045717 
L 141.552781 146.651677 
L 142.101993 144.496749 
L 144.298844 86.195374 
L 144.848056 74.646115 
L 145.397269 73.624729 
L 145.946481 81.741057 
L 147.044906 101.567045 
L 147.594119 109.450731 
L 148.143332 115.301298 
L 148.692544 116.531528 
L 149.241757 110.555984 
L 150.340182 85.578611 
L 150.889395 79.654533 
L 151.438607 83.874719 
L 153.086245 113.918075 
L 154.18467 130.084254 
L 154.733883 131.777729 
L 155.283095 127.718633 
L 156.381521 111.606214 
L 156.930733 106.91329 
L 158.029158 100.984943 
L 158.578371 99.445744 
L 159.127584 101.255038 
L 159.676796 103.675739 
L 160.226009 106.702912 
L 161.324434 116.154632 
L 161.873647 120.770814 
L 162.422859 124.031364 
L 162.972072 124.156857 
L 164.070497 115.418434 
L 164.61971 112.689708 
L 165.168922 110.551753 
L 165.718135 111.401473 
L 166.267347 115.950145 
L 167.365773 133.5246 
L 167.914985 137.851801 
L 168.464198 136.159253 
L 169.562623 125.172606 
L 170.661048 109.781563 
L 171.210261 102.592212 
L 171.759473 101.133657 
L 172.857899 107.340542 
L 173.407111 110.998007 
L 173.956324 113.836929 
L 174.505536 113.224802 
L 175.603962 103.423151 
L 176.702387 99.49482 
L 177.251599 98.183407 
L 177.800812 98.146291 
L 178.350025 98.731528 
L 178.899237 98.012588 
L 179.44845 96.768669 
L 179.997662 95.918776 
L 180.546875 95.684267 
L 181.096088 95.114707 
L 181.6453 94.836918 
L 182.194513 98.513842 
L 182.743725 103.651283 
L 183.292938 105.830647 
L 183.842151 106.456451 
L 184.940576 110.716122 
L 186.039001 113.282641 
L 186.588214 113.927278 
L 187.137426 115.149434 
L 187.686639 120.179866 
L 188.785064 133.419941 
L 189.334277 137.424307 
L 189.883489 140.033742 
L 190.432702 141.215433 
L 190.981914 141.07076 
L 191.531127 138.550766 
L 192.629552 130.443943 
L 193.178765 127.675177 
L 194.27719 118.761935 
L 194.826403 117.239383 
L 195.375615 116.850349 
L 195.924828 114.951441 
L 197.023253 108.932562 
L 199.220103 99.886392 
L 200.318529 91.669545 
L 200.867741 89.567359 
L 201.416954 90.834581 
L 201.966166 94.686184 
L 203.613804 112.278346 
L 204.163017 116.014603 
L 205.261442 121.910901 
L 205.810655 124.658737 
L 206.359867 124.765925 
L 207.458292 120.45089 
L 208.007505 120.507667 
L 209.10593 125.216568 
L 210.204355 127.730469 
L 210.753568 129.570242 
L 211.302781 130.101936 
L 211.851993 129.623797 
L 212.401206 128.333778 
L 212.950418 125.376955 
L 214.048844 113.890792 
L 214.598056 112.266184 
L 215.147269 112.997854 
L 215.696481 113.022823 
L 216.245694 113.256093 
L 216.794906 115.447166 
L 217.344119 116.98011 
L 217.893332 117.197629 
L 218.442544 119.452458 
L 218.991757 123.946576 
L 219.540969 125.957315 
L 220.639395 126.400735 
L 221.73782 125.266198 
L 222.287032 125.902218 
L 222.836245 124.997979 
L 223.385458 122.866807 
L 223.93467 121.790012 
L 224.483883 121.424247 
L 225.033095 121.70931 
L 225.582308 122.815289 
L 226.131521 123.410947 
L 226.680733 121.380524 
L 229.426796 95.738576 
L 229.976009 95.058016 
L 231.074434 95.648293 
L 231.623647 98.124989 
L 233.271284 111.914285 
L 233.820497 114.632326 
L 234.918922 119.013061 
L 236.56656 128.309429 
L 237.115773 133.059638 
L 238.214198 145.333243 
L 238.76341 149.958652 
L 239.312623 152.625156 
L 239.861836 153.361737 
L 240.960261 153.591538 
L 241.509473 152.634311 
L 242.607899 145.859142 
L 243.157111 142.443783 
L 243.706324 137.742702 
L 244.804749 125.907651 
L 247.001599 108.183609 
L 247.550812 106.068565 
L 248.100025 103.436021 
L 249.747662 94.124059 
L 250.296875 91.934879 
L 250.846088 92.448836 
L 251.3953 95.823389 
L 253.042938 110.326865 
L 254.690576 131.331601 
L 255.789001 139.462118 
L 256.887426 148.749377 
L 257.436639 151.162331 
L 258.535064 157.435294 
L 259.084277 158.729683 
L 260.182702 157.628276 
L 260.731914 157.254585 
L 261.281127 155.848684 
L 261.83034 153.278856 
L 262.379552 149.684586 
L 263.477977 138.365172 
L 264.576403 127.116284 
L 265.674828 116.035835 
L 266.22404 109.960672 
L 266.773253 105.127505 
L 267.322466 102.330008 
L 268.420891 98.914874 
L 268.970103 98.785751 
L 269.519316 99.885159 
L 270.068529 100.68146 
L 270.617741 100.93331 
L 271.166954 102.118878 
L 271.716166 104.275402 
L 272.265379 107.277068 
L 272.814592 112.06849 
L 274.462229 131.95384 
L 275.560655 146.767877 
L 276.109867 151.876414 
L 277.208292 158.288876 
L 277.757505 159.965812 
L 278.306718 159.785267 
L 278.85593 158.558985 
L 279.954355 154.50747 
L 280.503568 151.775945 
L 281.052781 147.798828 
L 282.151206 137.493837 
L 285.446481 102.069204 
L 285.995694 98.095622 
L 286.544906 95.044623 
L 287.094119 92.688708 
L 287.643332 91.805817 
L 288.192544 93.011196 
L 288.741757 95.543949 
L 289.290969 98.717543 
L 289.840182 103.163419 
L 292.586245 131.487656 
L 293.68467 141.837293 
L 294.783095 149.701596 
L 295.881521 155.916365 
L 296.430733 157.796682 
L 296.979946 158.768733 
L 297.529158 158.936173 
L 298.078371 157.851993 
L 298.627584 155.624164 
L 299.176796 152.542371 
L 299.726009 148.258656 
L 303.021284 114.247723 
L 304.668922 103.349073 
L 305.218135 101.59673 
L 306.31656 99.635811 
L 306.865773 99.136345 
L 307.964198 99.007424 
L 308.51341 99.711955 
L 309.062623 102.359554 
L 310.161048 111.469854 
L 312.907111 139.018661 
L 314.005536 147.249585 
L 314.554749 149.823261 
L 315.103962 151.015864 
L 316.202387 152.07413 
L 316.751599 152.687539 
L 317.300812 152.454731 
L 317.850025 151.536942 
L 318.399237 150.399486 
L 318.94845 148.6798 
L 320.046875 142.560525 
L 320.596088 138.61311 
L 321.694513 128.226997 
L 323.342151 112.510902 
L 323.891363 108.770211 
L 324.989788 104.005223 
L 325.539001 102.112131 
L 326.088214 101.430882 
L 326.637426 101.589163 
L 327.186639 102.057583 
L 327.735851 102.93636 
L 328.285064 104.200953 
L 328.834277 105.752787 
L 329.383489 108.269671 
L 331.031127 119.493485 
L 332.129552 129.676802 
L 333.77719 144.142048 
L 334.326403 148.310743 
L 334.875615 151.209523 
L 335.424828 153.1984 
L 335.97404 154.521908 
L 336.523253 154.96266 
L 337.072466 154.851693 
L 337.621678 154.307075 
L 338.170891 152.854906 
L 339.818529 145.598727 
L 340.367741 142.570826 
L 341.466166 134.532391 
L 342.564592 124.726253 
L 344.212229 108.869246 
L 345.310655 101.380855 
L 345.859867 98.522279 
L 346.40908 96.653512 
L 346.958292 96.09153 
L 347.507505 96.688174 
L 348.056718 97.969532 
L 348.60593 99.600159 
L 349.155143 101.854452 
L 349.704355 104.982035 
L 350.802781 113.892758 
L 351.901206 123.979671 
L 354.647269 151.826438 
L 355.196481 156.332409 
L 355.745694 159.83043 
L 356.294906 162.229803 
L 356.844119 163.461505 
L 357.393332 163.623187 
L 357.942544 162.659631 
L 358.491757 160.46273 
L 359.040969 156.939392 
L 360.139395 146.869028 
L 361.787032 129.386242 
L 363.983883 105.578187 
L 365.082308 96.041057 
L 365.631521 92.470254 
L 366.180733 90.299429 
L 366.729946 89.222856 
L 367.279158 89.18855 
L 367.828371 90.601615 
L 368.377584 93.409277 
L 368.926796 97.203579 
L 370.025221 107.454676 
L 373.320497 144.607148 
L 374.418922 153.699629 
L 374.968135 157.150692 
L 375.517347 159.852107 
L 376.06656 161.862833 
L 376.615773 163.133989 
L 377.164985 163.377377 
L 377.714198 162.439357 
L 378.26341 160.158076 
L 378.812623 156.701394 
L 379.911048 147.203739 
L 381.558686 128.133927 
L 383.206324 109.504379 
L 384.304749 99.837519 
L 384.853962 95.85383 
L 385.403174 92.764932 
L 385.952387 90.659911 
L 386.501599 89.438201 
L 387.050812 89.345824 
L 387.600025 90.477466 
L 388.149237 92.656444 
L 388.69845 95.79824 
L 389.247662 100.200622 
L 390.346088 111.657433 
L 392.542938 139.793984 
L 393.641363 152.627911 
L 394.739788 161.887415 
L 395.289001 165.022021 
L 395.838214 166.912961 
L 396.387426 167.770657 
L 396.936639 167.648079 
L 397.485851 166.346927 
L 398.035064 163.912501 
L 398.584277 160.578573 
L 399.133489 156.310765 
L 400.231914 144.809994 
L 401.879552 122.69614 
L 403.52719 101.497771 
L 404.625615 91.684576 
L 405.174828 88.313935 
L 405.72404 85.940883 
L 406.273253 84.762679 
L 406.822466 84.946565 
L 407.371678 86.546594 
L 407.920891 89.342413 
L 408.470103 93.35716 
L 409.568529 104.886379 
L 410.666954 119.005102 
L 413.413017 156.745064 
L 414.511442 167.360179 
L 415.060655 171.107666 
L 415.609867 173.468491 
L 416.15908 173.993424 
L 416.708292 172.903537 
L 417.257505 170.547559 
L 417.806718 167.190344 
L 418.35593 162.542003 
L 419.454355 150.538594 
L 420.552781 135.347814 
L 422.749631 103.490448 
L 423.848056 91.056751 
L 424.397269 86.450875 
L 424.946481 83.334848 
L 425.495694 81.635022 
L 426.044906 81.152137 
L 426.594119 81.869627 
L 427.143332 84.005772 
L 427.692544 87.496199 
L 428.241757 92.267379 
L 429.340182 105.353058 
L 433.18467 159.691448 
L 433.733883 164.884632 
L 434.283095 168.944161 
L 434.832308 171.826912 
L 435.381521 173.36134 
L 435.930733 173.531906 
L 436.479946 172.30037 
L 437.029158 169.713078 
L 437.578371 165.904561 
L 438.127584 160.84442 
L 439.226009 147.507097 
L 441.422859 115.574897 
L 442.521284 100.733792 
L 443.61971 89.780809 
L 444.168922 85.920846 
L 444.718135 83.453457 
L 445.267347 82.282633 
L 445.81656 82.350323 
L 446.365773 83.757747 
L 446.914985 86.372723 
L 447.464198 89.983919 
L 448.01341 94.907997 
L 449.111836 107.91757 
L 450.759473 132.063075 
L 452.407111 155.243477 
L 453.505536 166.170178 
L 454.054749 170.00158 
L 454.603962 172.498179 
L 455.153174 173.566024 
L 455.702387 173.291897 
L 456.251599 171.646859 
L 456.800812 168.614743 
L 457.350025 164.351389 
L 458.44845 152.458412 
L 459.546875 137.379572 
L 461.743725 104.592455 
L 462.842151 91.817528 
L 463.391363 87.191443 
L 463.940576 83.810965 
L 464.489788 81.857406 
L 465.039001 81.411046 
L 465.588214 82.354107 
L 466.137426 84.582531 
L 466.686639 87.976619 
L 467.235851 92.634105 
L 468.334277 105.106024 
L 469.981914 128.51657 
L 471.629552 151.73736 
L 472.727977 163.203451 
L 473.27719 167.238266 
L 473.826403 170.071366 
L 474.375615 171.636325 
L 474.924828 171.855304 
L 475.47404 170.735598 
L 476.023253 168.324725 
L 476.572466 164.761067 
L 477.121678 160.007465 
L 478.220103 147.587438 
L 479.867741 124.961556 
L 481.515379 103.290214 
L 482.613804 92.683059 
L 483.163017 88.901856 
L 483.712229 86.303299 
L 484.261442 84.968203 
L 484.810655 84.911069 
L 485.359867 86.124884 
L 485.90908 88.569206 
L 486.458292 92.106331 
L 487.007505 96.784687 
L 488.10593 108.976211 
L 490.302781 138.237218 
L 490.302781 138.237218 
" clip-path="url(#p5fe193ffa3)" style="fill: none; stroke-dasharray: 4.44,1.92; stroke-dashoffset: 0; stroke: #bf00bf; stroke-width: 1.2"/>
   </g>
   <g id="patch_3">
    <path d="M 41.046875 185.393079 
L 41.046875 10.778906 
" style="fill: none; stroke: #000000; stroke-width: 0.8; stroke-linejoin: miter; stroke-linecap: square"/>
   </g>
   <g id="patch_4">
    <path d="M 480.416954 185.393079 
L 480.416954 10.778906 
" style="fill: none; stroke: #000000; stroke-width: 0.8; stroke-linejoin: miter; stroke-linecap: square"/>
   </g>
   <g id="patch_5">
    <path d="M 41.046875 185.393079 
L 480.416954 185.393079 
" style="fill: none; stroke: #000000; stroke-width: 0.8; stroke-linejoin: miter; stroke-linecap: square"/>
   </g>
   <g id="patch_6">
    <path d="M 41.046875 10.778906 
L 480.416954 10.778906 
" style="fill: none; stroke: #000000; stroke-width: 0.8; stroke-linejoin: miter; stroke-linecap: square"/>
   </g>
   <g id="text_16">
    <!-- 8th floor -->
    <g transform="translate(66.919039 166.151464) scale(0.1 -0.1)">
     <defs>
      <path id="ArialMT-38" d="M 1131 2484 
Q 781 2613 612 2850 
Q 444 3088 444 3419 
Q 444 3919 803 4259 
Q 1163 4600 1759 4600 
Q 2359 4600 2725 4251 
Q 3091 3903 3091 3403 
Q 3091 3084 2923 2848 
Q 2756 2613 2416 2484 
Q 2838 2347 3058 2040 
Q 3278 1734 3278 1309 
Q 3278 722 2862 322 
Q 2447 -78 1769 -78 
Q 1091 -78 675 323 
Q 259 725 259 1325 
Q 259 1772 486 2073 
Q 713 2375 1131 2484 
z
M 1019 3438 
Q 1019 3113 1228 2906 
Q 1438 2700 1772 2700 
Q 2097 2700 2305 2904 
Q 2513 3109 2513 3406 
Q 2513 3716 2298 3927 
Q 2084 4138 1766 4138 
Q 1444 4138 1231 3931 
Q 1019 3725 1019 3438 
z
M 838 1322 
Q 838 1081 952 856 
Q 1066 631 1291 507 
Q 1516 384 1775 384 
Q 2178 384 2440 643 
Q 2703 903 2703 1303 
Q 2703 1709 2433 1975 
Q 2163 2241 1756 2241 
Q 1359 2241 1098 1978 
Q 838 1716 838 1322 
z
" transform="scale(0.015625)"/>
      <path id="ArialMT-68" d="M 422 0 
L 422 4581 
L 984 4581 
L 984 2938 
Q 1378 3394 1978 3394 
Q 2347 3394 2619 3248 
Q 2891 3103 3008 2847 
Q 3125 2591 3125 2103 
L 3125 0 
L 2563 0 
L 2563 2103 
Q 2563 2525 2380 2717 
Q 2197 2909 1863 2909 
Q 1613 2909 1392 2779 
Q 1172 2650 1078 2428 
Q 984 2206 984 1816 
L 984 0 
L 422 0 
z
" transform="scale(0.015625)"/>
      <path id="ArialMT-66" d="M 556 0 
L 556 2881 
L 59 2881 
L 59 3319 
L 556 3319 
L 556 3672 
Q 556 4006 616 4169 
Q 697 4388 901 4523 
Q 1106 4659 1475 4659 
Q 1713 4659 2000 4603 
L 1916 4113 
Q 1741 4144 1584 4144 
Q 1328 4144 1222 4034 
Q 1116 3925 1116 3625 
L 1116 3319 
L 1763 3319 
L 1763 2881 
L 1116 2881 
L 1116 0 
L 556 0 
z
" transform="scale(0.015625)"/>
      <path id="ArialMT-6f" d="M 213 1659 
Q 213 2581 725 3025 
Q 1153 3394 1769 3394 
Q 2453 3394 2887 2945 
Q 3322 2497 3322 1706 
Q 3322 1066 3130 698 
Q 2938 331 2570 128 
Q 2203 -75 1769 -75 
Q 1072 -75 642 372 
Q 213 819 213 1659 
z
M 791 1659 
Q 791 1022 1069 705 
Q 1347 388 1769 388 
Q 2188 388 2466 706 
Q 2744 1025 2744 1678 
Q 2744 2294 2464 2611 
Q 2184 2928 1769 2928 
Q 1347 2928 1069 2612 
Q 791 2297 791 1659 
z
" transform="scale(0.015625)"/>
      <path id="ArialMT-72" d="M 416 0 
L 416 3319 
L 922 3319 
L 922 2816 
Q 1116 3169 1280 3281 
Q 1444 3394 1641 3394 
Q 1925 3394 2219 3213 
L 2025 2691 
Q 1819 2813 1613 2813 
Q 1428 2813 1281 2702 
Q 1134 2591 1072 2394 
Q 978 2094 978 1738 
L 978 0 
L 416 0 
z
" transform="scale(0.015625)"/>
     </defs>
     <use xlink:href="#ArialMT-38"/>
     <use xlink:href="#ArialMT-74" x="55.615234"/>
     <use xlink:href="#ArialMT-68" x="83.398438"/>
     <use xlink:href="#ArialMT-20" x="139.013672"/>
     <use xlink:href="#ArialMT-66" x="166.796875"/>
     <use xlink:href="#ArialMT-6c" x="194.580078"/>
     <use xlink:href="#ArialMT-6f" x="216.796875"/>
     <use xlink:href="#ArialMT-6f" x="272.412109"/>
     <use xlink:href="#ArialMT-72" x="328.027344"/>
    </g>
   </g>
   <g id="legend_1">
    <g id="patch_7">
     <path d="M 48.046875 47.186719 
L 372.801563 47.186719 
Q 374.801563 47.186719 374.801563 45.186719 
L 374.801563 17.778906 
Q 374.801563 15.778906 372.801563 15.778906 
L 48.046875 15.778906 
Q 46.046875 15.778906 46.046875 17.778906 
L 46.046875 45.186719 
Q 46.046875 47.186719 48.046875 47.186719 
z
" style="fill: #ffffff; opacity: 0.8; stroke: #000000; stroke-linejoin: miter"/>
    </g>
    <g id="line2d_32">
     <path d="M 50.046875 23.436719 
L 60.046875 23.436719 
L 70.046875 23.436719 
" style="fill: none; stroke: #000000; stroke-width: 1.2; stroke-linecap: square"/>
    </g>
    <g id="text_17">
     <!-- Ref. -->
     <g transform="translate(78.046875 26.936719) scale(0.1 -0.1)">
      <defs>
       <path id="ArialMT-52" d="M 503 0 
L 503 4581 
L 2534 4581 
Q 3147 4581 3465 4457 
Q 3784 4334 3975 4021 
Q 4166 3709 4166 3331 
Q 4166 2844 3850 2509 
Q 3534 2175 2875 2084 
Q 3116 1969 3241 1856 
Q 3506 1613 3744 1247 
L 4541 0 
L 3778 0 
L 3172 953 
Q 2906 1366 2734 1584 
Q 2563 1803 2427 1890 
Q 2291 1978 2150 2013 
Q 2047 2034 1813 2034 
L 1109 2034 
L 1109 0 
L 503 0 
z
M 1109 2559 
L 2413 2559 
Q 2828 2559 3062 2645 
Q 3297 2731 3419 2920 
Q 3541 3109 3541 3331 
Q 3541 3656 3305 3865 
Q 3069 4075 2559 4075 
L 1109 4075 
L 1109 2559 
z
" transform="scale(0.015625)"/>
       <path id="ArialMT-2e" d="M 581 0 
L 581 641 
L 1222 641 
L 1222 0 
L 581 0 
z
" transform="scale(0.015625)"/>
      </defs>
      <use xlink:href="#ArialMT-52"/>
      <use xlink:href="#ArialMT-65" x="72.216797"/>
      <use xlink:href="#ArialMT-66" x="127.832031"/>
      <use xlink:href="#ArialMT-2e" x="155.615234"/>
     </g>
    </g>
    <g id="line2d_33">
     <path d="M 50.046875 37.582031 
L 60.046875 37.582031 
L 70.046875 37.582031 
" style="fill: none; stroke-dasharray: 7.68,1.92,1.2,1.92; stroke-dashoffset: 0; stroke: #ff0000; stroke-width: 1.2"/>
    </g>
    <g id="text_18">
     <!-- DKF pred. -->
     <g transform="translate(78.046875 41.082031) scale(0.1 -0.1)">
      <defs>
       <path id="ArialMT-4b" d="M 469 0 
L 469 4581 
L 1075 4581 
L 1075 2309 
L 3350 4581 
L 4172 4581 
L 2250 2725 
L 4256 0 
L 3456 0 
L 1825 2319 
L 1075 1588 
L 1075 0 
L 469 0 
z
" transform="scale(0.015625)"/>
       <path id="ArialMT-46" d="M 525 0 
L 525 4581 
L 3616 4581 
L 3616 4041 
L 1131 4041 
L 1131 2622 
L 3281 2622 
L 3281 2081 
L 1131 2081 
L 1131 0 
L 525 0 
z
" transform="scale(0.015625)"/>
       <path id="ArialMT-64" d="M 2575 0 
L 2575 419 
Q 2259 -75 1647 -75 
Q 1250 -75 917 144 
Q 584 363 401 755 
Q 219 1147 219 1656 
Q 219 2153 384 2558 
Q 550 2963 881 3178 
Q 1213 3394 1622 3394 
Q 1922 3394 2156 3267 
Q 2391 3141 2538 2938 
L 2538 4581 
L 3097 4581 
L 3097 0 
L 2575 0 
z
M 797 1656 
Q 797 1019 1065 703 
Q 1334 388 1700 388 
Q 2069 388 2326 689 
Q 2584 991 2584 1609 
Q 2584 2291 2321 2609 
Q 2059 2928 1675 2928 
Q 1300 2928 1048 2622 
Q 797 2316 797 1656 
z
" transform="scale(0.015625)"/>
      </defs>
      <use xlink:href="#ArialMT-44"/>
      <use xlink:href="#ArialMT-4b" x="72.216797"/>
      <use xlink:href="#ArialMT-46" x="138.916016"/>
      <use xlink:href="#ArialMT-20" x="200"/>
      <use xlink:href="#ArialMT-70" x="227.783203"/>
      <use xlink:href="#ArialMT-72" x="283.398438"/>
      <use xlink:href="#ArialMT-65" x="316.699219"/>
      <use xlink:href="#ArialMT-64" x="372.314453"/>
      <use xlink:href="#ArialMT-2e" x="427.929688"/>
     </g>
    </g>
    <g id="line2d_34">
     <path d="M 143.615625 23.436719 
L 153.615625 23.436719 
L 163.615625 23.436719 
" style="fill: none; stroke-dasharray: 4.44,1.92; stroke-dashoffset: 0; stroke: #0000ff; stroke-width: 1.2"/>
    </g>
    <g id="text_19">
     <!-- Integr. DKF pred. -->
     <g transform="translate(171.615625 26.936719) scale(0.1 -0.1)">
      <defs>
       <path id="ArialMT-49" d="M 597 0 
L 597 4581 
L 1203 4581 
L 1203 0 
L 597 0 
z
" transform="scale(0.015625)"/>
       <path id="ArialMT-67" d="M 319 -275 
L 866 -356 
Q 900 -609 1056 -725 
Q 1266 -881 1628 -881 
Q 2019 -881 2231 -725 
Q 2444 -569 2519 -288 
Q 2563 -116 2559 434 
Q 2191 0 1641 0 
Q 956 0 581 494 
Q 206 988 206 1678 
Q 206 2153 378 2554 
Q 550 2956 876 3175 
Q 1203 3394 1644 3394 
Q 2231 3394 2613 2919 
L 2613 3319 
L 3131 3319 
L 3131 450 
Q 3131 -325 2973 -648 
Q 2816 -972 2473 -1159 
Q 2131 -1347 1631 -1347 
Q 1038 -1347 672 -1080 
Q 306 -813 319 -275 
z
M 784 1719 
Q 784 1066 1043 766 
Q 1303 466 1694 466 
Q 2081 466 2343 764 
Q 2606 1063 2606 1700 
Q 2606 2309 2336 2618 
Q 2066 2928 1684 2928 
Q 1309 2928 1046 2623 
Q 784 2319 784 1719 
z
" transform="scale(0.015625)"/>
      </defs>
      <use xlink:href="#ArialMT-49"/>
      <use xlink:href="#ArialMT-6e" x="27.783203"/>
      <use xlink:href="#ArialMT-74" x="83.398438"/>
      <use xlink:href="#ArialMT-65" x="111.181641"/>
      <use xlink:href="#ArialMT-67" x="166.796875"/>
      <use xlink:href="#ArialMT-72" x="222.412109"/>
      <use xlink:href="#ArialMT-2e" x="250.212891"/>
      <use xlink:href="#ArialMT-20" x="277.996094"/>
      <use xlink:href="#ArialMT-44" x="305.779297"/>
      <use xlink:href="#ArialMT-4b" x="377.996094"/>
      <use xlink:href="#ArialMT-46" x="444.695312"/>
      <use xlink:href="#ArialMT-20" x="505.779297"/>
      <use xlink:href="#ArialMT-70" x="533.5625"/>
      <use xlink:href="#ArialMT-72" x="589.177734"/>
      <use xlink:href="#ArialMT-65" x="622.478516"/>
      <use xlink:href="#ArialMT-64" x="678.09375"/>
      <use xlink:href="#ArialMT-2e" x="733.708984"/>
     </g>
    </g>
    <g id="line2d_35">
     <path d="M 143.615625 37.699219 
L 153.615625 37.699219 
L 163.615625 37.699219 
" style="fill: none; stroke-dasharray: 1.2,1.98; stroke-dashoffset: 0; stroke: #00ff00; stroke-width: 1.2"/>
    </g>
    <g id="text_20">
     <!-- AKF pred. -->
     <g transform="translate(171.615625 41.199219) scale(0.1 -0.1)">
      <defs>
       <path id="ArialMT-41" d="M -9 0 
L 1750 4581 
L 2403 4581 
L 4278 0 
L 3588 0 
L 3053 1388 
L 1138 1388 
L 634 0 
L -9 0 
z
M 1313 1881 
L 2866 1881 
L 2388 3150 
Q 2169 3728 2063 4100 
Q 1975 3659 1816 3225 
L 1313 1881 
z
" transform="scale(0.015625)"/>
      </defs>
      <use xlink:href="#ArialMT-41"/>
      <use xlink:href="#ArialMT-4b" x="66.699219"/>
      <use xlink:href="#ArialMT-46" x="133.398438"/>
      <use xlink:href="#ArialMT-20" x="194.482422"/>
      <use xlink:href="#ArialMT-70" x="222.265625"/>
      <use xlink:href="#ArialMT-72" x="277.880859"/>
      <use xlink:href="#ArialMT-65" x="311.181641"/>
      <use xlink:href="#ArialMT-64" x="366.796875"/>
      <use xlink:href="#ArialMT-2e" x="422.412109"/>
     </g>
    </g>
    <g id="line2d_36">
     <path d="M 267.759375 23.436719 
L 277.759375 23.436719 
L 287.759375 23.436719 
" style="fill: none; stroke-dasharray: 4.44,1.92; stroke-dashoffset: 0; stroke: #bf00bf; stroke-width: 1.2"/>
    </g>
    <g id="text_21">
     <!-- Integr. AKF pred. -->
     <g transform="translate(295.759375 26.936719) scale(0.1 -0.1)">
      <use xlink:href="#ArialMT-49"/>
      <use xlink:href="#ArialMT-6e" x="27.783203"/>
      <use xlink:href="#ArialMT-74" x="83.398438"/>
      <use xlink:href="#ArialMT-65" x="111.181641"/>
      <use xlink:href="#ArialMT-67" x="166.796875"/>
      <use xlink:href="#ArialMT-72" x="222.412109"/>
      <use xlink:href="#ArialMT-2e" x="250.212891"/>
      <use xlink:href="#ArialMT-20" x="277.996094"/>
      <use xlink:href="#ArialMT-41" x="300.279297"/>
      <use xlink:href="#ArialMT-4b" x="366.978516"/>
      <use xlink:href="#ArialMT-46" x="433.677734"/>
      <use xlink:href="#ArialMT-20" x="494.761719"/>
      <use xlink:href="#ArialMT-70" x="522.544922"/>
      <use xlink:href="#ArialMT-72" x="578.160156"/>
      <use xlink:href="#ArialMT-65" x="611.460938"/>
      <use xlink:href="#ArialMT-64" x="667.076172"/>
      <use xlink:href="#ArialMT-2e" x="722.691406"/>
     </g>
    </g>
   </g>
  </g>
 </g>
 <defs>
  <clipPath id="p5fe193ffa3">
   <rect x="41.046875" y="10.778906" width="439.370079" height="174.614173"/>
  </clipPath>
 </defs>
</svg>
