<?xml version="1.0" encoding="utf-8" standalone="no"?>
<!DOCTYPE svg PUBLIC "-//W3C//DTD SVG 1.1//EN"
  "http://www.w3.org/Graphics/SVG/1.1/DTD/svg11.dtd">
<svg xmlns:xlink="http://www.w3.org/1999/xlink" width="493.177891pt" height="218.622767pt" viewBox="0 0 493.177891 218.622767" xmlns="http://www.w3.org/2000/svg" version="1.1">
 <metadata>
  <rdf:RDF xmlns:dc="http://purl.org/dc/elements/1.1/" xmlns:cc="http://creativecommons.org/ns#" xmlns:rdf="http://www.w3.org/1999/02/22-rdf-syntax-ns#">
   <cc:Work>
    <dc:type rdf:resource="http://purl.org/dc/dcmitype/StillImage"/>
    <dc:date>2024-03-17T16:00:06.905364</dc:date>
    <dc:format>image/svg+xml</dc:format>
    <dc:creator>
     <cc:Agent>
      <dc:title>Matplotlib v3.8.2, https://matplotlib.org/</dc:title>
     </cc:Agent>
    </dc:creator>
   </cc:Work>
  </rdf:RDF>
 </metadata>
 <defs>
  <style type="text/css">*{stroke-linejoin: round; stroke-linecap: butt}</style>
 </defs>
 <g id="figure_1">
  <g id="patch_1">
   <path d="M 0 218.622767 
L 493.177891 218.622767 
L 493.177891 0 
L 0 0 
z
" style="fill: #ffffff"/>
  </g>
  <g id="axes_1">
   <g id="patch_2">
    <path d="M 41.046875 185.393079 
L 480.416954 185.393079 
L 480.416954 10.778906 
L 41.046875 10.778906 
z
" style="fill: #ffffff"/>
   </g>
   <g id="matplotlib.axis_1">
    <g id="xtick_1">
     <g id="line2d_1">
      <path d="M 41.046875 185.393079 
L 41.046875 10.778906 
" clip-path="url(#p6eefe8d611)" style="fill: none; stroke: #b0b0b0; stroke-width: 0.8; stroke-linecap: square"/>
     </g>
     <g id="line2d_2">
      <defs>
       <path id="mfa6107e064" d="M 0 0 
L 0 -3.5 
" style="stroke: #000000; stroke-width: 0.8"/>
      </defs>
      <g>
       <use xlink:href="#mfa6107e064" x="41.046875" y="185.393079" style="stroke: #000000; stroke-width: 0.8"/>
      </g>
     </g>
     <g id="text_1">
      <!-- 0 -->
      <g transform="translate(38.266406 196.050892) scale(0.1 -0.1)">
       <defs>
        <path id="ArialMT-30" d="M 266 2259 
Q 266 3072 433 3567 
Q 600 4063 929 4331 
Q 1259 4600 1759 4600 
Q 2128 4600 2406 4451 
Q 2684 4303 2865 4023 
Q 3047 3744 3150 3342 
Q 3253 2941 3253 2259 
Q 3253 1453 3087 958 
Q 2922 463 2592 192 
Q 2263 -78 1759 -78 
Q 1097 -78 719 397 
Q 266 969 266 2259 
z
M 844 2259 
Q 844 1131 1108 757 
Q 1372 384 1759 384 
Q 2147 384 2411 759 
Q 2675 1134 2675 2259 
Q 2675 3391 2411 3762 
Q 2147 4134 1753 4134 
Q 1366 4134 1134 3806 
Q 844 3388 844 2259 
z
" transform="scale(0.015625)"/>
       </defs>
       <use xlink:href="#ArialMT-30"/>
      </g>
     </g>
    </g>
    <g id="xtick_2">
     <g id="line2d_3">
      <path d="M 95.968135 185.393079 
L 95.968135 10.778906 
" clip-path="url(#p6eefe8d611)" style="fill: none; stroke: #b0b0b0; stroke-width: 0.8; stroke-linecap: square"/>
     </g>
     <g id="line2d_4">
      <g>
       <use xlink:href="#mfa6107e064" x="95.968135" y="185.393079" style="stroke: #000000; stroke-width: 0.8"/>
      </g>
     </g>
     <g id="text_2">
      <!-- 5 -->
      <g transform="translate(93.187666 196.050892) scale(0.1 -0.1)">
       <defs>
        <path id="ArialMT-35" d="M 266 1200 
L 856 1250 
Q 922 819 1161 601 
Q 1400 384 1738 384 
Q 2144 384 2425 690 
Q 2706 997 2706 1503 
Q 2706 1984 2436 2262 
Q 2166 2541 1728 2541 
Q 1456 2541 1237 2417 
Q 1019 2294 894 2097 
L 366 2166 
L 809 4519 
L 3088 4519 
L 3088 3981 
L 1259 3981 
L 1013 2750 
Q 1425 3038 1878 3038 
Q 2478 3038 2890 2622 
Q 3303 2206 3303 1553 
Q 3303 931 2941 478 
Q 2500 -78 1738 -78 
Q 1113 -78 717 272 
Q 322 622 266 1200 
z
" transform="scale(0.015625)"/>
       </defs>
       <use xlink:href="#ArialMT-35"/>
      </g>
     </g>
    </g>
    <g id="xtick_3">
     <g id="line2d_5">
      <path d="M 150.889395 185.393079 
L 150.889395 10.778906 
" clip-path="url(#p6eefe8d611)" style="fill: none; stroke: #b0b0b0; stroke-width: 0.8; stroke-linecap: square"/>
     </g>
     <g id="line2d_6">
      <g>
       <use xlink:href="#mfa6107e064" x="150.889395" y="185.393079" style="stroke: #000000; stroke-width: 0.8"/>
      </g>
     </g>
     <g id="text_3">
      <!-- 10 -->
      <g transform="translate(145.328457 196.050892) scale(0.1 -0.1)">
       <defs>
        <path id="ArialMT-31" d="M 2384 0 
L 1822 0 
L 1822 3584 
Q 1619 3391 1289 3197 
Q 959 3003 697 2906 
L 697 3450 
Q 1169 3672 1522 3987 
Q 1875 4303 2022 4600 
L 2384 4600 
L 2384 0 
z
" transform="scale(0.015625)"/>
       </defs>
       <use xlink:href="#ArialMT-31"/>
       <use xlink:href="#ArialMT-30" x="55.615234"/>
      </g>
     </g>
    </g>
    <g id="xtick_4">
     <g id="line2d_7">
      <path d="M 205.810655 185.393079 
L 205.810655 10.778906 
" clip-path="url(#p6eefe8d611)" style="fill: none; stroke: #b0b0b0; stroke-width: 0.8; stroke-linecap: square"/>
     </g>
     <g id="line2d_8">
      <g>
       <use xlink:href="#mfa6107e064" x="205.810655" y="185.393079" style="stroke: #000000; stroke-width: 0.8"/>
      </g>
     </g>
     <g id="text_4">
      <!-- 15 -->
      <g transform="translate(200.249717 196.050892) scale(0.1 -0.1)">
       <use xlink:href="#ArialMT-31"/>
       <use xlink:href="#ArialMT-35" x="55.615234"/>
      </g>
     </g>
    </g>
    <g id="xtick_5">
     <g id="line2d_9">
      <path d="M 260.731914 185.393079 
L 260.731914 10.778906 
" clip-path="url(#p6eefe8d611)" style="fill: none; stroke: #b0b0b0; stroke-width: 0.8; stroke-linecap: square"/>
     </g>
     <g id="line2d_10">
      <g>
       <use xlink:href="#mfa6107e064" x="260.731914" y="185.393079" style="stroke: #000000; stroke-width: 0.8"/>
      </g>
     </g>
     <g id="text_5">
      <!-- 20 -->
      <g transform="translate(255.170977 196.050892) scale(0.1 -0.1)">
       <defs>
        <path id="ArialMT-32" d="M 3222 541 
L 3222 0 
L 194 0 
Q 188 203 259 391 
Q 375 700 629 1000 
Q 884 1300 1366 1694 
Q 2113 2306 2375 2664 
Q 2638 3022 2638 3341 
Q 2638 3675 2398 3904 
Q 2159 4134 1775 4134 
Q 1369 4134 1125 3890 
Q 881 3647 878 3216 
L 300 3275 
Q 359 3922 746 4261 
Q 1134 4600 1788 4600 
Q 2447 4600 2831 4234 
Q 3216 3869 3216 3328 
Q 3216 3053 3103 2787 
Q 2991 2522 2730 2228 
Q 2469 1934 1863 1422 
Q 1356 997 1212 845 
Q 1069 694 975 541 
L 3222 541 
z
" transform="scale(0.015625)"/>
       </defs>
       <use xlink:href="#ArialMT-32"/>
       <use xlink:href="#ArialMT-30" x="55.615234"/>
      </g>
     </g>
    </g>
    <g id="xtick_6">
     <g id="line2d_11">
      <path d="M 315.653174 185.393079 
L 315.653174 10.778906 
" clip-path="url(#p6eefe8d611)" style="fill: none; stroke: #b0b0b0; stroke-width: 0.8; stroke-linecap: square"/>
     </g>
     <g id="line2d_12">
      <g>
       <use xlink:href="#mfa6107e064" x="315.653174" y="185.393079" style="stroke: #000000; stroke-width: 0.8"/>
      </g>
     </g>
     <g id="text_6">
      <!-- 25 -->
      <g transform="translate(310.092237 196.050892) scale(0.1 -0.1)">
       <use xlink:href="#ArialMT-32"/>
       <use xlink:href="#ArialMT-35" x="55.615234"/>
      </g>
     </g>
    </g>
    <g id="xtick_7">
     <g id="line2d_13">
      <path d="M 370.574434 185.393079 
L 370.574434 10.778906 
" clip-path="url(#p6eefe8d611)" style="fill: none; stroke: #b0b0b0; stroke-width: 0.8; stroke-linecap: square"/>
     </g>
     <g id="line2d_14">
      <g>
       <use xlink:href="#mfa6107e064" x="370.574434" y="185.393079" style="stroke: #000000; stroke-width: 0.8"/>
      </g>
     </g>
     <g id="text_7">
      <!-- 30 -->
      <g transform="translate(365.013497 196.050892) scale(0.1 -0.1)">
       <defs>
        <path id="ArialMT-33" d="M 269 1209 
L 831 1284 
Q 928 806 1161 595 
Q 1394 384 1728 384 
Q 2125 384 2398 659 
Q 2672 934 2672 1341 
Q 2672 1728 2419 1979 
Q 2166 2231 1775 2231 
Q 1616 2231 1378 2169 
L 1441 2663 
Q 1497 2656 1531 2656 
Q 1891 2656 2178 2843 
Q 2466 3031 2466 3422 
Q 2466 3731 2256 3934 
Q 2047 4138 1716 4138 
Q 1388 4138 1169 3931 
Q 950 3725 888 3313 
L 325 3413 
Q 428 3978 793 4289 
Q 1159 4600 1703 4600 
Q 2078 4600 2393 4439 
Q 2709 4278 2876 4000 
Q 3044 3722 3044 3409 
Q 3044 3113 2884 2869 
Q 2725 2625 2413 2481 
Q 2819 2388 3044 2092 
Q 3269 1797 3269 1353 
Q 3269 753 2831 336 
Q 2394 -81 1725 -81 
Q 1122 -81 723 278 
Q 325 638 269 1209 
z
" transform="scale(0.015625)"/>
       </defs>
       <use xlink:href="#ArialMT-33"/>
       <use xlink:href="#ArialMT-30" x="55.615234"/>
      </g>
     </g>
    </g>
    <g id="xtick_8">
     <g id="line2d_15">
      <path d="M 425.495694 185.393079 
L 425.495694 10.778906 
" clip-path="url(#p6eefe8d611)" style="fill: none; stroke: #b0b0b0; stroke-width: 0.8; stroke-linecap: square"/>
     </g>
     <g id="line2d_16">
      <g>
       <use xlink:href="#mfa6107e064" x="425.495694" y="185.393079" style="stroke: #000000; stroke-width: 0.8"/>
      </g>
     </g>
     <g id="text_8">
      <!-- 35 -->
      <g transform="translate(419.934756 196.050892) scale(0.1 -0.1)">
       <use xlink:href="#ArialMT-33"/>
       <use xlink:href="#ArialMT-35" x="55.615234"/>
      </g>
     </g>
    </g>
    <g id="xtick_9">
     <g id="line2d_17">
      <path d="M 480.416954 185.393079 
L 480.416954 10.778906 
" clip-path="url(#p6eefe8d611)" style="fill: none; stroke: #b0b0b0; stroke-width: 0.8; stroke-linecap: square"/>
     </g>
     <g id="line2d_18">
      <g>
       <use xlink:href="#mfa6107e064" x="480.416954" y="185.393079" style="stroke: #000000; stroke-width: 0.8"/>
      </g>
     </g>
     <g id="text_9">
      <!-- 40 -->
      <g transform="translate(474.856016 196.050892) scale(0.1 -0.1)">
       <defs>
        <path id="ArialMT-34" d="M 2069 0 
L 2069 1097 
L 81 1097 
L 81 1613 
L 2172 4581 
L 2631 4581 
L 2631 1613 
L 3250 1613 
L 3250 1097 
L 2631 1097 
L 2631 0 
L 2069 0 
z
M 2069 1613 
L 2069 3678 
L 634 1613 
L 2069 1613 
z
" transform="scale(0.015625)"/>
       </defs>
       <use xlink:href="#ArialMT-34"/>
       <use xlink:href="#ArialMT-30" x="55.615234"/>
      </g>
     </g>
    </g>
    <g id="text_10">
     <!-- Time (s) -->
     <g transform="translate(242.590508 209.318079) scale(0.1 -0.1)">
      <defs>
       <path id="ArialMT-54" d="M 1659 0 
L 1659 4041 
L 150 4041 
L 150 4581 
L 3781 4581 
L 3781 4041 
L 2266 4041 
L 2266 0 
L 1659 0 
z
" transform="scale(0.015625)"/>
       <path id="ArialMT-69" d="M 425 3934 
L 425 4581 
L 988 4581 
L 988 3934 
L 425 3934 
z
M 425 0 
L 425 3319 
L 988 3319 
L 988 0 
L 425 0 
z
" transform="scale(0.015625)"/>
       <path id="ArialMT-6d" d="M 422 0 
L 422 3319 
L 925 3319 
L 925 2853 
Q 1081 3097 1340 3245 
Q 1600 3394 1931 3394 
Q 2300 3394 2536 3241 
Q 2772 3088 2869 2813 
Q 3263 3394 3894 3394 
Q 4388 3394 4653 3120 
Q 4919 2847 4919 2278 
L 4919 0 
L 4359 0 
L 4359 2091 
Q 4359 2428 4304 2576 
Q 4250 2725 4106 2815 
Q 3963 2906 3769 2906 
Q 3419 2906 3187 2673 
Q 2956 2441 2956 1928 
L 2956 0 
L 2394 0 
L 2394 2156 
Q 2394 2531 2256 2718 
Q 2119 2906 1806 2906 
Q 1569 2906 1367 2781 
Q 1166 2656 1075 2415 
Q 984 2175 984 1722 
L 984 0 
L 422 0 
z
" transform="scale(0.015625)"/>
       <path id="ArialMT-65" d="M 2694 1069 
L 3275 997 
Q 3138 488 2766 206 
Q 2394 -75 1816 -75 
Q 1088 -75 661 373 
Q 234 822 234 1631 
Q 234 2469 665 2931 
Q 1097 3394 1784 3394 
Q 2450 3394 2872 2941 
Q 3294 2488 3294 1666 
Q 3294 1616 3291 1516 
L 816 1516 
Q 847 969 1125 678 
Q 1403 388 1819 388 
Q 2128 388 2347 550 
Q 2566 713 2694 1069 
z
M 847 1978 
L 2700 1978 
Q 2663 2397 2488 2606 
Q 2219 2931 1791 2931 
Q 1403 2931 1139 2672 
Q 875 2413 847 1978 
z
" transform="scale(0.015625)"/>
       <path id="ArialMT-20" transform="scale(0.015625)"/>
       <path id="ArialMT-28" d="M 1497 -1347 
Q 1031 -759 709 28 
Q 388 816 388 1659 
Q 388 2403 628 3084 
Q 909 3875 1497 4659 
L 1900 4659 
Q 1522 4009 1400 3731 
Q 1209 3300 1100 2831 
Q 966 2247 966 1656 
Q 966 153 1900 -1347 
L 1497 -1347 
z
" transform="scale(0.015625)"/>
       <path id="ArialMT-73" d="M 197 991 
L 753 1078 
Q 800 744 1014 566 
Q 1228 388 1613 388 
Q 2000 388 2187 545 
Q 2375 703 2375 916 
Q 2375 1106 2209 1216 
Q 2094 1291 1634 1406 
Q 1016 1563 777 1677 
Q 538 1791 414 1992 
Q 291 2194 291 2438 
Q 291 2659 392 2848 
Q 494 3038 669 3163 
Q 800 3259 1026 3326 
Q 1253 3394 1513 3394 
Q 1903 3394 2198 3281 
Q 2494 3169 2634 2976 
Q 2775 2784 2828 2463 
L 2278 2388 
Q 2241 2644 2061 2787 
Q 1881 2931 1553 2931 
Q 1166 2931 1000 2803 
Q 834 2675 834 2503 
Q 834 2394 903 2306 
Q 972 2216 1119 2156 
Q 1203 2125 1616 2013 
Q 2213 1853 2448 1751 
Q 2684 1650 2818 1456 
Q 2953 1263 2953 975 
Q 2953 694 2789 445 
Q 2625 197 2315 61 
Q 2006 -75 1616 -75 
Q 969 -75 630 194 
Q 291 463 197 991 
z
" transform="scale(0.015625)"/>
       <path id="ArialMT-29" d="M 791 -1347 
L 388 -1347 
Q 1322 153 1322 1656 
Q 1322 2244 1188 2822 
Q 1081 3291 891 3722 
Q 769 4003 388 4659 
L 791 4659 
Q 1378 3875 1659 3084 
Q 1900 2403 1900 1659 
Q 1900 816 1576 28 
Q 1253 -759 791 -1347 
z
" transform="scale(0.015625)"/>
      </defs>
      <use xlink:href="#ArialMT-54"/>
      <use xlink:href="#ArialMT-69" x="57.333984"/>
      <use xlink:href="#ArialMT-6d" x="79.550781"/>
      <use xlink:href="#ArialMT-65" x="162.851562"/>
      <use xlink:href="#ArialMT-20" x="218.466797"/>
      <use xlink:href="#ArialMT-28" x="246.25"/>
      <use xlink:href="#ArialMT-73" x="279.550781"/>
      <use xlink:href="#ArialMT-29" x="329.550781"/>
     </g>
    </g>
   </g>
   <g id="matplotlib.axis_2">
    <g id="ytick_1">
     <g id="line2d_19">
      <path d="M 41.046875 185.393079 
L 480.416954 185.393079 
" clip-path="url(#p6eefe8d611)" style="fill: none; stroke: #b0b0b0; stroke-width: 0.8; stroke-linecap: square"/>
     </g>
     <g id="line2d_20">
      <defs>
       <path id="meeedcbef03" d="M 0 0 
L 3.5 0 
" style="stroke: #000000; stroke-width: 0.8"/>
      </defs>
      <g>
       <use xlink:href="#meeedcbef03" x="41.046875" y="185.393079" style="stroke: #000000; stroke-width: 0.8"/>
      </g>
     </g>
     <g id="text_11">
      <!-- −20 -->
      <g transform="translate(20.584375 188.971986) scale(0.1 -0.1)">
       <defs>
        <path id="ArialMT-2212" d="M 3381 1997 
L 356 1997 
L 356 2522 
L 3381 2522 
L 3381 1997 
z
" transform="scale(0.015625)"/>
       </defs>
       <use xlink:href="#ArialMT-2212"/>
       <use xlink:href="#ArialMT-32" x="58.398438"/>
       <use xlink:href="#ArialMT-30" x="114.013672"/>
      </g>
     </g>
    </g>
    <g id="ytick_2">
     <g id="line2d_21">
      <path d="M 41.046875 127.188355 
L 480.416954 127.188355 
" clip-path="url(#p6eefe8d611)" style="fill: none; stroke: #b0b0b0; stroke-width: 0.8; stroke-linecap: square"/>
     </g>
     <g id="line2d_22">
      <g>
       <use xlink:href="#meeedcbef03" x="41.046875" y="127.188355" style="stroke: #000000; stroke-width: 0.8"/>
      </g>
     </g>
     <g id="text_12">
      <!-- 0 -->
      <g transform="translate(31.985938 130.767261) scale(0.1 -0.1)">
       <use xlink:href="#ArialMT-30"/>
      </g>
     </g>
    </g>
    <g id="ytick_3">
     <g id="line2d_23">
      <path d="M 41.046875 68.983631 
L 480.416954 68.983631 
" clip-path="url(#p6eefe8d611)" style="fill: none; stroke: #b0b0b0; stroke-width: 0.8; stroke-linecap: square"/>
     </g>
     <g id="line2d_24">
      <g>
       <use xlink:href="#meeedcbef03" x="41.046875" y="68.983631" style="stroke: #000000; stroke-width: 0.8"/>
      </g>
     </g>
     <g id="text_13">
      <!-- 20 -->
      <g transform="translate(26.425 72.562537) scale(0.1 -0.1)">
       <use xlink:href="#ArialMT-32"/>
       <use xlink:href="#ArialMT-30" x="55.615234"/>
      </g>
     </g>
    </g>
    <g id="ytick_4">
     <g id="line2d_25">
      <path d="M 41.046875 10.778906 
L 480.416954 10.778906 
" clip-path="url(#p6eefe8d611)" style="fill: none; stroke: #b0b0b0; stroke-width: 0.8; stroke-linecap: square"/>
     </g>
     <g id="line2d_26">
      <g>
       <use xlink:href="#meeedcbef03" x="41.046875" y="10.778906" style="stroke: #000000; stroke-width: 0.8"/>
      </g>
     </g>
     <g id="text_14">
      <!-- 40 -->
      <g transform="translate(26.425 14.357812) scale(0.1 -0.1)">
       <use xlink:href="#ArialMT-34"/>
       <use xlink:href="#ArialMT-30" x="55.615234"/>
      </g>
     </g>
    </g>
    <g id="text_15">
     <!-- Displacement (cm) -->
     <g transform="translate(14.479688 139.758649) rotate(-90) scale(0.1 -0.1)">
      <defs>
       <path id="ArialMT-44" d="M 494 0 
L 494 4581 
L 2072 4581 
Q 2606 4581 2888 4516 
Q 3281 4425 3559 4188 
Q 3922 3881 4101 3404 
Q 4281 2928 4281 2316 
Q 4281 1794 4159 1391 
Q 4038 988 3847 723 
Q 3656 459 3429 307 
Q 3203 156 2883 78 
Q 2563 0 2147 0 
L 494 0 
z
M 1100 541 
L 2078 541 
Q 2531 541 2789 625 
Q 3047 709 3200 863 
Q 3416 1078 3536 1442 
Q 3656 1806 3656 2325 
Q 3656 3044 3420 3430 
Q 3184 3816 2847 3947 
Q 2603 4041 2063 4041 
L 1100 4041 
L 1100 541 
z
" transform="scale(0.015625)"/>
       <path id="ArialMT-70" d="M 422 -1272 
L 422 3319 
L 934 3319 
L 934 2888 
Q 1116 3141 1344 3267 
Q 1572 3394 1897 3394 
Q 2322 3394 2647 3175 
Q 2972 2956 3137 2557 
Q 3303 2159 3303 1684 
Q 3303 1175 3120 767 
Q 2938 359 2589 142 
Q 2241 -75 1856 -75 
Q 1575 -75 1351 44 
Q 1128 163 984 344 
L 984 -1272 
L 422 -1272 
z
M 931 1641 
Q 931 1000 1190 694 
Q 1450 388 1819 388 
Q 2194 388 2461 705 
Q 2728 1022 2728 1688 
Q 2728 2322 2467 2637 
Q 2206 2953 1844 2953 
Q 1484 2953 1207 2617 
Q 931 2281 931 1641 
z
" transform="scale(0.015625)"/>
       <path id="ArialMT-6c" d="M 409 0 
L 409 4581 
L 972 4581 
L 972 0 
L 409 0 
z
" transform="scale(0.015625)"/>
       <path id="ArialMT-61" d="M 2588 409 
Q 2275 144 1986 34 
Q 1697 -75 1366 -75 
Q 819 -75 525 192 
Q 231 459 231 875 
Q 231 1119 342 1320 
Q 453 1522 633 1644 
Q 813 1766 1038 1828 
Q 1203 1872 1538 1913 
Q 2219 1994 2541 2106 
Q 2544 2222 2544 2253 
Q 2544 2597 2384 2738 
Q 2169 2928 1744 2928 
Q 1347 2928 1158 2789 
Q 969 2650 878 2297 
L 328 2372 
Q 403 2725 575 2942 
Q 747 3159 1072 3276 
Q 1397 3394 1825 3394 
Q 2250 3394 2515 3294 
Q 2781 3194 2906 3042 
Q 3031 2891 3081 2659 
Q 3109 2516 3109 2141 
L 3109 1391 
Q 3109 606 3145 398 
Q 3181 191 3288 0 
L 2700 0 
Q 2613 175 2588 409 
z
M 2541 1666 
Q 2234 1541 1622 1453 
Q 1275 1403 1131 1340 
Q 988 1278 909 1158 
Q 831 1038 831 891 
Q 831 666 1001 516 
Q 1172 366 1500 366 
Q 1825 366 2078 508 
Q 2331 650 2450 897 
Q 2541 1088 2541 1459 
L 2541 1666 
z
" transform="scale(0.015625)"/>
       <path id="ArialMT-63" d="M 2588 1216 
L 3141 1144 
Q 3050 572 2676 248 
Q 2303 -75 1759 -75 
Q 1078 -75 664 370 
Q 250 816 250 1647 
Q 250 2184 428 2587 
Q 606 2991 970 3192 
Q 1334 3394 1763 3394 
Q 2303 3394 2647 3120 
Q 2991 2847 3088 2344 
L 2541 2259 
Q 2463 2594 2264 2762 
Q 2066 2931 1784 2931 
Q 1359 2931 1093 2626 
Q 828 2322 828 1663 
Q 828 994 1084 691 
Q 1341 388 1753 388 
Q 2084 388 2306 591 
Q 2528 794 2588 1216 
z
" transform="scale(0.015625)"/>
       <path id="ArialMT-6e" d="M 422 0 
L 422 3319 
L 928 3319 
L 928 2847 
Q 1294 3394 1984 3394 
Q 2284 3394 2536 3286 
Q 2788 3178 2913 3003 
Q 3038 2828 3088 2588 
Q 3119 2431 3119 2041 
L 3119 0 
L 2556 0 
L 2556 2019 
Q 2556 2363 2490 2533 
Q 2425 2703 2258 2804 
Q 2091 2906 1866 2906 
Q 1506 2906 1245 2678 
Q 984 2450 984 1813 
L 984 0 
L 422 0 
z
" transform="scale(0.015625)"/>
       <path id="ArialMT-74" d="M 1650 503 
L 1731 6 
Q 1494 -44 1306 -44 
Q 1000 -44 831 53 
Q 663 150 594 308 
Q 525 466 525 972 
L 525 2881 
L 113 2881 
L 113 3319 
L 525 3319 
L 525 4141 
L 1084 4478 
L 1084 3319 
L 1650 3319 
L 1650 2881 
L 1084 2881 
L 1084 941 
Q 1084 700 1114 631 
Q 1144 563 1211 522 
Q 1278 481 1403 481 
Q 1497 481 1650 503 
z
" transform="scale(0.015625)"/>
      </defs>
      <use xlink:href="#ArialMT-44"/>
      <use xlink:href="#ArialMT-69" x="72.216797"/>
      <use xlink:href="#ArialMT-73" x="94.433594"/>
      <use xlink:href="#ArialMT-70" x="144.433594"/>
      <use xlink:href="#ArialMT-6c" x="200.048828"/>
      <use xlink:href="#ArialMT-61" x="222.265625"/>
      <use xlink:href="#ArialMT-63" x="277.880859"/>
      <use xlink:href="#ArialMT-65" x="327.880859"/>
      <use xlink:href="#ArialMT-6d" x="383.496094"/>
      <use xlink:href="#ArialMT-65" x="466.796875"/>
      <use xlink:href="#ArialMT-6e" x="522.412109"/>
      <use xlink:href="#ArialMT-74" x="578.027344"/>
      <use xlink:href="#ArialMT-20" x="605.810547"/>
      <use xlink:href="#ArialMT-28" x="633.59375"/>
      <use xlink:href="#ArialMT-63" x="666.894531"/>
      <use xlink:href="#ArialMT-6d" x="716.894531"/>
      <use xlink:href="#ArialMT-29" x="800.195312"/>
     </g>
    </g>
   </g>
   <g id="line2d_27">
    <path d="M 41.046875 127.188355 
L 78.393332 127.106642 
L 83.885458 126.886664 
L 85.533095 126.956326 
L 87.729946 127.555239 
L 88.828371 127.803907 
L 89.377584 127.875249 
L 91.025221 128.705599 
L 91.574434 128.638381 
L 92.123647 129.028411 
L 92.672859 129.638907 
L 93.222072 129.66538 
L 94.86971 127.435941 
L 95.418922 127.186906 
L 95.968135 127.816517 
L 97.615773 132.284576 
L 98.164985 133.133733 
L 98.714198 132.669035 
L 99.26341 130.851972 
L 100.361836 126.048753 
L 100.911048 124.476845 
L 101.460261 123.958356 
L 102.009473 124.996798 
L 102.558686 126.563219 
L 103.107899 127.713401 
L 103.657111 126.7708 
L 105.304749 118.20504 
L 105.853962 116.201068 
L 106.403174 114.731084 
L 107.501599 112.51477 
L 108.050812 110.449157 
L 108.600025 109.126149 
L 109.149237 109.287389 
L 109.69845 110.855667 
L 110.247662 114.701768 
L 111.8953 132.936473 
L 112.444513 137.288173 
L 112.993725 139.885507 
L 113.542938 140.04285 
L 114.092151 138.778959 
L 114.641363 139.021793 
L 115.190576 141.944583 
L 115.739788 145.932121 
L 116.289001 149.001047 
L 116.838214 150.685281 
L 117.387426 151.496775 
L 117.936639 150.581134 
L 119.035064 144.968289 
L 119.584277 144.049333 
L 120.133489 144.252589 
L 120.682702 142.614833 
L 121.231914 136.806757 
L 123.428765 100.708099 
L 123.977977 98.959558 
L 124.52719 102.623559 
L 125.625615 116.717096 
L 126.174828 118.063897 
L 126.72404 113.410373 
L 128.371678 87.843367 
L 128.920891 85.930902 
L 129.470103 92.2664 
L 130.568529 117.795099 
L 131.117741 126.355331 
L 131.666954 129.892666 
L 132.216166 129.784265 
L 132.765379 128.406494 
L 133.314592 129.248837 
L 133.863804 134.75974 
L 135.511442 163.634497 
L 136.060655 166.593925 
L 136.609867 163.558106 
L 137.15908 156.393685 
L 138.257505 140.160231 
L 138.806718 137.054272 
L 139.35593 139.806619 
L 140.454355 153.720678 
L 141.003568 156.957825 
L 141.552781 154.313579 
L 142.101993 146.243928 
L 143.749631 113.369615 
L 144.298844 107.134506 
L 144.848056 105.158798 
L 145.397269 106.351773 
L 145.946481 109.228588 
L 147.594119 120.376202 
L 148.143332 121.163349 
L 148.692544 119.148376 
L 150.340182 108.910915 
L 150.889395 107.036581 
L 151.438607 107.818594 
L 151.98782 112.408258 
L 153.635458 133.695209 
L 154.18467 136.936948 
L 154.733883 137.468718 
L 155.283095 135.146409 
L 156.381521 125.304143 
L 156.930733 120.594313 
L 157.479946 117.020532 
L 158.029158 114.335842 
L 158.578371 112.524072 
L 159.127584 112.511815 
L 159.676796 115.131428 
L 160.226009 119.644684 
L 161.873647 136.984306 
L 162.422859 140.104389 
L 162.972072 139.301866 
L 163.521284 135.627082 
L 164.070497 131.110071 
L 164.61971 128.436968 
L 165.168922 129.031584 
L 165.718135 133.003067 
L 166.81656 145.718643 
L 167.365773 149.441321 
L 167.914985 149.213025 
L 168.464198 145.542848 
L 170.111836 130.802982 
L 170.661048 128.976054 
L 171.210261 129.549127 
L 171.759473 130.846869 
L 172.308686 131.369537 
L 172.857899 131.079401 
L 173.407111 130.138334 
L 174.505536 127.418987 
L 175.603962 125.955605 
L 176.153174 124.549331 
L 176.702387 122.073975 
L 178.350025 111.463492 
L 178.899237 109.158284 
L 179.44845 107.979946 
L 179.997662 107.553039 
L 180.546875 107.894066 
L 181.096088 109.185572 
L 183.292938 116.708835 
L 183.842151 119.118548 
L 184.391363 120.756666 
L 184.940576 121.607788 
L 186.039001 122.453517 
L 186.588214 123.801072 
L 187.137426 126.90753 
L 187.686639 131.574021 
L 188.785064 142.758059 
L 189.334277 147.031543 
L 189.883489 149.570073 
L 190.432702 150.742308 
L 190.981914 150.951599 
L 191.531127 150.552317 
L 192.08034 149.328628 
L 192.629552 146.98406 
L 193.727977 140.13069 
L 195.375615 128.120887 
L 195.924828 125.742841 
L 197.572466 121.600518 
L 198.121678 119.256321 
L 198.670891 115.739432 
L 199.769316 107.459588 
L 200.318529 105.2737 
L 200.867741 105.548687 
L 201.416954 107.89142 
L 203.613804 121.144507 
L 205.261442 128.0659 
L 205.810655 129.682996 
L 206.359867 130.458946 
L 206.90908 130.257161 
L 208.007505 129.088284 
L 208.556718 129.083311 
L 209.10593 130.114314 
L 209.655143 132.302716 
L 210.753568 137.226794 
L 211.302781 138.234719 
L 211.851993 137.432443 
L 212.401206 134.551149 
L 213.499631 126.956362 
L 214.048844 124.709259 
L 214.598056 123.656036 
L 215.147269 123.424613 
L 216.245694 124.276655 
L 216.794906 124.424158 
L 217.344119 125.128235 
L 217.893332 127.340874 
L 220.090182 139.992945 
L 220.639395 141.01985 
L 221.188607 140.791456 
L 221.73782 139.366779 
L 222.287032 137.380226 
L 222.836245 135.885536 
L 223.385458 135.327397 
L 223.93467 135.286366 
L 224.483883 135.121286 
L 225.033095 134.571647 
L 225.582308 133.166455 
L 226.131521 130.327689 
L 227.229946 122.139489 
L 228.877584 109.283745 
L 229.426796 105.837796 
L 229.976009 103.489001 
L 230.525221 102.618089 
L 231.074434 103.281003 
L 231.623647 105.19033 
L 232.722072 111.14295 
L 233.820497 116.672456 
L 234.918922 120.46407 
L 235.468135 122.899691 
L 236.017347 126.42515 
L 237.115773 136.574746 
L 238.214198 146.666235 
L 238.76341 150.263569 
L 239.312623 152.98053 
L 239.861836 155.080194 
L 240.411048 156.582675 
L 240.960261 157.234848 
L 241.509473 156.898331 
L 242.058686 155.459874 
L 242.607899 152.332578 
L 243.157111 147.480608 
L 245.353962 124.52784 
L 245.903174 120.226529 
L 247.550812 109.61286 
L 249.19845 97.392727 
L 249.747662 94.896705 
L 250.296875 94.027128 
L 250.846088 94.807356 
L 251.3953 96.928458 
L 251.944513 99.946142 
L 253.042938 107.919981 
L 254.690576 123.37302 
L 256.338214 139.046721 
L 257.436639 146.691161 
L 257.985851 149.582304 
L 259.084277 153.620507 
L 259.633489 155.235565 
L 260.182702 156.382597 
L 260.731914 156.601736 
L 261.281127 155.661219 
L 261.83034 153.499774 
L 262.379552 150.2534 
L 263.477977 141.15593 
L 266.773253 108.780626 
L 267.322466 105.053025 
L 267.871678 102.386083 
L 268.420891 100.764343 
L 268.970103 99.87604 
L 269.519316 99.523132 
L 270.068529 99.525566 
L 270.617741 99.812641 
L 271.166954 100.595931 
L 271.716166 102.409066 
L 272.265379 105.667 
L 272.814592 110.302824 
L 273.913017 122.812197 
L 275.011442 136.520051 
L 276.109867 147.533986 
L 276.65908 151.902441 
L 277.208292 155.180348 
L 277.757505 157.356178 
L 278.306718 158.547121 
L 278.85593 158.739088 
L 279.405143 157.709117 
L 279.954355 155.361621 
L 281.052781 147.925206 
L 282.151206 138.523835 
L 283.798844 122.07609 
L 285.446481 105.360297 
L 285.995694 101.034233 
L 286.544906 97.858114 
L 287.094119 95.776668 
L 287.643332 94.741057 
L 288.192544 94.894415 
L 288.741757 96.325432 
L 289.290969 98.921568 
L 289.840182 102.48712 
L 290.938607 112.032201 
L 292.586245 128.041186 
L 294.233883 141.877094 
L 295.332308 149.709904 
L 296.430733 155.505679 
L 296.979946 157.089283 
L 297.529158 157.557676 
L 298.078371 157.120176 
L 298.627584 155.874579 
L 299.176796 153.633663 
L 299.726009 150.397812 
L 300.275221 146.313675 
L 301.373647 135.705379 
L 303.021284 119.197576 
L 304.11971 111.27792 
L 305.218135 105.870789 
L 306.31656 101.811583 
L 306.865773 100.26204 
L 307.414985 99.211586 
L 307.964198 99.157551 
L 308.51341 100.314306 
L 309.062623 102.568237 
L 309.611836 105.823087 
L 310.710261 114.400007 
L 314.005536 142.828205 
L 314.554749 145.781031 
L 315.103962 147.937427 
L 315.653174 149.521635 
L 316.202387 150.685193 
L 316.751599 151.472634 
L 317.300812 152.019952 
L 317.850025 152.229124 
L 318.399237 151.873951 
L 318.94845 150.725941 
L 319.497662 148.665434 
L 320.046875 145.660027 
L 321.1453 137.166654 
L 323.891363 113.331134 
L 324.440576 109.596854 
L 324.989788 106.650465 
L 325.539001 104.48251 
L 326.088214 102.952299 
L 326.637426 102.03957 
L 327.186639 101.776932 
L 327.735851 102.102275 
L 328.285064 102.932449 
L 328.834277 104.322575 
L 329.383489 106.272653 
L 329.932702 108.844861 
L 331.031127 115.995089 
L 332.678765 129.721513 
L 333.77719 138.98813 
L 334.875615 146.478209 
L 335.424828 149.391997 
L 335.97404 151.560079 
L 336.523253 153.002222 
L 337.072466 153.778379 
L 337.621678 153.924924 
L 338.170891 153.461335 
L 338.720103 152.429318 
L 339.269316 150.806867 
L 339.818529 148.607224 
L 340.367741 145.876668 
L 340.916954 142.47046 
L 342.015379 133.556398 
L 344.761442 107.700922 
L 345.859867 100.401579 
L 346.40908 98.022228 
L 346.958292 96.535084 
L 347.507505 95.92424 
L 348.056718 96.169981 
L 348.60593 97.267794 
L 349.155143 99.217503 
L 349.704355 102.034266 
L 350.802781 109.822491 
L 351.901206 119.732628 
L 355.196481 151.99905 
L 355.745694 156.09709 
L 356.294906 159.354845 
L 356.844119 161.575878 
L 357.393332 162.604578 
L 357.942544 162.398498 
L 358.491757 160.962025 
L 359.040969 158.379918 
L 359.590182 154.76955 
L 360.688607 145.078716 
L 362.885458 121.419421 
L 364.533095 104.65323 
L 365.631521 96.377709 
L 366.180733 93.563836 
L 366.729946 91.801812 
L 367.279158 91.208816 
L 367.828371 91.790633 
L 368.377584 93.499352 
L 368.926796 96.327352 
L 369.476009 100.214128 
L 370.574434 110.416733 
L 373.320497 139.366297 
L 374.418922 148.834186 
L 375.517347 156.642052 
L 376.06656 159.641515 
L 376.615773 161.78492 
L 377.164985 162.911434 
L 377.714198 162.864957 
L 378.26341 161.583014 
L 378.812623 159.144407 
L 379.361836 155.639491 
L 380.460261 145.937437 
L 382.107899 127.462234 
L 383.755536 109.211736 
L 384.853962 99.644157 
L 385.403174 95.977383 
L 385.952387 93.104146 
L 386.501599 91.103298 
L 387.050812 90.083434 
L 387.600025 90.165964 
L 388.149237 91.415244 
L 388.69845 93.830429 
L 389.247662 97.342292 
L 390.346088 107.303016 
L 391.993725 126.622715 
L 393.641363 146.116041 
L 394.739788 156.364965 
L 395.289001 160.217567 
L 395.838214 163.149781 
L 396.387426 165.097986 
L 396.936639 166.023965 
L 397.485851 165.888439 
L 398.035064 164.66673 
L 398.584277 162.294809 
L 399.133489 158.71749 
L 399.682702 153.99873 
L 400.781127 141.822736 
L 404.076403 100.876481 
L 405.174828 91.357354 
L 405.72404 88.096044 
L 406.273253 86.024875 
L 406.822466 85.222177 
L 407.371678 85.764038 
L 407.920891 87.6999 
L 408.470103 90.939925 
L 409.019316 95.278963 
L 410.117741 106.714135 
L 411.765379 128.04251 
L 413.413017 149.767205 
L 414.511442 161.411468 
L 415.060655 165.643733 
L 415.609867 168.621284 
L 416.15908 170.31271 
L 416.708292 170.667794 
L 417.257505 169.677486 
L 417.806718 167.447096 
L 418.35593 164.048292 
L 418.905143 159.446914 
L 420.003568 147.087416 
L 423.848056 96.779534 
L 424.946481 87.645538 
L 425.495694 84.695633 
L 426.044906 83.018787 
L 426.594119 82.71719 
L 427.143332 83.818792 
L 427.692544 86.344486 
L 428.241757 90.271252 
L 429.340182 101.650892 
L 430.98782 123.944396 
L 432.635458 146.393204 
L 433.733883 158.536019 
L 434.283095 163.301211 
L 434.832308 167.021933 
L 435.381521 169.553439 
L 435.930733 170.818579 
L 436.479946 170.769979 
L 437.029158 169.359792 
L 437.578371 166.619367 
L 438.127584 162.656448 
L 439.226009 151.540252 
L 440.324434 137.365707 
L 442.521284 107.358324 
L 443.61971 95.487716 
L 444.168922 90.971696 
L 444.718135 87.455902 
L 445.267347 85.047153 
L 445.81656 83.85361 
L 446.365773 83.936331 
L 446.914985 85.338159 
L 447.464198 88.069722 
L 448.01341 92.112723 
L 449.111836 103.683369 
L 450.759473 126.051793 
L 452.407111 148.419732 
L 453.505536 160.363878 
L 454.054749 164.919857 
L 454.603962 168.307684 
L 455.153174 170.433102 
L 455.702387 171.220163 
L 456.251599 170.63171 
L 456.800812 168.665036 
L 457.350025 165.387345 
L 457.899237 160.926214 
L 458.997662 148.90372 
L 460.6453 126.225902 
L 462.292938 103.948765 
L 463.391363 92.682627 
L 463.940576 88.621386 
L 464.489788 85.740006 
L 465.039001 84.105385 
L 465.588214 83.782773 
L 466.137426 84.79605 
L 466.686639 87.126183 
L 467.235851 90.742799 
L 467.785064 95.557327 
L 468.883489 108.03048 
L 472.178765 150.877493 
L 473.27719 161.175161 
L 473.826403 164.865989 
L 474.375615 167.421102 
L 474.924828 168.749353 
L 475.47404 168.798794 
L 476.023253 167.557966 
L 476.572466 165.05764 
L 477.121678 161.365754 
L 478.220103 150.884934 
L 479.867741 130.363598 
L 481.515379 109.557983 
L 482.613804 98.298909 
L 483.163017 93.919153 
L 483.712229 90.522653 
L 484.261442 88.211285 
L 484.810655 87.07577 
L 485.359867 87.174622 
L 485.90908 88.527075 
L 486.458292 91.111052 
L 487.007505 94.859434 
L 488.10593 105.33089 
L 489.753568 125.450749 
L 490.302781 132.43534 
L 490.302781 132.43534 
" clip-path="url(#p6eefe8d611)" style="fill: none; stroke: #000000; stroke-width: 1.2; stroke-linecap: square"/>
   </g>
   <g id="line2d_28">
    <path d="M 41.046875 127.188355 
L 55.875615 127.293942 
L 66.310655 127.552427 
L 70.155143 127.454451 
L 73.999631 127.27371 
L 75.647269 127.429 
L 78.942544 127.802021 
L 80.040969 127.572652 
L 82.787032 126.840273 
L 85.533095 126.664502 
L 87.180733 126.911959 
L 87.729946 127.246868 
L 89.377584 128.601986 
L 91.025221 129.918486 
L 92.123647 129.970521 
L 92.672859 130.460984 
L 93.222072 130.717803 
L 93.771284 130.276668 
L 94.320497 129.608867 
L 94.86971 129.197124 
L 95.418922 128.99837 
L 95.968135 129.25485 
L 96.517347 130.272813 
L 97.615773 132.837673 
L 98.164985 133.920682 
L 98.714198 134.442561 
L 99.26341 133.877615 
L 100.911048 129.690309 
L 101.460261 129.245189 
L 102.009473 129.603686 
L 103.107899 131.872185 
L 103.657111 132.408624 
L 104.206324 131.257793 
L 105.304749 127.507028 
L 106.403174 123.720618 
L 108.600025 116.542526 
L 109.149237 116.963068 
L 109.69845 119.079001 
L 110.247662 122.589857 
L 111.8953 136.952164 
L 112.444513 139.794411 
L 112.993725 141.789498 
L 113.542938 142.788692 
L 114.092151 142.665305 
L 114.641363 142.946212 
L 115.190576 145.15391 
L 116.289001 151.616597 
L 116.838214 153.422004 
L 117.387426 154.839787 
L 117.936639 155.718846 
L 118.485851 154.748848 
L 119.584277 150.336236 
L 120.133489 149.121118 
L 120.682702 146.543357 
L 121.231914 140.303566 
L 122.879552 110.948977 
L 123.428765 104.23165 
L 123.977977 101.074847 
L 124.52719 102.174853 
L 125.625615 111.930693 
L 126.174828 114.027305 
L 126.72404 111.395079 
L 128.371678 92.277604 
L 128.920891 88.873047 
L 129.470103 90.555373 
L 130.019316 98.11923 
L 131.117741 118.470276 
L 131.666954 125.375782 
L 132.216166 129.679636 
L 133.863804 137.471237 
L 135.511442 152.201808 
L 136.060655 154.135157 
L 136.609867 153.670893 
L 137.15908 151.358211 
L 138.806718 140.576686 
L 139.35593 139.335223 
L 139.905143 140.152364 
L 140.454355 142.001126 
L 141.003568 143.048017 
L 141.552781 141.61308 
L 142.101993 137.000222 
L 142.651206 129.478572 
L 143.749631 108.430753 
L 144.298844 97.856143 
L 144.848056 90.211513 
L 145.397269 86.270708 
L 145.946481 85.845978 
L 146.495694 88.757071 
L 147.044906 94.824998 
L 147.594119 102.427421 
L 148.143332 108.284463 
L 148.692544 109.716251 
L 149.241757 106.367315 
L 150.889395 86.234217 
L 151.438607 83.753796 
L 151.98782 86.759466 
L 152.537032 94.762277 
L 153.635458 114.179788 
L 154.18467 119.66803 
L 154.733883 121.167107 
L 155.283095 118.91991 
L 155.832308 113.62399 
L 156.930733 100.466391 
L 157.479946 96.11687 
L 158.029158 93.875739 
L 158.578371 93.114056 
L 159.127584 93.625237 
L 159.676796 95.668029 
L 161.324434 105.967762 
L 161.873647 109.274534 
L 162.422859 111.223171 
L 162.972072 110.696716 
L 163.521284 108.013619 
L 164.070497 104.509549 
L 164.61971 101.798394 
L 165.168922 101.242 
L 165.718135 103.222797 
L 166.267347 107.576093 
L 167.365773 117.860038 
L 167.914985 120.3325 
L 168.464198 120.036965 
L 169.01341 117.609549 
L 169.562623 113.547945 
L 170.661048 103.148034 
L 171.210261 99.329827 
L 171.759473 96.942771 
L 172.308686 95.454662 
L 172.857899 94.97078 
L 173.407111 95.542145 
L 173.956324 96.350893 
L 174.505536 96.486532 
L 175.054749 95.670882 
L 175.603962 93.782099 
L 176.153174 90.751285 
L 177.251599 83.396425 
L 177.800812 80.533295 
L 178.350025 78.85233 
L 178.899237 78.370971 
L 179.997662 79.019937 
L 181.096088 78.575003 
L 181.6453 78.720408 
L 182.194513 79.074601 
L 182.743725 79.745593 
L 183.292938 81.444751 
L 184.391363 86.024041 
L 184.940576 87.279586 
L 186.039001 88.369918 
L 186.588214 89.376404 
L 187.137426 91.771517 
L 187.686639 95.829891 
L 189.334277 111.943509 
L 189.883489 115.4753 
L 190.432702 117.113423 
L 190.981914 116.978883 
L 191.531127 115.484155 
L 192.08034 112.960048 
L 193.178765 105.322307 
L 194.27719 97.97474 
L 195.375615 92.628333 
L 195.924828 90.838093 
L 196.47404 89.467369 
L 197.023253 87.766268 
L 197.572466 85.232361 
L 198.670891 78.21229 
L 199.769316 69.926104 
L 200.318529 67.015444 
L 200.867741 65.875671 
L 201.416954 66.588999 
L 201.966166 68.731896 
L 203.064592 75.472952 
L 204.712229 86.653324 
L 205.261442 89.740581 
L 205.810655 91.810393 
L 206.359867 92.638588 
L 206.90908 92.286698 
L 208.007505 90.591483 
L 208.556718 90.64526 
L 209.10593 91.847676 
L 210.753568 98.76807 
L 211.302781 99.502431 
L 211.851993 98.653159 
L 212.401206 96.112901 
L 214.048844 85.264801 
L 214.598056 83.235934 
L 215.147269 82.031773 
L 215.696481 81.672813 
L 216.245694 82.030005 
L 216.794906 82.575552 
L 217.344119 83.33946 
L 217.893332 85.042843 
L 219.540969 92.705999 
L 220.090182 94.145527 
L 220.639395 94.502886 
L 221.188607 93.95213 
L 222.836245 90.251875 
L 223.385458 89.825287 
L 224.483883 89.863416 
L 225.033095 89.642172 
L 225.582308 89.166284 
L 226.131521 87.905376 
L 226.680733 85.499071 
L 227.229946 82.156577 
L 228.328371 73.413635 
L 229.426796 64.448501 
L 229.976009 61.223063 
L 230.525221 59.484603 
L 231.074434 59.493134 
L 231.623647 61.150509 
L 232.722072 67.491669 
L 233.820497 73.913822 
L 235.468135 80.651049 
L 236.017347 83.854404 
L 237.115773 93.382854 
L 238.214198 104.046491 
L 238.76341 108.324808 
L 239.312623 111.637479 
L 239.861836 114.110819 
L 240.411048 115.72738 
L 240.960261 116.291304 
L 241.509473 115.712237 
L 242.058686 114.144373 
L 242.607899 111.414481 
L 243.157111 107.328691 
L 245.903174 83.185255 
L 249.19845 60.193173 
L 249.747662 57.417674 
L 250.296875 55.832369 
L 250.846088 55.690502 
L 251.3953 56.9445 
L 251.944513 59.425801 
L 252.493725 63.066947 
L 253.592151 73.47174 
L 255.789001 97.068111 
L 256.887426 105.62186 
L 257.985851 112.321971 
L 259.084277 117.243432 
L 259.633489 118.987574 
L 260.182702 120.146456 
L 260.731914 120.310055 
L 261.281127 119.248408 
L 261.83034 116.992926 
L 262.379552 113.675425 
L 263.477977 104.593882 
L 267.322466 67.848824 
L 267.871678 64.852745 
L 268.420891 63.015501 
L 268.970103 62.069437 
L 269.519316 61.659818 
L 270.068529 61.6031 
L 270.617741 61.82606 
L 271.166954 62.463711 
L 271.716166 63.907009 
L 272.265379 66.614773 
L 272.814592 70.701964 
L 273.913017 82.281307 
L 275.560655 102.601039 
L 276.65908 113.002404 
L 277.208292 116.696117 
L 277.757505 119.07805 
L 278.306718 120.270523 
L 278.85593 120.481685 
L 279.405143 119.716373 
L 279.954355 117.881666 
L 280.503568 115.11126 
L 281.601993 107.781116 
L 282.700418 98.019476 
L 285.995694 63.588591 
L 286.544906 59.758171 
L 287.094119 57.057659 
L 287.643332 55.441483 
L 288.192544 55.009711 
L 288.741757 55.953713 
L 289.290969 58.302592 
L 289.840182 61.866574 
L 290.938607 71.583853 
L 293.135458 93.194081 
L 294.783095 106.971043 
L 295.881521 114.388215 
L 296.430733 117.195133 
L 296.979946 119.12761 
L 297.529158 119.95685 
L 298.078371 119.720831 
L 298.627584 118.537473 
L 299.176796 116.303419 
L 299.726009 112.940249 
L 300.824434 103.606404 
L 303.021284 81.233448 
L 304.11971 72.676418 
L 305.218135 66.803778 
L 306.31656 62.600682 
L 306.865773 61.162344 
L 307.414985 60.180354 
L 307.964198 59.928537 
L 308.51341 60.722019 
L 309.062623 62.601121 
L 309.611836 65.51996 
L 310.710261 74.140608 
L 314.005536 104.357094 
L 314.554749 107.392261 
L 315.103962 109.609998 
L 315.653174 111.203146 
L 316.202387 112.383737 
L 316.751599 113.212804 
L 317.300812 113.73337 
L 317.850025 113.897804 
L 318.399237 113.483056 
L 318.94845 112.267709 
L 319.497662 110.147837 
L 320.046875 107.157534 
L 321.1453 98.87279 
L 323.891363 74.684099 
L 324.440576 71.002024 
L 324.989788 68.075223 
L 325.539001 65.984727 
L 326.088214 64.597479 
L 326.637426 63.786641 
L 327.186639 63.523837 
L 327.735851 63.800513 
L 328.285064 64.546109 
L 328.834277 65.772373 
L 329.383489 67.561315 
L 329.932702 69.989614 
L 330.481914 73.166071 
L 331.58034 81.54322 
L 334.326403 105.467638 
L 335.424828 112.039483 
L 335.97404 114.251713 
L 336.523253 115.660385 
L 337.072466 116.319058 
L 337.621678 116.300105 
L 338.170891 115.652222 
L 338.720103 114.425003 
L 339.269316 112.662553 
L 339.818529 110.374956 
L 340.916954 104.32337 
L 342.015379 95.911372 
L 345.310655 66.63892 
L 345.859867 63.326226 
L 346.40908 60.870319 
L 346.958292 59.301351 
L 347.507505 58.61102 
L 348.056718 58.773268 
L 348.60593 59.756883 
L 349.155143 61.533632 
L 349.704355 64.091429 
L 350.802781 71.303724 
L 351.901206 80.877999 
L 355.745694 117.99202 
L 356.294906 121.402821 
L 356.844119 123.813316 
L 357.393332 125.066597 
L 357.942544 125.066697 
L 358.491757 123.793281 
L 359.040969 121.315616 
L 359.590182 117.777932 
L 360.688607 108.228076 
L 362.336245 90.840738 
L 364.533095 67.596641 
L 365.631521 58.507444 
L 366.180733 55.222336 
L 366.729946 52.951341 
L 367.279158 51.873498 
L 367.828371 52.080318 
L 368.377584 53.540442 
L 368.926796 56.199813 
L 369.476009 59.993255 
L 370.574434 70.236056 
L 373.86971 105.589781 
L 374.968135 114.706311 
L 376.06656 121.509836 
L 376.615773 123.670129 
L 377.164985 124.814976 
L 377.714198 124.842811 
L 378.26341 123.664567 
L 378.812623 121.292871 
L 379.361836 117.819378 
L 380.460261 108.045753 
L 382.107899 89.501751 
L 383.755536 71.545871 
L 384.853962 61.954511 
L 385.952387 55.116366 
L 386.501599 52.900246 
L 387.050812 51.651112 
L 387.600025 51.508794 
L 388.149237 52.557682 
L 388.69845 54.814931 
L 389.247662 58.224521 
L 389.796875 62.7026 
L 390.8953 74.2065 
L 394.190576 113.917691 
L 395.289001 123.075489 
L 395.838214 126.206287 
L 396.387426 128.295278 
L 396.936639 129.301399 
L 397.485851 129.202775 
L 398.035064 127.99869 
L 398.584277 125.68749 
L 399.133489 122.241252 
L 399.682702 117.691908 
L 400.781127 105.822558 
L 404.076403 64.12915 
L 405.174828 54.242857 
L 405.72404 50.759423 
L 406.273253 48.473058 
L 406.822466 47.436821 
L 407.371678 47.705432 
L 407.920891 49.342549 
L 408.470103 52.33338 
L 409.019316 56.511264 
L 410.117741 67.771182 
L 411.765379 89.47511 
L 413.413017 111.963864 
L 414.511442 124.413038 
L 415.060655 129.142651 
L 415.609867 132.592908 
L 416.15908 134.675858 
L 416.708292 135.348258 
L 417.257505 134.565372 
L 417.806718 132.3873 
L 418.35593 128.958918 
L 418.905143 124.36565 
L 420.003568 112.06509 
L 421.651206 89.236119 
L 423.298844 66.559481 
L 424.397269 54.490005 
L 424.946481 50.002945 
L 425.495694 46.724068 
L 426.044906 44.765021 
L 426.594119 44.213419 
L 427.143332 45.084655 
L 427.692544 47.356742 
L 428.241757 51.011705 
L 428.790969 55.968762 
L 429.889395 69.009062 
L 433.733883 121.258469 
L 434.283095 126.435057 
L 434.832308 130.542619 
L 435.381521 133.44418 
L 435.930733 135.036072 
L 436.479946 135.27345 
L 437.029158 134.10829 
L 437.578371 131.523758 
L 438.127584 127.602359 
L 439.226009 116.323938 
L 440.324434 101.773502 
L 442.521284 70.78813 
L 443.61971 58.2168 
L 444.168922 53.362443 
L 444.718135 49.592876 
L 445.267347 46.983332 
L 445.81656 45.642422 
L 446.365773 45.632805 
L 446.914985 46.964145 
L 447.464198 49.615104 
L 448.01341 53.53659 
L 449.111836 64.785811 
L 450.210261 79.317437 
L 452.956324 117.288274 
L 454.054749 128.184134 
L 454.603962 131.937705 
L 455.153174 134.397951 
L 455.702387 135.510005 
L 456.251599 135.230532 
L 456.800812 133.544753 
L 457.350025 130.495634 
L 457.899237 126.195019 
L 458.997662 114.319314 
L 460.6453 91.191372 
L 462.292938 67.857769 
L 463.391363 55.622167 
L 463.940576 51.087139 
L 464.489788 47.791299 
L 465.039001 45.820301 
L 465.588214 45.232143 
L 466.137426 46.056829 
L 466.686639 48.263831 
L 467.235851 51.788955 
L 467.785064 56.532974 
L 468.883489 69.00349 
L 471.08034 99.637065 
L 472.178765 113.894455 
L 473.27719 125.118454 
L 473.826403 129.181942 
L 474.375615 132.048846 
L 474.924828 133.635158 
L 475.47404 133.896415 
L 476.023253 132.818865 
L 476.572466 130.428103 
L 477.121678 126.793306 
L 477.670891 122.023729 
L 478.769316 109.718437 
L 482.064592 67.020108 
L 483.163017 56.648073 
L 483.712229 52.91666 
L 484.261442 50.308218 
L 484.810655 48.914022 
L 485.359867 48.797364 
L 485.90908 49.982641 
L 486.458292 52.445782 
L 487.007505 56.112884 
L 488.10593 66.537671 
L 489.753568 87.032302 
L 490.302781 94.26211 
L 490.302781 94.26211 
" clip-path="url(#p6eefe8d611)" style="fill: none; stroke-dasharray: 7.68,1.92,1.2,1.92; stroke-dashoffset: 0; stroke: #ff0000; stroke-width: 1.2"/>
   </g>
   <g id="line2d_29">
    <path d="M 41.046875 127.188355 
L 55.875615 127.293942 
L 66.310655 127.552427 
L 70.155143 127.454451 
L 73.999631 127.27371 
L 75.647269 127.429 
L 78.942544 127.802021 
L 80.040969 127.572652 
L 82.787032 126.840273 
L 85.533095 126.664502 
L 87.180733 126.911959 
L 87.729946 127.246868 
L 89.377584 128.601986 
L 91.025221 129.918486 
L 92.123647 129.970521 
L 92.672859 130.460984 
L 93.222072 130.717803 
L 93.771284 130.276668 
L 94.320497 129.608867 
L 94.86971 129.197124 
L 95.418922 128.99837 
L 95.968135 129.25485 
L 96.517347 130.272813 
L 97.615773 132.837673 
L 98.164985 133.920682 
L 98.714198 134.442561 
L 99.26341 133.877615 
L 100.911048 129.690309 
L 101.460261 129.245189 
L 102.009473 129.603686 
L 103.107899 131.872185 
L 103.657111 132.408624 
L 104.206324 131.257793 
L 105.304749 127.507028 
L 106.403174 123.720618 
L 108.600025 116.542526 
L 109.149237 116.963068 
L 109.69845 119.079001 
L 110.247662 122.589857 
L 111.8953 136.952164 
L 112.444513 139.794411 
L 112.993725 141.789498 
L 113.542938 142.788692 
L 114.092151 142.665305 
L 114.641363 142.946212 
L 115.190576 145.15391 
L 116.289001 151.616597 
L 116.838214 153.422004 
L 117.387426 154.839787 
L 117.936639 155.718846 
L 118.485851 154.748848 
L 119.584277 150.336236 
L 120.133489 149.121118 
L 120.682702 146.543357 
L 121.231914 140.303566 
L 122.879552 110.948977 
L 123.428765 104.23165 
L 123.977977 101.074847 
L 124.52719 102.174853 
L 125.625615 111.930693 
L 126.174828 114.027305 
L 126.72404 111.395079 
L 128.371678 92.277604 
L 128.920891 88.873047 
L 129.470103 90.555373 
L 130.019316 98.11923 
L 131.117741 118.470276 
L 131.666954 125.375782 
L 132.216166 129.679636 
L 133.863804 137.471237 
L 135.511442 152.201808 
L 136.060655 154.135157 
L 136.609867 153.670893 
L 137.15908 151.358211 
L 138.806718 140.576686 
L 139.35593 139.335223 
L 139.905143 140.152364 
L 140.454355 142.001126 
L 141.003568 143.048017 
L 141.552781 141.61308 
L 142.101993 137.000222 
L 142.651206 129.478572 
L 143.749631 108.430753 
L 144.298844 97.856143 
L 144.848056 90.211513 
L 145.397269 86.270708 
L 145.946481 85.845978 
L 146.495694 88.757071 
L 147.044906 94.824998 
L 147.594119 102.427421 
L 148.143332 108.284463 
L 148.692544 109.716251 
L 149.241757 106.367315 
L 150.889395 86.234217 
L 151.438607 83.753796 
L 151.98782 86.759466 
L 152.537032 94.762277 
L 153.635458 114.179788 
L 154.18467 119.66803 
L 154.733883 121.167107 
L 155.283095 118.91991 
L 155.832308 113.62399 
L 156.930733 100.466391 
L 157.479946 96.11687 
L 158.029158 93.875739 
L 158.578371 93.114056 
L 159.127584 93.625237 
L 159.676796 95.668029 
L 161.324434 105.967762 
L 161.873647 109.274534 
L 162.422859 111.223171 
L 162.972072 110.696716 
L 163.521284 108.013619 
L 164.070497 104.509549 
L 164.61971 101.798394 
L 165.168922 101.242 
L 165.718135 103.222797 
L 166.267347 107.576093 
L 167.365773 117.860038 
L 167.914985 120.3325 
L 168.464198 120.036965 
L 169.01341 117.609549 
L 169.562623 113.547945 
L 170.661048 103.148034 
L 171.210261 99.329827 
L 171.759473 96.942771 
L 172.308686 95.454662 
L 172.857899 94.97078 
L 173.407111 95.542145 
L 173.956324 96.350893 
L 174.505536 96.486532 
L 175.054749 95.670882 
L 175.603962 93.782099 
L 176.153174 90.751285 
L 177.251599 83.396425 
L 177.800812 80.533295 
L 178.350025 78.85233 
L 178.899237 78.370971 
L 179.997662 79.019937 
L 181.096088 78.575003 
L 181.6453 78.720408 
L 182.194513 79.074601 
L 182.743725 79.745593 
L 183.292938 81.444751 
L 184.391363 86.024041 
L 184.940576 87.279586 
L 186.039001 88.369918 
L 186.588214 89.376404 
L 187.137426 91.771517 
L 187.686639 95.829891 
L 189.334277 111.943509 
L 189.883489 115.4753 
L 190.432702 117.113423 
L 190.981914 116.978883 
L 191.531127 115.484155 
L 192.08034 112.960048 
L 193.178765 105.322307 
L 194.27719 97.97474 
L 195.375615 92.628333 
L 195.924828 90.838093 
L 196.47404 89.467369 
L 197.023253 87.766268 
L 197.572466 85.232361 
L 198.670891 78.21229 
L 199.769316 69.926104 
L 200.318529 67.015444 
L 200.867741 65.875671 
L 201.416954 66.588999 
L 201.966166 68.731896 
L 203.064592 75.472952 
L 204.712229 86.653324 
L 205.261442 89.740581 
L 205.810655 91.810393 
L 206.359867 92.638588 
L 206.90908 92.286698 
L 208.007505 90.591483 
L 208.556718 90.64526 
L 209.10593 91.847676 
L 210.753568 98.76807 
L 211.302781 99.502431 
L 211.851993 98.653159 
L 212.401206 96.112901 
L 214.048844 85.264801 
L 214.598056 83.235934 
L 215.147269 82.031773 
L 215.696481 81.672813 
L 216.245694 82.030005 
L 216.794906 82.575552 
L 217.344119 83.33946 
L 217.893332 85.042843 
L 219.540969 92.705999 
L 220.090182 94.145527 
L 220.639395 94.502886 
L 221.188607 93.95213 
L 222.836245 90.251875 
L 223.385458 89.825287 
L 224.483883 89.863416 
L 225.033095 89.642172 
L 225.582308 89.166284 
L 226.131521 87.905376 
L 226.680733 85.499071 
L 227.229946 82.156577 
L 228.328371 73.413635 
L 229.426796 64.448501 
L 229.976009 61.223063 
L 230.525221 59.484603 
L 231.074434 59.493134 
L 231.623647 61.150509 
L 232.722072 67.491669 
L 233.820497 73.913822 
L 235.468135 80.651049 
L 236.017347 83.854404 
L 237.115773 93.382854 
L 238.214198 104.046491 
L 238.76341 108.324808 
L 239.312623 111.637479 
L 239.861836 114.110819 
L 240.411048 115.72738 
L 240.960261 116.291304 
L 241.509473 115.712237 
L 242.058686 114.144373 
L 242.607899 111.414481 
L 243.157111 107.328691 
L 245.903174 83.185255 
L 249.19845 60.193173 
L 249.747662 57.417674 
L 250.296875 55.832369 
L 250.846088 55.690502 
L 251.3953 56.9445 
L 251.944513 59.425801 
L 252.493725 63.066947 
L 253.592151 73.47174 
L 255.789001 97.068111 
L 256.887426 105.62186 
L 257.985851 112.321971 
L 259.084277 117.243432 
L 259.633489 118.987574 
L 260.182702 120.146456 
L 260.731914 120.310055 
L 261.281127 119.248408 
L 261.83034 116.992926 
L 262.379552 113.675425 
L 263.477977 104.593882 
L 267.322466 67.848824 
L 267.871678 64.852745 
L 268.420891 63.015501 
L 268.970103 62.069437 
L 269.519316 61.659818 
L 270.068529 61.6031 
L 270.617741 61.82606 
L 271.166954 62.463711 
L 271.716166 63.907009 
L 272.265379 66.614773 
L 272.814592 70.701964 
L 273.913017 82.281307 
L 275.560655 102.601039 
L 276.65908 113.002404 
L 277.208292 116.696117 
L 277.757505 119.07805 
L 278.306718 120.270523 
L 278.85593 120.481685 
L 279.405143 119.716373 
L 279.954355 117.881666 
L 280.503568 115.11126 
L 281.601993 107.781116 
L 282.700418 98.019476 
L 285.995694 63.588591 
L 286.544906 59.758171 
L 287.094119 57.057659 
L 287.643332 55.441483 
L 288.192544 55.009711 
L 288.741757 55.953713 
L 289.290969 58.302592 
L 289.840182 61.866574 
L 290.938607 71.583853 
L 293.135458 93.194081 
L 294.783095 106.971043 
L 295.881521 114.388215 
L 296.430733 117.195133 
L 296.979946 119.12761 
L 297.529158 119.95685 
L 298.078371 119.720831 
L 298.627584 118.537473 
L 299.176796 116.303419 
L 299.726009 112.940249 
L 300.824434 103.606404 
L 303.021284 81.233448 
L 304.11971 72.676418 
L 305.218135 66.803778 
L 306.31656 62.600682 
L 306.865773 61.162344 
L 307.414985 60.180354 
L 307.964198 59.928537 
L 308.51341 60.722019 
L 309.062623 62.601121 
L 309.611836 65.51996 
L 310.710261 74.140608 
L 314.005536 104.357094 
L 314.554749 107.392261 
L 315.103962 109.609998 
L 315.653174 111.203146 
L 316.202387 112.383737 
L 316.751599 113.212804 
L 317.300812 113.73337 
L 317.850025 113.897804 
L 318.399237 113.483056 
L 318.94845 112.267709 
L 319.497662 110.147837 
L 320.046875 107.157534 
L 321.1453 98.87279 
L 323.891363 74.684099 
L 324.440576 71.002024 
L 324.989788 68.075223 
L 325.539001 65.984727 
L 326.088214 64.597479 
L 326.637426 63.786641 
L 327.186639 63.523837 
L 327.735851 63.800513 
L 328.285064 64.546109 
L 328.834277 65.772373 
L 329.383489 67.561315 
L 329.932702 69.989614 
L 330.481914 73.166071 
L 331.58034 81.54322 
L 334.326403 105.467638 
L 335.424828 112.039483 
L 335.97404 114.251713 
L 336.523253 115.660385 
L 337.072466 116.319058 
L 337.621678 116.300105 
L 338.170891 115.652222 
L 338.720103 114.425003 
L 339.269316 112.662553 
L 339.818529 110.374956 
L 340.916954 104.32337 
L 342.015379 95.911372 
L 345.310655 66.63892 
L 345.859867 63.326226 
L 346.40908 60.870319 
L 346.958292 59.301351 
L 347.507505 58.61102 
L 348.056718 58.773268 
L 348.60593 59.756883 
L 349.155143 61.533632 
L 349.704355 64.091429 
L 350.802781 71.303724 
L 351.901206 80.877999 
L 355.745694 117.99202 
L 356.294906 121.402821 
L 356.844119 123.813316 
L 357.393332 125.066597 
L 357.942544 125.066697 
L 358.491757 123.793281 
L 359.040969 121.315616 
L 359.590182 117.777932 
L 360.688607 108.228076 
L 362.336245 90.840738 
L 364.533095 67.596641 
L 365.631521 58.507444 
L 366.180733 55.222336 
L 366.729946 52.951341 
L 367.279158 51.873498 
L 367.828371 52.080318 
L 368.377584 53.540442 
L 368.926796 56.199813 
L 369.476009 59.993255 
L 370.574434 70.236056 
L 373.86971 105.589781 
L 374.968135 114.706311 
L 376.06656 121.509836 
L 376.615773 123.670129 
L 377.164985 124.814976 
L 377.714198 124.842811 
L 378.26341 123.664567 
L 378.812623 121.292871 
L 379.361836 117.819378 
L 380.460261 108.045753 
L 382.107899 89.501751 
L 383.755536 71.545871 
L 384.853962 61.954511 
L 385.952387 55.116366 
L 386.501599 52.900246 
L 387.050812 51.651112 
L 387.600025 51.508794 
L 388.149237 52.557682 
L 388.69845 54.814931 
L 389.247662 58.224521 
L 389.796875 62.7026 
L 390.8953 74.2065 
L 394.190576 113.917691 
L 395.289001 123.075489 
L 395.838214 126.206287 
L 396.387426 128.295278 
L 396.936639 129.301399 
L 397.485851 129.202775 
L 398.035064 127.99869 
L 398.584277 125.68749 
L 399.133489 122.241252 
L 399.682702 117.691908 
L 400.781127 105.822558 
L 404.076403 64.12915 
L 405.174828 54.242857 
L 405.72404 50.759423 
L 406.273253 48.473058 
L 406.822466 47.436821 
L 407.371678 47.705432 
L 407.920891 49.342549 
L 408.470103 52.33338 
L 409.019316 56.511264 
L 410.117741 67.771182 
L 411.765379 89.47511 
L 413.413017 111.963864 
L 414.511442 124.413038 
L 415.060655 129.142651 
L 415.609867 132.592908 
L 416.15908 134.675858 
L 416.708292 135.348258 
L 417.257505 134.565372 
L 417.806718 132.3873 
L 418.35593 128.958918 
L 418.905143 124.36565 
L 420.003568 112.06509 
L 421.651206 89.236119 
L 423.298844 66.559481 
L 424.397269 54.490005 
L 424.946481 50.002945 
L 425.495694 46.724068 
L 426.044906 44.765021 
L 426.594119 44.213419 
L 427.143332 45.084655 
L 427.692544 47.356742 
L 428.241757 51.011705 
L 428.790969 55.968762 
L 429.889395 69.009062 
L 433.733883 121.258469 
L 434.283095 126.435057 
L 434.832308 130.542619 
L 435.381521 133.44418 
L 435.930733 135.036072 
L 436.479946 135.27345 
L 437.029158 134.10829 
L 437.578371 131.523758 
L 438.127584 127.602359 
L 439.226009 116.323938 
L 440.324434 101.773502 
L 442.521284 70.78813 
L 443.61971 58.2168 
L 444.168922 53.362443 
L 444.718135 49.592876 
L 445.267347 46.983332 
L 445.81656 45.642422 
L 446.365773 45.632805 
L 446.914985 46.964145 
L 447.464198 49.615104 
L 448.01341 53.53659 
L 449.111836 64.785811 
L 450.210261 79.317437 
L 452.956324 117.288274 
L 454.054749 128.184134 
L 454.603962 131.937705 
L 455.153174 134.397951 
L 455.702387 135.510005 
L 456.251599 135.230532 
L 456.800812 133.544753 
L 457.350025 130.495634 
L 457.899237 126.195019 
L 458.997662 114.319314 
L 460.6453 91.191372 
L 462.292938 67.857769 
L 463.391363 55.622167 
L 463.940576 51.087139 
L 464.489788 47.791299 
L 465.039001 45.820301 
L 465.588214 45.232143 
L 466.137426 46.056829 
L 466.686639 48.263831 
L 467.235851 51.788955 
L 467.785064 56.532974 
L 468.883489 69.00349 
L 471.08034 99.637065 
L 472.178765 113.894455 
L 473.27719 125.118454 
L 473.826403 129.181942 
L 474.375615 132.048846 
L 474.924828 133.635158 
L 475.47404 133.896415 
L 476.023253 132.818865 
L 476.572466 130.428103 
L 477.121678 126.793306 
L 477.670891 122.023729 
L 478.769316 109.718437 
L 482.064592 67.020108 
L 483.163017 56.648073 
L 483.712229 52.91666 
L 484.261442 50.308218 
L 484.810655 48.914022 
L 485.359867 48.797364 
L 485.90908 49.982641 
L 486.458292 52.445782 
L 487.007505 56.112884 
L 488.10593 66.537671 
L 489.753568 87.032302 
L 490.302781 94.26211 
L 490.302781 94.26211 
" clip-path="url(#p6eefe8d611)" style="fill: none; stroke-dasharray: 4.44,1.92; stroke-dashoffset: 0; stroke: #0000ff; stroke-width: 1.2"/>
   </g>
   <g id="line2d_30">
    <path d="M 41.046875 127.188355 
L 56.424828 127.296424 
L 64.663017 127.500258 
L 69.60593 127.393836 
L 74.548844 127.291934 
L 76.196481 127.745881 
L 76.745694 127.7232 
L 77.294906 127.896091 
L 77.844119 127.89764 
L 79.491757 127.538733 
L 80.590182 126.933839 
L 81.688607 126.988453 
L 83.336245 126.755869 
L 84.43467 126.849638 
L 85.533095 126.627592 
L 86.082308 126.305406 
L 86.631521 126.504226 
L 87.729946 127.478681 
L 88.279158 128.385713 
L 88.828371 129.614775 
L 89.377584 129.430919 
L 89.926796 128.602327 
L 90.476009 128.873721 
L 91.025221 129.859411 
L 91.574434 131.218212 
L 92.123647 130.193506 
L 92.672859 128.264273 
L 93.222072 129.907427 
L 93.771284 132.747969 
L 94.320497 131.707069 
L 94.86971 129.111009 
L 95.418922 127.355527 
L 95.968135 126.171749 
L 96.517347 128.478347 
L 97.06656 133.806384 
L 97.615773 135.903877 
L 98.164985 133.490172 
L 98.714198 132.979365 
L 99.26341 137.33712 
L 99.812623 137.519279 
L 100.361836 133.035939 
L 100.911048 126.883207 
L 101.460261 125.778271 
L 102.009473 128.205174 
L 102.558686 131.832933 
L 103.107899 133.202547 
L 103.657111 133.30508 
L 104.206324 135.379422 
L 104.755536 132.807325 
L 105.304749 126.5512 
L 105.853962 123.910937 
L 106.403174 123.980689 
L 106.952387 120.957173 
L 107.501599 118.99883 
L 108.050812 119.058195 
L 108.600025 115.375242 
L 109.149237 110.905888 
L 109.69845 117.00556 
L 110.247662 125.207977 
L 110.796875 127.792841 
L 111.346088 129.113085 
L 111.8953 134.140673 
L 112.993725 139.583975 
L 114.092151 148.406854 
L 114.641363 146.639335 
L 115.190576 141.664767 
L 115.739788 142.65861 
L 116.838214 157.590116 
L 117.387426 156.846589 
L 117.936639 154.903758 
L 118.485851 157.071729 
L 119.035064 156.477835 
L 120.133489 142.709232 
L 120.682702 143.081899 
L 121.231914 144.918675 
L 121.781127 134.976716 
L 122.33034 117.830463 
L 122.879552 106.165859 
L 123.428765 99.870356 
L 123.977977 97.633178 
L 125.076403 105.892604 
L 125.625615 104.396984 
L 126.174828 110.196036 
L 126.72404 121.047533 
L 127.273253 120.941092 
L 128.371678 87.498016 
L 128.920891 80.388342 
L 129.470103 83.412737 
L 130.019316 90.365744 
L 130.568529 102.007401 
L 131.666954 135.220918 
L 132.216166 142.516947 
L 132.765379 142.103558 
L 133.314592 136.480157 
L 133.863804 128.865272 
L 134.413017 129.036485 
L 135.511442 151.690226 
L 136.060655 152.504551 
L 136.609867 154.100467 
L 137.15908 161.168037 
L 137.708292 162.832379 
L 138.257505 154.602613 
L 139.35593 124.505732 
L 139.905143 119.963331 
L 140.454355 127.848878 
L 141.552781 153.711236 
L 142.101993 153.462706 
L 144.298844 89.449416 
L 144.848056 74.846752 
L 145.397269 73.088965 
L 145.946481 82.099127 
L 147.044906 102.189141 
L 148.143332 116.253396 
L 148.692544 117.835965 
L 149.241757 110.996452 
L 150.340182 80.55603 
L 150.889395 73.382063 
L 151.438607 78.430112 
L 152.537032 99.929026 
L 153.635458 116.111556 
L 154.18467 125.194076 
L 154.733883 126.748759 
L 155.283095 121.790648 
L 156.381521 104.328753 
L 156.930733 99.990043 
L 157.479946 97.289902 
L 158.029158 93.198579 
L 158.578371 90.896612 
L 159.676796 93.2022 
L 160.226009 95.028593 
L 160.775221 99.269369 
L 161.873647 109.712136 
L 162.422859 113.402444 
L 162.972072 113.979571 
L 164.61971 101.55744 
L 165.168922 97.981519 
L 165.718135 97.997776 
L 166.267347 102.596639 
L 167.365773 123.439437 
L 167.914985 128.817552 
L 168.464198 127.182345 
L 169.562623 115.502943 
L 170.111836 108.089812 
L 171.210261 89.841476 
L 171.759473 88.209322 
L 173.956324 103.253005 
L 174.505536 102.164327 
L 175.603962 89.81982 
L 176.702387 85.486078 
L 177.251599 84.163493 
L 177.800812 84.237203 
L 178.350025 84.597024 
L 178.899237 82.852993 
L 179.44845 80.406206 
L 179.997662 78.472569 
L 180.546875 77.094081 
L 181.6453 73.193788 
L 182.194513 77.122644 
L 182.743725 82.8643 
L 183.292938 84.28569 
L 183.842151 83.80022 
L 184.940576 87.658351 
L 186.039001 89.412978 
L 186.588214 89.1324 
L 187.137426 89.282144 
L 187.686639 94.351692 
L 188.785064 108.529635 
L 189.334277 112.664936 
L 189.883489 115.734916 
L 190.432702 117.511528 
L 190.981914 118.031035 
L 191.531127 115.722813 
L 192.08034 111.338292 
L 192.629552 108.527978 
L 193.178765 106.677528 
L 194.27719 96.757246 
L 194.826403 95.567021 
L 195.375615 95.620457 
L 195.924828 93.29909 
L 197.023253 85.795158 
L 198.670891 78.264031 
L 199.220103 76.578031 
L 199.769316 71.874673 
L 200.318529 65.884901 
L 200.867741 62.271774 
L 201.416954 62.369323 
L 201.966166 65.511829 
L 203.064592 77.813911 
L 203.613804 82.565928 
L 204.163017 85.66288 
L 204.712229 87.856188 
L 205.810655 94.496839 
L 206.359867 94.4239 
L 207.458292 89.081272 
L 208.007505 89.093719 
L 209.10593 94.332671 
L 209.655143 94.996721 
L 210.204355 95.920002 
L 210.753568 97.80883 
L 211.302781 98.434058 
L 211.851993 98.327717 
L 212.401206 97.639686 
L 212.950418 95.074892 
L 214.048844 81.862534 
L 214.598056 80.237932 
L 215.147269 81.369538 
L 216.245694 80.887542 
L 216.794906 83.132174 
L 217.344119 84.255903 
L 217.893332 83.407605 
L 218.442544 85.437053 
L 218.991757 90.653636 
L 219.540969 92.658702 
L 220.090182 92.867545 
L 220.639395 93.387302 
L 221.188607 92.809567 
L 221.73782 92.643573 
L 222.287032 94.333887 
L 222.836245 93.612227 
L 223.385458 90.897021 
L 223.93467 89.484517 
L 224.483883 89.034457 
L 225.033095 89.487973 
L 225.582308 91.023022 
L 226.131521 92.166448 
L 226.680733 90.266777 
L 229.426796 60.923926 
L 229.976009 59.958482 
L 230.525221 59.403277 
L 231.074434 58.427272 
L 231.623647 60.172317 
L 233.271284 72.761721 
L 233.820497 74.814838 
L 234.36971 76.381876 
L 234.918922 78.345156 
L 236.56656 86.761883 
L 237.115773 91.474028 
L 238.214198 105.235237 
L 238.76341 110.70351 
L 239.312623 113.933277 
L 239.861836 114.925556 
L 240.411048 115.574756 
L 240.960261 116.640669 
L 241.509473 116.705842 
L 243.157111 108.976844 
L 243.706324 104.878036 
L 244.804749 93.049367 
L 245.903174 83.315248 
L 246.452387 77.921127 
L 247.001599 73.886228 
L 247.550812 71.747516 
L 248.100025 68.840342 
L 250.296875 53.01191 
L 250.846088 52.551238 
L 251.3953 55.322686 
L 253.042938 67.490786 
L 253.592151 73.858285 
L 254.141363 81.86188 
L 254.690576 88.16886 
L 255.789001 95.634823 
L 256.887426 106.028441 
L 257.436639 108.697731 
L 258.535064 116.913631 
L 259.084277 118.87635 
L 259.633489 118.607686 
L 260.182702 118.68041 
L 260.731914 119.238259 
L 261.281127 118.815926 
L 261.83034 117.285659 
L 262.379552 114.614655 
L 262.928765 109.945637 
L 264.02719 98.615639 
L 265.125615 88.849657 
L 266.773253 70.481783 
L 267.322466 67.19869 
L 268.420891 62.236147 
L 268.970103 61.457824 
L 269.519316 62.060739 
L 270.068529 62.066477 
L 270.617741 61.339984 
L 271.166954 61.761145 
L 271.716166 63.081967 
L 272.265379 65.108409 
L 272.814592 69.28891 
L 274.462229 88.403779 
L 275.560655 104.351362 
L 276.109867 109.862333 
L 277.208292 117.624805 
L 277.757505 120.270388 
L 278.306718 120.853659 
L 278.85593 120.412847 
L 279.405143 119.44394 
L 279.954355 118.24449 
L 280.503568 116.572599 
L 281.052781 113.274799 
L 282.151206 103.738831 
L 283.798844 85.645983 
L 285.995694 62.725338 
L 287.094119 55.382521 
L 287.643332 53.547362 
L 288.192544 53.99165 
L 288.741757 55.6258 
L 289.290969 57.713962 
L 289.840182 61.355378 
L 293.68467 98.915568 
L 294.783095 107.528166 
L 295.881521 115.113412 
L 296.430733 117.653296 
L 296.979946 119.39387 
L 297.529158 120.520135 
L 298.078371 120.323957 
L 298.627584 118.914253 
L 299.176796 116.696084 
L 299.726009 113.174326 
L 301.922859 92.581893 
L 302.472072 85.70033 
L 303.021284 80.502039 
L 304.11971 72.274599 
L 304.668922 68.115368 
L 305.218135 65.938126 
L 306.865773 61.677334 
L 307.414985 60.961513 
L 307.964198 59.818352 
L 308.51341 59.416694 
L 309.062623 61.296613 
L 309.611836 64.823461 
L 310.161048 69.242263 
L 313.456324 100.783847 
L 314.005536 105.054774 
L 314.554749 108.180895 
L 315.103962 109.792422 
L 315.653174 110.698114 
L 316.751599 113.444795 
L 317.300812 113.872121 
L 318.399237 113.154594 
L 318.94845 112.187444 
L 320.046875 107.430838 
L 320.596088 104.129198 
L 321.694513 94.350701 
L 323.342151 78.177767 
L 323.891363 74.156357 
L 325.539001 65.79313 
L 326.088214 64.48484 
L 326.637426 64.051259 
L 327.186639 63.806151 
L 327.735851 63.926738 
L 328.285064 64.414681 
L 328.834277 65.157304 
L 329.383489 67.088291 
L 331.031127 76.802015 
L 331.58034 81.276495 
L 332.678765 91.688632 
L 334.326403 106.22051 
L 334.875615 109.578662 
L 335.97404 114.093319 
L 336.523253 115.243389 
L 337.072466 115.957382 
L 337.621678 116.292656 
L 338.170891 115.567114 
L 339.818529 110.460497 
L 340.367741 108.071755 
L 341.466166 101.003259 
L 342.564592 91.7177 
L 344.761442 70.613742 
L 345.859867 62.934907 
L 346.40908 60.18336 
L 346.958292 58.810815 
L 347.507505 58.625955 
L 348.056718 59.048433 
L 348.60593 59.693758 
L 349.155143 60.985404 
L 349.704355 63.25632 
L 350.253568 66.692305 
L 351.901206 80.249167 
L 355.745694 118.729819 
L 356.294906 121.969951 
L 356.844119 124.108953 
L 357.393332 125.307024 
L 357.942544 125.457458 
L 358.491757 124.35016 
L 359.040969 121.785835 
L 360.139395 113.244624 
L 361.23782 103.083442 
L 362.885458 84.712559 
L 363.983883 72.656632 
L 365.082308 61.692901 
L 365.631521 57.22363 
L 366.180733 54.188653 
L 366.729946 52.14549 
L 367.279158 51.047343 
L 367.828371 51.447785 
L 368.377584 53.293744 
L 368.926796 56.097199 
L 369.476009 59.808148 
L 370.574434 70.302782 
L 373.86971 106.404189 
L 374.968135 115.244761 
L 376.06656 121.50182 
L 376.615773 123.769894 
L 377.164985 125.049964 
L 377.714198 125.161662 
L 378.26341 123.883154 
L 378.812623 121.39041 
L 379.361836 117.942457 
L 379.911048 113.701454 
L 381.009473 102.163301 
L 384.304749 66.411294 
L 385.403174 57.644322 
L 385.952387 54.606904 
L 386.501599 52.363865 
L 387.050812 51.255616 
L 387.600025 51.373331 
L 388.149237 52.486913 
L 388.69845 54.538715 
L 389.247662 58.019997 
L 390.346088 67.916678 
L 391.444513 80.753329 
L 394.190576 114.633513 
L 395.289001 123.703987 
L 395.838214 126.533211 
L 396.387426 128.443268 
L 396.936639 129.450877 
L 397.485851 129.246385 
L 398.035064 127.893775 
L 398.584277 125.676842 
L 399.133489 122.489702 
L 399.682702 118.183838 
L 400.781127 106.309196 
L 404.076403 63.195142 
L 405.174828 53.803524 
L 405.72404 50.350551 
L 406.273253 47.993907 
L 406.822466 46.979689 
L 407.371678 47.402138 
L 407.920891 48.969876 
L 408.470103 51.806469 
L 409.019316 56.127092 
L 410.117741 67.649082 
L 411.216166 81.837828 
L 413.962229 119.718929 
L 415.060655 130.249916 
L 415.609867 133.824335 
L 416.15908 135.491556 
L 416.708292 135.5475 
L 417.257505 134.4071 
L 417.806718 132.339052 
L 418.35593 128.838888 
L 419.454355 118.94106 
L 420.552781 104.940303 
L 423.848056 58.622766 
L 424.397269 53.065355 
L 424.946481 48.963825 
L 425.495694 46.201039 
L 426.044906 44.518882 
L 426.594119 43.933421 
L 427.143332 44.788459 
L 427.692544 47.009124 
L 428.241757 50.553712 
L 428.790969 55.475998 
L 429.889395 68.942587 
L 433.733883 122.490732 
L 434.283095 127.501782 
L 434.832308 131.460843 
L 435.381521 134.142788 
L 435.930733 135.531921 
L 436.479946 135.526964 
L 437.029158 134.171301 
L 437.578371 131.614568 
L 438.127584 127.710463 
L 439.226009 116.187575 
L 440.873647 93.896624 
L 442.521284 69.739839 
L 443.61971 57.281852 
L 444.168922 52.424447 
L 444.718135 48.92439 
L 445.267347 46.650151 
L 445.81656 45.527317 
L 446.365773 45.729967 
L 446.914985 47.102621 
L 447.464198 49.414387 
L 448.01341 53.199404 
L 449.111836 64.351007 
L 450.210261 79.171678 
L 452.407111 111.785481 
L 453.505536 124.263039 
L 454.054749 129.107537 
L 454.603962 132.731648 
L 455.153174 134.992052 
L 455.702387 135.978812 
L 456.251599 135.610193 
L 456.800812 133.826461 
L 457.350025 130.791128 
L 457.899237 126.453069 
L 458.997662 114.552228 
L 460.096088 99.152966 
L 462.292938 66.484405 
L 463.391363 54.394064 
L 463.940576 49.975389 
L 464.489788 46.911497 
L 465.039001 45.318638 
L 465.588214 45.067621 
L 466.137426 46.070235 
L 466.686639 48.21583 
L 467.235851 51.70815 
L 467.785064 56.438774 
L 468.883489 68.921546 
L 470.531127 92.547156 
L 471.629552 108.365636 
L 472.727977 121.223815 
L 473.27719 126.140903 
L 473.826403 129.977896 
L 474.375615 132.641545 
L 474.924828 134.015642 
L 475.47404 134.084078 
L 476.023253 132.865495 
L 476.572466 130.497433 
L 477.121678 126.847559 
L 478.220103 116.227466 
L 479.318529 102.451225 
L 482.064592 65.964891 
L 483.163017 55.707842 
L 483.712229 52.125351 
L 484.261442 49.739576 
L 484.810655 48.579096 
L 485.359867 48.659578 
L 485.90908 49.963293 
L 486.458292 52.350204 
L 487.007505 55.971977 
L 488.10593 66.493374 
L 489.204355 79.899043 
L 490.302781 94.760008 
L 490.302781 94.760008 
" clip-path="url(#p6eefe8d611)" style="fill: none; stroke-dasharray: 1.2,1.98; stroke-dashoffset: 0; stroke: #008000; stroke-width: 1.2"/>
   </g>
   <g id="line2d_31">
    <path d="M 41.046875 127.188355 
L 56.424828 127.296152 
L 64.663017 127.491279 
L 69.60593 127.372482 
L 74.548844 127.256458 
L 76.196481 127.675923 
L 76.745694 127.660808 
L 77.294906 127.820577 
L 77.844119 127.821611 
L 79.491757 127.482534 
L 80.590182 126.920395 
L 81.688607 126.943285 
L 83.336245 126.718719 
L 84.43467 126.802777 
L 86.082308 126.369191 
L 86.631521 126.554859 
L 87.729946 127.448553 
L 88.279158 128.269833 
L 88.828371 129.335425 
L 89.377584 129.214135 
L 89.926796 128.580036 
L 90.476009 128.864825 
L 91.574434 130.73608 
L 92.123647 129.868699 
L 92.672859 128.394249 
L 93.222072 129.707076 
L 93.771284 131.78275 
L 94.320497 130.727647 
L 94.86971 128.53707 
L 95.418922 127.120645 
L 95.968135 126.288735 
L 96.517347 128.322291 
L 97.06656 132.6942 
L 97.615773 134.431518 
L 98.164985 132.609339 
L 98.714198 132.165791 
L 99.26341 135.227586 
L 99.812623 134.861465 
L 100.361836 130.90953 
L 100.911048 125.936806 
L 101.460261 125.078498 
L 102.009473 127.110938 
L 102.558686 130.135714 
L 103.107899 131.414209 
L 103.657111 131.530322 
L 104.206324 132.681866 
L 104.755536 130.186856 
L 105.304749 125.091782 
L 105.853962 122.767456 
L 106.403174 122.473315 
L 106.952387 119.976194 
L 107.501599 118.393106 
L 108.050812 118.327501 
L 109.149237 113.082416 
L 109.69845 118.597102 
L 110.247662 125.820101 
L 110.796875 129.073421 
L 111.346088 131.352628 
L 111.8953 135.991188 
L 114.092151 146.855804 
L 114.641363 145.176516 
L 115.190576 141.769516 
L 115.739788 143.082881 
L 116.289001 149.419324 
L 116.838214 154.265033 
L 117.387426 153.485525 
L 117.936639 151.62723 
L 118.485851 152.151289 
L 119.035064 150.226202 
L 120.133489 137.897096 
L 121.231914 136.001124 
L 121.781127 125.995408 
L 122.33034 110.970204 
L 122.879552 100.663116 
L 123.428765 95.231784 
L 123.977977 93.73221 
L 125.076403 102.521205 
L 125.625615 103.419442 
L 126.174828 108.550252 
L 126.72404 115.784031 
L 127.273253 114.159105 
L 128.371678 87.767008 
L 128.920891 82.930373 
L 129.470103 86.952568 
L 130.019316 95.396477 
L 130.568529 107.786025 
L 131.666954 136.980978 
L 132.216166 143.20448 
L 132.765379 143.14516 
L 133.314592 139.23455 
L 133.863804 134.412067 
L 134.413017 135.678537 
L 135.511442 153.542189 
L 136.060655 154.128898 
L 136.609867 154.491664 
L 137.15908 158.022 
L 137.708292 157.261532 
L 138.257505 149.330305 
L 139.35593 125.887845 
L 139.905143 123.07133 
L 140.454355 129.324081 
L 141.003568 139.374846 
L 141.552781 146.305134 
L 142.101993 143.56583 
L 144.298844 86.259565 
L 144.848056 75.148033 
L 145.397269 74.515724 
L 145.946481 82.462988 
L 147.044906 101.185073 
L 147.594119 108.96442 
L 148.143332 114.879728 
L 148.692544 116.028613 
L 149.241757 110.022561 
L 150.340182 85.718069 
L 150.889395 80.268673 
L 151.438607 84.598198 
L 153.086245 113.769205 
L 154.18467 130.368862 
L 154.733883 131.692212 
L 155.283095 127.3572 
L 156.381521 111.657831 
L 156.930733 107.013311 
L 158.029158 101.149742 
L 158.578371 99.883922 
L 159.127584 101.558423 
L 159.676796 103.613712 
L 160.226009 106.553229 
L 162.422859 124.068477 
L 162.972072 124.080474 
L 164.61971 112.66554 
L 165.168922 110.316085 
L 165.718135 111.305543 
L 166.267347 116.197489 
L 167.365773 133.899457 
L 167.914985 138.00012 
L 168.464198 136.168179 
L 169.562623 124.910053 
L 171.210261 102.879002 
L 171.759473 101.672118 
L 173.956324 113.566341 
L 174.505536 112.739939 
L 175.603962 103.555786 
L 176.702387 99.691916 
L 177.251599 98.416944 
L 177.800812 98.298759 
L 178.350025 98.616202 
L 178.899237 97.754808 
L 179.44845 96.671197 
L 179.997662 96.041837 
L 180.546875 95.810697 
L 181.096088 95.175633 
L 181.6453 95.017573 
L 182.194513 98.770907 
L 182.743725 103.667851 
L 183.292938 105.660198 
L 183.842151 106.418714 
L 184.940576 110.864427 
L 186.039001 113.35974 
L 186.588214 113.999001 
L 187.137426 115.330396 
L 187.686639 120.427797 
L 188.785064 133.523379 
L 189.334277 137.525491 
L 189.883489 140.175708 
L 190.432702 141.286475 
L 190.981914 140.965089 
L 191.531127 138.314942 
L 192.08034 134.025187 
L 193.727977 123.420163 
L 194.27719 119.010247 
L 194.826403 117.447992 
L 195.375615 116.85134 
L 195.924828 114.761052 
L 197.023253 108.85444 
L 199.220103 99.823097 
L 200.318529 91.58391 
L 200.867741 89.629006 
L 201.416954 90.957993 
L 201.966166 94.878556 
L 203.064592 107.26217 
L 203.613804 112.260228 
L 204.163017 115.84596 
L 204.712229 118.557471 
L 205.810655 124.540283 
L 206.359867 124.619584 
L 207.458292 120.717084 
L 208.007505 120.809963 
L 209.10593 125.282185 
L 210.204355 127.867668 
L 210.753568 129.684583 
L 211.302781 130.201701 
L 211.851993 129.708319 
L 212.401206 128.275499 
L 212.950418 125.156411 
L 214.048844 113.879563 
L 214.598056 112.354211 
L 215.147269 113.077133 
L 215.696481 113.156833 
L 216.245694 113.49347 
L 216.794906 115.596986 
L 217.344119 116.946894 
L 217.893332 117.13881 
L 218.442544 119.486633 
L 218.991757 123.920128 
L 219.540969 125.86211 
L 220.639395 126.505663 
L 221.73782 125.204544 
L 222.287032 125.832201 
L 222.836245 124.895922 
L 223.385458 122.821322 
L 223.93467 121.87031 
L 224.483883 121.640497 
L 225.033095 121.992465 
L 225.582308 122.968164 
L 226.131521 123.327583 
L 226.680733 121.156357 
L 229.426796 95.968827 
L 229.976009 95.233753 
L 230.525221 95.278071 
L 231.074434 95.551126 
L 231.623647 98.159079 
L 233.271284 111.829518 
L 233.820497 114.573434 
L 234.918922 119.026189 
L 236.56656 128.352412 
L 237.115773 133.175989 
L 238.214198 145.468333 
L 238.76341 150.067469 
L 239.312623 152.678138 
L 239.861836 153.382864 
L 240.960261 153.606154 
L 241.509473 152.617452 
L 242.607899 146.002173 
L 243.157111 142.532851 
L 243.706324 137.681343 
L 244.804749 125.864627 
L 247.001599 108.230727 
L 247.550812 106.048472 
L 248.100025 103.320056 
L 249.747662 93.881192 
L 250.296875 91.809282 
L 250.846088 92.50702 
L 251.3953 95.89783 
L 253.042938 110.373123 
L 254.690576 131.147057 
L 255.789001 139.589126 
L 256.338214 144.749091 
L 256.887426 148.79071 
L 257.436639 151.239031 
L 258.535064 157.466177 
L 259.084277 158.696472 
L 260.731914 157.344601 
L 261.281127 155.888152 
L 261.83034 153.308234 
L 262.379552 149.642073 
L 263.477977 138.2654 
L 266.22404 109.919704 
L 266.773253 105.135521 
L 267.322466 102.25561 
L 267.871678 100.274002 
L 268.420891 98.789601 
L 268.970103 98.712579 
L 269.519316 99.749448 
L 270.068529 100.47318 
L 270.617741 100.790769 
L 271.166954 102.06226 
L 271.716166 104.21641 
L 272.265379 107.22195 
L 272.814592 112.058747 
L 274.462229 132.046189 
L 275.560655 146.797791 
L 276.109867 151.813084 
L 277.208292 158.295622 
L 277.757505 159.963693 
L 278.306718 159.7965 
L 278.85593 158.624021 
L 279.405143 156.829071 
L 279.954355 154.602868 
L 280.503568 151.818168 
L 281.052781 147.77479 
L 282.151206 137.430633 
L 285.446481 101.976301 
L 285.995694 97.967582 
L 286.544906 94.860689 
L 287.094119 92.552083 
L 287.643332 91.787302 
L 288.192544 93.019638 
L 288.741757 95.488264 
L 289.290969 98.639729 
L 289.840182 103.123234 
L 292.586245 131.53763 
L 293.68467 141.845683 
L 294.783095 149.765952 
L 295.881521 156.039288 
L 296.430733 157.895863 
L 296.979946 158.86185 
L 297.529158 159.012946 
L 298.078371 157.88715 
L 298.627584 155.619213 
L 299.176796 152.493052 
L 299.726009 148.192497 
L 303.021284 114.232486 
L 304.668922 103.299472 
L 305.218135 101.577019 
L 306.31656 99.492722 
L 306.865773 98.992696 
L 307.964198 98.864452 
L 308.51341 99.660814 
L 309.062623 102.383974 
L 310.161048 111.498767 
L 312.907111 139.029415 
L 314.005536 147.28858 
L 314.554749 149.86104 
L 315.103962 151.069635 
L 316.202387 152.173587 
L 316.751599 152.758244 
L 317.300812 152.50268 
L 317.850025 151.605316 
L 318.399237 150.478117 
L 318.94845 148.726209 
L 320.046875 142.570095 
L 320.596088 138.574377 
L 321.694513 128.156141 
L 323.342151 112.479766 
L 323.891363 108.770171 
L 324.989788 103.908308 
L 325.539001 102.012456 
L 326.088214 101.36322 
L 326.637426 101.51879 
L 327.186639 101.976374 
L 327.735851 102.849715 
L 328.285064 104.115446 
L 328.834277 105.700061 
L 329.383489 108.257262 
L 331.031127 119.511498 
L 334.326403 148.357803 
L 334.875615 151.232642 
L 335.424828 153.225604 
L 335.97404 154.565744 
L 336.523253 155.030545 
L 337.072466 154.940201 
L 337.621678 154.370797 
L 338.170891 152.887024 
L 339.818529 145.657392 
L 340.367741 142.566261 
L 341.466166 134.504653 
L 342.564592 124.658028 
L 344.212229 108.795525 
L 345.310655 101.292805 
L 345.859867 98.437503 
L 346.40908 96.602192 
L 346.958292 96.059266 
L 347.507505 96.632406 
L 348.056718 97.881795 
L 348.60593 99.515484 
L 349.155143 101.802194 
L 349.704355 104.95231 
L 350.802781 113.872753 
L 351.901206 124.010347 
L 354.647269 151.927241 
L 355.196481 156.431003 
L 355.745694 159.917605 
L 356.294906 162.304307 
L 356.844119 163.530275 
L 357.393332 163.689926 
L 357.942544 162.716357 
L 358.491757 160.494321 
L 359.040969 156.94903 
L 360.139395 146.906077 
L 361.787032 129.357185 
L 363.983883 105.4855 
L 365.082308 95.916974 
L 365.631521 92.368414 
L 366.180733 90.200307 
L 366.729946 89.116644 
L 367.279158 89.110029 
L 367.828371 90.557678 
L 368.377584 93.373444 
L 368.926796 97.16182 
L 370.025221 107.430032 
L 373.320497 144.661716 
L 374.418922 153.794426 
L 374.968135 157.245565 
L 375.517347 159.957605 
L 376.06656 161.98776 
L 376.615773 163.260527 
L 377.164985 163.478825 
L 377.714198 162.508599 
L 378.26341 160.204612 
L 378.812623 156.732431 
L 379.911048 147.198449 
L 382.107899 121.752591 
L 383.206324 109.442825 
L 384.304749 99.736907 
L 384.853962 95.747301 
L 385.403174 92.661937 
L 385.952387 90.556428 
L 386.501599 89.340168 
L 387.050812 89.262116 
L 387.600025 90.39767 
L 388.149237 92.580351 
L 388.69845 95.745303 
L 389.247662 100.180844 
L 390.346088 111.676326 
L 392.542938 139.853604 
L 393.641363 152.698001 
L 394.739788 161.99124 
L 395.289001 165.11683 
L 395.838214 167.010218 
L 396.387426 167.880596 
L 396.936639 167.752337 
L 397.485851 166.428671 
L 398.035064 163.984134 
L 398.584277 160.646212 
L 399.133489 156.361349 
L 400.231914 144.799891 
L 401.879552 122.625915 
L 403.52719 101.408218 
L 404.625615 91.584415 
L 405.174828 88.203516 
L 405.72404 85.820454 
L 406.273253 84.651616 
L 406.822466 84.852376 
L 407.371678 86.465805 
L 407.920891 89.266921 
L 408.470103 93.297049 
L 409.568529 104.866316 
L 410.666954 119.018536 
L 413.413017 156.85311 
L 414.511442 167.488429 
L 415.060655 171.235844 
L 415.609867 173.562905 
L 416.15908 174.064967 
L 416.708292 172.981387 
L 417.257505 170.630923 
L 417.806718 167.255837 
L 418.35593 162.588757 
L 419.454355 150.569556 
L 420.552781 135.319483 
L 422.749631 103.389637 
L 423.848056 90.936895 
L 424.397269 86.338758 
L 424.946481 83.222899 
L 425.495694 81.506403 
L 426.044906 81.010246 
L 426.594119 81.742898 
L 427.143332 83.916034 
L 427.692544 87.435361 
L 428.241757 92.223986 
L 429.340182 105.348158 
L 433.18467 159.795033 
L 433.733883 164.999118 
L 434.283095 169.070267 
L 434.832308 171.954586 
L 435.381521 173.483354 
L 435.930733 173.647165 
L 436.479946 172.398968 
L 437.029158 169.791682 
L 437.578371 165.964426 
L 438.127584 160.882259 
L 439.226009 147.511547 
L 441.422859 115.501076 
L 442.521284 100.645144 
L 443.61971 89.658781 
L 444.168922 85.79942 
L 444.718135 83.335429 
L 445.267347 82.166189 
L 445.81656 82.237674 
L 446.365773 83.653459 
L 446.914985 86.276234 
L 447.464198 89.906522 
L 448.01341 94.864461 
L 449.111836 107.915043 
L 450.759473 132.124401 
L 452.407111 155.340134 
L 453.505536 166.287737 
L 454.054749 170.117702 
L 454.603962 172.615225 
L 455.153174 173.683492 
L 455.702387 173.401767 
L 456.251599 171.737435 
L 456.800812 168.684772 
L 457.350025 164.410374 
L 458.44845 152.482613 
L 459.546875 137.357113 
L 461.743725 104.494981 
L 462.842151 91.705248 
L 463.391363 87.070353 
L 463.940576 83.693898 
L 464.489788 81.748743 
L 465.039001 81.303243 
L 465.588214 82.246107 
L 466.137426 84.487618 
L 466.686639 87.904482 
L 467.235851 92.579454 
L 468.334277 105.084378 
L 469.981914 128.560731 
L 471.629552 151.827186 
L 472.727977 163.314952 
L 473.27719 167.358173 
L 473.826403 170.195492 
L 474.375615 171.756437 
L 474.924828 171.966712 
L 475.47404 170.835996 
L 476.023253 168.408868 
L 476.572466 164.824927 
L 477.121678 160.053011 
L 478.220103 147.600911 
L 479.867741 124.918141 
L 481.515379 103.19753 
L 482.613804 92.569354 
L 483.163017 88.784763 
L 483.712229 86.187809 
L 484.261442 84.856372 
L 484.810655 84.805402 
L 485.359867 86.030322 
L 485.90908 88.490481 
L 486.458292 92.046028 
L 487.007505 96.742819 
L 488.10593 108.968149 
L 490.302781 138.294871 
L 490.302781 138.294871 
" clip-path="url(#p6eefe8d611)" style="fill: none; stroke-dasharray: 4.44,1.92; stroke-dashoffset: 0; stroke: #bf00bf; stroke-width: 1.2"/>
   </g>
   <g id="patch_3">
    <path d="M 41.046875 185.393079 
L 41.046875 10.778906 
" style="fill: none; stroke: #000000; stroke-width: 0.8; stroke-linejoin: miter; stroke-linecap: square"/>
   </g>
   <g id="patch_4">
    <path d="M 480.416954 185.393079 
L 480.416954 10.778906 
" style="fill: none; stroke: #000000; stroke-width: 0.8; stroke-linejoin: miter; stroke-linecap: square"/>
   </g>
   <g id="patch_5">
    <path d="M 41.046875 185.393079 
L 480.416954 185.393079 
" style="fill: none; stroke: #000000; stroke-width: 0.8; stroke-linejoin: miter; stroke-linecap: square"/>
   </g>
   <g id="patch_6">
    <path d="M 41.046875 10.778906 
L 480.416954 10.778906 
" style="fill: none; stroke: #000000; stroke-width: 0.8; stroke-linejoin: miter; stroke-linecap: square"/>
   </g>
   <g id="text_16">
    <!-- 8th floor -->
    <g transform="translate(66.919039 166.151464) scale(0.1 -0.1)">
     <defs>
      <path id="ArialMT-38" d="M 1131 2484 
Q 781 2613 612 2850 
Q 444 3088 444 3419 
Q 444 3919 803 4259 
Q 1163 4600 1759 4600 
Q 2359 4600 2725 4251 
Q 3091 3903 3091 3403 
Q 3091 3084 2923 2848 
Q 2756 2613 2416 2484 
Q 2838 2347 3058 2040 
Q 3278 1734 3278 1309 
Q 3278 722 2862 322 
Q 2447 -78 1769 -78 
Q 1091 -78 675 323 
Q 259 725 259 1325 
Q 259 1772 486 2073 
Q 713 2375 1131 2484 
z
M 1019 3438 
Q 1019 3113 1228 2906 
Q 1438 2700 1772 2700 
Q 2097 2700 2305 2904 
Q 2513 3109 2513 3406 
Q 2513 3716 2298 3927 
Q 2084 4138 1766 4138 
Q 1444 4138 1231 3931 
Q 1019 3725 1019 3438 
z
M 838 1322 
Q 838 1081 952 856 
Q 1066 631 1291 507 
Q 1516 384 1775 384 
Q 2178 384 2440 643 
Q 2703 903 2703 1303 
Q 2703 1709 2433 1975 
Q 2163 2241 1756 2241 
Q 1359 2241 1098 1978 
Q 838 1716 838 1322 
z
" transform="scale(0.015625)"/>
      <path id="ArialMT-68" d="M 422 0 
L 422 4581 
L 984 4581 
L 984 2938 
Q 1378 3394 1978 3394 
Q 2347 3394 2619 3248 
Q 2891 3103 3008 2847 
Q 3125 2591 3125 2103 
L 3125 0 
L 2563 0 
L 2563 2103 
Q 2563 2525 2380 2717 
Q 2197 2909 1863 2909 
Q 1613 2909 1392 2779 
Q 1172 2650 1078 2428 
Q 984 2206 984 1816 
L 984 0 
L 422 0 
z
" transform="scale(0.015625)"/>
      <path id="ArialMT-66" d="M 556 0 
L 556 2881 
L 59 2881 
L 59 3319 
L 556 3319 
L 556 3672 
Q 556 4006 616 4169 
Q 697 4388 901 4523 
Q 1106 4659 1475 4659 
Q 1713 4659 2000 4603 
L 1916 4113 
Q 1741 4144 1584 4144 
Q 1328 4144 1222 4034 
Q 1116 3925 1116 3625 
L 1116 3319 
L 1763 3319 
L 1763 2881 
L 1116 2881 
L 1116 0 
L 556 0 
z
" transform="scale(0.015625)"/>
      <path id="ArialMT-6f" d="M 213 1659 
Q 213 2581 725 3025 
Q 1153 3394 1769 3394 
Q 2453 3394 2887 2945 
Q 3322 2497 3322 1706 
Q 3322 1066 3130 698 
Q 2938 331 2570 128 
Q 2203 -75 1769 -75 
Q 1072 -75 642 372 
Q 213 819 213 1659 
z
M 791 1659 
Q 791 1022 1069 705 
Q 1347 388 1769 388 
Q 2188 388 2466 706 
Q 2744 1025 2744 1678 
Q 2744 2294 2464 2611 
Q 2184 2928 1769 2928 
Q 1347 2928 1069 2612 
Q 791 2297 791 1659 
z
" transform="scale(0.015625)"/>
      <path id="ArialMT-72" d="M 416 0 
L 416 3319 
L 922 3319 
L 922 2816 
Q 1116 3169 1280 3281 
Q 1444 3394 1641 3394 
Q 1925 3394 2219 3213 
L 2025 2691 
Q 1819 2813 1613 2813 
Q 1428 2813 1281 2702 
Q 1134 2591 1072 2394 
Q 978 2094 978 1738 
L 978 0 
L 416 0 
z
" transform="scale(0.015625)"/>
     </defs>
     <use xlink:href="#ArialMT-38"/>
     <use xlink:href="#ArialMT-74" x="55.615234"/>
     <use xlink:href="#ArialMT-68" x="83.398438"/>
     <use xlink:href="#ArialMT-20" x="139.013672"/>
     <use xlink:href="#ArialMT-66" x="166.796875"/>
     <use xlink:href="#ArialMT-6c" x="194.580078"/>
     <use xlink:href="#ArialMT-6f" x="216.796875"/>
     <use xlink:href="#ArialMT-6f" x="272.412109"/>
     <use xlink:href="#ArialMT-72" x="328.027344"/>
    </g>
   </g>
   <g id="legend_1">
    <g id="patch_7">
     <path d="M 48.046875 47.186719 
L 372.801563 47.186719 
Q 374.801563 47.186719 374.801563 45.186719 
L 374.801563 17.778906 
Q 374.801563 15.778906 372.801563 15.778906 
L 48.046875 15.778906 
Q 46.046875 15.778906 46.046875 17.778906 
L 46.046875 45.186719 
Q 46.046875 47.186719 48.046875 47.186719 
z
" style="fill: #ffffff; opacity: 0.8; stroke: #000000; stroke-linejoin: miter"/>
    </g>
    <g id="line2d_32">
     <path d="M 50.046875 23.436719 
L 60.046875 23.436719 
L 70.046875 23.436719 
" style="fill: none; stroke: #000000; stroke-width: 1.2; stroke-linecap: square"/>
    </g>
    <g id="text_17">
     <!-- Ref. -->
     <g transform="translate(78.046875 26.936719) scale(0.1 -0.1)">
      <defs>
       <path id="ArialMT-52" d="M 503 0 
L 503 4581 
L 2534 4581 
Q 3147 4581 3465 4457 
Q 3784 4334 3975 4021 
Q 4166 3709 4166 3331 
Q 4166 2844 3850 2509 
Q 3534 2175 2875 2084 
Q 3116 1969 3241 1856 
Q 3506 1613 3744 1247 
L 4541 0 
L 3778 0 
L 3172 953 
Q 2906 1366 2734 1584 
Q 2563 1803 2427 1890 
Q 2291 1978 2150 2013 
Q 2047 2034 1813 2034 
L 1109 2034 
L 1109 0 
L 503 0 
z
M 1109 2559 
L 2413 2559 
Q 2828 2559 3062 2645 
Q 3297 2731 3419 2920 
Q 3541 3109 3541 3331 
Q 3541 3656 3305 3865 
Q 3069 4075 2559 4075 
L 1109 4075 
L 1109 2559 
z
" transform="scale(0.015625)"/>
       <path id="ArialMT-2e" d="M 581 0 
L 581 641 
L 1222 641 
L 1222 0 
L 581 0 
z
" transform="scale(0.015625)"/>
      </defs>
      <use xlink:href="#ArialMT-52"/>
      <use xlink:href="#ArialMT-65" x="72.216797"/>
      <use xlink:href="#ArialMT-66" x="127.832031"/>
      <use xlink:href="#ArialMT-2e" x="155.615234"/>
     </g>
    </g>
    <g id="line2d_33">
     <path d="M 50.046875 37.582031 
L 60.046875 37.582031 
L 70.046875 37.582031 
" style="fill: none; stroke-dasharray: 7.68,1.92,1.2,1.92; stroke-dashoffset: 0; stroke: #ff0000; stroke-width: 1.2"/>
    </g>
    <g id="text_18">
     <!-- DKF pred. -->
     <g transform="translate(78.046875 41.082031) scale(0.1 -0.1)">
      <defs>
       <path id="ArialMT-4b" d="M 469 0 
L 469 4581 
L 1075 4581 
L 1075 2309 
L 3350 4581 
L 4172 4581 
L 2250 2725 
L 4256 0 
L 3456 0 
L 1825 2319 
L 1075 1588 
L 1075 0 
L 469 0 
z
" transform="scale(0.015625)"/>
       <path id="ArialMT-46" d="M 525 0 
L 525 4581 
L 3616 4581 
L 3616 4041 
L 1131 4041 
L 1131 2622 
L 3281 2622 
L 3281 2081 
L 1131 2081 
L 1131 0 
L 525 0 
z
" transform="scale(0.015625)"/>
       <path id="ArialMT-64" d="M 2575 0 
L 2575 419 
Q 2259 -75 1647 -75 
Q 1250 -75 917 144 
Q 584 363 401 755 
Q 219 1147 219 1656 
Q 219 2153 384 2558 
Q 550 2963 881 3178 
Q 1213 3394 1622 3394 
Q 1922 3394 2156 3267 
Q 2391 3141 2538 2938 
L 2538 4581 
L 3097 4581 
L 3097 0 
L 2575 0 
z
M 797 1656 
Q 797 1019 1065 703 
Q 1334 388 1700 388 
Q 2069 388 2326 689 
Q 2584 991 2584 1609 
Q 2584 2291 2321 2609 
Q 2059 2928 1675 2928 
Q 1300 2928 1048 2622 
Q 797 2316 797 1656 
z
" transform="scale(0.015625)"/>
      </defs>
      <use xlink:href="#ArialMT-44"/>
      <use xlink:href="#ArialMT-4b" x="72.216797"/>
      <use xlink:href="#ArialMT-46" x="138.916016"/>
      <use xlink:href="#ArialMT-20" x="200"/>
      <use xlink:href="#ArialMT-70" x="227.783203"/>
      <use xlink:href="#ArialMT-72" x="283.398438"/>
      <use xlink:href="#ArialMT-65" x="316.699219"/>
      <use xlink:href="#ArialMT-64" x="372.314453"/>
      <use xlink:href="#ArialMT-2e" x="427.929688"/>
     </g>
    </g>
    <g id="line2d_34">
     <path d="M 143.615625 23.436719 
L 153.615625 23.436719 
L 163.615625 23.436719 
" style="fill: none; stroke-dasharray: 4.44,1.92; stroke-dashoffset: 0; stroke: #0000ff; stroke-width: 1.2"/>
    </g>
    <g id="text_19">
     <!-- Integr. DKF pred. -->
     <g transform="translate(171.615625 26.936719) scale(0.1 -0.1)">
      <defs>
       <path id="ArialMT-49" d="M 597 0 
L 597 4581 
L 1203 4581 
L 1203 0 
L 597 0 
z
" transform="scale(0.015625)"/>
       <path id="ArialMT-67" d="M 319 -275 
L 866 -356 
Q 900 -609 1056 -725 
Q 1266 -881 1628 -881 
Q 2019 -881 2231 -725 
Q 2444 -569 2519 -288 
Q 2563 -116 2559 434 
Q 2191 0 1641 0 
Q 956 0 581 494 
Q 206 988 206 1678 
Q 206 2153 378 2554 
Q 550 2956 876 3175 
Q 1203 3394 1644 3394 
Q 2231 3394 2613 2919 
L 2613 3319 
L 3131 3319 
L 3131 450 
Q 3131 -325 2973 -648 
Q 2816 -972 2473 -1159 
Q 2131 -1347 1631 -1347 
Q 1038 -1347 672 -1080 
Q 306 -813 319 -275 
z
M 784 1719 
Q 784 1066 1043 766 
Q 1303 466 1694 466 
Q 2081 466 2343 764 
Q 2606 1063 2606 1700 
Q 2606 2309 2336 2618 
Q 2066 2928 1684 2928 
Q 1309 2928 1046 2623 
Q 784 2319 784 1719 
z
" transform="scale(0.015625)"/>
      </defs>
      <use xlink:href="#ArialMT-49"/>
      <use xlink:href="#ArialMT-6e" x="27.783203"/>
      <use xlink:href="#ArialMT-74" x="83.398438"/>
      <use xlink:href="#ArialMT-65" x="111.181641"/>
      <use xlink:href="#ArialMT-67" x="166.796875"/>
      <use xlink:href="#ArialMT-72" x="222.412109"/>
      <use xlink:href="#ArialMT-2e" x="250.212891"/>
      <use xlink:href="#ArialMT-20" x="277.996094"/>
      <use xlink:href="#ArialMT-44" x="305.779297"/>
      <use xlink:href="#ArialMT-4b" x="377.996094"/>
      <use xlink:href="#ArialMT-46" x="444.695312"/>
      <use xlink:href="#ArialMT-20" x="505.779297"/>
      <use xlink:href="#ArialMT-70" x="533.5625"/>
      <use xlink:href="#ArialMT-72" x="589.177734"/>
      <use xlink:href="#ArialMT-65" x="622.478516"/>
      <use xlink:href="#ArialMT-64" x="678.09375"/>
      <use xlink:href="#ArialMT-2e" x="733.708984"/>
     </g>
    </g>
    <g id="line2d_35">
     <path d="M 143.615625 37.699219 
L 153.615625 37.699219 
L 163.615625 37.699219 
" style="fill: none; stroke-dasharray: 1.2,1.98; stroke-dashoffset: 0; stroke: #008000; stroke-width: 1.2"/>
    </g>
    <g id="text_20">
     <!-- AKF pred. -->
     <g transform="translate(171.615625 41.199219) scale(0.1 -0.1)">
      <defs>
       <path id="ArialMT-41" d="M -9 0 
L 1750 4581 
L 2403 4581 
L 4278 0 
L 3588 0 
L 3053 1388 
L 1138 1388 
L 634 0 
L -9 0 
z
M 1313 1881 
L 2866 1881 
L 2388 3150 
Q 2169 3728 2063 4100 
Q 1975 3659 1816 3225 
L 1313 1881 
z
" transform="scale(0.015625)"/>
      </defs>
      <use xlink:href="#ArialMT-41"/>
      <use xlink:href="#ArialMT-4b" x="66.699219"/>
      <use xlink:href="#ArialMT-46" x="133.398438"/>
      <use xlink:href="#ArialMT-20" x="194.482422"/>
      <use xlink:href="#ArialMT-70" x="222.265625"/>
      <use xlink:href="#ArialMT-72" x="277.880859"/>
      <use xlink:href="#ArialMT-65" x="311.181641"/>
      <use xlink:href="#ArialMT-64" x="366.796875"/>
      <use xlink:href="#ArialMT-2e" x="422.412109"/>
     </g>
    </g>
    <g id="line2d_36">
     <path d="M 267.759375 23.436719 
L 277.759375 23.436719 
L 287.759375 23.436719 
" style="fill: none; stroke-dasharray: 4.44,1.92; stroke-dashoffset: 0; stroke: #bf00bf; stroke-width: 1.2"/>
    </g>
    <g id="text_21">
     <!-- Integr. AKF pred. -->
     <g transform="translate(295.759375 26.936719) scale(0.1 -0.1)">
      <use xlink:href="#ArialMT-49"/>
      <use xlink:href="#ArialMT-6e" x="27.783203"/>
      <use xlink:href="#ArialMT-74" x="83.398438"/>
      <use xlink:href="#ArialMT-65" x="111.181641"/>
      <use xlink:href="#ArialMT-67" x="166.796875"/>
      <use xlink:href="#ArialMT-72" x="222.412109"/>
      <use xlink:href="#ArialMT-2e" x="250.212891"/>
      <use xlink:href="#ArialMT-20" x="277.996094"/>
      <use xlink:href="#ArialMT-41" x="300.279297"/>
      <use xlink:href="#ArialMT-4b" x="366.978516"/>
      <use xlink:href="#ArialMT-46" x="433.677734"/>
      <use xlink:href="#ArialMT-20" x="494.761719"/>
      <use xlink:href="#ArialMT-70" x="522.544922"/>
      <use xlink:href="#ArialMT-72" x="578.160156"/>
      <use xlink:href="#ArialMT-65" x="611.460938"/>
      <use xlink:href="#ArialMT-64" x="667.076172"/>
      <use xlink:href="#ArialMT-2e" x="722.691406"/>
     </g>
    </g>
   </g>
  </g>
 </g>
 <defs>
  <clipPath id="p6eefe8d611">
   <rect x="41.046875" y="10.778906" width="439.370079" height="174.614173"/>
  </clipPath>
 </defs>
</svg>
