<?xml version="1.0" encoding="utf-8" standalone="no"?>
<!DOCTYPE svg PUBLIC "-//W3C//DTD SVG 1.1//EN"
  "http://www.w3.org/Graphics/SVG/1.1/DTD/svg11.dtd">
<svg xmlns:xlink="http://www.w3.org/1999/xlink" width="493.177891pt" height="218.622767pt" viewBox="0 0 493.177891 218.622767" xmlns="http://www.w3.org/2000/svg" version="1.1">
 <metadata>
  <rdf:RDF xmlns:dc="http://purl.org/dc/elements/1.1/" xmlns:cc="http://creativecommons.org/ns#" xmlns:rdf="http://www.w3.org/1999/02/22-rdf-syntax-ns#">
   <cc:Work>
    <dc:type rdf:resource="http://purl.org/dc/dcmitype/StillImage"/>
    <dc:date>2024-03-17T15:55:33.470228</dc:date>
    <dc:format>image/svg+xml</dc:format>
    <dc:creator>
     <cc:Agent>
      <dc:title>Matplotlib v3.8.2, https://matplotlib.org/</dc:title>
     </cc:Agent>
    </dc:creator>
   </cc:Work>
  </rdf:RDF>
 </metadata>
 <defs>
  <style type="text/css">*{stroke-linejoin: round; stroke-linecap: butt}</style>
 </defs>
 <g id="figure_1">
  <g id="patch_1">
   <path d="M 0 218.622767 
L 493.177891 218.622767 
L 493.177891 0 
L 0 0 
z
" style="fill: #ffffff"/>
  </g>
  <g id="axes_1">
   <g id="patch_2">
    <path d="M 41.046875 185.393079 
L 480.416954 185.393079 
L 480.416954 10.778906 
L 41.046875 10.778906 
z
" style="fill: #ffffff"/>
   </g>
   <g id="matplotlib.axis_1">
    <g id="xtick_1">
     <g id="line2d_1">
      <path d="M 41.046875 185.393079 
L 41.046875 10.778906 
" clip-path="url(#p4233e0950f)" style="fill: none; stroke: #b0b0b0; stroke-width: 0.8; stroke-linecap: square"/>
     </g>
     <g id="line2d_2">
      <defs>
       <path id="m0a29a83141" d="M 0 0 
L 0 -3.5 
" style="stroke: #000000; stroke-width: 0.8"/>
      </defs>
      <g>
       <use xlink:href="#m0a29a83141" x="41.046875" y="185.393079" style="stroke: #000000; stroke-width: 0.8"/>
      </g>
     </g>
     <g id="text_1">
      <!-- 0 -->
      <g transform="translate(38.266406 196.050892) scale(0.1 -0.1)">
       <defs>
        <path id="ArialMT-30" d="M 266 2259 
Q 266 3072 433 3567 
Q 600 4063 929 4331 
Q 1259 4600 1759 4600 
Q 2128 4600 2406 4451 
Q 2684 4303 2865 4023 
Q 3047 3744 3150 3342 
Q 3253 2941 3253 2259 
Q 3253 1453 3087 958 
Q 2922 463 2592 192 
Q 2263 -78 1759 -78 
Q 1097 -78 719 397 
Q 266 969 266 2259 
z
M 844 2259 
Q 844 1131 1108 757 
Q 1372 384 1759 384 
Q 2147 384 2411 759 
Q 2675 1134 2675 2259 
Q 2675 3391 2411 3762 
Q 2147 4134 1753 4134 
Q 1366 4134 1134 3806 
Q 844 3388 844 2259 
z
" transform="scale(0.015625)"/>
       </defs>
       <use xlink:href="#ArialMT-30"/>
      </g>
     </g>
    </g>
    <g id="xtick_2">
     <g id="line2d_3">
      <path d="M 95.968135 185.393079 
L 95.968135 10.778906 
" clip-path="url(#p4233e0950f)" style="fill: none; stroke: #b0b0b0; stroke-width: 0.8; stroke-linecap: square"/>
     </g>
     <g id="line2d_4">
      <g>
       <use xlink:href="#m0a29a83141" x="95.968135" y="185.393079" style="stroke: #000000; stroke-width: 0.8"/>
      </g>
     </g>
     <g id="text_2">
      <!-- 5 -->
      <g transform="translate(93.187666 196.050892) scale(0.1 -0.1)">
       <defs>
        <path id="ArialMT-35" d="M 266 1200 
L 856 1250 
Q 922 819 1161 601 
Q 1400 384 1738 384 
Q 2144 384 2425 690 
Q 2706 997 2706 1503 
Q 2706 1984 2436 2262 
Q 2166 2541 1728 2541 
Q 1456 2541 1237 2417 
Q 1019 2294 894 2097 
L 366 2166 
L 809 4519 
L 3088 4519 
L 3088 3981 
L 1259 3981 
L 1013 2750 
Q 1425 3038 1878 3038 
Q 2478 3038 2890 2622 
Q 3303 2206 3303 1553 
Q 3303 931 2941 478 
Q 2500 -78 1738 -78 
Q 1113 -78 717 272 
Q 322 622 266 1200 
z
" transform="scale(0.015625)"/>
       </defs>
       <use xlink:href="#ArialMT-35"/>
      </g>
     </g>
    </g>
    <g id="xtick_3">
     <g id="line2d_5">
      <path d="M 150.889395 185.393079 
L 150.889395 10.778906 
" clip-path="url(#p4233e0950f)" style="fill: none; stroke: #b0b0b0; stroke-width: 0.8; stroke-linecap: square"/>
     </g>
     <g id="line2d_6">
      <g>
       <use xlink:href="#m0a29a83141" x="150.889395" y="185.393079" style="stroke: #000000; stroke-width: 0.8"/>
      </g>
     </g>
     <g id="text_3">
      <!-- 10 -->
      <g transform="translate(145.328457 196.050892) scale(0.1 -0.1)">
       <defs>
        <path id="ArialMT-31" d="M 2384 0 
L 1822 0 
L 1822 3584 
Q 1619 3391 1289 3197 
Q 959 3003 697 2906 
L 697 3450 
Q 1169 3672 1522 3987 
Q 1875 4303 2022 4600 
L 2384 4600 
L 2384 0 
z
" transform="scale(0.015625)"/>
       </defs>
       <use xlink:href="#ArialMT-31"/>
       <use xlink:href="#ArialMT-30" x="55.615234"/>
      </g>
     </g>
    </g>
    <g id="xtick_4">
     <g id="line2d_7">
      <path d="M 205.810655 185.393079 
L 205.810655 10.778906 
" clip-path="url(#p4233e0950f)" style="fill: none; stroke: #b0b0b0; stroke-width: 0.8; stroke-linecap: square"/>
     </g>
     <g id="line2d_8">
      <g>
       <use xlink:href="#m0a29a83141" x="205.810655" y="185.393079" style="stroke: #000000; stroke-width: 0.8"/>
      </g>
     </g>
     <g id="text_4">
      <!-- 15 -->
      <g transform="translate(200.249717 196.050892) scale(0.1 -0.1)">
       <use xlink:href="#ArialMT-31"/>
       <use xlink:href="#ArialMT-35" x="55.615234"/>
      </g>
     </g>
    </g>
    <g id="xtick_5">
     <g id="line2d_9">
      <path d="M 260.731914 185.393079 
L 260.731914 10.778906 
" clip-path="url(#p4233e0950f)" style="fill: none; stroke: #b0b0b0; stroke-width: 0.8; stroke-linecap: square"/>
     </g>
     <g id="line2d_10">
      <g>
       <use xlink:href="#m0a29a83141" x="260.731914" y="185.393079" style="stroke: #000000; stroke-width: 0.8"/>
      </g>
     </g>
     <g id="text_5">
      <!-- 20 -->
      <g transform="translate(255.170977 196.050892) scale(0.1 -0.1)">
       <defs>
        <path id="ArialMT-32" d="M 3222 541 
L 3222 0 
L 194 0 
Q 188 203 259 391 
Q 375 700 629 1000 
Q 884 1300 1366 1694 
Q 2113 2306 2375 2664 
Q 2638 3022 2638 3341 
Q 2638 3675 2398 3904 
Q 2159 4134 1775 4134 
Q 1369 4134 1125 3890 
Q 881 3647 878 3216 
L 300 3275 
Q 359 3922 746 4261 
Q 1134 4600 1788 4600 
Q 2447 4600 2831 4234 
Q 3216 3869 3216 3328 
Q 3216 3053 3103 2787 
Q 2991 2522 2730 2228 
Q 2469 1934 1863 1422 
Q 1356 997 1212 845 
Q 1069 694 975 541 
L 3222 541 
z
" transform="scale(0.015625)"/>
       </defs>
       <use xlink:href="#ArialMT-32"/>
       <use xlink:href="#ArialMT-30" x="55.615234"/>
      </g>
     </g>
    </g>
    <g id="xtick_6">
     <g id="line2d_11">
      <path d="M 315.653174 185.393079 
L 315.653174 10.778906 
" clip-path="url(#p4233e0950f)" style="fill: none; stroke: #b0b0b0; stroke-width: 0.8; stroke-linecap: square"/>
     </g>
     <g id="line2d_12">
      <g>
       <use xlink:href="#m0a29a83141" x="315.653174" y="185.393079" style="stroke: #000000; stroke-width: 0.8"/>
      </g>
     </g>
     <g id="text_6">
      <!-- 25 -->
      <g transform="translate(310.092237 196.050892) scale(0.1 -0.1)">
       <use xlink:href="#ArialMT-32"/>
       <use xlink:href="#ArialMT-35" x="55.615234"/>
      </g>
     </g>
    </g>
    <g id="xtick_7">
     <g id="line2d_13">
      <path d="M 370.574434 185.393079 
L 370.574434 10.778906 
" clip-path="url(#p4233e0950f)" style="fill: none; stroke: #b0b0b0; stroke-width: 0.8; stroke-linecap: square"/>
     </g>
     <g id="line2d_14">
      <g>
       <use xlink:href="#m0a29a83141" x="370.574434" y="185.393079" style="stroke: #000000; stroke-width: 0.8"/>
      </g>
     </g>
     <g id="text_7">
      <!-- 30 -->
      <g transform="translate(365.013497 196.050892) scale(0.1 -0.1)">
       <defs>
        <path id="ArialMT-33" d="M 269 1209 
L 831 1284 
Q 928 806 1161 595 
Q 1394 384 1728 384 
Q 2125 384 2398 659 
Q 2672 934 2672 1341 
Q 2672 1728 2419 1979 
Q 2166 2231 1775 2231 
Q 1616 2231 1378 2169 
L 1441 2663 
Q 1497 2656 1531 2656 
Q 1891 2656 2178 2843 
Q 2466 3031 2466 3422 
Q 2466 3731 2256 3934 
Q 2047 4138 1716 4138 
Q 1388 4138 1169 3931 
Q 950 3725 888 3313 
L 325 3413 
Q 428 3978 793 4289 
Q 1159 4600 1703 4600 
Q 2078 4600 2393 4439 
Q 2709 4278 2876 4000 
Q 3044 3722 3044 3409 
Q 3044 3113 2884 2869 
Q 2725 2625 2413 2481 
Q 2819 2388 3044 2092 
Q 3269 1797 3269 1353 
Q 3269 753 2831 336 
Q 2394 -81 1725 -81 
Q 1122 -81 723 278 
Q 325 638 269 1209 
z
" transform="scale(0.015625)"/>
       </defs>
       <use xlink:href="#ArialMT-33"/>
       <use xlink:href="#ArialMT-30" x="55.615234"/>
      </g>
     </g>
    </g>
    <g id="xtick_8">
     <g id="line2d_15">
      <path d="M 425.495694 185.393079 
L 425.495694 10.778906 
" clip-path="url(#p4233e0950f)" style="fill: none; stroke: #b0b0b0; stroke-width: 0.8; stroke-linecap: square"/>
     </g>
     <g id="line2d_16">
      <g>
       <use xlink:href="#m0a29a83141" x="425.495694" y="185.393079" style="stroke: #000000; stroke-width: 0.8"/>
      </g>
     </g>
     <g id="text_8">
      <!-- 35 -->
      <g transform="translate(419.934756 196.050892) scale(0.1 -0.1)">
       <use xlink:href="#ArialMT-33"/>
       <use xlink:href="#ArialMT-35" x="55.615234"/>
      </g>
     </g>
    </g>
    <g id="xtick_9">
     <g id="line2d_17">
      <path d="M 480.416954 185.393079 
L 480.416954 10.778906 
" clip-path="url(#p4233e0950f)" style="fill: none; stroke: #b0b0b0; stroke-width: 0.8; stroke-linecap: square"/>
     </g>
     <g id="line2d_18">
      <g>
       <use xlink:href="#m0a29a83141" x="480.416954" y="185.393079" style="stroke: #000000; stroke-width: 0.8"/>
      </g>
     </g>
     <g id="text_9">
      <!-- 40 -->
      <g transform="translate(474.856016 196.050892) scale(0.1 -0.1)">
       <defs>
        <path id="ArialMT-34" d="M 2069 0 
L 2069 1097 
L 81 1097 
L 81 1613 
L 2172 4581 
L 2631 4581 
L 2631 1613 
L 3250 1613 
L 3250 1097 
L 2631 1097 
L 2631 0 
L 2069 0 
z
M 2069 1613 
L 2069 3678 
L 634 1613 
L 2069 1613 
z
" transform="scale(0.015625)"/>
       </defs>
       <use xlink:href="#ArialMT-34"/>
       <use xlink:href="#ArialMT-30" x="55.615234"/>
      </g>
     </g>
    </g>
    <g id="text_10">
     <!-- Time (s) -->
     <g transform="translate(242.590508 209.318079) scale(0.1 -0.1)">
      <defs>
       <path id="ArialMT-54" d="M 1659 0 
L 1659 4041 
L 150 4041 
L 150 4581 
L 3781 4581 
L 3781 4041 
L 2266 4041 
L 2266 0 
L 1659 0 
z
" transform="scale(0.015625)"/>
       <path id="ArialMT-69" d="M 425 3934 
L 425 4581 
L 988 4581 
L 988 3934 
L 425 3934 
z
M 425 0 
L 425 3319 
L 988 3319 
L 988 0 
L 425 0 
z
" transform="scale(0.015625)"/>
       <path id="ArialMT-6d" d="M 422 0 
L 422 3319 
L 925 3319 
L 925 2853 
Q 1081 3097 1340 3245 
Q 1600 3394 1931 3394 
Q 2300 3394 2536 3241 
Q 2772 3088 2869 2813 
Q 3263 3394 3894 3394 
Q 4388 3394 4653 3120 
Q 4919 2847 4919 2278 
L 4919 0 
L 4359 0 
L 4359 2091 
Q 4359 2428 4304 2576 
Q 4250 2725 4106 2815 
Q 3963 2906 3769 2906 
Q 3419 2906 3187 2673 
Q 2956 2441 2956 1928 
L 2956 0 
L 2394 0 
L 2394 2156 
Q 2394 2531 2256 2718 
Q 2119 2906 1806 2906 
Q 1569 2906 1367 2781 
Q 1166 2656 1075 2415 
Q 984 2175 984 1722 
L 984 0 
L 422 0 
z
" transform="scale(0.015625)"/>
       <path id="ArialMT-65" d="M 2694 1069 
L 3275 997 
Q 3138 488 2766 206 
Q 2394 -75 1816 -75 
Q 1088 -75 661 373 
Q 234 822 234 1631 
Q 234 2469 665 2931 
Q 1097 3394 1784 3394 
Q 2450 3394 2872 2941 
Q 3294 2488 3294 1666 
Q 3294 1616 3291 1516 
L 816 1516 
Q 847 969 1125 678 
Q 1403 388 1819 388 
Q 2128 388 2347 550 
Q 2566 713 2694 1069 
z
M 847 1978 
L 2700 1978 
Q 2663 2397 2488 2606 
Q 2219 2931 1791 2931 
Q 1403 2931 1139 2672 
Q 875 2413 847 1978 
z
" transform="scale(0.015625)"/>
       <path id="ArialMT-20" transform="scale(0.015625)"/>
       <path id="ArialMT-28" d="M 1497 -1347 
Q 1031 -759 709 28 
Q 388 816 388 1659 
Q 388 2403 628 3084 
Q 909 3875 1497 4659 
L 1900 4659 
Q 1522 4009 1400 3731 
Q 1209 3300 1100 2831 
Q 966 2247 966 1656 
Q 966 153 1900 -1347 
L 1497 -1347 
z
" transform="scale(0.015625)"/>
       <path id="ArialMT-73" d="M 197 991 
L 753 1078 
Q 800 744 1014 566 
Q 1228 388 1613 388 
Q 2000 388 2187 545 
Q 2375 703 2375 916 
Q 2375 1106 2209 1216 
Q 2094 1291 1634 1406 
Q 1016 1563 777 1677 
Q 538 1791 414 1992 
Q 291 2194 291 2438 
Q 291 2659 392 2848 
Q 494 3038 669 3163 
Q 800 3259 1026 3326 
Q 1253 3394 1513 3394 
Q 1903 3394 2198 3281 
Q 2494 3169 2634 2976 
Q 2775 2784 2828 2463 
L 2278 2388 
Q 2241 2644 2061 2787 
Q 1881 2931 1553 2931 
Q 1166 2931 1000 2803 
Q 834 2675 834 2503 
Q 834 2394 903 2306 
Q 972 2216 1119 2156 
Q 1203 2125 1616 2013 
Q 2213 1853 2448 1751 
Q 2684 1650 2818 1456 
Q 2953 1263 2953 975 
Q 2953 694 2789 445 
Q 2625 197 2315 61 
Q 2006 -75 1616 -75 
Q 969 -75 630 194 
Q 291 463 197 991 
z
" transform="scale(0.015625)"/>
       <path id="ArialMT-29" d="M 791 -1347 
L 388 -1347 
Q 1322 153 1322 1656 
Q 1322 2244 1188 2822 
Q 1081 3291 891 3722 
Q 769 4003 388 4659 
L 791 4659 
Q 1378 3875 1659 3084 
Q 1900 2403 1900 1659 
Q 1900 816 1576 28 
Q 1253 -759 791 -1347 
z
" transform="scale(0.015625)"/>
      </defs>
      <use xlink:href="#ArialMT-54"/>
      <use xlink:href="#ArialMT-69" x="57.333984"/>
      <use xlink:href="#ArialMT-6d" x="79.550781"/>
      <use xlink:href="#ArialMT-65" x="162.851562"/>
      <use xlink:href="#ArialMT-20" x="218.466797"/>
      <use xlink:href="#ArialMT-28" x="246.25"/>
      <use xlink:href="#ArialMT-73" x="279.550781"/>
      <use xlink:href="#ArialMT-29" x="329.550781"/>
     </g>
    </g>
   </g>
   <g id="matplotlib.axis_2">
    <g id="ytick_1">
     <g id="line2d_19">
      <path d="M 41.046875 185.393079 
L 480.416954 185.393079 
" clip-path="url(#p4233e0950f)" style="fill: none; stroke: #b0b0b0; stroke-width: 0.8; stroke-linecap: square"/>
     </g>
     <g id="line2d_20">
      <defs>
       <path id="m68287a1bf6" d="M 0 0 
L 3.5 0 
" style="stroke: #000000; stroke-width: 0.8"/>
      </defs>
      <g>
       <use xlink:href="#m68287a1bf6" x="41.046875" y="185.393079" style="stroke: #000000; stroke-width: 0.8"/>
      </g>
     </g>
     <g id="text_11">
      <!-- −20 -->
      <g transform="translate(20.584375 188.971986) scale(0.1 -0.1)">
       <defs>
        <path id="ArialMT-2212" d="M 3381 1997 
L 356 1997 
L 356 2522 
L 3381 2522 
L 3381 1997 
z
" transform="scale(0.015625)"/>
       </defs>
       <use xlink:href="#ArialMT-2212"/>
       <use xlink:href="#ArialMT-32" x="58.398438"/>
       <use xlink:href="#ArialMT-30" x="114.013672"/>
      </g>
     </g>
    </g>
    <g id="ytick_2">
     <g id="line2d_21">
      <path d="M 41.046875 141.739536 
L 480.416954 141.739536 
" clip-path="url(#p4233e0950f)" style="fill: none; stroke: #b0b0b0; stroke-width: 0.8; stroke-linecap: square"/>
     </g>
     <g id="line2d_22">
      <g>
       <use xlink:href="#m68287a1bf6" x="41.046875" y="141.739536" style="stroke: #000000; stroke-width: 0.8"/>
      </g>
     </g>
     <g id="text_12">
      <!-- 0 -->
      <g transform="translate(31.985938 145.318442) scale(0.1 -0.1)">
       <use xlink:href="#ArialMT-30"/>
      </g>
     </g>
    </g>
    <g id="ytick_3">
     <g id="line2d_23">
      <path d="M 41.046875 98.085993 
L 480.416954 98.085993 
" clip-path="url(#p4233e0950f)" style="fill: none; stroke: #b0b0b0; stroke-width: 0.8; stroke-linecap: square"/>
     </g>
     <g id="line2d_24">
      <g>
       <use xlink:href="#m68287a1bf6" x="41.046875" y="98.085993" style="stroke: #000000; stroke-width: 0.8"/>
      </g>
     </g>
     <g id="text_13">
      <!-- 20 -->
      <g transform="translate(26.425 101.664899) scale(0.1 -0.1)">
       <use xlink:href="#ArialMT-32"/>
       <use xlink:href="#ArialMT-30" x="55.615234"/>
      </g>
     </g>
    </g>
    <g id="ytick_4">
     <g id="line2d_25">
      <path d="M 41.046875 54.43245 
L 480.416954 54.43245 
" clip-path="url(#p4233e0950f)" style="fill: none; stroke: #b0b0b0; stroke-width: 0.8; stroke-linecap: square"/>
     </g>
     <g id="line2d_26">
      <g>
       <use xlink:href="#m68287a1bf6" x="41.046875" y="54.43245" style="stroke: #000000; stroke-width: 0.8"/>
      </g>
     </g>
     <g id="text_14">
      <!-- 40 -->
      <g transform="translate(26.425 58.011356) scale(0.1 -0.1)">
       <use xlink:href="#ArialMT-34"/>
       <use xlink:href="#ArialMT-30" x="55.615234"/>
      </g>
     </g>
    </g>
    <g id="ytick_5">
     <g id="line2d_27">
      <path d="M 41.046875 10.778906 
L 480.416954 10.778906 
" clip-path="url(#p4233e0950f)" style="fill: none; stroke: #b0b0b0; stroke-width: 0.8; stroke-linecap: square"/>
     </g>
     <g id="line2d_28">
      <g>
       <use xlink:href="#m68287a1bf6" x="41.046875" y="10.778906" style="stroke: #000000; stroke-width: 0.8"/>
      </g>
     </g>
     <g id="text_15">
      <!-- 60 -->
      <g transform="translate(26.425 14.357812) scale(0.1 -0.1)">
       <defs>
        <path id="ArialMT-36" d="M 3184 3459 
L 2625 3416 
Q 2550 3747 2413 3897 
Q 2184 4138 1850 4138 
Q 1581 4138 1378 3988 
Q 1113 3794 959 3422 
Q 806 3050 800 2363 
Q 1003 2672 1297 2822 
Q 1591 2972 1913 2972 
Q 2475 2972 2870 2558 
Q 3266 2144 3266 1488 
Q 3266 1056 3080 686 
Q 2894 316 2569 119 
Q 2244 -78 1831 -78 
Q 1128 -78 684 439 
Q 241 956 241 2144 
Q 241 3472 731 4075 
Q 1159 4600 1884 4600 
Q 2425 4600 2770 4297 
Q 3116 3994 3184 3459 
z
M 888 1484 
Q 888 1194 1011 928 
Q 1134 663 1356 523 
Q 1578 384 1822 384 
Q 2178 384 2434 671 
Q 2691 959 2691 1453 
Q 2691 1928 2437 2201 
Q 2184 2475 1800 2475 
Q 1419 2475 1153 2201 
Q 888 1928 888 1484 
z
" transform="scale(0.015625)"/>
       </defs>
       <use xlink:href="#ArialMT-36"/>
       <use xlink:href="#ArialMT-30" x="55.615234"/>
      </g>
     </g>
    </g>
    <g id="text_16">
     <!-- Displacement (cm) -->
     <g transform="translate(14.479688 139.758649) rotate(-90) scale(0.1 -0.1)">
      <defs>
       <path id="ArialMT-44" d="M 494 0 
L 494 4581 
L 2072 4581 
Q 2606 4581 2888 4516 
Q 3281 4425 3559 4188 
Q 3922 3881 4101 3404 
Q 4281 2928 4281 2316 
Q 4281 1794 4159 1391 
Q 4038 988 3847 723 
Q 3656 459 3429 307 
Q 3203 156 2883 78 
Q 2563 0 2147 0 
L 494 0 
z
M 1100 541 
L 2078 541 
Q 2531 541 2789 625 
Q 3047 709 3200 863 
Q 3416 1078 3536 1442 
Q 3656 1806 3656 2325 
Q 3656 3044 3420 3430 
Q 3184 3816 2847 3947 
Q 2603 4041 2063 4041 
L 1100 4041 
L 1100 541 
z
" transform="scale(0.015625)"/>
       <path id="ArialMT-70" d="M 422 -1272 
L 422 3319 
L 934 3319 
L 934 2888 
Q 1116 3141 1344 3267 
Q 1572 3394 1897 3394 
Q 2322 3394 2647 3175 
Q 2972 2956 3137 2557 
Q 3303 2159 3303 1684 
Q 3303 1175 3120 767 
Q 2938 359 2589 142 
Q 2241 -75 1856 -75 
Q 1575 -75 1351 44 
Q 1128 163 984 344 
L 984 -1272 
L 422 -1272 
z
M 931 1641 
Q 931 1000 1190 694 
Q 1450 388 1819 388 
Q 2194 388 2461 705 
Q 2728 1022 2728 1688 
Q 2728 2322 2467 2637 
Q 2206 2953 1844 2953 
Q 1484 2953 1207 2617 
Q 931 2281 931 1641 
z
" transform="scale(0.015625)"/>
       <path id="ArialMT-6c" d="M 409 0 
L 409 4581 
L 972 4581 
L 972 0 
L 409 0 
z
" transform="scale(0.015625)"/>
       <path id="ArialMT-61" d="M 2588 409 
Q 2275 144 1986 34 
Q 1697 -75 1366 -75 
Q 819 -75 525 192 
Q 231 459 231 875 
Q 231 1119 342 1320 
Q 453 1522 633 1644 
Q 813 1766 1038 1828 
Q 1203 1872 1538 1913 
Q 2219 1994 2541 2106 
Q 2544 2222 2544 2253 
Q 2544 2597 2384 2738 
Q 2169 2928 1744 2928 
Q 1347 2928 1158 2789 
Q 969 2650 878 2297 
L 328 2372 
Q 403 2725 575 2942 
Q 747 3159 1072 3276 
Q 1397 3394 1825 3394 
Q 2250 3394 2515 3294 
Q 2781 3194 2906 3042 
Q 3031 2891 3081 2659 
Q 3109 2516 3109 2141 
L 3109 1391 
Q 3109 606 3145 398 
Q 3181 191 3288 0 
L 2700 0 
Q 2613 175 2588 409 
z
M 2541 1666 
Q 2234 1541 1622 1453 
Q 1275 1403 1131 1340 
Q 988 1278 909 1158 
Q 831 1038 831 891 
Q 831 666 1001 516 
Q 1172 366 1500 366 
Q 1825 366 2078 508 
Q 2331 650 2450 897 
Q 2541 1088 2541 1459 
L 2541 1666 
z
" transform="scale(0.015625)"/>
       <path id="ArialMT-63" d="M 2588 1216 
L 3141 1144 
Q 3050 572 2676 248 
Q 2303 -75 1759 -75 
Q 1078 -75 664 370 
Q 250 816 250 1647 
Q 250 2184 428 2587 
Q 606 2991 970 3192 
Q 1334 3394 1763 3394 
Q 2303 3394 2647 3120 
Q 2991 2847 3088 2344 
L 2541 2259 
Q 2463 2594 2264 2762 
Q 2066 2931 1784 2931 
Q 1359 2931 1093 2626 
Q 828 2322 828 1663 
Q 828 994 1084 691 
Q 1341 388 1753 388 
Q 2084 388 2306 591 
Q 2528 794 2588 1216 
z
" transform="scale(0.015625)"/>
       <path id="ArialMT-6e" d="M 422 0 
L 422 3319 
L 928 3319 
L 928 2847 
Q 1294 3394 1984 3394 
Q 2284 3394 2536 3286 
Q 2788 3178 2913 3003 
Q 3038 2828 3088 2588 
Q 3119 2431 3119 2041 
L 3119 0 
L 2556 0 
L 2556 2019 
Q 2556 2363 2490 2533 
Q 2425 2703 2258 2804 
Q 2091 2906 1866 2906 
Q 1506 2906 1245 2678 
Q 984 2450 984 1813 
L 984 0 
L 422 0 
z
" transform="scale(0.015625)"/>
       <path id="ArialMT-74" d="M 1650 503 
L 1731 6 
Q 1494 -44 1306 -44 
Q 1000 -44 831 53 
Q 663 150 594 308 
Q 525 466 525 972 
L 525 2881 
L 113 2881 
L 113 3319 
L 525 3319 
L 525 4141 
L 1084 4478 
L 1084 3319 
L 1650 3319 
L 1650 2881 
L 1084 2881 
L 1084 941 
Q 1084 700 1114 631 
Q 1144 563 1211 522 
Q 1278 481 1403 481 
Q 1497 481 1650 503 
z
" transform="scale(0.015625)"/>
      </defs>
      <use xlink:href="#ArialMT-44"/>
      <use xlink:href="#ArialMT-69" x="72.216797"/>
      <use xlink:href="#ArialMT-73" x="94.433594"/>
      <use xlink:href="#ArialMT-70" x="144.433594"/>
      <use xlink:href="#ArialMT-6c" x="200.048828"/>
      <use xlink:href="#ArialMT-61" x="222.265625"/>
      <use xlink:href="#ArialMT-63" x="277.880859"/>
      <use xlink:href="#ArialMT-65" x="327.880859"/>
      <use xlink:href="#ArialMT-6d" x="383.496094"/>
      <use xlink:href="#ArialMT-65" x="466.796875"/>
      <use xlink:href="#ArialMT-6e" x="522.412109"/>
      <use xlink:href="#ArialMT-74" x="578.027344"/>
      <use xlink:href="#ArialMT-20" x="605.810547"/>
      <use xlink:href="#ArialMT-28" x="633.59375"/>
      <use xlink:href="#ArialMT-63" x="666.894531"/>
      <use xlink:href="#ArialMT-6d" x="716.894531"/>
      <use xlink:href="#ArialMT-29" x="800.195312"/>
     </g>
    </g>
   </g>
   <g id="line2d_29">
    <path d="M 41.046875 141.739536 
L 78.942544 141.655946 
L 82.787032 141.496822 
L 86.082308 141.662843 
L 87.180733 141.838648 
L 88.279158 142.149758 
L 89.377584 142.254707 
L 91.025221 142.877469 
L 91.574434 142.827056 
L 92.123647 143.119578 
L 92.672859 143.57745 
L 93.222072 143.597305 
L 94.86971 141.925226 
L 95.418922 141.73845 
L 95.968135 142.210657 
L 97.615773 145.561702 
L 98.164985 146.19857 
L 98.714198 145.850046 
L 99.26341 144.487249 
L 100.361836 140.884834 
L 100.911048 139.705903 
L 101.460261 139.317037 
L 102.009473 140.095868 
L 102.558686 141.270684 
L 103.107899 142.13332 
L 103.657111 141.42637 
L 105.304749 135.00205 
L 105.853962 133.499071 
L 106.403174 132.396583 
L 107.501599 130.734347 
L 108.050812 129.185138 
L 108.600025 128.192881 
L 109.149237 128.313812 
L 109.69845 129.49002 
L 110.247662 132.374596 
L 111.8953 146.050625 
L 112.444513 149.3144 
L 112.993725 151.2624 
L 113.542938 151.380407 
L 114.092151 150.432489 
L 114.641363 150.614615 
L 115.190576 152.806707 
L 115.739788 155.79736 
L 116.289001 158.099055 
L 116.838214 159.362231 
L 117.387426 159.970851 
L 117.936639 159.28412 
L 119.035064 155.074487 
L 119.584277 154.38527 
L 120.133489 154.537712 
L 120.682702 153.309395 
L 121.231914 148.953338 
L 123.428765 121.879344 
L 123.977977 120.567939 
L 124.52719 123.315939 
L 125.625615 133.886092 
L 126.174828 134.896192 
L 126.72404 131.40605 
L 128.371678 112.230795 
L 128.920891 110.796446 
L 129.470103 115.54807 
L 130.568529 134.694594 
L 131.117741 141.114768 
L 131.666954 143.767769 
L 132.216166 143.686468 
L 132.765379 142.653141 
L 133.314592 143.284898 
L 133.863804 147.418075 
L 135.511442 169.074143 
L 136.060655 171.293713 
L 136.609867 169.01685 
L 137.15908 163.643534 
L 138.257505 151.468443 
L 138.806718 149.138974 
L 139.35593 151.203234 
L 140.454355 161.638778 
L 141.003568 164.066639 
L 141.552781 162.083454 
L 142.101993 156.031216 
L 143.749631 131.375481 
L 144.298844 126.69915 
L 144.848056 125.217368 
L 145.397269 126.1121 
L 145.946481 128.269711 
L 147.594119 136.630422 
L 148.143332 137.220782 
L 148.692544 135.709552 
L 150.340182 128.031456 
L 150.889395 126.625706 
L 151.438607 127.212215 
L 151.98782 130.654463 
L 153.635458 146.619677 
L 154.18467 149.050981 
L 154.733883 149.449808 
L 155.283095 147.708077 
L 156.381521 140.326377 
L 156.930733 136.794004 
L 157.479946 134.113669 
L 158.029158 132.100151 
L 158.578371 130.741324 
L 159.127584 130.732131 
L 159.676796 132.696841 
L 160.226009 136.081783 
L 161.873647 149.0865 
L 162.422859 151.426562 
L 162.972072 150.824669 
L 163.521284 148.068581 
L 164.070497 144.680823 
L 164.61971 142.675996 
L 165.168922 143.121958 
L 165.718135 146.10057 
L 166.81656 155.637252 
L 167.365773 158.429261 
L 167.914985 158.258039 
L 168.464198 155.505406 
L 170.111836 144.450507 
L 170.661048 143.08031 
L 171.210261 143.510115 
L 171.759473 144.483421 
L 172.308686 144.875423 
L 172.857899 144.65782 
L 173.407111 143.95202 
L 174.505536 141.91251 
L 175.603962 140.814974 
L 176.153174 139.760268 
L 176.702387 137.903751 
L 178.350025 129.945889 
L 178.899237 128.216983 
L 179.44845 127.333229 
L 179.997662 127.013049 
L 180.546875 127.268819 
L 181.096088 128.237449 
L 183.292938 133.879896 
L 183.842151 135.687181 
L 184.391363 136.91577 
L 184.940576 137.554111 
L 186.039001 138.188408 
L 186.588214 139.199074 
L 187.137426 141.528917 
L 187.686639 145.028786 
L 188.785064 153.416814 
L 189.334277 156.621927 
L 189.883489 158.525825 
L 190.432702 159.405001 
L 190.981914 159.561969 
L 191.531127 159.262507 
L 192.08034 158.344741 
L 192.629552 156.586315 
L 193.727977 151.446288 
L 195.375615 142.438935 
L 195.924828 140.655401 
L 197.572466 137.548658 
L 198.121678 135.790511 
L 198.670891 133.152844 
L 199.769316 126.942961 
L 200.318529 125.303545 
L 200.867741 125.509785 
L 201.416954 127.266835 
L 203.613804 137.20665 
L 205.261442 142.397695 
L 205.810655 143.610517 
L 206.359867 144.192479 
L 206.90908 144.041141 
L 208.007505 143.164483 
L 208.556718 143.160753 
L 209.10593 143.934005 
L 209.655143 145.575307 
L 210.753568 149.268365 
L 211.302781 150.024309 
L 211.851993 149.422602 
L 212.401206 147.261632 
L 213.499631 141.565542 
L 214.048844 139.880214 
L 214.598056 139.090297 
L 215.147269 138.91673 
L 216.245694 139.555761 
L 216.794906 139.666389 
L 217.344119 140.194446 
L 217.893332 141.853925 
L 220.090182 151.342979 
L 220.639395 152.113157 
L 221.188607 151.941862 
L 221.73782 150.873354 
L 222.287032 149.383439 
L 222.836245 148.262422 
L 223.385458 147.843818 
L 224.483883 147.689234 
L 225.033095 147.277005 
L 225.582308 146.223111 
L 226.131521 144.094036 
L 227.229946 137.952887 
L 228.877584 128.311079 
L 229.426796 125.726617 
L 229.976009 123.965021 
L 230.525221 123.311836 
L 231.074434 123.809022 
L 231.623647 125.241018 
L 232.722072 129.705483 
L 233.820497 133.852612 
L 234.918922 136.696322 
L 235.468135 138.523038 
L 236.017347 141.167132 
L 237.115773 148.77933 
L 238.214198 156.347946 
L 238.76341 159.045947 
L 239.312623 161.083667 
L 239.861836 162.658415 
L 240.411048 163.785276 
L 240.960261 164.274406 
L 241.509473 164.022018 
L 242.058686 162.943175 
L 242.607899 160.597703 
L 243.706324 152.576371 
L 245.353962 139.74415 
L 245.903174 136.518167 
L 247.550812 128.557915 
L 249.19845 119.392815 
L 249.747662 117.520799 
L 250.296875 116.868616 
L 250.846088 117.453787 
L 251.3953 119.044613 
L 251.944513 121.307876 
L 253.042938 127.288256 
L 254.690576 138.878035 
L 256.338214 150.63331 
L 257.436639 156.366641 
L 257.985851 158.534998 
L 259.084277 161.56365 
L 259.633489 162.774943 
L 260.182702 163.635218 
L 260.731914 163.799572 
L 261.281127 163.094184 
L 261.83034 161.4731 
L 262.379552 159.03832 
L 263.477977 152.215217 
L 266.773253 127.933739 
L 267.322466 125.138039 
L 267.871678 123.137832 
L 268.420891 121.921527 
L 268.970103 121.2553 
L 269.519316 120.990619 
L 270.068529 120.992444 
L 270.617741 121.207751 
L 271.166954 121.795218 
L 271.716166 123.15507 
L 272.265379 125.59852 
L 272.814592 129.075388 
L 273.913017 138.457418 
L 275.011442 148.738308 
L 276.109867 156.99876 
L 276.65908 160.2751 
L 277.208292 162.733531 
L 277.757505 164.365403 
L 278.306718 165.25861 
L 278.85593 165.402586 
L 279.405143 164.630107 
L 279.954355 162.869486 
L 281.052781 157.292175 
L 282.151206 150.241146 
L 283.798844 137.905337 
L 285.446481 125.368493 
L 285.995694 122.123945 
L 286.544906 119.741856 
L 287.094119 118.180771 
L 287.643332 117.404063 
L 288.192544 117.519081 
L 288.741757 118.592344 
L 289.290969 120.539446 
L 289.840182 123.21361 
L 290.938607 130.372421 
L 292.586245 142.37916 
L 294.233883 152.756091 
L 295.332308 158.630698 
L 296.430733 162.977529 
L 296.979946 164.165232 
L 297.529158 164.516527 
L 298.078371 164.188402 
L 298.627584 163.254204 
L 299.176796 161.573517 
L 299.726009 159.146629 
L 300.275221 156.083526 
L 301.373647 148.127304 
L 303.021284 135.746452 
L 304.11971 129.80671 
L 305.218135 125.751362 
L 306.31656 122.706957 
L 306.865773 121.5448 
L 307.414985 120.756959 
L 307.964198 120.716433 
L 308.51341 121.584 
L 309.062623 123.274447 
L 309.611836 125.715585 
L 310.710261 132.148275 
L 314.005536 153.469423 
L 314.554749 155.684043 
L 315.103962 157.30134 
L 315.653174 158.489496 
L 316.202387 159.362164 
L 316.751599 159.952745 
L 317.300812 160.363234 
L 317.850025 160.520113 
L 318.399237 160.253733 
L 318.94845 159.392726 
L 319.497662 157.847345 
L 320.046875 155.59329 
L 321.1453 149.22326 
L 323.891363 131.34662 
L 324.440576 128.54591 
L 324.989788 126.336119 
L 325.539001 124.710152 
L 326.088214 123.562494 
L 326.637426 122.877947 
L 327.186639 122.680969 
L 327.735851 122.924976 
L 328.285064 123.547607 
L 328.834277 124.590201 
L 329.383489 126.05276 
L 329.932702 127.981916 
L 331.031127 133.344586 
L 332.678765 143.639404 
L 333.77719 150.589367 
L 334.875615 156.206927 
L 335.424828 158.392267 
L 335.97404 160.018329 
L 336.523253 161.099936 
L 337.072466 161.682054 
L 337.621678 161.791963 
L 338.170891 161.444271 
L 338.720103 160.670258 
L 339.269316 159.45342 
L 339.818529 157.803688 
L 340.367741 155.755771 
L 340.916954 153.201115 
L 342.015379 146.515568 
L 344.761442 127.123961 
L 345.859867 121.649454 
L 346.40908 119.864941 
L 346.958292 118.749583 
L 347.507505 118.29145 
L 348.056718 118.475755 
L 348.60593 119.299116 
L 349.155143 120.761397 
L 349.704355 122.873969 
L 350.802781 128.715138 
L 351.901206 136.147741 
L 355.196481 160.347558 
L 356.294906 165.864404 
L 356.844119 167.530179 
L 357.393332 168.301704 
L 357.942544 168.147143 
L 358.491757 167.069789 
L 359.040969 165.133209 
L 359.590182 162.425432 
L 360.688607 155.157307 
L 362.885458 137.412836 
L 364.533095 124.838193 
L 365.631521 118.631552 
L 366.180733 116.521147 
L 366.729946 115.199629 
L 367.279158 114.754882 
L 367.828371 115.191244 
L 368.377584 116.472784 
L 368.926796 118.593784 
L 369.476009 121.508866 
L 370.574434 129.16082 
L 373.320497 150.872993 
L 374.418922 157.973909 
L 375.517347 163.829809 
L 376.06656 166.079406 
L 376.615773 167.68696 
L 377.164985 168.531846 
L 377.714198 168.496988 
L 378.26341 167.53553 
L 378.812623 165.706575 
L 379.361836 163.077888 
L 380.460261 155.801348 
L 382.107899 141.944945 
L 383.755536 128.257072 
L 384.853962 121.081387 
L 385.403174 118.331307 
L 385.952387 116.176379 
L 386.501599 114.675743 
L 387.050812 113.910846 
L 387.600025 113.972743 
L 388.149237 114.909702 
L 388.69845 116.721091 
L 389.247662 119.354989 
L 390.346088 126.825532 
L 391.993725 141.315306 
L 393.641363 155.9353 
L 394.739788 163.621994 
L 395.289001 166.511445 
L 395.838214 168.710606 
L 396.387426 170.171759 
L 396.936639 170.866244 
L 397.485851 170.764599 
L 398.035064 169.848318 
L 398.584277 168.069376 
L 399.133489 165.386387 
L 399.682702 161.847318 
L 400.781127 152.715322 
L 404.076403 122.005631 
L 405.174828 114.866285 
L 405.72404 112.420303 
L 406.273253 110.866926 
L 406.822466 110.264902 
L 407.371678 110.671299 
L 407.920891 112.123195 
L 408.470103 114.553214 
L 409.019316 117.807492 
L 410.117741 126.383871 
L 411.765379 142.380152 
L 413.413017 158.673674 
L 414.511442 167.406871 
L 415.060655 170.581069 
L 415.609867 172.814233 
L 416.15908 174.082802 
L 416.708292 174.349115 
L 417.257505 173.606384 
L 417.806718 171.933592 
L 418.35593 169.384489 
L 418.905143 165.933455 
L 420.003568 156.663832 
L 423.848056 118.932921 
L 424.946481 112.082424 
L 425.495694 109.869995 
L 426.044906 108.61236 
L 426.594119 108.386163 
L 427.143332 109.212364 
L 427.692544 111.106635 
L 428.241757 114.051709 
L 429.340182 122.586439 
L 430.98782 139.306567 
L 432.635458 156.143173 
L 433.733883 165.250284 
L 434.283095 168.824178 
L 434.832308 171.61472 
L 435.381521 173.513349 
L 435.930733 174.462204 
L 436.479946 174.425754 
L 437.029158 173.368114 
L 437.578371 171.312795 
L 438.127584 168.340606 
L 439.226009 160.003459 
L 440.324434 149.37255 
L 442.521284 126.867013 
L 443.61971 117.964057 
L 444.168922 114.577042 
L 444.718135 111.940197 
L 445.267347 110.133635 
L 445.81656 109.238477 
L 446.365773 109.300518 
L 446.914985 110.351889 
L 447.464198 112.400561 
L 448.01341 115.432812 
L 449.111836 124.110797 
L 450.759473 140.887115 
L 452.407111 157.663069 
L 453.505536 166.621179 
L 454.054749 170.038162 
L 454.603962 172.579033 
L 455.153174 174.173096 
L 455.702387 174.763392 
L 456.251599 174.322053 
L 456.800812 172.847047 
L 457.350025 170.388779 
L 457.899237 167.04293 
L 458.997662 158.02606 
L 460.6453 141.017696 
L 462.292938 124.309844 
L 463.391363 115.86024 
L 463.940576 112.814309 
L 464.489788 110.653274 
L 465.039001 109.427309 
L 465.588214 109.18535 
L 466.137426 109.945308 
L 466.686639 111.692907 
L 467.235851 114.405369 
L 467.785064 118.016265 
L 468.883489 127.37113 
L 472.178765 159.50639 
L 473.27719 167.22964 
L 473.826403 169.997761 
L 474.375615 171.914096 
L 474.924828 172.910285 
L 475.47404 172.947366 
L 476.023253 172.016744 
L 476.572466 170.1415 
L 477.121678 167.372586 
L 478.220103 159.51197 
L 479.867741 144.120968 
L 481.515379 128.516757 
L 482.613804 120.072452 
L 483.163017 116.787635 
L 483.712229 114.240259 
L 484.261442 112.506734 
L 484.810655 111.655097 
L 485.359867 111.729236 
L 485.90908 112.743576 
L 486.458292 114.681559 
L 487.007505 117.492845 
L 488.10593 125.346437 
L 489.753568 140.436331 
L 490.302781 145.674775 
L 490.302781 145.674775 
" clip-path="url(#p4233e0950f)" style="fill: none; stroke: #000000; stroke-width: 1.2; stroke-linecap: square"/>
   </g>
   <g id="line2d_30">
    <path d="M 41.046875 141.739545 
L 52.58034 141.656207 
L 55.326403 141.596269 
L 61.367741 141.550141 
L 63.015379 141.766648 
L 66.859867 141.750202 
L 70.155143 142.00044 
L 72.351993 142.03865 
L 72.901206 141.6502 
L 73.450418 141.680973 
L 74.548844 141.370938 
L 75.098056 140.708355 
L 75.647269 140.766517 
L 76.745694 140.558524 
L 78.393332 141.631739 
L 78.942544 141.800617 
L 79.491757 142.868705 
L 80.590182 142.655932 
L 81.139395 141.947228 
L 81.688607 142.140664 
L 82.23782 141.517309 
L 82.787032 141.475627 
L 83.336245 140.150404 
L 83.885458 140.934602 
L 84.43467 141.145459 
L 84.983883 141.146078 
L 85.533095 141.598632 
L 86.082308 142.454427 
L 86.631521 141.993658 
L 87.180733 140.687793 
L 87.729946 139.9786 
L 88.279158 137.911095 
L 88.828371 139.567881 
L 89.926796 141.85396 
L 90.476009 141.69398 
L 91.025221 142.56614 
L 91.574434 140.373013 
L 92.123647 142.441306 
L 93.222072 144.886431 
L 93.771284 141.588747 
L 94.320497 139.14216 
L 94.86971 137.994386 
L 95.418922 143.430414 
L 95.968135 143.270646 
L 97.06656 138.962332 
L 97.615773 140.784472 
L 98.164985 143.162741 
L 98.714198 144.303847 
L 99.26341 138.615519 
L 99.812623 138.822711 
L 100.361836 137.401807 
L 101.460261 139.814588 
L 102.009473 138.663764 
L 102.558686 139.599769 
L 103.107899 136.794437 
L 103.657111 137.901412 
L 104.206324 135.243466 
L 104.755536 135.04759 
L 105.304749 137.538229 
L 105.853962 131.812299 
L 106.403174 134.608343 
L 106.952387 129.538676 
L 107.501599 132.457046 
L 108.050812 128.658844 
L 108.600025 127.968481 
L 109.149237 130.878785 
L 109.69845 132.039839 
L 110.247662 134.860672 
L 110.796875 140.66441 
L 111.346088 140.97683 
L 111.8953 145.899149 
L 112.444513 145.09026 
L 112.993725 150.887584 
L 113.542938 152.667753 
L 114.092151 155.953319 
L 114.641363 149.714648 
L 115.190576 155.086439 
L 115.739788 155.870146 
L 116.289001 157.988279 
L 116.838214 157.886204 
L 117.387426 161.303314 
L 117.936639 159.042825 
L 118.485851 161.569978 
L 119.035064 157.781183 
L 119.584277 156.349527 
L 120.133489 154.454002 
L 120.682702 155.158969 
L 121.231914 148.153874 
L 121.781127 150.306039 
L 122.33034 136.094827 
L 122.879552 127.682278 
L 123.428765 131.460718 
L 123.977977 130.489897 
L 124.52719 128.627534 
L 125.076403 129.939089 
L 125.625615 135.019734 
L 126.174828 134.10627 
L 126.72404 132.12193 
L 127.273253 128.129508 
L 128.371678 114.50703 
L 128.920891 114.413687 
L 129.470103 117.706079 
L 130.019316 129.452525 
L 131.117741 140.446485 
L 131.666954 144.440567 
L 132.216166 152.847663 
L 132.765379 145.342667 
L 133.314592 142.820827 
L 133.863804 150.530541 
L 134.413017 155.527778 
L 135.511442 162.221905 
L 136.060655 171.391503 
L 136.609867 168.907295 
L 137.15908 168.634415 
L 137.708292 167.120044 
L 138.257505 158.502095 
L 138.806718 152.48833 
L 139.35593 152.108188 
L 139.905143 154.515444 
L 140.454355 161.90225 
L 141.003568 164.68188 
L 141.552781 164.298198 
L 142.101993 155.519912 
L 142.651206 150.806775 
L 143.200418 139.24735 
L 143.749631 132.200193 
L 144.298844 130.485903 
L 144.848056 122.340448 
L 145.397269 123.540706 
L 145.946481 131.664669 
L 146.495694 137.286595 
L 147.044906 136.385819 
L 147.594119 139.294492 
L 148.143332 138.169598 
L 148.692544 140.665602 
L 149.241757 132.069205 
L 149.790969 130.41519 
L 150.340182 123.641329 
L 151.438607 126.63766 
L 152.537032 139.439961 
L 153.086245 147.041082 
L 153.635458 148.363124 
L 154.18467 152.8479 
L 154.733883 153.53557 
L 155.283095 152.085071 
L 155.832308 149.810125 
L 156.381521 146.06427 
L 156.930733 135.564936 
L 157.479946 133.681479 
L 158.029158 130.388899 
L 158.578371 131.684125 
L 159.127584 130.295419 
L 160.775221 143.544232 
L 161.873647 150.349646 
L 162.422859 149.805142 
L 162.972072 145.838591 
L 164.070497 141.167885 
L 164.61971 144.806614 
L 165.168922 145.289635 
L 166.267347 148.329482 
L 166.81656 153.293716 
L 167.365773 154.427821 
L 167.914985 158.478615 
L 168.464198 152.755486 
L 169.01341 152.69085 
L 170.661048 138.336338 
L 171.210261 135.582513 
L 171.759473 136.815534 
L 172.308686 138.789698 
L 172.857899 139.563687 
L 173.407111 143.797583 
L 173.956324 145.413307 
L 174.505536 142.663147 
L 176.153174 132.975492 
L 176.702387 133.585939 
L 177.251599 131.002747 
L 177.800812 131.276935 
L 178.350025 127.862984 
L 179.44845 124.779098 
L 179.997662 122.633276 
L 180.546875 122.65797 
L 181.096088 123.038388 
L 181.6453 128.564727 
L 182.194513 130.069977 
L 183.292938 131.860651 
L 183.842151 131.006291 
L 184.391363 130.378177 
L 184.940576 131.25242 
L 185.489788 133.591164 
L 186.039001 134.078387 
L 186.588214 138.804122 
L 187.686639 144.918897 
L 188.235851 147.531452 
L 188.785064 150.882671 
L 189.334277 151.667046 
L 189.883489 154.524116 
L 190.432702 156.423082 
L 190.981914 157.884365 
L 191.531127 158.295511 
L 192.08034 154.791487 
L 192.629552 150.366644 
L 193.178765 147.355063 
L 193.727977 147.182841 
L 195.375615 143.34167 
L 195.924828 141.355883 
L 196.47404 139.812309 
L 198.121678 129.080258 
L 198.670891 127.172793 
L 199.220103 124.394381 
L 199.769316 122.577451 
L 200.318529 121.245071 
L 200.867741 121.703394 
L 201.966166 125.441559 
L 203.064592 133.999787 
L 203.613804 138.329955 
L 204.712229 141.19452 
L 205.261442 141.670378 
L 205.810655 141.747709 
L 206.90908 137.634223 
L 207.458292 138.799391 
L 208.007505 141.425858 
L 208.556718 142.624975 
L 209.10593 144.092072 
L 210.204355 148.638564 
L 210.753568 149.742122 
L 211.851993 150.315951 
L 212.401206 147.944594 
L 212.950418 143.601923 
L 213.499631 141.362934 
L 214.048844 139.796238 
L 214.598056 136.92176 
L 215.147269 135.321202 
L 215.696481 135.341561 
L 216.794906 139.158343 
L 217.344119 142.169556 
L 217.893332 145.84092 
L 218.442544 146.239174 
L 218.991757 148.481486 
L 219.540969 149.16758 
L 220.090182 148.491453 
L 220.639395 149.626003 
L 221.188607 151.079127 
L 221.73782 149.463295 
L 222.836245 147.816691 
L 223.385458 147.760063 
L 223.93467 146.214707 
L 224.483883 146.640188 
L 225.033095 145.455828 
L 225.582308 146.647738 
L 226.131521 146.042517 
L 227.229946 139.04263 
L 228.328371 127.073903 
L 229.426796 122.178729 
L 229.976009 121.544514 
L 230.525221 122.022065 
L 231.074434 122.239028 
L 231.623647 123.814902 
L 232.172859 126.136033 
L 232.722072 127.860102 
L 233.271284 130.643555 
L 234.918922 135.432442 
L 236.017347 139.791603 
L 238.76341 157.423622 
L 239.312623 158.836878 
L 239.861836 161.543744 
L 240.960261 164.412609 
L 241.509473 161.965673 
L 242.058686 161.144929 
L 242.607899 158.694432 
L 246.452387 131.573153 
L 247.001599 129.961366 
L 249.19845 117.652366 
L 250.296875 114.908891 
L 251.3953 116.191104 
L 251.944513 118.454521 
L 252.493725 122.239609 
L 253.592151 132.542352 
L 254.141363 136.875223 
L 254.690576 139.880557 
L 256.338214 151.385204 
L 257.436639 157.568934 
L 259.084277 163.275484 
L 259.633489 164.821921 
L 260.182702 165.544865 
L 260.731914 166.468898 
L 261.281127 166.242667 
L 261.83034 164.77396 
L 262.379552 162.364003 
L 262.928765 158.49932 
L 265.125615 139.765552 
L 266.773253 129.287851 
L 267.871678 123.896735 
L 268.970103 121.859667 
L 269.519316 121.585521 
L 270.068529 121.034952 
L 270.617741 120.930545 
L 271.166954 121.314512 
L 271.716166 123.009242 
L 272.814592 130.09884 
L 273.913017 139.597358 
L 275.011442 151.544527 
L 276.109867 159.257174 
L 277.208292 165.475826 
L 277.757505 167.486464 
L 278.306718 167.730537 
L 278.85593 167.626297 
L 279.405143 167.085157 
L 279.954355 165.602591 
L 281.052781 160.736271 
L 281.601993 157.491757 
L 284.897269 130.024359 
L 286.544906 120.587878 
L 287.094119 118.762851 
L 287.643332 117.44212 
L 288.192544 116.791354 
L 288.741757 117.934486 
L 290.389395 127.972541 
L 292.037032 139.407913 
L 293.68467 150.839838 
L 294.233883 153.7388 
L 294.783095 157.313531 
L 295.881521 162.287914 
L 296.430733 164.33506 
L 296.979946 165.343295 
L 297.529158 166.054567 
L 298.078371 166.030843 
L 298.627584 165.886133 
L 299.176796 163.911333 
L 300.824434 151.661019 
L 301.922859 142.899261 
L 303.570497 132.129398 
L 304.11971 129.25033 
L 305.767347 122.958843 
L 307.414985 119.204727 
L 307.964198 118.75477 
L 308.51341 119.444228 
L 309.062623 121.087203 
L 309.611836 123.619425 
L 312.907111 148.114092 
L 313.456324 151.391995 
L 315.103962 157.41004 
L 316.202387 160.103195 
L 317.300812 161.008749 
L 317.850025 161.174921 
L 318.399237 160.903418 
L 318.94845 160.007051 
L 319.497662 158.183251 
L 320.596088 152.227508 
L 323.342151 132.020918 
L 324.440576 126.688583 
L 324.989788 124.565591 
L 325.539001 122.888673 
L 326.637426 120.603737 
L 327.186639 120.327512 
L 327.735851 120.254328 
L 328.285064 120.790279 
L 329.383489 123.690621 
L 329.932702 125.507247 
L 331.031127 131.883601 
L 332.678765 143.877371 
L 333.227977 147.982896 
L 334.326403 153.811402 
L 334.875615 156.195362 
L 335.97404 159.590687 
L 336.523253 161.212195 
L 337.072466 161.718367 
L 337.621678 161.989349 
L 338.170891 161.153537 
L 338.720103 160.62737 
L 339.269316 159.467533 
L 340.367741 155.530282 
L 340.916954 152.736973 
L 342.015379 145.234335 
L 344.212229 129.014908 
L 345.310655 122.924308 
L 345.859867 120.567589 
L 346.40908 118.74742 
L 346.958292 117.627285 
L 347.507505 117.005993 
L 348.056718 116.896265 
L 348.60593 118.021092 
L 349.155143 119.669276 
L 350.253568 125.096385 
L 350.802781 128.257312 
L 351.901206 136.378801 
L 353.548844 149.580382 
L 354.647269 157.029436 
L 355.745694 163.625997 
L 356.294906 166.441482 
L 356.844119 168.442332 
L 357.393332 169.827462 
L 357.942544 169.810535 
L 358.491757 168.941102 
L 359.590182 163.417133 
L 361.23782 150.941794 
L 362.885458 137.496738 
L 365.082308 121.774952 
L 365.631521 118.819902 
L 366.729946 114.703594 
L 367.279158 113.701359 
L 367.828371 113.675082 
L 368.377584 115.047897 
L 368.926796 117.915167 
L 370.025221 125.913599 
L 373.320497 151.726546 
L 374.968135 161.573388 
L 376.06656 167.113475 
L 376.615773 168.919722 
L 377.164985 170.159888 
L 377.714198 170.401572 
L 378.26341 169.640769 
L 378.812623 167.563523 
L 379.911048 160.224104 
L 383.206324 132.161929 
L 384.304749 124.271431 
L 385.403174 117.730393 
L 385.952387 115.173561 
L 386.501599 113.238091 
L 387.050812 111.905536 
L 387.600025 111.497904 
L 388.149237 112.483027 
L 388.69845 114.549423 
L 389.247662 117.401852 
L 389.796875 121.427391 
L 390.8953 131.448127 
L 391.993725 142.343961 
L 393.092151 151.302354 
L 394.739788 163.233843 
L 395.289001 166.473796 
L 396.387426 171.008916 
L 396.936639 172.214591 
L 397.485851 172.641619 
L 398.035064 171.320289 
L 398.584277 169.328341 
L 399.133489 166.19038 
L 400.231914 157.713201 
L 403.52719 126.482248 
L 404.625615 118.503147 
L 405.72404 111.505179 
L 406.273253 109.186692 
L 406.822466 108.156516 
L 407.371678 108.136554 
L 407.920891 109.997151 
L 408.470103 112.684574 
L 409.568529 120.887969 
L 410.666954 131.628981 
L 412.314592 147.727773 
L 413.962229 162.337238 
L 415.060655 170.450549 
L 415.609867 173.229372 
L 416.15908 175.204051 
L 416.708292 176.25356 
L 417.257505 175.793697 
L 417.806718 173.682211 
L 418.35593 170.729876 
L 418.905143 166.874657 
L 421.101993 144.983259 
L 422.200418 134.641468 
L 424.397269 115.959362 
L 424.946481 112.381186 
L 425.495694 109.552454 
L 426.044906 107.620304 
L 426.594119 106.686808 
L 427.143332 107.170819 
L 427.692544 109.338103 
L 428.241757 112.863168 
L 429.340182 122.740383 
L 432.086245 150.290651 
L 433.733883 164.449933 
L 434.832308 172.066756 
L 435.381521 174.675115 
L 435.930733 176.22477 
L 436.479946 176.725338 
L 437.029158 175.842905 
L 437.578371 173.389544 
L 438.127584 169.990782 
L 439.226009 160.285714 
L 441.422859 137.314568 
L 443.61971 118.5111 
L 444.718135 111.389971 
L 445.267347 108.938264 
L 445.81656 107.375068 
L 446.365773 106.920415 
L 446.914985 108.293893 
L 447.464198 110.661186 
L 448.01341 113.959161 
L 449.111836 124.041343 
L 451.857899 151.782324 
L 453.505536 165.947887 
L 454.054749 170.026874 
L 454.603962 173.164512 
L 455.153174 175.485018 
L 455.702387 176.583375 
L 456.251599 176.657494 
L 456.800812 174.879583 
L 457.350025 171.85998 
L 457.899237 168.115468 
L 458.997662 157.89239 
L 461.194513 135.339741 
L 462.842151 120.548924 
L 463.940576 112.618114 
L 464.489788 109.776008 
L 465.039001 107.817896 
L 465.588214 106.912314 
L 466.137426 107.456786 
L 466.686639 109.594314 
L 467.235851 112.697415 
L 468.334277 121.736295 
L 471.629552 153.84365 
L 473.27719 166.838596 
L 473.826403 170.172519 
L 474.375615 172.762874 
L 474.924828 174.388011 
L 475.47404 175.003783 
L 476.023253 174.259856 
L 476.572466 172.043996 
L 477.121678 168.774065 
L 478.220103 159.822562 
L 480.966166 133.671601 
L 482.613804 120.659452 
L 483.712229 113.884601 
L 484.261442 111.531036 
L 484.810655 110.054111 
L 485.359867 109.612974 
L 485.90908 110.619249 
L 486.458292 112.875961 
L 487.007505 116.15327 
L 488.10593 125.088809 
L 490.302781 146.141441 
L 490.302781 146.141441 
" clip-path="url(#p4233e0950f)" style="fill: none; stroke-dasharray: 7.68,1.92,1.2,1.92; stroke-dashoffset: 0; stroke: #ff0000; stroke-width: 1.2"/>
   </g>
   <g id="line2d_31">
    <path d="M 41.046875 141.739542 
L 53.678765 141.632281 
L 56.424828 141.614209 
L 58.072466 141.676418 
L 59.170891 141.602948 
L 61.367741 141.613268 
L 63.015379 141.855524 
L 66.859867 141.852531 
L 69.056718 142.041393 
L 71.802781 142.245887 
L 72.351993 142.132038 
L 72.901206 141.757152 
L 73.999631 141.660908 
L 74.548844 141.363526 
L 75.098056 140.730113 
L 75.647269 140.787053 
L 76.745694 140.584896 
L 77.844119 141.656483 
L 78.942544 142.103747 
L 79.491757 143.265634 
L 80.040969 143.194503 
L 80.590182 142.944973 
L 81.139395 142.250447 
L 81.688607 142.16471 
L 82.787032 141.450875 
L 83.336245 140.178131 
L 83.885458 140.866779 
L 84.983883 141.233018 
L 85.533095 141.689439 
L 86.082308 142.566359 
L 86.631521 141.942108 
L 87.729946 139.756969 
L 88.279158 137.548075 
L 89.377584 141.229429 
L 89.926796 142.279765 
L 90.476009 142.032492 
L 91.025221 142.162182 
L 91.574434 141.522129 
L 92.123647 143.259585 
L 92.672859 144.086695 
L 93.222072 143.767326 
L 93.771284 142.580729 
L 94.320497 140.097083 
L 94.86971 139.882276 
L 95.418922 144.292591 
L 95.968135 143.619494 
L 96.517347 139.428086 
L 97.06656 139.414199 
L 97.615773 142.155092 
L 98.164985 145.501931 
L 98.714198 144.762989 
L 99.26341 139.518527 
L 99.812623 140.261418 
L 100.361836 140.132105 
L 100.911048 140.421271 
L 101.460261 141.396618 
L 102.009473 137.944135 
L 102.558686 141.456749 
L 103.107899 137.453546 
L 103.657111 141.503647 
L 104.206324 137.713391 
L 104.755536 138.803117 
L 105.304749 136.228423 
L 105.853962 131.66932 
L 106.403174 135.240432 
L 106.952387 133.767869 
L 107.501599 134.935589 
L 108.050812 133.469501 
L 108.600025 130.047556 
L 109.149237 132.42161 
L 109.69845 130.514823 
L 110.247662 135.514453 
L 110.796875 139.326068 
L 111.346088 142.107567 
L 111.8953 148.806495 
L 112.444513 150.991079 
L 112.993725 154.331146 
L 113.542938 155.256694 
L 114.092151 156.950067 
L 114.641363 151.283237 
L 115.190576 155.154571 
L 115.739788 155.273933 
L 116.838214 163.549308 
L 117.387426 164.656499 
L 117.936639 158.830363 
L 118.485851 158.836299 
L 119.035064 158.671032 
L 119.584277 158.66899 
L 120.133489 157.378207 
L 120.682702 156.517693 
L 121.231914 153.977881 
L 121.781127 159.916761 
L 122.879552 130.920022 
L 123.428765 130.877565 
L 123.977977 125.735794 
L 124.52719 127.919749 
L 125.076403 131.64659 
L 125.625615 138.542067 
L 126.174828 137.615391 
L 126.72404 137.117873 
L 127.273253 133.037395 
L 127.822466 123.44439 
L 128.371678 115.854002 
L 128.920891 115.286378 
L 129.470103 120.110648 
L 130.019316 130.719231 
L 131.117741 144.663979 
L 131.666954 149.266061 
L 132.216166 152.04035 
L 132.765379 139.713419 
L 133.314592 136.947583 
L 133.863804 148.746543 
L 134.413017 155.509706 
L 134.962229 163.947767 
L 135.511442 169.433079 
L 136.060655 179.967244 
L 136.609867 173.300394 
L 137.15908 168.544014 
L 137.708292 162.008489 
L 138.257505 153.784588 
L 138.806718 151.213537 
L 139.905143 156.388524 
L 140.454355 162.829509 
L 141.003568 165.155746 
L 141.552781 165.417361 
L 142.101993 158.015091 
L 142.651206 152.130903 
L 143.200418 139.189987 
L 143.749631 136.472794 
L 144.298844 138.006573 
L 144.848056 129.491287 
L 145.397269 127.101634 
L 145.946481 131.254814 
L 146.495694 133.156947 
L 147.044906 132.887327 
L 147.594119 135.434116 
L 148.143332 135.543404 
L 148.692544 138.800427 
L 149.241757 133.030727 
L 149.790969 132.201087 
L 150.340182 126.900836 
L 151.438607 127.912073 
L 151.98782 129.589305 
L 153.086245 140.021236 
L 154.18467 147.955855 
L 154.733883 147.418736 
L 155.283095 141.627485 
L 155.832308 139.961253 
L 156.381521 137.138593 
L 156.930733 129.891932 
L 157.479946 128.871422 
L 158.029158 125.198982 
L 158.578371 125.305668 
L 159.127584 123.534999 
L 160.775221 129.602141 
L 161.873647 137.569756 
L 162.422859 138.451714 
L 162.972072 137.70864 
L 163.521284 135.531943 
L 164.070497 131.830793 
L 164.61971 131.227103 
L 165.168922 130.275069 
L 165.718135 131.638609 
L 166.81656 140.076756 
L 167.365773 140.744199 
L 167.914985 143.249687 
L 168.464198 137.057247 
L 169.01341 134.499332 
L 170.111836 125.18506 
L 170.661048 123.470579 
L 171.210261 121.322285 
L 171.759473 123.987747 
L 172.308686 125.083741 
L 172.857899 124.275989 
L 173.407111 124.201977 
L 173.956324 123.174847 
L 174.505536 120.445201 
L 175.054749 119.409732 
L 176.153174 115.984432 
L 176.702387 115.278123 
L 177.251599 110.365725 
L 177.800812 108.591188 
L 178.350025 103.875748 
L 178.899237 102.056612 
L 179.997662 99.24748 
L 180.546875 99.524574 
L 181.096088 98.956765 
L 181.6453 101.250677 
L 182.194513 100.812362 
L 182.743725 101.826837 
L 183.292938 103.279676 
L 183.842151 102.528582 
L 184.391363 102.502254 
L 184.940576 103.842806 
L 185.489788 104.34579 
L 186.039001 103.328576 
L 186.588214 105.880797 
L 187.137426 106.937778 
L 187.686639 109.02584 
L 188.785064 116.637658 
L 189.334277 117.478932 
L 189.883489 119.528508 
L 190.432702 119.24819 
L 190.981914 119.753431 
L 191.531127 119.695655 
L 192.08034 117.048096 
L 192.629552 113.711565 
L 193.727977 109.881849 
L 194.826403 101.918775 
L 195.375615 100.044444 
L 195.924828 97.294379 
L 196.47404 95.487207 
L 197.572466 90.145362 
L 198.121678 88.179913 
L 198.670891 85.705567 
L 199.220103 81.495073 
L 199.769316 78.790618 
L 200.318529 76.827575 
L 200.867741 77.057392 
L 201.416954 78.873673 
L 201.966166 79.805401 
L 203.064592 85.110207 
L 203.613804 87.122762 
L 204.163017 87.206441 
L 204.712229 87.949884 
L 205.810655 89.906832 
L 206.359867 88.838919 
L 206.90908 87.486548 
L 207.458292 87.411837 
L 208.007505 87.739329 
L 208.556718 86.124852 
L 209.10593 86.512656 
L 210.753568 90.983616 
L 211.302781 90.998645 
L 211.851993 90.062774 
L 212.401206 87.113861 
L 212.950418 83.000447 
L 214.598056 75.114853 
L 215.696481 75.375119 
L 216.245694 76.08855 
L 216.794906 75.507252 
L 217.344119 77.344307 
L 217.893332 78.526327 
L 218.442544 78.470682 
L 218.991757 81.511854 
L 219.540969 83.769576 
L 220.090182 83.452566 
L 220.639395 84.733731 
L 221.188607 84.380598 
L 221.73782 81.442838 
L 222.287032 79.764648 
L 222.836245 78.866825 
L 223.93467 75.597022 
L 224.483883 76.253559 
L 225.033095 74.683357 
L 225.582308 74.262532 
L 226.131521 71.910386 
L 226.680733 67.487073 
L 227.229946 64.568005 
L 227.779158 59.21987 
L 228.328371 55.63551 
L 228.877584 54.043797 
L 229.426796 50.256035 
L 229.976009 48.14533 
L 231.074434 46.261915 
L 231.623647 47.607986 
L 232.172859 49.668801 
L 232.722072 51.025405 
L 233.271284 53.297232 
L 233.820497 54.800611 
L 234.918922 57.205133 
L 235.468135 58.653685 
L 236.017347 60.429608 
L 238.214198 73.618542 
L 238.76341 75.429031 
L 239.312623 75.694614 
L 239.861836 77.094756 
L 240.411048 77.972015 
L 240.960261 80.011917 
L 241.509473 78.865039 
L 242.058686 78.156649 
L 242.607899 75.450143 
L 243.706324 66.830489 
L 244.804749 57.526377 
L 245.353962 53.26978 
L 245.903174 50.16134 
L 246.452387 47.712081 
L 247.001599 46.341056 
L 249.19845 33.552315 
L 249.747662 32.375082 
L 250.296875 31.696676 
L 250.846088 32.596444 
L 251.3953 33.069825 
L 251.944513 34.740338 
L 252.493725 37.63227 
L 254.141363 49.030119 
L 256.887426 66.511094 
L 257.436639 68.630534 
L 257.985851 69.659009 
L 258.535064 71.383035 
L 259.633489 74.057269 
L 260.182702 74.481874 
L 260.731914 75.126568 
L 261.281127 74.607572 
L 261.83034 73.133213 
L 262.379552 70.646328 
L 263.477977 62.999031 
L 265.125615 50.00857 
L 267.322466 37.018583 
L 267.871678 34.203919 
L 268.970103 32.292336 
L 270.617741 32.617385 
L 271.166954 33.2855 
L 271.716166 34.81146 
L 272.814592 40.483104 
L 273.913017 50.173879 
L 274.462229 55.974447 
L 275.560655 64.23672 
L 276.109867 67.511619 
L 276.65908 69.849655 
L 277.757505 75.124274 
L 278.306718 75.990312 
L 278.85593 76.097409 
L 279.405143 75.357134 
L 279.954355 73.356448 
L 281.052781 67.842545 
L 281.601993 64.292598 
L 282.151206 59.882531 
L 283.249631 52.359338 
L 284.897269 40.191086 
L 285.995694 34.389869 
L 286.544906 32.438803 
L 287.094119 31.090583 
L 287.643332 30.124663 
L 288.192544 29.595554 
L 288.741757 30.299306 
L 289.840182 35.36106 
L 290.938607 42.981804 
L 292.586245 54.892542 
L 293.68467 61.485502 
L 294.233883 63.846802 
L 294.783095 67.189518 
L 295.881521 72.402347 
L 296.430733 74.191217 
L 297.529158 75.329762 
L 298.078371 75.199822 
L 298.627584 74.839162 
L 299.176796 73.40718 
L 300.275221 67.703314 
L 303.021284 48.273396 
L 304.11971 43.279126 
L 305.767347 37.966844 
L 306.31656 36.681628 
L 306.865773 35.684926 
L 307.414985 35.157025 
L 307.964198 35.239097 
L 308.51341 36.1953 
L 309.062623 37.838378 
L 309.611836 40.357985 
L 311.259473 51.511583 
L 312.357899 59.419808 
L 313.456324 66.198111 
L 314.554749 71.081258 
L 315.103962 72.643829 
L 316.202387 74.860735 
L 317.300812 75.847779 
L 317.850025 76.073067 
L 318.94845 75.115282 
L 319.497662 73.55082 
L 320.596088 68.351546 
L 322.792938 53.683187 
L 324.989788 44.229626 
L 325.539001 42.57918 
L 326.088214 41.605141 
L 326.637426 41.08684 
L 327.735851 41.428508 
L 328.285064 42.319043 
L 328.834277 43.729518 
L 329.932702 47.386775 
L 331.031127 53.364041 
L 332.129552 60.626457 
L 333.227977 68.437007 
L 334.875615 76.897816 
L 336.523253 82.506954 
L 337.072466 83.260193 
L 337.621678 83.644308 
L 338.720103 82.475943 
L 339.269316 81.409987 
L 340.367741 77.864111 
L 341.466166 72.383063 
L 344.761442 52.404025 
L 345.859867 47.758317 
L 346.40908 46.046273 
L 346.958292 45.079537 
L 347.507505 44.524242 
L 348.056718 44.627346 
L 348.60593 45.881013 
L 349.155143 47.673922 
L 350.253568 53.322985 
L 350.802781 56.69714 
L 354.647269 84.735047 
L 355.745694 91.243745 
L 356.844119 96.494396 
L 357.393332 98.116001 
L 357.942544 98.467402 
L 358.491757 97.86802 
L 359.590182 93.107972 
L 361.23782 81.712758 
L 362.336245 73.446526 
L 364.533095 59.342957 
L 365.631521 53.718257 
L 366.729946 50.587211 
L 367.279158 49.968762 
L 367.828371 49.921053 
L 368.377584 51.346232 
L 368.926796 54.069658 
L 370.025221 61.864846 
L 373.320497 87.6903 
L 374.968135 97.583079 
L 376.06656 103.368859 
L 376.615773 105.442741 
L 377.164985 106.913919 
L 377.714198 107.345181 
L 378.26341 106.940771 
L 378.812623 105.206829 
L 379.911048 99.050044 
L 383.755536 70.384792 
L 384.853962 64.193915 
L 385.403174 61.588306 
L 385.952387 59.545043 
L 386.501599 58.057708 
L 387.050812 57.019949 
L 387.600025 56.827571 
L 388.149237 58.00681 
L 388.69845 60.217005 
L 389.247662 63.357476 
L 390.346088 72.279672 
L 393.641363 101.292778 
L 394.739788 109.647598 
L 395.838214 115.886459 
L 396.387426 118.058342 
L 396.936639 119.505894 
L 397.485851 120.220382 
L 398.035064 119.282082 
L 398.584277 117.692919 
L 399.133489 115.017496 
L 399.682702 111.605383 
L 400.781127 102.621919 
L 402.428765 88.111879 
L 405.174828 69.607053 
L 405.72404 66.622208 
L 406.273253 64.545125 
L 406.822466 63.578921 
L 407.371678 63.98217 
L 407.920891 66.111976 
L 408.470103 69.004541 
L 409.568529 77.552434 
L 411.216166 93.916843 
L 412.863804 109.39586 
L 415.060655 127.847311 
L 415.609867 130.983784 
L 416.15908 133.244427 
L 416.708292 134.655098 
L 417.257505 134.672 
L 417.806718 133.110714 
L 418.35593 130.671502 
L 418.905143 127.164382 
L 420.552781 112.529699 
L 422.200418 98.513896 
L 424.397269 81.968732 
L 424.946481 78.624901 
L 425.495694 76.059966 
L 426.044906 74.395889 
L 426.594119 73.718528 
L 427.143332 74.455493 
L 427.692544 76.840835 
L 428.241757 80.428088 
L 429.340182 90.292067 
L 432.086245 117.965833 
L 433.733883 132.571097 
L 434.832308 140.683661 
L 435.381521 143.710284 
L 435.930733 145.679095 
L 436.479946 146.561458 
L 437.029158 146.002264 
L 437.578371 143.973506 
L 438.127584 141.116365 
L 439.226009 132.648151 
L 441.422859 112.282809 
L 443.61971 95.356739 
L 444.718135 88.934554 
L 445.267347 86.848333 
L 445.81656 85.518147 
L 446.365773 85.283834 
L 446.914985 86.877175 
L 447.464198 89.452214 
L 448.01341 92.950668 
L 449.111836 103.203641 
L 451.308686 126.063544 
L 454.054749 150.146818 
L 454.603962 153.662695 
L 455.153174 156.404217 
L 455.702387 157.878032 
L 456.251599 158.31195 
L 456.800812 156.924816 
L 457.350025 154.422478 
L 457.899237 151.166418 
L 458.997662 141.990728 
L 461.743725 117.507044 
L 463.391363 104.872771 
L 463.940576 101.589663 
L 464.489788 99.027088 
L 465.039001 97.348362 
L 465.588214 96.625081 
L 466.137426 97.394602 
L 466.686639 99.700549 
L 467.235851 102.92661 
L 468.334277 112.192651 
L 471.629552 144.440388 
L 473.27719 158.093013 
L 474.375615 164.712995 
L 474.924828 166.722719 
L 475.47404 167.750287 
L 476.023253 167.407935 
L 476.572466 165.637215 
L 477.121678 162.903326 
L 477.670891 159.345614 
L 478.769316 150.297716 
L 480.416954 135.907865 
L 482.613804 120.134416 
L 483.712229 114.016516 
L 484.261442 111.922751 
L 484.810655 110.665868 
L 485.359867 110.420539 
L 485.90908 111.633189 
L 486.458292 114.05281 
L 487.007505 117.435994 
L 488.10593 126.522311 
L 490.302781 147.632661 
L 490.302781 147.632661 
" clip-path="url(#p4233e0950f)" style="fill: none; stroke-dasharray: 4.44,1.92; stroke-dashoffset: 0; stroke: #0000ff; stroke-width: 1.2"/>
   </g>
   <g id="patch_3">
    <path d="M 41.046875 185.393079 
L 41.046875 10.778906 
" style="fill: none; stroke: #000000; stroke-width: 0.8; stroke-linejoin: miter; stroke-linecap: square"/>
   </g>
   <g id="patch_4">
    <path d="M 480.416954 185.393079 
L 480.416954 10.778906 
" style="fill: none; stroke: #000000; stroke-width: 0.8; stroke-linejoin: miter; stroke-linecap: square"/>
   </g>
   <g id="patch_5">
    <path d="M 41.046875 185.393079 
L 480.416954 185.393079 
" style="fill: none; stroke: #000000; stroke-width: 0.8; stroke-linejoin: miter; stroke-linecap: square"/>
   </g>
   <g id="patch_6">
    <path d="M 41.046875 10.778906 
L 480.416954 10.778906 
" style="fill: none; stroke: #000000; stroke-width: 0.8; stroke-linejoin: miter; stroke-linecap: square"/>
   </g>
   <g id="text_17">
    <!-- 8th floor -->
    <g transform="translate(66.919039 35.190834) scale(0.1 -0.1)">
     <defs>
      <path id="ArialMT-38" d="M 1131 2484 
Q 781 2613 612 2850 
Q 444 3088 444 3419 
Q 444 3919 803 4259 
Q 1163 4600 1759 4600 
Q 2359 4600 2725 4251 
Q 3091 3903 3091 3403 
Q 3091 3084 2923 2848 
Q 2756 2613 2416 2484 
Q 2838 2347 3058 2040 
Q 3278 1734 3278 1309 
Q 3278 722 2862 322 
Q 2447 -78 1769 -78 
Q 1091 -78 675 323 
Q 259 725 259 1325 
Q 259 1772 486 2073 
Q 713 2375 1131 2484 
z
M 1019 3438 
Q 1019 3113 1228 2906 
Q 1438 2700 1772 2700 
Q 2097 2700 2305 2904 
Q 2513 3109 2513 3406 
Q 2513 3716 2298 3927 
Q 2084 4138 1766 4138 
Q 1444 4138 1231 3931 
Q 1019 3725 1019 3438 
z
M 838 1322 
Q 838 1081 952 856 
Q 1066 631 1291 507 
Q 1516 384 1775 384 
Q 2178 384 2440 643 
Q 2703 903 2703 1303 
Q 2703 1709 2433 1975 
Q 2163 2241 1756 2241 
Q 1359 2241 1098 1978 
Q 838 1716 838 1322 
z
" transform="scale(0.015625)"/>
      <path id="ArialMT-68" d="M 422 0 
L 422 4581 
L 984 4581 
L 984 2938 
Q 1378 3394 1978 3394 
Q 2347 3394 2619 3248 
Q 2891 3103 3008 2847 
Q 3125 2591 3125 2103 
L 3125 0 
L 2563 0 
L 2563 2103 
Q 2563 2525 2380 2717 
Q 2197 2909 1863 2909 
Q 1613 2909 1392 2779 
Q 1172 2650 1078 2428 
Q 984 2206 984 1816 
L 984 0 
L 422 0 
z
" transform="scale(0.015625)"/>
      <path id="ArialMT-66" d="M 556 0 
L 556 2881 
L 59 2881 
L 59 3319 
L 556 3319 
L 556 3672 
Q 556 4006 616 4169 
Q 697 4388 901 4523 
Q 1106 4659 1475 4659 
Q 1713 4659 2000 4603 
L 1916 4113 
Q 1741 4144 1584 4144 
Q 1328 4144 1222 4034 
Q 1116 3925 1116 3625 
L 1116 3319 
L 1763 3319 
L 1763 2881 
L 1116 2881 
L 1116 0 
L 556 0 
z
" transform="scale(0.015625)"/>
      <path id="ArialMT-6f" d="M 213 1659 
Q 213 2581 725 3025 
Q 1153 3394 1769 3394 
Q 2453 3394 2887 2945 
Q 3322 2497 3322 1706 
Q 3322 1066 3130 698 
Q 2938 331 2570 128 
Q 2203 -75 1769 -75 
Q 1072 -75 642 372 
Q 213 819 213 1659 
z
M 791 1659 
Q 791 1022 1069 705 
Q 1347 388 1769 388 
Q 2188 388 2466 706 
Q 2744 1025 2744 1678 
Q 2744 2294 2464 2611 
Q 2184 2928 1769 2928 
Q 1347 2928 1069 2612 
Q 791 2297 791 1659 
z
" transform="scale(0.015625)"/>
      <path id="ArialMT-72" d="M 416 0 
L 416 3319 
L 922 3319 
L 922 2816 
Q 1116 3169 1280 3281 
Q 1444 3394 1641 3394 
Q 1925 3394 2219 3213 
L 2025 2691 
Q 1819 2813 1613 2813 
Q 1428 2813 1281 2702 
Q 1134 2591 1072 2394 
Q 978 2094 978 1738 
L 978 0 
L 416 0 
z
" transform="scale(0.015625)"/>
     </defs>
     <use xlink:href="#ArialMT-38"/>
     <use xlink:href="#ArialMT-74" x="55.615234"/>
     <use xlink:href="#ArialMT-68" x="83.398438"/>
     <use xlink:href="#ArialMT-20" x="139.013672"/>
     <use xlink:href="#ArialMT-66" x="166.796875"/>
     <use xlink:href="#ArialMT-6c" x="194.580078"/>
     <use xlink:href="#ArialMT-6f" x="216.796875"/>
     <use xlink:href="#ArialMT-6f" x="272.412109"/>
     <use xlink:href="#ArialMT-72" x="328.027344"/>
    </g>
   </g>
   <g id="legend_1">
    <g id="patch_7">
     <path d="M 217.610704 32.924219 
L 473.416954 32.924219 
Q 475.416954 32.924219 475.416954 30.924219 
L 475.416954 17.778906 
Q 475.416954 15.778906 473.416954 15.778906 
L 217.610704 15.778906 
Q 215.610704 15.778906 215.610704 17.778906 
L 215.610704 30.924219 
Q 215.610704 32.924219 217.610704 32.924219 
z
" style="fill: #ffffff; opacity: 0.8; stroke: #000000; stroke-linejoin: miter"/>
    </g>
    <g id="line2d_32">
     <path d="M 219.610704 23.436719 
L 229.610704 23.436719 
L 239.610704 23.436719 
" style="fill: none; stroke: #000000; stroke-width: 1.2; stroke-linecap: square"/>
    </g>
    <g id="text_18">
     <!-- Ref. -->
     <g transform="translate(247.610704 26.936719) scale(0.1 -0.1)">
      <defs>
       <path id="ArialMT-52" d="M 503 0 
L 503 4581 
L 2534 4581 
Q 3147 4581 3465 4457 
Q 3784 4334 3975 4021 
Q 4166 3709 4166 3331 
Q 4166 2844 3850 2509 
Q 3534 2175 2875 2084 
Q 3116 1969 3241 1856 
Q 3506 1613 3744 1247 
L 4541 0 
L 3778 0 
L 3172 953 
Q 2906 1366 2734 1584 
Q 2563 1803 2427 1890 
Q 2291 1978 2150 2013 
Q 2047 2034 1813 2034 
L 1109 2034 
L 1109 0 
L 503 0 
z
M 1109 2559 
L 2413 2559 
Q 2828 2559 3062 2645 
Q 3297 2731 3419 2920 
Q 3541 3109 3541 3331 
Q 3541 3656 3305 3865 
Q 3069 4075 2559 4075 
L 1109 4075 
L 1109 2559 
z
" transform="scale(0.015625)"/>
       <path id="ArialMT-2e" d="M 581 0 
L 581 641 
L 1222 641 
L 1222 0 
L 581 0 
z
" transform="scale(0.015625)"/>
      </defs>
      <use xlink:href="#ArialMT-52"/>
      <use xlink:href="#ArialMT-65" x="72.216797"/>
      <use xlink:href="#ArialMT-66" x="127.832031"/>
      <use xlink:href="#ArialMT-2e" x="155.615234"/>
     </g>
    </g>
    <g id="line2d_33">
     <path d="M 285.949766 23.436719 
L 295.949766 23.436719 
L 305.949766 23.436719 
" style="fill: none; stroke-dasharray: 7.68,1.92,1.2,1.92; stroke-dashoffset: 0; stroke: #ff0000; stroke-width: 1.2"/>
    </g>
    <g id="text_19">
     <!-- TL-RNN pred. -->
     <g transform="translate(313.949766 26.936719) scale(0.1 -0.1)">
      <defs>
       <path id="ArialMT-4c" d="M 469 0 
L 469 4581 
L 1075 4581 
L 1075 541 
L 3331 541 
L 3331 0 
L 469 0 
z
" transform="scale(0.015625)"/>
       <path id="ArialMT-2d" d="M 203 1375 
L 203 1941 
L 1931 1941 
L 1931 1375 
L 203 1375 
z
" transform="scale(0.015625)"/>
       <path id="ArialMT-4e" d="M 488 0 
L 488 4581 
L 1109 4581 
L 3516 984 
L 3516 4581 
L 4097 4581 
L 4097 0 
L 3475 0 
L 1069 3600 
L 1069 0 
L 488 0 
z
" transform="scale(0.015625)"/>
       <path id="ArialMT-64" d="M 2575 0 
L 2575 419 
Q 2259 -75 1647 -75 
Q 1250 -75 917 144 
Q 584 363 401 755 
Q 219 1147 219 1656 
Q 219 2153 384 2558 
Q 550 2963 881 3178 
Q 1213 3394 1622 3394 
Q 1922 3394 2156 3267 
Q 2391 3141 2538 2938 
L 2538 4581 
L 3097 4581 
L 3097 0 
L 2575 0 
z
M 797 1656 
Q 797 1019 1065 703 
Q 1334 388 1700 388 
Q 2069 388 2326 689 
Q 2584 991 2584 1609 
Q 2584 2291 2321 2609 
Q 2059 2928 1675 2928 
Q 1300 2928 1048 2622 
Q 797 2316 797 1656 
z
" transform="scale(0.015625)"/>
      </defs>
      <use xlink:href="#ArialMT-54"/>
      <use xlink:href="#ArialMT-4c" x="61.083984"/>
      <use xlink:href="#ArialMT-2d" x="116.699219"/>
      <use xlink:href="#ArialMT-52" x="150"/>
      <use xlink:href="#ArialMT-4e" x="222.216797"/>
      <use xlink:href="#ArialMT-4e" x="294.433594"/>
      <use xlink:href="#ArialMT-20" x="366.650391"/>
      <use xlink:href="#ArialMT-70" x="394.433594"/>
      <use xlink:href="#ArialMT-72" x="450.048828"/>
      <use xlink:href="#ArialMT-65" x="483.349609"/>
      <use xlink:href="#ArialMT-64" x="538.964844"/>
      <use xlink:href="#ArialMT-2e" x="594.580078"/>
     </g>
    </g>
    <g id="line2d_34">
     <path d="M 396.182579 23.436719 
L 406.182579 23.436719 
L 416.182579 23.436719 
" style="fill: none; stroke-dasharray: 4.44,1.92; stroke-dashoffset: 0; stroke: #0000ff; stroke-width: 1.2"/>
    </g>
    <g id="text_20">
     <!-- RNN pred. -->
     <g transform="translate(424.182579 26.936719) scale(0.1 -0.1)">
      <use xlink:href="#ArialMT-52"/>
      <use xlink:href="#ArialMT-4e" x="72.216797"/>
      <use xlink:href="#ArialMT-4e" x="144.433594"/>
      <use xlink:href="#ArialMT-20" x="216.650391"/>
      <use xlink:href="#ArialMT-70" x="244.433594"/>
      <use xlink:href="#ArialMT-72" x="300.048828"/>
      <use xlink:href="#ArialMT-65" x="333.349609"/>
      <use xlink:href="#ArialMT-64" x="388.964844"/>
      <use xlink:href="#ArialMT-2e" x="444.580078"/>
     </g>
    </g>
   </g>
  </g>
 </g>
 <defs>
  <clipPath id="p4233e0950f">
   <rect x="41.046875" y="10.778906" width="439.370079" height="174.614173"/>
  </clipPath>
 </defs>
</svg>
