<?xml version="1.0" encoding="utf-8" standalone="no"?>
<!DOCTYPE svg PUBLIC "-//W3C//DTD SVG 1.1//EN"
  "http://www.w3.org/Graphics/SVG/1.1/DTD/svg11.dtd">
<svg xmlns:xlink="http://www.w3.org/1999/xlink" width="493.177891pt" height="218.622767pt" viewBox="0 0 493.177891 218.622767" xmlns="http://www.w3.org/2000/svg" version="1.1">
 <metadata>
  <rdf:RDF xmlns:dc="http://purl.org/dc/elements/1.1/" xmlns:cc="http://creativecommons.org/ns#" xmlns:rdf="http://www.w3.org/1999/02/22-rdf-syntax-ns#">
   <cc:Work>
    <dc:type rdf:resource="http://purl.org/dc/dcmitype/StillImage"/>
    <dc:date>2024-03-16T21:12:41.251148</dc:date>
    <dc:format>image/svg+xml</dc:format>
    <dc:creator>
     <cc:Agent>
      <dc:title>Matplotlib v3.8.2, https://matplotlib.org/</dc:title>
     </cc:Agent>
    </dc:creator>
   </cc:Work>
  </rdf:RDF>
 </metadata>
 <defs>
  <style type="text/css">*{stroke-linejoin: round; stroke-linecap: butt}</style>
 </defs>
 <g id="figure_1">
  <g id="patch_1">
   <path d="M 0 218.622767 
L 493.177891 218.622767 
L 493.177891 0 
L 0 0 
z
" style="fill: #ffffff"/>
  </g>
  <g id="axes_1">
   <g id="patch_2">
    <path d="M 41.046875 185.393079 
L 480.416954 185.393079 
L 480.416954 10.778906 
L 41.046875 10.778906 
z
" style="fill: #ffffff"/>
   </g>
   <g id="matplotlib.axis_1">
    <g id="xtick_1">
     <g id="line2d_1">
      <path d="M 41.046875 185.393079 
L 41.046875 10.778906 
" clip-path="url(#pe91b72a8c0)" style="fill: none; stroke: #b0b0b0; stroke-width: 0.8; stroke-linecap: square"/>
     </g>
     <g id="line2d_2">
      <defs>
       <path id="mde76f67744" d="M 0 0 
L 0 -3.5 
" style="stroke: #000000; stroke-width: 0.8"/>
      </defs>
      <g>
       <use xlink:href="#mde76f67744" x="41.046875" y="185.393079" style="stroke: #000000; stroke-width: 0.8"/>
      </g>
     </g>
     <g id="text_1">
      <!-- 0 -->
      <g transform="translate(38.266406 196.050892) scale(0.1 -0.1)">
       <defs>
        <path id="ArialMT-30" d="M 266 2259 
Q 266 3072 433 3567 
Q 600 4063 929 4331 
Q 1259 4600 1759 4600 
Q 2128 4600 2406 4451 
Q 2684 4303 2865 4023 
Q 3047 3744 3150 3342 
Q 3253 2941 3253 2259 
Q 3253 1453 3087 958 
Q 2922 463 2592 192 
Q 2263 -78 1759 -78 
Q 1097 -78 719 397 
Q 266 969 266 2259 
z
M 844 2259 
Q 844 1131 1108 757 
Q 1372 384 1759 384 
Q 2147 384 2411 759 
Q 2675 1134 2675 2259 
Q 2675 3391 2411 3762 
Q 2147 4134 1753 4134 
Q 1366 4134 1134 3806 
Q 844 3388 844 2259 
z
" transform="scale(0.015625)"/>
       </defs>
       <use xlink:href="#ArialMT-30"/>
      </g>
     </g>
    </g>
    <g id="xtick_2">
     <g id="line2d_3">
      <path d="M 128.920891 185.393079 
L 128.920891 10.778906 
" clip-path="url(#pe91b72a8c0)" style="fill: none; stroke: #b0b0b0; stroke-width: 0.8; stroke-linecap: square"/>
     </g>
     <g id="line2d_4">
      <g>
       <use xlink:href="#mde76f67744" x="128.920891" y="185.393079" style="stroke: #000000; stroke-width: 0.8"/>
      </g>
     </g>
     <g id="text_2">
      <!-- 10 -->
      <g transform="translate(123.359953 196.050892) scale(0.1 -0.1)">
       <defs>
        <path id="ArialMT-31" d="M 2384 0 
L 1822 0 
L 1822 3584 
Q 1619 3391 1289 3197 
Q 959 3003 697 2906 
L 697 3450 
Q 1169 3672 1522 3987 
Q 1875 4303 2022 4600 
L 2384 4600 
L 2384 0 
z
" transform="scale(0.015625)"/>
       </defs>
       <use xlink:href="#ArialMT-31"/>
       <use xlink:href="#ArialMT-30" x="55.615234"/>
      </g>
     </g>
    </g>
    <g id="xtick_3">
     <g id="line2d_5">
      <path d="M 216.794906 185.393079 
L 216.794906 10.778906 
" clip-path="url(#pe91b72a8c0)" style="fill: none; stroke: #b0b0b0; stroke-width: 0.8; stroke-linecap: square"/>
     </g>
     <g id="line2d_6">
      <g>
       <use xlink:href="#mde76f67744" x="216.794906" y="185.393079" style="stroke: #000000; stroke-width: 0.8"/>
      </g>
     </g>
     <g id="text_3">
      <!-- 20 -->
      <g transform="translate(211.233969 196.050892) scale(0.1 -0.1)">
       <defs>
        <path id="ArialMT-32" d="M 3222 541 
L 3222 0 
L 194 0 
Q 188 203 259 391 
Q 375 700 629 1000 
Q 884 1300 1366 1694 
Q 2113 2306 2375 2664 
Q 2638 3022 2638 3341 
Q 2638 3675 2398 3904 
Q 2159 4134 1775 4134 
Q 1369 4134 1125 3890 
Q 881 3647 878 3216 
L 300 3275 
Q 359 3922 746 4261 
Q 1134 4600 1788 4600 
Q 2447 4600 2831 4234 
Q 3216 3869 3216 3328 
Q 3216 3053 3103 2787 
Q 2991 2522 2730 2228 
Q 2469 1934 1863 1422 
Q 1356 997 1212 845 
Q 1069 694 975 541 
L 3222 541 
z
" transform="scale(0.015625)"/>
       </defs>
       <use xlink:href="#ArialMT-32"/>
       <use xlink:href="#ArialMT-30" x="55.615234"/>
      </g>
     </g>
    </g>
    <g id="xtick_4">
     <g id="line2d_7">
      <path d="M 304.668922 185.393079 
L 304.668922 10.778906 
" clip-path="url(#pe91b72a8c0)" style="fill: none; stroke: #b0b0b0; stroke-width: 0.8; stroke-linecap: square"/>
     </g>
     <g id="line2d_8">
      <g>
       <use xlink:href="#mde76f67744" x="304.668922" y="185.393079" style="stroke: #000000; stroke-width: 0.8"/>
      </g>
     </g>
     <g id="text_4">
      <!-- 30 -->
      <g transform="translate(299.107985 196.050892) scale(0.1 -0.1)">
       <defs>
        <path id="ArialMT-33" d="M 269 1209 
L 831 1284 
Q 928 806 1161 595 
Q 1394 384 1728 384 
Q 2125 384 2398 659 
Q 2672 934 2672 1341 
Q 2672 1728 2419 1979 
Q 2166 2231 1775 2231 
Q 1616 2231 1378 2169 
L 1441 2663 
Q 1497 2656 1531 2656 
Q 1891 2656 2178 2843 
Q 2466 3031 2466 3422 
Q 2466 3731 2256 3934 
Q 2047 4138 1716 4138 
Q 1388 4138 1169 3931 
Q 950 3725 888 3313 
L 325 3413 
Q 428 3978 793 4289 
Q 1159 4600 1703 4600 
Q 2078 4600 2393 4439 
Q 2709 4278 2876 4000 
Q 3044 3722 3044 3409 
Q 3044 3113 2884 2869 
Q 2725 2625 2413 2481 
Q 2819 2388 3044 2092 
Q 3269 1797 3269 1353 
Q 3269 753 2831 336 
Q 2394 -81 1725 -81 
Q 1122 -81 723 278 
Q 325 638 269 1209 
z
" transform="scale(0.015625)"/>
       </defs>
       <use xlink:href="#ArialMT-33"/>
       <use xlink:href="#ArialMT-30" x="55.615234"/>
      </g>
     </g>
    </g>
    <g id="xtick_5">
     <g id="line2d_9">
      <path d="M 392.542938 185.393079 
L 392.542938 10.778906 
" clip-path="url(#pe91b72a8c0)" style="fill: none; stroke: #b0b0b0; stroke-width: 0.8; stroke-linecap: square"/>
     </g>
     <g id="line2d_10">
      <g>
       <use xlink:href="#mde76f67744" x="392.542938" y="185.393079" style="stroke: #000000; stroke-width: 0.8"/>
      </g>
     </g>
     <g id="text_5">
      <!-- 40 -->
      <g transform="translate(386.982 196.050892) scale(0.1 -0.1)">
       <defs>
        <path id="ArialMT-34" d="M 2069 0 
L 2069 1097 
L 81 1097 
L 81 1613 
L 2172 4581 
L 2631 4581 
L 2631 1613 
L 3250 1613 
L 3250 1097 
L 2631 1097 
L 2631 0 
L 2069 0 
z
M 2069 1613 
L 2069 3678 
L 634 1613 
L 2069 1613 
z
" transform="scale(0.015625)"/>
       </defs>
       <use xlink:href="#ArialMT-34"/>
       <use xlink:href="#ArialMT-30" x="55.615234"/>
      </g>
     </g>
    </g>
    <g id="xtick_6">
     <g id="line2d_11">
      <path d="M 480.416954 185.393079 
L 480.416954 10.778906 
" clip-path="url(#pe91b72a8c0)" style="fill: none; stroke: #b0b0b0; stroke-width: 0.8; stroke-linecap: square"/>
     </g>
     <g id="line2d_12">
      <g>
       <use xlink:href="#mde76f67744" x="480.416954" y="185.393079" style="stroke: #000000; stroke-width: 0.8"/>
      </g>
     </g>
     <g id="text_6">
      <!-- 50 -->
      <g transform="translate(474.856016 196.050892) scale(0.1 -0.1)">
       <defs>
        <path id="ArialMT-35" d="M 266 1200 
L 856 1250 
Q 922 819 1161 601 
Q 1400 384 1738 384 
Q 2144 384 2425 690 
Q 2706 997 2706 1503 
Q 2706 1984 2436 2262 
Q 2166 2541 1728 2541 
Q 1456 2541 1237 2417 
Q 1019 2294 894 2097 
L 366 2166 
L 809 4519 
L 3088 4519 
L 3088 3981 
L 1259 3981 
L 1013 2750 
Q 1425 3038 1878 3038 
Q 2478 3038 2890 2622 
Q 3303 2206 3303 1553 
Q 3303 931 2941 478 
Q 2500 -78 1738 -78 
Q 1113 -78 717 272 
Q 322 622 266 1200 
z
" transform="scale(0.015625)"/>
       </defs>
       <use xlink:href="#ArialMT-35"/>
       <use xlink:href="#ArialMT-30" x="55.615234"/>
      </g>
     </g>
    </g>
    <g id="text_7">
     <!-- Time (s) -->
     <g transform="translate(242.590508 209.318079) scale(0.1 -0.1)">
      <defs>
       <path id="ArialMT-54" d="M 1659 0 
L 1659 4041 
L 150 4041 
L 150 4581 
L 3781 4581 
L 3781 4041 
L 2266 4041 
L 2266 0 
L 1659 0 
z
" transform="scale(0.015625)"/>
       <path id="ArialMT-69" d="M 425 3934 
L 425 4581 
L 988 4581 
L 988 3934 
L 425 3934 
z
M 425 0 
L 425 3319 
L 988 3319 
L 988 0 
L 425 0 
z
" transform="scale(0.015625)"/>
       <path id="ArialMT-6d" d="M 422 0 
L 422 3319 
L 925 3319 
L 925 2853 
Q 1081 3097 1340 3245 
Q 1600 3394 1931 3394 
Q 2300 3394 2536 3241 
Q 2772 3088 2869 2813 
Q 3263 3394 3894 3394 
Q 4388 3394 4653 3120 
Q 4919 2847 4919 2278 
L 4919 0 
L 4359 0 
L 4359 2091 
Q 4359 2428 4304 2576 
Q 4250 2725 4106 2815 
Q 3963 2906 3769 2906 
Q 3419 2906 3187 2673 
Q 2956 2441 2956 1928 
L 2956 0 
L 2394 0 
L 2394 2156 
Q 2394 2531 2256 2718 
Q 2119 2906 1806 2906 
Q 1569 2906 1367 2781 
Q 1166 2656 1075 2415 
Q 984 2175 984 1722 
L 984 0 
L 422 0 
z
" transform="scale(0.015625)"/>
       <path id="ArialMT-65" d="M 2694 1069 
L 3275 997 
Q 3138 488 2766 206 
Q 2394 -75 1816 -75 
Q 1088 -75 661 373 
Q 234 822 234 1631 
Q 234 2469 665 2931 
Q 1097 3394 1784 3394 
Q 2450 3394 2872 2941 
Q 3294 2488 3294 1666 
Q 3294 1616 3291 1516 
L 816 1516 
Q 847 969 1125 678 
Q 1403 388 1819 388 
Q 2128 388 2347 550 
Q 2566 713 2694 1069 
z
M 847 1978 
L 2700 1978 
Q 2663 2397 2488 2606 
Q 2219 2931 1791 2931 
Q 1403 2931 1139 2672 
Q 875 2413 847 1978 
z
" transform="scale(0.015625)"/>
       <path id="ArialMT-20" transform="scale(0.015625)"/>
       <path id="ArialMT-28" d="M 1497 -1347 
Q 1031 -759 709 28 
Q 388 816 388 1659 
Q 388 2403 628 3084 
Q 909 3875 1497 4659 
L 1900 4659 
Q 1522 4009 1400 3731 
Q 1209 3300 1100 2831 
Q 966 2247 966 1656 
Q 966 153 1900 -1347 
L 1497 -1347 
z
" transform="scale(0.015625)"/>
       <path id="ArialMT-73" d="M 197 991 
L 753 1078 
Q 800 744 1014 566 
Q 1228 388 1613 388 
Q 2000 388 2187 545 
Q 2375 703 2375 916 
Q 2375 1106 2209 1216 
Q 2094 1291 1634 1406 
Q 1016 1563 777 1677 
Q 538 1791 414 1992 
Q 291 2194 291 2438 
Q 291 2659 392 2848 
Q 494 3038 669 3163 
Q 800 3259 1026 3326 
Q 1253 3394 1513 3394 
Q 1903 3394 2198 3281 
Q 2494 3169 2634 2976 
Q 2775 2784 2828 2463 
L 2278 2388 
Q 2241 2644 2061 2787 
Q 1881 2931 1553 2931 
Q 1166 2931 1000 2803 
Q 834 2675 834 2503 
Q 834 2394 903 2306 
Q 972 2216 1119 2156 
Q 1203 2125 1616 2013 
Q 2213 1853 2448 1751 
Q 2684 1650 2818 1456 
Q 2953 1263 2953 975 
Q 2953 694 2789 445 
Q 2625 197 2315 61 
Q 2006 -75 1616 -75 
Q 969 -75 630 194 
Q 291 463 197 991 
z
" transform="scale(0.015625)"/>
       <path id="ArialMT-29" d="M 791 -1347 
L 388 -1347 
Q 1322 153 1322 1656 
Q 1322 2244 1188 2822 
Q 1081 3291 891 3722 
Q 769 4003 388 4659 
L 791 4659 
Q 1378 3875 1659 3084 
Q 1900 2403 1900 1659 
Q 1900 816 1576 28 
Q 1253 -759 791 -1347 
z
" transform="scale(0.015625)"/>
      </defs>
      <use xlink:href="#ArialMT-54"/>
      <use xlink:href="#ArialMT-69" x="57.333984"/>
      <use xlink:href="#ArialMT-6d" x="79.550781"/>
      <use xlink:href="#ArialMT-65" x="162.851562"/>
      <use xlink:href="#ArialMT-20" x="218.466797"/>
      <use xlink:href="#ArialMT-28" x="246.25"/>
      <use xlink:href="#ArialMT-73" x="279.550781"/>
      <use xlink:href="#ArialMT-29" x="329.550781"/>
     </g>
    </g>
   </g>
   <g id="matplotlib.axis_2">
    <g id="ytick_1">
     <g id="line2d_13">
      <path d="M 41.046875 185.393079 
L 480.416954 185.393079 
" clip-path="url(#pe91b72a8c0)" style="fill: none; stroke: #b0b0b0; stroke-width: 0.8; stroke-linecap: square"/>
     </g>
     <g id="line2d_14">
      <defs>
       <path id="m20e46046bb" d="M 0 0 
L 3.5 0 
" style="stroke: #000000; stroke-width: 0.8"/>
      </defs>
      <g>
       <use xlink:href="#m20e46046bb" x="41.046875" y="185.393079" style="stroke: #000000; stroke-width: 0.8"/>
      </g>
     </g>
     <g id="text_8">
      <!-- −15 -->
      <g transform="translate(20.584375 188.971986) scale(0.1 -0.1)">
       <defs>
        <path id="ArialMT-2212" d="M 3381 1997 
L 356 1997 
L 356 2522 
L 3381 2522 
L 3381 1997 
z
" transform="scale(0.015625)"/>
       </defs>
       <use xlink:href="#ArialMT-2212"/>
       <use xlink:href="#ArialMT-31" x="58.398438"/>
       <use xlink:href="#ArialMT-35" x="114.013672"/>
      </g>
     </g>
    </g>
    <g id="ytick_2">
     <g id="line2d_15">
      <path d="M 41.046875 150.470245 
L 480.416954 150.470245 
" clip-path="url(#pe91b72a8c0)" style="fill: none; stroke: #b0b0b0; stroke-width: 0.8; stroke-linecap: square"/>
     </g>
     <g id="line2d_16">
      <g>
       <use xlink:href="#m20e46046bb" x="41.046875" y="150.470245" style="stroke: #000000; stroke-width: 0.8"/>
      </g>
     </g>
     <g id="text_9">
      <!-- 0 -->
      <g transform="translate(31.985938 154.049151) scale(0.1 -0.1)">
       <use xlink:href="#ArialMT-30"/>
      </g>
     </g>
    </g>
    <g id="ytick_3">
     <g id="line2d_17">
      <path d="M 41.046875 115.54741 
L 480.416954 115.54741 
" clip-path="url(#pe91b72a8c0)" style="fill: none; stroke: #b0b0b0; stroke-width: 0.8; stroke-linecap: square"/>
     </g>
     <g id="line2d_18">
      <g>
       <use xlink:href="#m20e46046bb" x="41.046875" y="115.54741" style="stroke: #000000; stroke-width: 0.8"/>
      </g>
     </g>
     <g id="text_10">
      <!-- 15 -->
      <g transform="translate(26.425 119.126316) scale(0.1 -0.1)">
       <use xlink:href="#ArialMT-31"/>
       <use xlink:href="#ArialMT-35" x="55.615234"/>
      </g>
     </g>
    </g>
    <g id="ytick_4">
     <g id="line2d_19">
      <path d="M 41.046875 80.624576 
L 480.416954 80.624576 
" clip-path="url(#pe91b72a8c0)" style="fill: none; stroke: #b0b0b0; stroke-width: 0.8; stroke-linecap: square"/>
     </g>
     <g id="line2d_20">
      <g>
       <use xlink:href="#m20e46046bb" x="41.046875" y="80.624576" style="stroke: #000000; stroke-width: 0.8"/>
      </g>
     </g>
     <g id="text_11">
      <!-- 30 -->
      <g transform="translate(26.425 84.203482) scale(0.1 -0.1)">
       <use xlink:href="#ArialMT-33"/>
       <use xlink:href="#ArialMT-30" x="55.615234"/>
      </g>
     </g>
    </g>
    <g id="ytick_5">
     <g id="line2d_21">
      <path d="M 41.046875 45.701741 
L 480.416954 45.701741 
" clip-path="url(#pe91b72a8c0)" style="fill: none; stroke: #b0b0b0; stroke-width: 0.8; stroke-linecap: square"/>
     </g>
     <g id="line2d_22">
      <g>
       <use xlink:href="#m20e46046bb" x="41.046875" y="45.701741" style="stroke: #000000; stroke-width: 0.8"/>
      </g>
     </g>
     <g id="text_12">
      <!-- 45 -->
      <g transform="translate(26.425 49.280647) scale(0.1 -0.1)">
       <use xlink:href="#ArialMT-34"/>
       <use xlink:href="#ArialMT-35" x="55.615234"/>
      </g>
     </g>
    </g>
    <g id="ytick_6">
     <g id="line2d_23">
      <path d="M 41.046875 10.778906 
L 480.416954 10.778906 
" clip-path="url(#pe91b72a8c0)" style="fill: none; stroke: #b0b0b0; stroke-width: 0.8; stroke-linecap: square"/>
     </g>
     <g id="line2d_24">
      <g>
       <use xlink:href="#m20e46046bb" x="41.046875" y="10.778906" style="stroke: #000000; stroke-width: 0.8"/>
      </g>
     </g>
     <g id="text_13">
      <!-- 60 -->
      <g transform="translate(26.425 14.357813) scale(0.1 -0.1)">
       <defs>
        <path id="ArialMT-36" d="M 3184 3459 
L 2625 3416 
Q 2550 3747 2413 3897 
Q 2184 4138 1850 4138 
Q 1581 4138 1378 3988 
Q 1113 3794 959 3422 
Q 806 3050 800 2363 
Q 1003 2672 1297 2822 
Q 1591 2972 1913 2972 
Q 2475 2972 2870 2558 
Q 3266 2144 3266 1488 
Q 3266 1056 3080 686 
Q 2894 316 2569 119 
Q 2244 -78 1831 -78 
Q 1128 -78 684 439 
Q 241 956 241 2144 
Q 241 3472 731 4075 
Q 1159 4600 1884 4600 
Q 2425 4600 2770 4297 
Q 3116 3994 3184 3459 
z
M 888 1484 
Q 888 1194 1011 928 
Q 1134 663 1356 523 
Q 1578 384 1822 384 
Q 2178 384 2434 671 
Q 2691 959 2691 1453 
Q 2691 1928 2437 2201 
Q 2184 2475 1800 2475 
Q 1419 2475 1153 2201 
Q 888 1928 888 1484 
z
" transform="scale(0.015625)"/>
       </defs>
       <use xlink:href="#ArialMT-36"/>
       <use xlink:href="#ArialMT-30" x="55.615234"/>
      </g>
     </g>
    </g>
    <g id="text_14">
     <!-- Displacement (cm) -->
     <g transform="translate(14.479688 139.758649) rotate(-90) scale(0.1 -0.1)">
      <defs>
       <path id="ArialMT-44" d="M 494 0 
L 494 4581 
L 2072 4581 
Q 2606 4581 2888 4516 
Q 3281 4425 3559 4188 
Q 3922 3881 4101 3404 
Q 4281 2928 4281 2316 
Q 4281 1794 4159 1391 
Q 4038 988 3847 723 
Q 3656 459 3429 307 
Q 3203 156 2883 78 
Q 2563 0 2147 0 
L 494 0 
z
M 1100 541 
L 2078 541 
Q 2531 541 2789 625 
Q 3047 709 3200 863 
Q 3416 1078 3536 1442 
Q 3656 1806 3656 2325 
Q 3656 3044 3420 3430 
Q 3184 3816 2847 3947 
Q 2603 4041 2063 4041 
L 1100 4041 
L 1100 541 
z
" transform="scale(0.015625)"/>
       <path id="ArialMT-70" d="M 422 -1272 
L 422 3319 
L 934 3319 
L 934 2888 
Q 1116 3141 1344 3267 
Q 1572 3394 1897 3394 
Q 2322 3394 2647 3175 
Q 2972 2956 3137 2557 
Q 3303 2159 3303 1684 
Q 3303 1175 3120 767 
Q 2938 359 2589 142 
Q 2241 -75 1856 -75 
Q 1575 -75 1351 44 
Q 1128 163 984 344 
L 984 -1272 
L 422 -1272 
z
M 931 1641 
Q 931 1000 1190 694 
Q 1450 388 1819 388 
Q 2194 388 2461 705 
Q 2728 1022 2728 1688 
Q 2728 2322 2467 2637 
Q 2206 2953 1844 2953 
Q 1484 2953 1207 2617 
Q 931 2281 931 1641 
z
" transform="scale(0.015625)"/>
       <path id="ArialMT-6c" d="M 409 0 
L 409 4581 
L 972 4581 
L 972 0 
L 409 0 
z
" transform="scale(0.015625)"/>
       <path id="ArialMT-61" d="M 2588 409 
Q 2275 144 1986 34 
Q 1697 -75 1366 -75 
Q 819 -75 525 192 
Q 231 459 231 875 
Q 231 1119 342 1320 
Q 453 1522 633 1644 
Q 813 1766 1038 1828 
Q 1203 1872 1538 1913 
Q 2219 1994 2541 2106 
Q 2544 2222 2544 2253 
Q 2544 2597 2384 2738 
Q 2169 2928 1744 2928 
Q 1347 2928 1158 2789 
Q 969 2650 878 2297 
L 328 2372 
Q 403 2725 575 2942 
Q 747 3159 1072 3276 
Q 1397 3394 1825 3394 
Q 2250 3394 2515 3294 
Q 2781 3194 2906 3042 
Q 3031 2891 3081 2659 
Q 3109 2516 3109 2141 
L 3109 1391 
Q 3109 606 3145 398 
Q 3181 191 3288 0 
L 2700 0 
Q 2613 175 2588 409 
z
M 2541 1666 
Q 2234 1541 1622 1453 
Q 1275 1403 1131 1340 
Q 988 1278 909 1158 
Q 831 1038 831 891 
Q 831 666 1001 516 
Q 1172 366 1500 366 
Q 1825 366 2078 508 
Q 2331 650 2450 897 
Q 2541 1088 2541 1459 
L 2541 1666 
z
" transform="scale(0.015625)"/>
       <path id="ArialMT-63" d="M 2588 1216 
L 3141 1144 
Q 3050 572 2676 248 
Q 2303 -75 1759 -75 
Q 1078 -75 664 370 
Q 250 816 250 1647 
Q 250 2184 428 2587 
Q 606 2991 970 3192 
Q 1334 3394 1763 3394 
Q 2303 3394 2647 3120 
Q 2991 2847 3088 2344 
L 2541 2259 
Q 2463 2594 2264 2762 
Q 2066 2931 1784 2931 
Q 1359 2931 1093 2626 
Q 828 2322 828 1663 
Q 828 994 1084 691 
Q 1341 388 1753 388 
Q 2084 388 2306 591 
Q 2528 794 2588 1216 
z
" transform="scale(0.015625)"/>
       <path id="ArialMT-6e" d="M 422 0 
L 422 3319 
L 928 3319 
L 928 2847 
Q 1294 3394 1984 3394 
Q 2284 3394 2536 3286 
Q 2788 3178 2913 3003 
Q 3038 2828 3088 2588 
Q 3119 2431 3119 2041 
L 3119 0 
L 2556 0 
L 2556 2019 
Q 2556 2363 2490 2533 
Q 2425 2703 2258 2804 
Q 2091 2906 1866 2906 
Q 1506 2906 1245 2678 
Q 984 2450 984 1813 
L 984 0 
L 422 0 
z
" transform="scale(0.015625)"/>
       <path id="ArialMT-74" d="M 1650 503 
L 1731 6 
Q 1494 -44 1306 -44 
Q 1000 -44 831 53 
Q 663 150 594 308 
Q 525 466 525 972 
L 525 2881 
L 113 2881 
L 113 3319 
L 525 3319 
L 525 4141 
L 1084 4478 
L 1084 3319 
L 1650 3319 
L 1650 2881 
L 1084 2881 
L 1084 941 
Q 1084 700 1114 631 
Q 1144 563 1211 522 
Q 1278 481 1403 481 
Q 1497 481 1650 503 
z
" transform="scale(0.015625)"/>
      </defs>
      <use xlink:href="#ArialMT-44"/>
      <use xlink:href="#ArialMT-69" x="72.216797"/>
      <use xlink:href="#ArialMT-73" x="94.433594"/>
      <use xlink:href="#ArialMT-70" x="144.433594"/>
      <use xlink:href="#ArialMT-6c" x="200.048828"/>
      <use xlink:href="#ArialMT-61" x="222.265625"/>
      <use xlink:href="#ArialMT-63" x="277.880859"/>
      <use xlink:href="#ArialMT-65" x="327.880859"/>
      <use xlink:href="#ArialMT-6d" x="383.496094"/>
      <use xlink:href="#ArialMT-65" x="466.796875"/>
      <use xlink:href="#ArialMT-6e" x="522.412109"/>
      <use xlink:href="#ArialMT-74" x="578.027344"/>
      <use xlink:href="#ArialMT-20" x="605.810547"/>
      <use xlink:href="#ArialMT-28" x="633.59375"/>
      <use xlink:href="#ArialMT-63" x="666.894531"/>
      <use xlink:href="#ArialMT-6d" x="716.894531"/>
      <use xlink:href="#ArialMT-29" x="800.195312"/>
     </g>
    </g>
   </g>
   <g id="line2d_25">
    <path d="M 41.046875 150.470245 
L 48.516166 150.3482 
L 51.152387 150.310008 
L 52.470497 150.526558 
L 53.788607 150.742585 
L 56.864198 150.652922 
L 59.061048 150.33092 
L 60.379158 150.06332 
L 61.697269 150.237652 
L 64.333489 150.102733 
L 65.212229 150.230171 
L 66.53034 150.289924 
L 69.16656 150.626091 
L 70.0453 150.504115 
L 70.48467 150.446101 
L 70.92404 150.690868 
L 72.242151 152.265662 
L 72.681521 152.397046 
L 73.120891 152.129287 
L 74.439001 150.317067 
L 74.878371 150.193569 
L 75.757111 150.31186 
L 76.635851 150.803223 
L 77.075221 150.770045 
L 79.272072 149.997064 
L 79.711442 149.994956 
L 80.150812 149.856164 
L 81.029552 148.869375 
L 81.468922 148.691461 
L 81.908292 148.897221 
L 82.347662 149.288451 
L 83.226403 150.555942 
L 83.665773 150.743987 
L 84.105143 150.681629 
L 84.983883 150.354039 
L 85.423253 150.446376 
L 85.862623 150.689764 
L 87.180733 151.867116 
L 87.620103 151.811728 
L 88.498844 151.501497 
L 88.938214 151.770088 
L 89.816954 152.56121 
L 90.695694 153.16958 
L 91.135064 152.937069 
L 92.013804 151.677374 
L 93.331914 150.424454 
L 95.089395 147.627467 
L 95.528765 147.117005 
L 95.968135 147.310044 
L 97.286245 149.431113 
L 97.725615 149.462228 
L 99.043725 148.248358 
L 99.483095 148.276258 
L 99.922466 148.980019 
L 100.801206 150.993421 
L 101.240576 151.649622 
L 101.679946 151.671106 
L 102.119316 151.150424 
L 102.558686 150.936833 
L 102.998056 151.064378 
L 103.437426 151.04589 
L 104.316166 152.218824 
L 104.755536 152.068693 
L 105.194906 151.367821 
L 105.634277 150.898346 
L 106.073647 150.930674 
L 106.513017 151.494739 
L 106.952387 152.897231 
L 107.391757 154.731293 
L 107.831127 155.850609 
L 108.270497 155.614031 
L 108.709867 154.371892 
L 110.467347 145.409918 
L 110.906718 145.3036 
L 113.542938 148.899868 
L 114.861048 153.108192 
L 115.300418 153.300021 
L 115.739788 152.146153 
L 116.618529 149.134123 
L 117.057899 149.217936 
L 117.497269 150.501858 
L 118.815379 156.345708 
L 119.254749 156.44521 
L 119.694119 154.922208 
L 120.572859 150.69151 
L 121.012229 149.088309 
L 121.451599 148.152336 
L 121.890969 147.884896 
L 122.33034 147.981665 
L 122.76971 148.353162 
L 123.20908 148.403215 
L 123.64845 148.306217 
L 124.08782 148.797318 
L 125.40593 152.621613 
L 125.8453 152.598133 
L 126.28467 151.409975 
L 127.602781 144.185678 
L 128.042151 143.392349 
L 128.481521 143.975654 
L 129.360261 147.590727 
L 129.799631 148.5551 
L 131.557111 149.085061 
L 132.435851 150.401592 
L 132.875221 150.81459 
L 133.314592 150.841124 
L 134.193332 149.620644 
L 134.632702 150.412345 
L 136.390182 158.278745 
L 136.829552 158.362751 
L 137.268922 156.693902 
L 138.587032 149.150064 
L 139.026403 148.438405 
L 139.465773 148.383633 
L 139.905143 148.769282 
L 140.344513 148.963728 
L 140.783883 148.722023 
L 141.662623 146.464148 
L 142.101993 146.257593 
L 142.541363 147.02817 
L 143.420103 149.75742 
L 143.859473 150.205395 
L 144.298844 149.913407 
L 145.177584 147.839425 
L 145.616954 147.537757 
L 146.056324 148.136562 
L 146.495694 149.936221 
L 147.813804 157.063198 
L 148.253174 158.423043 
L 148.692544 158.828792 
L 149.131914 158.109582 
L 149.571284 157.105125 
L 150.450025 154.596256 
L 151.328765 153.46689 
L 151.768135 153.027051 
L 152.207505 153.147244 
L 153.525615 156.555014 
L 153.964985 156.964566 
L 154.404355 156.669721 
L 154.843725 155.245165 
L 156.601206 147.197908 
L 157.479946 144.573917 
L 157.919316 143.844222 
L 158.358686 143.710758 
L 159.237426 143.825745 
L 159.676796 144.065017 
L 160.116166 144.064163 
L 160.994906 143.142769 
L 161.873647 141.872342 
L 162.313017 142.000599 
L 162.752387 143.136373 
L 163.631127 147.46246 
L 164.509867 151.952175 
L 164.949237 153.267138 
L 165.388607 153.615996 
L 166.267347 153.246836 
L 168.024828 155.502094 
L 168.464198 155.839401 
L 168.903568 155.539771 
L 171.539788 151.196429 
L 171.979158 150.353807 
L 172.418529 149.819377 
L 173.297269 149.961038 
L 174.176009 149.159201 
L 174.615379 148.491827 
L 175.933489 144.529096 
L 176.372859 144.330652 
L 176.812229 145.041511 
L 177.690969 148.065825 
L 178.13034 148.704702 
L 178.56971 148.601392 
L 179.00908 147.950135 
L 179.88782 145.43964 
L 180.32719 145.402856 
L 180.76656 146.188342 
L 181.20593 147.362262 
L 182.08467 150.427307 
L 182.52404 150.855775 
L 183.842151 151.301029 
L 184.281521 152.084746 
L 185.160261 155.243673 
L 185.599631 156.256962 
L 186.039001 156.52759 
L 186.917741 155.949939 
L 187.357111 156.279319 
L 188.675221 159.817145 
L 189.114592 160.229074 
L 189.553962 159.881339 
L 189.993332 158.737989 
L 190.872072 155.78995 
L 191.311442 155.095873 
L 192.629552 154.085282 
L 193.068922 153.034831 
L 193.508292 150.997822 
L 194.826403 143.448828 
L 195.265773 142.730943 
L 195.705143 142.927508 
L 196.583883 143.989743 
L 197.023253 143.816464 
L 198.341363 141.018848 
L 198.780733 140.620088 
L 199.220103 140.930794 
L 200.098844 142.645404 
L 200.977584 144.139398 
L 201.856324 146.126663 
L 202.295694 147.563696 
L 203.613804 153.584785 
L 204.053174 154.838375 
L 204.492544 155.657686 
L 205.810655 156.843494 
L 206.250025 157.717212 
L 207.128765 160.117652 
L 207.568135 160.883288 
L 208.007505 161.118134 
L 208.446875 160.81232 
L 209.325615 159.058768 
L 211.083095 154.393848 
L 212.840576 148.874384 
L 214.598056 145.258836 
L 215.476796 142.919912 
L 215.916166 142.246234 
L 216.355536 141.941386 
L 216.794906 141.979107 
L 217.234277 142.567574 
L 217.673647 143.389319 
L 218.113017 143.931495 
L 218.991757 144.644678 
L 220.309867 146.137762 
L 221.627977 149.155449 
L 222.946088 151.129545 
L 223.385458 151.518766 
L 225.142938 153.686399 
L 227.339788 157.759641 
L 227.779158 158.003949 
L 228.218529 157.660197 
L 228.657899 156.952499 
L 229.097269 155.98392 
L 229.976009 153.515469 
L 230.415379 152.791985 
L 231.294119 152.141868 
L 231.733489 151.819611 
L 232.172859 151.227684 
L 232.612229 150.312261 
L 233.93034 146.859193 
L 234.36971 146.158444 
L 234.80908 145.91579 
L 235.68782 146.09548 
L 236.56656 146.269696 
L 237.00593 146.560617 
L 237.4453 147.1422 
L 238.32404 149.050316 
L 239.202781 151.263115 
L 239.642151 151.906637 
L 240.520891 152.367115 
L 240.960261 152.571392 
L 241.839001 153.324459 
L 242.717741 154.426004 
L 243.157111 154.611392 
L 243.596481 154.260445 
L 244.035851 153.266283 
L 246.672072 145.112203 
L 247.550812 143.163983 
L 247.990182 142.155051 
L 248.429552 141.490647 
L 248.868922 141.035328 
L 249.308292 140.769831 
L 249.747662 141.057179 
L 250.187032 141.822991 
L 251.065773 144.141703 
L 252.823253 150.43241 
L 255.459473 162.861507 
L 255.898844 164.072767 
L 256.338214 164.94575 
L 256.777584 165.465474 
L 257.216954 165.607188 
L 257.656324 165.361457 
L 258.095694 164.682859 
L 258.535064 163.66059 
L 258.974434 162.292023 
L 259.853174 158.442984 
L 263.368135 140.813243 
L 263.807505 139.082727 
L 264.246875 137.824179 
L 264.686245 136.980477 
L 265.125615 136.442011 
L 265.564985 136.251764 
L 266.004355 136.426448 
L 266.443725 136.940825 
L 266.883095 137.711647 
L 267.322466 138.776791 
L 268.201206 141.758776 
L 269.958686 149.556451 
L 272.155536 159.128384 
L 273.034277 161.835435 
L 273.473647 162.668087 
L 273.913017 163.056786 
L 274.352387 162.984524 
L 274.791757 162.497772 
L 275.231127 161.62071 
L 276.109867 158.967141 
L 276.988607 155.458 
L 278.306718 148.988238 
L 279.624828 142.127929 
L 280.503568 138.994458 
L 280.942938 138.107076 
L 281.382308 137.730638 
L 281.821678 137.823989 
L 282.261048 138.190203 
L 282.700418 138.908938 
L 283.139788 140.041066 
L 284.018529 143.618418 
L 284.897269 148.413111 
L 286.654749 158.483577 
L 287.533489 162.372068 
L 288.412229 165.131996 
L 288.851599 165.743293 
L 289.290969 165.731492 
L 289.73034 165.029653 
L 290.16971 163.646087 
L 291.04845 159.459874 
L 292.36656 151.547575 
L 294.56341 136.529847 
L 295.002781 134.291735 
L 295.442151 132.732187 
L 295.881521 131.889487 
L 296.320891 131.745038 
L 296.760261 132.184928 
L 297.199631 133.21182 
L 297.639001 134.841628 
L 298.517741 140.016909 
L 299.396481 147.408816 
L 300.714592 159.296101 
L 301.593332 165.618277 
L 302.472072 170.259749 
L 302.911442 171.872515 
L 303.350812 172.925653 
L 303.790182 173.227285 
L 304.229552 172.653578 
L 304.668922 171.187818 
L 305.108292 168.892259 
L 305.987032 162.331785 
L 307.305143 149.57742 
L 308.623253 136.785084 
L 309.501993 130.516549 
L 309.941363 128.463646 
L 310.380733 127.212648 
L 310.820103 126.723235 
L 311.259473 126.893846 
L 311.698844 127.695295 
L 312.138214 129.154385 
L 312.577584 131.346466 
L 313.456324 137.72048 
L 315.213804 154.913683 
L 316.531914 166.220703 
L 317.410655 171.059196 
L 317.850025 172.376398 
L 318.289395 172.936977 
L 318.728765 172.732801 
L 319.168135 171.788596 
L 319.607505 170.198479 
L 320.486245 165.599842 
L 321.364985 159.78083 
L 322.683095 148.866056 
L 324.001206 137.541722 
L 324.879946 132.278561 
L 325.319316 130.645178 
L 325.758686 129.715197 
L 326.198056 129.449641 
L 326.637426 129.870632 
L 327.076796 130.90408 
L 327.516166 132.432667 
L 327.955536 134.393018 
L 328.834277 139.822656 
L 330.152387 150.1734 
L 331.470497 160.71283 
L 332.349237 166.101726 
L 332.788607 167.976915 
L 333.227977 169.206542 
L 333.667347 169.758995 
L 334.106718 169.643813 
L 334.546088 168.874853 
L 334.985458 167.472907 
L 335.864198 162.988575 
L 336.742938 156.891878 
L 338.939788 140.428762 
L 339.818529 135.668209 
L 340.257899 134.058223 
L 340.697269 133.034992 
L 341.136639 132.622445 
L 341.576009 132.855532 
L 342.015379 133.720069 
L 342.454749 135.169042 
L 343.333489 139.559307 
L 344.212229 145.418359 
L 345.96971 158.207014 
L 346.84845 163.174737 
L 347.28782 165.037449 
L 347.72719 166.407927 
L 348.16656 167.245686 
L 348.60593 167.573445 
L 349.0453 167.366832 
L 349.48467 166.631094 
L 349.92404 165.430699 
L 350.802781 161.893769 
L 351.681521 157.008259 
L 354.317741 141.043701 
L 355.196481 137.461229 
L 355.635851 136.21747 
L 356.075221 135.395596 
L 356.514592 135.022483 
L 356.953962 135.08933 
L 357.393332 135.637229 
L 357.832702 136.626432 
L 358.711442 139.733322 
L 360.029552 146.23788 
L 363.105143 162.980549 
L 363.544513 164.571834 
L 363.983883 165.705691 
L 364.423253 166.317064 
L 364.862623 166.440479 
L 365.301993 166.061143 
L 365.741363 165.16312 
L 366.180733 163.764374 
L 367.059473 159.648119 
L 367.938214 154.207093 
L 370.574434 136.628629 
L 371.453174 132.933731 
L 371.892544 131.944679 
L 372.331914 131.589552 
L 372.771284 131.851739 
L 373.210655 132.715801 
L 373.650025 134.203596 
L 374.089395 136.303992 
L 374.968135 142.09072 
L 378.043725 166.565014 
L 378.922466 170.680072 
L 379.361836 171.883444 
L 379.801206 172.484106 
L 380.240576 172.38722 
L 380.679946 171.47522 
L 381.119316 169.75304 
L 381.558686 167.310889 
L 382.437426 160.567789 
L 384.194906 143.306206 
L 385.073647 135.203083 
L 385.952387 129.168254 
L 386.391757 127.162293 
L 386.831127 125.934433 
L 387.270497 125.489415 
L 387.709867 125.787819 
L 388.149237 126.809861 
L 388.588607 128.526137 
L 389.027977 130.908967 
L 389.906718 137.466685 
L 391.224828 150.184726 
L 392.542938 162.864834 
L 393.421678 169.440079 
L 393.861048 171.899861 
L 394.300418 173.703793 
L 394.739788 174.812571 
L 395.179158 175.229367 
L 395.618529 174.93597 
L 396.057899 173.92836 
L 396.497269 172.243624 
L 397.376009 167.021206 
L 398.254749 159.925686 
L 400.890969 136.568598 
L 401.76971 131.071397 
L 402.20908 129.154634 
L 402.64845 127.861609 
L 403.08782 127.262525 
L 403.52719 127.408157 
L 403.96656 128.300154 
L 404.40593 129.936116 
L 405.28467 135.168625 
L 406.602781 146.152236 
L 408.360261 161.066176 
L 409.239001 166.974723 
L 409.678371 169.196582 
L 410.117741 170.832828 
L 410.557111 171.863607 
L 410.996481 172.270064 
L 411.435851 172.004232 
L 411.875221 171.068883 
L 412.314592 169.477192 
L 412.753962 167.250906 
L 413.632702 161.066343 
L 416.268922 138.940066 
L 417.147662 133.662417 
L 417.587032 131.675015 
L 418.026403 130.218616 
L 418.465773 129.344055 
L 418.905143 129.095338 
L 419.344513 129.522879 
L 419.783883 130.622528 
L 420.223253 132.387166 
L 421.101993 137.719025 
L 421.980733 145.044636 
L 423.738214 161.110242 
L 424.616954 167.05895 
L 425.056324 169.149016 
L 425.495694 170.648858 
L 425.935064 171.59085 
L 426.374434 171.993939 
L 426.813804 171.845194 
L 427.253174 171.087603 
L 427.692544 169.689017 
L 428.131914 167.670038 
L 429.010655 161.927954 
L 430.768135 146.953366 
L 431.646875 139.909395 
L 432.525615 134.458179 
L 432.964985 132.563884 
L 433.404355 131.287793 
L 433.843725 130.626771 
L 434.283095 130.553871 
L 434.722466 131.021942 
L 435.161836 131.989412 
L 435.601206 133.43278 
L 436.479946 137.663098 
L 437.358686 143.408724 
L 439.555536 159.485006 
L 440.434277 164.275051 
L 440.873647 165.997811 
L 441.313017 167.196835 
L 441.752387 167.809962 
L 442.191757 167.808472 
L 442.631127 167.191519 
L 443.070497 166.028501 
L 443.949237 162.488161 
L 444.827977 157.867678 
L 446.146088 149.582774 
L 447.464198 141.139192 
L 448.342938 136.801834 
L 448.782308 135.283422 
L 449.221678 134.271253 
L 449.661048 133.778082 
L 450.100418 133.800067 
L 450.539788 134.334445 
L 450.979158 135.374862 
L 451.418529 136.900409 
L 452.297269 141.209261 
L 456.251599 164.249459 
L 456.690969 165.86121 
L 457.13034 166.972576 
L 457.56971 167.536071 
L 458.00908 167.536784 
L 458.44845 166.998788 
L 458.88782 165.959474 
L 459.32719 164.462495 
L 460.20593 160.274264 
L 461.52404 152.041451 
L 462.842151 143.813683 
L 463.720891 139.204559 
L 464.599631 135.570469 
L 465.039001 134.280802 
L 465.478371 133.439492 
L 465.917741 133.116394 
L 466.357111 133.336442 
L 466.796481 134.10242 
L 467.235851 135.39785 
L 468.114592 139.381539 
L 468.993332 144.801367 
L 471.629552 162.749093 
L 472.508292 167.097833 
L 472.947662 168.674477 
L 473.387032 169.769131 
L 473.826403 170.341706 
L 474.265773 170.345318 
L 474.705143 169.710008 
L 475.144513 168.416695 
L 475.583883 166.506083 
L 476.462623 161.089062 
L 477.780733 150.317408 
L 479.098844 139.353673 
L 479.977584 133.454495 
L 480.856324 129.453489 
L 480.856324 129.453489 
" clip-path="url(#pe91b72a8c0)" style="fill: none; stroke: #000000; stroke-width: 1.2; stroke-linecap: square"/>
   </g>
   <g id="line2d_26">
    <path d="M 41.046875 150.468993 
L 43.683095 150.464 
L 47.198056 150.365892 
L 48.076796 150.369872 
L 48.955536 150.427677 
L 49.394906 150.311152 
L 50.713017 150.324352 
L 51.152387 150.098243 
L 51.591757 150.584944 
L 52.031127 150.378586 
L 53.788607 151.158994 
L 54.227977 150.828236 
L 54.667347 151.126791 
L 55.106718 150.673805 
L 55.985458 150.573371 
L 56.424828 150.541015 
L 56.864198 150.791473 
L 57.303568 150.288873 
L 57.742938 150.894181 
L 58.182308 150.309456 
L 58.621678 150.691604 
L 59.061048 150.253653 
L 59.939788 150.304725 
L 60.379158 149.510222 
L 60.818529 149.773406 
L 61.257899 149.569855 
L 61.697269 150.127782 
L 62.136639 150.187297 
L 64.333489 149.999175 
L 64.772859 150.429333 
L 65.212229 150.25599 
L 65.651599 150.497228 
L 66.090969 150.183909 
L 66.53034 150.219501 
L 67.40908 149.692191 
L 67.84845 151.077187 
L 68.28782 150.299187 
L 68.72719 150.687527 
L 69.16656 150.273847 
L 69.60593 150.183283 
L 70.0453 150.713657 
L 70.48467 150.214269 
L 70.92404 151.196234 
L 71.36341 150.870866 
L 71.802781 151.127529 
L 72.242151 151.795216 
L 72.681521 152.033331 
L 73.120891 152.912439 
L 73.560261 152.24414 
L 73.999631 152.250265 
L 74.439001 150.768827 
L 74.878371 150.59281 
L 75.317741 150.947925 
L 75.757111 150.025047 
L 76.196481 150.492899 
L 76.635851 149.219782 
L 77.075221 151.363762 
L 77.514592 149.214275 
L 77.953962 151.563757 
L 78.393332 151.641676 
L 78.832702 150.329123 
L 79.272072 150.571139 
L 79.711442 149.251734 
L 80.150812 149.038368 
L 80.590182 150.755636 
L 81.029552 150.302077 
L 81.468922 150.287797 
L 81.908292 151.851834 
L 82.347662 149.887966 
L 83.226403 151.740218 
L 83.665773 153.909062 
L 84.105143 151.637023 
L 84.544513 153.941995 
L 84.983883 152.501419 
L 85.423253 151.839906 
L 85.862623 151.79502 
L 86.301993 152.267775 
L 87.180733 152.593259 
L 87.620103 152.466246 
L 88.059473 153.321333 
L 88.498844 153.552381 
L 88.938214 154.128867 
L 89.377584 153.485216 
L 89.816954 154.620779 
L 90.256324 152.505014 
L 90.695694 154.761297 
L 91.135064 154.486552 
L 91.574434 154.58283 
L 92.013804 155.198007 
L 92.453174 154.350724 
L 92.892544 155.483118 
L 93.331914 152.231488 
L 93.771284 152.645873 
L 94.650025 150.490799 
L 95.089395 150.771312 
L 95.528765 150.035714 
L 95.968135 151.748331 
L 96.407505 151.669273 
L 96.846875 152.101446 
L 97.286245 150.212408 
L 97.725615 152.1624 
L 98.164985 152.101652 
L 98.604355 154.044351 
L 99.043725 153.436692 
L 99.483095 151.191955 
L 99.922466 152.537636 
L 100.361836 151.911447 
L 100.801206 153.301101 
L 101.240576 154.131202 
L 101.679946 155.920642 
L 102.119316 156.310139 
L 102.558686 156.140904 
L 102.998056 156.611686 
L 103.437426 157.473545 
L 103.876796 152.649645 
L 104.316166 155.161607 
L 104.755536 154.3455 
L 105.194906 151.63754 
L 105.634277 156.108682 
L 106.073647 151.701181 
L 106.513017 156.400463 
L 106.952387 151.587472 
L 107.391757 154.728682 
L 107.831127 154.94103 
L 108.270497 157.362409 
L 108.709867 158.053024 
L 109.149237 156.396826 
L 109.588607 157.081715 
L 110.027977 150.762078 
L 110.467347 151.694595 
L 110.906718 145.919716 
L 111.346088 145.814071 
L 111.785458 142.424823 
L 112.224828 145.162222 
L 112.664198 147.176268 
L 113.103568 150.637499 
L 113.542938 152.95003 
L 113.982308 151.26001 
L 114.421678 153.762554 
L 114.861048 152.801565 
L 115.739788 155.729936 
L 116.179158 154.689039 
L 116.618529 153.309463 
L 117.057899 153.613589 
L 117.497269 151.032377 
L 117.936639 153.33738 
L 118.376009 152.99778 
L 118.815379 157.575313 
L 119.254749 156.071132 
L 119.694119 157.556877 
L 120.133489 158.402008 
L 120.572859 157.006882 
L 121.451599 152.884358 
L 121.890969 148.054536 
L 122.33034 147.153153 
L 122.76971 145.651628 
L 123.20908 147.904268 
L 123.64845 152.270969 
L 124.08782 152.836891 
L 124.52719 155.192482 
L 124.96656 153.811375 
L 125.40593 154.415258 
L 125.8453 150.540341 
L 126.28467 157.590602 
L 126.72404 152.907069 
L 127.16341 154.163068 
L 127.602781 148.137032 
L 128.042151 151.390149 
L 128.481521 143.40025 
L 128.920891 147.073142 
L 129.360261 140.366078 
L 129.799631 148.209589 
L 130.239001 149.702258 
L 130.678371 153.11794 
L 131.117741 154.822375 
L 131.557111 152.962598 
L 131.996481 153.608598 
L 132.435851 150.828959 
L 132.875221 150.508782 
L 133.314592 149.255775 
L 133.753962 151.803556 
L 134.193332 151.70969 
L 134.632702 153.015368 
L 135.511442 156.631913 
L 135.950812 152.406292 
L 136.390182 158.976741 
L 136.829552 160.332275 
L 137.268922 160.369704 
L 137.708292 159.294 
L 138.147662 159.738101 
L 138.587032 156.426244 
L 139.026403 148.996562 
L 139.465773 148.196566 
L 139.905143 139.69677 
L 140.344513 145.972739 
L 140.783883 144.939911 
L 141.223253 149.254569 
L 141.662623 150.928422 
L 142.101993 149.248314 
L 142.541363 151.73487 
L 142.980733 147.03531 
L 143.420103 149.383613 
L 143.859473 145.671036 
L 144.298844 153.732997 
L 144.738214 150.857366 
L 145.177584 152.195587 
L 145.616954 148.545162 
L 146.495694 147.055498 
L 146.935064 148.330527 
L 147.813804 152.289282 
L 149.131914 164.161002 
L 149.571284 158.541711 
L 150.010655 160.673094 
L 150.450025 152.757261 
L 150.889395 149.269224 
L 151.328765 148.676226 
L 151.768135 148.363716 
L 152.207505 150.162896 
L 152.646875 149.775248 
L 153.086245 150.812639 
L 153.525615 151.446709 
L 153.964985 151.27732 
L 154.404355 153.70483 
L 154.843725 153.966323 
L 155.283095 150.514491 
L 155.722466 150.626537 
L 156.161836 148.524246 
L 156.601206 145.547274 
L 157.040576 145.518524 
L 157.479946 140.674889 
L 157.919316 141.029624 
L 158.358686 138.420977 
L 158.798056 142.254048 
L 159.237426 139.822634 
L 159.676796 144.554579 
L 160.116166 143.678959 
L 160.555536 143.900113 
L 160.994906 140.612793 
L 161.434277 141.673853 
L 161.873647 139.435159 
L 162.313017 141.258253 
L 162.752387 140.966937 
L 163.191757 142.597042 
L 163.631127 141.876269 
L 164.070497 146.729343 
L 164.509867 147.909568 
L 164.949237 152.370026 
L 165.388607 153.259345 
L 165.827977 155.127136 
L 166.267347 154.918825 
L 166.706718 154.301164 
L 167.146088 154.385504 
L 167.585458 150.239894 
L 168.024828 151.359771 
L 168.464198 151.272414 
L 168.903568 153.175034 
L 169.342938 152.535042 
L 170.221678 151.689759 
L 170.661048 149.337657 
L 171.100418 148.640971 
L 171.539788 147.023238 
L 171.979158 149.255237 
L 172.418529 147.830869 
L 172.857899 149.287358 
L 173.297269 148.631249 
L 173.736639 149.491051 
L 174.176009 147.478078 
L 174.615379 147.771553 
L 175.054749 146.270609 
L 175.494119 145.211385 
L 175.933489 145.107528 
L 176.372859 145.692532 
L 176.812229 144.60853 
L 177.251599 145.813062 
L 177.690969 144.270412 
L 178.13034 148.597064 
L 178.56971 147.903103 
L 179.00908 151.859244 
L 179.44845 149.55922 
L 179.88782 148.60529 
L 180.32719 147.245822 
L 180.76656 147.921807 
L 181.20593 144.6877 
L 181.6453 144.074483 
L 182.08467 147.375069 
L 182.52404 148.702799 
L 182.96341 152.176795 
L 183.402781 154.123218 
L 183.842151 153.841712 
L 184.281521 152.028 
L 184.720891 153.644734 
L 185.160261 151.375006 
L 185.599631 153.820414 
L 186.039001 154.545304 
L 186.478371 157.798692 
L 186.917741 158.325538 
L 187.357111 157.414106 
L 187.796481 155.165861 
L 188.235851 155.359439 
L 188.675221 156.133172 
L 189.993332 160.155988 
L 190.432702 157.902019 
L 190.872072 156.904549 
L 191.311442 157.962116 
L 191.750812 155.199739 
L 192.190182 154.08897 
L 192.629552 151.160578 
L 193.068922 151.644634 
L 193.508292 151.675332 
L 193.947662 150.420674 
L 194.387032 150.844096 
L 194.826403 145.977879 
L 195.265773 143.24211 
L 195.705143 141.435652 
L 196.144513 140.383838 
L 196.583883 140.887814 
L 197.023253 146.169806 
L 197.462623 147.46777 
L 197.901993 147.502358 
L 198.341363 146.995609 
L 198.780733 144.219518 
L 199.220103 144.118182 
L 199.659473 143.123887 
L 200.098844 144.665539 
L 200.538214 144.806457 
L 200.977584 147.131622 
L 201.416954 150.367683 
L 201.856324 151.044952 
L 202.295694 152.083907 
L 202.735064 153.594029 
L 203.174434 154.398897 
L 203.613804 154.703358 
L 204.053174 156.075342 
L 204.492544 158.626952 
L 204.931914 160.277471 
L 205.371284 160.102669 
L 205.810655 160.132474 
L 206.250025 158.797231 
L 206.689395 158.552355 
L 207.128765 158.087498 
L 207.568135 159.884331 
L 208.007505 161.004166 
L 208.446875 160.791876 
L 208.886245 162.904756 
L 209.325615 160.560088 
L 209.764985 159.10538 
L 210.643725 153.973127 
L 211.083095 152.737045 
L 211.522466 151.11258 
L 211.961836 150.981671 
L 212.401206 149.347172 
L 212.840576 149.198465 
L 213.279946 146.406088 
L 214.158686 143.815139 
L 214.598056 143.844371 
L 215.037426 143.51781 
L 215.476796 141.776758 
L 215.916166 142.168769 
L 216.355536 140.966119 
L 216.794906 141.46791 
L 217.234277 140.208403 
L 217.673647 141.265407 
L 218.552387 142.391894 
L 218.991757 144.884192 
L 219.870497 146.228578 
L 220.309867 145.962331 
L 220.749237 146.463863 
L 221.188607 147.62872 
L 221.627977 147.962746 
L 222.506718 150.378825 
L 222.946088 152.174282 
L 223.385458 152.750653 
L 223.824828 151.837255 
L 224.264198 152.425356 
L 224.703568 151.411112 
L 225.142938 152.407523 
L 225.582308 152.296453 
L 226.021678 153.078571 
L 226.461048 154.654397 
L 226.900418 155.02213 
L 227.339788 157.02059 
L 227.779158 156.722105 
L 228.218529 156.218076 
L 228.657899 156.227071 
L 229.097269 155.826035 
L 229.976009 152.508735 
L 230.415379 150.93058 
L 231.733489 148.034598 
L 232.172859 148.849787 
L 232.612229 148.269642 
L 233.051599 148.692202 
L 234.36971 145.046267 
L 234.80908 142.913028 
L 235.24845 143.577298 
L 235.68782 143.10091 
L 236.12719 143.957076 
L 236.56656 145.67005 
L 237.00593 145.730242 
L 237.4453 146.832708 
L 237.88467 146.764661 
L 238.76341 148.729193 
L 239.642151 151.564397 
L 240.081521 151.453456 
L 240.960261 153.667693 
L 241.399631 152.851907 
L 241.839001 153.279845 
L 242.278371 152.111538 
L 242.717741 153.39085 
L 243.157111 153.199888 
L 243.596481 154.03607 
L 244.035851 154.188651 
L 244.914592 152.377677 
L 245.353962 150.330321 
L 245.793332 147.713606 
L 246.672072 144.41993 
L 247.111442 144.14151 
L 247.550812 144.75953 
L 247.990182 143.048907 
L 248.429552 143.436005 
L 248.868922 142.730692 
L 249.308292 142.984057 
L 249.747662 140.67127 
L 250.187032 142.820067 
L 250.626403 143.52894 
L 251.065773 144.634876 
L 252.383883 151.415547 
L 252.823253 152.366393 
L 253.262623 154.349087 
L 253.701993 155.505874 
L 254.580733 159.928402 
L 255.459473 164.327423 
L 255.898844 164.773077 
L 256.338214 165.730357 
L 256.777584 165.900166 
L 257.216954 166.474924 
L 257.656324 165.71525 
L 258.095694 165.519617 
L 258.974434 161.228538 
L 259.413804 160.043638 
L 260.731914 153.412653 
L 261.171284 150.872037 
L 261.610655 147.622853 
L 262.050025 145.706101 
L 262.489395 144.29107 
L 262.928765 141.905499 
L 263.368135 141.39622 
L 263.807505 139.332044 
L 264.246875 137.997773 
L 264.686245 137.180183 
L 265.125615 137.281961 
L 265.564985 136.569948 
L 266.004355 137.549465 
L 266.443725 137.720392 
L 267.322466 140.295678 
L 268.201206 144.082766 
L 268.640576 145.398627 
L 269.519316 149.216959 
L 270.398056 154.04105 
L 270.837426 155.985877 
L 271.276796 157.202104 
L 271.716166 159.176489 
L 272.155536 160.113382 
L 272.594906 162.10939 
L 273.034277 162.601814 
L 273.473647 164.081872 
L 273.913017 163.945332 
L 274.352387 164.544877 
L 274.791757 163.992187 
L 275.231127 163.053376 
L 275.670497 161.625793 
L 278.306718 149.27288 
L 279.624828 141.97472 
L 280.064198 140.42884 
L 280.503568 138.145252 
L 280.942938 137.777533 
L 281.382308 136.41527 
L 282.700418 137.879473 
L 284.018529 142.639146 
L 284.457899 145.600089 
L 284.897269 147.587811 
L 285.776009 153.469455 
L 286.215379 155.61063 
L 287.094119 160.756614 
L 287.533489 162.746327 
L 288.412229 164.7515 
L 288.851599 165.467923 
L 289.290969 165.665619 
L 289.73034 165.620414 
L 290.16971 164.469328 
L 290.60908 162.690877 
L 291.04845 160.271424 
L 293.68467 142.604548 
L 294.56341 137.099933 
L 295.442151 133.075586 
L 295.881521 131.69721 
L 296.320891 130.830653 
L 296.760261 131.241093 
L 297.199631 132.644946 
L 298.517741 140.034133 
L 298.957111 144.223679 
L 299.396481 147.07892 
L 299.835851 152.976589 
L 300.275221 156.260599 
L 300.714592 161.115313 
L 302.032702 169.576825 
L 302.472072 171.469396 
L 302.911442 172.738941 
L 303.790182 174.21046 
L 304.229552 173.723839 
L 304.668922 172.302996 
L 305.108292 170.487373 
L 305.547662 167.384241 
L 306.426403 158.457692 
L 308.623253 136.128347 
L 309.941363 128.357974 
L 310.380733 126.785344 
L 310.820103 125.97588 
L 311.259473 126.516531 
L 311.698844 127.582624 
L 312.577584 132.185887 
L 313.895694 142.399334 
L 315.653174 160.949001 
L 316.531914 167.259913 
L 316.971284 170.347799 
L 317.410655 171.790878 
L 317.850025 173.808749 
L 318.728765 173.676743 
L 319.607505 170.512987 
L 320.046875 168.199881 
L 320.925615 161.215439 
L 322.243725 150.550736 
L 323.122466 143.592639 
L 324.001206 136.156703 
L 325.319316 129.195561 
L 325.758686 128.162276 
L 326.198056 127.87718 
L 326.637426 128.15184 
L 327.516166 131.676596 
L 328.394906 137.214441 
L 328.834277 139.856331 
L 331.031127 158.226852 
L 332.788607 168.061601 
L 333.227977 169.241648 
L 333.667347 169.710438 
L 334.106718 169.940634 
L 334.985458 167.53518 
L 336.303568 158.865111 
L 336.742938 155.73343 
L 337.621678 148.309545 
L 338.500418 141.552677 
L 339.379158 135.761923 
L 339.818529 133.663642 
L 340.257899 132.196454 
L 341.136639 130.991228 
L 341.576009 131.127301 
L 342.015379 132.180126 
L 342.454749 133.589503 
L 343.333489 138.753591 
L 344.651599 148.624042 
L 345.96971 159.132796 
L 346.84845 164.061265 
L 347.72719 166.906182 
L 348.16656 167.498441 
L 348.60593 167.69408 
L 349.0453 167.461894 
L 349.92404 164.950262 
L 350.802781 160.896947 
L 354.317741 139.028582 
L 355.635851 134.962924 
L 356.075221 134.096574 
L 356.514592 133.843055 
L 356.953962 134.04884 
L 357.393332 134.96031 
L 358.272072 137.65677 
L 359.150812 141.677538 
L 362.226403 158.730466 
L 363.105143 162.652877 
L 363.983883 165.453805 
L 364.423253 166.156473 
L 364.862623 166.383068 
L 365.741363 164.824235 
L 366.620103 161.157056 
L 367.938214 152.946309 
L 369.256324 143.953376 
L 370.135064 138.180754 
L 371.013804 133.749989 
L 371.892544 131.024726 
L 372.331914 130.832703 
L 372.771284 130.89669 
L 373.210655 131.845799 
L 373.650025 133.345681 
L 374.089395 135.614588 
L 374.968135 141.881921 
L 377.164985 160.798417 
L 378.043725 166.723735 
L 378.483095 169.117893 
L 379.361836 171.840363 
L 379.801206 172.077834 
L 380.240576 172.003699 
L 380.679946 171.23224 
L 381.558686 167.247984 
L 382.437426 160.019744 
L 384.634277 137.795763 
L 385.513017 130.6321 
L 386.391757 125.825931 
L 386.831127 124.631545 
L 387.270497 124.024199 
L 387.709867 124.442701 
L 388.149237 125.711515 
L 388.588607 127.915952 
L 389.467347 134.094534 
L 390.785458 146.452845 
L 392.103568 159.522714 
L 392.542938 163.630591 
L 393.861048 171.468044 
L 394.300418 173.612471 
L 395.179158 174.890313 
L 395.618529 174.560283 
L 396.057899 173.457852 
L 396.936639 168.65795 
L 398.254749 157.603959 
L 400.451599 137.780298 
L 401.33034 132.148239 
L 402.20908 128.236466 
L 402.64845 126.961557 
L 403.08782 126.06015 
L 403.52719 126.165199 
L 403.96656 127.135125 
L 404.40593 129.053682 
L 405.28467 134.856412 
L 406.602781 146.996266 
L 407.920891 158.942933 
L 409.239001 167.323323 
L 410.117741 171.028837 
L 410.557111 171.766321 
L 410.996481 172.135725 
L 411.435851 171.809744 
L 411.875221 171.018928 
L 412.314592 169.237962 
L 412.753962 166.96968 
L 413.632702 160.147279 
L 416.268922 137.197376 
L 417.147662 132.387725 
L 417.587032 130.626975 
L 418.026403 129.37917 
L 418.465773 128.880623 
L 418.905143 128.655954 
L 419.344513 128.981825 
L 419.783883 130.169609 
L 420.223253 131.871568 
L 421.101993 137.763323 
L 421.980733 145.500764 
L 423.298844 158.285116 
L 424.177584 165.157184 
L 425.056324 170.105229 
L 425.495694 171.50969 
L 425.935064 172.127909 
L 426.374434 172.447231 
L 426.813804 171.769789 
L 427.253174 170.747594 
L 427.692544 169.184097 
L 428.571284 164.40852 
L 429.450025 157.281898 
L 431.646875 138.041431 
L 432.525615 132.822877 
L 433.404355 129.73562 
L 433.843725 129.171127 
L 434.283095 129.182437 
L 434.722466 129.704762 
L 435.601206 133.142756 
L 436.919316 140.893215 
L 437.798056 147.013949 
L 439.555536 160.290872 
L 439.994906 162.914301 
L 440.873647 166.643544 
L 441.752387 168.40015 
L 442.191757 168.386583 
L 442.631127 167.725589 
L 443.070497 166.301355 
L 443.509867 164.440094 
L 444.827977 156.540534 
L 447.903568 137.913915 
L 448.782308 134.583848 
L 449.221678 133.532005 
L 449.661048 132.969173 
L 450.100418 133.038902 
L 450.539788 133.767798 
L 450.979158 135.17989 
L 451.857899 139.317631 
L 452.736639 144.453878 
L 454.494119 156.125867 
L 455.812229 162.729514 
L 456.251599 164.634412 
L 457.13034 167.109721 
L 458.00908 168.011867 
L 458.44845 167.598484 
L 458.88782 166.400654 
L 459.76656 162.260726 
L 461.52404 150.938412 
L 462.842151 142.419714 
L 463.720891 138.190319 
L 464.599631 135.215474 
L 465.478371 133.544873 
L 465.917741 133.275302 
L 466.357111 133.437502 
L 466.796481 134.150978 
L 467.675221 137.418245 
L 468.553962 142.656615 
L 470.750812 158.138173 
L 471.629552 163.506414 
L 472.508292 167.397597 
L 472.947662 168.841977 
L 473.387032 169.851505 
L 473.826403 170.180401 
L 474.265773 170.065128 
L 474.705143 169.601931 
L 475.144513 168.242397 
L 475.583883 166.389015 
L 476.023253 163.869306 
L 476.901993 156.970475 
L 479.098844 138.406887 
L 479.977584 133.035685 
L 480.416954 130.856718 
L 480.856324 129.347048 
L 480.856324 129.347048 
" clip-path="url(#pe91b72a8c0)" style="fill: none; stroke-dasharray: 7.68,1.92,1.2,1.92; stroke-dashoffset: 0; stroke: #ff0000; stroke-width: 1.2"/>
   </g>
   <g id="line2d_27">
    <path d="M 41.046875 150.47322 
L 42.804355 150.479117 
L 48.076796 150.358472 
L 50.713017 150.239125 
L 51.152387 150.082554 
L 51.591757 150.664334 
L 52.031127 150.426107 
L 53.349237 151.130979 
L 53.788607 151.100981 
L 54.227977 150.814417 
L 54.667347 150.979198 
L 55.106718 150.448318 
L 55.546088 150.536037 
L 55.985458 150.480812 
L 56.864198 150.551324 
L 57.303568 150.195001 
L 57.742938 150.798245 
L 58.182308 150.186142 
L 58.621678 150.41558 
L 59.061048 150.318759 
L 59.500418 149.883513 
L 59.939788 149.69825 
L 60.379158 149.799151 
L 61.257899 149.646709 
L 61.697269 150.477913 
L 62.136639 149.756744 
L 62.576009 149.721255 
L 63.015379 149.895333 
L 63.454749 149.921992 
L 63.894119 150.205874 
L 64.333489 150.107809 
L 64.772859 150.339238 
L 65.212229 150.093531 
L 65.651599 150.193391 
L 66.090969 150.035795 
L 66.53034 150.276726 
L 66.96971 149.585235 
L 67.40908 149.627558 
L 67.84845 150.923583 
L 68.28782 149.94828 
L 69.16656 150.65726 
L 69.60593 150.299411 
L 70.48467 150.025119 
L 70.92404 151.513974 
L 71.36341 151.66286 
L 71.802781 152.476857 
L 73.120891 152.258859 
L 73.560261 151.098143 
L 73.999631 152.067267 
L 74.439001 150.502596 
L 74.878371 151.495646 
L 75.317741 150.919332 
L 75.757111 150.913377 
L 76.196481 151.046677 
L 76.635851 150.497177 
L 77.075221 151.368725 
L 77.514592 149.391142 
L 77.953962 152.20279 
L 78.393332 149.585697 
L 78.832702 150.00962 
L 79.272072 150.796378 
L 79.711442 149.72368 
L 80.150812 150.594586 
L 80.590182 150.811222 
L 81.029552 149.149645 
L 81.468922 151.3423 
L 81.908292 152.0941 
L 82.347662 150.595475 
L 82.787032 153.314509 
L 83.665773 153.195267 
L 84.105143 152.418414 
L 84.544513 153.63293 
L 84.983883 151.323118 
L 85.423253 151.891496 
L 85.862623 150.39442 
L 86.741363 153.424192 
L 87.180733 152.379524 
L 87.620103 152.264127 
L 88.059473 152.875122 
L 88.498844 152.510687 
L 88.938214 152.297515 
L 89.377584 153.225389 
L 90.256324 152.972257 
L 90.695694 155.1215 
L 91.135064 152.950897 
L 92.013804 154.696719 
L 92.453174 152.093847 
L 92.892544 154.272492 
L 93.331914 150.791042 
L 93.771284 151.513287 
L 94.650025 148.889219 
L 95.089395 148.320305 
L 95.968135 149.045122 
L 96.407505 148.415665 
L 96.846875 149.424429 
L 97.286245 149.190627 
L 97.725615 149.469732 
L 98.164985 147.900155 
L 98.604355 149.673222 
L 99.043725 147.468883 
L 99.483095 147.422485 
L 99.922466 148.924408 
L 100.361836 147.87499 
L 101.240576 151.527589 
L 102.119316 148.818886 
L 102.558686 149.13011 
L 102.998056 149.018147 
L 103.437426 148.181809 
L 103.876796 147.59219 
L 104.316166 149.53722 
L 104.755536 145.120087 
L 105.194906 147.126377 
L 105.634277 147.515786 
L 106.073647 143.37497 
L 106.513017 148.684706 
L 106.952387 144.347606 
L 107.391757 148.495503 
L 107.831127 147.454496 
L 108.270497 147.839342 
L 108.709867 147.071452 
L 109.149237 143.875443 
L 109.588607 142.22587 
L 110.027977 137.065318 
L 110.467347 137.164155 
L 110.906718 136.133203 
L 111.346088 136.181811 
L 111.785458 134.741168 
L 112.224828 138.27815 
L 112.664198 136.942683 
L 113.103568 138.017336 
L 113.542938 139.545298 
L 113.982308 138.674731 
L 114.421678 141.950243 
L 114.861048 140.163948 
L 115.300418 141.70683 
L 115.739788 140.298519 
L 116.179158 138.198209 
L 116.618529 136.883873 
L 117.497269 138.118713 
L 117.936639 140.691366 
L 118.376009 140.954383 
L 118.815379 143.48656 
L 119.254749 141.748351 
L 119.694119 140.921698 
L 120.133489 139.515392 
L 120.572859 136.05153 
L 121.012229 133.478985 
L 121.451599 134.799608 
L 121.890969 132.633034 
L 122.33034 133.223516 
L 122.76971 132.93775 
L 123.20908 134.056129 
L 123.64845 133.567626 
L 124.08782 134.041186 
L 124.52719 133.357766 
L 124.96656 133.757294 
L 125.40593 135.235679 
L 125.8453 132.79601 
L 126.28467 135.615907 
L 126.72404 128.436725 
L 127.16341 127.401933 
L 127.602781 124.545327 
L 128.042151 125.310539 
L 128.481521 122.851241 
L 128.920891 127.176721 
L 129.360261 121.54513 
L 129.799631 128.634208 
L 130.239001 126.915063 
L 130.678371 127.154251 
L 131.117741 125.898194 
L 131.557111 123.676735 
L 131.996481 127.332 
L 132.435851 122.662644 
L 132.875221 125.629969 
L 133.314592 125.678237 
L 133.753962 125.020061 
L 134.193332 123.579935 
L 134.632702 126.737296 
L 135.072072 127.387077 
L 135.511442 129.316592 
L 135.950812 129.759182 
L 136.390182 133.821396 
L 136.829552 130.018388 
L 137.268922 130.158225 
L 137.708292 126.043839 
L 138.147662 124.178892 
L 138.587032 119.58828 
L 139.026403 117.618409 
L 139.465773 117.276102 
L 139.905143 114.368169 
L 140.344513 119.282461 
L 140.783883 113.238134 
L 141.223253 118.071499 
L 141.662623 114.595358 
L 142.541363 117.242602 
L 142.980733 114.891737 
L 143.420103 117.842083 
L 143.859473 112.72327 
L 144.298844 117.670842 
L 144.738214 111.861962 
L 145.177584 113.15719 
L 145.616954 110.403447 
L 146.056324 109.539906 
L 146.935064 114.679806 
L 147.813804 119.312426 
L 148.253174 119.513231 
L 148.692544 120.077065 
L 149.131914 119.530894 
L 149.571284 115.033634 
L 150.010655 116.899078 
L 150.450025 110.323799 
L 150.889395 112.673277 
L 151.328765 109.677993 
L 151.768135 109.568859 
L 152.207505 111.313486 
L 152.646875 110.076742 
L 153.525615 112.417041 
L 153.964985 111.79565 
L 154.404355 111.900134 
L 155.283095 105.975714 
L 155.722466 106.2356 
L 156.161836 101.982604 
L 156.601206 102.437368 
L 157.479946 98.560984 
L 157.919316 100.539631 
L 158.358686 97.50915 
L 158.798056 99.823537 
L 159.237426 97.473851 
L 159.676796 100.276983 
L 160.116166 96.487343 
L 160.555536 96.314681 
L 160.994906 94.617209 
L 161.434277 95.281582 
L 161.873647 91.850491 
L 162.313017 93.673159 
L 162.752387 93.134199 
L 163.191757 96.039618 
L 163.631127 97.128549 
L 164.070497 101.91908 
L 164.509867 102.907746 
L 164.949237 105.578332 
L 165.388607 104.321481 
L 165.827977 104.694675 
L 166.267347 103.713252 
L 166.706718 104.456384 
L 167.146088 104.66931 
L 167.585458 101.858363 
L 168.024828 105.415755 
L 168.464198 102.50821 
L 168.903568 103.610499 
L 169.782308 102.155705 
L 170.661048 99.581281 
L 171.539788 100.689872 
L 171.979158 100.564698 
L 172.418529 99.944133 
L 172.857899 100.471178 
L 173.297269 99.351432 
L 173.736639 98.572384 
L 174.176009 97.398258 
L 174.615379 96.903567 
L 175.054749 95.549474 
L 175.494119 95.788578 
L 175.933489 95.547338 
L 176.372859 94.088663 
L 176.812229 94.74642 
L 177.251599 97.1919 
L 177.690969 94.942706 
L 178.13034 97.46707 
L 178.56971 96.352374 
L 179.00908 97.573349 
L 179.44845 93.21942 
L 179.88782 94.025841 
L 180.32719 93.389982 
L 180.76656 92.4877 
L 181.20593 92.601115 
L 181.6453 95.685679 
L 182.08467 96.422075 
L 182.52404 95.055459 
L 182.96341 99.250829 
L 183.402781 97.655461 
L 183.842151 96.75683 
L 184.720891 100.242492 
L 185.160261 98.898457 
L 185.599631 101.68769 
L 186.039001 100.748031 
L 186.478371 101.592158 
L 186.917741 101.532458 
L 187.357111 100.881971 
L 187.796481 101.502385 
L 188.235851 102.992451 
L 188.675221 103.7765 
L 189.114592 104.283678 
L 189.553962 104.454355 
L 189.993332 104.8086 
L 190.432702 100.788139 
L 190.872072 101.037012 
L 191.311442 100.641153 
L 191.750812 99.225455 
L 192.190182 100.657499 
L 192.629552 97.520008 
L 193.068922 97.320897 
L 193.508292 95.151182 
L 193.947662 91.552274 
L 194.387032 90.511767 
L 194.826403 85.730544 
L 195.265773 86.472274 
L 195.705143 86.091113 
L 196.144513 86.464161 
L 196.583883 86.58063 
L 197.023253 87.855102 
L 197.462623 86.046449 
L 197.901993 86.188986 
L 198.780733 81.969347 
L 199.220103 83.757382 
L 199.659473 83.662925 
L 200.098844 84.831545 
L 200.538214 84.69237 
L 200.977584 86.4731 
L 201.416954 87.37892 
L 201.856324 87.007707 
L 202.735064 90.37122 
L 203.174434 90.777675 
L 204.053174 92.86942 
L 204.492544 93.543647 
L 204.931914 93.579994 
L 205.371284 92.031031 
L 205.810655 93.130443 
L 206.250025 92.359436 
L 206.689395 93.696091 
L 207.128765 93.752372 
L 207.568135 95.331744 
L 208.007505 94.749395 
L 208.446875 93.701264 
L 208.886245 93.198283 
L 209.325615 91.108753 
L 209.764985 90.117005 
L 210.204355 87.667346 
L 212.840576 79.369105 
L 213.279946 76.726992 
L 213.719316 76.178064 
L 214.158686 74.166166 
L 214.598056 73.697142 
L 215.037426 71.565915 
L 215.476796 70.194272 
L 215.916166 69.94357 
L 216.355536 68.317735 
L 216.794906 68.968177 
L 217.234277 68.986588 
L 217.673647 70.212035 
L 218.113017 69.971084 
L 218.552387 70.92152 
L 218.991757 72.238569 
L 219.431127 71.566954 
L 220.309867 72.287195 
L 220.749237 73.519329 
L 221.627977 74.661256 
L 222.067347 76.151349 
L 222.506718 76.065741 
L 222.946088 77.491009 
L 223.385458 77.097064 
L 224.264198 78.445446 
L 224.703568 77.919707 
L 225.142938 79.88718 
L 225.582308 79.482009 
L 226.900418 81.742176 
L 227.339788 82.908247 
L 227.779158 82.23311 
L 228.218529 82.215116 
L 229.097269 80.063058 
L 229.536639 78.363037 
L 229.976009 77.1618 
L 230.854749 75.844845 
L 231.294119 75.615742 
L 231.733489 75.517896 
L 232.172859 75.171906 
L 232.612229 73.804482 
L 233.051599 73.067749 
L 233.490969 71.123908 
L 233.93034 70.779277 
L 234.80908 68.657268 
L 235.24845 69.386977 
L 235.68782 69.108751 
L 236.12719 70.070697 
L 237.00593 70.300697 
L 237.4453 71.717928 
L 237.88467 71.849229 
L 239.202781 75.482193 
L 239.642151 75.591913 
L 240.081521 75.409393 
L 240.520891 76.606193 
L 240.960261 76.643681 
L 241.399631 76.805361 
L 241.839001 77.382684 
L 242.278371 77.322219 
L 242.717741 78.853029 
L 243.157111 77.879288 
L 243.596481 78.886578 
L 245.353962 72.808733 
L 245.793332 71.496276 
L 246.232702 69.815821 
L 246.672072 68.994635 
L 247.111442 68.983409 
L 247.550812 67.790947 
L 247.990182 67.208784 
L 248.429552 67.032943 
L 248.868922 65.576777 
L 249.308292 66.071458 
L 249.747662 65.195314 
L 250.187032 66.554292 
L 250.626403 67.371091 
L 251.065773 69.137589 
L 251.505143 70.166252 
L 252.823253 74.654675 
L 253.262623 77.2645 
L 253.701993 78.781863 
L 254.141363 81.582405 
L 254.580733 82.69438 
L 255.459473 86.091216 
L 255.898844 86.598353 
L 256.338214 87.625999 
L 256.777584 87.971132 
L 257.216954 88.035882 
L 257.656324 87.144049 
L 258.095694 86.899692 
L 258.535064 84.843113 
L 258.974434 83.566967 
L 260.292544 77.069172 
L 260.731914 74.402853 
L 261.171284 72.478587 
L 261.610655 69.823228 
L 262.489395 65.831751 
L 262.928765 63.325571 
L 263.368135 62.293347 
L 263.807505 60.674368 
L 264.246875 59.642579 
L 264.686245 59.003362 
L 265.125615 58.148356 
L 265.564985 57.878825 
L 266.004355 58.138738 
L 266.443725 58.103852 
L 267.322466 59.934446 
L 269.079946 66.594027 
L 270.837426 74.471497 
L 272.594906 80.840721 
L 273.034277 81.345385 
L 273.473647 82.649547 
L 273.913017 82.135793 
L 274.352387 82.674717 
L 274.791757 81.942655 
L 275.670497 79.5425 
L 276.109867 78.138765 
L 277.427977 72.140919 
L 279.624828 59.926142 
L 280.503568 55.942836 
L 280.942938 55.700935 
L 281.382308 54.645113 
L 281.821678 55.048583 
L 282.261048 55.143587 
L 282.700418 55.65477 
L 283.139788 57.359347 
L 283.579158 58.617477 
L 284.457899 63.195158 
L 284.897269 65.448317 
L 285.776009 70.847104 
L 287.094119 77.678383 
L 288.412229 82.488257 
L 289.290969 83.623656 
L 289.73034 83.007429 
L 290.60908 79.993965 
L 291.48782 74.890208 
L 292.80593 66.704671 
L 294.12404 57.978767 
L 295.002781 53.25641 
L 295.881521 50.968728 
L 296.320891 50.638458 
L 296.760261 51.130502 
L 297.199631 52.023369 
L 298.078371 56.443273 
L 298.517741 59.333695 
L 300.714592 79.793855 
L 302.032702 87.194153 
L 302.472072 89.510428 
L 303.350812 92.47286 
L 303.790182 93.325677 
L 304.229552 92.630073 
L 304.668922 91.143768 
L 305.108292 88.713013 
L 305.987032 81.338617 
L 308.183883 60.331406 
L 309.062623 53.955904 
L 309.501993 51.01119 
L 310.380733 47.481001 
L 310.820103 46.928618 
L 311.259473 47.111475 
L 311.698844 47.758214 
L 312.577584 51.432325 
L 313.456324 57.994025 
L 315.653174 79.418739 
L 317.410655 89.724619 
L 317.850025 91.806524 
L 318.289395 91.945974 
L 318.728765 92.398181 
L 319.607505 89.552405 
L 320.486245 84.45403 
L 321.364985 78.478081 
L 324.001206 57.470772 
L 324.879946 52.712312 
L 325.758686 50.158111 
L 326.198056 49.685651 
L 326.637426 49.991906 
L 327.516166 52.974738 
L 328.394906 58.086036 
L 329.273647 64.718733 
L 330.591757 75.700932 
L 331.470497 81.992945 
L 331.909867 85.091452 
L 332.788607 89.156618 
L 333.227977 90.420623 
L 333.667347 91.25025 
L 334.106718 91.533356 
L 334.546088 90.632895 
L 334.985458 89.396169 
L 335.864198 84.82344 
L 339.379158 61.029613 
L 339.818529 59.075035 
L 340.257899 57.767702 
L 341.136639 56.27768 
L 341.576009 56.7457 
L 342.454749 59.436265 
L 343.333489 64.371118 
L 344.212229 70.845203 
L 345.96971 84.717104 
L 347.28782 91.1212 
L 347.72719 92.588308 
L 348.60593 94.011276 
L 349.0453 93.91097 
L 349.92404 92.134951 
L 350.802781 88.590175 
L 353.439001 72.61266 
L 354.757111 66.933339 
L 355.196481 65.405154 
L 355.635851 64.706779 
L 356.075221 63.730374 
L 356.514592 63.441251 
L 356.953962 63.639056 
L 357.393332 64.561835 
L 358.272072 67.134723 
L 359.590182 73.977437 
L 360.468922 79.079969 
L 361.787032 87.208625 
L 363.105143 93.785672 
L 363.983883 96.662581 
L 364.423253 97.494265 
L 364.862623 97.882974 
L 365.741363 96.661329 
L 366.180733 95.231851 
L 367.059473 90.99648 
L 367.498844 88.681577 
L 369.695694 74.51149 
L 370.574434 69.977541 
L 371.013804 68.052032 
L 371.892544 65.710583 
L 372.771284 65.766287 
L 373.210655 66.879722 
L 373.650025 68.600223 
L 374.528765 74.194364 
L 375.407505 81.440415 
L 377.164985 96.621505 
L 378.043725 102.332413 
L 378.922466 106.671514 
L 379.361836 108.384981 
L 379.801206 109.232993 
L 380.240576 109.546389 
L 380.679946 108.549548 
L 381.119316 106.947195 
L 381.558686 104.599467 
L 382.437426 97.69636 
L 384.194906 81.08942 
L 385.073647 74.001159 
L 385.952387 68.579921 
L 386.391757 66.277203 
L 387.270497 64.609573 
L 387.709867 65.002625 
L 388.149237 66.227841 
L 388.588607 68.280779 
L 389.027977 71.00576 
L 389.906718 78.404641 
L 392.542938 104.338387 
L 394.300418 115.479193 
L 395.179158 118.227491 
L 395.618529 118.27972 
L 396.057899 117.449402 
L 396.497269 115.714399 
L 396.936639 113.361573 
L 397.815379 107.234275 
L 400.012229 88.23755 
L 400.890969 82.327465 
L 401.76971 77.595303 
L 402.20908 75.660273 
L 402.64845 74.339663 
L 403.08782 73.497783 
L 403.52719 73.611926 
L 403.96656 74.687003 
L 404.40593 76.795405 
L 405.28467 82.797359 
L 408.799631 113.478938 
L 409.678371 118.672464 
L 410.117741 120.574297 
L 410.996481 122.644761 
L 411.435851 122.766626 
L 411.875221 122.252473 
L 412.314592 120.721785 
L 412.753962 118.571978 
L 413.632702 112.309226 
L 415.829552 94.403884 
L 416.708292 89.24278 
L 417.587032 85.130393 
L 418.026403 83.598171 
L 418.465773 82.81839 
L 418.905143 82.541639 
L 419.344513 83.126452 
L 419.783883 84.438044 
L 420.223253 86.462775 
L 421.101993 92.855157 
L 422.420103 105.688896 
L 423.738214 117.659159 
L 424.616954 123.619022 
L 425.495694 127.557994 
L 426.374434 129.796766 
L 426.813804 129.927115 
L 427.253174 129.378213 
L 427.692544 128.113799 
L 428.131914 126.19121 
L 428.571284 123.649216 
L 429.450025 116.805269 
L 431.207505 102.180489 
L 432.086245 96.763504 
L 432.964985 92.882294 
L 433.404355 91.561737 
L 433.843725 91.043791 
L 434.283095 90.900561 
L 434.722466 91.478452 
L 435.601206 94.593656 
L 436.479946 99.526488 
L 437.798056 109.342181 
L 439.116166 120.240595 
L 439.994906 126.058429 
L 440.873647 130.420846 
L 441.752387 133.154302 
L 442.191757 133.407142 
L 442.631127 132.953683 
L 443.509867 130.436411 
L 444.388607 126.556452 
L 446.146088 116.132244 
L 447.464198 108.491113 
L 448.342938 104.873927 
L 449.221678 102.956802 
L 449.661048 102.616993 
L 450.100418 102.760076 
L 450.539788 103.565426 
L 450.979158 104.969615 
L 451.857899 109.322286 
L 452.736639 114.957243 
L 455.372859 132.330494 
L 456.251599 137.072724 
L 457.13034 140.184747 
L 457.56971 141.005305 
L 458.00908 141.558945 
L 458.44845 141.300321 
L 458.88782 140.38679 
L 459.76656 137.120751 
L 461.08467 129.769207 
L 462.402781 121.570664 
L 463.281521 117.22866 
L 464.160261 113.610102 
L 465.039001 111.318637 
L 465.478371 110.519268 
L 465.917741 110.456628 
L 466.357111 110.745307 
L 466.796481 111.786657 
L 467.675221 115.612488 
L 468.993332 124.467773 
L 471.190182 140.762787 
L 472.068922 145.94045 
L 472.947662 150.005567 
L 473.387032 151.416157 
L 473.826403 152.309877 
L 474.265773 152.707433 
L 474.705143 152.324402 
L 475.144513 151.064987 
L 475.583883 149.321138 
L 476.462623 143.853221 
L 479.098844 123.479789 
L 479.977584 118.417996 
L 480.856324 114.839368 
L 480.856324 114.839368 
" clip-path="url(#pe91b72a8c0)" style="fill: none; stroke-dasharray: 4.44,1.92; stroke-dashoffset: 0; stroke: #0000ff; stroke-width: 1.2"/>
   </g>
   <g id="patch_3">
    <path d="M 41.046875 185.393079 
L 41.046875 10.778906 
" style="fill: none; stroke: #000000; stroke-width: 0.8; stroke-linejoin: miter; stroke-linecap: square"/>
   </g>
   <g id="patch_4">
    <path d="M 480.416954 185.393079 
L 480.416954 10.778906 
" style="fill: none; stroke: #000000; stroke-width: 0.8; stroke-linejoin: miter; stroke-linecap: square"/>
   </g>
   <g id="patch_5">
    <path d="M 41.046875 185.393079 
L 480.416954 185.393079 
" style="fill: none; stroke: #000000; stroke-width: 0.8; stroke-linejoin: miter; stroke-linecap: square"/>
   </g>
   <g id="patch_6">
    <path d="M 41.046875 10.778906 
L 480.416954 10.778906 
" style="fill: none; stroke: #000000; stroke-width: 0.8; stroke-linejoin: miter; stroke-linecap: square"/>
   </g>
   <g id="text_15">
    <!-- 8th floor -->
    <g transform="translate(66.919039 35.190834) scale(0.1 -0.1)">
     <defs>
      <path id="ArialMT-38" d="M 1131 2484 
Q 781 2613 612 2850 
Q 444 3088 444 3419 
Q 444 3919 803 4259 
Q 1163 4600 1759 4600 
Q 2359 4600 2725 4251 
Q 3091 3903 3091 3403 
Q 3091 3084 2923 2848 
Q 2756 2613 2416 2484 
Q 2838 2347 3058 2040 
Q 3278 1734 3278 1309 
Q 3278 722 2862 322 
Q 2447 -78 1769 -78 
Q 1091 -78 675 323 
Q 259 725 259 1325 
Q 259 1772 486 2073 
Q 713 2375 1131 2484 
z
M 1019 3438 
Q 1019 3113 1228 2906 
Q 1438 2700 1772 2700 
Q 2097 2700 2305 2904 
Q 2513 3109 2513 3406 
Q 2513 3716 2298 3927 
Q 2084 4138 1766 4138 
Q 1444 4138 1231 3931 
Q 1019 3725 1019 3438 
z
M 838 1322 
Q 838 1081 952 856 
Q 1066 631 1291 507 
Q 1516 384 1775 384 
Q 2178 384 2440 643 
Q 2703 903 2703 1303 
Q 2703 1709 2433 1975 
Q 2163 2241 1756 2241 
Q 1359 2241 1098 1978 
Q 838 1716 838 1322 
z
" transform="scale(0.015625)"/>
      <path id="ArialMT-68" d="M 422 0 
L 422 4581 
L 984 4581 
L 984 2938 
Q 1378 3394 1978 3394 
Q 2347 3394 2619 3248 
Q 2891 3103 3008 2847 
Q 3125 2591 3125 2103 
L 3125 0 
L 2563 0 
L 2563 2103 
Q 2563 2525 2380 2717 
Q 2197 2909 1863 2909 
Q 1613 2909 1392 2779 
Q 1172 2650 1078 2428 
Q 984 2206 984 1816 
L 984 0 
L 422 0 
z
" transform="scale(0.015625)"/>
      <path id="ArialMT-66" d="M 556 0 
L 556 2881 
L 59 2881 
L 59 3319 
L 556 3319 
L 556 3672 
Q 556 4006 616 4169 
Q 697 4388 901 4523 
Q 1106 4659 1475 4659 
Q 1713 4659 2000 4603 
L 1916 4113 
Q 1741 4144 1584 4144 
Q 1328 4144 1222 4034 
Q 1116 3925 1116 3625 
L 1116 3319 
L 1763 3319 
L 1763 2881 
L 1116 2881 
L 1116 0 
L 556 0 
z
" transform="scale(0.015625)"/>
      <path id="ArialMT-6f" d="M 213 1659 
Q 213 2581 725 3025 
Q 1153 3394 1769 3394 
Q 2453 3394 2887 2945 
Q 3322 2497 3322 1706 
Q 3322 1066 3130 698 
Q 2938 331 2570 128 
Q 2203 -75 1769 -75 
Q 1072 -75 642 372 
Q 213 819 213 1659 
z
M 791 1659 
Q 791 1022 1069 705 
Q 1347 388 1769 388 
Q 2188 388 2466 706 
Q 2744 1025 2744 1678 
Q 2744 2294 2464 2611 
Q 2184 2928 1769 2928 
Q 1347 2928 1069 2612 
Q 791 2297 791 1659 
z
" transform="scale(0.015625)"/>
      <path id="ArialMT-72" d="M 416 0 
L 416 3319 
L 922 3319 
L 922 2816 
Q 1116 3169 1280 3281 
Q 1444 3394 1641 3394 
Q 1925 3394 2219 3213 
L 2025 2691 
Q 1819 2813 1613 2813 
Q 1428 2813 1281 2702 
Q 1134 2591 1072 2394 
Q 978 2094 978 1738 
L 978 0 
L 416 0 
z
" transform="scale(0.015625)"/>
     </defs>
     <use xlink:href="#ArialMT-38"/>
     <use xlink:href="#ArialMT-74" x="55.615234"/>
     <use xlink:href="#ArialMT-68" x="83.398438"/>
     <use xlink:href="#ArialMT-20" x="139.013672"/>
     <use xlink:href="#ArialMT-66" x="166.796875"/>
     <use xlink:href="#ArialMT-6c" x="194.580078"/>
     <use xlink:href="#ArialMT-6f" x="216.796875"/>
     <use xlink:href="#ArialMT-6f" x="272.412109"/>
     <use xlink:href="#ArialMT-72" x="328.027344"/>
    </g>
   </g>
   <g id="legend_1">
    <g id="patch_7">
     <path d="M 48.046875 47.069531 
L 237.514063 47.069531 
Q 239.514063 47.069531 239.514063 45.069531 
L 239.514063 17.778906 
Q 239.514063 15.778906 237.514063 15.778906 
L 48.046875 15.778906 
Q 46.046875 15.778906 46.046875 17.778906 
L 46.046875 45.069531 
Q 46.046875 47.069531 48.046875 47.069531 
z
" style="fill: #ffffff; opacity: 0.8; stroke: #000000; stroke-linejoin: miter"/>
    </g>
    <g id="line2d_28">
     <path d="M 50.046875 23.436719 
L 60.046875 23.436719 
L 70.046875 23.436719 
" style="fill: none; stroke: #000000; stroke-width: 1.2; stroke-linecap: square"/>
    </g>
    <g id="text_16">
     <!-- Ref. -->
     <g transform="translate(78.046875 26.936719) scale(0.1 -0.1)">
      <defs>
       <path id="ArialMT-52" d="M 503 0 
L 503 4581 
L 2534 4581 
Q 3147 4581 3465 4457 
Q 3784 4334 3975 4021 
Q 4166 3709 4166 3331 
Q 4166 2844 3850 2509 
Q 3534 2175 2875 2084 
Q 3116 1969 3241 1856 
Q 3506 1613 3744 1247 
L 4541 0 
L 3778 0 
L 3172 953 
Q 2906 1366 2734 1584 
Q 2563 1803 2427 1890 
Q 2291 1978 2150 2013 
Q 2047 2034 1813 2034 
L 1109 2034 
L 1109 0 
L 503 0 
z
M 1109 2559 
L 2413 2559 
Q 2828 2559 3062 2645 
Q 3297 2731 3419 2920 
Q 3541 3109 3541 3331 
Q 3541 3656 3305 3865 
Q 3069 4075 2559 4075 
L 1109 4075 
L 1109 2559 
z
" transform="scale(0.015625)"/>
       <path id="ArialMT-2e" d="M 581 0 
L 581 641 
L 1222 641 
L 1222 0 
L 581 0 
z
" transform="scale(0.015625)"/>
      </defs>
      <use xlink:href="#ArialMT-52"/>
      <use xlink:href="#ArialMT-65" x="72.216797"/>
      <use xlink:href="#ArialMT-66" x="127.832031"/>
      <use xlink:href="#ArialMT-2e" x="155.615234"/>
     </g>
    </g>
    <g id="line2d_29">
     <path d="M 50.046875 37.582031 
L 60.046875 37.582031 
L 70.046875 37.582031 
" style="fill: none; stroke-dasharray: 7.68,1.92,1.2,1.92; stroke-dashoffset: 0; stroke: #ff0000; stroke-width: 1.2"/>
    </g>
    <g id="text_17">
     <!-- TL-RNN pred. -->
     <g transform="translate(78.046875 41.082031) scale(0.1 -0.1)">
      <defs>
       <path id="ArialMT-4c" d="M 469 0 
L 469 4581 
L 1075 4581 
L 1075 541 
L 3331 541 
L 3331 0 
L 469 0 
z
" transform="scale(0.015625)"/>
       <path id="ArialMT-2d" d="M 203 1375 
L 203 1941 
L 1931 1941 
L 1931 1375 
L 203 1375 
z
" transform="scale(0.015625)"/>
       <path id="ArialMT-4e" d="M 488 0 
L 488 4581 
L 1109 4581 
L 3516 984 
L 3516 4581 
L 4097 4581 
L 4097 0 
L 3475 0 
L 1069 3600 
L 1069 0 
L 488 0 
z
" transform="scale(0.015625)"/>
       <path id="ArialMT-64" d="M 2575 0 
L 2575 419 
Q 2259 -75 1647 -75 
Q 1250 -75 917 144 
Q 584 363 401 755 
Q 219 1147 219 1656 
Q 219 2153 384 2558 
Q 550 2963 881 3178 
Q 1213 3394 1622 3394 
Q 1922 3394 2156 3267 
Q 2391 3141 2538 2938 
L 2538 4581 
L 3097 4581 
L 3097 0 
L 2575 0 
z
M 797 1656 
Q 797 1019 1065 703 
Q 1334 388 1700 388 
Q 2069 388 2326 689 
Q 2584 991 2584 1609 
Q 2584 2291 2321 2609 
Q 2059 2928 1675 2928 
Q 1300 2928 1048 2622 
Q 797 2316 797 1656 
z
" transform="scale(0.015625)"/>
      </defs>
      <use xlink:href="#ArialMT-54"/>
      <use xlink:href="#ArialMT-4c" x="61.083984"/>
      <use xlink:href="#ArialMT-2d" x="116.699219"/>
      <use xlink:href="#ArialMT-52" x="150"/>
      <use xlink:href="#ArialMT-4e" x="222.216797"/>
      <use xlink:href="#ArialMT-4e" x="294.433594"/>
      <use xlink:href="#ArialMT-20" x="366.650391"/>
      <use xlink:href="#ArialMT-70" x="394.433594"/>
      <use xlink:href="#ArialMT-72" x="450.048828"/>
      <use xlink:href="#ArialMT-65" x="483.349609"/>
      <use xlink:href="#ArialMT-64" x="538.964844"/>
      <use xlink:href="#ArialMT-2e" x="594.580078"/>
     </g>
    </g>
    <g id="line2d_30">
     <path d="M 160.279688 23.436719 
L 170.279688 23.436719 
L 180.279688 23.436719 
" style="fill: none; stroke-dasharray: 4.44,1.92; stroke-dashoffset: 0; stroke: #0000ff; stroke-width: 1.2"/>
    </g>
    <g id="text_18">
     <!-- RNN pred. -->
     <g transform="translate(188.279688 26.936719) scale(0.1 -0.1)">
      <use xlink:href="#ArialMT-52"/>
      <use xlink:href="#ArialMT-4e" x="72.216797"/>
      <use xlink:href="#ArialMT-4e" x="144.433594"/>
      <use xlink:href="#ArialMT-20" x="216.650391"/>
      <use xlink:href="#ArialMT-70" x="244.433594"/>
      <use xlink:href="#ArialMT-72" x="300.048828"/>
      <use xlink:href="#ArialMT-65" x="333.349609"/>
      <use xlink:href="#ArialMT-64" x="388.964844"/>
      <use xlink:href="#ArialMT-2e" x="444.580078"/>
     </g>
    </g>
   </g>
  </g>
 </g>
 <defs>
  <clipPath id="pe91b72a8c0">
   <rect x="41.046875" y="10.778906" width="439.370079" height="174.614173"/>
  </clipPath>
 </defs>
</svg>
