<?xml version="1.0" encoding="utf-8" standalone="no"?>
<!DOCTYPE svg PUBLIC "-//W3C//DTD SVG 1.1//EN"
  "http://www.w3.org/Graphics/SVG/1.1/DTD/svg11.dtd">
<svg xmlns:xlink="http://www.w3.org/1999/xlink" width="493.177891pt" height="218.622767pt" viewBox="0 0 493.177891 218.622767" xmlns="http://www.w3.org/2000/svg" version="1.1">
 <metadata>
  <rdf:RDF xmlns:dc="http://purl.org/dc/elements/1.1/" xmlns:cc="http://creativecommons.org/ns#" xmlns:rdf="http://www.w3.org/1999/02/22-rdf-syntax-ns#">
   <cc:Work>
    <dc:type rdf:resource="http://purl.org/dc/dcmitype/StillImage"/>
    <dc:date>2024-04-03T19:15:47.886905</dc:date>
    <dc:format>image/svg+xml</dc:format>
    <dc:creator>
     <cc:Agent>
      <dc:title>Matplotlib v3.8.2, https://matplotlib.org/</dc:title>
     </cc:Agent>
    </dc:creator>
   </cc:Work>
  </rdf:RDF>
 </metadata>
 <defs>
  <style type="text/css">*{stroke-linejoin: round; stroke-linecap: butt}</style>
 </defs>
 <g id="figure_1">
  <g id="patch_1">
   <path d="M 0 218.622767 
L 493.177891 218.622767 
L 493.177891 0 
L 0 0 
z
" style="fill: #ffffff"/>
  </g>
  <g id="axes_1">
   <g id="patch_2">
    <path d="M 41.046875 185.393079 
L 480.416954 185.393079 
L 480.416954 10.778906 
L 41.046875 10.778906 
z
" style="fill: #ffffff"/>
   </g>
   <g id="matplotlib.axis_1">
    <g id="xtick_1">
     <g id="line2d_1">
      <path d="M 41.046875 185.393079 
L 41.046875 10.778906 
" clip-path="url(#p88080f5ab2)" style="fill: none; stroke: #b0b0b0; stroke-width: 0.8; stroke-linecap: square"/>
     </g>
     <g id="line2d_2">
      <defs>
       <path id="m717e6404e7" d="M 0 0 
L 0 -3.5 
" style="stroke: #000000; stroke-width: 0.8"/>
      </defs>
      <g>
       <use xlink:href="#m717e6404e7" x="41.046875" y="185.393079" style="stroke: #000000; stroke-width: 0.8"/>
      </g>
     </g>
     <g id="text_1">
      <!-- 0 -->
      <g transform="translate(38.266406 196.050892) scale(0.1 -0.1)">
       <defs>
        <path id="ArialMT-30" d="M 266 2259 
Q 266 3072 433 3567 
Q 600 4063 929 4331 
Q 1259 4600 1759 4600 
Q 2128 4600 2406 4451 
Q 2684 4303 2865 4023 
Q 3047 3744 3150 3342 
Q 3253 2941 3253 2259 
Q 3253 1453 3087 958 
Q 2922 463 2592 192 
Q 2263 -78 1759 -78 
Q 1097 -78 719 397 
Q 266 969 266 2259 
z
M 844 2259 
Q 844 1131 1108 757 
Q 1372 384 1759 384 
Q 2147 384 2411 759 
Q 2675 1134 2675 2259 
Q 2675 3391 2411 3762 
Q 2147 4134 1753 4134 
Q 1366 4134 1134 3806 
Q 844 3388 844 2259 
z
" transform="scale(0.015625)"/>
       </defs>
       <use xlink:href="#ArialMT-30"/>
      </g>
     </g>
    </g>
    <g id="xtick_2">
     <g id="line2d_3">
      <path d="M 103.814029 185.393079 
L 103.814029 10.778906 
" clip-path="url(#p88080f5ab2)" style="fill: none; stroke: #b0b0b0; stroke-width: 0.8; stroke-linecap: square"/>
     </g>
     <g id="line2d_4">
      <g>
       <use xlink:href="#m717e6404e7" x="103.814029" y="185.393079" style="stroke: #000000; stroke-width: 0.8"/>
      </g>
     </g>
     <g id="text_2">
      <!-- 10 -->
      <g transform="translate(98.253092 196.050892) scale(0.1 -0.1)">
       <defs>
        <path id="ArialMT-31" d="M 2384 0 
L 1822 0 
L 1822 3584 
Q 1619 3391 1289 3197 
Q 959 3003 697 2906 
L 697 3450 
Q 1169 3672 1522 3987 
Q 1875 4303 2022 4600 
L 2384 4600 
L 2384 0 
z
" transform="scale(0.015625)"/>
       </defs>
       <use xlink:href="#ArialMT-31"/>
       <use xlink:href="#ArialMT-30" x="55.615234"/>
      </g>
     </g>
    </g>
    <g id="xtick_3">
     <g id="line2d_5">
      <path d="M 166.581183 185.393079 
L 166.581183 10.778906 
" clip-path="url(#p88080f5ab2)" style="fill: none; stroke: #b0b0b0; stroke-width: 0.8; stroke-linecap: square"/>
     </g>
     <g id="line2d_6">
      <g>
       <use xlink:href="#m717e6404e7" x="166.581183" y="185.393079" style="stroke: #000000; stroke-width: 0.8"/>
      </g>
     </g>
     <g id="text_3">
      <!-- 20 -->
      <g transform="translate(161.020246 196.050892) scale(0.1 -0.1)">
       <defs>
        <path id="ArialMT-32" d="M 3222 541 
L 3222 0 
L 194 0 
Q 188 203 259 391 
Q 375 700 629 1000 
Q 884 1300 1366 1694 
Q 2113 2306 2375 2664 
Q 2638 3022 2638 3341 
Q 2638 3675 2398 3904 
Q 2159 4134 1775 4134 
Q 1369 4134 1125 3890 
Q 881 3647 878 3216 
L 300 3275 
Q 359 3922 746 4261 
Q 1134 4600 1788 4600 
Q 2447 4600 2831 4234 
Q 3216 3869 3216 3328 
Q 3216 3053 3103 2787 
Q 2991 2522 2730 2228 
Q 2469 1934 1863 1422 
Q 1356 997 1212 845 
Q 1069 694 975 541 
L 3222 541 
z
" transform="scale(0.015625)"/>
       </defs>
       <use xlink:href="#ArialMT-32"/>
       <use xlink:href="#ArialMT-30" x="55.615234"/>
      </g>
     </g>
    </g>
    <g id="xtick_4">
     <g id="line2d_7">
      <path d="M 229.348337 185.393079 
L 229.348337 10.778906 
" clip-path="url(#p88080f5ab2)" style="fill: none; stroke: #b0b0b0; stroke-width: 0.8; stroke-linecap: square"/>
     </g>
     <g id="line2d_8">
      <g>
       <use xlink:href="#m717e6404e7" x="229.348337" y="185.393079" style="stroke: #000000; stroke-width: 0.8"/>
      </g>
     </g>
     <g id="text_4">
      <!-- 30 -->
      <g transform="translate(223.7874 196.050892) scale(0.1 -0.1)">
       <defs>
        <path id="ArialMT-33" d="M 269 1209 
L 831 1284 
Q 928 806 1161 595 
Q 1394 384 1728 384 
Q 2125 384 2398 659 
Q 2672 934 2672 1341 
Q 2672 1728 2419 1979 
Q 2166 2231 1775 2231 
Q 1616 2231 1378 2169 
L 1441 2663 
Q 1497 2656 1531 2656 
Q 1891 2656 2178 2843 
Q 2466 3031 2466 3422 
Q 2466 3731 2256 3934 
Q 2047 4138 1716 4138 
Q 1388 4138 1169 3931 
Q 950 3725 888 3313 
L 325 3413 
Q 428 3978 793 4289 
Q 1159 4600 1703 4600 
Q 2078 4600 2393 4439 
Q 2709 4278 2876 4000 
Q 3044 3722 3044 3409 
Q 3044 3113 2884 2869 
Q 2725 2625 2413 2481 
Q 2819 2388 3044 2092 
Q 3269 1797 3269 1353 
Q 3269 753 2831 336 
Q 2394 -81 1725 -81 
Q 1122 -81 723 278 
Q 325 638 269 1209 
z
" transform="scale(0.015625)"/>
       </defs>
       <use xlink:href="#ArialMT-33"/>
       <use xlink:href="#ArialMT-30" x="55.615234"/>
      </g>
     </g>
    </g>
    <g id="xtick_5">
     <g id="line2d_9">
      <path d="M 292.115491 185.393079 
L 292.115491 10.778906 
" clip-path="url(#p88080f5ab2)" style="fill: none; stroke: #b0b0b0; stroke-width: 0.8; stroke-linecap: square"/>
     </g>
     <g id="line2d_10">
      <g>
       <use xlink:href="#m717e6404e7" x="292.115491" y="185.393079" style="stroke: #000000; stroke-width: 0.8"/>
      </g>
     </g>
     <g id="text_5">
      <!-- 40 -->
      <g transform="translate(286.554554 196.050892) scale(0.1 -0.1)">
       <defs>
        <path id="ArialMT-34" d="M 2069 0 
L 2069 1097 
L 81 1097 
L 81 1613 
L 2172 4581 
L 2631 4581 
L 2631 1613 
L 3250 1613 
L 3250 1097 
L 2631 1097 
L 2631 0 
L 2069 0 
z
M 2069 1613 
L 2069 3678 
L 634 1613 
L 2069 1613 
z
" transform="scale(0.015625)"/>
       </defs>
       <use xlink:href="#ArialMT-34"/>
       <use xlink:href="#ArialMT-30" x="55.615234"/>
      </g>
     </g>
    </g>
    <g id="xtick_6">
     <g id="line2d_11">
      <path d="M 354.882646 185.393079 
L 354.882646 10.778906 
" clip-path="url(#p88080f5ab2)" style="fill: none; stroke: #b0b0b0; stroke-width: 0.8; stroke-linecap: square"/>
     </g>
     <g id="line2d_12">
      <g>
       <use xlink:href="#m717e6404e7" x="354.882646" y="185.393079" style="stroke: #000000; stroke-width: 0.8"/>
      </g>
     </g>
     <g id="text_6">
      <!-- 50 -->
      <g transform="translate(349.321708 196.050892) scale(0.1 -0.1)">
       <defs>
        <path id="ArialMT-35" d="M 266 1200 
L 856 1250 
Q 922 819 1161 601 
Q 1400 384 1738 384 
Q 2144 384 2425 690 
Q 2706 997 2706 1503 
Q 2706 1984 2436 2262 
Q 2166 2541 1728 2541 
Q 1456 2541 1237 2417 
Q 1019 2294 894 2097 
L 366 2166 
L 809 4519 
L 3088 4519 
L 3088 3981 
L 1259 3981 
L 1013 2750 
Q 1425 3038 1878 3038 
Q 2478 3038 2890 2622 
Q 3303 2206 3303 1553 
Q 3303 931 2941 478 
Q 2500 -78 1738 -78 
Q 1113 -78 717 272 
Q 322 622 266 1200 
z
" transform="scale(0.015625)"/>
       </defs>
       <use xlink:href="#ArialMT-35"/>
       <use xlink:href="#ArialMT-30" x="55.615234"/>
      </g>
     </g>
    </g>
    <g id="xtick_7">
     <g id="line2d_13">
      <path d="M 417.6498 185.393079 
L 417.6498 10.778906 
" clip-path="url(#p88080f5ab2)" style="fill: none; stroke: #b0b0b0; stroke-width: 0.8; stroke-linecap: square"/>
     </g>
     <g id="line2d_14">
      <g>
       <use xlink:href="#m717e6404e7" x="417.6498" y="185.393079" style="stroke: #000000; stroke-width: 0.8"/>
      </g>
     </g>
     <g id="text_7">
      <!-- 60 -->
      <g transform="translate(412.088862 196.050892) scale(0.1 -0.1)">
       <defs>
        <path id="ArialMT-36" d="M 3184 3459 
L 2625 3416 
Q 2550 3747 2413 3897 
Q 2184 4138 1850 4138 
Q 1581 4138 1378 3988 
Q 1113 3794 959 3422 
Q 806 3050 800 2363 
Q 1003 2672 1297 2822 
Q 1591 2972 1913 2972 
Q 2475 2972 2870 2558 
Q 3266 2144 3266 1488 
Q 3266 1056 3080 686 
Q 2894 316 2569 119 
Q 2244 -78 1831 -78 
Q 1128 -78 684 439 
Q 241 956 241 2144 
Q 241 3472 731 4075 
Q 1159 4600 1884 4600 
Q 2425 4600 2770 4297 
Q 3116 3994 3184 3459 
z
M 888 1484 
Q 888 1194 1011 928 
Q 1134 663 1356 523 
Q 1578 384 1822 384 
Q 2178 384 2434 671 
Q 2691 959 2691 1453 
Q 2691 1928 2437 2201 
Q 2184 2475 1800 2475 
Q 1419 2475 1153 2201 
Q 888 1928 888 1484 
z
" transform="scale(0.015625)"/>
       </defs>
       <use xlink:href="#ArialMT-36"/>
       <use xlink:href="#ArialMT-30" x="55.615234"/>
      </g>
     </g>
    </g>
    <g id="xtick_8">
     <g id="line2d_15">
      <path d="M 480.416954 185.393079 
L 480.416954 10.778906 
" clip-path="url(#p88080f5ab2)" style="fill: none; stroke: #b0b0b0; stroke-width: 0.8; stroke-linecap: square"/>
     </g>
     <g id="line2d_16">
      <g>
       <use xlink:href="#m717e6404e7" x="480.416954" y="185.393079" style="stroke: #000000; stroke-width: 0.8"/>
      </g>
     </g>
     <g id="text_8">
      <!-- 70 -->
      <g transform="translate(474.856016 196.050892) scale(0.1 -0.1)">
       <defs>
        <path id="ArialMT-37" d="M 303 3981 
L 303 4522 
L 3269 4522 
L 3269 4084 
Q 2831 3619 2401 2847 
Q 1972 2075 1738 1259 
Q 1569 684 1522 0 
L 944 0 
Q 953 541 1156 1306 
Q 1359 2072 1739 2783 
Q 2119 3494 2547 3981 
L 303 3981 
z
" transform="scale(0.015625)"/>
       </defs>
       <use xlink:href="#ArialMT-37"/>
       <use xlink:href="#ArialMT-30" x="55.615234"/>
      </g>
     </g>
    </g>
    <g id="text_9">
     <!-- Time (s) -->
     <g transform="translate(242.590508 209.318079) scale(0.1 -0.1)">
      <defs>
       <path id="ArialMT-54" d="M 1659 0 
L 1659 4041 
L 150 4041 
L 150 4581 
L 3781 4581 
L 3781 4041 
L 2266 4041 
L 2266 0 
L 1659 0 
z
" transform="scale(0.015625)"/>
       <path id="ArialMT-69" d="M 425 3934 
L 425 4581 
L 988 4581 
L 988 3934 
L 425 3934 
z
M 425 0 
L 425 3319 
L 988 3319 
L 988 0 
L 425 0 
z
" transform="scale(0.015625)"/>
       <path id="ArialMT-6d" d="M 422 0 
L 422 3319 
L 925 3319 
L 925 2853 
Q 1081 3097 1340 3245 
Q 1600 3394 1931 3394 
Q 2300 3394 2536 3241 
Q 2772 3088 2869 2813 
Q 3263 3394 3894 3394 
Q 4388 3394 4653 3120 
Q 4919 2847 4919 2278 
L 4919 0 
L 4359 0 
L 4359 2091 
Q 4359 2428 4304 2576 
Q 4250 2725 4106 2815 
Q 3963 2906 3769 2906 
Q 3419 2906 3187 2673 
Q 2956 2441 2956 1928 
L 2956 0 
L 2394 0 
L 2394 2156 
Q 2394 2531 2256 2718 
Q 2119 2906 1806 2906 
Q 1569 2906 1367 2781 
Q 1166 2656 1075 2415 
Q 984 2175 984 1722 
L 984 0 
L 422 0 
z
" transform="scale(0.015625)"/>
       <path id="ArialMT-65" d="M 2694 1069 
L 3275 997 
Q 3138 488 2766 206 
Q 2394 -75 1816 -75 
Q 1088 -75 661 373 
Q 234 822 234 1631 
Q 234 2469 665 2931 
Q 1097 3394 1784 3394 
Q 2450 3394 2872 2941 
Q 3294 2488 3294 1666 
Q 3294 1616 3291 1516 
L 816 1516 
Q 847 969 1125 678 
Q 1403 388 1819 388 
Q 2128 388 2347 550 
Q 2566 713 2694 1069 
z
M 847 1978 
L 2700 1978 
Q 2663 2397 2488 2606 
Q 2219 2931 1791 2931 
Q 1403 2931 1139 2672 
Q 875 2413 847 1978 
z
" transform="scale(0.015625)"/>
       <path id="ArialMT-20" transform="scale(0.015625)"/>
       <path id="ArialMT-28" d="M 1497 -1347 
Q 1031 -759 709 28 
Q 388 816 388 1659 
Q 388 2403 628 3084 
Q 909 3875 1497 4659 
L 1900 4659 
Q 1522 4009 1400 3731 
Q 1209 3300 1100 2831 
Q 966 2247 966 1656 
Q 966 153 1900 -1347 
L 1497 -1347 
z
" transform="scale(0.015625)"/>
       <path id="ArialMT-73" d="M 197 991 
L 753 1078 
Q 800 744 1014 566 
Q 1228 388 1613 388 
Q 2000 388 2187 545 
Q 2375 703 2375 916 
Q 2375 1106 2209 1216 
Q 2094 1291 1634 1406 
Q 1016 1563 777 1677 
Q 538 1791 414 1992 
Q 291 2194 291 2438 
Q 291 2659 392 2848 
Q 494 3038 669 3163 
Q 800 3259 1026 3326 
Q 1253 3394 1513 3394 
Q 1903 3394 2198 3281 
Q 2494 3169 2634 2976 
Q 2775 2784 2828 2463 
L 2278 2388 
Q 2241 2644 2061 2787 
Q 1881 2931 1553 2931 
Q 1166 2931 1000 2803 
Q 834 2675 834 2503 
Q 834 2394 903 2306 
Q 972 2216 1119 2156 
Q 1203 2125 1616 2013 
Q 2213 1853 2448 1751 
Q 2684 1650 2818 1456 
Q 2953 1263 2953 975 
Q 2953 694 2789 445 
Q 2625 197 2315 61 
Q 2006 -75 1616 -75 
Q 969 -75 630 194 
Q 291 463 197 991 
z
" transform="scale(0.015625)"/>
       <path id="ArialMT-29" d="M 791 -1347 
L 388 -1347 
Q 1322 153 1322 1656 
Q 1322 2244 1188 2822 
Q 1081 3291 891 3722 
Q 769 4003 388 4659 
L 791 4659 
Q 1378 3875 1659 3084 
Q 1900 2403 1900 1659 
Q 1900 816 1576 28 
Q 1253 -759 791 -1347 
z
" transform="scale(0.015625)"/>
      </defs>
      <use xlink:href="#ArialMT-54"/>
      <use xlink:href="#ArialMT-69" x="57.333984"/>
      <use xlink:href="#ArialMT-6d" x="79.550781"/>
      <use xlink:href="#ArialMT-65" x="162.851562"/>
      <use xlink:href="#ArialMT-20" x="218.466797"/>
      <use xlink:href="#ArialMT-28" x="246.25"/>
      <use xlink:href="#ArialMT-73" x="279.550781"/>
      <use xlink:href="#ArialMT-29" x="329.550781"/>
     </g>
    </g>
   </g>
   <g id="matplotlib.axis_2">
    <g id="ytick_1">
     <g id="line2d_17">
      <path d="M 41.046875 185.393079 
L 480.416954 185.393079 
" clip-path="url(#p88080f5ab2)" style="fill: none; stroke: #b0b0b0; stroke-width: 0.8; stroke-linecap: square"/>
     </g>
     <g id="line2d_18">
      <defs>
       <path id="meda8269f9e" d="M 0 0 
L 3.5 0 
" style="stroke: #000000; stroke-width: 0.8"/>
      </defs>
      <g>
       <use xlink:href="#meda8269f9e" x="41.046875" y="185.393079" style="stroke: #000000; stroke-width: 0.8"/>
      </g>
     </g>
     <g id="text_10">
      <!-- −20 -->
      <g transform="translate(20.584375 188.971986) scale(0.1 -0.1)">
       <defs>
        <path id="ArialMT-2212" d="M 3381 1997 
L 356 1997 
L 356 2522 
L 3381 2522 
L 3381 1997 
z
" transform="scale(0.015625)"/>
       </defs>
       <use xlink:href="#ArialMT-2212"/>
       <use xlink:href="#ArialMT-32" x="58.398438"/>
       <use xlink:href="#ArialMT-30" x="114.013672"/>
      </g>
     </g>
    </g>
    <g id="ytick_2">
     <g id="line2d_19">
      <path d="M 41.046875 141.739536 
L 480.416954 141.739536 
" clip-path="url(#p88080f5ab2)" style="fill: none; stroke: #b0b0b0; stroke-width: 0.8; stroke-linecap: square"/>
     </g>
     <g id="line2d_20">
      <g>
       <use xlink:href="#meda8269f9e" x="41.046875" y="141.739536" style="stroke: #000000; stroke-width: 0.8"/>
      </g>
     </g>
     <g id="text_11">
      <!-- −10 -->
      <g transform="translate(20.584375 145.318442) scale(0.1 -0.1)">
       <use xlink:href="#ArialMT-2212"/>
       <use xlink:href="#ArialMT-31" x="58.398438"/>
       <use xlink:href="#ArialMT-30" x="114.013672"/>
      </g>
     </g>
    </g>
    <g id="ytick_3">
     <g id="line2d_21">
      <path d="M 41.046875 98.085993 
L 480.416954 98.085993 
" clip-path="url(#p88080f5ab2)" style="fill: none; stroke: #b0b0b0; stroke-width: 0.8; stroke-linecap: square"/>
     </g>
     <g id="line2d_22">
      <g>
       <use xlink:href="#meda8269f9e" x="41.046875" y="98.085993" style="stroke: #000000; stroke-width: 0.8"/>
      </g>
     </g>
     <g id="text_12">
      <!-- 0 -->
      <g transform="translate(31.985938 101.664899) scale(0.1 -0.1)">
       <use xlink:href="#ArialMT-30"/>
      </g>
     </g>
    </g>
    <g id="ytick_4">
     <g id="line2d_23">
      <path d="M 41.046875 54.43245 
L 480.416954 54.43245 
" clip-path="url(#p88080f5ab2)" style="fill: none; stroke: #b0b0b0; stroke-width: 0.8; stroke-linecap: square"/>
     </g>
     <g id="line2d_24">
      <g>
       <use xlink:href="#meda8269f9e" x="41.046875" y="54.43245" style="stroke: #000000; stroke-width: 0.8"/>
      </g>
     </g>
     <g id="text_13">
      <!-- 10 -->
      <g transform="translate(26.425 58.011356) scale(0.1 -0.1)">
       <use xlink:href="#ArialMT-31"/>
       <use xlink:href="#ArialMT-30" x="55.615234"/>
      </g>
     </g>
    </g>
    <g id="ytick_5">
     <g id="line2d_25">
      <path d="M 41.046875 10.778906 
L 480.416954 10.778906 
" clip-path="url(#p88080f5ab2)" style="fill: none; stroke: #b0b0b0; stroke-width: 0.8; stroke-linecap: square"/>
     </g>
     <g id="line2d_26">
      <g>
       <use xlink:href="#meda8269f9e" x="41.046875" y="10.778906" style="stroke: #000000; stroke-width: 0.8"/>
      </g>
     </g>
     <g id="text_14">
      <!-- 20 -->
      <g transform="translate(26.425 14.357812) scale(0.1 -0.1)">
       <use xlink:href="#ArialMT-32"/>
       <use xlink:href="#ArialMT-30" x="55.615234"/>
      </g>
     </g>
    </g>
    <g id="text_15">
     <!-- Velocity (cm/s) -->
     <g transform="translate(14.479688 130.59068) rotate(-90) scale(0.1 -0.1)">
      <defs>
       <path id="ArialMT-56" d="M 1803 0 
L 28 4581 
L 684 4581 
L 1875 1253 
Q 2019 853 2116 503 
Q 2222 878 2363 1253 
L 3600 4581 
L 4219 4581 
L 2425 0 
L 1803 0 
z
" transform="scale(0.015625)"/>
       <path id="ArialMT-6c" d="M 409 0 
L 409 4581 
L 972 4581 
L 972 0 
L 409 0 
z
" transform="scale(0.015625)"/>
       <path id="ArialMT-6f" d="M 213 1659 
Q 213 2581 725 3025 
Q 1153 3394 1769 3394 
Q 2453 3394 2887 2945 
Q 3322 2497 3322 1706 
Q 3322 1066 3130 698 
Q 2938 331 2570 128 
Q 2203 -75 1769 -75 
Q 1072 -75 642 372 
Q 213 819 213 1659 
z
M 791 1659 
Q 791 1022 1069 705 
Q 1347 388 1769 388 
Q 2188 388 2466 706 
Q 2744 1025 2744 1678 
Q 2744 2294 2464 2611 
Q 2184 2928 1769 2928 
Q 1347 2928 1069 2612 
Q 791 2297 791 1659 
z
" transform="scale(0.015625)"/>
       <path id="ArialMT-63" d="M 2588 1216 
L 3141 1144 
Q 3050 572 2676 248 
Q 2303 -75 1759 -75 
Q 1078 -75 664 370 
Q 250 816 250 1647 
Q 250 2184 428 2587 
Q 606 2991 970 3192 
Q 1334 3394 1763 3394 
Q 2303 3394 2647 3120 
Q 2991 2847 3088 2344 
L 2541 2259 
Q 2463 2594 2264 2762 
Q 2066 2931 1784 2931 
Q 1359 2931 1093 2626 
Q 828 2322 828 1663 
Q 828 994 1084 691 
Q 1341 388 1753 388 
Q 2084 388 2306 591 
Q 2528 794 2588 1216 
z
" transform="scale(0.015625)"/>
       <path id="ArialMT-74" d="M 1650 503 
L 1731 6 
Q 1494 -44 1306 -44 
Q 1000 -44 831 53 
Q 663 150 594 308 
Q 525 466 525 972 
L 525 2881 
L 113 2881 
L 113 3319 
L 525 3319 
L 525 4141 
L 1084 4478 
L 1084 3319 
L 1650 3319 
L 1650 2881 
L 1084 2881 
L 1084 941 
Q 1084 700 1114 631 
Q 1144 563 1211 522 
Q 1278 481 1403 481 
Q 1497 481 1650 503 
z
" transform="scale(0.015625)"/>
       <path id="ArialMT-79" d="M 397 -1278 
L 334 -750 
Q 519 -800 656 -800 
Q 844 -800 956 -737 
Q 1069 -675 1141 -563 
Q 1194 -478 1313 -144 
Q 1328 -97 1363 -6 
L 103 3319 
L 709 3319 
L 1400 1397 
Q 1534 1031 1641 628 
Q 1738 1016 1872 1384 
L 2581 3319 
L 3144 3319 
L 1881 -56 
Q 1678 -603 1566 -809 
Q 1416 -1088 1222 -1217 
Q 1028 -1347 759 -1347 
Q 597 -1347 397 -1278 
z
" transform="scale(0.015625)"/>
       <path id="ArialMT-2f" d="M 0 -78 
L 1328 4659 
L 1778 4659 
L 453 -78 
L 0 -78 
z
" transform="scale(0.015625)"/>
      </defs>
      <use xlink:href="#ArialMT-56"/>
      <use xlink:href="#ArialMT-65" x="61.199219"/>
      <use xlink:href="#ArialMT-6c" x="116.814453"/>
      <use xlink:href="#ArialMT-6f" x="139.03125"/>
      <use xlink:href="#ArialMT-63" x="194.646484"/>
      <use xlink:href="#ArialMT-69" x="244.646484"/>
      <use xlink:href="#ArialMT-74" x="266.863281"/>
      <use xlink:href="#ArialMT-79" x="294.646484"/>
      <use xlink:href="#ArialMT-20" x="344.646484"/>
      <use xlink:href="#ArialMT-28" x="372.429688"/>
      <use xlink:href="#ArialMT-63" x="405.730469"/>
      <use xlink:href="#ArialMT-6d" x="455.730469"/>
      <use xlink:href="#ArialMT-2f" x="539.03125"/>
      <use xlink:href="#ArialMT-73" x="566.814453"/>
      <use xlink:href="#ArialMT-29" x="616.814453"/>
     </g>
    </g>
   </g>
   <g id="line2d_27">
    <path d="M 41.046875 98.085993 
L 46.695919 97.986057 
L 47.637426 97.879886 
L 49.520441 98.194838 
L 50.775784 98.041657 
L 51.403455 98.020541 
L 51.717291 98.202729 
L 52.031127 98.184311 
L 52.344963 98.300196 
L 52.658799 98.259916 
L 53.28647 98.393345 
L 55.48332 97.974043 
L 55.797156 98.233478 
L 56.110992 98.246421 
L 56.424828 97.944274 
L 56.738664 98.085616 
L 57.366335 97.975169 
L 57.680171 97.964503 
L 58.307842 97.733018 
L 59.24935 98.305071 
L 59.563185 98.189063 
L 59.877021 98.543012 
L 60.504693 98.153295 
L 60.818529 97.066078 
L 61.132364 97.671133 
L 61.4462 97.375753 
L 61.760036 97.359178 
L 62.073872 96.558399 
L 62.387707 97.086678 
L 62.701543 97.233001 
L 63.015379 97.026978 
L 63.329215 96.544787 
L 63.64305 96.792644 
L 63.956886 97.387044 
L 64.270722 97.644315 
L 64.584558 96.899725 
L 65.212229 98.65834 
L 65.839901 98.31447 
L 66.153737 97.497753 
L 66.467572 102.751521 
L 66.781408 102.353206 
L 67.095244 101.187348 
L 67.40908 103.699166 
L 67.722915 104.576038 
L 68.036751 102.084442 
L 68.350587 100.762344 
L 68.664423 102.668503 
L 68.978259 108.673238 
L 69.292094 110.346151 
L 69.60593 96.942776 
L 69.919766 99.92236 
L 70.233602 119.991019 
L 70.547437 114.860911 
L 71.175109 66.650515 
L 71.488945 72.075602 
L 71.802781 92.813342 
L 73.058124 143.341041 
L 73.371959 143.510272 
L 73.685795 126.056117 
L 74.313467 31.277457 
L 74.627302 10.522916 
L 75.882646 127.219226 
L 76.196481 125.184481 
L 76.510317 99.219338 
L 76.824153 34.896488 
L 77.137989 3.589545 
L 77.76566 27.147744 
L 78.079496 33.645086 
L 78.393332 53.967895 
L 78.707167 82.211443 
L 79.021003 76.820754 
L 79.334839 42.337002 
L 79.648675 49.822274 
L 79.962511 85.365285 
L 80.503265 219.622767 
M 81.865251 219.622767 
L 82.473197 104.547611 
L 82.787032 88.256229 
L 83.414704 218.576052 
L 83.72854 202.39363 
L 84.356211 109.059633 
L 84.670047 89.439119 
L 85.124664 -1 
M 85.561848 -1 
L 85.611554 5.094007 
L 85.92539 108.795832 
L 86.239226 139.339286 
L 86.60534 -1 
M 88.320082 -1 
L 88.732365 219.622767 
M 89.416978 219.622767 
L 89.823495 -1 
M 90.990863 -1 
L 91.311695 219.622767 
M 92.60069 219.622767 
L 92.829777 132.018322 
L 93.143613 61.307911 
L 93.457449 67.838647 
L 93.862365 219.622767 
M 95.20281 219.622767 
L 95.56642 -1 
M 96.783407 -1 
L 97.219681 219.622767 
M 97.801549 219.622767 
L 97.851149 208.874044 
L 98.329448 -1 
M 100.115041 -1 
L 100.361836 90.457507 
L 100.675671 146.932341 
L 100.989507 135.976212 
L 101.303343 135.362434 
L 101.617179 146.985546 
L 101.931014 129.448241 
L 102.558686 49.685695 
L 102.872522 38.214995 
L 103.186358 46.531927 
L 103.500193 62.118155 
L 103.814029 109.745335 
L 104.178411 219.622767 
M 105.299837 219.622767 
L 106.262429 -1 
M 107.256634 -1 
L 107.580058 47.362412 
L 108.20773 60.960461 
L 108.521566 107.863193 
L 109.10231 219.622767 
M 110.21655 219.622767 
L 111.009272 -1 
M 111.111582 -1 
L 111.346088 10.856365 
L 111.973759 149.393723 
L 112.21474 219.622767 
M 113.030294 219.622767 
L 113.589871 -1 
M 114.696482 -1 
L 115.425953 155.904565 
L 115.739788 129.640548 
L 116.053624 82.43826 
L 116.36746 53.847726 
L 116.995131 42.269123 
L 117.308967 56.015199 
L 117.622803 79.804125 
L 117.936639 83.201507 
L 118.250475 53.770338 
L 118.632713 -1 
M 119.4909 -1 
L 119.505818 0.276055 
L 120.133489 77.900219 
L 121.074996 130.07797 
L 121.388832 132.86719 
L 121.702668 138.168202 
L 122.33034 202.136283 
L 122.644175 198.554628 
L 123.271847 128.000491 
L 123.585683 116.321654 
L 123.899518 125.236452 
L 124.213354 155.978069 
L 124.651393 219.622767 
M 125.694914 219.622767 
L 126.410205 128.557249 
L 126.72404 109.03353 
L 127.037876 96.784917 
L 127.351712 74.098047 
L 128.052371 -1 
M 129.484447 -1 
L 129.548562 11.510492 
L 129.862398 47.707618 
L 130.176234 43.452883 
L 130.803905 19.80498 
L 131.106887 -1 
M 131.454314 -1 
L 131.745413 26.602208 
L 132.373084 155.526066 
L 132.68692 189.927265 
L 133.000756 196.570016 
L 133.314592 189.287226 
L 133.942263 149.902178 
L 134.256099 150.236922 
L 134.88377 175.045138 
L 135.197606 170.791139 
L 135.825278 115.761303 
L 136.452949 92.631956 
L 136.766785 104.488658 
L 137.394457 163.29237 
L 137.708292 162.34488 
L 138.022128 131.115631 
L 138.836612 -1 
M 139.410548 -1 
L 139.905143 68.341715 
L 140.218978 92.201146 
L 140.84665 120.100436 
L 141.160486 110.866183 
L 141.474322 95.83838 
L 141.788157 115.180204 
L 142.415829 195.285234 
L 142.729665 211.981893 
L 143.0435 204.652984 
L 143.357336 177.889028 
L 144.298844 46.840668 
L 144.612679 53.574871 
L 145.240351 97.178829 
L 145.554187 87.137489 
L 146.581407 -1 
M 148.463488 -1 
L 148.692544 14.691287 
L 149.320216 80.15306 
L 149.947887 166.187433 
L 150.261723 189.155288 
L 150.575559 196.707549 
L 150.889395 185.364637 
L 151.20323 164.248382 
L 151.517066 162.51178 
L 151.830902 178.077509 
L 152.23461 219.622767 
M 153.833063 219.622767 
L 154.341588 170.572833 
L 155.596931 78.367218 
L 155.910767 39.493158 
L 156.116419 -1 
M 159.899846 -1 
L 160.304468 50.299244 
L 161.245975 187.346219 
L 161.868285 219.622767 
M 164.528235 219.622767 
L 165.012004 189.494209 
L 165.32584 165.739639 
L 165.953512 139.274828 
L 166.267347 112.511396 
L 167.208855 6.00072 
L 167.291429 -1 
M 170.519213 -1 
L 171.28872 73.607097 
L 172.544063 152.232363 
L 173.072512 219.622767 
M 175.768574 219.622767 
L 176.937764 96.072958 
L 177.563506 -1 
M 181.153735 -1 
L 182.586808 157.742194 
L 183.200285 219.622767 
M 186.230417 219.622767 
L 186.666673 192.101983 
L 188.673798 -1 
M 191.605529 -1 
L 191.688045 3.452345 
L 192.001881 12.493873 
L 192.629552 41.885682 
L 192.943388 61.771587 
L 193.257224 89.380483 
L 194.198731 193.785035 
L 194.554953 219.622767 
M 196.985499 219.622767 
L 198.592432 116.947607 
L 198.906268 107.856781 
L 199.220103 91.30383 
L 200.276619 -1 
M 203.21534 -1 
L 204.869147 121.659764 
L 206.12449 201.616017 
L 206.407928 219.622767 
M 208.61076 219.622767 
L 208.949012 205.603051 
L 209.576684 163.642893 
L 210.832027 75.770495 
L 211.966441 -1 
M 215.161482 -1 
L 216.167235 87.391393 
L 217.619941 219.622767 
M 220.845675 219.622767 
L 221.188607 187.214947 
L 222.767011 -1 
M 226.573136 -1 
L 227.465323 102.65558 
L 228.542552 219.622767 
M 231.988516 219.622767 
L 232.486695 179.840626 
L 233.114367 112.585569 
L 234.063409 -1 
M 237.939361 -1 
L 238.76341 86.292417 
L 239.895713 219.622767 
M 243.401296 219.622767 
L 244.098619 147.446346 
L 245.339735 -1 
M 249.347616 -1 
L 250.375334 137.078225 
L 250.965875 219.622767 
M 254.748846 219.622767 
L 255.710542 87.610419 
L 256.387751 -1 
M 260.546602 -1 
L 261.359586 113.466755 
L 262.088351 219.622767 
M 265.915214 219.622767 
L 266.694794 116.008127 
L 267.530768 -1 
M 271.71938 -1 
L 272.971509 168.35188 
L 273.346008 219.622767 
M 277.132987 219.622767 
L 278.306718 55.406654 
L 278.702934 -1 
M 282.823366 -1 
L 284.437316 219.622767 
M 288.188063 219.622767 
L 288.977134 119.673214 
L 289.884723 -1 
M 293.954788 -1 
L 294.626178 82.315015 
L 295.704429 219.622767 
L 295.704429 219.622767 
" clip-path="url(#p88080f5ab2)" style="fill: none; stroke: #000000; stroke-width: 1.2; stroke-linecap: square"/>
   </g>
   <g id="line2d_28">
    <path d="M 41.046875 98.101856 
L 44.812904 98.127279 
L 45.12674 98.273321 
L 45.754412 98.214268 
L 46.068247 98.33667 
L 46.695919 98.240635 
L 47.009755 98.23423 
L 47.32359 98.066429 
L 47.637426 98.202121 
L 48.265098 98.187773 
L 48.892769 98.298533 
L 49.520441 98.528337 
L 50.148112 98.430292 
L 50.461948 97.939201 
L 50.775784 98.466758 
L 51.08962 98.35378 
L 51.403455 98.495325 
L 51.717291 98.412505 
L 52.031127 98.193587 
L 52.658799 98.526154 
L 53.600306 98.152856 
L 53.914142 97.764736 
L 54.227977 98.311865 
L 54.541813 98.232848 
L 54.855649 98.475931 
L 55.169485 98.351931 
L 55.48332 97.854586 
L 55.797156 98.112431 
L 56.110992 97.696041 
L 56.424828 97.675123 
L 56.738664 97.465913 
L 57.366335 95.953805 
L 57.680171 96.127401 
L 57.994007 97.451076 
L 58.307842 97.822259 
L 58.621678 97.325804 
L 59.563185 102.372811 
L 59.877021 101.393699 
L 60.190857 105.149369 
L 60.504693 102.294906 
L 61.132364 100.007839 
L 61.4462 101.951378 
L 61.760036 95.597974 
L 62.073872 92.51322 
L 62.701543 89.701962 
L 63.015379 87.809174 
L 63.329215 90.526825 
L 63.64305 91.307335 
L 63.956886 92.97589 
L 64.270722 93.494249 
L 64.584558 92.958728 
L 64.898394 106.78629 
L 65.212229 108.960048 
L 65.526065 105.82426 
L 65.839901 96.885946 
L 66.467572 104.880403 
L 66.781408 113.766595 
L 67.095244 110.294581 
L 67.40908 103.501077 
L 68.036751 107.965373 
L 68.350587 107.648677 
L 68.664423 109.471558 
L 68.978259 112.276801 
L 69.60593 87.950931 
L 69.919766 95.260416 
L 70.233602 124.045556 
L 70.547437 117.636565 
L 70.861273 72.904141 
L 71.175109 49.114826 
L 71.488945 88.753347 
L 71.802781 110.8865 
L 72.116616 114.38842 
L 72.430452 123.331601 
L 72.744288 137.59524 
L 73.058124 146.281682 
L 73.371959 166.509646 
L 73.999631 105.517984 
L 74.313467 23.319175 
L 74.627302 10.301171 
L 74.941138 28.364401 
L 75.56881 125.038897 
L 75.882646 110.340066 
L 76.196481 111.637517 
L 76.510317 69.834826 
L 77.137989 18.612977 
L 77.451824 23.786286 
L 77.76566 34.211154 
L 78.079496 7.33476 
L 78.393332 41.783423 
L 78.707167 89.035966 
L 79.021003 80.555663 
L 79.334839 63.873102 
L 79.648675 27.816284 
L 80.276346 133.721459 
L 80.514658 219.622767 
M 81.861172 219.622767 
L 82.159361 177.216749 
L 82.473197 110.608651 
L 82.787032 111.423179 
L 83.392253 219.622767 
M 83.640903 219.622767 
L 83.72854 218.253734 
L 84.356211 92.201686 
L 84.670047 85.525172 
L 85.102589 -1 
M 85.664293 -1 
L 85.92539 90.710036 
L 86.239226 105.234297 
L 86.553062 41.085833 
L 86.622422 -1 
M 88.33092 -1 
L 88.747033 219.622767 
M 89.463671 219.622767 
L 89.847156 -1 
M 90.89072 -1 
L 90.946763 21.720593 
L 91.260099 219.622767 
M 92.639578 219.622767 
L 92.829777 125.397552 
L 93.143613 67.138528 
L 93.457449 85.550571 
L 93.842463 219.622767 
M 95.191558 219.622767 
L 95.557404 -1 
M 96.757095 -1 
L 97.222804 219.622767 
M 97.673735 219.622767 
L 97.851149 176.517794 
L 98.213795 -1 
M 100.141705 -1 
L 100.361836 105.250775 
L 100.675671 141.310709 
L 100.989507 119.618717 
L 101.303343 88.26339 
L 101.931014 119.275373 
L 102.872522 35.941083 
L 103.186358 51.03886 
L 103.500193 77.59255 
L 103.814029 122.253137 
L 104.130002 219.622767 
M 105.243285 219.622767 
L 106.27726 -1 
M 107.224266 -1 
L 107.580058 73.376475 
L 107.893894 69.434086 
L 108.20773 63.838804 
L 108.521566 91.48296 
L 109.190475 219.622767 
M 110.188695 219.622767 
L 110.718416 60.308336 
L 111.032252 18.333923 
L 111.346088 42.236567 
L 111.659923 82.98755 
L 112.24616 219.622767 
M 113.018291 219.622767 
L 113.562546 -1 
M 114.669092 -1 
L 114.798281 27.56086 
L 115.112117 125.81644 
L 115.425953 159.685417 
L 116.36746 47.431795 
L 116.681296 30.031792 
L 117.308967 38.690924 
L 117.622803 67.953697 
L 117.936639 82.233086 
L 118.65061 -1 
M 119.528948 -1 
L 120.133489 88.364516 
L 120.447325 94.908441 
L 120.761161 110.1726 
L 121.074996 114.890278 
L 121.702668 128.639375 
L 122.33034 199.619873 
L 122.644175 211.813811 
L 123.271847 125.86617 
L 123.585683 118.751881 
L 123.899518 133.05207 
L 124.213354 158.708643 
L 124.67256 219.622767 
M 125.629904 219.622767 
L 126.72404 99.476427 
L 127.351712 80.883464 
L 127.665548 62.276067 
L 128.075348 -1 
M 129.542958 -1 
L 129.548562 0.137106 
L 129.862398 37.567945 
L 130.176234 31.776471 
L 131.016698 -1 
M 131.303327 -1 
L 131.431577 0.452963 
L 131.745413 38.372848 
L 132.373084 154.259439 
L 132.68692 182.173909 
L 133.000756 190.873119 
L 133.314592 179.662919 
L 133.942263 135.679956 
L 134.256099 140.340867 
L 134.88377 173.269514 
L 135.197606 169.012227 
L 135.825278 131.365292 
L 136.139113 106.902377 
L 136.452949 92.060165 
L 136.766785 98.498998 
L 137.394457 153.805771 
L 137.708292 153.186302 
L 138.022128 117.457625 
L 138.707578 -1 
M 139.385284 -1 
L 139.905143 75.488289 
L 140.532814 99.952948 
L 140.84665 109.247013 
L 141.160486 112.465273 
L 141.474322 94.530857 
L 141.788157 97.661129 
L 142.415829 176.318671 
L 143.0435 205.165182 
L 143.357336 181.447501 
L 144.298844 49.523149 
L 144.612679 58.722289 
L 145.240351 111.571301 
L 146.442008 -1 
M 148.35712 -1 
L 149.00638 40.024735 
L 149.320216 72.112518 
L 150.261723 189.479812 
L 150.575559 195.296857 
L 151.20323 158.609302 
L 151.517066 159.34633 
L 152.176721 219.622767 
M 153.858041 219.622767 
L 154.341588 167.658782 
L 154.655424 149.737784 
L 155.283095 104.341557 
L 155.596931 80.728315 
L 155.910767 41.266209 
L 156.103797 -1 
M 159.938758 -1 
L 160.304468 49.623543 
L 160.932139 153.25603 
L 161.245975 187.172774 
L 161.909326 219.622767 
M 164.502631 219.622767 
L 164.698169 211.888106 
L 165.953512 139.644176 
L 166.581183 65.326758 
L 167.184538 -1 
M 170.5993 -1 
L 171.28872 65.544175 
L 172.544063 154.120495 
L 173.06494 219.622767 
M 175.763205 219.622767 
L 176.623928 135.536311 
L 176.937764 97.849593 
L 177.547749 -1 
M 181.188432 -1 
L 181.6453 49.775531 
L 182.586808 153.368992 
L 183.203225 219.622767 
M 186.315285 219.622767 
L 186.666673 192.733404 
L 187.294344 117.251929 
L 187.922016 58.109206 
L 188.615327 -1 
M 191.787446 -1 
L 192.315716 15.989475 
L 192.943388 57.750682 
L 194.198731 195.51538 
L 194.583421 219.622767 
M 197.006371 219.622767 
L 197.650924 173.779947 
L 198.278596 132.319147 
L 199.220103 92.361638 
L 200.230369 -1 
M 203.316713 -1 
L 206.347951 219.622767 
M 208.59101 219.622767 
L 209.576684 167.470704 
L 211.927683 -1 
M 215.20544 -1 
L 216.167235 83.046034 
L 217.597411 219.622767 
M 220.890754 219.622767 
L 221.816279 117.489942 
L 222.743042 -1 
M 226.614876 -1 
L 228.505041 219.622767 
M 232.080046 219.622767 
L 232.486695 184.709111 
L 234.03472 -1 
M 237.968555 -1 
L 238.449575 49.490694 
L 239.835253 219.622767 
M 243.464516 219.622767 
L 244.098619 152.576541 
L 245.31496 -1 
M 249.358841 -1 
L 250.375334 141.031838 
L 250.90855 219.622767 
M 254.794952 219.622767 
L 256.343738 -1 
M 260.563116 -1 
L 261.359586 119.979789 
L 262.016526 219.622767 
M 265.960595 219.622767 
L 267.00863 68.140338 
L 267.487178 -1 
M 271.73292 -1 
L 272.657674 129.330812 
L 273.278504 219.622767 
M 277.184103 219.622767 
L 278.306718 52.587223 
L 278.674903 -1 
M 282.835564 -1 
L 284.363621 219.622767 
M 288.236319 219.622767 
L 288.977134 120.658047 
L 289.847837 -1 
M 293.9623 -1 
L 294.626178 87.47805 
L 295.607124 219.622767 
L 295.607124 219.622767 
" clip-path="url(#p88080f5ab2)" style="fill: none; stroke-dasharray: 2.96,1.28; stroke-dashoffset: 0; stroke: #ff0000; stroke-width: 0.8"/>
   </g>
   <g id="line2d_29">
    <path d="M 41.046875 98.085995 
L 46.382083 98.009371 
L 47.009755 97.938326 
L 47.32359 98.049852 
L 47.637426 98.018436 
L 48.265098 98.147336 
L 48.578933 97.933008 
L 49.206605 98.271443 
L 49.834277 98.537599 
L 50.148112 98.643587 
L 51.08962 98.197516 
L 51.403455 98.394435 
L 51.717291 97.976022 
L 52.031127 98.494076 
L 52.344963 98.387717 
L 52.658799 99.168602 
L 52.972634 99.123081 
L 53.28647 99.55353 
L 53.600306 98.974734 
L 53.914142 99.353993 
L 54.227977 98.51684 
L 54.855649 98.064178 
L 55.169485 97.886609 
L 55.48332 98.326365 
L 55.797156 98.501836 
L 56.110992 99.013113 
L 56.424828 98.5211 
L 56.738664 98.835299 
L 57.052499 98.74326 
L 57.680171 97.624366 
L 57.994007 97.266736 
L 58.621678 98.069645 
L 59.24935 97.859562 
L 59.563185 97.321529 
L 59.877021 96.416391 
L 60.190857 95.856316 
L 60.504693 96.264116 
L 60.818529 97.474075 
L 61.132364 95.450499 
L 61.4462 98.670015 
L 61.760036 97.889296 
L 62.073872 101.79482 
L 62.387707 98.590563 
L 62.701543 104.465725 
L 63.015379 98.257373 
L 63.329215 99.531466 
L 63.64305 94.662619 
L 63.956886 98.553887 
L 64.270722 92.499683 
L 64.584558 92.66525 
L 64.898394 89.926008 
L 65.212229 98.266591 
L 65.526065 99.42239 
L 65.839901 97.854606 
L 66.153737 97.986939 
L 66.467572 104.137144 
L 66.781408 107.44251 
L 67.095244 97.720785 
L 67.40908 102.943382 
L 67.722915 90.912533 
L 68.036751 95.70584 
L 68.350587 90.177608 
L 68.978259 118.597433 
L 69.292094 135.577406 
L 69.60593 114.188012 
L 69.919766 100.421938 
L 70.233602 109.881768 
L 70.547437 107.984337 
L 71.175109 67.925714 
L 71.488945 73.911503 
L 71.802781 96.455084 
L 72.116616 110.98365 
L 72.430452 117.505037 
L 72.744288 149.275519 
L 73.058124 148.104536 
L 73.371959 135.548218 
L 73.999631 69.700543 
L 74.313467 49.958933 
L 74.627302 48.788528 
L 74.941138 24.937457 
L 75.254974 83.784036 
L 75.56881 82.485368 
L 75.882646 172.195461 
L 76.196481 121.454836 
L 76.510317 117.854927 
L 76.824153 10.060617 
L 77.128373 -1 
M 77.140986 -1 
L 77.451824 35.260245 
L 78.079496 60.264623 
L 78.393332 48.433551 
L 79.021003 81.499467 
L 79.334839 52.504618 
L 79.648675 86.458133 
L 79.962511 107.877293 
L 80.276346 154.67795 
L 80.518409 219.622767 
M 81.974781 219.622767 
L 82.159361 169.044657 
L 82.473197 133.660269 
L 82.787032 54.082081 
L 83.100868 154.111752 
L 83.414704 202.706722 
L 83.682302 219.622767 
M 83.739504 219.622767 
L 84.042376 138.880472 
L 84.356211 127.164541 
L 84.670047 105.645931 
L 84.983883 56.02189 
L 85.17762 -1 
M 85.683531 -1 
L 86.239226 134.289268 
L 86.618598 -1 
M 88.354022 -1 
L 88.863906 219.622767 
M 89.466244 219.622767 
L 89.849697 -1 
M 91.038058 -1 
L 91.35577 219.622767 
M 92.688125 219.622767 
L 92.829777 153.155107 
L 93.402339 -1 
M 93.484977 -1 
L 93.936784 219.622767 
M 95.273334 219.622767 
L 95.601924 -1 
M 96.850216 -1 
L 97.249828 219.622767 
M 97.932118 219.622767 
L 98.321793 -1 
M 100.09832 -1 
L 100.361836 113.218069 
L 100.675671 160.442106 
L 100.989507 156.86248 
L 101.303343 94.223936 
L 101.617179 120.778283 
L 101.931014 94.475611 
L 102.24485 103.63143 
L 102.558686 11.13308 
L 102.872522 10.110766 
L 103.186358 4.373945 
L 103.814029 83.747264 
L 104.291335 219.622767 
M 105.318723 219.622767 
L 106.15665 -1 
M 107.59642 -1 
L 107.893894 38.997467 
L 108.20773 41.452084 
L 108.521566 90.210174 
L 108.835401 168.547996 
L 109.235987 219.622767 
M 110.135683 219.622767 
L 110.896593 -1 
M 111.368662 -1 
L 111.659923 49.635691 
L 112.350689 219.622767 
M 112.942412 219.622767 
L 113.229102 144.079117 
L 113.513768 -1 
M 114.902709 -1 
L 115.425953 134.259964 
L 115.739788 136.322472 
L 116.36746 51.935411 
L 116.681296 34.672974 
L 116.995131 11.182954 
L 117.308967 2.902346 
L 117.622803 33.376531 
L 118.250475 46.054916 
L 118.492765 -1 
M 119.830567 -1 
L 121.074996 126.538613 
L 121.388832 122.314331 
L 121.702668 104.192079 
L 122.016504 122.660834 
L 122.33034 149.490353 
L 122.644175 160.904759 
L 123.271847 111.884521 
L 123.585683 89.579975 
L 124.213354 137.40021 
L 124.52719 183.601461 
L 124.932007 219.622767 
M 125.385583 219.622767 
L 125.782533 181.542396 
L 126.410205 92.756965 
L 127.351712 28.284623 
L 127.696371 -1 
M 129.822147 -1 
L 129.862398 2.118471 
L 130.176234 3.562976 
L 130.314207 -1 
M 131.791326 -1 
L 132.68692 174.079909 
L 133.000756 190.132049 
L 133.314592 179.446187 
L 133.628427 161.840421 
L 133.942263 127.13879 
L 134.256099 119.834429 
L 134.569935 117.4599 
L 134.88377 131.707859 
L 135.825278 75.033822 
L 136.139113 77.222142 
L 136.452949 67.342691 
L 136.766785 79.969901 
L 137.394457 139.095439 
L 137.708292 139.653427 
L 138.022128 109.293271 
L 138.335964 66.009654 
L 138.683057 -1 
M 139.777495 -1 
L 140.218978 58.487959 
L 140.532814 71.324255 
L 140.84665 100.074807 
L 141.160486 90.812724 
L 141.474322 85.577088 
L 141.788157 103.925966 
L 142.415829 168.001111 
L 142.729665 176.922192 
L 143.357336 140.5427 
L 143.671172 111.116596 
L 144.298844 18.144293 
L 144.612679 9.757725 
L 144.926515 34.911613 
L 145.554187 63.604196 
L 146.433012 -1 
M 148.71734 -1 
L 150.261723 157.637812 
L 150.575559 176.027877 
L 150.889395 170.38789 
L 151.517066 140.19771 
L 151.830902 151.351545 
L 152.144738 174.548002 
L 152.491171 219.622767 
M 153.699941 219.622767 
L 153.713917 218.39643 
L 154.027752 171.138885 
L 154.655424 115.616778 
L 154.96926 106.718006 
L 155.910767 24.911679 
L 156.029643 -1 
M 160.119256 -1 
L 160.304468 20.464903 
L 160.932139 139.272122 
L 161.245975 178.848162 
L 161.559811 192.457305 
L 162.094447 219.622767 
M 164.250236 219.622767 
L 165.012004 172.249357 
L 165.32584 143.306783 
L 165.639676 129.919036 
L 165.953512 121.364676 
L 166.267347 103.730433 
L 167.091635 -1 
M 170.634369 -1 
L 170.974884 29.640191 
L 171.602556 76.095725 
L 172.230227 113.86303 
L 172.544063 136.528389 
L 173.174168 219.622767 
M 175.552451 219.622767 
L 175.996256 174.601473 
L 177.251599 37.928868 
L 177.472626 -1 
M 181.243688 -1 
L 181.6453 42.943474 
L 183.255897 219.622767 
M 185.963278 219.622767 
L 186.666673 184.426726 
L 187.294344 117.514712 
L 187.922016 47.113361 
L 188.480515 -1 
M 191.650249 -1 
L 191.688045 0.937234 
L 192.629552 31.543319 
L 192.943388 48.832957 
L 193.257224 75.910745 
L 194.512567 217.859228 
L 194.546365 219.622767 
M 196.829999 219.622767 
L 197.96476 142.013512 
L 198.592432 111.275929 
L 198.906268 99.037496 
L 199.533939 60.269777 
L 200.161408 -1 
M 203.215161 -1 
L 204.555311 93.034895 
L 205.182983 139.919476 
L 206.412052 219.622767 
M 208.530515 219.622767 
L 210.518191 96.569401 
L 211.894274 -1 
M 215.116369 -1 
L 216.167235 84.672018 
L 217.523804 219.622767 
M 220.841884 219.622767 
L 221.188607 188.990553 
L 221.816279 119.742064 
L 222.724911 -1 
M 226.563705 -1 
L 227.151487 61.839342 
L 228.467635 219.622767 
M 232.06416 219.622767 
L 232.172859 213.884134 
L 232.800531 157.963789 
L 234.035394 -1 
M 237.896773 -1 
L 238.449575 51.187118 
L 239.801488 219.622767 
M 243.535918 219.622767 
L 244.098619 161.803182 
L 245.360081 -1 
M 249.343877 -1 
L 249.747662 49.60436 
L 250.851413 219.622767 
M 254.891092 219.622767 
L 255.710542 102.542224 
L 256.4104 -1 
M 260.549619 -1 
L 261.04575 66.21224 
L 261.978202 219.622767 
M 266.095569 219.622767 
L 267.00863 86.052247 
L 267.571137 -1 
M 271.695052 -1 
L 272.030002 39.841703 
L 273.221452 219.622767 
M 277.323409 219.622767 
L 277.679046 168.637995 
L 278.740891 -1 
M 282.797938 -1 
L 283.32809 70.283278 
L 284.29843 219.622767 
M 288.384582 219.622767 
L 289.290969 93.998542 
L 289.939072 -1 
M 293.903141 -1 
L 294.312342 45.458381 
L 295.544494 219.622767 
L 295.544494 219.622767 
" clip-path="url(#p88080f5ab2)" style="fill: none; stroke-dasharray: 0.8,1.32; stroke-dashoffset: 0; stroke: #0000ff; stroke-width: 0.8"/>
   </g>
   <g id="line2d_30">
    <path d="M 41.046875 98.085993 
L 45.754412 98.149188 
L 46.695919 98.294249 
L 47.637426 98.212336 
L 49.206605 98.628942 
L 49.520441 98.761601 
L 50.775784 98.459836 
L 51.08962 98.560926 
L 51.403455 98.433974 
L 51.717291 98.653649 
L 52.031127 98.707698 
L 52.658799 99.036769 
L 52.972634 98.810614 
L 53.28647 98.850383 
L 54.227977 98.209295 
L 54.855649 97.949301 
L 55.169485 98.317126 
L 55.48332 98.064347 
L 56.110992 98.164742 
L 56.424828 97.585276 
L 57.052499 97.471067 
L 57.366335 96.952472 
L 57.680171 97.078626 
L 57.994007 96.924059 
L 58.307842 96.960684 
L 58.621678 96.340308 
L 58.935514 97.438124 
L 59.24935 97.585135 
L 59.563185 97.935521 
L 59.877021 97.728073 
L 60.190857 99.48014 
L 60.504693 100.330273 
L 60.818529 100.151078 
L 61.132364 100.911431 
L 61.4462 102.069898 
L 61.760036 101.135353 
L 62.073872 99.788133 
L 62.387707 99.074773 
L 62.701543 97.506223 
L 63.329215 93.087167 
L 63.64305 93.150553 
L 63.956886 92.367976 
L 64.270722 93.964904 
L 64.584558 91.139714 
L 65.212229 97.001381 
L 65.526065 95.560503 
L 65.839901 96.966669 
L 66.153737 95.860085 
L 66.781408 101.845568 
L 67.095244 101.246782 
L 67.40908 104.248449 
L 67.722915 113.147671 
L 68.036751 114.465758 
L 68.664423 110.070818 
L 68.978259 114.462115 
L 69.292094 115.672137 
L 69.60593 107.980438 
L 69.919766 88.535728 
L 70.233602 109.387651 
L 70.547437 117.634632 
L 70.861273 98.708705 
L 71.175109 72.665979 
L 71.488945 77.864674 
L 72.744288 126.90979 
L 73.058124 130.46253 
L 73.371959 137.894021 
L 73.685795 136.856946 
L 73.999631 113.254548 
L 74.627302 45.612484 
L 74.941138 44.706983 
L 75.254974 81.153873 
L 75.56881 96.872705 
L 75.882646 119.455462 
L 76.196481 115.655333 
L 76.510317 124.613087 
L 77.137989 47.164475 
L 77.451824 42.534657 
L 77.76566 54.881637 
L 78.079496 29.555812 
L 78.393332 29.551544 
L 79.021003 56.061301 
L 79.334839 47.828527 
L 79.648675 70.502892 
L 80.276346 156.801353 
L 80.615452 219.622767 
M 81.64147 219.622767 
L 82.159361 166.61602 
L 82.787032 103.031459 
L 83.100868 142.059299 
L 83.414704 204.538412 
L 83.72854 209.855059 
L 84.356211 110.399741 
L 84.670047 124.599921 
L 84.983883 100.926462 
L 85.297719 29.346403 
L 85.58832 -1 
M 85.626752 -1 
L 86.239226 82.566364 
L 86.580347 -1 
M 88.446252 -1 
L 89.014723 219.622767 
M 89.424645 219.622767 
L 89.956511 -1 
M 91.022012 -1 
L 91.513944 219.622767 
M 93.018736 219.622767 
L 93.457449 163.598013 
L 93.771284 169.746778 
L 94.069353 219.622767 
M 95.127636 219.622767 
L 96.019595 -1 
M 96.939355 -1 
L 97.223478 70.934439 
L 97.537314 114.019015 
L 97.851149 109.905698 
L 98.436949 -1 
M 100.648332 -1 
L 100.989507 96.816936 
L 101.477259 219.622767 
M 102.252134 219.622767 
L 102.822567 -1 
M 103.840695 -1 
L 104.333489 219.622767 
M 105.573164 219.622767 
L 106.250526 -1 
M 107.433349 -1 
L 107.580058 39.301515 
L 107.893894 88.84343 
L 108.20773 94.953773 
L 108.521566 111.572077 
L 108.835401 149.535862 
L 109.149237 172.835224 
L 109.776909 195.751859 
L 110.090745 184.004607 
L 110.40458 138.192915 
L 110.718416 62.862401 
L 111.032252 27.2993 
L 111.346088 25.638793 
L 112.287595 177.720465 
L 112.480135 219.622767 
M 113.185405 219.622767 
L 113.229102 212.492689 
L 113.856774 30.904503 
L 114.106015 -1 
M 115.29657 -1 
L 115.425953 19.831507 
L 115.739788 40.418274 
L 116.053624 47.271182 
L 116.681296 103.354738 
L 116.995131 108.17429 
L 117.936639 33.043863 
L 118.418706 -1 
M 118.962631 -1 
L 119.505818 62.189357 
L 119.819653 97.350265 
L 120.133489 114.593663 
L 120.761161 75.115134 
L 121.074996 76.53956 
L 121.388832 90.323071 
L 121.702668 97.592163 
L 122.016504 130.534016 
L 122.33034 179.492142 
L 122.644175 197.427403 
L 122.958011 181.759983 
L 123.271847 141.434796 
L 123.585683 118.322326 
L 123.899518 120.649628 
L 124.213354 146.849685 
L 124.730404 219.622767 
M 125.892533 219.622767 
L 127.037876 50.671926 
L 127.62686 -1 
M 129.346729 -1 
L 129.862398 42.111126 
L 130.176234 31.108375 
L 130.668602 -1 
M 131.605617 -1 
L 131.745413 8.333999 
L 132.059248 47.366054 
L 132.68692 143.189496 
L 133.314592 181.284081 
L 133.628427 193.201764 
L 134.256099 200.562746 
L 134.569935 206.238786 
L 134.88377 196.461373 
L 135.197606 174.193333 
L 135.825278 104.11592 
L 136.139113 94.594878 
L 136.452949 95.653016 
L 136.766785 108.159447 
L 137.394457 156.617171 
L 137.708292 155.753353 
L 138.022128 126.588298 
L 138.902001 -1 
M 139.561413 -1 
L 140.218978 67.531408 
L 140.532814 77.532827 
L 141.160486 112.529458 
L 141.474322 111.056998 
L 141.788157 114.829766 
L 142.415829 170.075473 
L 142.729665 172.821487 
L 143.0435 164.768778 
L 144.298844 63.599184 
L 144.612679 61.119434 
L 145.240351 100.090279 
L 145.554187 98.955577 
L 146.181858 61.796813 
L 146.495694 52.248039 
L 147.098944 -1 
M 148.857741 -1 
L 149.320216 58.969784 
L 150.261723 195.707768 
L 150.575559 205.06302 
L 150.889395 199.93851 
L 151.20323 181.773283 
L 151.517066 173.345516 
L 151.830902 181.320965 
L 152.310465 219.622767 
M 153.993679 219.622767 
L 154.655424 157.408698 
L 155.910767 43.260008 
L 156.23091 -1 
M 159.953896 -1 
L 160.304468 33.564318 
L 161.793956 219.622767 
M 164.459482 219.622767 
L 165.012004 201.417655 
L 165.953512 139.292003 
L 166.267347 115.104398 
L 167.225405 -1 
M 170.594032 -1 
L 171.28872 69.340956 
L 171.916391 105.4142 
L 172.230227 119.599362 
L 172.544063 141.640213 
L 173.213128 219.622767 
M 175.879968 219.622767 
L 177.783039 -1 
M 181.337507 -1 
L 182.272972 102.764073 
L 183.175122 219.622767 
M 186.363783 219.622767 
L 186.980508 172.068787 
L 187.922016 67.913887 
L 188.643039 -1 
M 191.760059 -1 
L 192.315716 24.593853 
L 192.943388 62.04214 
L 193.571059 116.347394 
L 194.512567 209.939364 
L 194.63272 219.622767 
M 197.001622 219.622767 
L 197.650924 168.572673 
L 198.592432 116.940906 
L 199.220103 89.372687 
L 199.847775 37.10242 
L 200.28334 -1 
M 203.183814 -1 
L 203.92764 55.726304 
L 206.450227 219.622767 
M 208.721382 219.622767 
L 209.262848 188.396442 
L 211.145863 48.574662 
L 211.983026 -1 
M 215.189294 -1 
L 216.167235 82.975396 
L 217.753931 219.622767 
M 220.908422 219.622767 
L 221.502443 159.341814 
L 222.797877 -1 
M 226.737152 -1 
L 227.151487 45.105718 
L 228.579384 219.622767 
M 232.037988 219.622767 
L 232.486695 181.461236 
L 233.428202 77.341977 
L 234.086071 -1 
M 238.008215 -1 
L 238.449575 40.868208 
L 239.943154 219.622767 
M 243.481862 219.622767 
L 244.72629 75.852298 
L 245.374675 -1 
M 249.419721 -1 
L 250.375334 125.879721 
L 251.031582 219.622767 
M 254.871746 219.622767 
L 256.396212 -1 
M 260.639761 -1 
L 261.673422 150.260275 
L 262.15865 219.622767 
M 266.029696 219.622767 
L 266.694794 127.254065 
L 267.570482 -1 
M 271.778355 -1 
L 272.971509 164.57381 
L 273.382791 219.622767 
M 277.235497 219.622767 
L 278.306718 66.964896 
L 278.770807 -1 
M 282.931871 -1 
L 284.469462 219.622767 
M 288.296559 219.622767 
L 288.977134 128.749642 
L 289.915396 -1 
M 294.048672 -1 
L 295.736853 219.622767 
L 295.736853 219.622767 
" clip-path="url(#p88080f5ab2)" style="fill: none; stroke-dasharray: 5.12,1.28,0.8,1.28; stroke-dashoffset: 0; stroke: #ffa500; stroke-width: 0.8"/>
   </g>
   <g id="line2d_31">
    <path d="M 41.046875 98.085993 
L 45.754412 98.135728 
L 46.695919 98.264523 
L 47.637426 98.168936 
L 49.834277 98.606268 
L 51.403455 98.398302 
L 51.717291 98.632944 
L 52.031127 98.671678 
L 52.658799 98.992497 
L 52.972634 98.765012 
L 53.28647 98.805397 
L 54.227977 98.23071 
L 54.855649 97.981771 
L 55.169485 98.322742 
L 55.48332 98.06897 
L 56.110992 98.179233 
L 56.424828 97.619475 
L 57.052499 97.544409 
L 57.366335 97.07003 
L 57.680171 97.186479 
L 57.994007 97.013627 
L 58.307842 97.055988 
L 58.621678 96.406724 
L 58.935514 97.502673 
L 59.24935 97.696311 
L 59.563185 98.022422 
L 59.877021 97.754541 
L 60.190857 99.483651 
L 60.504693 100.224696 
L 60.818529 99.861154 
L 61.132364 100.534525 
L 61.4462 101.651914 
L 62.701543 97.390574 
L 63.329215 93.353061 
L 63.64305 93.694791 
L 63.956886 92.938308 
L 64.270722 94.528073 
L 64.584558 91.684337 
L 65.212229 97.272536 
L 65.526065 95.892423 
L 65.839901 97.238182 
L 66.153737 96.005465 
L 66.781408 101.946979 
L 67.095244 101.389265 
L 67.40908 104.211551 
L 67.722915 112.774274 
L 68.036751 113.616436 
L 68.350587 110.257179 
L 68.664423 108.097593 
L 68.978259 113.143745 
L 69.292094 115.126064 
L 69.60593 108.239078 
L 69.919766 89.224841 
L 70.233602 109.690322 
L 70.547437 117.907626 
L 70.861273 99.111421 
L 71.175109 72.525469 
L 71.488945 77.202037 
L 72.116616 100.230639 
L 72.744288 131.704197 
L 73.058124 134.191431 
L 73.371959 137.854443 
L 73.685795 135.041876 
L 73.999631 110.669414 
L 74.627302 41.851115 
L 74.941138 40.630785 
L 75.254974 77.115634 
L 75.56881 96.295292 
L 75.882646 123.900519 
L 76.196481 120.764828 
L 76.510317 125.702775 
L 77.137989 41.031113 
L 77.451824 35.918435 
L 77.76566 50.954031 
L 78.079496 28.790024 
L 78.393332 31.766636 
L 79.021003 63.374601 
L 79.334839 49.573786 
L 79.648675 68.915562 
L 80.276346 156.69126 
L 80.622953 219.622767 
M 81.689201 219.622767 
L 82.787032 98.014224 
L 83.100868 134.415281 
L 83.414704 198.349761 
L 83.72854 207.990474 
L 84.356211 114.68808 
L 84.670047 126.041488 
L 84.983883 98.299078 
L 85.297719 23.728535 
L 85.533736 -1 
M 85.660628 -1 
L 86.239226 81.19365 
L 86.585242 -1 
M 88.426913 -1 
L 89.004791 219.622767 
M 89.435518 219.622767 
L 89.963458 -1 
M 91.055554 -1 
L 91.503211 219.622767 
M 92.971626 219.622767 
L 93.457449 141.044857 
L 93.771284 149.34768 
L 94.088975 219.622767 
M 95.196418 219.622767 
L 95.93074 -1 
M 96.991697 -1 
L 97.537314 142.986975 
L 97.851149 151.943537 
L 98.47824 -1 
M 100.545935 -1 
L 100.675671 52.284003 
L 101.303343 191.486702 
L 101.469052 219.622767 
M 102.090282 219.622767 
L 102.24485 182.135711 
L 102.775284 -1 
M 103.707409 -1 
L 103.814029 22.242943 
L 104.303669 219.622767 
M 105.509896 219.622767 
L 106.293455 -1 
M 107.420224 -1 
L 107.580058 34.039512 
L 107.893894 68.470277 
L 108.20773 69.965333 
L 108.521566 92.392854 
L 109.149237 181.893991 
L 109.776909 217.958685 
L 110.090745 203.669611 
L 110.40458 147.169768 
L 110.718416 57.35424 
L 111.032252 12.344608 
L 111.346088 9.306318 
L 111.973759 119.127929 
L 112.419009 219.622767 
M 113.212185 219.622767 
L 113.229102 216.348311 
L 113.934543 -1 
M 115.220088 -1 
L 115.425953 39.194679 
L 115.739788 63.496632 
L 116.053624 66.115924 
L 116.681296 97.505532 
L 116.995131 90.544749 
L 117.308967 61.672358 
L 118.56431 7.091404 
L 118.878146 3.796081 
L 119.191982 21.869984 
L 119.819653 74.238868 
L 120.133489 90.462202 
L 120.761161 71.928219 
L 121.074996 86.796109 
L 121.388832 109.286396 
L 121.702668 117.086601 
L 122.016504 142.611025 
L 122.33034 181.211117 
L 122.644175 190.190239 
L 122.958011 169.961256 
L 123.271847 132.609739 
L 123.585683 117.198741 
L 123.899518 125.323728 
L 124.213354 154.716562 
L 124.666017 219.622767 
M 125.809038 219.622767 
L 126.72404 80.400094 
L 127.792508 -1 
M 129.402912 -1 
L 129.862398 41.507749 
L 130.176234 33.887787 
L 130.49007 11.236477 
L 130.874071 -1 
M 131.726679 -1 
L 131.745413 -0.024493 
L 132.059248 39.412343 
L 132.68692 146.086516 
L 133.000756 174.42608 
L 133.314592 192.211856 
L 133.628427 200.993668 
L 134.256099 196.84561 
L 134.569935 198.93037 
L 134.88377 188.507594 
L 135.197606 167.362071 
L 135.825278 103.556755 
L 136.139113 96.875125 
L 136.452949 98.68239 
L 136.766785 109.506315 
L 137.394457 151.379592 
L 137.708292 150.162612 
L 138.022128 123.592861 
L 138.946395 -1 
M 139.532926 -1 
L 139.591307 4.109924 
L 140.218978 67.724448 
L 140.532814 77.46364 
L 141.160486 112.20033 
L 141.474322 109.37035 
L 141.788157 113.758601 
L 142.415829 172.063363 
L 142.729665 174.123056 
L 143.0435 166.500721 
L 143.985008 93.096235 
L 144.298844 64.34621 
L 144.612679 60.698887 
L 145.240351 97.615039 
L 145.554187 97.166222 
L 145.868022 76.393566 
L 146.495694 52.343543 
L 147.029033 -1 
M 148.809485 -1 
L 149.320216 63.890583 
L 150.261723 194.851319 
L 150.575559 204.391331 
L 150.889395 199.818343 
L 151.20323 181.721395 
L 151.517066 174.12385 
L 151.830902 182.917557 
L 152.308192 219.622767 
M 153.96658 219.622767 
L 154.341588 182.698977 
L 155.910767 44.795552 
L 156.231348 -1 
M 159.989244 -1 
L 160.304468 31.280323 
L 161.748792 219.622767 
M 164.527402 219.622767 
L 165.012004 200.635367 
L 166.267347 113.698386 
L 167.295977 -1 
M 170.578421 -1 
L 171.28872 68.653789 
L 171.916391 104.336379 
L 172.230227 119.673689 
L 172.544063 142.577646 
L 173.182326 219.622767 
M 175.862592 219.622767 
L 177.763364 -1 
M 181.334554 -1 
L 182.272972 105.657945 
L 183.164828 219.622767 
M 186.338635 219.622767 
L 186.666673 196.511184 
L 186.980508 170.717135 
L 187.922016 67.963415 
L 188.648313 -1 
M 191.722468 -1 
L 192.315716 25.278361 
L 192.943388 61.708055 
L 193.257224 83.753321 
L 194.606558 219.622767 
M 197.003035 219.622767 
L 197.96476 149.901762 
L 199.533939 66.360787 
L 200.303512 -1 
M 203.18213 -1 
L 203.92764 55.124718 
L 206.440209 219.622767 
M 208.713865 219.622767 
L 209.262848 187.98741 
L 211.145863 49.166651 
L 212.000674 -1 
M 215.191397 -1 
L 216.167235 83.406876 
L 217.724144 219.622767 
M 220.899859 219.622767 
L 221.502443 158.184366 
L 222.790925 -1 
M 226.722686 -1 
L 227.151487 46.693642 
L 228.573671 219.622767 
M 232.020256 219.622767 
L 232.486695 181.197645 
L 233.428202 77.587114 
L 234.084877 -1 
M 238.005123 -1 
L 238.449575 41.823787 
L 239.938701 219.622767 
M 243.466202 219.622767 
L 244.412454 114.106254 
L 245.37622 -1 
M 249.417741 -1 
L 250.375334 126.979518 
L 251.020014 219.622767 
M 254.85767 219.622767 
L 256.397024 -1 
M 260.632566 -1 
L 261.359586 103.361317 
L 262.15291 219.622767 
M 266.01988 219.622767 
L 266.694794 126.02101 
L 267.56571 -1 
M 271.771111 -1 
L 272.971509 164.037486 
L 273.384617 219.622767 
M 277.227458 219.622767 
L 278.306718 65.788933 
L 278.762295 -1 
M 282.919905 -1 
L 284.47012 219.622767 
M 288.287022 219.622767 
L 288.977134 128.315553 
L 289.913029 -1 
M 294.040669 -1 
L 295.73596 219.622767 
L 295.73596 219.622767 
" clip-path="url(#p88080f5ab2)" style="fill: none; stroke-dasharray: 5.12,1.28,0.8,1.28; stroke-dashoffset: 0; stroke: #bf00bf; stroke-width: 0.8"/>
   </g>
   <g id="patch_3">
    <path d="M 41.046875 185.393079 
L 41.046875 10.778906 
" style="fill: none; stroke: #000000; stroke-width: 0.8; stroke-linejoin: miter; stroke-linecap: square"/>
   </g>
   <g id="patch_4">
    <path d="M 480.416954 185.393079 
L 480.416954 10.778906 
" style="fill: none; stroke: #000000; stroke-width: 0.8; stroke-linejoin: miter; stroke-linecap: square"/>
   </g>
   <g id="patch_5">
    <path d="M 41.046875 185.393079 
L 480.416954 185.393079 
" style="fill: none; stroke: #000000; stroke-width: 0.8; stroke-linejoin: miter; stroke-linecap: square"/>
   </g>
   <g id="patch_6">
    <path d="M 41.046875 10.778906 
L 480.416954 10.778906 
" style="fill: none; stroke: #000000; stroke-width: 0.8; stroke-linejoin: miter; stroke-linecap: square"/>
   </g>
   <g id="text_16">
    <!-- 11th floor -->
    <g transform="translate(64.50732 35.190834) scale(0.1 -0.1)">
     <defs>
      <path id="ArialMT-68" d="M 422 0 
L 422 4581 
L 984 4581 
L 984 2938 
Q 1378 3394 1978 3394 
Q 2347 3394 2619 3248 
Q 2891 3103 3008 2847 
Q 3125 2591 3125 2103 
L 3125 0 
L 2563 0 
L 2563 2103 
Q 2563 2525 2380 2717 
Q 2197 2909 1863 2909 
Q 1613 2909 1392 2779 
Q 1172 2650 1078 2428 
Q 984 2206 984 1816 
L 984 0 
L 422 0 
z
" transform="scale(0.015625)"/>
      <path id="ArialMT-66" d="M 556 0 
L 556 2881 
L 59 2881 
L 59 3319 
L 556 3319 
L 556 3672 
Q 556 4006 616 4169 
Q 697 4388 901 4523 
Q 1106 4659 1475 4659 
Q 1713 4659 2000 4603 
L 1916 4113 
Q 1741 4144 1584 4144 
Q 1328 4144 1222 4034 
Q 1116 3925 1116 3625 
L 1116 3319 
L 1763 3319 
L 1763 2881 
L 1116 2881 
L 1116 0 
L 556 0 
z
" transform="scale(0.015625)"/>
      <path id="ArialMT-72" d="M 416 0 
L 416 3319 
L 922 3319 
L 922 2816 
Q 1116 3169 1280 3281 
Q 1444 3394 1641 3394 
Q 1925 3394 2219 3213 
L 2025 2691 
Q 1819 2813 1613 2813 
Q 1428 2813 1281 2702 
Q 1134 2591 1072 2394 
Q 978 2094 978 1738 
L 978 0 
L 416 0 
z
" transform="scale(0.015625)"/>
     </defs>
     <use xlink:href="#ArialMT-31"/>
     <use xlink:href="#ArialMT-31" x="48.240234"/>
     <use xlink:href="#ArialMT-74" x="103.855469"/>
     <use xlink:href="#ArialMT-68" x="131.638672"/>
     <use xlink:href="#ArialMT-20" x="187.253906"/>
     <use xlink:href="#ArialMT-66" x="215.037109"/>
     <use xlink:href="#ArialMT-6c" x="242.820312"/>
     <use xlink:href="#ArialMT-6f" x="265.037109"/>
     <use xlink:href="#ArialMT-6f" x="320.652344"/>
     <use xlink:href="#ArialMT-72" x="376.267578"/>
    </g>
   </g>
   <g id="legend_1">
    <g id="patch_7">
     <path d="M 197.038829 113.731305 
L 473.416954 113.731305 
Q 475.416954 113.731305 475.416954 111.731305 
L 475.416954 84.44068 
Q 475.416954 82.44068 473.416954 82.44068 
L 197.038829 82.44068 
Q 195.038829 82.44068 195.038829 84.44068 
L 195.038829 111.731305 
Q 195.038829 113.731305 197.038829 113.731305 
z
" style="fill: #ffffff; stroke: #000000; stroke-linejoin: miter"/>
    </g>
    <g id="line2d_32">
     <path d="M 199.038829 90.098493 
L 209.038829 90.098493 
L 219.038829 90.098493 
" style="fill: none; stroke: #000000; stroke-width: 1.2; stroke-linecap: square"/>
    </g>
    <g id="text_17">
     <!-- Ref. -->
     <g transform="translate(227.038829 93.598493) scale(0.1 -0.1)">
      <defs>
       <path id="ArialMT-52" d="M 503 0 
L 503 4581 
L 2534 4581 
Q 3147 4581 3465 4457 
Q 3784 4334 3975 4021 
Q 4166 3709 4166 3331 
Q 4166 2844 3850 2509 
Q 3534 2175 2875 2084 
Q 3116 1969 3241 1856 
Q 3506 1613 3744 1247 
L 4541 0 
L 3778 0 
L 3172 953 
Q 2906 1366 2734 1584 
Q 2563 1803 2427 1890 
Q 2291 1978 2150 2013 
Q 2047 2034 1813 2034 
L 1109 2034 
L 1109 0 
L 503 0 
z
M 1109 2559 
L 2413 2559 
Q 2828 2559 3062 2645 
Q 3297 2731 3419 2920 
Q 3541 3109 3541 3331 
Q 3541 3656 3305 3865 
Q 3069 4075 2559 4075 
L 1109 4075 
L 1109 2559 
z
" transform="scale(0.015625)"/>
       <path id="ArialMT-2e" d="M 581 0 
L 581 641 
L 1222 641 
L 1222 0 
L 581 0 
z
" transform="scale(0.015625)"/>
      </defs>
      <use xlink:href="#ArialMT-52"/>
      <use xlink:href="#ArialMT-65" x="72.216797"/>
      <use xlink:href="#ArialMT-66" x="127.832031"/>
      <use xlink:href="#ArialMT-2e" x="155.615234"/>
     </g>
    </g>
    <g id="line2d_33">
     <path d="M 199.038829 104.243805 
L 209.038829 104.243805 
L 219.038829 104.243805 
" style="fill: none; stroke-dasharray: 2.96,1.28; stroke-dashoffset: 0; stroke: #ff0000; stroke-width: 0.8"/>
    </g>
    <g id="text_18">
     <!-- BiRNN pred. -->
     <g transform="translate(227.038829 107.743805) scale(0.1 -0.1)">
      <defs>
       <path id="ArialMT-42" d="M 469 0 
L 469 4581 
L 2188 4581 
Q 2713 4581 3030 4442 
Q 3347 4303 3526 4014 
Q 3706 3725 3706 3409 
Q 3706 3116 3547 2856 
Q 3388 2597 3066 2438 
Q 3481 2316 3704 2022 
Q 3928 1728 3928 1328 
Q 3928 1006 3792 729 
Q 3656 453 3456 303 
Q 3256 153 2954 76 
Q 2653 0 2216 0 
L 469 0 
z
M 1075 2656 
L 2066 2656 
Q 2469 2656 2644 2709 
Q 2875 2778 2992 2937 
Q 3109 3097 3109 3338 
Q 3109 3566 3000 3739 
Q 2891 3913 2687 3977 
Q 2484 4041 1991 4041 
L 1075 4041 
L 1075 2656 
z
M 1075 541 
L 2216 541 
Q 2509 541 2628 563 
Q 2838 600 2978 687 
Q 3119 775 3209 942 
Q 3300 1109 3300 1328 
Q 3300 1584 3169 1773 
Q 3038 1963 2805 2039 
Q 2572 2116 2134 2116 
L 1075 2116 
L 1075 541 
z
" transform="scale(0.015625)"/>
       <path id="ArialMT-4e" d="M 488 0 
L 488 4581 
L 1109 4581 
L 3516 984 
L 3516 4581 
L 4097 4581 
L 4097 0 
L 3475 0 
L 1069 3600 
L 1069 0 
L 488 0 
z
" transform="scale(0.015625)"/>
       <path id="ArialMT-70" d="M 422 -1272 
L 422 3319 
L 934 3319 
L 934 2888 
Q 1116 3141 1344 3267 
Q 1572 3394 1897 3394 
Q 2322 3394 2647 3175 
Q 2972 2956 3137 2557 
Q 3303 2159 3303 1684 
Q 3303 1175 3120 767 
Q 2938 359 2589 142 
Q 2241 -75 1856 -75 
Q 1575 -75 1351 44 
Q 1128 163 984 344 
L 984 -1272 
L 422 -1272 
z
M 931 1641 
Q 931 1000 1190 694 
Q 1450 388 1819 388 
Q 2194 388 2461 705 
Q 2728 1022 2728 1688 
Q 2728 2322 2467 2637 
Q 2206 2953 1844 2953 
Q 1484 2953 1207 2617 
Q 931 2281 931 1641 
z
" transform="scale(0.015625)"/>
       <path id="ArialMT-64" d="M 2575 0 
L 2575 419 
Q 2259 -75 1647 -75 
Q 1250 -75 917 144 
Q 584 363 401 755 
Q 219 1147 219 1656 
Q 219 2153 384 2558 
Q 550 2963 881 3178 
Q 1213 3394 1622 3394 
Q 1922 3394 2156 3267 
Q 2391 3141 2538 2938 
L 2538 4581 
L 3097 4581 
L 3097 0 
L 2575 0 
z
M 797 1656 
Q 797 1019 1065 703 
Q 1334 388 1700 388 
Q 2069 388 2326 689 
Q 2584 991 2584 1609 
Q 2584 2291 2321 2609 
Q 2059 2928 1675 2928 
Q 1300 2928 1048 2622 
Q 797 2316 797 1656 
z
" transform="scale(0.015625)"/>
      </defs>
      <use xlink:href="#ArialMT-42"/>
      <use xlink:href="#ArialMT-69" x="66.699219"/>
      <use xlink:href="#ArialMT-52" x="88.916016"/>
      <use xlink:href="#ArialMT-4e" x="161.132812"/>
      <use xlink:href="#ArialMT-4e" x="233.349609"/>
      <use xlink:href="#ArialMT-20" x="305.566406"/>
      <use xlink:href="#ArialMT-70" x="333.349609"/>
      <use xlink:href="#ArialMT-72" x="388.964844"/>
      <use xlink:href="#ArialMT-65" x="422.265625"/>
      <use xlink:href="#ArialMT-64" x="477.880859"/>
      <use xlink:href="#ArialMT-2e" x="533.496094"/>
     </g>
    </g>
    <g id="line2d_34">
     <path d="M 303.165391 90.098493 
L 313.165391 90.098493 
L 323.165391 90.098493 
" style="fill: none; stroke-dasharray: 0.8,1.32; stroke-dashoffset: 0; stroke: #0000ff; stroke-width: 0.8"/>
    </g>
    <g id="text_19">
     <!-- RNN pred. -->
     <g transform="translate(331.165391 93.598493) scale(0.1 -0.1)">
      <use xlink:href="#ArialMT-52"/>
      <use xlink:href="#ArialMT-4e" x="72.216797"/>
      <use xlink:href="#ArialMT-4e" x="144.433594"/>
      <use xlink:href="#ArialMT-20" x="216.650391"/>
      <use xlink:href="#ArialMT-70" x="244.433594"/>
      <use xlink:href="#ArialMT-72" x="300.048828"/>
      <use xlink:href="#ArialMT-65" x="333.349609"/>
      <use xlink:href="#ArialMT-64" x="388.964844"/>
      <use xlink:href="#ArialMT-2e" x="444.580078"/>
     </g>
    </g>
    <g id="line2d_35">
     <path d="M 303.165391 104.243805 
L 313.165391 104.243805 
L 323.165391 104.243805 
" style="fill: none; stroke-dasharray: 5.12,1.28,0.8,1.28; stroke-dashoffset: 0; stroke: #ffa500; stroke-width: 0.8"/>
    </g>
    <g id="text_20">
     <!-- DKF pred. -->
     <g transform="translate(331.165391 107.743805) scale(0.1 -0.1)">
      <defs>
       <path id="ArialMT-44" d="M 494 0 
L 494 4581 
L 2072 4581 
Q 2606 4581 2888 4516 
Q 3281 4425 3559 4188 
Q 3922 3881 4101 3404 
Q 4281 2928 4281 2316 
Q 4281 1794 4159 1391 
Q 4038 988 3847 723 
Q 3656 459 3429 307 
Q 3203 156 2883 78 
Q 2563 0 2147 0 
L 494 0 
z
M 1100 541 
L 2078 541 
Q 2531 541 2789 625 
Q 3047 709 3200 863 
Q 3416 1078 3536 1442 
Q 3656 1806 3656 2325 
Q 3656 3044 3420 3430 
Q 3184 3816 2847 3947 
Q 2603 4041 2063 4041 
L 1100 4041 
L 1100 541 
z
" transform="scale(0.015625)"/>
       <path id="ArialMT-4b" d="M 469 0 
L 469 4581 
L 1075 4581 
L 1075 2309 
L 3350 4581 
L 4172 4581 
L 2250 2725 
L 4256 0 
L 3456 0 
L 1825 2319 
L 1075 1588 
L 1075 0 
L 469 0 
z
" transform="scale(0.015625)"/>
       <path id="ArialMT-46" d="M 525 0 
L 525 4581 
L 3616 4581 
L 3616 4041 
L 1131 4041 
L 1131 2622 
L 3281 2622 
L 3281 2081 
L 1131 2081 
L 1131 0 
L 525 0 
z
" transform="scale(0.015625)"/>
      </defs>
      <use xlink:href="#ArialMT-44"/>
      <use xlink:href="#ArialMT-4b" x="72.216797"/>
      <use xlink:href="#ArialMT-46" x="138.916016"/>
      <use xlink:href="#ArialMT-20" x="200"/>
      <use xlink:href="#ArialMT-70" x="227.783203"/>
      <use xlink:href="#ArialMT-72" x="283.398438"/>
      <use xlink:href="#ArialMT-65" x="316.699219"/>
      <use xlink:href="#ArialMT-64" x="372.314453"/>
      <use xlink:href="#ArialMT-2e" x="427.929688"/>
     </g>
    </g>
    <g id="line2d_36">
     <path d="M 398.399766 90.098493 
L 408.399766 90.098493 
L 418.399766 90.098493 
" style="fill: none; stroke-dasharray: 5.12,1.28,0.8,1.28; stroke-dashoffset: 0; stroke: #bf00bf; stroke-width: 0.8"/>
    </g>
    <g id="text_21">
     <!-- AKF pred. -->
     <g transform="translate(426.399766 93.598493) scale(0.1 -0.1)">
      <defs>
       <path id="ArialMT-41" d="M -9 0 
L 1750 4581 
L 2403 4581 
L 4278 0 
L 3588 0 
L 3053 1388 
L 1138 1388 
L 634 0 
L -9 0 
z
M 1313 1881 
L 2866 1881 
L 2388 3150 
Q 2169 3728 2063 4100 
Q 1975 3659 1816 3225 
L 1313 1881 
z
" transform="scale(0.015625)"/>
      </defs>
      <use xlink:href="#ArialMT-41"/>
      <use xlink:href="#ArialMT-4b" x="66.699219"/>
      <use xlink:href="#ArialMT-46" x="133.398438"/>
      <use xlink:href="#ArialMT-20" x="194.482422"/>
      <use xlink:href="#ArialMT-70" x="222.265625"/>
      <use xlink:href="#ArialMT-72" x="277.880859"/>
      <use xlink:href="#ArialMT-65" x="311.181641"/>
      <use xlink:href="#ArialMT-64" x="366.796875"/>
      <use xlink:href="#ArialMT-2e" x="422.412109"/>
     </g>
    </g>
   </g>
  </g>
 </g>
 <defs>
  <clipPath id="p88080f5ab2">
   <rect x="41.046875" y="10.778906" width="439.370079" height="174.614173"/>
  </clipPath>
 </defs>
</svg>
