<?xml version="1.0" encoding="utf-8" standalone="no"?>
<!DOCTYPE svg PUBLIC "-//W3C//DTD SVG 1.1//EN"
  "http://www.w3.org/Graphics/SVG/1.1/DTD/svg11.dtd">
<svg xmlns:xlink="http://www.w3.org/1999/xlink" width="493.177891pt" height="218.622767pt" viewBox="0 0 493.177891 218.622767" xmlns="http://www.w3.org/2000/svg" version="1.1">
 <metadata>
  <rdf:RDF xmlns:dc="http://purl.org/dc/elements/1.1/" xmlns:cc="http://creativecommons.org/ns#" xmlns:rdf="http://www.w3.org/1999/02/22-rdf-syntax-ns#">
   <cc:Work>
    <dc:type rdf:resource="http://purl.org/dc/dcmitype/StillImage"/>
    <dc:date>2024-03-15T16:56:48.341396</dc:date>
    <dc:format>image/svg+xml</dc:format>
    <dc:creator>
     <cc:Agent>
      <dc:title>Matplotlib v3.8.2, https://matplotlib.org/</dc:title>
     </cc:Agent>
    </dc:creator>
   </cc:Work>
  </rdf:RDF>
 </metadata>
 <defs>
  <style type="text/css">*{stroke-linejoin: round; stroke-linecap: butt}</style>
 </defs>
 <g id="figure_1">
  <g id="patch_1">
   <path d="M 0 218.622767 
L 493.177891 218.622767 
L 493.177891 0 
L 0 0 
z
" style="fill: #ffffff"/>
  </g>
  <g id="axes_1">
   <g id="patch_2">
    <path d="M 41.046875 185.393079 
L 480.416954 185.393079 
L 480.416954 10.778906 
L 41.046875 10.778906 
z
" style="fill: #ffffff"/>
   </g>
   <g id="matplotlib.axis_1">
    <g id="xtick_1">
     <g id="line2d_1">
      <path d="M 41.046875 185.393079 
L 41.046875 10.778906 
" clip-path="url(#p1b48721294)" style="fill: none; stroke: #b0b0b0; stroke-width: 0.8; stroke-linecap: square"/>
     </g>
     <g id="line2d_2">
      <defs>
       <path id="m9337342e42" d="M 0 0 
L 0 -3.5 
" style="stroke: #000000; stroke-width: 0.8"/>
      </defs>
      <g>
       <use xlink:href="#m9337342e42" x="41.046875" y="185.393079" style="stroke: #000000; stroke-width: 0.8"/>
      </g>
     </g>
     <g id="text_1">
      <!-- 0 -->
      <g transform="translate(38.266406 196.050892) scale(0.1 -0.1)">
       <defs>
        <path id="ArialMT-30" d="M 266 2259 
Q 266 3072 433 3567 
Q 600 4063 929 4331 
Q 1259 4600 1759 4600 
Q 2128 4600 2406 4451 
Q 2684 4303 2865 4023 
Q 3047 3744 3150 3342 
Q 3253 2941 3253 2259 
Q 3253 1453 3087 958 
Q 2922 463 2592 192 
Q 2263 -78 1759 -78 
Q 1097 -78 719 397 
Q 266 969 266 2259 
z
M 844 2259 
Q 844 1131 1108 757 
Q 1372 384 1759 384 
Q 2147 384 2411 759 
Q 2675 1134 2675 2259 
Q 2675 3391 2411 3762 
Q 2147 4134 1753 4134 
Q 1366 4134 1134 3806 
Q 844 3388 844 2259 
z
" transform="scale(0.015625)"/>
       </defs>
       <use xlink:href="#ArialMT-30"/>
      </g>
     </g>
    </g>
    <g id="xtick_2">
     <g id="line2d_3">
      <path d="M 128.920891 185.393079 
L 128.920891 10.778906 
" clip-path="url(#p1b48721294)" style="fill: none; stroke: #b0b0b0; stroke-width: 0.8; stroke-linecap: square"/>
     </g>
     <g id="line2d_4">
      <g>
       <use xlink:href="#m9337342e42" x="128.920891" y="185.393079" style="stroke: #000000; stroke-width: 0.8"/>
      </g>
     </g>
     <g id="text_2">
      <!-- 10 -->
      <g transform="translate(123.359953 196.050892) scale(0.1 -0.1)">
       <defs>
        <path id="ArialMT-31" d="M 2384 0 
L 1822 0 
L 1822 3584 
Q 1619 3391 1289 3197 
Q 959 3003 697 2906 
L 697 3450 
Q 1169 3672 1522 3987 
Q 1875 4303 2022 4600 
L 2384 4600 
L 2384 0 
z
" transform="scale(0.015625)"/>
       </defs>
       <use xlink:href="#ArialMT-31"/>
       <use xlink:href="#ArialMT-30" x="55.615234"/>
      </g>
     </g>
    </g>
    <g id="xtick_3">
     <g id="line2d_5">
      <path d="M 216.794906 185.393079 
L 216.794906 10.778906 
" clip-path="url(#p1b48721294)" style="fill: none; stroke: #b0b0b0; stroke-width: 0.8; stroke-linecap: square"/>
     </g>
     <g id="line2d_6">
      <g>
       <use xlink:href="#m9337342e42" x="216.794906" y="185.393079" style="stroke: #000000; stroke-width: 0.8"/>
      </g>
     </g>
     <g id="text_3">
      <!-- 20 -->
      <g transform="translate(211.233969 196.050892) scale(0.1 -0.1)">
       <defs>
        <path id="ArialMT-32" d="M 3222 541 
L 3222 0 
L 194 0 
Q 188 203 259 391 
Q 375 700 629 1000 
Q 884 1300 1366 1694 
Q 2113 2306 2375 2664 
Q 2638 3022 2638 3341 
Q 2638 3675 2398 3904 
Q 2159 4134 1775 4134 
Q 1369 4134 1125 3890 
Q 881 3647 878 3216 
L 300 3275 
Q 359 3922 746 4261 
Q 1134 4600 1788 4600 
Q 2447 4600 2831 4234 
Q 3216 3869 3216 3328 
Q 3216 3053 3103 2787 
Q 2991 2522 2730 2228 
Q 2469 1934 1863 1422 
Q 1356 997 1212 845 
Q 1069 694 975 541 
L 3222 541 
z
" transform="scale(0.015625)"/>
       </defs>
       <use xlink:href="#ArialMT-32"/>
       <use xlink:href="#ArialMT-30" x="55.615234"/>
      </g>
     </g>
    </g>
    <g id="xtick_4">
     <g id="line2d_7">
      <path d="M 304.668922 185.393079 
L 304.668922 10.778906 
" clip-path="url(#p1b48721294)" style="fill: none; stroke: #b0b0b0; stroke-width: 0.8; stroke-linecap: square"/>
     </g>
     <g id="line2d_8">
      <g>
       <use xlink:href="#m9337342e42" x="304.668922" y="185.393079" style="stroke: #000000; stroke-width: 0.8"/>
      </g>
     </g>
     <g id="text_4">
      <!-- 30 -->
      <g transform="translate(299.107985 196.050892) scale(0.1 -0.1)">
       <defs>
        <path id="ArialMT-33" d="M 269 1209 
L 831 1284 
Q 928 806 1161 595 
Q 1394 384 1728 384 
Q 2125 384 2398 659 
Q 2672 934 2672 1341 
Q 2672 1728 2419 1979 
Q 2166 2231 1775 2231 
Q 1616 2231 1378 2169 
L 1441 2663 
Q 1497 2656 1531 2656 
Q 1891 2656 2178 2843 
Q 2466 3031 2466 3422 
Q 2466 3731 2256 3934 
Q 2047 4138 1716 4138 
Q 1388 4138 1169 3931 
Q 950 3725 888 3313 
L 325 3413 
Q 428 3978 793 4289 
Q 1159 4600 1703 4600 
Q 2078 4600 2393 4439 
Q 2709 4278 2876 4000 
Q 3044 3722 3044 3409 
Q 3044 3113 2884 2869 
Q 2725 2625 2413 2481 
Q 2819 2388 3044 2092 
Q 3269 1797 3269 1353 
Q 3269 753 2831 336 
Q 2394 -81 1725 -81 
Q 1122 -81 723 278 
Q 325 638 269 1209 
z
" transform="scale(0.015625)"/>
       </defs>
       <use xlink:href="#ArialMT-33"/>
       <use xlink:href="#ArialMT-30" x="55.615234"/>
      </g>
     </g>
    </g>
    <g id="xtick_5">
     <g id="line2d_9">
      <path d="M 392.542938 185.393079 
L 392.542938 10.778906 
" clip-path="url(#p1b48721294)" style="fill: none; stroke: #b0b0b0; stroke-width: 0.8; stroke-linecap: square"/>
     </g>
     <g id="line2d_10">
      <g>
       <use xlink:href="#m9337342e42" x="392.542938" y="185.393079" style="stroke: #000000; stroke-width: 0.8"/>
      </g>
     </g>
     <g id="text_5">
      <!-- 40 -->
      <g transform="translate(386.982 196.050892) scale(0.1 -0.1)">
       <defs>
        <path id="ArialMT-34" d="M 2069 0 
L 2069 1097 
L 81 1097 
L 81 1613 
L 2172 4581 
L 2631 4581 
L 2631 1613 
L 3250 1613 
L 3250 1097 
L 2631 1097 
L 2631 0 
L 2069 0 
z
M 2069 1613 
L 2069 3678 
L 634 1613 
L 2069 1613 
z
" transform="scale(0.015625)"/>
       </defs>
       <use xlink:href="#ArialMT-34"/>
       <use xlink:href="#ArialMT-30" x="55.615234"/>
      </g>
     </g>
    </g>
    <g id="xtick_6">
     <g id="line2d_11">
      <path d="M 480.416954 185.393079 
L 480.416954 10.778906 
" clip-path="url(#p1b48721294)" style="fill: none; stroke: #b0b0b0; stroke-width: 0.8; stroke-linecap: square"/>
     </g>
     <g id="line2d_12">
      <g>
       <use xlink:href="#m9337342e42" x="480.416954" y="185.393079" style="stroke: #000000; stroke-width: 0.8"/>
      </g>
     </g>
     <g id="text_6">
      <!-- 50 -->
      <g transform="translate(474.856016 196.050892) scale(0.1 -0.1)">
       <defs>
        <path id="ArialMT-35" d="M 266 1200 
L 856 1250 
Q 922 819 1161 601 
Q 1400 384 1738 384 
Q 2144 384 2425 690 
Q 2706 997 2706 1503 
Q 2706 1984 2436 2262 
Q 2166 2541 1728 2541 
Q 1456 2541 1237 2417 
Q 1019 2294 894 2097 
L 366 2166 
L 809 4519 
L 3088 4519 
L 3088 3981 
L 1259 3981 
L 1013 2750 
Q 1425 3038 1878 3038 
Q 2478 3038 2890 2622 
Q 3303 2206 3303 1553 
Q 3303 931 2941 478 
Q 2500 -78 1738 -78 
Q 1113 -78 717 272 
Q 322 622 266 1200 
z
" transform="scale(0.015625)"/>
       </defs>
       <use xlink:href="#ArialMT-35"/>
       <use xlink:href="#ArialMT-30" x="55.615234"/>
      </g>
     </g>
    </g>
    <g id="text_7">
     <!-- Time (s) -->
     <g transform="translate(242.590508 209.318079) scale(0.1 -0.1)">
      <defs>
       <path id="ArialMT-54" d="M 1659 0 
L 1659 4041 
L 150 4041 
L 150 4581 
L 3781 4581 
L 3781 4041 
L 2266 4041 
L 2266 0 
L 1659 0 
z
" transform="scale(0.015625)"/>
       <path id="ArialMT-69" d="M 425 3934 
L 425 4581 
L 988 4581 
L 988 3934 
L 425 3934 
z
M 425 0 
L 425 3319 
L 988 3319 
L 988 0 
L 425 0 
z
" transform="scale(0.015625)"/>
       <path id="ArialMT-6d" d="M 422 0 
L 422 3319 
L 925 3319 
L 925 2853 
Q 1081 3097 1340 3245 
Q 1600 3394 1931 3394 
Q 2300 3394 2536 3241 
Q 2772 3088 2869 2813 
Q 3263 3394 3894 3394 
Q 4388 3394 4653 3120 
Q 4919 2847 4919 2278 
L 4919 0 
L 4359 0 
L 4359 2091 
Q 4359 2428 4304 2576 
Q 4250 2725 4106 2815 
Q 3963 2906 3769 2906 
Q 3419 2906 3187 2673 
Q 2956 2441 2956 1928 
L 2956 0 
L 2394 0 
L 2394 2156 
Q 2394 2531 2256 2718 
Q 2119 2906 1806 2906 
Q 1569 2906 1367 2781 
Q 1166 2656 1075 2415 
Q 984 2175 984 1722 
L 984 0 
L 422 0 
z
" transform="scale(0.015625)"/>
       <path id="ArialMT-65" d="M 2694 1069 
L 3275 997 
Q 3138 488 2766 206 
Q 2394 -75 1816 -75 
Q 1088 -75 661 373 
Q 234 822 234 1631 
Q 234 2469 665 2931 
Q 1097 3394 1784 3394 
Q 2450 3394 2872 2941 
Q 3294 2488 3294 1666 
Q 3294 1616 3291 1516 
L 816 1516 
Q 847 969 1125 678 
Q 1403 388 1819 388 
Q 2128 388 2347 550 
Q 2566 713 2694 1069 
z
M 847 1978 
L 2700 1978 
Q 2663 2397 2488 2606 
Q 2219 2931 1791 2931 
Q 1403 2931 1139 2672 
Q 875 2413 847 1978 
z
" transform="scale(0.015625)"/>
       <path id="ArialMT-20" transform="scale(0.015625)"/>
       <path id="ArialMT-28" d="M 1497 -1347 
Q 1031 -759 709 28 
Q 388 816 388 1659 
Q 388 2403 628 3084 
Q 909 3875 1497 4659 
L 1900 4659 
Q 1522 4009 1400 3731 
Q 1209 3300 1100 2831 
Q 966 2247 966 1656 
Q 966 153 1900 -1347 
L 1497 -1347 
z
" transform="scale(0.015625)"/>
       <path id="ArialMT-73" d="M 197 991 
L 753 1078 
Q 800 744 1014 566 
Q 1228 388 1613 388 
Q 2000 388 2187 545 
Q 2375 703 2375 916 
Q 2375 1106 2209 1216 
Q 2094 1291 1634 1406 
Q 1016 1563 777 1677 
Q 538 1791 414 1992 
Q 291 2194 291 2438 
Q 291 2659 392 2848 
Q 494 3038 669 3163 
Q 800 3259 1026 3326 
Q 1253 3394 1513 3394 
Q 1903 3394 2198 3281 
Q 2494 3169 2634 2976 
Q 2775 2784 2828 2463 
L 2278 2388 
Q 2241 2644 2061 2787 
Q 1881 2931 1553 2931 
Q 1166 2931 1000 2803 
Q 834 2675 834 2503 
Q 834 2394 903 2306 
Q 972 2216 1119 2156 
Q 1203 2125 1616 2013 
Q 2213 1853 2448 1751 
Q 2684 1650 2818 1456 
Q 2953 1263 2953 975 
Q 2953 694 2789 445 
Q 2625 197 2315 61 
Q 2006 -75 1616 -75 
Q 969 -75 630 194 
Q 291 463 197 991 
z
" transform="scale(0.015625)"/>
       <path id="ArialMT-29" d="M 791 -1347 
L 388 -1347 
Q 1322 153 1322 1656 
Q 1322 2244 1188 2822 
Q 1081 3291 891 3722 
Q 769 4003 388 4659 
L 791 4659 
Q 1378 3875 1659 3084 
Q 1900 2403 1900 1659 
Q 1900 816 1576 28 
Q 1253 -759 791 -1347 
z
" transform="scale(0.015625)"/>
      </defs>
      <use xlink:href="#ArialMT-54"/>
      <use xlink:href="#ArialMT-69" x="57.333984"/>
      <use xlink:href="#ArialMT-6d" x="79.550781"/>
      <use xlink:href="#ArialMT-65" x="162.851562"/>
      <use xlink:href="#ArialMT-20" x="218.466797"/>
      <use xlink:href="#ArialMT-28" x="246.25"/>
      <use xlink:href="#ArialMT-73" x="279.550781"/>
      <use xlink:href="#ArialMT-29" x="329.550781"/>
     </g>
    </g>
   </g>
   <g id="matplotlib.axis_2">
    <g id="ytick_1">
     <g id="line2d_13">
      <path d="M 41.046875 131.76076 
L 480.416954 131.76076 
" clip-path="url(#p1b48721294)" style="fill: none; stroke: #b0b0b0; stroke-width: 0.8; stroke-linecap: square"/>
     </g>
     <g id="line2d_14">
      <defs>
       <path id="mf62ca6db7f" d="M 0 0 
L 3.5 0 
" style="stroke: #000000; stroke-width: 0.8"/>
      </defs>
      <g>
       <use xlink:href="#mf62ca6db7f" x="41.046875" y="131.76076" style="stroke: #000000; stroke-width: 0.8"/>
      </g>
     </g>
     <g id="text_8">
      <!-- −15 -->
      <g transform="translate(20.584375 135.339666) scale(0.1 -0.1)">
       <defs>
        <path id="ArialMT-2212" d="M 3381 1997 
L 356 1997 
L 356 2522 
L 3381 2522 
L 3381 1997 
z
" transform="scale(0.015625)"/>
       </defs>
       <use xlink:href="#ArialMT-2212"/>
       <use xlink:href="#ArialMT-31" x="58.398438"/>
       <use xlink:href="#ArialMT-35" x="114.013672"/>
      </g>
     </g>
    </g>
    <g id="ytick_2">
     <g id="line2d_15">
      <path d="M 41.046875 107.564389 
L 480.416954 107.564389 
" clip-path="url(#p1b48721294)" style="fill: none; stroke: #b0b0b0; stroke-width: 0.8; stroke-linecap: square"/>
     </g>
     <g id="line2d_16">
      <g>
       <use xlink:href="#mf62ca6db7f" x="41.046875" y="107.564389" style="stroke: #000000; stroke-width: 0.8"/>
      </g>
     </g>
     <g id="text_9">
      <!-- 0 -->
      <g transform="translate(31.985938 111.143296) scale(0.1 -0.1)">
       <use xlink:href="#ArialMT-30"/>
      </g>
     </g>
    </g>
    <g id="ytick_3">
     <g id="line2d_17">
      <path d="M 41.046875 83.368019 
L 480.416954 83.368019 
" clip-path="url(#p1b48721294)" style="fill: none; stroke: #b0b0b0; stroke-width: 0.8; stroke-linecap: square"/>
     </g>
     <g id="line2d_18">
      <g>
       <use xlink:href="#mf62ca6db7f" x="41.046875" y="83.368019" style="stroke: #000000; stroke-width: 0.8"/>
      </g>
     </g>
     <g id="text_10">
      <!-- 15 -->
      <g transform="translate(26.425 86.946925) scale(0.1 -0.1)">
       <use xlink:href="#ArialMT-31"/>
       <use xlink:href="#ArialMT-35" x="55.615234"/>
      </g>
     </g>
    </g>
    <g id="ytick_4">
     <g id="line2d_19">
      <path d="M 41.046875 59.171648 
L 480.416954 59.171648 
" clip-path="url(#p1b48721294)" style="fill: none; stroke: #b0b0b0; stroke-width: 0.8; stroke-linecap: square"/>
     </g>
     <g id="line2d_20">
      <g>
       <use xlink:href="#mf62ca6db7f" x="41.046875" y="59.171648" style="stroke: #000000; stroke-width: 0.8"/>
      </g>
     </g>
     <g id="text_11">
      <!-- 30 -->
      <g transform="translate(26.425 62.750554) scale(0.1 -0.1)">
       <use xlink:href="#ArialMT-33"/>
       <use xlink:href="#ArialMT-30" x="55.615234"/>
      </g>
     </g>
    </g>
    <g id="ytick_5">
     <g id="line2d_21">
      <path d="M 41.046875 34.975277 
L 480.416954 34.975277 
" clip-path="url(#p1b48721294)" style="fill: none; stroke: #b0b0b0; stroke-width: 0.8; stroke-linecap: square"/>
     </g>
     <g id="line2d_22">
      <g>
       <use xlink:href="#mf62ca6db7f" x="41.046875" y="34.975277" style="stroke: #000000; stroke-width: 0.8"/>
      </g>
     </g>
     <g id="text_12">
      <!-- 45 -->
      <g transform="translate(26.425 38.554183) scale(0.1 -0.1)">
       <use xlink:href="#ArialMT-34"/>
       <use xlink:href="#ArialMT-35" x="55.615234"/>
      </g>
     </g>
    </g>
    <g id="ytick_6">
     <g id="line2d_23">
      <path d="M 41.046875 10.778906 
L 480.416954 10.778906 
" clip-path="url(#p1b48721294)" style="fill: none; stroke: #b0b0b0; stroke-width: 0.8; stroke-linecap: square"/>
     </g>
     <g id="line2d_24">
      <g>
       <use xlink:href="#mf62ca6db7f" x="41.046875" y="10.778906" style="stroke: #000000; stroke-width: 0.8"/>
      </g>
     </g>
     <g id="text_13">
      <!-- 60 -->
      <g transform="translate(26.425 14.357812) scale(0.1 -0.1)">
       <defs>
        <path id="ArialMT-36" d="M 3184 3459 
L 2625 3416 
Q 2550 3747 2413 3897 
Q 2184 4138 1850 4138 
Q 1581 4138 1378 3988 
Q 1113 3794 959 3422 
Q 806 3050 800 2363 
Q 1003 2672 1297 2822 
Q 1591 2972 1913 2972 
Q 2475 2972 2870 2558 
Q 3266 2144 3266 1488 
Q 3266 1056 3080 686 
Q 2894 316 2569 119 
Q 2244 -78 1831 -78 
Q 1128 -78 684 439 
Q 241 956 241 2144 
Q 241 3472 731 4075 
Q 1159 4600 1884 4600 
Q 2425 4600 2770 4297 
Q 3116 3994 3184 3459 
z
M 888 1484 
Q 888 1194 1011 928 
Q 1134 663 1356 523 
Q 1578 384 1822 384 
Q 2178 384 2434 671 
Q 2691 959 2691 1453 
Q 2691 1928 2437 2201 
Q 2184 2475 1800 2475 
Q 1419 2475 1153 2201 
Q 888 1928 888 1484 
z
" transform="scale(0.015625)"/>
       </defs>
       <use xlink:href="#ArialMT-36"/>
       <use xlink:href="#ArialMT-30" x="55.615234"/>
      </g>
     </g>
    </g>
    <g id="text_14">
     <!-- Velocity (cm/s) -->
     <g transform="translate(14.479688 130.59068) rotate(-90) scale(0.1 -0.1)">
      <defs>
       <path id="ArialMT-56" d="M 1803 0 
L 28 4581 
L 684 4581 
L 1875 1253 
Q 2019 853 2116 503 
Q 2222 878 2363 1253 
L 3600 4581 
L 4219 4581 
L 2425 0 
L 1803 0 
z
" transform="scale(0.015625)"/>
       <path id="ArialMT-6c" d="M 409 0 
L 409 4581 
L 972 4581 
L 972 0 
L 409 0 
z
" transform="scale(0.015625)"/>
       <path id="ArialMT-6f" d="M 213 1659 
Q 213 2581 725 3025 
Q 1153 3394 1769 3394 
Q 2453 3394 2887 2945 
Q 3322 2497 3322 1706 
Q 3322 1066 3130 698 
Q 2938 331 2570 128 
Q 2203 -75 1769 -75 
Q 1072 -75 642 372 
Q 213 819 213 1659 
z
M 791 1659 
Q 791 1022 1069 705 
Q 1347 388 1769 388 
Q 2188 388 2466 706 
Q 2744 1025 2744 1678 
Q 2744 2294 2464 2611 
Q 2184 2928 1769 2928 
Q 1347 2928 1069 2612 
Q 791 2297 791 1659 
z
" transform="scale(0.015625)"/>
       <path id="ArialMT-63" d="M 2588 1216 
L 3141 1144 
Q 3050 572 2676 248 
Q 2303 -75 1759 -75 
Q 1078 -75 664 370 
Q 250 816 250 1647 
Q 250 2184 428 2587 
Q 606 2991 970 3192 
Q 1334 3394 1763 3394 
Q 2303 3394 2647 3120 
Q 2991 2847 3088 2344 
L 2541 2259 
Q 2463 2594 2264 2762 
Q 2066 2931 1784 2931 
Q 1359 2931 1093 2626 
Q 828 2322 828 1663 
Q 828 994 1084 691 
Q 1341 388 1753 388 
Q 2084 388 2306 591 
Q 2528 794 2588 1216 
z
" transform="scale(0.015625)"/>
       <path id="ArialMT-74" d="M 1650 503 
L 1731 6 
Q 1494 -44 1306 -44 
Q 1000 -44 831 53 
Q 663 150 594 308 
Q 525 466 525 972 
L 525 2881 
L 113 2881 
L 113 3319 
L 525 3319 
L 525 4141 
L 1084 4478 
L 1084 3319 
L 1650 3319 
L 1650 2881 
L 1084 2881 
L 1084 941 
Q 1084 700 1114 631 
Q 1144 563 1211 522 
Q 1278 481 1403 481 
Q 1497 481 1650 503 
z
" transform="scale(0.015625)"/>
       <path id="ArialMT-79" d="M 397 -1278 
L 334 -750 
Q 519 -800 656 -800 
Q 844 -800 956 -737 
Q 1069 -675 1141 -563 
Q 1194 -478 1313 -144 
Q 1328 -97 1363 -6 
L 103 3319 
L 709 3319 
L 1400 1397 
Q 1534 1031 1641 628 
Q 1738 1016 1872 1384 
L 2581 3319 
L 3144 3319 
L 1881 -56 
Q 1678 -603 1566 -809 
Q 1416 -1088 1222 -1217 
Q 1028 -1347 759 -1347 
Q 597 -1347 397 -1278 
z
" transform="scale(0.015625)"/>
       <path id="ArialMT-2f" d="M 0 -78 
L 1328 4659 
L 1778 4659 
L 453 -78 
L 0 -78 
z
" transform="scale(0.015625)"/>
      </defs>
      <use xlink:href="#ArialMT-56"/>
      <use xlink:href="#ArialMT-65" x="61.199219"/>
      <use xlink:href="#ArialMT-6c" x="116.814453"/>
      <use xlink:href="#ArialMT-6f" x="139.03125"/>
      <use xlink:href="#ArialMT-63" x="194.646484"/>
      <use xlink:href="#ArialMT-69" x="244.646484"/>
      <use xlink:href="#ArialMT-74" x="266.863281"/>
      <use xlink:href="#ArialMT-79" x="294.646484"/>
      <use xlink:href="#ArialMT-20" x="344.646484"/>
      <use xlink:href="#ArialMT-28" x="372.429688"/>
      <use xlink:href="#ArialMT-63" x="405.730469"/>
      <use xlink:href="#ArialMT-6d" x="455.730469"/>
      <use xlink:href="#ArialMT-2f" x="539.03125"/>
      <use xlink:href="#ArialMT-73" x="566.814453"/>
      <use xlink:href="#ArialMT-29" x="616.814453"/>
     </g>
    </g>
   </g>
   <g id="line2d_25">
    <path d="M 41.046875 107.564389 
L 44.122466 107.402629 
L 45.879946 107.48153 
L 48.076796 107.44315 
L 48.516166 107.212737 
L 48.955536 107.370291 
L 49.394906 107.306642 
L 50.273647 107.524348 
L 50.713017 107.482939 
L 51.591757 108.487205 
L 52.470497 108.96282 
L 52.909867 108.95594 
L 54.667347 107.180072 
L 55.546088 107.269006 
L 55.985458 107.572552 
L 56.424828 107.416713 
L 56.864198 106.839332 
L 57.303568 107.070357 
L 57.742938 107.036334 
L 58.182308 105.689016 
L 58.621678 105.74741 
L 59.061048 106.485344 
L 59.500418 105.708903 
L 59.939788 106.671353 
L 60.379158 108.194898 
L 60.818529 108.582067 
L 61.257899 108.550392 
L 61.697269 106.866789 
L 62.136639 106.782601 
L 62.576009 107.31224 
L 63.015379 106.453568 
L 63.454749 106.862553 
L 63.894119 107.974676 
L 64.772859 108.852018 
L 65.212229 108.517626 
L 65.651599 107.726988 
L 66.090969 108.10917 
L 66.53034 107.960509 
L 66.96971 107.478035 
L 67.84845 109.786542 
L 68.28782 109.423977 
L 69.16656 107.260263 
L 69.60593 106.235472 
L 70.0453 105.806479 
L 70.48467 108.591609 
L 71.36341 116.975762 
L 72.681521 108.618647 
L 73.560261 99.691703 
L 73.999631 96.609886 
L 74.878371 105.650783 
L 75.317741 108.809812 
L 75.757111 108.958903 
L 76.196481 111.368207 
L 76.635851 108.999362 
L 77.075221 102.920694 
L 77.514592 103.697327 
L 77.953962 105.205438 
L 78.393332 107.766724 
L 78.832702 109.007964 
L 79.272072 107.884236 
L 79.711442 107.539317 
L 80.150812 105.430588 
L 80.590182 98.234961 
L 81.029552 101.058378 
L 81.468922 106.829027 
L 81.908292 109.083902 
L 82.347662 112.019028 
L 82.787032 115.896419 
L 83.226403 114.208071 
L 83.665773 111.616651 
L 84.544513 103.905533 
L 84.983883 108.786597 
L 85.862623 113.558642 
L 86.301993 117.057173 
L 86.741363 115.359686 
L 87.620103 102.699078 
L 88.059473 100.841243 
L 88.498844 106.133308 
L 88.938214 113.18704 
L 89.377584 112.246631 
L 89.816954 110.22048 
L 90.256324 115.485221 
L 90.695694 112.398102 
L 91.135064 103.499269 
L 91.574434 98.127824 
L 92.013804 98.548306 
L 92.453174 104.753605 
L 92.892544 104.01579 
L 93.331914 97.763327 
L 93.771284 96.353995 
L 94.210655 96.973274 
L 94.650025 91.908524 
L 95.089395 91.934358 
L 95.528765 100.154275 
L 95.968135 114.282563 
L 96.407505 121.191198 
L 96.846875 120.107249 
L 97.725615 109.169037 
L 98.604355 103.544226 
L 99.043725 104.729885 
L 99.922466 119.672648 
L 100.361836 121.433627 
L 100.801206 119.64596 
L 101.679946 98.388001 
L 102.119316 96.606961 
L 102.558686 105.8245 
L 103.437426 114.153896 
L 103.876796 122.190623 
L 105.194906 99.365064 
L 105.634277 101.490121 
L 106.073647 111.560817 
L 106.513017 116.438625 
L 106.952387 125.786557 
L 107.391757 131.815461 
L 107.831127 118.005043 
L 108.709867 82.18674 
L 109.149237 70.641132 
L 109.588607 69.192522 
L 110.027977 75.083699 
L 110.906718 115.601211 
L 111.346088 115.485181 
L 112.224828 109.55419 
L 112.664198 112.124141 
L 113.103568 115.580331 
L 113.542938 121.261906 
L 113.982308 131.738714 
L 114.421678 136.801385 
L 114.861048 127.723386 
L 115.739788 90.95903 
L 116.179158 85.992793 
L 116.618529 92.499662 
L 117.497269 124.074545 
L 117.936639 135.738329 
L 118.376009 135.570081 
L 118.815379 122.070376 
L 119.254749 96.430772 
L 119.694119 77.452397 
L 120.133489 75.902911 
L 120.572859 84.37881 
L 121.451599 108.51417 
L 121.890969 111.421689 
L 122.33034 110.527157 
L 122.76971 106.392136 
L 123.20908 93.985112 
L 123.64845 98.437431 
L 124.52719 128.366854 
L 124.96656 129.626167 
L 125.40593 120.342689 
L 126.28467 89.814177 
L 126.72404 72.108054 
L 127.16341 74.826358 
L 127.602781 87.036459 
L 128.481521 123.582672 
L 128.920891 129.626796 
L 129.360261 124.580955 
L 129.799631 105.753173 
L 130.239001 99.369455 
L 131.117741 110.388671 
L 131.996481 128.312739 
L 132.435851 127.817783 
L 132.875221 123.893561 
L 133.753962 94.771332 
L 134.193332 100.903484 
L 134.632702 121.943688 
L 135.072072 131.381066 
L 135.511442 132.33289 
L 135.950812 130.788248 
L 136.390182 120.467011 
L 137.268922 73.842064 
L 137.708292 67.87452 
L 138.147662 75.983103 
L 138.587032 96.327228 
L 139.026403 108.489135 
L 139.465773 114.470986 
L 139.905143 112.941939 
L 140.344513 98.897512 
L 140.783883 92.249244 
L 141.223253 80.308487 
L 141.662623 88.078759 
L 142.541363 123.472211 
L 142.980733 128.896493 
L 143.420103 125.564182 
L 143.859473 118.419598 
L 144.738214 97.310489 
L 145.177584 98.98616 
L 145.616954 108.376337 
L 146.495694 139.906889 
L 146.935064 142.150743 
L 147.374434 137.547673 
L 147.813804 123.854147 
L 148.692544 102.509754 
L 149.131914 99.109815 
L 149.571284 100.177646 
L 150.010655 97.295419 
L 150.450025 100.559211 
L 150.889395 102.345139 
L 151.328765 100.037141 
L 151.768135 101.82199 
L 152.646875 120.803093 
L 153.086245 119.958168 
L 153.525615 110.221537 
L 153.964985 106.670605 
L 154.404355 100.535162 
L 154.843725 86.154622 
L 155.283095 78.635408 
L 155.722466 74.011684 
L 156.161836 85.927871 
L 156.601206 91.614381 
L 157.040576 91.735392 
L 157.479946 91.542339 
L 157.919316 95.437892 
L 158.358686 96.616222 
L 159.237426 102.305936 
L 159.676796 108.618927 
L 160.116166 108.409144 
L 160.555536 104.958971 
L 160.994906 103.698696 
L 161.434277 103.996909 
L 161.873647 107.909523 
L 162.313017 117.950702 
L 162.752387 132.162753 
L 163.191757 141.66962 
L 163.631127 142.72103 
L 164.070497 138.321374 
L 164.509867 131.329445 
L 164.949237 115.756878 
L 165.388607 104.166033 
L 165.827977 100.624453 
L 166.706718 122.062333 
L 167.146088 118.989587 
L 167.585458 116.868695 
L 168.024828 116.834771 
L 168.464198 111.752601 
L 169.342938 92.593794 
L 169.782308 93.689515 
L 170.221678 97.250356 
L 170.661048 95.407922 
L 171.100418 96.373431 
L 171.539788 93.896922 
L 171.979158 92.459264 
L 172.418529 98.569608 
L 172.857899 108.172735 
L 173.297269 108.062843 
L 173.736639 105.473466 
L 174.176009 103.69096 
L 174.615379 99.743182 
L 175.054749 89.595686 
L 175.494119 87.3426 
L 175.933489 93.920427 
L 176.812229 121.188803 
L 177.251599 127.749172 
L 177.690969 121.958607 
L 178.13034 110.653484 
L 178.56971 103.048174 
L 179.00908 92.888675 
L 179.44845 88.463298 
L 179.88782 98.585518 
L 180.32719 116.914844 
L 180.76656 126.406899 
L 181.20593 132.694313 
L 181.6453 132.552805 
L 182.52404 107.185523 
L 182.96341 103.039921 
L 183.402781 106.939063 
L 184.281521 124.755734 
L 184.720891 131.221745 
L 185.160261 130.051364 
L 186.039001 108.28628 
L 186.478371 106.526573 
L 186.917741 107.752542 
L 187.796481 124.983601 
L 188.235851 126.573184 
L 188.675221 121.041403 
L 189.114592 110.871798 
L 189.993332 81.568551 
L 190.432702 79.5928 
L 191.311442 100.609554 
L 191.750812 107.914568 
L 192.190182 104.621841 
L 192.629552 97.038902 
L 193.508292 71.685231 
L 193.947662 65.142459 
L 194.387032 70.040213 
L 195.265773 103.445487 
L 195.705143 111.00721 
L 196.144513 112.621932 
L 196.583883 109.511582 
L 197.023253 99.412415 
L 197.462623 93.444163 
L 197.901993 93.57008 
L 198.341363 99.12361 
L 199.220103 119.691795 
L 199.659473 124.312587 
L 200.538214 116.516599 
L 200.977584 116.797996 
L 201.416954 118.499929 
L 201.856324 121.403154 
L 202.735064 140.687596 
L 203.174434 141.035137 
L 204.053174 124.743471 
L 204.931914 115.552097 
L 205.371284 114.515591 
L 205.810655 117.9783 
L 206.250025 123.142597 
L 206.689395 125.580656 
L 207.128765 121.525017 
L 207.568135 110.787268 
L 208.446875 96.333005 
L 208.886245 93.414334 
L 209.325615 93.62084 
L 209.764985 93.608268 
L 210.204355 93.871955 
L 211.083095 89.22347 
L 211.522466 84.923921 
L 211.961836 84.097469 
L 213.279946 92.257366 
L 213.719316 92.376253 
L 214.158686 93.462985 
L 214.598056 90.590186 
L 215.037426 88.595279 
L 215.476796 92.924485 
L 215.916166 101.216289 
L 216.794906 113.949564 
L 217.234277 121.330947 
L 217.673647 120.812614 
L 218.113017 114.715619 
L 218.552387 111.520952 
L 218.991757 113.261687 
L 219.431127 114.482221 
L 219.870497 112.975888 
L 220.309867 117.642847 
L 220.749237 123.793042 
L 221.188607 123.300175 
L 221.627977 118.957106 
L 222.067347 115.904454 
L 222.506718 117.576967 
L 222.946088 116.350374 
L 223.385458 116.112222 
L 223.824828 117.651061 
L 224.264198 117.446933 
L 224.703568 116.990312 
L 225.142938 117.194735 
L 225.582308 118.031398 
L 226.021678 116.378748 
L 226.461048 117.338365 
L 226.900418 119.871401 
L 227.339788 116.84973 
L 228.218529 100.469272 
L 229.097269 92.972127 
L 229.536639 89.325599 
L 229.976009 91.804098 
L 230.415379 98.90127 
L 230.854749 102.190884 
L 231.294119 102.137024 
L 232.612229 90.904874 
L 233.051599 88.551612 
L 233.490969 90.880006 
L 233.93034 95.622398 
L 234.80908 108.035706 
L 235.24845 109.716647 
L 235.68782 110.199054 
L 236.12719 108.930344 
L 236.56656 109.031279 
L 237.00593 112.628301 
L 237.4453 117.537521 
L 237.88467 120.962074 
L 238.76341 124.826247 
L 239.202781 122.77934 
L 239.642151 115.954207 
L 240.081521 111.791089 
L 240.520891 110.387079 
L 240.960261 113.175401 
L 241.399631 113.823168 
L 241.839001 114.718014 
L 242.278371 116.323702 
L 242.717741 112.85394 
L 243.157111 105.765097 
L 244.035851 88.409581 
L 244.475221 85.069986 
L 244.914592 84.367757 
L 245.353962 86.33073 
L 246.232702 89.049679 
L 246.672072 93.608021 
L 247.111442 92.419588 
L 247.550812 90.829823 
L 247.990182 93.889416 
L 249.308292 107.632071 
L 250.187032 122.46042 
L 250.626403 126.060376 
L 251.065773 127.012523 
L 251.505143 130.454751 
L 251.944513 132.131952 
L 252.383883 133.228173 
L 252.823253 137.931291 
L 253.262623 141.403477 
L 253.701993 142.326055 
L 254.141363 141.063692 
L 254.580733 138.602839 
L 255.020103 134.995373 
L 255.459473 130.1164 
L 256.338214 117.198208 
L 257.656324 103.049965 
L 258.535064 88.939136 
L 259.413804 76.305667 
L 259.853174 73.846174 
L 260.292544 73.248732 
L 260.731914 73.084124 
L 261.610655 72.416139 
L 262.050025 73.25587 
L 262.489395 74.954716 
L 263.368135 79.852697 
L 263.807505 84.298667 
L 264.686245 97.659266 
L 265.564985 107.449673 
L 267.322466 125.693816 
L 267.761836 131.145007 
L 268.201206 135.064452 
L 269.079946 137.798838 
L 269.519316 138.780373 
L 269.958686 138.952719 
L 270.398056 138.077553 
L 270.837426 137.865345 
L 271.716166 135.201649 
L 272.155536 131.879977 
L 273.034277 123.150052 
L 274.791757 98.383801 
L 275.670497 88.047861 
L 276.549237 80.045344 
L 276.988607 77.301792 
L 277.867347 73.224795 
L 278.306718 72.039431 
L 278.746088 70.388142 
L 279.185458 72.028539 
L 280.064198 83.549816 
L 280.942938 97.12501 
L 281.821678 111.944465 
L 282.700418 122.074843 
L 284.018529 139.859717 
L 284.897269 148.211817 
L 285.336639 149.126833 
L 285.776009 146.88727 
L 286.654749 139.946413 
L 287.094119 137.54558 
L 287.533489 134.382338 
L 287.972859 129.572422 
L 288.851599 112.663899 
L 290.60908 75.166943 
L 291.04845 70.241323 
L 291.48782 67.433175 
L 291.92719 65.362384 
L 292.80593 60.348364 
L 293.2453 58.735937 
L 293.68467 59.389597 
L 294.12404 63.04798 
L 294.56341 69.477162 
L 298.957111 163.748581 
L 299.396481 169.693292 
L 299.835851 171.653636 
L 300.275221 168.387425 
L 301.593332 150.792668 
L 302.472072 135.995042 
L 303.350812 117.644817 
L 305.108292 66.714153 
L 305.987032 49.682429 
L 306.426403 44.867652 
L 306.865773 41.617932 
L 307.305143 39.980947 
L 307.744513 40.014606 
L 308.183883 43.040771 
L 308.623253 49.056358 
L 309.062623 57.663661 
L 313.016954 157.704583 
L 313.895694 172.570937 
L 314.335064 175.716953 
L 314.774434 174.531102 
L 315.213804 171.560725 
L 316.092544 162.029687 
L 316.971284 144.779786 
L 317.850025 123.291206 
L 319.168135 87.526911 
L 320.046875 72.033259 
L 321.364985 56.703891 
L 321.804355 52.248894 
L 322.243725 49.825325 
L 322.683095 48.555288 
L 323.122466 48.493631 
L 323.561836 52.036827 
L 324.001206 58.639703 
L 325.319316 87.741201 
L 327.076796 126.353441 
L 328.834277 156.324806 
L 329.273647 159.761788 
L 330.152387 164.18846 
L 330.591757 163.98939 
L 331.031127 160.274414 
L 331.909867 148.224459 
L 332.788607 131.167412 
L 335.424828 73.613432 
L 336.303568 60.540395 
L 336.742938 56.642156 
L 337.182308 54.791403 
L 337.621678 54.428928 
L 338.061048 55.94469 
L 338.500418 59.19764 
L 339.379158 70.439766 
L 340.257899 87.417663 
L 342.454749 134.198012 
L 343.333489 147.790401 
L 344.212229 156.320154 
L 344.651599 157.929427 
L 345.090969 157.413445 
L 345.53034 155.177337 
L 345.96971 151.212555 
L 346.84845 139.736958 
L 348.16656 116.658462 
L 349.92404 85.381025 
L 351.242151 69.757822 
L 351.681521 66.667141 
L 352.120891 64.845094 
L 352.560261 64.256549 
L 352.999631 65.151973 
L 353.439001 67.191929 
L 354.317741 75.570911 
L 355.196481 85.973282 
L 356.075221 98.122743 
L 358.272072 131.529512 
L 359.150812 140.331136 
L 360.029552 143.692661 
L 360.468922 145.545583 
L 360.908292 146.269617 
L 361.347662 146.447394 
L 361.787032 145.545291 
L 362.226403 143.500485 
L 362.665773 139.764058 
L 363.544513 128.341339 
L 365.301993 98.68286 
L 366.620103 76.27977 
L 367.498844 65.282663 
L 367.938214 61.803025 
L 368.377584 59.937842 
L 368.816954 59.575644 
L 369.256324 60.311372 
L 369.695694 62.377463 
L 370.135064 65.88895 
L 371.013804 79.44136 
L 371.892544 97.427826 
L 373.650025 134.814748 
L 374.528765 151.050209 
L 375.407505 163.187946 
L 375.846875 166.364956 
L 376.286245 166.639689 
L 376.725615 164.63466 
L 377.164985 160.167719 
L 378.043725 147.555068 
L 378.922466 131.228399 
L 380.240576 99.187587 
L 381.558686 64.964824 
L 382.437426 48.397526 
L 382.876796 43.175636 
L 383.316166 40.849353 
L 383.755536 40.252542 
L 384.194906 41.440946 
L 384.634277 44.651629 
L 385.073647 51.39856 
L 385.952387 70.670207 
L 389.027977 150.095045 
L 389.906718 166.048552 
L 390.346088 171.494033 
L 390.785458 174.661734 
L 391.224828 174.800906 
L 391.664198 173.647435 
L 392.103568 170.293814 
L 392.542938 164.730648 
L 393.421678 149.481256 
L 394.300418 130.313317 
L 396.497269 77.102841 
L 397.376009 59.534379 
L 397.815379 52.700477 
L 398.254749 47.728024 
L 398.694119 45.083977 
L 399.133489 44.004944 
L 399.572859 44.837568 
L 400.012229 48.189699 
L 400.890969 58.763089 
L 401.76971 74.07815 
L 403.08782 104.311946 
L 404.8453 147.135704 
L 405.72404 161.692853 
L 406.16341 165.813194 
L 406.602781 167.592583 
L 407.042151 167.608391 
L 407.481521 166.2283 
L 407.920891 163.368777 
L 408.360261 159.127782 
L 409.239001 145.862698 
L 410.557111 117.753018 
L 412.753962 69.489476 
L 413.632702 54.256982 
L 414.072072 49.782004 
L 414.511442 47.980802 
L 414.950812 48.384222 
L 415.390182 50.689288 
L 415.829552 54.80091 
L 417.147662 72.625836 
L 418.026403 89.710523 
L 421.101993 156.261936 
L 421.541363 162.925415 
L 421.980733 167.706182 
L 422.420103 170.31884 
L 422.859473 170.51377 
L 423.298844 167.484553 
L 423.738214 161.772669 
L 424.616954 145.25067 
L 429.010655 56.077632 
L 429.450025 51.923148 
L 429.889395 49.938031 
L 430.328765 49.678694 
L 430.768135 51.018584 
L 431.207505 54.097115 
L 431.646875 58.989884 
L 432.525615 73.351052 
L 435.161836 126.470339 
L 436.040576 140.967566 
L 436.919316 152.283294 
L 437.358686 156.40258 
L 437.798056 158.421593 
L 438.237426 158.529048 
L 438.676796 156.711339 
L 439.116166 153.765735 
L 439.994906 143.875443 
L 440.873647 130.100193 
L 442.191757 103.564125 
L 443.070497 86.807869 
L 443.949237 75.308383 
L 444.827977 67.827292 
L 445.706718 63.783847 
L 446.146088 62.818505 
L 446.585458 63.060816 
L 447.024828 65.314298 
L 447.464198 69.521904 
L 448.342938 81.761795 
L 451.857899 140.107313 
L 452.297269 145.346842 
L 452.736639 148.605773 
L 453.176009 149.925766 
L 453.615379 150.428934 
L 454.054749 150.168348 
L 454.494119 149.35484 
L 454.933489 147.562569 
L 455.372859 144.832413 
L 455.812229 140.840224 
L 456.251599 135.270947 
L 457.56971 111.144534 
L 458.88782 88.620197 
L 460.20593 70.853241 
L 460.6453 66.771725 
L 461.08467 64.111848 
L 461.52404 63.222797 
L 461.96341 63.910168 
L 462.402781 65.72825 
L 463.281521 71.992806 
L 464.160261 79.832003 
L 465.039001 91.585517 
L 467.675221 137.393809 
L 468.553962 148.219303 
L 469.432702 154.64359 
L 469.872072 156.001602 
L 470.311442 155.640671 
L 470.750812 153.833863 
L 471.190182 150.88297 
L 471.629552 146.746033 
L 472.508292 135.290985 
L 473.387032 120.190307 
L 474.705143 92.35075 
L 475.583883 74.198232 
L 476.462623 59.647048 
L 476.901993 54.219009 
L 477.341363 51.102819 
L 477.780733 49.918045 
L 478.220103 50.21949 
L 478.659473 52.250487 
L 479.098844 56.018433 
L 479.538214 61.509112 
L 480.416954 76.539095 
L 480.856324 85.179042 
L 480.856324 85.179042 
" clip-path="url(#p1b48721294)" style="fill: none; stroke: #000000; stroke-width: 1.2; stroke-linecap: square"/>
   </g>
   <g id="line2d_26">
    <path d="M 41.046875 107.520344 
L 45.440576 107.471915 
L 46.758686 107.677997 
L 47.198056 107.419364 
L 47.637426 107.622356 
L 48.076796 107.340123 
L 48.516166 107.377467 
L 48.955536 107.236442 
L 49.394906 107.67982 
L 49.834277 107.224761 
L 50.273647 107.126491 
L 50.713017 107.857305 
L 51.152387 107.495793 
L 51.591757 108.37753 
L 52.031127 108.418528 
L 52.470497 108.759441 
L 53.349237 107.778074 
L 53.788607 108.500753 
L 54.227977 107.402367 
L 54.667347 107.8804 
L 55.106718 107.141562 
L 55.546088 108.018614 
L 56.424828 107.669254 
L 56.864198 107.98101 
L 57.303568 106.892456 
L 57.742938 107.51986 
L 58.182308 105.524571 
L 58.621678 105.669615 
L 59.061048 106.355907 
L 59.500418 106.135308 
L 59.939788 106.714461 
L 60.818529 109.649842 
L 61.257899 107.533979 
L 61.697269 106.399334 
L 62.136639 106.749578 
L 62.576009 107.779805 
L 63.015379 106.761685 
L 63.454749 106.603026 
L 63.894119 107.094791 
L 64.333489 107.265302 
L 64.772859 108.806256 
L 65.212229 108.391272 
L 65.651599 109.384693 
L 66.090969 107.728978 
L 66.53034 107.842289 
L 66.96971 108.857849 
L 67.40908 107.511059 
L 67.84845 111.137774 
L 68.28782 110.729545 
L 69.60593 104.738308 
L 70.0453 106.792307 
L 70.48467 107.793286 
L 70.92404 114.138022 
L 71.36341 115.453728 
L 71.802781 112.824137 
L 72.242151 108.891421 
L 72.681521 106.895557 
L 73.120891 107.057749 
L 73.560261 98.488345 
L 73.999631 98.458863 
L 74.439001 97.856425 
L 74.878371 106.439953 
L 75.317741 107.027368 
L 75.757111 110.81487 
L 76.196481 112.527576 
L 76.635851 106.57761 
L 77.075221 104.995785 
L 77.514592 100.989392 
L 78.393332 110.450072 
L 78.832702 109.61712 
L 79.272072 106.762821 
L 79.711442 108.410703 
L 80.150812 99.879232 
L 81.029552 98.775628 
L 81.468922 103.452787 
L 81.908292 105.561851 
L 82.347662 108.446238 
L 83.665773 112.144477 
L 84.105143 106.037609 
L 84.544513 104.817196 
L 84.983883 107.080031 
L 85.423253 113.457072 
L 85.862623 116.897054 
L 86.301993 118.749631 
L 86.741363 116.787893 
L 87.180733 110.274968 
L 87.620103 101.686614 
L 88.059473 99.378089 
L 88.938214 112.243132 
L 89.377584 107.385896 
L 89.816954 109.51957 
L 90.256324 108.757635 
L 90.695694 113.042319 
L 91.574434 92.654009 
L 92.013804 95.997381 
L 92.453174 97.73084 
L 92.892544 104.428072 
L 93.331914 96.770681 
L 93.771284 95.316691 
L 94.650025 90.489789 
L 95.089395 88.232054 
L 95.528765 98.859817 
L 95.968135 112.989457 
L 96.407505 119.549149 
L 96.846875 117.10666 
L 97.286245 110.270978 
L 97.725615 110.070817 
L 98.164985 105.051317 
L 98.604355 103.44995 
L 99.043725 105.398672 
L 99.483095 108.759006 
L 99.922466 117.039164 
L 100.361836 121.426867 
L 100.801206 117.391084 
L 101.240576 108.468259 
L 101.679946 94.665955 
L 102.119316 93.449077 
L 102.558686 103.955276 
L 102.998056 106.310765 
L 103.437426 119.849178 
L 103.876796 114.281019 
L 104.316166 117.421636 
L 104.755536 104.929995 
L 105.194906 97.936046 
L 105.634277 108.24572 
L 106.073647 108.468018 
L 106.513017 117.854657 
L 106.952387 121.808666 
L 107.391757 132.110044 
L 108.270497 99.978997 
L 109.149237 68.155853 
L 109.588607 69.571289 
L 110.027977 74.420621 
L 110.467347 96.518307 
L 110.906718 112.74325 
L 111.346088 118.748271 
L 111.785458 104.456156 
L 112.224828 105.688029 
L 112.664198 108.654252 
L 113.103568 112.98456 
L 113.982308 128.488959 
L 114.421678 133.474981 
L 114.861048 127.295727 
L 115.300418 106.849075 
L 115.739788 94.048083 
L 116.179158 88.291418 
L 116.618529 93.804563 
L 117.497269 118.900533 
L 117.936639 132.539645 
L 118.376009 132.225409 
L 118.815379 119.687069 
L 119.694119 71.536699 
L 120.133489 70.146178 
L 121.451599 111.09323 
L 121.890969 108.057372 
L 122.33034 110.54073 
L 122.76971 98.061694 
L 123.64845 88.836702 
L 124.08782 114.012411 
L 124.52719 122.551605 
L 124.96656 128.272586 
L 125.40593 119.801928 
L 125.8453 106.692455 
L 126.28467 87.312313 
L 126.72404 76.612706 
L 127.16341 75.810246 
L 127.602781 85.973205 
L 128.042151 106.881538 
L 128.481521 114.348172 
L 128.920891 136.12848 
L 129.799631 103.708433 
L 130.239001 91.482245 
L 131.117741 112.654507 
L 131.557111 118.974707 
L 131.996481 127.247873 
L 132.435851 129.685571 
L 132.875221 124.232281 
L 133.314592 110.83225 
L 133.753962 92.977796 
L 134.193332 98.711942 
L 134.632702 115.443617 
L 135.072072 124.05452 
L 135.511442 129.115996 
L 135.950812 122.365617 
L 136.390182 117.833421 
L 136.829552 91.304985 
L 137.708292 62.47545 
L 139.026403 111.668887 
L 139.465773 124.297096 
L 139.905143 106.263405 
L 140.344513 103.122458 
L 140.783883 80.968808 
L 141.223253 81.138745 
L 141.662623 83.577619 
L 142.101993 106.481343 
L 142.541363 117.12024 
L 142.980733 118.945759 
L 143.420103 125.197572 
L 143.859473 113.20183 
L 144.298844 111.65795 
L 144.738214 98.9972 
L 145.177584 102.002032 
L 145.616954 108.746801 
L 146.056324 126.895732 
L 146.495694 139.823036 
L 146.935064 147.727598 
L 147.374434 133.171657 
L 147.813804 124.337152 
L 148.253174 105.501859 
L 148.692544 96.686625 
L 149.131914 102.45815 
L 149.571284 100.251347 
L 150.010655 102.364293 
L 150.450025 100.015917 
L 150.889395 102.555994 
L 151.328765 103.013731 
L 151.768135 101.770778 
L 152.646875 121.563306 
L 153.086245 116.438577 
L 153.525615 108.249982 
L 153.964985 106.221044 
L 154.404355 98.422151 
L 154.843725 94.427708 
L 155.283095 73.024753 
L 156.161836 79.394933 
L 156.601206 95.402711 
L 157.040576 90.755406 
L 157.479946 91.210662 
L 157.919316 88.403337 
L 158.798056 93.707371 
L 159.676796 105.791849 
L 160.116166 109.087656 
L 160.555536 106.051979 
L 160.994906 106.505634 
L 161.434277 109.120594 
L 161.873647 113.581333 
L 162.313017 121.232595 
L 163.191757 144.920598 
L 163.631127 141.351505 
L 164.070497 139.691318 
L 164.509867 125.175151 
L 164.949237 114.504986 
L 165.388607 97.457499 
L 165.827977 100.722441 
L 166.706718 121.919319 
L 167.146088 123.516984 
L 167.585458 116.348006 
L 168.024828 120.492819 
L 168.464198 115.023736 
L 169.342938 93.481727 
L 170.221678 96.354108 
L 170.661048 96.671066 
L 171.100418 94.244002 
L 171.979158 85.811866 
L 172.857899 101.82363 
L 173.297269 105.714096 
L 173.736639 100.809952 
L 174.176009 102.002184 
L 175.054749 93.208127 
L 175.494119 84.687466 
L 177.251599 127.168129 
L 178.13034 111.339855 
L 178.56971 99.190344 
L 179.00908 95.50332 
L 179.44845 89.365504 
L 180.32719 114.073797 
L 180.76656 129.800737 
L 181.20593 134.287169 
L 181.6453 133.693416 
L 182.08467 121.836149 
L 182.52404 104.681068 
L 182.96341 96.908076 
L 183.842151 118.734318 
L 184.720891 130.057435 
L 185.160261 125.526493 
L 185.599631 116.513056 
L 186.039001 110.638013 
L 186.478371 106.292038 
L 186.917741 109.546057 
L 187.796481 123.296679 
L 188.235851 122.41051 
L 188.675221 120.138452 
L 189.114592 112.329223 
L 189.553962 92.547711 
L 189.993332 79.564722 
L 190.432702 75.862612 
L 190.872072 83.617287 
L 191.311442 99.929144 
L 192.190182 105.44579 
L 193.508292 69.070807 
L 193.947662 61.712043 
L 194.387032 70.577016 
L 195.265773 102.052216 
L 196.144513 109.975443 
L 197.462623 89.976587 
L 197.901993 89.931236 
L 198.780733 105.184168 
L 199.220103 117.719529 
L 199.659473 121.660705 
L 200.098844 120.753362 
L 200.538214 114.418973 
L 200.977584 112.084508 
L 201.416954 114.006922 
L 201.856324 120.663219 
L 202.735064 140.754084 
L 203.174434 138.968859 
L 203.613804 133.100104 
L 204.053174 124.226625 
L 204.931914 119.010289 
L 205.371284 116.399894 
L 206.250025 122.968162 
L 206.689395 129.363014 
L 207.128765 121.266344 
L 207.568135 109.29399 
L 208.446875 93.111034 
L 209.325615 92.558035 
L 209.764985 94.236801 
L 210.643725 90.566501 
L 211.083095 87.159233 
L 211.522466 85.029444 
L 211.961836 83.669232 
L 212.401206 84.848605 
L 212.840576 89.324826 
L 213.279946 90.04249 
L 213.719316 93.792152 
L 214.598056 91.214853 
L 215.037426 89.048398 
L 215.476796 93.222937 
L 215.916166 102.388213 
L 216.355536 107.34915 
L 216.794906 114.961498 
L 217.234277 120.109059 
L 217.673647 120.62608 
L 218.552387 108.959319 
L 218.991757 111.860772 
L 219.431127 112.605015 
L 219.870497 112.988395 
L 220.309867 116.274752 
L 220.749237 122.587228 
L 221.188607 123.751197 
L 221.627977 117.130837 
L 222.067347 116.528033 
L 222.506718 115.393275 
L 222.946088 116.5471 
L 223.385458 115.768959 
L 223.824828 116.366898 
L 224.264198 118.742443 
L 224.703568 115.53351 
L 225.142938 116.803703 
L 225.582308 116.910182 
L 226.021678 115.581492 
L 226.461048 116.369164 
L 226.900418 118.062682 
L 227.339788 116.536362 
L 228.218529 101.157604 
L 228.657899 95.794752 
L 229.097269 93.876044 
L 229.536639 89.982009 
L 229.976009 92.647678 
L 230.854749 102.193449 
L 231.294119 101.050274 
L 231.733489 95.732355 
L 232.172859 92.262397 
L 232.612229 87.763153 
L 233.051599 87.675634 
L 233.490969 89.807793 
L 233.93034 94.138635 
L 234.36971 102.932521 
L 235.24845 109.310981 
L 235.68782 108.77849 
L 236.12719 107.674913 
L 236.56656 108.155503 
L 237.00593 110.757126 
L 237.4453 115.578965 
L 237.88467 119.132247 
L 238.32404 120.979545 
L 238.76341 123.499111 
L 239.642151 117.068474 
L 240.081521 110.121168 
L 240.520891 110.356988 
L 241.399631 113.414967 
L 241.839001 115.078161 
L 242.278371 114.425431 
L 242.717741 112.481876 
L 244.035851 86.286073 
L 244.475221 84.184627 
L 244.914592 83.010091 
L 245.353962 85.224987 
L 245.793332 84.773692 
L 246.232702 87.949898 
L 246.672072 89.609911 
L 247.111442 90.072285 
L 247.550812 87.835787 
L 247.990182 90.879246 
L 248.429552 95.206181 
L 248.868922 97.008778 
L 250.187032 121.644415 
L 250.626403 123.182219 
L 251.065773 125.41544 
L 252.823253 137.260719 
L 253.262623 141.572245 
L 253.701993 139.654843 
L 254.141363 139.960027 
L 255.020103 135.572773 
L 255.459473 130.363795 
L 256.777584 110.560222 
L 257.216954 109.347514 
L 258.095694 96.12858 
L 258.974434 80.282941 
L 259.413804 74.447142 
L 259.853174 73.068537 
L 260.292544 73.707675 
L 260.731914 71.130005 
L 261.171284 70.458605 
L 261.610655 69.02061 
L 262.050025 69.627479 
L 262.489395 73.330976 
L 263.368135 75.890844 
L 263.807505 80.325212 
L 265.125615 101.033985 
L 265.564985 104.634199 
L 266.883095 119.478628 
L 267.761836 131.309181 
L 268.201206 134.157648 
L 268.640576 136.160062 
L 269.079946 136.248208 
L 269.519316 138.301683 
L 269.958686 137.886488 
L 270.398056 137.89794 
L 270.837426 136.085661 
L 271.276796 135.576758 
L 271.716166 133.586543 
L 272.155536 130.904508 
L 272.594906 127.343027 
L 273.473647 116.011769 
L 274.352387 102.374269 
L 275.231127 92.782433 
L 276.109867 82.051988 
L 276.549237 78.147107 
L 276.988607 75.297848 
L 277.427977 73.656635 
L 277.867347 72.874359 
L 278.306718 69.524378 
L 278.746088 69.474055 
L 279.185458 70.858232 
L 279.624828 76.40343 
L 280.064198 84.470469 
L 280.503568 89.080579 
L 281.821678 111.287687 
L 282.261048 117.605123 
L 282.700418 121.792423 
L 284.457899 144.107727 
L 284.897269 147.896406 
L 285.336639 148.908628 
L 285.776009 146.38612 
L 286.654749 139.073517 
L 287.533489 134.595682 
L 287.972859 128.991372 
L 288.851599 110.960294 
L 290.60908 73.119417 
L 291.04845 67.271472 
L 293.2453 56.248557 
L 293.68467 56.498307 
L 294.12404 60.795419 
L 294.56341 67.862025 
L 296.760261 117.361559 
L 297.199631 125.243103 
L 298.078371 145.454844 
L 298.957111 162.536885 
L 299.396481 167.878595 
L 299.835851 170.187144 
L 300.275221 167.146002 
L 300.714592 162.21738 
L 302.472072 135.682333 
L 302.911442 127.998528 
L 303.790182 103.672397 
L 305.108292 64.497537 
L 305.987032 47.957185 
L 306.426403 42.397975 
L 306.865773 40.496852 
L 307.305143 38.036892 
L 307.744513 37.784871 
L 308.183883 40.898396 
L 308.623253 45.546378 
L 309.062623 54.102653 
L 309.941363 78.662678 
L 310.820103 102.146977 
L 311.698844 122.900598 
L 312.577584 148.618603 
L 313.456324 165.732067 
L 313.895694 172.20389 
L 314.335064 175.697366 
L 314.774434 176.428815 
L 316.092544 161.510163 
L 316.971284 145.712182 
L 317.850025 124.882825 
L 319.168135 86.505444 
L 319.607505 77.544179 
L 320.486245 65.619411 
L 321.804355 49.553926 
L 322.243725 47.634061 
L 322.683095 46.618138 
L 323.122466 47.659511 
L 323.561836 50.408032 
L 324.001206 56.373712 
L 325.758686 95.758607 
L 327.076796 125.31349 
L 328.834277 156.06358 
L 329.713017 162.17513 
L 330.152387 164.305173 
L 330.591757 163.966641 
L 331.031127 161.32367 
L 332.349237 140.327936 
L 332.788607 132.02592 
L 334.985458 80.952947 
L 336.303568 58.882334 
L 336.742938 54.637954 
L 337.182308 52.780454 
L 337.621678 52.993394 
L 338.061048 54.00768 
L 338.500418 57.220799 
L 338.939788 61.948665 
L 339.379158 68.317848 
L 340.257899 85.175847 
L 342.015379 124.761574 
L 342.894119 141.138057 
L 343.772859 152.362876 
L 344.212229 155.486339 
L 344.651599 157.382428 
L 345.090969 156.954388 
L 345.96971 150.948701 
L 346.84845 139.894822 
L 349.0453 100.779738 
L 349.92404 85.355535 
L 350.36341 78.41869 
L 351.681521 65.601267 
L 352.120891 63.617384 
L 352.560261 63.144783 
L 352.999631 63.904255 
L 353.439001 65.705273 
L 353.878371 69.246236 
L 354.757111 79.285807 
L 355.635851 90.138706 
L 356.953962 110.490916 
L 357.832702 125.374337 
L 358.711442 136.138596 
L 359.150812 139.489955 
L 360.029552 143.678126 
L 360.908292 146.562079 
L 361.347662 146.290179 
L 361.787032 145.638033 
L 362.226403 143.141068 
L 362.665773 139.821048 
L 363.544513 128.731119 
L 365.741363 90.926348 
L 367.059473 69.541678 
L 367.938214 60.616928 
L 368.377584 58.949034 
L 368.816954 57.766783 
L 369.256324 58.849262 
L 369.695694 60.456542 
L 370.135064 64.161196 
L 371.013804 77.548954 
L 372.331914 105.711538 
L 374.089395 142.935733 
L 374.968135 157.40035 
L 375.407505 163.167707 
L 375.846875 166.695169 
L 376.286245 167.572836 
L 376.725615 165.127909 
L 377.164985 160.760586 
L 378.043725 148.507112 
L 378.483095 141.597723 
L 379.361836 122.381762 
L 381.998056 54.763774 
L 382.437426 47.146406 
L 382.876796 42.130939 
L 383.316166 39.530963 
L 383.755536 39.460949 
L 384.194906 39.926803 
L 384.634277 43.495388 
L 385.073647 49.663883 
L 385.952387 69.333473 
L 387.270497 104.947436 
L 388.588607 140.624933 
L 389.467347 159.515188 
L 390.346088 172.821112 
L 390.785458 175.299459 
L 391.224828 176.246618 
L 391.664198 174.531102 
L 392.103568 171.588089 
L 392.542938 166.103957 
L 393.861048 142.13176 
L 395.179158 108.613951 
L 396.936639 66.510739 
L 397.376009 57.812676 
L 397.815379 51.320867 
L 398.254749 46.481802 
L 398.694119 43.794126 
L 399.133489 42.723991 
L 399.572859 43.630955 
L 400.012229 46.69185 
L 400.451599 51.313562 
L 401.33034 64.094089 
L 402.20908 82.418102 
L 403.96656 126.622494 
L 404.8453 148.082176 
L 405.72404 162.15475 
L 406.16341 166.107083 
L 406.602781 168.114833 
L 407.042151 168.667524 
L 407.481521 167.161004 
L 407.920891 164.684595 
L 408.799631 154.295354 
L 409.678371 138.151791 
L 413.193332 60.330491 
L 413.632702 53.46633 
L 414.072072 48.704928 
L 414.511442 47.065032 
L 414.950812 47.457247 
L 415.390182 49.767851 
L 415.829552 53.885017 
L 416.708292 64.922612 
L 417.147662 71.118471 
L 418.026403 88.591058 
L 420.662623 148.985688 
L 421.541363 163.115199 
L 421.980733 167.714624 
L 422.420103 170.611585 
L 422.859473 170.690078 
L 423.298844 168.199572 
L 423.738214 162.696838 
L 424.616954 146.754109 
L 426.374434 110.650885 
L 428.571284 61.893632 
L 429.010655 55.259841 
L 429.450025 51.08346 
L 429.889395 49.442481 
L 430.328765 49.190116 
L 430.768135 50.877873 
L 431.207505 53.717533 
L 431.646875 58.470622 
L 432.525615 72.262441 
L 434.722466 118.218262 
L 436.040576 142.121798 
L 436.919316 153.624651 
L 437.358686 157.564727 
L 437.798056 159.898868 
L 438.237426 159.357727 
L 438.676796 158.101635 
L 439.555536 150.264182 
L 440.434277 137.990823 
L 441.313017 122.629193 
L 443.070497 87.252206 
L 443.949237 75.238489 
L 444.827977 67.575046 
L 445.267347 65.210809 
L 445.706718 63.634924 
L 446.146088 62.717189 
L 446.585458 62.893959 
L 447.024828 64.706336 
L 447.464198 68.744683 
L 448.342938 81.450977 
L 452.297269 145.425332 
L 452.736639 148.830873 
L 453.176009 150.894286 
L 453.615379 151.42696 
L 454.054749 151.700451 
L 454.494119 150.656695 
L 454.933489 149.152772 
L 455.372859 146.30135 
L 455.812229 142.370502 
L 456.251599 136.657701 
L 457.56971 111.669516 
L 458.44845 95.938563 
L 460.20593 70.656931 
L 460.6453 66.652219 
L 461.08467 64.15694 
L 461.52404 63.070299 
L 461.96341 63.559661 
L 462.402781 65.189986 
L 463.281521 71.163283 
L 464.160261 79.301557 
L 464.599631 84.254939 
L 465.478371 98.657714 
L 467.235851 130.904625 
L 468.114592 143.611408 
L 468.993332 152.175974 
L 469.432702 155.141263 
L 469.872072 156.867532 
L 470.311442 157.055757 
L 470.750812 155.338832 
L 471.629552 148.151433 
L 472.508292 137.063174 
L 473.387032 121.504226 
L 474.705143 92.763206 
L 475.583883 74.447062 
L 476.462623 59.802011 
L 476.901993 54.044226 
L 477.341363 50.901884 
L 477.780733 49.562431 
L 478.220103 49.790379 
L 478.659473 51.603599 
L 479.098844 54.895901 
L 479.538214 59.878495 
L 480.416954 75.145489 
L 480.856324 84.108909 
L 480.856324 84.108909 
" clip-path="url(#p1b48721294)" style="fill: none; stroke-dasharray: 4.44,1.92; stroke-dashoffset: 0; stroke: #ff0000; stroke-width: 1.2"/>
   </g>
   <g id="line2d_27">
    <path d="M 41.046875 107.564724 
L 42.804355 107.409771 
L 44.122466 107.365144 
L 45.440576 107.461016 
L 45.879946 107.492856 
L 46.319316 107.375601 
L 46.758686 107.510765 
L 47.198056 107.420692 
L 47.637426 107.605371 
L 48.076796 107.34239 
L 48.516166 107.354475 
L 48.955536 107.164259 
L 49.394906 107.449741 
L 49.834277 107.181897 
L 50.273647 107.786312 
L 50.713017 106.991348 
L 51.152387 108.441099 
L 51.591757 108.342146 
L 52.031127 108.989355 
L 52.470497 109.40327 
L 53.349237 108.796472 
L 53.788607 107.531985 
L 54.227977 107.829049 
L 54.667347 106.736116 
L 55.106718 106.680626 
L 55.546088 106.995923 
L 55.985458 106.991787 
L 56.424828 107.852831 
L 56.864198 106.265967 
L 57.303568 107.959181 
L 58.182308 105.832552 
L 58.621678 105.441046 
L 59.061048 105.933727 
L 59.500418 105.51202 
L 59.939788 105.99404 
L 60.379158 108.22875 
L 60.818529 108.340417 
L 61.257899 109.48051 
L 61.697269 106.84182 
L 62.136639 106.71569 
L 62.576009 107.990332 
L 63.015379 106.75467 
L 63.454749 107.620734 
L 63.894119 107.439965 
L 64.333489 109.298359 
L 65.212229 108.208154 
L 65.651599 107.218538 
L 66.090969 108.089038 
L 66.53034 108.234604 
L 66.96971 107.219039 
L 67.40908 109.231811 
L 67.84845 108.56561 
L 68.72719 109.661167 
L 69.16656 108.302647 
L 69.60593 107.346511 
L 70.0453 104.909313 
L 70.92404 113.362034 
L 71.36341 117.904927 
L 71.802781 116.77499 
L 72.242151 110.163082 
L 72.681521 108.72106 
L 73.120891 100.631912 
L 73.560261 100.513844 
L 73.999631 95.716319 
L 74.878371 108.455127 
L 75.317741 107.676189 
L 75.757111 110.61878 
L 76.196481 107.122337 
L 76.635851 112.769981 
L 77.075221 99.028244 
L 77.514592 106.40805 
L 77.953962 102.326238 
L 78.393332 107.111809 
L 78.832702 108.849227 
L 79.272072 107.160995 
L 79.711442 108.343429 
L 80.150812 106.158634 
L 80.590182 99.791305 
L 81.029552 100.656288 
L 81.468922 111.117274 
L 81.908292 107.716427 
L 82.347662 115.650368 
L 82.787032 113.318074 
L 83.226403 115.833202 
L 83.665773 105.858484 
L 84.105143 107.91799 
L 84.544513 100.567332 
L 84.983883 108.017687 
L 85.423253 107.510086 
L 86.301993 114.192056 
L 86.741363 112.692022 
L 87.180733 110.473424 
L 87.620103 104.558624 
L 88.059473 102.900148 
L 88.498844 103.037589 
L 88.938214 109.701807 
L 89.377584 108.758633 
L 89.816954 106.988503 
L 90.256324 112.127743 
L 90.695694 113.011215 
L 91.135064 102.017543 
L 91.574434 101.181932 
L 92.013804 92.479181 
L 92.453174 105.947083 
L 92.892544 98.734737 
L 93.771284 92.843466 
L 94.210655 93.992115 
L 94.650025 93.103305 
L 95.089395 89.47276 
L 95.968135 107.452155 
L 96.407505 118.687655 
L 96.846875 112.823875 
L 97.286245 112.106005 
L 97.725615 100.308929 
L 98.164985 104.212973 
L 98.604355 99.530852 
L 99.043725 101.836622 
L 99.483095 109.93722 
L 99.922466 115.669417 
L 100.361836 117.704244 
L 100.801206 117.156716 
L 101.240576 108.26753 
L 101.679946 95.951875 
L 102.119316 93.614786 
L 102.558686 99.997171 
L 102.998056 102.183793 
L 103.437426 101.293038 
L 103.876796 114.628947 
L 104.316166 109.037451 
L 104.755536 99.427651 
L 105.194906 100.554531 
L 105.634277 91.378487 
L 106.073647 115.847794 
L 106.513017 108.164961 
L 106.952387 124.261487 
L 107.391757 122.998094 
L 107.831127 111.263319 
L 108.709867 74.607495 
L 109.149237 70.746251 
L 109.588607 63.486998 
L 110.027977 67.748448 
L 110.467347 83.27967 
L 110.906718 108.981634 
L 111.346088 110.566819 
L 111.785458 113.098058 
L 112.224828 110.91797 
L 112.664198 109.866015 
L 113.103568 115.61602 
L 113.542938 109.989057 
L 113.982308 129.301841 
L 114.421678 124.807523 
L 114.861048 122.973694 
L 115.300418 101.463477 
L 115.739788 88.525617 
L 116.179158 81.807047 
L 117.497269 121.674144 
L 118.376009 130.227667 
L 118.815379 115.852444 
L 119.694119 72.283483 
L 120.133489 68.891797 
L 120.572859 72.049248 
L 121.012229 88.176778 
L 121.451599 94.834619 
L 122.33034 113.102468 
L 122.76971 110.878789 
L 123.20908 99.589202 
L 123.64845 91.803984 
L 124.08782 107.289654 
L 124.52719 110.921942 
L 124.96656 125.798853 
L 125.40593 101.365814 
L 125.8453 106.335144 
L 126.28467 76.29116 
L 126.72404 74.140949 
L 127.16341 62.814226 
L 127.602781 83.951531 
L 128.042151 85.105198 
L 128.481521 121.305327 
L 128.920891 120.224158 
L 129.360261 129.039379 
L 129.799631 105.965231 
L 130.239001 90.038961 
L 130.678371 102.589007 
L 131.117741 94.959584 
L 131.557111 116.305916 
L 131.996481 104.182017 
L 132.435851 117.714056 
L 132.875221 113.711646 
L 133.314592 112.175798 
L 133.753962 91.14698 
L 135.072072 129.467512 
L 135.511442 120.474449 
L 135.950812 128.11317 
L 136.829552 95.92343 
L 137.268922 67.534609 
L 137.708292 55.496934 
L 138.147662 61.898041 
L 138.587032 75.701146 
L 139.026403 102.454788 
L 139.465773 96.167716 
L 139.905143 116.662372 
L 140.344513 91.410999 
L 140.783883 94.280987 
L 141.223253 78.274358 
L 141.662623 80.981413 
L 142.101993 105.660793 
L 142.541363 107.598411 
L 142.980733 130.928987 
L 143.420103 105.661745 
L 143.859473 113.319598 
L 144.298844 90.400097 
L 144.738214 91.064294 
L 145.177584 91.415366 
L 145.616954 102.505895 
L 146.056324 118.908431 
L 146.495694 131.079617 
L 146.935064 137.705364 
L 147.374434 134.657401 
L 147.813804 128.179037 
L 148.253174 107.884943 
L 148.692544 100.131572 
L 149.131914 76.043988 
L 149.571284 90.834284 
L 150.010655 77.23602 
L 150.450025 96.132439 
L 150.889395 96.261587 
L 151.328765 98.678942 
L 151.768135 99.875772 
L 152.207505 106.726702 
L 152.646875 117.822676 
L 153.086245 117.957349 
L 153.525615 104.749167 
L 154.404355 93.145033 
L 154.843725 80.023576 
L 155.283095 73.586058 
L 155.722466 65.428543 
L 156.161836 74.579814 
L 156.601206 90.584582 
L 157.040576 82.139577 
L 157.479946 98.402449 
L 157.919316 87.163267 
L 158.358686 105.798378 
L 158.798056 90.475906 
L 159.237426 106.131144 
L 159.676796 94.147234 
L 160.116166 103.223727 
L 160.555536 90.601384 
L 160.994906 103.437943 
L 161.434277 92.35104 
L 161.873647 107.713451 
L 162.313017 110.095207 
L 162.752387 130.55434 
L 163.191757 133.769786 
L 163.631127 142.141722 
L 164.070497 135.704181 
L 164.509867 133.561754 
L 165.388607 101.825 
L 165.827977 95.694883 
L 166.267347 99.787853 
L 166.706718 118.05011 
L 167.146088 106.148687 
L 167.585458 116.817223 
L 168.024828 110.288312 
L 168.464198 111.520376 
L 168.903568 97.342821 
L 169.342938 89.358933 
L 169.782308 89.216233 
L 170.221678 92.052773 
L 171.100418 94.062924 
L 171.539788 94.087539 
L 171.979158 91.961854 
L 172.418529 101.579151 
L 172.857899 105.187092 
L 173.297269 105.019571 
L 173.736639 92.638396 
L 174.176009 94.30929 
L 174.615379 91.183507 
L 175.054749 91.851384 
L 175.494119 85.939425 
L 175.933489 98.046049 
L 176.372859 104.100407 
L 176.812229 123.786248 
L 177.251599 115.552097 
L 177.690969 117.519054 
L 178.13034 99.72622 
L 178.56971 100.453616 
L 179.00908 86.770475 
L 179.44845 86.239258 
L 179.88782 93.984552 
L 180.76656 117.974228 
L 181.20593 123.921146 
L 181.6453 132.614964 
L 182.08467 115.208096 
L 182.52404 112.097067 
L 182.96341 99.624659 
L 183.842151 108.719769 
L 184.281521 122.537165 
L 184.720891 121.640998 
L 185.160261 126.70889 
L 185.599631 114.139189 
L 186.039001 105.733342 
L 186.478371 100.058085 
L 186.917741 104.510919 
L 187.357111 111.802408 
L 187.796481 121.268116 
L 188.235851 120.077626 
L 188.675221 117.318088 
L 189.114592 103.518661 
L 189.553962 98.567389 
L 189.993332 80.679654 
L 190.432702 77.536189 
L 191.750812 99.473646 
L 192.190182 96.278474 
L 192.629552 91.914959 
L 193.068922 85.428722 
L 193.508292 63.253026 
L 193.947662 60.671829 
L 194.387032 56.303015 
L 194.826403 80.654268 
L 195.705143 108.586003 
L 196.144513 107.679815 
L 196.583883 107.296936 
L 197.023253 93.857574 
L 197.462623 86.789829 
L 197.901993 86.422502 
L 198.341363 88.584667 
L 198.780733 101.844974 
L 199.659473 116.822394 
L 200.098844 114.518472 
L 200.538214 113.332502 
L 200.977584 115.71364 
L 201.416954 112.678135 
L 201.856324 114.232467 
L 202.295694 120.969989 
L 202.735064 129.829814 
L 203.174434 129.867117 
L 203.613804 125.227204 
L 204.053174 113.945333 
L 204.492544 114.182628 
L 204.931914 104.914283 
L 205.371284 108.002504 
L 205.810655 105.668176 
L 206.250025 115.086558 
L 206.689395 116.449505 
L 207.128765 116.085281 
L 208.446875 89.706484 
L 208.886245 83.116061 
L 209.325615 83.67975 
L 209.764985 81.916891 
L 210.204355 83.660088 
L 210.643725 84.355339 
L 211.083095 83.355381 
L 211.961836 77.777666 
L 212.401206 83.522395 
L 212.840576 82.582561 
L 213.279946 86.30542 
L 213.719316 83.815643 
L 214.158686 86.594824 
L 215.037426 82.327868 
L 215.476796 89.147008 
L 215.916166 94.097369 
L 216.355536 101.890582 
L 216.794906 105.228823 
L 217.234277 115.088088 
L 217.673647 116.332286 
L 218.552387 109.171427 
L 218.991757 110.080307 
L 219.431127 111.789215 
L 219.870497 109.047579 
L 220.309867 111.355294 
L 220.749237 118.907979 
L 221.188607 118.516112 
L 221.627977 117.193528 
L 222.067347 111.629667 
L 222.506718 114.622873 
L 223.385458 108.668647 
L 223.824828 112.640601 
L 224.264198 110.790579 
L 224.703568 114.338773 
L 225.142938 113.064207 
L 225.582308 116.465305 
L 226.461048 112.170217 
L 226.900418 114.847577 
L 227.339788 111.32174 
L 227.779158 104.648489 
L 228.218529 95.335745 
L 229.097269 88.459255 
L 229.536639 83.50611 
L 229.976009 85.870217 
L 230.854749 99.294491 
L 231.294119 98.536481 
L 231.733489 96.29794 
L 232.172859 90.713652 
L 232.612229 88.814077 
L 233.051599 83.102715 
L 233.490969 86.109158 
L 233.93034 90.301094 
L 234.36971 96.130637 
L 234.80908 104.328985 
L 235.24845 106.81965 
L 235.68782 107.702444 
L 236.12719 106.796722 
L 236.56656 105.609816 
L 237.00593 112.322678 
L 237.4453 114.378241 
L 237.88467 118.220291 
L 238.32404 118.117762 
L 238.76341 121.12195 
L 239.202781 118.743852 
L 239.642151 112.640145 
L 240.081521 108.088791 
L 240.960261 107.225286 
L 241.399631 111.469681 
L 241.839001 108.789944 
L 242.278371 114.94124 
L 242.717741 107.272117 
L 243.157111 104.006696 
L 243.596481 91.392749 
L 244.035851 84.463554 
L 244.475221 80.286427 
L 244.914592 78.446482 
L 245.353962 80.721442 
L 245.793332 81.950136 
L 246.232702 84.4577 
L 246.672072 89.523254 
L 247.111442 90.009381 
L 247.550812 86.312698 
L 247.990182 91.385102 
L 248.429552 92.917387 
L 248.868922 99.207364 
L 249.308292 100.153422 
L 249.747662 110.694858 
L 250.626403 122.57761 
L 251.065773 123.893789 
L 251.944513 129.114393 
L 252.383883 128.021025 
L 252.823253 133.479457 
L 253.262623 135.716657 
L 253.701993 139.123133 
L 254.141363 136.108721 
L 254.580733 132.198496 
L 255.020103 130.113911 
L 255.459473 123.183588 
L 255.898844 118.251066 
L 256.338214 111.366964 
L 256.777584 108.025294 
L 257.216954 100.773923 
L 257.656324 97.126535 
L 258.095694 88.221341 
L 258.535064 83.434191 
L 259.413804 70.426881 
L 260.292544 66.009875 
L 260.731914 67.498433 
L 261.171284 67.075527 
L 261.610655 67.399294 
L 262.489395 69.535217 
L 262.928765 73.065008 
L 263.368135 75.243033 
L 263.807505 79.957921 
L 264.686245 94.159402 
L 265.564985 103.010876 
L 266.004355 106.45057 
L 267.761836 126.624511 
L 268.640576 132.891762 
L 269.079946 132.704168 
L 269.519316 135.158344 
L 269.958686 133.549831 
L 270.398056 134.257589 
L 270.837426 132.098685 
L 271.276796 132.870282 
L 271.716166 129.070476 
L 272.155536 128.082718 
L 272.594906 121.394569 
L 273.034277 119.483549 
L 273.473647 110.207843 
L 273.913017 104.862933 
L 274.352387 97.012539 
L 276.549237 74.01141 
L 276.988607 70.923744 
L 277.867347 66.94672 
L 278.306718 66.387466 
L 278.746088 64.807604 
L 279.185458 66.22424 
L 279.624828 73.032106 
L 280.064198 77.671205 
L 280.503568 86.117982 
L 280.942938 91.566546 
L 281.821678 108.058346 
L 282.261048 112.583359 
L 283.579158 132.443258 
L 284.018529 137.629507 
L 284.897269 145.52292 
L 285.336639 147.379808 
L 286.215379 142.061783 
L 286.654749 137.11247 
L 287.094119 134.872944 
L 287.533489 129.910775 
L 287.972859 126.321973 
L 289.290969 99.864279 
L 290.60908 70.841611 
L 291.04845 64.550205 
L 291.92719 60.055672 
L 292.36656 58.3296 
L 292.80593 55.608342 
L 293.2453 55.671729 
L 293.68467 56.014196 
L 294.12404 60.073215 
L 294.56341 65.280614 
L 295.881521 96.745468 
L 298.517741 155.419042 
L 298.957111 161.143386 
L 299.396481 170.319788 
L 300.275221 167.801413 
L 300.714592 159.581282 
L 301.153962 154.536849 
L 302.032702 138.941723 
L 303.350812 114.985163 
L 304.229552 87.612943 
L 305.108292 59.794876 
L 305.987032 40.376337 
L 306.865773 33.958782 
L 307.305143 34.818536 
L 307.744513 36.677144 
L 308.183883 40.793621 
L 309.062623 55.465828 
L 309.941363 77.199623 
L 310.820103 101.140099 
L 311.698844 122.117724 
L 313.016954 155.654556 
L 313.895694 171.048566 
L 314.335064 174.470743 
L 314.774434 173.956769 
L 315.213804 170.059841 
L 316.092544 157.37374 
L 316.531914 150.061324 
L 316.971284 138.317442 
L 317.410655 130.81117 
L 319.607505 73.161808 
L 320.046875 65.283906 
L 320.486245 60.2883 
L 320.925615 57.259382 
L 321.804355 48.800805 
L 322.243725 46.276492 
L 322.683095 44.79205 
L 323.122466 45.119027 
L 323.561836 48.884615 
L 324.440576 65.945667 
L 325.319316 86.093246 
L 327.516166 133.113356 
L 328.394906 149.876486 
L 328.834277 157.101326 
L 329.713017 161.822451 
L 330.591757 163.599003 
L 331.470497 153.42791 
L 332.349237 138.212633 
L 333.667347 109.39857 
L 334.985458 77.871122 
L 336.303568 56.978969 
L 336.742938 52.570313 
L 337.182308 52.752043 
L 337.621678 51.877096 
L 338.500418 57.48194 
L 339.379158 69.823479 
L 340.257899 86.53628 
L 342.015379 124.822407 
L 342.894119 142.119681 
L 343.333489 148.82559 
L 343.772859 153.666289 
L 344.212229 157.194049 
L 344.651599 158.836465 
L 345.090969 157.790205 
L 345.53034 156.075044 
L 346.40908 145.16789 
L 348.60593 107.089655 
L 349.48467 90.869941 
L 349.92404 82.699558 
L 351.242151 66.477442 
L 352.120891 61.492642 
L 352.560261 62.538166 
L 352.999631 63.113945 
L 353.878371 69.738383 
L 355.635851 91.356244 
L 358.711442 137.364192 
L 359.150812 141.066421 
L 359.590182 142.97254 
L 360.029552 143.693584 
L 360.468922 146.271491 
L 360.908292 146.233466 
L 361.347662 146.891495 
L 361.787032 145.692583 
L 362.226403 143.26303 
L 362.665773 139.502933 
L 363.544513 127.460284 
L 366.620103 73.367722 
L 367.498844 63.30973 
L 367.938214 60.350151 
L 368.377584 58.482969 
L 368.816954 58.483796 
L 369.256324 59.646732 
L 369.695694 61.440141 
L 370.574434 71.536222 
L 372.331914 106.47471 
L 374.089395 145.735257 
L 374.968135 160.284622 
L 375.407505 165.199861 
L 375.846875 167.838567 
L 376.286245 167.491254 
L 376.725615 165.070829 
L 377.164985 160.293969 
L 378.043725 147.021317 
L 379.361836 121.490889 
L 380.240576 99.867287 
L 381.558686 61.478738 
L 382.437426 44.898302 
L 382.876796 40.703646 
L 383.316166 38.485036 
L 383.755536 39.35183 
L 384.194906 41.194033 
L 384.634277 45.943171 
L 385.073647 52.727393 
L 386.831127 93.378618 
L 388.588607 142.102749 
L 389.467347 161.90815 
L 390.346088 174.976372 
L 390.785458 177.316193 
L 391.224828 178.181922 
L 392.103568 172.456575 
L 394.739788 121.96975 
L 396.936639 64.946515 
L 397.815379 51.135943 
L 398.254749 47.103307 
L 399.133489 44.411336 
L 399.572859 45.67453 
L 400.012229 49.066579 
L 400.890969 60.717833 
L 401.76971 75.48979 
L 403.08782 104.237439 
L 405.28467 160.183995 
L 405.72404 166.055271 
L 406.16341 169.406031 
L 406.602781 170.217579 
L 407.042151 169.608276 
L 407.481521 168.009418 
L 407.920891 164.828432 
L 408.360261 160.533388 
L 408.799631 154.501811 
L 409.678371 138.404809 
L 413.193332 59.62141 
L 413.632702 52.685728 
L 414.072072 48.307267 
L 414.511442 47.681332 
L 414.950812 48.59056 
L 415.829552 56.336099 
L 418.026403 90.629497 
L 418.905143 110.055 
L 420.662623 152.752741 
L 421.101993 161.18774 
L 421.980733 172.545554 
L 422.420103 174.048043 
L 422.859473 173.823436 
L 423.298844 169.676967 
L 423.738214 163.447025 
L 426.374434 111.401701 
L 427.253174 91.104696 
L 428.571284 61.836199 
L 429.010655 54.653246 
L 429.450025 50.879928 
L 429.889395 49.069883 
L 430.328765 49.508594 
L 430.768135 51.533745 
L 431.207505 55.827848 
L 432.086245 68.764845 
L 433.404355 94.064764 
L 435.601206 137.956117 
L 436.479946 151.305525 
L 436.919316 156.308183 
L 437.358686 160.036466 
L 437.798056 162.341969 
L 438.237426 162.210832 
L 438.676796 160.847405 
L 439.555536 153.163102 
L 441.313017 124.127227 
L 443.070497 88.437041 
L 443.509867 80.850874 
L 444.388607 71.505609 
L 445.267347 66.881401 
L 445.706718 65.304468 
L 446.146088 64.185505 
L 446.585458 64.690377 
L 447.024828 67.124721 
L 447.903568 77.385903 
L 450.539788 122.176277 
L 451.857899 144.644139 
L 452.297269 150.114354 
L 452.736639 153.272708 
L 453.615379 153.866885 
L 454.494119 152.446732 
L 454.933489 150.580728 
L 455.812229 143.652017 
L 456.690969 130.743251 
L 458.44845 97.48503 
L 459.32719 83.296395 
L 460.20593 71.122707 
L 460.6453 67.613333 
L 461.08467 65.186613 
L 461.52404 65.145398 
L 461.96341 65.849937 
L 462.402781 68.061145 
L 462.842151 70.903678 
L 464.160261 83.000733 
L 465.039001 94.35047 
L 466.357111 118.229806 
L 467.235851 134.879187 
L 468.114592 148.591802 
L 468.553962 153.480208 
L 469.432702 158.476722 
L 469.872072 159.537802 
L 470.311442 158.939031 
L 470.750812 157.10696 
L 471.190182 153.736167 
L 472.068922 143.664287 
L 472.947662 130.859402 
L 473.826403 114.584194 
L 474.705143 94.575942 
L 475.583883 74.773392 
L 476.462623 59.927434 
L 476.901993 54.570174 
L 477.341363 51.979348 
L 477.780733 50.990401 
L 478.220103 52.456277 
L 478.659473 54.897359 
L 479.538214 65.540449 
L 480.416954 79.711943 
L 480.856324 88.036868 
L 480.856324 88.036868 
" clip-path="url(#p1b48721294)" style="fill: none; stroke-dasharray: 7.68,1.92,1.2,1.92; stroke-dashoffset: 0; stroke: #0000ff; stroke-width: 1.2"/>
   </g>
   <g id="line2d_28">
    <path d="M 41.046875 107.564389 
L 48.076796 107.61572 
L 48.516166 107.311692 
L 48.955536 107.333934 
L 49.394906 107.4865 
L 49.834277 107.447481 
L 50.273647 107.550742 
L 50.713017 107.774316 
L 51.152387 107.679791 
L 51.591757 108.280554 
L 52.031127 108.551795 
L 52.909867 108.532189 
L 53.349237 107.969907 
L 54.667347 107.100406 
L 55.106718 107.105556 
L 55.546088 107.243994 
L 55.985458 107.786388 
L 56.424828 107.517931 
L 56.864198 107.633852 
L 57.303568 106.967448 
L 57.742938 107.83375 
L 58.182308 106.929108 
L 58.621678 105.672753 
L 59.061048 107.204782 
L 59.500418 106.253927 
L 59.939788 106.023557 
L 60.379158 107.885964 
L 60.818529 108.588557 
L 61.257899 108.284325 
L 61.697269 107.603267 
L 62.136639 106.502893 
L 62.576009 107.701882 
L 63.454749 106.925345 
L 63.894119 107.676566 
L 64.772859 108.585221 
L 65.212229 108.566899 
L 65.651599 108.035232 
L 66.090969 108.474466 
L 66.53034 108.65934 
L 66.96971 109.18758 
L 67.40908 107.975135 
L 67.84845 109.457865 
L 68.28782 109.478443 
L 68.72719 108.077013 
L 69.16656 107.936496 
L 69.60593 106.939051 
L 70.0453 107.007433 
L 70.48467 108.024858 
L 71.36341 114.700877 
L 71.802781 114.769978 
L 72.242151 109.127615 
L 72.681521 107.993638 
L 73.560261 102.865534 
L 73.999631 98.857346 
L 74.439001 99.962793 
L 74.878371 104.480798 
L 75.317741 106.226612 
L 75.757111 107.270344 
L 76.196481 107.864225 
L 76.635851 110.854227 
L 77.075221 105.621814 
L 77.514592 105.213494 
L 77.953962 106.361457 
L 78.393332 106.726816 
L 78.832702 106.847828 
L 79.272072 104.575751 
L 79.711442 104.000083 
L 80.150812 104.613185 
L 80.590182 101.993736 
L 81.029552 101.221286 
L 81.468922 107.767739 
L 81.908292 111.523873 
L 82.347662 110.400911 
L 82.787032 111.550779 
L 83.226403 109.798508 
L 83.665773 105.91226 
L 84.105143 104.871687 
L 84.544513 100.860833 
L 84.983883 102.329522 
L 85.423253 108.593441 
L 85.862623 108.722715 
L 86.301993 111.238919 
L 86.741363 111.10741 
L 87.180733 110.113826 
L 87.620103 103.371792 
L 88.059473 104.209348 
L 88.498844 106.205045 
L 88.938214 114.813517 
L 89.377584 114.020506 
L 89.816954 108.770342 
L 90.256324 107.206675 
L 90.695694 111.37037 
L 91.574434 95.581692 
L 92.013804 94.157617 
L 92.453174 96.764202 
L 92.892544 100.940363 
L 93.771284 89.604311 
L 94.210655 93.188532 
L 94.650025 94.321171 
L 95.089395 92.35672 
L 95.528765 96.606017 
L 96.407505 114.79339 
L 96.846875 112.787824 
L 97.286245 109.854213 
L 97.725615 103.013175 
L 98.164985 102.948905 
L 98.604355 101.5529 
L 99.043725 102.87808 
L 99.483095 105.488097 
L 99.922466 113.799907 
L 100.361836 115.712616 
L 100.801206 115.244142 
L 101.240576 113.556077 
L 101.679946 105.160213 
L 102.119316 98.945298 
L 102.558686 105.661303 
L 102.998056 110.063001 
L 103.437426 105.036442 
L 103.876796 111.949101 
L 104.316166 106.34041 
L 104.755536 99.308345 
L 105.194906 96.010596 
L 105.634277 100.250874 
L 106.513017 113.979762 
L 107.391757 123.401008 
L 107.831127 119.598758 
L 108.270497 100.363963 
L 108.709867 91.939572 
L 109.149237 79.410409 
L 109.588607 83.172169 
L 110.027977 80.632288 
L 110.467347 89.207072 
L 110.906718 107.214627 
L 111.346088 112.540631 
L 111.785458 106.565844 
L 112.224828 107.693616 
L 113.103568 115.446851 
L 113.542938 117.24935 
L 113.982308 120.969007 
L 114.421678 121.080281 
L 114.861048 115.678936 
L 115.739788 89.933557 
L 116.179158 92.427992 
L 116.618529 100.050635 
L 117.057899 117.647553 
L 117.936639 136.550148 
L 118.376009 134.785628 
L 118.815379 123.692499 
L 119.254749 106.915542 
L 119.694119 83.487545 
L 120.133489 77.66132 
L 121.890969 94.032769 
L 122.33034 93.983384 
L 122.76971 101.584663 
L 123.20908 98.885381 
L 123.64845 101.387494 
L 124.52719 128.274562 
L 124.96656 125.646343 
L 125.40593 118.274696 
L 125.8453 100.083409 
L 126.28467 92.013698 
L 126.72404 77.691254 
L 127.16341 80.707867 
L 127.602781 89.468678 
L 128.920891 128.324292 
L 129.360261 124.036415 
L 130.239001 99.923029 
L 130.678371 106.918639 
L 131.117741 109.789319 
L 131.557111 111.281975 
L 131.996481 114.448071 
L 132.435851 112.132034 
L 132.875221 112.127842 
L 133.314592 110.086437 
L 133.753962 101.01193 
L 134.193332 103.115198 
L 134.632702 125.388256 
L 135.072072 137.063147 
L 135.950812 129.895239 
L 136.390182 118.523362 
L 136.829552 103.494838 
L 137.268922 84.252481 
L 137.708292 71.411077 
L 138.147662 69.389211 
L 139.026403 97.368313 
L 139.465773 97.932893 
L 139.905143 104.797581 
L 140.344513 98.870951 
L 140.783883 98.097403 
L 141.223253 94.698479 
L 141.662623 95.364176 
L 142.101993 108.337631 
L 142.541363 116.181765 
L 142.980733 117.960859 
L 143.420103 115.537643 
L 143.859473 107.69772 
L 144.298844 106.930228 
L 144.738214 101.39069 
L 145.177584 104.457027 
L 146.495694 132.360347 
L 146.935064 134.519638 
L 147.374434 132.679514 
L 149.131914 107.623144 
L 149.571284 108.794982 
L 150.010655 98.798262 
L 150.450025 94.7373 
L 150.889395 95.753851 
L 151.328765 95.363637 
L 151.768135 97.409196 
L 152.207505 108.006256 
L 152.646875 123.301748 
L 153.086245 127.107876 
L 153.525615 119.187509 
L 153.964985 109.082699 
L 154.404355 103.306424 
L 154.843725 90.35855 
L 155.722466 73.426905 
L 156.161836 79.626683 
L 156.601206 95.780781 
L 157.479946 99.844924 
L 158.358686 107.588925 
L 158.798056 106.20864 
L 159.237426 106.792988 
L 159.676796 105.980443 
L 160.116166 105.419199 
L 160.555536 100.186968 
L 160.994906 100.395622 
L 161.434277 101.61738 
L 161.873647 106.376117 
L 162.752387 126.69358 
L 163.191757 140.121568 
L 163.631127 143.880792 
L 164.070497 143.75096 
L 164.949237 133.127005 
L 165.388607 120.530969 
L 165.827977 113.413373 
L 166.267347 112.539897 
L 166.706718 121.4768 
L 167.146088 117.069797 
L 167.585458 110.125167 
L 168.464198 111.870138 
L 169.782308 95.567431 
L 170.221678 98.607885 
L 170.661048 94.724106 
L 171.100418 94.236033 
L 171.539788 91.663415 
L 171.979158 90.707886 
L 172.418529 96.348976 
L 172.857899 107.133801 
L 173.297269 112.072459 
L 173.736639 106.2447 
L 174.176009 103.315956 
L 174.615379 98.301223 
L 175.494119 83.92946 
L 175.933489 88.45915 
L 176.372859 98.07266 
L 177.251599 123.367529 
L 177.690969 122.843173 
L 178.56971 108.132835 
L 179.00908 104.443163 
L 179.44845 95.333031 
L 179.88782 97.631309 
L 181.20593 120.872015 
L 181.6453 129.042583 
L 182.08467 125.686028 
L 182.52404 116.42564 
L 182.96341 113.524672 
L 183.402781 112.08863 
L 183.842151 115.557511 
L 184.281521 116.325012 
L 184.720891 116.813028 
L 185.160261 115.248184 
L 185.599631 114.470804 
L 186.039001 109.520658 
L 186.478371 107.92096 
L 187.796481 121.454291 
L 188.675221 112.458861 
L 189.114592 102.008309 
L 190.432702 84.746937 
L 190.872072 90.350486 
L 191.311442 98.434276 
L 191.750812 99.434824 
L 192.190182 96.611712 
L 192.629552 87.13167 
L 193.508292 72.690552 
L 193.947662 69.640152 
L 194.387032 72.133426 
L 195.265773 96.067751 
L 195.705143 101.404219 
L 196.144513 103.435561 
L 196.583883 103.260114 
L 197.023253 98.729073 
L 197.462623 95.374741 
L 197.901993 98.083083 
L 199.659473 115.934343 
L 200.538214 112.292989 
L 200.977584 114.92136 
L 202.735064 134.864369 
L 203.174434 131.547559 
L 203.613804 125.318642 
L 204.053174 114.420131 
L 204.492544 112.99858 
L 204.931914 112.623819 
L 205.371284 113.274741 
L 205.810655 115.365353 
L 206.250025 119.8399 
L 206.689395 122.936677 
L 207.128765 120.978156 
L 207.568135 111.274601 
L 208.007505 104.198645 
L 208.886245 94.587193 
L 209.325615 95.129704 
L 209.764985 91.633017 
L 210.204355 90.250851 
L 210.643725 86.657465 
L 211.083095 85.081328 
L 211.522466 82.481414 
L 211.961836 81.092024 
L 212.840576 89.388453 
L 213.279946 93.573289 
L 213.719316 94.268148 
L 214.158686 95.787186 
L 214.598056 94.684234 
L 215.037426 92.931352 
L 215.476796 95.563441 
L 216.355536 109.576371 
L 216.794906 113.407579 
L 217.234277 121.272811 
L 217.673647 124.637479 
L 218.113017 121.614468 
L 218.552387 116.834456 
L 218.991757 118.010081 
L 219.431127 120.683841 
L 220.309867 117.755889 
L 220.749237 123.353607 
L 221.188607 124.913 
L 221.627977 123.04585 
L 222.067347 119.392537 
L 222.506718 119.972359 
L 222.946088 120.143497 
L 223.385458 116.778639 
L 223.824828 116.542583 
L 224.703568 112.952674 
L 225.142938 112.136429 
L 225.582308 115.436573 
L 226.021678 115.477742 
L 226.461048 114.619523 
L 226.900418 117.621528 
L 227.339788 116.642792 
L 227.779158 110.056072 
L 228.218529 101.6627 
L 228.657899 95.786137 
L 229.097269 94.378144 
L 229.536639 91.353199 
L 229.976009 91.000226 
L 230.415379 97.356194 
L 230.854749 101.808126 
L 231.294119 102.930358 
L 231.733489 100.964498 
L 232.172859 96.811129 
L 232.612229 94.23908 
L 233.051599 90.125978 
L 233.490969 90.237382 
L 233.93034 92.070898 
L 234.36971 96.166139 
L 234.80908 101.835459 
L 235.68782 108.679618 
L 236.56656 111.65816 
L 237.88467 121.339843 
L 238.32404 120.953048 
L 238.76341 121.524974 
L 239.202781 121.141964 
L 240.081521 114.358254 
L 240.520891 112.76414 
L 240.960261 113.187436 
L 241.399631 114.74578 
L 241.839001 112.126214 
L 242.278371 112.426364 
L 242.717741 109.654569 
L 243.157111 105.789207 
L 244.035851 92.395618 
L 244.914592 87.430193 
L 245.353962 86.838332 
L 245.793332 87.312189 
L 246.232702 85.204033 
L 246.672072 88.891676 
L 247.111442 90.98831 
L 247.550812 89.926774 
L 247.990182 92.288782 
L 248.429552 97.846933 
L 248.868922 99.191543 
L 249.308292 101.597799 
L 249.747662 107.997984 
L 250.626403 117.15861 
L 251.065773 119.630315 
L 252.383883 131.216372 
L 253.262623 137.723886 
L 253.701993 137.878809 
L 254.141363 136.294919 
L 255.020103 130.396874 
L 255.459473 127.875069 
L 256.338214 116.975415 
L 257.656324 99.917401 
L 258.535064 85.635585 
L 259.413804 75.487858 
L 259.853174 74.058549 
L 260.731914 72.99073 
L 261.171284 71.678796 
L 261.610655 71.006017 
L 262.050025 69.615134 
L 262.489395 72.7141 
L 262.928765 74.818818 
L 263.807505 81.716376 
L 264.686245 95.834669 
L 267.761836 130.710075 
L 268.201206 135.222 
L 268.640576 137.225251 
L 269.079946 137.334725 
L 269.519316 138.07446 
L 269.958686 138.550688 
L 270.398056 137.27339 
L 270.837426 136.532972 
L 271.276796 135.032288 
L 271.716166 132.83538 
L 272.155536 129.926492 
L 273.473647 115.089305 
L 274.352387 101.21798 
L 276.109867 82.239105 
L 276.988607 75.946131 
L 277.427977 75.181868 
L 277.867347 73.43053 
L 278.746088 71.401311 
L 279.185458 71.615624 
L 279.624828 75.359386 
L 284.018529 139.324629 
L 285.336639 149.093548 
L 285.776009 148.754936 
L 286.215379 146.474282 
L 286.654749 142.72934 
L 287.094119 140.298988 
L 287.533489 136.275359 
L 287.972859 131.180393 
L 288.412229 123.307047 
L 290.16971 86.006591 
L 290.60908 77.993944 
L 291.04845 72.031507 
L 291.92719 64.985583 
L 292.80593 59.842829 
L 293.2453 58.711539 
L 293.68467 58.93999 
L 294.12404 62.365037 
L 294.56341 67.623135 
L 295.002781 74.930854 
L 297.639001 132.700598 
L 298.078371 143.801604 
L 299.396481 164.134654 
L 299.835851 166.864009 
L 300.275221 165.651035 
L 301.593332 151.645803 
L 302.032702 145.811738 
L 302.911442 129.117542 
L 303.790182 106.335301 
L 305.108292 68.450235 
L 305.987032 50.361021 
L 306.426403 44.078619 
L 306.865773 39.767759 
L 307.305143 37.22842 
L 307.744513 36.719457 
L 308.183883 39.453704 
L 308.623253 45.224937 
L 309.062623 53.06312 
L 309.941363 75.278372 
L 310.820103 99.813005 
L 312.138214 131.804891 
L 313.016954 154.446402 
L 313.895694 169.933491 
L 314.335064 175.360172 
L 314.774434 176.511714 
L 315.213804 174.712051 
L 316.092544 166.033661 
L 316.531914 159.173743 
L 317.410655 138.568708 
L 319.607505 79.474118 
L 320.486245 64.871513 
L 321.804355 49.735872 
L 322.243725 46.990112 
L 322.683095 46.519838 
L 323.122466 46.902671 
L 323.561836 49.87624 
L 324.001206 55.849457 
L 324.440576 64.183144 
L 327.516166 135.654185 
L 328.834277 154.782442 
L 329.273647 158.489453 
L 330.152387 163.084138 
L 330.591757 164.598983 
L 331.031127 163.036376 
L 331.470497 158.393618 
L 332.349237 144.413652 
L 333.667347 113.931998 
L 334.985458 84.073393 
L 335.864198 68.502274 
L 336.742938 56.285254 
L 337.182308 53.81727 
L 337.621678 52.298065 
L 338.061048 53.058561 
L 338.500418 55.469582 
L 338.939788 60.335507 
L 339.818529 74.26052 
L 341.136639 102.844592 
L 342.894119 139.774624 
L 343.333489 147.088018 
L 344.212229 156.514636 
L 344.651599 158.899786 
L 345.090969 158.740289 
L 345.53034 156.6419 
L 345.96971 153.032378 
L 346.84845 141.646504 
L 347.72719 126.442913 
L 349.92404 84.865773 
L 350.802781 73.236173 
L 351.242151 68.18545 
L 351.681521 64.614035 
L 352.120891 62.681742 
L 352.560261 61.730664 
L 352.999631 62.979574 
L 353.439001 64.596464 
L 353.878371 68.196406 
L 355.196481 84.345033 
L 356.953962 111.724334 
L 357.832702 125.790981 
L 358.711442 136.329807 
L 359.150812 140.288025 
L 359.590182 143.163973 
L 360.029552 144.232302 
L 360.468922 145.748922 
L 360.908292 146.239433 
L 361.347662 145.744683 
L 361.787032 144.687755 
L 362.226403 142.010998 
L 362.665773 138.578079 
L 363.544513 127.985676 
L 364.862623 106.238977 
L 366.620103 77.019286 
L 367.059473 71.561486 
L 367.938214 64.135187 
L 368.377584 62.17227 
L 368.816954 61.391556 
L 369.256324 61.432774 
L 369.695694 62.66925 
L 370.135064 65.117215 
L 370.574434 69.897151 
L 371.453174 84.405478 
L 374.968135 154.626045 
L 375.407505 160.035598 
L 375.846875 164.055963 
L 376.286245 165.355414 
L 376.725615 164.374449 
L 377.164985 160.980569 
L 378.043725 149.38524 
L 378.922466 133.494367 
L 380.679946 89.857052 
L 381.558686 67.874829 
L 382.437426 50.496156 
L 382.876796 44.302476 
L 383.316166 40.535666 
L 383.755536 39.652962 
L 384.194906 40.441096 
L 384.634277 43.439713 
L 385.073647 49.034733 
L 385.952387 67.481089 
L 387.709867 114.028796 
L 389.027977 147.948302 
L 389.906718 165.171239 
L 390.346088 171.468855 
L 390.785458 175.790577 
L 391.224828 177.078378 
L 391.664198 176.222045 
L 392.103568 173.724471 
L 392.542938 168.755673 
L 393.421678 152.708341 
L 394.300418 132.531354 
L 396.497269 75.96524 
L 397.376009 58.089479 
L 398.254749 46.41091 
L 398.694119 43.301024 
L 399.133489 42.240589 
L 399.572859 42.488356 
L 400.012229 45.560161 
L 400.890969 56.714358 
L 401.76971 72.229788 
L 403.08782 102.518943 
L 405.28467 154.679882 
L 405.72404 161.403489 
L 406.16341 166.28397 
L 406.602781 168.605267 
L 407.042151 169.2199 
L 407.481521 167.929434 
L 407.920891 165.116369 
L 408.360261 160.912469 
L 409.239001 148.008176 
L 410.117741 129.904698 
L 413.193332 59.888929 
L 414.072072 47.940966 
L 414.511442 46.14939 
L 414.950812 46.280995 
L 415.390182 48.591586 
L 415.829552 52.25779 
L 416.708292 64.052894 
L 417.587032 78.778654 
L 418.905143 107.831843 
L 420.662623 146.969472 
L 421.541363 161.881959 
L 421.980733 167.240155 
L 422.420103 169.93675 
L 422.859473 170.485338 
L 423.298844 168.087535 
L 423.738214 163.012116 
L 424.616954 147.404534 
L 427.253174 91.684539 
L 428.571284 63.984356 
L 429.010655 56.438945 
L 429.450025 50.833041 
L 429.889395 47.713027 
L 430.328765 46.275147 
L 430.768135 47.231832 
L 431.207505 50.246818 
L 431.646875 55.31563 
L 432.525615 70.910639 
L 435.161836 126.943587 
L 436.040576 142.128946 
L 436.919316 153.60556 
L 437.358686 157.986235 
L 437.798056 160.676211 
L 438.237426 161.118485 
L 438.676796 159.666931 
L 439.116166 156.645312 
L 439.555536 152.212069 
L 440.434277 139.44453 
L 441.313017 123.20836 
L 443.070497 87.276459 
L 443.949237 74.97784 
L 444.827977 66.857406 
L 445.267347 64.235234 
L 445.706718 62.504328 
L 446.146088 61.757416 
L 446.585458 62.103237 
L 447.024828 63.881552 
L 447.464198 67.755442 
L 448.342938 79.41627 
L 449.661048 102.326196 
L 451.418529 133.703077 
L 452.297269 144.39894 
L 452.736639 147.856658 
L 453.176009 149.278772 
L 453.615379 149.937985 
L 454.054749 149.993497 
L 454.494119 149.413251 
L 454.933489 147.831808 
L 455.372859 145.005345 
L 455.812229 140.90835 
L 456.251599 135.603414 
L 457.13034 120.927056 
L 458.88782 89.008579 
L 459.76656 75.407115 
L 460.20593 69.855254 
L 460.6453 65.834043 
L 461.08467 63.353859 
L 461.52404 62.284578 
L 461.96341 62.93479 
L 462.402781 64.58105 
L 462.842151 67.224934 
L 463.720891 74.655257 
L 464.599631 84.543024 
L 465.478371 98.799791 
L 467.235851 130.640925 
L 468.114592 143.26685 
L 468.553962 148.131034 
L 468.993332 151.378621 
L 469.432702 153.559003 
L 469.872072 154.74279 
L 470.311442 154.168262 
L 470.750812 152.202875 
L 471.629552 145.381574 
L 472.508292 134.821563 
L 473.387032 120.626794 
L 474.265773 103.798398 
L 475.583883 75.95055 
L 476.462623 61.606831 
L 476.901993 55.780417 
L 477.341363 52.163786 
L 477.780733 50.568464 
L 478.220103 50.815035 
L 478.659473 52.463037 
L 479.098844 55.766099 
L 479.538214 60.622782 
L 480.416954 75.015174 
L 480.856324 83.47718 
L 480.856324 83.47718 
" clip-path="url(#p1b48721294)" style="fill: none; stroke-dasharray: 1.2,1.98; stroke-dashoffset: 0; stroke: #008000; stroke-width: 1.2"/>
   </g>
   <g id="patch_3">
    <path d="M 41.046875 185.393079 
L 41.046875 10.778906 
" style="fill: none; stroke: #000000; stroke-width: 0.8; stroke-linejoin: miter; stroke-linecap: square"/>
   </g>
   <g id="patch_4">
    <path d="M 480.416954 185.393079 
L 480.416954 10.778906 
" style="fill: none; stroke: #000000; stroke-width: 0.8; stroke-linejoin: miter; stroke-linecap: square"/>
   </g>
   <g id="patch_5">
    <path d="M 41.046875 185.393079 
L 480.416954 185.393079 
" style="fill: none; stroke: #000000; stroke-width: 0.8; stroke-linejoin: miter; stroke-linecap: square"/>
   </g>
   <g id="patch_6">
    <path d="M 41.046875 10.778906 
L 480.416954 10.778906 
" style="fill: none; stroke: #000000; stroke-width: 0.8; stroke-linejoin: miter; stroke-linecap: square"/>
   </g>
   <g id="text_15">
    <!-- 11th floor -->
    <g transform="translate(64.50732 35.190834) scale(0.1 -0.1)">
     <defs>
      <path id="ArialMT-68" d="M 422 0 
L 422 4581 
L 984 4581 
L 984 2938 
Q 1378 3394 1978 3394 
Q 2347 3394 2619 3248 
Q 2891 3103 3008 2847 
Q 3125 2591 3125 2103 
L 3125 0 
L 2563 0 
L 2563 2103 
Q 2563 2525 2380 2717 
Q 2197 2909 1863 2909 
Q 1613 2909 1392 2779 
Q 1172 2650 1078 2428 
Q 984 2206 984 1816 
L 984 0 
L 422 0 
z
" transform="scale(0.015625)"/>
      <path id="ArialMT-66" d="M 556 0 
L 556 2881 
L 59 2881 
L 59 3319 
L 556 3319 
L 556 3672 
Q 556 4006 616 4169 
Q 697 4388 901 4523 
Q 1106 4659 1475 4659 
Q 1713 4659 2000 4603 
L 1916 4113 
Q 1741 4144 1584 4144 
Q 1328 4144 1222 4034 
Q 1116 3925 1116 3625 
L 1116 3319 
L 1763 3319 
L 1763 2881 
L 1116 2881 
L 1116 0 
L 556 0 
z
" transform="scale(0.015625)"/>
      <path id="ArialMT-72" d="M 416 0 
L 416 3319 
L 922 3319 
L 922 2816 
Q 1116 3169 1280 3281 
Q 1444 3394 1641 3394 
Q 1925 3394 2219 3213 
L 2025 2691 
Q 1819 2813 1613 2813 
Q 1428 2813 1281 2702 
Q 1134 2591 1072 2394 
Q 978 2094 978 1738 
L 978 0 
L 416 0 
z
" transform="scale(0.015625)"/>
     </defs>
     <use xlink:href="#ArialMT-31"/>
     <use xlink:href="#ArialMT-31" x="48.240234"/>
     <use xlink:href="#ArialMT-74" x="103.855469"/>
     <use xlink:href="#ArialMT-68" x="131.638672"/>
     <use xlink:href="#ArialMT-20" x="187.253906"/>
     <use xlink:href="#ArialMT-66" x="215.037109"/>
     <use xlink:href="#ArialMT-6c" x="242.820312"/>
     <use xlink:href="#ArialMT-6f" x="265.037109"/>
     <use xlink:href="#ArialMT-6f" x="320.652344"/>
     <use xlink:href="#ArialMT-72" x="376.267578"/>
    </g>
   </g>
   <g id="legend_1">
    <g id="patch_7">
     <path d="M 130.148204 32.924219 
L 473.416954 32.924219 
Q 475.416954 32.924219 475.416954 30.924219 
L 475.416954 17.778906 
Q 475.416954 15.778906 473.416954 15.778906 
L 130.148204 15.778906 
Q 128.148204 15.778906 128.148204 17.778906 
L 128.148204 30.924219 
Q 128.148204 32.924219 130.148204 32.924219 
z
" style="fill: #ffffff; opacity: 0.8; stroke: #000000; stroke-linejoin: miter"/>
    </g>
    <g id="line2d_29">
     <path d="M 132.148204 23.436719 
L 142.148204 23.436719 
L 152.148204 23.436719 
" style="fill: none; stroke: #000000; stroke-width: 1.2; stroke-linecap: square"/>
    </g>
    <g id="text_16">
     <!-- Ref. -->
     <g transform="translate(160.148204 26.936719) scale(0.1 -0.1)">
      <defs>
       <path id="ArialMT-52" d="M 503 0 
L 503 4581 
L 2534 4581 
Q 3147 4581 3465 4457 
Q 3784 4334 3975 4021 
Q 4166 3709 4166 3331 
Q 4166 2844 3850 2509 
Q 3534 2175 2875 2084 
Q 3116 1969 3241 1856 
Q 3506 1613 3744 1247 
L 4541 0 
L 3778 0 
L 3172 953 
Q 2906 1366 2734 1584 
Q 2563 1803 2427 1890 
Q 2291 1978 2150 2013 
Q 2047 2034 1813 2034 
L 1109 2034 
L 1109 0 
L 503 0 
z
M 1109 2559 
L 2413 2559 
Q 2828 2559 3062 2645 
Q 3297 2731 3419 2920 
Q 3541 3109 3541 3331 
Q 3541 3656 3305 3865 
Q 3069 4075 2559 4075 
L 1109 4075 
L 1109 2559 
z
" transform="scale(0.015625)"/>
       <path id="ArialMT-2e" d="M 581 0 
L 581 641 
L 1222 641 
L 1222 0 
L 581 0 
z
" transform="scale(0.015625)"/>
      </defs>
      <use xlink:href="#ArialMT-52"/>
      <use xlink:href="#ArialMT-65" x="72.216797"/>
      <use xlink:href="#ArialMT-66" x="127.832031"/>
      <use xlink:href="#ArialMT-2e" x="155.615234"/>
     </g>
    </g>
    <g id="line2d_30">
     <path d="M 198.487266 23.436719 
L 208.487266 23.436719 
L 218.487266 23.436719 
" style="fill: none; stroke-dasharray: 4.44,1.92; stroke-dashoffset: 0; stroke: #ff0000; stroke-width: 1.2"/>
    </g>
    <g id="text_17">
     <!-- BiRNN pred. -->
     <g transform="translate(226.487266 26.936719) scale(0.1 -0.1)">
      <defs>
       <path id="ArialMT-42" d="M 469 0 
L 469 4581 
L 2188 4581 
Q 2713 4581 3030 4442 
Q 3347 4303 3526 4014 
Q 3706 3725 3706 3409 
Q 3706 3116 3547 2856 
Q 3388 2597 3066 2438 
Q 3481 2316 3704 2022 
Q 3928 1728 3928 1328 
Q 3928 1006 3792 729 
Q 3656 453 3456 303 
Q 3256 153 2954 76 
Q 2653 0 2216 0 
L 469 0 
z
M 1075 2656 
L 2066 2656 
Q 2469 2656 2644 2709 
Q 2875 2778 2992 2937 
Q 3109 3097 3109 3338 
Q 3109 3566 3000 3739 
Q 2891 3913 2687 3977 
Q 2484 4041 1991 4041 
L 1075 4041 
L 1075 2656 
z
M 1075 541 
L 2216 541 
Q 2509 541 2628 563 
Q 2838 600 2978 687 
Q 3119 775 3209 942 
Q 3300 1109 3300 1328 
Q 3300 1584 3169 1773 
Q 3038 1963 2805 2039 
Q 2572 2116 2134 2116 
L 1075 2116 
L 1075 541 
z
" transform="scale(0.015625)"/>
       <path id="ArialMT-4e" d="M 488 0 
L 488 4581 
L 1109 4581 
L 3516 984 
L 3516 4581 
L 4097 4581 
L 4097 0 
L 3475 0 
L 1069 3600 
L 1069 0 
L 488 0 
z
" transform="scale(0.015625)"/>
       <path id="ArialMT-70" d="M 422 -1272 
L 422 3319 
L 934 3319 
L 934 2888 
Q 1116 3141 1344 3267 
Q 1572 3394 1897 3394 
Q 2322 3394 2647 3175 
Q 2972 2956 3137 2557 
Q 3303 2159 3303 1684 
Q 3303 1175 3120 767 
Q 2938 359 2589 142 
Q 2241 -75 1856 -75 
Q 1575 -75 1351 44 
Q 1128 163 984 344 
L 984 -1272 
L 422 -1272 
z
M 931 1641 
Q 931 1000 1190 694 
Q 1450 388 1819 388 
Q 2194 388 2461 705 
Q 2728 1022 2728 1688 
Q 2728 2322 2467 2637 
Q 2206 2953 1844 2953 
Q 1484 2953 1207 2617 
Q 931 2281 931 1641 
z
" transform="scale(0.015625)"/>
       <path id="ArialMT-64" d="M 2575 0 
L 2575 419 
Q 2259 -75 1647 -75 
Q 1250 -75 917 144 
Q 584 363 401 755 
Q 219 1147 219 1656 
Q 219 2153 384 2558 
Q 550 2963 881 3178 
Q 1213 3394 1622 3394 
Q 1922 3394 2156 3267 
Q 2391 3141 2538 2938 
L 2538 4581 
L 3097 4581 
L 3097 0 
L 2575 0 
z
M 797 1656 
Q 797 1019 1065 703 
Q 1334 388 1700 388 
Q 2069 388 2326 689 
Q 2584 991 2584 1609 
Q 2584 2291 2321 2609 
Q 2059 2928 1675 2928 
Q 1300 2928 1048 2622 
Q 797 2316 797 1656 
z
" transform="scale(0.015625)"/>
      </defs>
      <use xlink:href="#ArialMT-42"/>
      <use xlink:href="#ArialMT-69" x="66.699219"/>
      <use xlink:href="#ArialMT-52" x="88.916016"/>
      <use xlink:href="#ArialMT-4e" x="161.132812"/>
      <use xlink:href="#ArialMT-4e" x="233.349609"/>
      <use xlink:href="#ArialMT-20" x="305.566406"/>
      <use xlink:href="#ArialMT-70" x="333.349609"/>
      <use xlink:href="#ArialMT-72" x="388.964844"/>
      <use xlink:href="#ArialMT-65" x="422.265625"/>
      <use xlink:href="#ArialMT-64" x="477.880859"/>
      <use xlink:href="#ArialMT-2e" x="533.496094"/>
     </g>
    </g>
    <g id="line2d_31">
     <path d="M 302.613829 23.436719 
L 312.613829 23.436719 
L 322.613829 23.436719 
" style="fill: none; stroke-dasharray: 7.68,1.92,1.2,1.92; stroke-dashoffset: 0; stroke: #0000ff; stroke-width: 1.2"/>
    </g>
    <g id="text_18">
     <!-- RNN pred. -->
     <g transform="translate(330.613829 26.936719) scale(0.1 -0.1)">
      <use xlink:href="#ArialMT-52"/>
      <use xlink:href="#ArialMT-4e" x="72.216797"/>
      <use xlink:href="#ArialMT-4e" x="144.433594"/>
      <use xlink:href="#ArialMT-20" x="216.650391"/>
      <use xlink:href="#ArialMT-70" x="244.433594"/>
      <use xlink:href="#ArialMT-72" x="300.048828"/>
      <use xlink:href="#ArialMT-65" x="333.349609"/>
      <use xlink:href="#ArialMT-64" x="388.964844"/>
      <use xlink:href="#ArialMT-2e" x="444.580078"/>
     </g>
    </g>
    <g id="line2d_32">
     <path d="M 397.848204 23.436719 
L 407.848204 23.436719 
L 417.848204 23.436719 
" style="fill: none; stroke-dasharray: 1.2,1.98; stroke-dashoffset: 0; stroke: #008000; stroke-width: 1.2"/>
    </g>
    <g id="text_19">
     <!-- DKF pred. -->
     <g transform="translate(425.848204 26.936719) scale(0.1 -0.1)">
      <defs>
       <path id="ArialMT-44" d="M 494 0 
L 494 4581 
L 2072 4581 
Q 2606 4581 2888 4516 
Q 3281 4425 3559 4188 
Q 3922 3881 4101 3404 
Q 4281 2928 4281 2316 
Q 4281 1794 4159 1391 
Q 4038 988 3847 723 
Q 3656 459 3429 307 
Q 3203 156 2883 78 
Q 2563 0 2147 0 
L 494 0 
z
M 1100 541 
L 2078 541 
Q 2531 541 2789 625 
Q 3047 709 3200 863 
Q 3416 1078 3536 1442 
Q 3656 1806 3656 2325 
Q 3656 3044 3420 3430 
Q 3184 3816 2847 3947 
Q 2603 4041 2063 4041 
L 1100 4041 
L 1100 541 
z
" transform="scale(0.015625)"/>
       <path id="ArialMT-4b" d="M 469 0 
L 469 4581 
L 1075 4581 
L 1075 2309 
L 3350 4581 
L 4172 4581 
L 2250 2725 
L 4256 0 
L 3456 0 
L 1825 2319 
L 1075 1588 
L 1075 0 
L 469 0 
z
" transform="scale(0.015625)"/>
       <path id="ArialMT-46" d="M 525 0 
L 525 4581 
L 3616 4581 
L 3616 4041 
L 1131 4041 
L 1131 2622 
L 3281 2622 
L 3281 2081 
L 1131 2081 
L 1131 0 
L 525 0 
z
" transform="scale(0.015625)"/>
      </defs>
      <use xlink:href="#ArialMT-44"/>
      <use xlink:href="#ArialMT-4b" x="72.216797"/>
      <use xlink:href="#ArialMT-46" x="138.916016"/>
      <use xlink:href="#ArialMT-20" x="200"/>
      <use xlink:href="#ArialMT-70" x="227.783203"/>
      <use xlink:href="#ArialMT-72" x="283.398438"/>
      <use xlink:href="#ArialMT-65" x="316.699219"/>
      <use xlink:href="#ArialMT-64" x="372.314453"/>
      <use xlink:href="#ArialMT-2e" x="427.929688"/>
     </g>
    </g>
   </g>
  </g>
 </g>
 <defs>
  <clipPath id="p1b48721294">
   <rect x="41.046875" y="10.778906" width="439.370079" height="174.614173"/>
  </clipPath>
 </defs>
</svg>
