<?xml version="1.0" encoding="utf-8" standalone="no"?>
<!DOCTYPE svg PUBLIC "-//W3C//DTD SVG 1.1//EN"
  "http://www.w3.org/Graphics/SVG/1.1/DTD/svg11.dtd">
<svg xmlns:xlink="http://www.w3.org/1999/xlink" width="487.616954pt" height="218.622767pt" viewBox="0 0 487.616954 218.622767" xmlns="http://www.w3.org/2000/svg" version="1.1">
 <metadata>
  <rdf:RDF xmlns:dc="http://purl.org/dc/elements/1.1/" xmlns:cc="http://creativecommons.org/ns#" xmlns:rdf="http://www.w3.org/1999/02/22-rdf-syntax-ns#">
   <cc:Work>
    <dc:type rdf:resource="http://purl.org/dc/dcmitype/StillImage"/>
    <dc:date>2024-03-14T12:01:11.394122</dc:date>
    <dc:format>image/svg+xml</dc:format>
    <dc:creator>
     <cc:Agent>
      <dc:title>Matplotlib v3.8.2, https://matplotlib.org/</dc:title>
     </cc:Agent>
    </dc:creator>
   </cc:Work>
  </rdf:RDF>
 </metadata>
 <defs>
  <style type="text/css">*{stroke-linejoin: round; stroke-linecap: butt}</style>
 </defs>
 <g id="figure_1">
  <g id="patch_1">
   <path d="M 0 218.622767 
L 487.616954 218.622767 
L 487.616954 0 
L 0 0 
z
" style="fill: #ffffff"/>
  </g>
  <g id="axes_1">
   <g id="patch_2">
    <path d="M 35.485937 185.393079 
L 474.856016 185.393079 
L 474.856016 10.778906 
L 35.485937 10.778906 
z
" style="fill: #ffffff"/>
   </g>
   <g id="matplotlib.axis_1">
    <g id="xtick_1">
     <g id="line2d_1">
      <path d="M 35.485937 185.393079 
L 35.485937 10.778906 
" clip-path="url(#p426a883bdc)" style="fill: none; stroke: #b0b0b0; stroke-width: 0.8; stroke-linecap: square"/>
     </g>
     <g id="line2d_2">
      <defs>
       <path id="m95e3c1f72b" d="M 0 0 
L 0 -3.5 
" style="stroke: #000000; stroke-width: 0.8"/>
      </defs>
      <g>
       <use xlink:href="#m95e3c1f72b" x="35.485937" y="185.393079" style="stroke: #000000; stroke-width: 0.8"/>
      </g>
     </g>
     <g id="text_1">
      <!-- 0 -->
      <g transform="translate(32.705469 196.050892) scale(0.1 -0.1)">
       <defs>
        <path id="ArialMT-30" d="M 266 2259 
Q 266 3072 433 3567 
Q 600 4063 929 4331 
Q 1259 4600 1759 4600 
Q 2128 4600 2406 4451 
Q 2684 4303 2865 4023 
Q 3047 3744 3150 3342 
Q 3253 2941 3253 2259 
Q 3253 1453 3087 958 
Q 2922 463 2592 192 
Q 2263 -78 1759 -78 
Q 1097 -78 719 397 
Q 266 969 266 2259 
z
M 844 2259 
Q 844 1131 1108 757 
Q 1372 384 1759 384 
Q 2147 384 2411 759 
Q 2675 1134 2675 2259 
Q 2675 3391 2411 3762 
Q 2147 4134 1753 4134 
Q 1366 4134 1134 3806 
Q 844 3388 844 2259 
z
" transform="scale(0.015625)"/>
       </defs>
       <use xlink:href="#ArialMT-30"/>
      </g>
     </g>
    </g>
    <g id="xtick_2">
     <g id="line2d_3">
      <path d="M 90.407197 185.393079 
L 90.407197 10.778906 
" clip-path="url(#p426a883bdc)" style="fill: none; stroke: #b0b0b0; stroke-width: 0.8; stroke-linecap: square"/>
     </g>
     <g id="line2d_4">
      <g>
       <use xlink:href="#m95e3c1f72b" x="90.407197" y="185.393079" style="stroke: #000000; stroke-width: 0.8"/>
      </g>
     </g>
     <g id="text_2">
      <!-- 5 -->
      <g transform="translate(87.626729 196.050892) scale(0.1 -0.1)">
       <defs>
        <path id="ArialMT-35" d="M 266 1200 
L 856 1250 
Q 922 819 1161 601 
Q 1400 384 1738 384 
Q 2144 384 2425 690 
Q 2706 997 2706 1503 
Q 2706 1984 2436 2262 
Q 2166 2541 1728 2541 
Q 1456 2541 1237 2417 
Q 1019 2294 894 2097 
L 366 2166 
L 809 4519 
L 3088 4519 
L 3088 3981 
L 1259 3981 
L 1013 2750 
Q 1425 3038 1878 3038 
Q 2478 3038 2890 2622 
Q 3303 2206 3303 1553 
Q 3303 931 2941 478 
Q 2500 -78 1738 -78 
Q 1113 -78 717 272 
Q 322 622 266 1200 
z
" transform="scale(0.015625)"/>
       </defs>
       <use xlink:href="#ArialMT-35"/>
      </g>
     </g>
    </g>
    <g id="xtick_3">
     <g id="line2d_5">
      <path d="M 145.328457 185.393079 
L 145.328457 10.778906 
" clip-path="url(#p426a883bdc)" style="fill: none; stroke: #b0b0b0; stroke-width: 0.8; stroke-linecap: square"/>
     </g>
     <g id="line2d_6">
      <g>
       <use xlink:href="#m95e3c1f72b" x="145.328457" y="185.393079" style="stroke: #000000; stroke-width: 0.8"/>
      </g>
     </g>
     <g id="text_3">
      <!-- 10 -->
      <g transform="translate(139.76752 196.050892) scale(0.1 -0.1)">
       <defs>
        <path id="ArialMT-31" d="M 2384 0 
L 1822 0 
L 1822 3584 
Q 1619 3391 1289 3197 
Q 959 3003 697 2906 
L 697 3450 
Q 1169 3672 1522 3987 
Q 1875 4303 2022 4600 
L 2384 4600 
L 2384 0 
z
" transform="scale(0.015625)"/>
       </defs>
       <use xlink:href="#ArialMT-31"/>
       <use xlink:href="#ArialMT-30" x="55.615234"/>
      </g>
     </g>
    </g>
    <g id="xtick_4">
     <g id="line2d_7">
      <path d="M 200.249717 185.393079 
L 200.249717 10.778906 
" clip-path="url(#p426a883bdc)" style="fill: none; stroke: #b0b0b0; stroke-width: 0.8; stroke-linecap: square"/>
     </g>
     <g id="line2d_8">
      <g>
       <use xlink:href="#m95e3c1f72b" x="200.249717" y="185.393079" style="stroke: #000000; stroke-width: 0.8"/>
      </g>
     </g>
     <g id="text_4">
      <!-- 15 -->
      <g transform="translate(194.68878 196.050892) scale(0.1 -0.1)">
       <use xlink:href="#ArialMT-31"/>
       <use xlink:href="#ArialMT-35" x="55.615234"/>
      </g>
     </g>
    </g>
    <g id="xtick_5">
     <g id="line2d_9">
      <path d="M 255.170977 185.393079 
L 255.170977 10.778906 
" clip-path="url(#p426a883bdc)" style="fill: none; stroke: #b0b0b0; stroke-width: 0.8; stroke-linecap: square"/>
     </g>
     <g id="line2d_10">
      <g>
       <use xlink:href="#m95e3c1f72b" x="255.170977" y="185.393079" style="stroke: #000000; stroke-width: 0.8"/>
      </g>
     </g>
     <g id="text_5">
      <!-- 20 -->
      <g transform="translate(249.610039 196.050892) scale(0.1 -0.1)">
       <defs>
        <path id="ArialMT-32" d="M 3222 541 
L 3222 0 
L 194 0 
Q 188 203 259 391 
Q 375 700 629 1000 
Q 884 1300 1366 1694 
Q 2113 2306 2375 2664 
Q 2638 3022 2638 3341 
Q 2638 3675 2398 3904 
Q 2159 4134 1775 4134 
Q 1369 4134 1125 3890 
Q 881 3647 878 3216 
L 300 3275 
Q 359 3922 746 4261 
Q 1134 4600 1788 4600 
Q 2447 4600 2831 4234 
Q 3216 3869 3216 3328 
Q 3216 3053 3103 2787 
Q 2991 2522 2730 2228 
Q 2469 1934 1863 1422 
Q 1356 997 1212 845 
Q 1069 694 975 541 
L 3222 541 
z
" transform="scale(0.015625)"/>
       </defs>
       <use xlink:href="#ArialMT-32"/>
       <use xlink:href="#ArialMT-30" x="55.615234"/>
      </g>
     </g>
    </g>
    <g id="xtick_6">
     <g id="line2d_11">
      <path d="M 310.092237 185.393079 
L 310.092237 10.778906 
" clip-path="url(#p426a883bdc)" style="fill: none; stroke: #b0b0b0; stroke-width: 0.8; stroke-linecap: square"/>
     </g>
     <g id="line2d_12">
      <g>
       <use xlink:href="#m95e3c1f72b" x="310.092237" y="185.393079" style="stroke: #000000; stroke-width: 0.8"/>
      </g>
     </g>
     <g id="text_6">
      <!-- 25 -->
      <g transform="translate(304.531299 196.050892) scale(0.1 -0.1)">
       <use xlink:href="#ArialMT-32"/>
       <use xlink:href="#ArialMT-35" x="55.615234"/>
      </g>
     </g>
    </g>
    <g id="xtick_7">
     <g id="line2d_13">
      <path d="M 365.013497 185.393079 
L 365.013497 10.778906 
" clip-path="url(#p426a883bdc)" style="fill: none; stroke: #b0b0b0; stroke-width: 0.8; stroke-linecap: square"/>
     </g>
     <g id="line2d_14">
      <g>
       <use xlink:href="#m95e3c1f72b" x="365.013497" y="185.393079" style="stroke: #000000; stroke-width: 0.8"/>
      </g>
     </g>
     <g id="text_7">
      <!-- 30 -->
      <g transform="translate(359.452559 196.050892) scale(0.1 -0.1)">
       <defs>
        <path id="ArialMT-33" d="M 269 1209 
L 831 1284 
Q 928 806 1161 595 
Q 1394 384 1728 384 
Q 2125 384 2398 659 
Q 2672 934 2672 1341 
Q 2672 1728 2419 1979 
Q 2166 2231 1775 2231 
Q 1616 2231 1378 2169 
L 1441 2663 
Q 1497 2656 1531 2656 
Q 1891 2656 2178 2843 
Q 2466 3031 2466 3422 
Q 2466 3731 2256 3934 
Q 2047 4138 1716 4138 
Q 1388 4138 1169 3931 
Q 950 3725 888 3313 
L 325 3413 
Q 428 3978 793 4289 
Q 1159 4600 1703 4600 
Q 2078 4600 2393 4439 
Q 2709 4278 2876 4000 
Q 3044 3722 3044 3409 
Q 3044 3113 2884 2869 
Q 2725 2625 2413 2481 
Q 2819 2388 3044 2092 
Q 3269 1797 3269 1353 
Q 3269 753 2831 336 
Q 2394 -81 1725 -81 
Q 1122 -81 723 278 
Q 325 638 269 1209 
z
" transform="scale(0.015625)"/>
       </defs>
       <use xlink:href="#ArialMT-33"/>
       <use xlink:href="#ArialMT-30" x="55.615234"/>
      </g>
     </g>
    </g>
    <g id="xtick_8">
     <g id="line2d_15">
      <path d="M 419.934756 185.393079 
L 419.934756 10.778906 
" clip-path="url(#p426a883bdc)" style="fill: none; stroke: #b0b0b0; stroke-width: 0.8; stroke-linecap: square"/>
     </g>
     <g id="line2d_16">
      <g>
       <use xlink:href="#m95e3c1f72b" x="419.934756" y="185.393079" style="stroke: #000000; stroke-width: 0.8"/>
      </g>
     </g>
     <g id="text_8">
      <!-- 35 -->
      <g transform="translate(414.373819 196.050892) scale(0.1 -0.1)">
       <use xlink:href="#ArialMT-33"/>
       <use xlink:href="#ArialMT-35" x="55.615234"/>
      </g>
     </g>
    </g>
    <g id="xtick_9">
     <g id="line2d_17">
      <path d="M 474.856016 185.393079 
L 474.856016 10.778906 
" clip-path="url(#p426a883bdc)" style="fill: none; stroke: #b0b0b0; stroke-width: 0.8; stroke-linecap: square"/>
     </g>
     <g id="line2d_18">
      <g>
       <use xlink:href="#m95e3c1f72b" x="474.856016" y="185.393079" style="stroke: #000000; stroke-width: 0.8"/>
      </g>
     </g>
     <g id="text_9">
      <!-- 40 -->
      <g transform="translate(469.295079 196.050892) scale(0.1 -0.1)">
       <defs>
        <path id="ArialMT-34" d="M 2069 0 
L 2069 1097 
L 81 1097 
L 81 1613 
L 2172 4581 
L 2631 4581 
L 2631 1613 
L 3250 1613 
L 3250 1097 
L 2631 1097 
L 2631 0 
L 2069 0 
z
M 2069 1613 
L 2069 3678 
L 634 1613 
L 2069 1613 
z
" transform="scale(0.015625)"/>
       </defs>
       <use xlink:href="#ArialMT-34"/>
       <use xlink:href="#ArialMT-30" x="55.615234"/>
      </g>
     </g>
    </g>
    <g id="text_10">
     <!-- Time (s) -->
     <g transform="translate(237.029571 209.318079) scale(0.1 -0.1)">
      <defs>
       <path id="ArialMT-54" d="M 1659 0 
L 1659 4041 
L 150 4041 
L 150 4581 
L 3781 4581 
L 3781 4041 
L 2266 4041 
L 2266 0 
L 1659 0 
z
" transform="scale(0.015625)"/>
       <path id="ArialMT-69" d="M 425 3934 
L 425 4581 
L 988 4581 
L 988 3934 
L 425 3934 
z
M 425 0 
L 425 3319 
L 988 3319 
L 988 0 
L 425 0 
z
" transform="scale(0.015625)"/>
       <path id="ArialMT-6d" d="M 422 0 
L 422 3319 
L 925 3319 
L 925 2853 
Q 1081 3097 1340 3245 
Q 1600 3394 1931 3394 
Q 2300 3394 2536 3241 
Q 2772 3088 2869 2813 
Q 3263 3394 3894 3394 
Q 4388 3394 4653 3120 
Q 4919 2847 4919 2278 
L 4919 0 
L 4359 0 
L 4359 2091 
Q 4359 2428 4304 2576 
Q 4250 2725 4106 2815 
Q 3963 2906 3769 2906 
Q 3419 2906 3187 2673 
Q 2956 2441 2956 1928 
L 2956 0 
L 2394 0 
L 2394 2156 
Q 2394 2531 2256 2718 
Q 2119 2906 1806 2906 
Q 1569 2906 1367 2781 
Q 1166 2656 1075 2415 
Q 984 2175 984 1722 
L 984 0 
L 422 0 
z
" transform="scale(0.015625)"/>
       <path id="ArialMT-65" d="M 2694 1069 
L 3275 997 
Q 3138 488 2766 206 
Q 2394 -75 1816 -75 
Q 1088 -75 661 373 
Q 234 822 234 1631 
Q 234 2469 665 2931 
Q 1097 3394 1784 3394 
Q 2450 3394 2872 2941 
Q 3294 2488 3294 1666 
Q 3294 1616 3291 1516 
L 816 1516 
Q 847 969 1125 678 
Q 1403 388 1819 388 
Q 2128 388 2347 550 
Q 2566 713 2694 1069 
z
M 847 1978 
L 2700 1978 
Q 2663 2397 2488 2606 
Q 2219 2931 1791 2931 
Q 1403 2931 1139 2672 
Q 875 2413 847 1978 
z
" transform="scale(0.015625)"/>
       <path id="ArialMT-20" transform="scale(0.015625)"/>
       <path id="ArialMT-28" d="M 1497 -1347 
Q 1031 -759 709 28 
Q 388 816 388 1659 
Q 388 2403 628 3084 
Q 909 3875 1497 4659 
L 1900 4659 
Q 1522 4009 1400 3731 
Q 1209 3300 1100 2831 
Q 966 2247 966 1656 
Q 966 153 1900 -1347 
L 1497 -1347 
z
" transform="scale(0.015625)"/>
       <path id="ArialMT-73" d="M 197 991 
L 753 1078 
Q 800 744 1014 566 
Q 1228 388 1613 388 
Q 2000 388 2187 545 
Q 2375 703 2375 916 
Q 2375 1106 2209 1216 
Q 2094 1291 1634 1406 
Q 1016 1563 777 1677 
Q 538 1791 414 1992 
Q 291 2194 291 2438 
Q 291 2659 392 2848 
Q 494 3038 669 3163 
Q 800 3259 1026 3326 
Q 1253 3394 1513 3394 
Q 1903 3394 2198 3281 
Q 2494 3169 2634 2976 
Q 2775 2784 2828 2463 
L 2278 2388 
Q 2241 2644 2061 2787 
Q 1881 2931 1553 2931 
Q 1166 2931 1000 2803 
Q 834 2675 834 2503 
Q 834 2394 903 2306 
Q 972 2216 1119 2156 
Q 1203 2125 1616 2013 
Q 2213 1853 2448 1751 
Q 2684 1650 2818 1456 
Q 2953 1263 2953 975 
Q 2953 694 2789 445 
Q 2625 197 2315 61 
Q 2006 -75 1616 -75 
Q 969 -75 630 194 
Q 291 463 197 991 
z
" transform="scale(0.015625)"/>
       <path id="ArialMT-29" d="M 791 -1347 
L 388 -1347 
Q 1322 153 1322 1656 
Q 1322 2244 1188 2822 
Q 1081 3291 891 3722 
Q 769 4003 388 4659 
L 791 4659 
Q 1378 3875 1659 3084 
Q 1900 2403 1900 1659 
Q 1900 816 1576 28 
Q 1253 -759 791 -1347 
z
" transform="scale(0.015625)"/>
      </defs>
      <use xlink:href="#ArialMT-54"/>
      <use xlink:href="#ArialMT-69" x="57.333984"/>
      <use xlink:href="#ArialMT-6d" x="79.550781"/>
      <use xlink:href="#ArialMT-65" x="162.851562"/>
      <use xlink:href="#ArialMT-20" x="218.466797"/>
      <use xlink:href="#ArialMT-28" x="246.25"/>
      <use xlink:href="#ArialMT-73" x="279.550781"/>
      <use xlink:href="#ArialMT-29" x="329.550781"/>
     </g>
    </g>
   </g>
   <g id="matplotlib.axis_2">
    <g id="ytick_1">
     <g id="line2d_19">
      <path d="M 35.485937 185.393079 
L 474.856016 185.393079 
" clip-path="url(#p426a883bdc)" style="fill: none; stroke: #b0b0b0; stroke-width: 0.8; stroke-linecap: square"/>
     </g>
     <g id="line2d_20">
      <defs>
       <path id="m3b04da51db" d="M 0 0 
L 3.5 0 
" style="stroke: #000000; stroke-width: 0.8"/>
      </defs>
      <g>
       <use xlink:href="#m3b04da51db" x="35.485937" y="185.393079" style="stroke: #000000; stroke-width: 0.8"/>
      </g>
     </g>
     <g id="text_11">
      <!-- −3 -->
      <g transform="translate(20.584375 188.971986) scale(0.1 -0.1)">
       <defs>
        <path id="ArialMT-2212" d="M 3381 1997 
L 356 1997 
L 356 2522 
L 3381 2522 
L 3381 1997 
z
" transform="scale(0.015625)"/>
       </defs>
       <use xlink:href="#ArialMT-2212"/>
       <use xlink:href="#ArialMT-33" x="58.398438"/>
      </g>
     </g>
    </g>
    <g id="ytick_2">
     <g id="line2d_21">
      <path d="M 35.485937 156.290717 
L 474.856016 156.290717 
" clip-path="url(#p426a883bdc)" style="fill: none; stroke: #b0b0b0; stroke-width: 0.8; stroke-linecap: square"/>
     </g>
     <g id="line2d_22">
      <g>
       <use xlink:href="#m3b04da51db" x="35.485937" y="156.290717" style="stroke: #000000; stroke-width: 0.8"/>
      </g>
     </g>
     <g id="text_12">
      <!-- −2 -->
      <g transform="translate(20.584375 159.869624) scale(0.1 -0.1)">
       <use xlink:href="#ArialMT-2212"/>
       <use xlink:href="#ArialMT-32" x="58.398438"/>
      </g>
     </g>
    </g>
    <g id="ytick_3">
     <g id="line2d_23">
      <path d="M 35.485937 127.188355 
L 474.856016 127.188355 
" clip-path="url(#p426a883bdc)" style="fill: none; stroke: #b0b0b0; stroke-width: 0.8; stroke-linecap: square"/>
     </g>
     <g id="line2d_24">
      <g>
       <use xlink:href="#m3b04da51db" x="35.485937" y="127.188355" style="stroke: #000000; stroke-width: 0.8"/>
      </g>
     </g>
     <g id="text_13">
      <!-- −1 -->
      <g transform="translate(20.584375 130.767261) scale(0.1 -0.1)">
       <use xlink:href="#ArialMT-2212"/>
       <use xlink:href="#ArialMT-31" x="58.398438"/>
      </g>
     </g>
    </g>
    <g id="ytick_4">
     <g id="line2d_25">
      <path d="M 35.485937 98.085993 
L 474.856016 98.085993 
" clip-path="url(#p426a883bdc)" style="fill: none; stroke: #b0b0b0; stroke-width: 0.8; stroke-linecap: square"/>
     </g>
     <g id="line2d_26">
      <g>
       <use xlink:href="#m3b04da51db" x="35.485937" y="98.085993" style="stroke: #000000; stroke-width: 0.8"/>
      </g>
     </g>
     <g id="text_14">
      <!-- 0 -->
      <g transform="translate(26.425 101.664899) scale(0.1 -0.1)">
       <use xlink:href="#ArialMT-30"/>
      </g>
     </g>
    </g>
    <g id="ytick_5">
     <g id="line2d_27">
      <path d="M 35.485937 68.983631 
L 474.856016 68.983631 
" clip-path="url(#p426a883bdc)" style="fill: none; stroke: #b0b0b0; stroke-width: 0.8; stroke-linecap: square"/>
     </g>
     <g id="line2d_28">
      <g>
       <use xlink:href="#m3b04da51db" x="35.485937" y="68.983631" style="stroke: #000000; stroke-width: 0.8"/>
      </g>
     </g>
     <g id="text_15">
      <!-- 1 -->
      <g transform="translate(26.425 72.562537) scale(0.1 -0.1)">
       <use xlink:href="#ArialMT-31"/>
      </g>
     </g>
    </g>
    <g id="ytick_6">
     <g id="line2d_29">
      <path d="M 35.485937 39.881268 
L 474.856016 39.881268 
" clip-path="url(#p426a883bdc)" style="fill: none; stroke: #b0b0b0; stroke-width: 0.8; stroke-linecap: square"/>
     </g>
     <g id="line2d_30">
      <g>
       <use xlink:href="#m3b04da51db" x="35.485937" y="39.881268" style="stroke: #000000; stroke-width: 0.8"/>
      </g>
     </g>
     <g id="text_16">
      <!-- 2 -->
      <g transform="translate(26.425 43.460175) scale(0.1 -0.1)">
       <use xlink:href="#ArialMT-32"/>
      </g>
     </g>
    </g>
    <g id="ytick_7">
     <g id="line2d_31">
      <path d="M 35.485937 10.778906 
L 474.856016 10.778906 
" clip-path="url(#p426a883bdc)" style="fill: none; stroke: #b0b0b0; stroke-width: 0.8; stroke-linecap: square"/>
     </g>
     <g id="line2d_32">
      <g>
       <use xlink:href="#m3b04da51db" x="35.485937" y="10.778906" style="stroke: #000000; stroke-width: 0.8"/>
      </g>
     </g>
     <g id="text_17">
      <!-- 3 -->
      <g transform="translate(26.425 14.357812) scale(0.1 -0.1)">
       <use xlink:href="#ArialMT-33"/>
      </g>
     </g>
    </g>
    <g id="text_18">
     <!-- Velocity (m/s) -->
     <g transform="translate(14.479687 128.09068) rotate(-90) scale(0.1 -0.1)">
      <defs>
       <path id="ArialMT-56" d="M 1803 0 
L 28 4581 
L 684 4581 
L 1875 1253 
Q 2019 853 2116 503 
Q 2222 878 2363 1253 
L 3600 4581 
L 4219 4581 
L 2425 0 
L 1803 0 
z
" transform="scale(0.015625)"/>
       <path id="ArialMT-6c" d="M 409 0 
L 409 4581 
L 972 4581 
L 972 0 
L 409 0 
z
" transform="scale(0.015625)"/>
       <path id="ArialMT-6f" d="M 213 1659 
Q 213 2581 725 3025 
Q 1153 3394 1769 3394 
Q 2453 3394 2887 2945 
Q 3322 2497 3322 1706 
Q 3322 1066 3130 698 
Q 2938 331 2570 128 
Q 2203 -75 1769 -75 
Q 1072 -75 642 372 
Q 213 819 213 1659 
z
M 791 1659 
Q 791 1022 1069 705 
Q 1347 388 1769 388 
Q 2188 388 2466 706 
Q 2744 1025 2744 1678 
Q 2744 2294 2464 2611 
Q 2184 2928 1769 2928 
Q 1347 2928 1069 2612 
Q 791 2297 791 1659 
z
" transform="scale(0.015625)"/>
       <path id="ArialMT-63" d="M 2588 1216 
L 3141 1144 
Q 3050 572 2676 248 
Q 2303 -75 1759 -75 
Q 1078 -75 664 370 
Q 250 816 250 1647 
Q 250 2184 428 2587 
Q 606 2991 970 3192 
Q 1334 3394 1763 3394 
Q 2303 3394 2647 3120 
Q 2991 2847 3088 2344 
L 2541 2259 
Q 2463 2594 2264 2762 
Q 2066 2931 1784 2931 
Q 1359 2931 1093 2626 
Q 828 2322 828 1663 
Q 828 994 1084 691 
Q 1341 388 1753 388 
Q 2084 388 2306 591 
Q 2528 794 2588 1216 
z
" transform="scale(0.015625)"/>
       <path id="ArialMT-74" d="M 1650 503 
L 1731 6 
Q 1494 -44 1306 -44 
Q 1000 -44 831 53 
Q 663 150 594 308 
Q 525 466 525 972 
L 525 2881 
L 113 2881 
L 113 3319 
L 525 3319 
L 525 4141 
L 1084 4478 
L 1084 3319 
L 1650 3319 
L 1650 2881 
L 1084 2881 
L 1084 941 
Q 1084 700 1114 631 
Q 1144 563 1211 522 
Q 1278 481 1403 481 
Q 1497 481 1650 503 
z
" transform="scale(0.015625)"/>
       <path id="ArialMT-79" d="M 397 -1278 
L 334 -750 
Q 519 -800 656 -800 
Q 844 -800 956 -737 
Q 1069 -675 1141 -563 
Q 1194 -478 1313 -144 
Q 1328 -97 1363 -6 
L 103 3319 
L 709 3319 
L 1400 1397 
Q 1534 1031 1641 628 
Q 1738 1016 1872 1384 
L 2581 3319 
L 3144 3319 
L 1881 -56 
Q 1678 -603 1566 -809 
Q 1416 -1088 1222 -1217 
Q 1028 -1347 759 -1347 
Q 597 -1347 397 -1278 
z
" transform="scale(0.015625)"/>
       <path id="ArialMT-2f" d="M 0 -78 
L 1328 4659 
L 1778 4659 
L 453 -78 
L 0 -78 
z
" transform="scale(0.015625)"/>
      </defs>
      <use xlink:href="#ArialMT-56"/>
      <use xlink:href="#ArialMT-65" x="61.199219"/>
      <use xlink:href="#ArialMT-6c" x="116.814453"/>
      <use xlink:href="#ArialMT-6f" x="139.03125"/>
      <use xlink:href="#ArialMT-63" x="194.646484"/>
      <use xlink:href="#ArialMT-69" x="244.646484"/>
      <use xlink:href="#ArialMT-74" x="266.863281"/>
      <use xlink:href="#ArialMT-79" x="294.646484"/>
      <use xlink:href="#ArialMT-20" x="344.646484"/>
      <use xlink:href="#ArialMT-28" x="372.429688"/>
      <use xlink:href="#ArialMT-6d" x="405.730469"/>
      <use xlink:href="#ArialMT-2f" x="489.03125"/>
      <use xlink:href="#ArialMT-73" x="516.814453"/>
      <use xlink:href="#ArialMT-29" x="566.814453"/>
     </g>
    </g>
   </g>
   <g id="line2d_33">
    <path d="M 35.485937 98.085993 
L 36.584363 98.144374 
L 40.978063 98.842045 
L 41.527276 98.670252 
L 43.174914 98.555294 
L 44.273339 97.906374 
L 44.822552 97.788989 
L 45.371764 97.205024 
L 45.920977 96.877699 
L 46.470189 97.259124 
L 47.019402 97.982625 
L 47.568615 98.457741 
L 48.117827 98.774455 
L 48.66704 99.336795 
L 49.216252 99.604759 
L 49.765465 99.312378 
L 50.314678 99.448213 
L 50.86389 100.720097 
L 51.413103 101.402167 
L 51.962315 101.202399 
L 53.060741 98.332562 
L 53.609953 97.924201 
L 54.159166 97.864389 
L 54.708378 98.791802 
L 55.257591 98.483986 
L 55.806804 98.007937 
L 56.356016 97.765313 
L 56.905229 96.556353 
L 57.454441 96.336489 
L 58.003654 97.029294 
L 58.552867 96.880404 
L 59.651292 96.20913 
L 60.749717 93.764052 
L 61.29893 93.603107 
L 61.848142 92.456758 
L 62.397355 91.866234 
L 62.946567 91.764691 
L 63.49578 91.10572 
L 64.044993 91.672045 
L 64.594205 93.257303 
L 65.143418 94.212717 
L 65.69263 93.416467 
L 66.241843 93.653747 
L 67.889481 106.173233 
L 68.438693 109.414821 
L 68.987906 111.430075 
L 69.537119 111.669495 
L 70.086331 110.623816 
L 70.635544 109.041158 
L 71.184756 106.856576 
L 71.733969 106.208147 
L 72.283182 105.875729 
L 72.832394 103.909658 
L 73.381607 101.510137 
L 73.930819 99.890166 
L 75.029245 97.658213 
L 75.578457 97.265468 
L 76.12767 99.086333 
L 76.676882 101.436919 
L 77.226095 100.971472 
L 77.775308 97.243902 
L 78.32452 92.017981 
L 78.873733 88.428127 
L 79.422945 86.529093 
L 79.972158 87.273088 
L 80.521371 88.464057 
L 81.619796 85.307407 
L 82.169008 86.245903 
L 83.267434 91.986496 
L 84.365859 100.756449 
L 86.013497 93.443271 
L 86.562709 94.153825 
L 87.111922 98.978586 
L 87.661134 101.008113 
L 88.210347 101.534045 
L 88.75956 101.895267 
L 89.308772 101.223718 
L 89.857985 104.685997 
L 90.407197 109.493573 
L 90.95641 110.049035 
L 91.505623 109.908584 
L 92.054835 112.466422 
L 92.604048 113.18072 
L 93.15326 109.088633 
L 94.800898 100.244362 
L 95.350111 96.645556 
L 95.899323 91.307673 
L 96.448536 87.720923 
L 96.997749 89.488711 
L 97.546961 90.508857 
L 98.645386 90.916025 
L 99.194599 92.765057 
L 100.293024 97.220889 
L 100.842237 97.314258 
L 101.391449 95.116383 
L 101.940662 95.262127 
L 102.489875 93.365504 
L 103.039087 89.232314 
L 103.5883 86.768383 
L 104.137512 84.871279 
L 104.686725 86.85758 
L 106.334363 97.433364 
L 106.883575 98.752186 
L 107.432788 102.0227 
L 107.982 104.463407 
L 108.531213 108.098822 
L 109.080426 110.564784 
L 109.629638 111.720905 
L 110.178851 110.043288 
L 110.728063 106.132307 
L 111.277276 103.303545 
L 113.474126 114.14765 
L 114.023339 112.900542 
L 114.572552 113.367693 
L 115.121764 111.155995 
L 116.220189 104.546426 
L 116.769402 96.245059 
L 117.867827 77.022225 
L 118.41704 71.982558 
L 118.966252 72.016107 
L 119.515465 72.879266 
L 120.064678 73.12679 
L 120.61389 74.669459 
L 121.163103 79.368783 
L 121.712315 86.573832 
L 122.261528 90.958662 
L 123.359953 103.307964 
L 123.909166 103.230923 
L 126.106016 91.738092 
L 126.655229 88.393897 
L 127.204441 89.892741 
L 127.753654 94.705063 
L 128.302867 100.612442 
L 128.852079 109.993645 
L 129.401292 115.967316 
L 129.950504 120.562863 
L 130.499717 122.420618 
L 131.04893 120.138673 
L 131.598142 118.962753 
L 132.147355 116.561583 
L 132.696567 112.750192 
L 133.24578 106.839844 
L 133.794993 97.03775 
L 134.344205 91.823274 
L 134.893418 89.451259 
L 135.44263 85.646385 
L 135.991843 86.95664 
L 137.639481 101.754552 
L 138.188693 103.151407 
L 139.836331 94.787422 
L 140.385544 88.524696 
L 140.934756 85.423911 
L 141.483969 85.828428 
L 142.033182 84.507487 
L 142.582394 82.643766 
L 143.131607 83.440272 
L 143.680819 90.580408 
L 144.779245 110.376152 
L 145.328457 115.951827 
L 145.87767 116.397683 
L 146.426882 114.639145 
L 147.525308 106.940525 
L 148.07452 106.702864 
L 148.623733 104.463781 
L 149.722158 98.052928 
L 150.271371 92.954134 
L 150.820583 90.191032 
L 151.369796 92.573103 
L 151.919008 96.628295 
L 152.468221 98.437267 
L 153.566646 95.853599 
L 154.115859 94.067577 
L 154.665071 92.725062 
L 155.214284 87.177099 
L 155.763497 79.981894 
L 156.312709 79.585321 
L 157.960347 91.950972 
L 159.058772 104.955519 
L 159.607985 107.565019 
L 160.157197 105.25456 
L 160.70641 106.58514 
L 161.804835 112.376813 
L 162.354048 113.120721 
L 162.90326 107.201207 
L 163.452473 104.788271 
L 164.001686 106.213899 
L 165.100111 110.598455 
L 165.649323 114.091689 
L 166.198536 116.062119 
L 166.747749 116.802023 
L 167.296961 114.999519 
L 167.846174 109.545845 
L 168.395386 105.657969 
L 168.944599 100.168243 
L 169.493812 91.603589 
L 170.043024 84.941796 
L 171.141449 66.887288 
L 171.690662 67.007714 
L 172.239875 67.796252 
L 172.789087 70.594787 
L 173.3383 76.293234 
L 174.985938 84.047809 
L 175.53515 85.064525 
L 176.084363 84.998994 
L 176.633575 85.232906 
L 177.182788 88.993841 
L 177.732 88.894913 
L 178.281213 88.96751 
L 178.830426 91.169788 
L 179.379638 90.082405 
L 179.928851 93.140889 
L 181.027276 110.195812 
L 182.125701 119.193989 
L 182.674914 121.815291 
L 183.224126 123.163431 
L 183.773339 121.703995 
L 184.322552 122.058712 
L 184.871764 123.330297 
L 185.420977 121.853689 
L 186.519402 108.909502 
L 187.068615 106.513757 
L 187.617827 108.063494 
L 188.16704 113.627627 
L 188.716252 113.472894 
L 189.265465 113.728407 
L 189.814678 112.317874 
L 190.36389 107.383277 
L 191.462315 94.328906 
L 192.011528 93.999019 
L 192.560741 88.462395 
L 193.659166 67.313336 
L 194.208378 60.999379 
L 194.757591 57.912292 
L 195.306804 57.035413 
L 195.856016 60.179521 
L 196.405229 68.369004 
L 196.954441 78.550727 
L 197.503654 86.06494 
L 198.052867 90.232363 
L 198.602079 92.534578 
L 199.151292 93.391715 
L 200.79893 100.808086 
L 201.348142 106.165359 
L 201.897355 105.826774 
L 202.446567 101.135686 
L 202.99578 100.882875 
L 203.544993 105.891526 
L 205.741843 135.590946 
L 206.291056 132.583954 
L 206.840268 131.178979 
L 207.389481 131.053807 
L 207.938693 126.389153 
L 208.487906 125.279154 
L 209.037119 121.989047 
L 209.586331 111.994869 
L 210.135544 105.190801 
L 210.684756 101.619436 
L 211.233969 99.856465 
L 212.332394 88.432414 
L 212.881607 86.87674 
L 213.430819 84.173857 
L 213.980032 80.607307 
L 214.529245 79.282225 
L 215.078457 74.985863 
L 215.62767 69.11088 
L 216.726095 63.117525 
L 217.275308 58.448454 
L 217.82452 60.87248 
L 218.373733 68.171991 
L 220.570583 83.789488 
L 221.119796 86.231491 
L 221.669008 91.425421 
L 223.316646 118.770718 
L 223.865859 124.144137 
L 224.964284 128.644266 
L 225.513497 133.453093 
L 226.062709 136.325203 
L 227.161134 145.063546 
L 227.710347 144.656 
L 228.808772 132.522926 
L 229.357985 125.374137 
L 229.907197 116.600311 
L 231.554835 100.965442 
L 232.104048 96.995924 
L 232.65326 91.475232 
L 233.751686 76.750187 
L 234.850111 64.802107 
L 235.399323 62.91772 
L 235.948536 62.067866 
L 237.596174 49.862398 
L 238.145386 51.138133 
L 238.694599 54.413976 
L 241.440662 90.802783 
L 241.989875 96.050719 
L 242.539087 98.538288 
L 243.0883 103.065814 
L 243.637512 109.736591 
L 244.186725 111.285839 
L 244.735938 116.012246 
L 245.28515 122.100023 
L 246.383575 129.463202 
L 246.932788 132.896234 
L 247.482 137.952867 
L 248.031213 139.628096 
L 248.580426 140.457939 
L 249.129638 140.033622 
L 249.678851 135.397114 
L 251.326489 110.948403 
L 251.875701 101.566824 
L 253.523339 85.951871 
L 254.621764 81.039961 
L 255.170977 77.142852 
L 255.720189 72.069121 
L 256.269402 70.545086 
L 256.818615 71.073718 
L 257.367827 68.61706 
L 257.91704 67.807135 
L 258.466252 65.241025 
L 259.015465 63.786998 
L 260.11389 67.770274 
L 260.663103 73.202675 
L 261.212315 81.025637 
L 261.761528 87.198103 
L 262.310741 90.598328 
L 262.859953 95.344287 
L 263.409166 103.403785 
L 263.958378 109.285151 
L 264.507591 117.143671 
L 265.056804 121.90332 
L 265.606016 121.180898 
L 266.155229 121.670266 
L 266.704441 121.692069 
L 267.253654 123.646655 
L 267.802867 129.275757 
L 268.352079 133.074828 
L 268.901292 132.695769 
L 269.450504 128.299459 
L 269.999717 120.458762 
L 270.54893 116.221444 
L 271.098142 115.188149 
L 272.196567 110.085298 
L 273.294993 97.120274 
L 274.393418 83.963557 
L 274.94263 83.193258 
L 275.491843 83.136355 
L 276.041056 80.849489 
L 276.590268 76.61398 
L 277.139481 74.529774 
L 277.688693 74.344749 
L 278.237906 75.640889 
L 278.787119 79.557874 
L 279.336331 78.27019 
L 279.885544 73.211443 
L 280.434756 70.672961 
L 280.983969 71.278669 
L 281.533182 76.039344 
L 282.631607 94.163087 
L 283.730032 106.127713 
L 284.279245 109.089085 
L 284.828457 112.668456 
L 285.926882 129.778368 
L 286.476095 131.605092 
L 287.025308 128.225976 
L 287.57452 123.744249 
L 288.123733 117.941658 
L 288.672945 113.787232 
L 289.222158 108.705734 
L 289.771371 101.637857 
L 290.320583 99.031474 
L 290.869796 100.266632 
L 291.419008 102.313161 
L 291.968221 103.256033 
L 292.517434 103.442075 
L 293.066646 98.866894 
L 293.615859 91.145271 
L 294.165071 85.803455 
L 294.714284 84.266935 
L 295.263497 86.231628 
L 295.812709 90.208473 
L 296.361922 92.105631 
L 297.460347 82.86991 
L 298.00956 83.672949 
L 298.558772 90.30574 
L 299.107985 99.008945 
L 299.657197 103.164735 
L 300.20641 104.024127 
L 300.755623 103.370512 
L 301.304835 100.580925 
L 301.854048 94.998518 
L 302.40326 90.726109 
L 302.952473 88.072299 
L 303.501686 87.22857 
L 304.050898 85.061786 
L 304.600111 85.185445 
L 305.698536 95.421389 
L 306.247749 98.120734 
L 306.796961 97.821529 
L 307.346174 97.906788 
L 307.895386 99.091677 
L 308.993812 104.742804 
L 309.543024 107.001063 
L 310.092237 106.331097 
L 310.641449 100.650025 
L 311.190662 96.937443 
L 311.739875 95.947077 
L 312.289087 96.797928 
L 312.8383 103.307106 
L 313.387512 111.721306 
L 313.936725 117.234984 
L 314.485937 118.753476 
L 315.03515 117.69246 
L 315.584363 116.101311 
L 316.133575 114.128321 
L 317.781213 103.924099 
L 318.330426 101.157708 
L 318.879638 94.133029 
L 319.428851 84.850201 
L 319.978063 78.28924 
L 320.527276 75.284484 
L 321.076489 73.187438 
L 321.625701 73.561956 
L 322.724126 86.253195 
L 323.273339 87.386631 
L 323.822552 85.168573 
L 324.371764 81.403683 
L 324.920977 79.884154 
L 326.568615 92.106182 
L 327.117827 97.536087 
L 327.66704 99.738413 
L 328.216252 97.735014 
L 328.765465 98.150681 
L 329.314678 100.969877 
L 329.86389 105.233492 
L 330.413103 111.541244 
L 330.962315 115.724833 
L 331.511528 117.721012 
L 332.060741 117.613067 
L 333.159166 114.540255 
L 333.708378 112.090918 
L 334.257591 111.88679 
L 334.806804 114.673642 
L 335.356016 115.960478 
L 335.905229 115.727988 
L 336.454441 114.79278 
L 337.003654 112.521399 
L 337.552867 108.036062 
L 338.651292 96.334876 
L 339.200504 92.150572 
L 339.749717 89.780332 
L 340.29893 85.358448 
L 341.397355 73.514701 
L 341.946567 70.466073 
L 342.49578 68.08426 
L 343.044993 66.464936 
L 343.594205 70.547589 
L 344.69263 84.601007 
L 345.241843 88.888683 
L 345.791056 90.700014 
L 346.340268 93.271946 
L 346.889481 96.604295 
L 347.987906 101.080089 
L 348.537119 105.042142 
L 350.733969 124.764212 
L 351.283182 127.883271 
L 351.832394 130.158874 
L 352.381607 130.737833 
L 353.480032 128.218025 
L 354.029245 126.223233 
L 354.578457 120.871931 
L 355.676882 101.616767 
L 356.226095 90.926147 
L 356.775308 82.998301 
L 357.32452 77.912055 
L 357.873733 75.642943 
L 358.972158 75.87932 
L 359.521371 75.008989 
L 361.169008 71.552193 
L 361.718221 71.215415 
L 362.267434 72.043062 
L 362.816646 74.05707 
L 363.915071 79.901658 
L 366.111922 91.587354 
L 367.210347 105.566817 
L 367.75956 112.428133 
L 368.308772 115.767163 
L 368.857985 115.601098 
L 369.407197 115.711004 
L 370.505623 115.437745 
L 371.054835 117.881686 
L 371.604048 122.583193 
L 372.15326 126.213153 
L 372.702473 127.343477 
L 373.251686 126.786116 
L 373.800898 124.830277 
L 374.899323 119.403307 
L 375.448536 116.38252 
L 376.546961 108.61516 
L 377.096174 103.005368 
L 378.194599 87.686839 
L 378.743812 81.752185 
L 379.293024 77.534536 
L 379.842237 75.422591 
L 380.391449 75.936839 
L 380.940662 77.3434 
L 381.489875 77.003723 
L 382.039087 74.396137 
L 382.5883 72.698883 
L 383.137512 72.688607 
L 384.78515 78.172096 
L 385.883575 84.275059 
L 386.432788 86.962635 
L 387.531213 96.285222 
L 388.629638 106.99751 
L 390.277276 118.03482 
L 390.826489 120.528191 
L 391.375701 121.475803 
L 391.924914 121.559166 
L 392.474126 120.725095 
L 393.023339 120.469735 
L 393.572552 121.617357 
L 394.121764 122.39009 
L 394.670977 121.462691 
L 395.220189 118.398991 
L 396.318615 109.065165 
L 396.867827 104.948537 
L 398.515465 88.714575 
L 399.61389 77.493463 
L 400.163103 73.443277 
L 400.712315 71.110641 
L 401.261528 71.389715 
L 401.810741 71.897117 
L 402.359953 72.031464 
L 402.909166 72.970998 
L 403.458378 74.955951 
L 405.106016 83.749698 
L 405.655229 85.006774 
L 406.204441 87.739117 
L 408.401292 106.843695 
L 409.499717 117.217938 
L 410.04893 121.328741 
L 410.598142 124.04894 
L 411.147355 124.514308 
L 411.696567 123.974328 
L 412.24578 122.414788 
L 412.794993 118.774396 
L 413.344205 114.211646 
L 414.991843 105.704174 
L 416.639481 99.482831 
L 417.188693 99.635471 
L 417.737906 98.778465 
L 418.287119 96.611878 
L 419.934756 85.537166 
L 420.483969 79.88325 
L 421.033182 75.514145 
L 421.582394 72.823563 
L 422.131607 71.880787 
L 422.680819 73.482513 
L 423.230032 76.072566 
L 424.87767 87.451435 
L 427.07452 103.817839 
L 427.623733 106.341386 
L 428.172945 107.782973 
L 428.722158 108.260068 
L 429.271371 108.171388 
L 429.820583 109.388561 
L 430.919008 115.880381 
L 431.468221 118.21773 
L 432.017434 119.270993 
L 433.115859 119.968306 
L 433.665071 118.489511 
L 434.214284 114.870093 
L 436.960347 92.135966 
L 437.50956 89.607297 
L 438.058772 87.884732 
L 439.70641 81.86307 
L 440.255623 81.896327 
L 440.804835 82.337439 
L 441.354048 82.237231 
L 443.001686 79.707183 
L 443.550898 79.093091 
L 444.100111 80.281261 
L 444.649323 83.419134 
L 445.198536 87.386095 
L 447.395386 107.592537 
L 449.043024 115.306402 
L 449.592237 116.125548 
L 450.141449 116.255278 
L 450.690662 116.229685 
L 451.239875 115.499389 
L 452.3383 112.024605 
L 452.887512 111.105022 
L 453.436725 110.763157 
L 453.985937 109.939799 
L 455.084363 107.703397 
L 455.633575 106.133666 
L 456.182788 103.310552 
L 457.281213 94.841369 
L 458.379638 85.882894 
L 458.928851 82.236716 
L 459.478063 79.90493 
L 460.027276 78.898501 
L 460.576489 78.873606 
L 461.125701 79.048379 
L 461.674914 79.559089 
L 462.224126 80.787998 
L 462.773339 82.550312 
L 463.322552 85.136258 
L 464.420977 91.281633 
L 464.970189 93.937138 
L 465.519402 95.769969 
L 466.068615 97.020838 
L 467.16704 100.469688 
L 468.265465 105.538605 
L 469.36389 110.92174 
L 470.462315 113.700632 
L 471.011528 114.799037 
L 471.560741 114.985425 
L 472.109953 113.877499 
L 473.757591 109.462999 
L 474.306804 107.55094 
L 474.306804 107.55094 
" clip-path="url(#p426a883bdc)" style="fill: none; stroke: #000000; stroke-width: 1.2; stroke-linecap: square"/>
   </g>
   <g id="line2d_34">
    <path d="M 35.485937 98.082942 
L 36.584363 98.136417 
L 38.232 98.422966 
L 38.781213 98.448854 
L 40.428851 98.941552 
L 40.978063 98.883349 
L 41.527276 98.704265 
L 43.174914 98.575291 
L 44.822552 97.774858 
L 45.371764 97.152701 
L 45.920977 96.839905 
L 46.470189 97.237256 
L 47.019402 97.958224 
L 47.568615 98.434004 
L 48.117827 98.754929 
L 48.66704 99.339861 
L 49.216252 99.619956 
L 49.765465 99.329839 
L 50.314678 99.421869 
L 50.86389 100.779302 
L 51.413103 101.471418 
L 51.962315 101.297227 
L 53.060741 98.410162 
L 53.609953 97.871797 
L 54.159166 97.65746 
L 54.708378 98.714032 
L 55.257591 98.545385 
L 55.806804 98.041563 
L 56.356016 97.729529 
L 56.905229 96.507892 
L 57.454441 96.270888 
L 58.003654 96.96593 
L 59.102079 96.715273 
L 59.651292 96.381175 
L 60.749717 93.778894 
L 61.29893 93.776065 
L 61.848142 92.448672 
L 62.397355 91.888308 
L 62.946567 91.783089 
L 63.49578 90.932492 
L 64.044993 91.566118 
L 64.594205 93.242695 
L 65.143418 94.131641 
L 65.69263 93.28611 
L 66.241843 93.46612 
L 67.889481 106.270378 
L 68.438693 109.617625 
L 68.987906 111.598186 
L 69.537119 111.830275 
L 70.086331 110.612542 
L 71.184756 106.946634 
L 72.283182 105.757832 
L 73.381607 101.736225 
L 73.930819 99.763928 
L 74.480032 98.58978 
L 75.029245 97.688849 
L 75.578457 97.187721 
L 76.12767 98.738812 
L 76.676882 101.538787 
L 77.226095 101.366807 
L 77.775308 97.331272 
L 78.32452 91.762969 
L 78.873733 88.352315 
L 79.422945 86.401178 
L 79.972158 87.017835 
L 80.521371 88.481904 
L 81.619796 85.330335 
L 82.169008 86.129727 
L 82.718221 89.440698 
L 83.267434 91.973552 
L 84.365859 100.584118 
L 85.464284 95.875641 
L 86.013497 93.031863 
L 86.562709 94.129022 
L 87.111922 99.20781 
L 87.661134 100.791724 
L 88.210347 101.324218 
L 88.75956 102.28879 
L 89.308772 101.087032 
L 89.857985 104.291967 
L 90.407197 109.54743 
L 90.95641 109.963257 
L 91.505623 109.512206 
L 92.054835 112.187873 
L 92.604048 113.319058 
L 93.702473 105.853062 
L 94.251686 103.521571 
L 94.800898 100.6479 
L 95.350111 96.543114 
L 95.899323 90.799124 
L 96.448536 87.720299 
L 96.997749 89.754727 
L 97.546961 89.876504 
L 98.096174 90.289087 
L 98.645386 91.365802 
L 99.194599 92.691692 
L 99.743812 94.455496 
L 100.293024 97.61328 
L 100.842237 97.868459 
L 101.391449 95.098214 
L 101.940662 95.286254 
L 102.489875 93.886921 
L 103.039087 89.643381 
L 103.5883 86.577229 
L 104.137512 84.723004 
L 104.686725 87.076758 
L 105.78515 93.743327 
L 106.334363 97.372507 
L 106.883575 98.94116 
L 107.982 103.814538 
L 108.531213 108.130026 
L 109.080426 110.424459 
L 109.629638 111.335772 
L 110.178851 109.765007 
L 111.277276 103.208876 
L 113.474126 114.104123 
L 114.023339 113.004707 
L 114.572552 113.590769 
L 115.121764 111.100731 
L 116.220189 104.933997 
L 116.769402 96.790156 
L 117.318615 85.781899 
L 117.867827 77.241011 
L 118.41704 72.176036 
L 118.966252 72.051539 
L 119.515465 72.966464 
L 120.064678 73.134861 
L 120.61389 74.670711 
L 121.163103 79.005146 
L 121.712315 86.16221 
L 122.261528 90.954153 
L 123.359953 103.237072 
L 123.909166 103.353244 
L 125.007591 97.31047 
L 126.655229 88.423126 
L 127.204441 89.657955 
L 128.302867 100.640743 
L 128.852079 109.939081 
L 129.401292 116.213565 
L 129.950504 120.847851 
L 130.499717 122.247199 
L 131.04893 119.847959 
L 131.598142 119.084828 
L 132.147355 116.671457 
L 132.696567 112.352305 
L 133.24578 106.992924 
L 133.794993 97.515495 
L 134.344205 91.550816 
L 134.893418 89.194725 
L 135.44263 85.659488 
L 135.991843 87.062483 
L 137.090268 96.339898 
L 137.639481 102.170778 
L 138.188693 103.151977 
L 138.737906 99.971324 
L 139.287119 98.069166 
L 139.836331 94.767131 
L 140.385544 88.16549 
L 140.934756 85.59848 
L 141.483969 86.086613 
L 142.033182 84.678163 
L 142.582394 82.89411 
L 143.131607 83.471831 
L 143.680819 90.372956 
L 144.779245 110.362228 
L 145.328457 116.046898 
L 145.87767 116.565951 
L 146.426882 114.610008 
L 147.525308 106.879054 
L 148.07452 106.998318 
L 148.623733 104.499718 
L 149.172945 100.893105 
L 149.722158 98.498292 
L 150.271371 93.12384 
L 150.820583 89.891115 
L 151.369796 92.612293 
L 151.919008 96.802767 
L 152.468221 98.442312 
L 154.115859 94.172849 
L 154.665071 92.878617 
L 155.763497 80.052433 
L 156.312709 79.982203 
L 156.861922 83.487964 
L 157.960347 92.422795 
L 158.50956 99.313537 
L 159.058772 104.571821 
L 159.607985 107.572424 
L 160.157197 105.435785 
L 160.70641 106.99273 
L 161.255623 109.494341 
L 161.804835 112.782661 
L 162.354048 113.559971 
L 162.90326 107.49903 
L 163.452473 104.83778 
L 164.001686 106.097313 
L 165.100111 110.727102 
L 165.649323 114.248125 
L 166.747749 117.454917 
L 167.296961 115.352377 
L 167.846174 109.38471 
L 168.395386 105.803729 
L 168.944599 100.207687 
L 169.493812 91.301309 
L 170.043024 84.808748 
L 171.141449 67.099989 
L 171.690662 66.999516 
L 172.239875 67.979013 
L 172.789087 70.624338 
L 173.3383 76.238583 
L 173.887512 78.386924 
L 174.985938 84.112053 
L 176.633575 85.586406 
L 177.182788 88.970237 
L 177.732 88.940444 
L 178.281213 89.261997 
L 178.830426 91.279181 
L 179.379638 89.727019 
L 179.928851 92.801708 
L 180.478063 102.554268 
L 181.027276 109.976188 
L 182.125701 118.799279 
L 182.674914 121.11924 
L 183.224126 122.805542 
L 183.773339 121.41803 
L 184.322552 121.598033 
L 184.871764 123.249195 
L 185.420977 121.981146 
L 186.519402 108.792942 
L 187.068615 106.621048 
L 187.617827 107.739971 
L 188.16704 113.187775 
L 188.716252 113.464151 
L 189.265465 114.105465 
L 189.814678 111.989986 
L 190.36389 107.164742 
L 191.462315 94.531184 
L 192.011528 93.337114 
L 192.560741 88.537722 
L 193.659166 67.067867 
L 194.208378 60.65411 
L 194.757591 57.966493 
L 195.306804 57.297229 
L 195.856016 59.980169 
L 196.405229 68.439177 
L 196.954441 79.086412 
L 197.503654 86.128751 
L 198.052867 90.360989 
L 198.602079 92.986736 
L 199.151292 93.393102 
L 199.700504 95.445679 
L 200.79893 100.98804 
L 201.348142 105.898495 
L 201.897355 105.658124 
L 202.446567 101.235439 
L 202.99578 100.755311 
L 203.544993 105.594479 
L 205.19263 130.294255 
L 205.741843 135.809055 
L 206.291056 133.549709 
L 206.840268 131.797286 
L 207.389481 131.590067 
L 207.938693 127.287354 
L 208.487906 125.619632 
L 209.037119 121.819194 
L 209.586331 111.721263 
L 210.135544 105.335134 
L 210.684756 101.387577 
L 211.233969 99.507139 
L 211.783182 95.187665 
L 212.332394 88.607206 
L 212.881607 86.376274 
L 213.430819 85.129127 
L 213.980032 81.288493 
L 214.529245 79.067191 
L 215.078457 75.190335 
L 215.62767 69.754846 
L 217.275308 58.798677 
L 217.82452 61.355566 
L 218.373733 67.51914 
L 219.472158 75.860701 
L 221.119796 86.623434 
L 221.669008 91.608623 
L 222.218221 100.23363 
L 222.767434 110.871697 
L 223.316646 119.139795 
L 223.865859 123.767516 
L 224.415071 126.041957 
L 224.964284 129.046358 
L 225.513497 133.575038 
L 226.062709 135.971282 
L 227.161134 145.574716 
L 227.710347 144.494613 
L 228.808772 133.25343 
L 229.907197 116.121407 
L 231.005623 105.907186 
L 231.554835 100.493962 
L 232.104048 96.694562 
L 232.65326 91.533704 
L 233.751686 76.546588 
L 234.850111 64.862302 
L 235.399323 63.059349 
L 235.948536 61.750681 
L 237.596174 49.914448 
L 238.145386 50.832279 
L 238.694599 54.262781 
L 241.440662 90.568743 
L 241.989875 95.786835 
L 242.539087 98.609466 
L 243.0883 103.209384 
L 243.637512 109.680054 
L 244.186725 111.702897 
L 244.735938 115.717171 
L 245.28515 121.815969 
L 246.383575 129.293759 
L 246.932788 132.725434 
L 247.482 137.800442 
L 248.031213 139.847239 
L 248.580426 140.377091 
L 249.129638 139.79359 
L 249.678851 135.876491 
L 252.424914 96.646115 
L 253.523339 86.399992 
L 254.621764 80.558504 
L 255.170977 76.966236 
L 255.720189 72.46199 
L 256.269402 70.224421 
L 256.818615 70.634945 
L 257.367827 69.030405 
L 257.91704 68.054112 
L 258.466252 64.812015 
L 259.015465 63.688592 
L 259.564678 66.043364 
L 260.11389 67.374225 
L 260.663103 72.695044 
L 261.212315 81.422386 
L 261.761528 87.169656 
L 262.310741 90.174919 
L 262.859953 95.67057 
L 263.409166 103.760697 
L 263.958378 109.304534 
L 264.507591 117.115855 
L 265.056804 121.9809 
L 265.606016 121.178558 
L 266.704441 121.44088 
L 267.253654 123.553601 
L 267.802867 129.195957 
L 268.352079 132.565383 
L 268.901292 132.445874 
L 269.450504 128.794323 
L 269.999717 120.35166 
L 270.54893 115.70129 
L 271.098142 115.326427 
L 272.196567 110.092511 
L 273.294993 97.454596 
L 274.393418 83.740462 
L 274.94263 83.262516 
L 275.491843 83.500877 
L 276.041056 80.612493 
L 276.590268 76.230756 
L 277.139481 74.650893 
L 277.688693 74.237796 
L 278.237906 75.217935 
L 278.787119 79.211559 
L 279.336331 78.518314 
L 279.885544 73.395278 
L 280.434756 70.46443 
L 280.983969 71.322371 
L 281.533182 76.265291 
L 282.631607 93.674487 
L 283.180819 100.799328 
L 283.730032 106.393925 
L 284.279245 108.534905 
L 284.828457 112.288764 
L 285.926882 129.726266 
L 286.476095 131.200429 
L 287.025308 128.671667 
L 287.57452 124.36669 
L 288.123733 118.105723 
L 289.222158 108.991882 
L 289.771371 101.58296 
L 290.320583 99.032937 
L 290.869796 100.349925 
L 291.419008 102.44554 
L 291.968221 103.389077 
L 292.517434 103.388205 
L 293.066646 98.463014 
L 293.615859 91.20002 
L 294.165071 85.662421 
L 294.714284 83.809088 
L 295.263497 86.124961 
L 295.812709 90.517728 
L 296.361922 92.245179 
L 296.911134 87.062668 
L 297.460347 83.08636 
L 298.00956 83.645861 
L 298.558772 90.046675 
L 299.107985 99.12495 
L 299.657197 103.189793 
L 300.20641 103.902422 
L 300.755623 103.479973 
L 301.304835 100.667531 
L 301.854048 94.808661 
L 302.40326 90.845896 
L 302.952473 88.044723 
L 303.501686 87.021214 
L 304.050898 84.601185 
L 304.600111 85.126718 
L 305.698536 95.201527 
L 306.247749 97.990255 
L 307.346174 97.875303 
L 307.895386 98.694367 
L 308.993812 104.862846 
L 309.543024 107.262641 
L 310.092237 106.273331 
L 310.641449 100.571594 
L 311.190662 97.067195 
L 311.739875 95.749141 
L 312.289087 96.157467 
L 312.8383 102.934496 
L 313.387512 111.791523 
L 313.936725 117.044256 
L 314.485937 118.579414 
L 315.03515 117.601516 
L 315.584363 116.044979 
L 316.133575 113.96259 
L 317.232 106.397558 
L 317.781213 104.624154 
L 318.330426 101.432282 
L 318.879638 94.114124 
L 319.428851 85.145744 
L 319.978063 78.4394 
L 320.527276 74.780231 
L 321.076489 72.529313 
L 321.625701 73.376695 
L 322.724126 85.969961 
L 323.273339 87.384601 
L 323.822552 85.519964 
L 324.371764 81.410242 
L 324.920977 79.594522 
L 326.568615 92.406102 
L 327.117827 97.803331 
L 327.66704 99.811034 
L 328.216252 97.876849 
L 328.765465 98.155398 
L 329.314678 100.355171 
L 329.86389 104.778307 
L 330.413103 111.669107 
L 330.962315 115.534465 
L 331.511528 117.405048 
L 332.060741 117.659226 
L 332.609953 116.131891 
L 333.159166 114.231721 
L 333.708378 111.844706 
L 334.257591 111.636308 
L 334.806804 114.620378 
L 335.356016 115.969195 
L 335.905229 115.895023 
L 336.454441 114.987755 
L 337.003654 112.63693 
L 337.552867 108.129489 
L 338.651292 96.161744 
L 339.200504 92.307311 
L 339.749717 89.929632 
L 340.29893 85.221129 
L 341.397355 73.606774 
L 341.946567 70.137507 
L 342.49578 67.617757 
L 343.044993 66.337627 
L 343.594205 70.449625 
L 344.69263 84.650458 
L 345.241843 89.2202 
L 345.791056 90.730554 
L 346.340268 92.996536 
L 346.889481 96.465433 
L 347.438693 98.48338 
L 347.987906 100.953091 
L 348.537119 105.043432 
L 350.733969 124.749875 
L 351.283182 127.80005 
L 351.832394 130.033914 
L 352.381607 130.632836 
L 353.480032 128.235465 
L 354.029245 126.38452 
L 354.578457 121.130885 
L 355.12767 112.324704 
L 356.226095 90.591734 
L 356.775308 82.713609 
L 357.32452 77.473664 
L 357.873733 75.174852 
L 358.422945 75.649655 
L 358.972158 75.840347 
L 361.169008 71.472703 
L 361.718221 71.051794 
L 362.267434 71.973151 
L 362.816646 74.155326 
L 365.013497 85.94677 
L 365.562709 87.78024 
L 366.111922 91.320393 
L 367.75956 112.318914 
L 368.308772 115.837041 
L 369.407197 115.694383 
L 369.95641 115.280331 
L 370.505623 115.18899 
L 371.054835 117.83001 
L 371.604048 122.504789 
L 372.15326 126.14222 
L 372.702473 127.581892 
L 373.251686 127.031362 
L 374.350111 122.37674 
L 375.448536 116.51782 
L 376.546961 108.856492 
L 377.096174 103.213281 
L 378.743812 81.431101 
L 379.293024 77.202162 
L 379.842237 75.290349 
L 380.391449 75.824846 
L 380.940662 77.152798 
L 381.489875 77.117944 
L 382.039087 74.485922 
L 382.5883 72.605393 
L 383.137512 72.567607 
L 384.235937 76.408559 
L 384.78515 78.077007 
L 385.883575 84.282145 
L 386.432788 86.704185 
L 387.531213 96.109206 
L 388.629638 106.878346 
L 390.277276 117.985273 
L 390.826489 120.400102 
L 391.375701 121.594853 
L 391.924914 121.672844 
L 392.474126 120.546675 
L 393.023339 120.385324 
L 393.572552 121.761232 
L 394.121764 122.433376 
L 394.670977 121.497441 
L 395.220189 118.597368 
L 396.318615 108.969828 
L 396.867827 104.759224 
L 398.515465 88.663541 
L 399.61389 77.38352 
L 400.163103 73.287545 
L 400.712315 70.848116 
L 401.810741 71.739553 
L 402.359953 71.849454 
L 402.909166 72.857475 
L 403.458378 74.881075 
L 405.106016 83.710399 
L 405.655229 84.915045 
L 406.204441 87.696203 
L 407.852079 101.170978 
L 409.499717 117.319749 
L 410.04893 121.405063 
L 410.598142 124.108294 
L 411.147355 124.653721 
L 411.696567 124.112325 
L 412.24578 122.437491 
L 412.794993 118.814889 
L 413.344205 114.261329 
L 413.893418 111.017737 
L 416.090268 100.804032 
L 416.639481 99.457625 
L 417.188693 99.765647 
L 417.737906 98.677611 
L 418.287119 96.655191 
L 419.385544 89.657726 
L 419.934756 85.465756 
L 421.033182 75.587338 
L 421.582394 72.693972 
L 422.131607 71.783588 
L 422.680819 73.531796 
L 423.230032 76.002957 
L 423.779245 79.528979 
L 424.87767 87.386815 
L 427.07452 103.801379 
L 427.623733 106.485418 
L 428.172945 107.92829 
L 428.722158 108.314382 
L 429.271371 108.085996 
L 429.820583 109.315603 
L 430.919008 115.84147 
L 431.468221 118.287421 
L 432.017434 119.424388 
L 433.115859 120.013634 
L 433.665071 118.522364 
L 434.214284 114.888662 
L 436.960347 92.061348 
L 437.50956 89.572424 
L 438.058772 87.89391 
L 439.157197 83.205467 
L 439.70641 81.749663 
L 440.255623 81.814837 
L 440.804835 82.317671 
L 441.354048 82.336896 
L 443.550898 79.00221 
L 444.100111 80.159111 
L 444.649323 83.291229 
L 445.198536 87.280558 
L 446.846174 103.870426 
L 447.395386 107.692224 
L 449.043024 115.357472 
L 449.592237 116.163805 
L 450.690662 116.428897 
L 451.239875 115.632226 
L 452.3383 111.951472 
L 452.887512 111.103515 
L 453.436725 110.700466 
L 455.084363 107.890373 
L 455.633575 106.202559 
L 456.182788 103.347086 
L 457.281213 95.030987 
L 458.379638 85.812808 
L 458.928851 82.310445 
L 459.478063 79.946474 
L 460.027276 78.806534 
L 460.576489 78.896017 
L 461.674914 79.534705 
L 462.224126 80.606124 
L 462.773339 82.455986 
L 463.871764 88.345978 
L 464.970189 94.087683 
L 465.519402 95.968435 
L 466.068615 97.148379 
L 467.16704 100.846156 
L 468.265465 105.762656 
L 469.36389 111.496425 
L 469.913103 112.938733 
L 470.462315 113.732787 
L 471.011528 114.142654 
L 471.560741 113.682257 
L 472.659166 111.459175 
L 473.208378 111.074886 
L 473.757591 110.895196 
L 474.306804 108.463169 
L 474.306804 108.463169 
" clip-path="url(#p426a883bdc)" style="fill: none; stroke-dasharray: 4.44,1.92; stroke-dashoffset: 0; stroke: #ff0000; stroke-width: 1.2"/>
   </g>
   <g id="line2d_35">
    <path d="M 35.485937 98.085993 
L 36.584363 98.141005 
L 38.232 98.418873 
L 38.781213 98.445589 
L 40.428851 98.915236 
L 43.174914 98.550757 
L 44.273339 97.911783 
L 44.822552 97.800784 
L 45.371764 97.203246 
L 45.920977 96.851696 
L 46.470189 97.233831 
L 47.019402 97.969361 
L 47.568615 98.45404 
L 48.117827 98.779661 
L 48.66704 99.363652 
L 49.216252 99.677409 
L 49.765465 99.344004 
L 50.314678 99.453308 
L 50.86389 100.805082 
L 51.413103 101.486272 
L 51.962315 101.220283 
L 53.060741 98.452588 
L 53.609953 98.000624 
L 54.159166 97.741235 
L 54.708378 98.695875 
L 55.257591 98.550068 
L 55.806804 98.047955 
L 56.356016 97.769121 
L 56.905229 96.581167 
L 57.454441 96.351924 
L 58.003654 96.98071 
L 59.651292 96.329018 
L 60.749717 93.71549 
L 61.29893 93.600709 
L 61.848142 92.452213 
L 62.397355 91.926846 
L 62.946567 91.663495 
L 63.49578 90.98943 
L 64.044993 91.629114 
L 64.594205 93.205655 
L 65.143418 94.158016 
L 65.69263 93.453763 
L 66.241843 93.605286 
L 66.791056 97.86704 
L 67.340268 103.021612 
L 68.438693 109.478764 
L 68.987906 111.718135 
L 69.537119 111.959485 
L 70.086331 110.711095 
L 71.184756 107.11381 
L 72.283182 105.64201 
L 72.832394 103.900693 
L 73.930819 99.69247 
L 75.029245 97.728082 
L 75.578457 97.277171 
L 76.12767 98.895734 
L 76.676882 101.409834 
L 77.226095 101.251931 
L 77.775308 97.517132 
L 78.32452 92.197598 
L 78.873733 88.502544 
L 79.422945 86.532088 
L 79.972158 87.131308 
L 80.521371 88.39045 
L 81.619796 85.507413 
L 82.169008 86.26388 
L 83.267434 92.04014 
L 84.365859 100.772112 
L 84.915071 98.671944 
L 86.013497 93.218204 
L 86.562709 94.037134 
L 87.111922 99.054969 
L 87.661134 100.691183 
L 88.75956 102.265629 
L 89.308772 101.194925 
L 89.857985 104.485836 
L 90.407197 109.580732 
L 90.95641 109.959434 
L 91.505623 110.028058 
L 92.054835 112.208325 
L 92.604048 113.032633 
L 93.702473 105.845376 
L 94.800898 100.614042 
L 95.350111 96.51754 
L 95.899323 90.953224 
L 96.448536 87.765287 
L 96.997749 89.887909 
L 98.096174 90.422664 
L 98.645386 91.321276 
L 99.194599 92.80164 
L 99.743812 94.762044 
L 100.293024 97.465599 
L 100.842237 97.686366 
L 101.391449 95.273542 
L 101.940662 95.095113 
L 102.489875 93.378135 
L 103.039087 89.63516 
L 103.5883 86.728759 
L 104.137512 84.441624 
L 104.686725 86.688866 
L 106.334363 97.14596 
L 106.883575 98.911576 
L 107.432788 101.951571 
L 107.982 104.186823 
L 108.531213 107.963192 
L 109.080426 110.42418 
L 109.629638 111.623426 
L 110.178851 109.896618 
L 111.277276 103.180169 
L 112.924914 111.245121 
L 113.474126 114.28335 
L 114.023339 112.792351 
L 114.572552 113.336362 
L 115.121764 111.227062 
L 116.220189 104.751274 
L 116.769402 96.409577 
L 117.318615 85.766378 
L 117.867827 77.348278 
L 118.41704 72.054989 
L 118.966252 72.103623 
L 119.515465 72.842077 
L 120.064678 73.028788 
L 120.61389 74.825385 
L 121.163103 79.234991 
L 121.712315 86.154775 
L 122.261528 91.024448 
L 123.359953 103.473421 
L 123.909166 103.135442 
L 126.106016 91.855664 
L 126.655229 88.265704 
L 127.204441 89.885339 
L 128.302867 100.237386 
L 128.852079 109.680403 
L 129.401292 116.162272 
L 129.950504 120.507257 
L 130.499717 122.04942 
L 131.04893 119.636997 
L 131.598142 119.030062 
L 132.147355 116.736846 
L 132.696567 112.317173 
L 133.24578 106.906518 
L 133.794993 97.289782 
L 134.344205 91.788509 
L 134.893418 89.411687 
L 135.44263 85.531893 
L 135.991843 87.196973 
L 137.090268 95.985344 
L 137.639481 101.854033 
L 138.188693 103.007652 
L 139.836331 94.612182 
L 140.385544 88.620961 
L 140.934756 85.817672 
L 141.483969 85.883898 
L 142.033182 84.720031 
L 142.582394 83.127334 
L 143.131607 83.498088 
L 143.680819 90.575929 
L 144.779245 110.127474 
L 145.328457 115.69592 
L 145.87767 116.791643 
L 146.426882 114.707432 
L 147.525308 106.962332 
L 148.07452 106.994306 
L 148.623733 104.361873 
L 149.172945 100.982208 
L 149.722158 98.345251 
L 150.271371 93.351149 
L 150.820583 90.145701 
L 151.369796 92.304417 
L 151.919008 96.496472 
L 152.468221 98.762094 
L 153.017434 97.383345 
L 153.566646 95.617447 
L 154.115859 94.646308 
L 154.665071 92.742589 
L 155.763497 79.8148 
L 156.312709 80.053772 
L 157.411134 87.363649 
L 157.960347 91.942988 
L 158.50956 99.274178 
L 159.058772 104.771171 
L 159.607985 107.536113 
L 160.157197 105.086979 
L 160.70641 106.842002 
L 161.804835 112.185749 
L 162.354048 113.252659 
L 162.90326 107.557863 
L 163.452473 105.04884 
L 164.001686 106.440766 
L 164.550898 108.641484 
L 165.649323 114.374129 
L 166.198536 116.188884 
L 166.747749 117.433311 
L 167.296961 115.50497 
L 167.846174 109.607219 
L 168.395386 105.835604 
L 168.944599 100.108273 
L 169.493812 91.510358 
L 170.043024 84.881757 
L 171.141449 66.892662 
L 171.690662 66.933291 
L 172.239875 67.739904 
L 172.789087 70.579572 
L 173.3383 76.8032 
L 173.887512 78.907573 
L 174.436725 82.222962 
L 174.985938 84.282905 
L 175.53515 84.745497 
L 176.084363 84.981261 
L 176.633575 85.341585 
L 177.182788 88.616157 
L 177.732 88.821514 
L 178.281213 88.900526 
L 178.830426 91.168561 
L 179.379638 89.906503 
L 179.928851 93.200271 
L 181.027276 110.241116 
L 182.125701 119.389985 
L 183.224126 123.74542 
L 183.773339 121.790779 
L 184.322552 122.343003 
L 184.871764 124.085605 
L 185.420977 122.327355 
L 185.970189 114.801354 
L 186.519402 109.260513 
L 187.068615 106.879336 
L 187.617827 108.015677 
L 188.16704 113.099371 
L 189.265465 114.300594 
L 189.814678 112.51245 
L 190.36389 107.273638 
L 191.462315 94.979494 
L 192.011528 93.994081 
L 192.560741 88.345434 
L 193.659166 67.799263 
L 194.208378 61.259907 
L 194.757591 57.973299 
L 195.306804 57.125406 
L 195.856016 60.046207 
L 196.405229 68.270376 
L 196.954441 78.452262 
L 197.503654 85.743691 
L 198.052867 90.512321 
L 198.602079 93.102453 
L 199.151292 93.600802 
L 200.249717 98.795708 
L 200.79893 101.561993 
L 201.348142 106.370214 
L 201.897355 105.833048 
L 202.446567 101.415653 
L 202.99578 101.26703 
L 203.544993 105.615247 
L 205.741843 135.480099 
L 206.291056 132.670391 
L 206.840268 131.070831 
L 207.389481 131.311654 
L 207.938693 126.679836 
L 208.487906 125.59048 
L 209.037119 122.199627 
L 209.586331 112.488814 
L 210.135544 106.143664 
L 210.684756 101.424247 
L 211.233969 99.766362 
L 211.783182 95.320708 
L 212.332394 88.280569 
L 213.430819 84.629473 
L 213.980032 80.622138 
L 214.529245 79.436896 
L 215.078457 75.182262 
L 215.62767 69.564892 
L 217.275308 58.664979 
L 217.82452 61.219896 
L 218.373733 67.760438 
L 218.922945 72.136342 
L 220.021371 79.519228 
L 220.570583 83.603483 
L 221.119796 86.562341 
L 221.669008 91.59283 
L 223.316646 119.02011 
L 223.865859 124.138105 
L 224.964284 128.875514 
L 225.513497 133.238033 
L 226.062709 136.344031 
L 227.161134 145.411837 
L 227.710347 144.403208 
L 228.25956 139.091365 
L 229.357985 125.413453 
L 229.907197 116.395141 
L 231.554835 101.022691 
L 232.104048 96.750376 
L 232.65326 91.412166 
L 234.850111 64.916176 
L 235.399323 63.336419 
L 235.948536 62.202092 
L 237.046961 54.097994 
L 237.596174 50.052761 
L 238.145386 51.119291 
L 238.694599 54.391727 
L 240.342237 76.286953 
L 240.891449 84.744421 
L 241.989875 96.241717 
L 242.539087 98.680387 
L 243.0883 103.181049 
L 243.637512 109.905365 
L 244.186725 111.877743 
L 244.735938 116.406241 
L 245.28515 122.379498 
L 246.932788 132.992024 
L 247.482 138.230003 
L 248.031213 140.178416 
L 248.580426 140.56389 
L 249.129638 140.092864 
L 249.678851 136.268012 
L 251.875701 101.914752 
L 253.523339 85.994942 
L 254.621764 80.4327 
L 255.170977 77.114664 
L 255.720189 72.323913 
L 256.269402 70.548838 
L 256.818615 70.88202 
L 257.367827 68.755453 
L 257.91704 67.883663 
L 258.466252 65.334959 
L 259.015465 63.821014 
L 260.11389 67.482699 
L 260.663103 72.826278 
L 261.212315 80.843613 
L 261.761528 86.825501 
L 262.310741 90.360619 
L 262.859953 95.30769 
L 263.409166 103.206417 
L 263.958378 109.406429 
L 264.507591 117.226379 
L 265.056804 122.089119 
L 265.606016 121.489778 
L 266.155229 121.94228 
L 266.704441 121.778671 
L 267.253654 124.010594 
L 267.802867 129.762413 
L 268.352079 132.784932 
L 268.901292 132.45072 
L 269.450504 129.026604 
L 269.999717 120.663642 
L 270.54893 116.119686 
L 271.098142 115.286782 
L 272.196567 110.03342 
L 273.294993 97.112324 
L 274.393418 83.530801 
L 274.94263 82.968639 
L 275.491843 83.28956 
L 276.041056 80.812649 
L 276.590268 76.578053 
L 277.139481 74.654414 
L 277.688693 74.455618 
L 278.237906 75.532442 
L 278.787119 79.2034 
L 279.336331 78.296404 
L 279.885544 73.345152 
L 280.434756 70.275398 
L 280.983969 71.237098 
L 281.533182 76.386783 
L 282.631607 93.822755 
L 283.730032 106.651409 
L 284.279245 108.977129 
L 284.828457 112.656061 
L 285.926882 129.854393 
L 286.476095 131.618154 
L 287.025308 128.443506 
L 287.57452 124.232778 
L 288.123733 118.307456 
L 289.222158 108.606732 
L 289.771371 101.739695 
L 290.320583 99.238263 
L 290.869796 99.843183 
L 291.419008 101.960677 
L 291.968221 103.466775 
L 292.517434 103.23996 
L 293.066646 98.199091 
L 294.165071 85.829824 
L 294.714284 84.031926 
L 295.263497 86.090826 
L 295.812709 90.295475 
L 296.361922 92.24637 
L 297.460347 83.165926 
L 298.00956 83.574081 
L 298.558772 90.274106 
L 299.107985 99.068366 
L 299.657197 103.052471 
L 300.20641 104.115442 
L 300.755623 103.825325 
L 301.304835 100.627871 
L 301.854048 94.984232 
L 302.40326 90.889376 
L 302.952473 88.216214 
L 303.501686 87.179207 
L 304.050898 84.88281 
L 304.600111 85.028679 
L 305.698536 95.285516 
L 306.247749 97.855094 
L 306.796961 97.823082 
L 307.346174 98.020407 
L 307.895386 98.929104 
L 309.543024 107.505246 
L 310.092237 106.385549 
L 310.641449 100.529908 
L 311.190662 97.232432 
L 311.739875 96.160638 
L 312.289087 96.410822 
L 312.8383 102.866057 
L 313.387512 111.5593 
L 313.936725 117.246549 
L 314.485937 118.51023 
L 315.584363 116.180182 
L 316.133575 114.344897 
L 317.232 106.096878 
L 317.781213 104.468727 
L 318.330426 101.34031 
L 318.879638 93.941761 
L 319.428851 84.898548 
L 319.978063 78.579312 
L 320.527276 75.129859 
L 321.076489 72.638011 
L 321.625701 73.295564 
L 322.724126 86.170151 
L 323.273339 87.141514 
L 323.822552 85.312604 
L 324.371764 81.883428 
L 324.920977 80.002484 
L 325.470189 83.387862 
L 326.568615 92.457108 
L 327.117827 97.637441 
L 327.66704 99.449892 
L 328.216252 97.887665 
L 328.765465 98.369052 
L 329.314678 100.539593 
L 329.86389 104.766641 
L 330.413103 111.509875 
L 330.962315 115.612996 
L 331.511528 117.587842 
L 332.060741 117.545795 
L 333.159166 114.657581 
L 333.708378 112.007347 
L 334.257591 111.563702 
L 334.806804 114.500138 
L 335.356016 116.114134 
L 335.905229 115.687654 
L 336.454441 114.926545 
L 337.003654 112.74 
L 337.552867 108.429615 
L 338.651292 96.348744 
L 339.200504 92.342921 
L 339.749717 89.80054 
L 340.29893 85.105914 
L 341.397355 73.509568 
L 342.49578 67.736691 
L 343.044993 66.306057 
L 343.594205 70.487466 
L 344.69263 84.410814 
L 345.241843 88.934395 
L 345.791056 90.826384 
L 347.987906 101.115376 
L 349.086331 109.861492 
L 350.733969 124.738284 
L 351.283182 127.679621 
L 351.832394 129.977421 
L 352.381607 130.627833 
L 352.930819 129.572116 
L 353.480032 128.006347 
L 354.029245 126.098886 
L 354.578457 120.954304 
L 355.12767 112.372349 
L 356.226095 90.807499 
L 356.775308 83.017453 
L 357.32452 77.760422 
L 357.873733 75.31607 
L 358.422945 75.777896 
L 358.972158 75.890255 
L 360.070583 73.946816 
L 361.169008 71.859711 
L 361.718221 71.369988 
L 362.267434 72.100988 
L 362.816646 74.133879 
L 365.013497 85.896818 
L 365.562709 87.875513 
L 366.111922 91.266275 
L 367.75956 112.347476 
L 368.308772 115.709209 
L 369.407197 115.922632 
L 370.505623 115.272296 
L 371.054835 117.972866 
L 371.604048 122.530455 
L 372.15326 126.095312 
L 372.702473 127.365774 
L 373.251686 126.958915 
L 373.800898 125.042291 
L 374.899323 119.353556 
L 375.448536 116.499818 
L 376.546961 108.52791 
L 377.096174 102.897422 
L 378.743812 81.510982 
L 379.293024 77.256682 
L 379.842237 75.357682 
L 380.391449 75.814232 
L 380.940662 77.283047 
L 381.489875 77.055537 
L 382.039087 74.588149 
L 382.5883 72.811041 
L 383.137512 72.916586 
L 383.686725 74.507338 
L 384.235937 76.491876 
L 384.78515 77.963295 
L 385.334363 81.386073 
L 386.432788 86.737148 
L 386.982 90.931797 
L 388.629638 106.92129 
L 390.277276 118.074385 
L 390.826489 120.472162 
L 391.375701 121.662705 
L 391.924914 121.811544 
L 392.474126 120.652009 
L 393.023339 120.377611 
L 393.572552 121.576182 
L 394.121764 122.355196 
L 394.670977 121.319759 
L 395.220189 118.270007 
L 397.966252 94.078481 
L 400.163103 73.357239 
L 400.712315 71.004711 
L 401.261528 71.317214 
L 401.810741 71.846345 
L 402.359953 71.982154 
L 402.909166 73.013216 
L 403.458378 75.010897 
L 405.106016 83.852289 
L 405.655229 85.013127 
L 406.204441 87.71995 
L 408.401292 106.689138 
L 409.499717 117.275587 
L 410.04893 121.292407 
L 410.598142 124.070541 
L 411.147355 124.660411 
L 411.696567 124.047035 
L 412.24578 122.352152 
L 412.794993 118.852631 
L 413.344205 114.202544 
L 413.893418 110.909943 
L 416.090268 100.770302 
L 416.639481 99.366969 
L 417.188693 99.639455 
L 417.737906 98.643002 
L 418.287119 96.582587 
L 419.385544 89.627224 
L 419.934756 85.5555 
L 420.483969 79.891089 
L 421.033182 75.39638 
L 421.582394 72.758445 
L 422.131607 71.718145 
L 422.680819 73.311514 
L 423.230032 75.962007 
L 424.87767 87.436835 
L 427.07452 103.938443 
L 427.623733 106.522195 
L 428.172945 107.969372 
L 428.722158 108.338792 
L 429.271371 108.080747 
L 429.820583 109.241705 
L 430.919008 115.607993 
L 431.468221 118.043609 
L 432.017434 119.128416 
L 432.566646 119.62957 
L 433.115859 119.911843 
L 433.665071 118.446966 
L 434.214284 114.882442 
L 436.960347 92.046036 
L 437.50956 89.475832 
L 438.058772 87.761957 
L 439.70641 81.735387 
L 440.255623 81.725255 
L 440.804835 82.294377 
L 441.354048 82.233412 
L 441.90326 81.464328 
L 442.452473 80.368216 
L 443.550898 79.07577 
L 444.100111 80.284359 
L 444.649323 83.314962 
L 445.198536 87.28291 
L 447.395386 107.655713 
L 449.043024 115.426855 
L 449.592237 116.086433 
L 450.690662 116.315789 
L 451.239875 115.581099 
L 452.3383 111.854367 
L 452.887512 111.103187 
L 453.436725 110.738934 
L 455.084363 107.854567 
L 455.633575 106.205388 
L 456.182788 103.294746 
L 457.281213 95.073015 
L 458.379638 85.713319 
L 458.928851 82.202245 
L 459.478063 79.92765 
L 460.027276 78.787222 
L 460.576489 78.673588 
L 461.125701 79.021048 
L 461.674914 79.594404 
L 462.224126 80.717761 
L 462.773339 82.48191 
L 465.519402 95.957599 
L 466.617827 98.615776 
L 467.16704 100.43649 
L 468.265465 105.49016 
L 469.36389 110.896377 
L 470.462315 113.632281 
L 471.011528 114.778032 
L 471.560741 115.002055 
L 472.109953 113.867751 
L 474.306804 107.499187 
L 474.306804 107.499187 
" clip-path="url(#p426a883bdc)" style="fill: none; stroke-dasharray: 7.68,1.92,1.2,1.92; stroke-dashoffset: 0; stroke: #0000ff; stroke-width: 1.2"/>
   </g>
   <g id="line2d_36">
    <path d="M 35.485937 98.085993 
L 37.133575 98.187086 
L 40.978063 98.76395 
L 41.527276 98.51574 
L 43.724126 98.328111 
L 44.273339 97.937584 
L 45.371764 97.6832 
L 45.920977 96.939288 
L 47.019402 97.664609 
L 47.568615 98.444748 
L 48.117827 98.301993 
L 48.66704 98.859876 
L 49.216252 99.077159 
L 49.765465 99.092677 
L 50.314678 98.510949 
L 51.413103 100.537098 
L 51.962315 100.404932 
L 52.511528 99.795997 
L 53.060741 97.80128 
L 53.609953 97.982862 
L 54.159166 97.502185 
L 54.708378 98.450808 
L 55.257591 99.065717 
L 55.806804 97.954699 
L 56.356016 98.142622 
L 57.454441 96.33875 
L 58.003654 96.877115 
L 58.552867 97.004199 
L 59.102079 96.296979 
L 59.651292 96.119865 
L 60.200504 95.605436 
L 60.749717 94.177549 
L 61.29893 93.596651 
L 61.848142 93.605522 
L 62.397355 92.010749 
L 62.946567 93.277106 
L 63.49578 92.532602 
L 64.044993 93.078781 
L 64.594205 93.916025 
L 65.143418 95.683767 
L 65.69263 95.312833 
L 66.241843 94.739612 
L 66.791056 96.704179 
L 67.340268 102.229716 
L 68.987906 108.704322 
L 69.537119 109.420562 
L 70.086331 108.667279 
L 71.184756 106.315441 
L 71.733969 104.782219 
L 72.283182 105.739679 
L 73.381607 103.061947 
L 73.930819 100.891384 
L 74.480032 100.329029 
L 75.029245 99.044805 
L 75.578457 98.36885 
L 76.12767 98.32143 
L 76.676882 100.613643 
L 77.226095 100.181007 
L 77.775308 96.837831 
L 78.32452 91.157819 
L 78.873733 86.967743 
L 79.422945 85.264272 
L 79.972158 84.846739 
L 80.521371 87.498269 
L 81.070583 87.398122 
L 81.619796 85.828495 
L 82.169008 86.503607 
L 82.718221 89.333291 
L 83.267434 93.173713 
L 83.816646 94.928464 
L 84.365859 101.340117 
L 84.915071 100.79874 
L 85.464284 97.528641 
L 86.013497 96.441145 
L 86.562709 93.611778 
L 87.111922 98.144437 
L 87.661134 100.510256 
L 88.210347 101.030023 
L 88.75956 101.775465 
L 89.308772 102.155401 
L 89.857985 102.131923 
L 90.407197 108.733673 
L 90.95641 109.975069 
L 91.505623 109.71411 
L 92.054835 109.941908 
L 92.604048 113.51559 
L 93.702473 105.274511 
L 94.251686 103.200268 
L 95.899323 94.798493 
L 96.448536 90.14083 
L 96.997749 90.2526 
L 97.546961 92.167445 
L 98.096174 90.777038 
L 98.645386 91.961818 
L 99.194599 91.245825 
L 99.743812 94.431042 
L 100.293024 94.009477 
L 100.842237 96.752868 
L 101.391449 92.78024 
L 101.940662 92.908125 
L 102.489875 92.652092 
L 103.5883 86.815658 
L 104.137512 87.145024 
L 104.686725 86.686578 
L 105.235938 93.239473 
L 105.78515 94.579217 
L 106.334363 101.439495 
L 106.883575 100.710129 
L 107.432788 103.973578 
L 107.982 104.881607 
L 109.080426 109.360794 
L 110.178851 108.972201 
L 110.728063 104.608191 
L 111.277276 101.871886 
L 111.826489 101.119943 
L 112.375701 107.292098 
L 112.924914 106.842633 
L 113.474126 112.906096 
L 114.023339 111.232108 
L 114.572552 111.959267 
L 115.121764 111.6891 
L 115.670977 107.776142 
L 116.220189 105.664768 
L 116.769402 100.010132 
L 117.867827 82.139117 
L 118.41704 76.135088 
L 118.966252 74.08673 
L 119.515465 75.448203 
L 120.064678 74.837834 
L 120.61389 76.162139 
L 121.163103 78.52417 
L 121.712315 85.103137 
L 122.261528 89.995203 
L 122.810741 91.959959 
L 123.359953 99.321996 
L 123.909166 99.752305 
L 124.458378 98.628281 
L 125.007591 95.463723 
L 125.556804 94.729855 
L 126.106016 93.403517 
L 126.655229 92.857344 
L 127.204441 92.748563 
L 127.753654 100.538582 
L 128.302867 104.679914 
L 129.401292 119.006536 
L 129.950504 120.643768 
L 130.499717 123.71018 
L 131.04893 120.184293 
L 132.147355 114.701125 
L 133.24578 104.857346 
L 134.344205 89.075913 
L 134.893418 90.05845 
L 135.44263 87.669125 
L 135.991843 88.195453 
L 137.639481 102.749434 
L 138.188693 105.448105 
L 139.836331 93.517202 
L 140.385544 88.784583 
L 140.934756 82.312052 
L 141.483969 83.949762 
L 142.582394 82.428105 
L 143.131607 81.633026 
L 143.680819 87.187977 
L 144.779245 107.639112 
L 145.328457 113.783345 
L 145.87767 116.594895 
L 146.426882 114.096889 
L 146.976095 112.656519 
L 147.525308 107.103918 
L 148.07452 105.264768 
L 148.623733 104.751505 
L 149.172945 100.041553 
L 149.722158 98.708329 
L 150.820583 91.914104 
L 151.369796 92.944128 
L 151.919008 97.354424 
L 152.468221 100.306837 
L 153.017434 99.811062 
L 153.566646 97.165879 
L 154.115859 95.596713 
L 154.665071 91.873472 
L 155.214284 89.940519 
L 155.763497 80.720438 
L 156.312709 79.331635 
L 156.861922 82.098709 
L 157.411134 87.520328 
L 157.960347 90.001293 
L 159.607985 105.481846 
L 160.157197 106.103381 
L 160.70641 103.821857 
L 161.255623 109.849577 
L 161.804835 109.027592 
L 162.354048 114.208983 
L 162.90326 108.061822 
L 163.452473 104.292092 
L 164.001686 104.252673 
L 164.550898 107.086177 
L 165.100111 108.570583 
L 166.198536 114.306983 
L 166.747749 114.608127 
L 167.296961 114.233682 
L 168.395386 103.008654 
L 168.944599 99.805997 
L 169.493812 91.627751 
L 170.043024 85.438411 
L 170.592237 80.78633 
L 171.141449 71.340932 
L 171.690662 69.186589 
L 172.239875 72.298831 
L 172.789087 71.905523 
L 173.3383 78.215632 
L 173.887512 81.144061 
L 174.436725 82.699828 
L 174.985938 84.64181 
L 176.084363 85.504785 
L 176.633575 84.927686 
L 177.182788 86.780348 
L 177.732 90.833494 
L 178.281213 87.749016 
L 178.830426 93.027473 
L 179.379638 93.221593 
L 179.928851 95.506106 
L 180.478063 103.37377 
L 181.027276 114.755548 
L 182.125701 123.040659 
L 182.674914 124.397634 
L 183.224126 124.934366 
L 183.773339 123.400972 
L 184.322552 120.104125 
L 184.871764 121.832637 
L 185.420977 119.740218 
L 185.970189 116.174061 
L 186.519402 106.740268 
L 187.068615 106.653745 
L 187.617827 104.114223 
L 188.16704 110.110128 
L 188.716252 111.967725 
L 189.265465 109.746215 
L 189.814678 111.406207 
L 190.36389 106.057324 
L 190.913103 101.97978 
L 191.462315 92.767033 
L 192.011528 91.505112 
L 192.560741 89.819656 
L 193.659166 70.796913 
L 194.208378 63.507982 
L 194.757591 61.58209 
L 195.306804 60.194528 
L 195.856016 62.5423 
L 196.405229 68.530823 
L 196.954441 78.57507 
L 197.503654 85.706955 
L 198.052867 89.728349 
L 199.151292 92.100834 
L 199.700504 92.387737 
L 200.249717 97.288137 
L 200.79893 98.935998 
L 201.897355 108.23351 
L 202.446567 104.159699 
L 202.99578 103.546683 
L 203.544993 108.068958 
L 204.643418 123.964357 
L 205.19263 129.49242 
L 205.741843 137.425817 
L 206.291056 134.521786 
L 206.840268 128.846881 
L 207.389481 127.783569 
L 207.938693 123.60908 
L 208.487906 116.992908 
L 209.037119 118.059067 
L 209.586331 108.894392 
L 210.135544 101.787435 
L 210.684756 97.528662 
L 211.783182 94.961341 
L 212.332394 88.377856 
L 212.881607 86.835245 
L 213.430819 87.321724 
L 213.980032 83.246368 
L 215.078457 78.029411 
L 215.62767 71.03571 
L 216.176882 66.564471 
L 216.726095 64.405755 
L 217.82452 58.34235 
L 218.373733 66.225235 
L 219.472158 74.812982 
L 220.021371 79.040131 
L 220.570583 84.695634 
L 221.119796 88.937265 
L 221.669008 91.962269 
L 223.316646 118.819379 
L 223.865859 123.689258 
L 224.415071 126.537089 
L 224.964284 127.175576 
L 226.062709 134.908438 
L 226.611922 136.066642 
L 227.161134 141.460069 
L 227.710347 141.381794 
L 228.25956 138.016407 
L 228.808772 129.734088 
L 229.357985 124.881499 
L 229.907197 115.880559 
L 230.45641 110.141767 
L 231.005623 106.798295 
L 231.554835 101.118951 
L 232.104048 97.204163 
L 233.202473 84.421957 
L 233.751686 76.26366 
L 235.399323 60.358365 
L 235.948536 62.397593 
L 236.497749 57.566067 
L 237.046961 55.104069 
L 237.596174 51.047888 
L 238.145386 50.903028 
L 239.243812 60.513803 
L 239.793024 71.91761 
L 240.342237 77.083278 
L 240.891449 86.392113 
L 241.440662 92.912077 
L 242.539087 102.491784 
L 243.0883 103.584136 
L 243.637512 111.951307 
L 244.186725 115.640734 
L 244.735938 116.911809 
L 245.28515 124.722961 
L 245.834363 127.340219 
L 246.383575 131.284619 
L 246.932788 132.637273 
L 247.482 137.335293 
L 248.031213 140.563821 
L 248.580426 138.957423 
L 249.129638 139.348304 
L 249.678851 134.826313 
L 250.228063 128.310412 
L 250.777276 118.653008 
L 251.326489 112.457807 
L 251.875701 102.529827 
L 252.424914 96.111658 
L 252.974126 93.002514 
L 254.072552 82.727773 
L 254.621764 82.018449 
L 255.170977 77.523955 
L 255.720189 74.391547 
L 256.269402 68.530933 
L 256.818615 71.089445 
L 257.367827 68.182273 
L 257.91704 66.608364 
L 258.466252 65.551584 
L 259.015465 62.716169 
L 260.11389 68.04668 
L 260.663103 71.903166 
L 261.212315 80.9901 
L 262.310741 93.768966 
L 262.859953 96.474742 
L 263.958378 111.06162 
L 264.507591 115.501924 
L 265.056804 123.784745 
L 265.606016 122.476397 
L 266.155229 122.635801 
L 266.704441 122.669097 
L 267.253654 122.897654 
L 267.802867 126.46951 
L 268.352079 131.217283 
L 268.901292 131.177396 
L 269.450504 128.99479 
L 270.54893 115.632935 
L 271.098142 114.959831 
L 271.647355 112.79784 
L 272.74578 105.630772 
L 273.294993 96.835222 
L 273.844205 91.955566 
L 274.393418 83.495984 
L 274.94263 80.604663 
L 275.491843 81.251734 
L 276.041056 79.702524 
L 276.590268 76.914787 
L 277.139481 72.942478 
L 277.688693 73.617291 
L 278.237906 72.276278 
L 278.787119 75.594476 
L 279.336331 78.214344 
L 279.885544 74.541354 
L 280.434756 72.579806 
L 280.983969 73.579143 
L 281.533182 77.320598 
L 282.082394 84.50129 
L 282.631607 93.993734 
L 283.730032 105.833665 
L 284.279245 109.117294 
L 284.828457 111.493644 
L 285.37767 116.374616 
L 285.926882 125.28652 
L 286.476095 129.496935 
L 287.025308 126.868636 
L 287.57452 123.202165 
L 288.672945 113.553858 
L 289.222158 111.59447 
L 289.771371 105.610694 
L 290.320583 102.564336 
L 290.869796 103.906202 
L 291.419008 105.745784 
L 291.968221 105.921926 
L 293.066646 100.733037 
L 293.615859 91.762579 
L 294.165071 86.21183 
L 294.714284 82.285492 
L 295.812709 83.792408 
L 296.361922 86.605493 
L 296.911134 84.2002 
L 297.460347 79.27844 
L 298.00956 80.312203 
L 298.558772 85.113354 
L 299.107985 95.300738 
L 299.657197 101.570943 
L 300.20641 103.822422 
L 300.755623 104.522493 
L 301.304835 103.307326 
L 301.854048 99.007932 
L 302.40326 93.217627 
L 303.501686 89.896243 
L 304.050898 91.515141 
L 304.600111 88.091131 
L 305.149323 92.931077 
L 306.247749 98.762417 
L 306.796961 97.760419 
L 307.346174 98.085626 
L 307.895386 99.000606 
L 308.993812 103.444096 
L 309.543024 104.21981 
L 310.092237 105.231528 
L 310.641449 101.592587 
L 311.190662 97.03462 
L 311.739875 97.807315 
L 312.289087 97.971199 
L 312.8383 102.292033 
L 313.387512 110.702661 
L 313.936725 116.767296 
L 314.485937 118.763102 
L 315.03515 116.911144 
L 316.133575 111.650653 
L 316.682788 108.479055 
L 317.232 104.001023 
L 317.781213 101.345714 
L 318.330426 100.079127 
L 318.879638 95.390257 
L 319.978063 80.212388 
L 320.527276 77.931211 
L 321.076489 77.854034 
L 321.625701 77.959294 
L 322.174914 81.727945 
L 322.724126 88.436859 
L 323.273339 89.887098 
L 324.371764 83.157125 
L 324.920977 79.496398 
L 325.470189 81.396381 
L 326.019402 86.270691 
L 326.568615 88.895335 
L 327.117827 94.045073 
L 327.66704 98.036501 
L 328.216252 98.579162 
L 328.765465 97.545329 
L 329.314678 102.501279 
L 329.86389 105.886713 
L 330.413103 113.356665 
L 330.962315 118.385218 
L 331.511528 120.946514 
L 332.060741 120.669982 
L 332.609953 118.370575 
L 333.159166 115.348271 
L 333.708378 113.086413 
L 334.257591 110.214178 
L 334.806804 112.589845 
L 335.356016 113.96527 
L 335.905229 113.052652 
L 337.003654 108.76612 
L 337.552867 105.283174 
L 338.651292 95.674292 
L 339.749717 90.182068 
L 340.29893 88.674615 
L 340.848142 82.245342 
L 341.946567 73.326441 
L 342.49578 73.001974 
L 343.044993 70.035826 
L 343.594205 71.825898 
L 344.69263 83.61594 
L 345.241843 87.198509 
L 345.791056 88.798185 
L 346.340268 89.126949 
L 346.889481 92.786054 
L 347.438693 95.08931 
L 347.987906 98.09425 
L 348.537119 102.011936 
L 349.635544 112.999981 
L 351.283182 126.922728 
L 352.381607 131.085152 
L 352.930819 129.935839 
L 353.480032 128.127322 
L 354.029245 125.393622 
L 354.578457 120.959854 
L 355.676882 102.725337 
L 356.226095 92.579278 
L 356.775308 84.742831 
L 357.32452 79.875214 
L 357.873733 76.918207 
L 358.422945 76.722786 
L 358.972158 77.146097 
L 359.521371 76.162946 
L 361.169008 71.621329 
L 361.718221 70.897838 
L 362.267434 71.615083 
L 362.816646 73.368304 
L 364.464284 81.425334 
L 366.111922 93.111275 
L 366.661134 99.595443 
L 367.75956 114.443299 
L 368.308772 119.233816 
L 368.857985 118.893212 
L 369.407197 118.058036 
L 369.95641 118.112179 
L 370.505623 117.33821 
L 371.054835 117.913297 
L 372.15326 124.542115 
L 372.702473 125.301315 
L 373.251686 124.27913 
L 373.800898 122.183768 
L 375.448536 113.514518 
L 375.997749 111.082023 
L 377.096174 103.09996 
L 378.743812 82.28401 
L 379.842237 76.280371 
L 380.391449 76.535687 
L 380.940662 77.016908 
L 381.489875 77.679273 
L 382.5883 72.040489 
L 383.137512 71.29009 
L 383.686725 72.547954 
L 384.235937 75.252632 
L 384.78515 76.896947 
L 385.334363 79.799303 
L 385.883575 84.01037 
L 386.432788 86.599684 
L 387.531213 96.411342 
L 388.629638 108.0015 
L 389.178851 112.539189 
L 390.826489 121.471725 
L 391.375701 121.624962 
L 391.924914 121.601368 
L 393.023339 119.568899 
L 393.572552 119.660767 
L 394.121764 120.470426 
L 394.670977 119.349852 
L 395.220189 117.128142 
L 396.867827 104.711695 
L 397.41704 100.486555 
L 399.61389 79.740296 
L 400.712315 72.715062 
L 401.261528 72.038903 
L 401.810741 72.75799 
L 402.359953 72.753765 
L 402.909166 73.290993 
L 403.458378 74.633155 
L 404.007591 76.793251 
L 405.106016 82.760831 
L 405.655229 84.578484 
L 406.204441 86.884425 
L 408.401292 106.574654 
L 409.499717 117.654356 
L 410.598142 124.736066 
L 411.147355 125.550491 
L 411.696567 124.596442 
L 412.24578 123.274234 
L 412.794993 120.556467 
L 413.893418 112.011166 
L 414.44263 109.763196 
L 415.541056 103.761308 
L 416.090268 101.907729 
L 416.639481 99.18502 
L 417.188693 98.710288 
L 417.737906 97.874144 
L 418.287119 95.437478 
L 418.836331 92.370659 
L 419.385544 88.050081 
L 419.934756 85.094298 
L 421.033182 75.764723 
L 421.582394 73.689025 
L 422.131607 72.706575 
L 422.680819 74.223521 
L 423.779245 80.535168 
L 424.328457 84.950704 
L 425.426882 91.795455 
L 426.525308 99.361566 
L 427.07452 102.592301 
L 427.623733 105.158798 
L 428.722158 107.207661 
L 429.271371 107.308889 
L 429.820583 108.495267 
L 430.369796 111.276991 
L 430.919008 115.479619 
L 431.468221 118.06596 
L 432.017434 120.041432 
L 432.566646 119.916098 
L 433.115859 120.19897 
L 433.665071 118.928007 
L 434.214284 115.787141 
L 436.960347 92.180231 
L 437.50956 88.815327 
L 439.70641 81.755422 
L 440.255623 81.717633 
L 440.804835 82.157177 
L 441.354048 82.341707 
L 441.90326 81.701056 
L 442.452473 80.863998 
L 443.001686 80.361799 
L 443.550898 80.26675 
L 444.100111 80.568776 
L 445.198536 87.655051 
L 447.395386 107.305377 
L 447.944599 109.460794 
L 449.043024 114.491554 
L 449.592237 115.778307 
L 450.141449 115.914898 
L 450.690662 115.887767 
L 451.239875 115.504678 
L 452.887512 111.350466 
L 453.436725 111.330266 
L 453.985937 110.591195 
L 454.53515 109.332402 
L 455.084363 107.772897 
L 455.633575 105.766424 
L 456.182788 102.909393 
L 458.928851 81.98535 
L 459.478063 79.717541 
L 460.027276 78.703248 
L 460.576489 78.79815 
L 461.674914 80.073953 
L 462.224126 81.400312 
L 462.773339 83.182566 
L 463.322552 85.500451 
L 464.420977 91.180505 
L 465.519402 95.42409 
L 466.068615 96.435939 
L 466.617827 97.962837 
L 467.716252 102.446038 
L 469.36389 111.49586 
L 469.913103 113.067022 
L 470.462315 114.264095 
L 471.011528 115.07811 
L 471.560741 115.59643 
L 472.109953 114.613896 
L 473.757591 109.203425 
L 474.306804 107.442228 
L 474.306804 107.442228 
" clip-path="url(#p426a883bdc)" style="fill: none; stroke-dasharray: 1.2,1.98; stroke-dashoffset: 0; stroke: #008000; stroke-width: 1.2"/>
   </g>
   <g id="patch_3">
    <path d="M 35.485937 185.393079 
L 35.485937 10.778906 
" style="fill: none; stroke: #000000; stroke-width: 0.8; stroke-linejoin: miter; stroke-linecap: square"/>
   </g>
   <g id="patch_4">
    <path d="M 474.856016 185.393079 
L 474.856016 10.778906 
" style="fill: none; stroke: #000000; stroke-width: 0.8; stroke-linejoin: miter; stroke-linecap: square"/>
   </g>
   <g id="patch_5">
    <path d="M 35.485937 185.393079 
L 474.856016 185.393079 
" style="fill: none; stroke: #000000; stroke-width: 0.8; stroke-linejoin: miter; stroke-linecap: square"/>
   </g>
   <g id="patch_6">
    <path d="M 35.485937 10.778906 
L 474.856016 10.778906 
" style="fill: none; stroke: #000000; stroke-width: 0.8; stroke-linejoin: miter; stroke-linecap: square"/>
   </g>
   <g id="text_19">
    <!-- 13th floor -->
    <g transform="translate(410.073696 166.151464) scale(0.1 -0.1)">
     <defs>
      <path id="ArialMT-68" d="M 422 0 
L 422 4581 
L 984 4581 
L 984 2938 
Q 1378 3394 1978 3394 
Q 2347 3394 2619 3248 
Q 2891 3103 3008 2847 
Q 3125 2591 3125 2103 
L 3125 0 
L 2563 0 
L 2563 2103 
Q 2563 2525 2380 2717 
Q 2197 2909 1863 2909 
Q 1613 2909 1392 2779 
Q 1172 2650 1078 2428 
Q 984 2206 984 1816 
L 984 0 
L 422 0 
z
" transform="scale(0.015625)"/>
      <path id="ArialMT-66" d="M 556 0 
L 556 2881 
L 59 2881 
L 59 3319 
L 556 3319 
L 556 3672 
Q 556 4006 616 4169 
Q 697 4388 901 4523 
Q 1106 4659 1475 4659 
Q 1713 4659 2000 4603 
L 1916 4113 
Q 1741 4144 1584 4144 
Q 1328 4144 1222 4034 
Q 1116 3925 1116 3625 
L 1116 3319 
L 1763 3319 
L 1763 2881 
L 1116 2881 
L 1116 0 
L 556 0 
z
" transform="scale(0.015625)"/>
      <path id="ArialMT-72" d="M 416 0 
L 416 3319 
L 922 3319 
L 922 2816 
Q 1116 3169 1280 3281 
Q 1444 3394 1641 3394 
Q 1925 3394 2219 3213 
L 2025 2691 
Q 1819 2813 1613 2813 
Q 1428 2813 1281 2702 
Q 1134 2591 1072 2394 
Q 978 2094 978 1738 
L 978 0 
L 416 0 
z
" transform="scale(0.015625)"/>
     </defs>
     <use xlink:href="#ArialMT-31"/>
     <use xlink:href="#ArialMT-33" x="55.615234"/>
     <use xlink:href="#ArialMT-74" x="111.230469"/>
     <use xlink:href="#ArialMT-68" x="139.013672"/>
     <use xlink:href="#ArialMT-20" x="194.628906"/>
     <use xlink:href="#ArialMT-66" x="222.412109"/>
     <use xlink:href="#ArialMT-6c" x="250.195312"/>
     <use xlink:href="#ArialMT-6f" x="272.412109"/>
     <use xlink:href="#ArialMT-6f" x="328.027344"/>
     <use xlink:href="#ArialMT-72" x="383.642578"/>
    </g>
   </g>
   <g id="legend_1">
    <g id="patch_7">
     <path d="M 124.587266 32.924219 
L 467.856016 32.924219 
Q 469.856016 32.924219 469.856016 30.924219 
L 469.856016 17.778906 
Q 469.856016 15.778906 467.856016 15.778906 
L 124.587266 15.778906 
Q 122.587266 15.778906 122.587266 17.778906 
L 122.587266 30.924219 
Q 122.587266 32.924219 124.587266 32.924219 
z
" style="fill: #ffffff; opacity: 0.8; stroke: #000000; stroke-linejoin: miter"/>
    </g>
    <g id="line2d_37">
     <path d="M 126.587266 23.436719 
L 136.587266 23.436719 
L 146.587266 23.436719 
" style="fill: none; stroke: #000000; stroke-width: 1.2; stroke-linecap: square"/>
    </g>
    <g id="text_20">
     <!-- Ref. -->
     <g transform="translate(154.587266 26.936719) scale(0.1 -0.1)">
      <defs>
       <path id="ArialMT-52" d="M 503 0 
L 503 4581 
L 2534 4581 
Q 3147 4581 3465 4457 
Q 3784 4334 3975 4021 
Q 4166 3709 4166 3331 
Q 4166 2844 3850 2509 
Q 3534 2175 2875 2084 
Q 3116 1969 3241 1856 
Q 3506 1613 3744 1247 
L 4541 0 
L 3778 0 
L 3172 953 
Q 2906 1366 2734 1584 
Q 2563 1803 2427 1890 
Q 2291 1978 2150 2013 
Q 2047 2034 1813 2034 
L 1109 2034 
L 1109 0 
L 503 0 
z
M 1109 2559 
L 2413 2559 
Q 2828 2559 3062 2645 
Q 3297 2731 3419 2920 
Q 3541 3109 3541 3331 
Q 3541 3656 3305 3865 
Q 3069 4075 2559 4075 
L 1109 4075 
L 1109 2559 
z
" transform="scale(0.015625)"/>
       <path id="ArialMT-2e" d="M 581 0 
L 581 641 
L 1222 641 
L 1222 0 
L 581 0 
z
" transform="scale(0.015625)"/>
      </defs>
      <use xlink:href="#ArialMT-52"/>
      <use xlink:href="#ArialMT-65" x="72.216797"/>
      <use xlink:href="#ArialMT-66" x="127.832031"/>
      <use xlink:href="#ArialMT-2e" x="155.615234"/>
     </g>
    </g>
    <g id="line2d_38">
     <path d="M 192.926329 23.436719 
L 202.926329 23.436719 
L 212.926329 23.436719 
" style="fill: none; stroke-dasharray: 4.44,1.92; stroke-dashoffset: 0; stroke: #ff0000; stroke-width: 1.2"/>
    </g>
    <g id="text_21">
     <!-- BiRNN pred. -->
     <g transform="translate(220.926329 26.936719) scale(0.1 -0.1)">
      <defs>
       <path id="ArialMT-42" d="M 469 0 
L 469 4581 
L 2188 4581 
Q 2713 4581 3030 4442 
Q 3347 4303 3526 4014 
Q 3706 3725 3706 3409 
Q 3706 3116 3547 2856 
Q 3388 2597 3066 2438 
Q 3481 2316 3704 2022 
Q 3928 1728 3928 1328 
Q 3928 1006 3792 729 
Q 3656 453 3456 303 
Q 3256 153 2954 76 
Q 2653 0 2216 0 
L 469 0 
z
M 1075 2656 
L 2066 2656 
Q 2469 2656 2644 2709 
Q 2875 2778 2992 2937 
Q 3109 3097 3109 3338 
Q 3109 3566 3000 3739 
Q 2891 3913 2687 3977 
Q 2484 4041 1991 4041 
L 1075 4041 
L 1075 2656 
z
M 1075 541 
L 2216 541 
Q 2509 541 2628 563 
Q 2838 600 2978 687 
Q 3119 775 3209 942 
Q 3300 1109 3300 1328 
Q 3300 1584 3169 1773 
Q 3038 1963 2805 2039 
Q 2572 2116 2134 2116 
L 1075 2116 
L 1075 541 
z
" transform="scale(0.015625)"/>
       <path id="ArialMT-4e" d="M 488 0 
L 488 4581 
L 1109 4581 
L 3516 984 
L 3516 4581 
L 4097 4581 
L 4097 0 
L 3475 0 
L 1069 3600 
L 1069 0 
L 488 0 
z
" transform="scale(0.015625)"/>
       <path id="ArialMT-70" d="M 422 -1272 
L 422 3319 
L 934 3319 
L 934 2888 
Q 1116 3141 1344 3267 
Q 1572 3394 1897 3394 
Q 2322 3394 2647 3175 
Q 2972 2956 3137 2557 
Q 3303 2159 3303 1684 
Q 3303 1175 3120 767 
Q 2938 359 2589 142 
Q 2241 -75 1856 -75 
Q 1575 -75 1351 44 
Q 1128 163 984 344 
L 984 -1272 
L 422 -1272 
z
M 931 1641 
Q 931 1000 1190 694 
Q 1450 388 1819 388 
Q 2194 388 2461 705 
Q 2728 1022 2728 1688 
Q 2728 2322 2467 2637 
Q 2206 2953 1844 2953 
Q 1484 2953 1207 2617 
Q 931 2281 931 1641 
z
" transform="scale(0.015625)"/>
       <path id="ArialMT-64" d="M 2575 0 
L 2575 419 
Q 2259 -75 1647 -75 
Q 1250 -75 917 144 
Q 584 363 401 755 
Q 219 1147 219 1656 
Q 219 2153 384 2558 
Q 550 2963 881 3178 
Q 1213 3394 1622 3394 
Q 1922 3394 2156 3267 
Q 2391 3141 2538 2938 
L 2538 4581 
L 3097 4581 
L 3097 0 
L 2575 0 
z
M 797 1656 
Q 797 1019 1065 703 
Q 1334 388 1700 388 
Q 2069 388 2326 689 
Q 2584 991 2584 1609 
Q 2584 2291 2321 2609 
Q 2059 2928 1675 2928 
Q 1300 2928 1048 2622 
Q 797 2316 797 1656 
z
" transform="scale(0.015625)"/>
      </defs>
      <use xlink:href="#ArialMT-42"/>
      <use xlink:href="#ArialMT-69" x="66.699219"/>
      <use xlink:href="#ArialMT-52" x="88.916016"/>
      <use xlink:href="#ArialMT-4e" x="161.132812"/>
      <use xlink:href="#ArialMT-4e" x="233.349609"/>
      <use xlink:href="#ArialMT-20" x="305.566406"/>
      <use xlink:href="#ArialMT-70" x="333.349609"/>
      <use xlink:href="#ArialMT-72" x="388.964844"/>
      <use xlink:href="#ArialMT-65" x="422.265625"/>
      <use xlink:href="#ArialMT-64" x="477.880859"/>
      <use xlink:href="#ArialMT-2e" x="533.496094"/>
     </g>
    </g>
    <g id="line2d_39">
     <path d="M 297.052891 23.436719 
L 307.052891 23.436719 
L 317.052891 23.436719 
" style="fill: none; stroke-dasharray: 7.68,1.92,1.2,1.92; stroke-dashoffset: 0; stroke: #0000ff; stroke-width: 1.2"/>
    </g>
    <g id="text_22">
     <!-- RNN pred. -->
     <g transform="translate(325.052891 26.936719) scale(0.1 -0.1)">
      <use xlink:href="#ArialMT-52"/>
      <use xlink:href="#ArialMT-4e" x="72.216797"/>
      <use xlink:href="#ArialMT-4e" x="144.433594"/>
      <use xlink:href="#ArialMT-20" x="216.650391"/>
      <use xlink:href="#ArialMT-70" x="244.433594"/>
      <use xlink:href="#ArialMT-72" x="300.048828"/>
      <use xlink:href="#ArialMT-65" x="333.349609"/>
      <use xlink:href="#ArialMT-64" x="388.964844"/>
      <use xlink:href="#ArialMT-2e" x="444.580078"/>
     </g>
    </g>
    <g id="line2d_40">
     <path d="M 392.287266 23.436719 
L 402.287266 23.436719 
L 412.287266 23.436719 
" style="fill: none; stroke-dasharray: 1.2,1.98; stroke-dashoffset: 0; stroke: #008000; stroke-width: 1.2"/>
    </g>
    <g id="text_23">
     <!-- DKF pred. -->
     <g transform="translate(420.287266 26.936719) scale(0.1 -0.1)">
      <defs>
       <path id="ArialMT-44" d="M 494 0 
L 494 4581 
L 2072 4581 
Q 2606 4581 2888 4516 
Q 3281 4425 3559 4188 
Q 3922 3881 4101 3404 
Q 4281 2928 4281 2316 
Q 4281 1794 4159 1391 
Q 4038 988 3847 723 
Q 3656 459 3429 307 
Q 3203 156 2883 78 
Q 2563 0 2147 0 
L 494 0 
z
M 1100 541 
L 2078 541 
Q 2531 541 2789 625 
Q 3047 709 3200 863 
Q 3416 1078 3536 1442 
Q 3656 1806 3656 2325 
Q 3656 3044 3420 3430 
Q 3184 3816 2847 3947 
Q 2603 4041 2063 4041 
L 1100 4041 
L 1100 541 
z
" transform="scale(0.015625)"/>
       <path id="ArialMT-4b" d="M 469 0 
L 469 4581 
L 1075 4581 
L 1075 2309 
L 3350 4581 
L 4172 4581 
L 2250 2725 
L 4256 0 
L 3456 0 
L 1825 2319 
L 1075 1588 
L 1075 0 
L 469 0 
z
" transform="scale(0.015625)"/>
       <path id="ArialMT-46" d="M 525 0 
L 525 4581 
L 3616 4581 
L 3616 4041 
L 1131 4041 
L 1131 2622 
L 3281 2622 
L 3281 2081 
L 1131 2081 
L 1131 0 
L 525 0 
z
" transform="scale(0.015625)"/>
      </defs>
      <use xlink:href="#ArialMT-44"/>
      <use xlink:href="#ArialMT-4b" x="72.216797"/>
      <use xlink:href="#ArialMT-46" x="138.916016"/>
      <use xlink:href="#ArialMT-20" x="200"/>
      <use xlink:href="#ArialMT-70" x="227.783203"/>
      <use xlink:href="#ArialMT-72" x="283.398438"/>
      <use xlink:href="#ArialMT-65" x="316.699219"/>
      <use xlink:href="#ArialMT-64" x="372.314453"/>
      <use xlink:href="#ArialMT-2e" x="427.929688"/>
     </g>
    </g>
   </g>
  </g>
 </g>
 <defs>
  <clipPath id="p426a883bdc">
   <rect x="35.485937" y="10.778906" width="439.370079" height="174.614173"/>
  </clipPath>
 </defs>
</svg>
