<?xml version="1.0" encoding="utf-8" standalone="no"?>
<!DOCTYPE svg PUBLIC "-//W3C//DTD SVG 1.1//EN"
  "http://www.w3.org/Graphics/SVG/1.1/DTD/svg11.dtd">
<svg xmlns:xlink="http://www.w3.org/1999/xlink" width="487.616954pt" height="218.622767pt" viewBox="0 0 487.616954 218.622767" xmlns="http://www.w3.org/2000/svg" version="1.1">
 <metadata>
  <rdf:RDF xmlns:dc="http://purl.org/dc/elements/1.1/" xmlns:cc="http://creativecommons.org/ns#" xmlns:rdf="http://www.w3.org/1999/02/22-rdf-syntax-ns#">
   <cc:Work>
    <dc:type rdf:resource="http://purl.org/dc/dcmitype/StillImage"/>
    <dc:date>2024-03-11T17:18:54.623773</dc:date>
    <dc:format>image/svg+xml</dc:format>
    <dc:creator>
     <cc:Agent>
      <dc:title>Matplotlib v3.8.2, https://matplotlib.org/</dc:title>
     </cc:Agent>
    </dc:creator>
   </cc:Work>
  </rdf:RDF>
 </metadata>
 <defs>
  <style type="text/css">*{stroke-linejoin: round; stroke-linecap: butt}</style>
 </defs>
 <g id="figure_1">
  <g id="patch_1">
   <path d="M 0 218.622767 
L 487.616954 218.622767 
L 487.616954 0 
L 0 0 
z
" style="fill: #ffffff"/>
  </g>
  <g id="axes_1">
   <g id="patch_2">
    <path d="M 35.485937 185.393079 
L 474.856016 185.393079 
L 474.856016 10.778906 
L 35.485937 10.778906 
z
" style="fill: #ffffff"/>
   </g>
   <g id="matplotlib.axis_1">
    <g id="xtick_1">
     <g id="line2d_1">
      <path d="M 35.485937 185.393079 
L 35.485937 10.778906 
" clip-path="url(#pfbeff363b0)" style="fill: none; stroke: #b0b0b0; stroke-width: 0.8; stroke-linecap: square"/>
     </g>
     <g id="line2d_2">
      <defs>
       <path id="mc67d6b1f05" d="M 0 0 
L 0 -3.5 
" style="stroke: #000000; stroke-width: 0.8"/>
      </defs>
      <g>
       <use xlink:href="#mc67d6b1f05" x="35.485937" y="185.393079" style="stroke: #000000; stroke-width: 0.8"/>
      </g>
     </g>
     <g id="text_1">
      <!-- 0 -->
      <g transform="translate(32.705469 196.050892) scale(0.1 -0.1)">
       <defs>
        <path id="ArialMT-30" d="M 266 2259 
Q 266 3072 433 3567 
Q 600 4063 929 4331 
Q 1259 4600 1759 4600 
Q 2128 4600 2406 4451 
Q 2684 4303 2865 4023 
Q 3047 3744 3150 3342 
Q 3253 2941 3253 2259 
Q 3253 1453 3087 958 
Q 2922 463 2592 192 
Q 2263 -78 1759 -78 
Q 1097 -78 719 397 
Q 266 969 266 2259 
z
M 844 2259 
Q 844 1131 1108 757 
Q 1372 384 1759 384 
Q 2147 384 2411 759 
Q 2675 1134 2675 2259 
Q 2675 3391 2411 3762 
Q 2147 4134 1753 4134 
Q 1366 4134 1134 3806 
Q 844 3388 844 2259 
z
" transform="scale(0.015625)"/>
       </defs>
       <use xlink:href="#ArialMT-30"/>
      </g>
     </g>
    </g>
    <g id="xtick_2">
     <g id="line2d_3">
      <path d="M 90.407197 185.393079 
L 90.407197 10.778906 
" clip-path="url(#pfbeff363b0)" style="fill: none; stroke: #b0b0b0; stroke-width: 0.8; stroke-linecap: square"/>
     </g>
     <g id="line2d_4">
      <g>
       <use xlink:href="#mc67d6b1f05" x="90.407197" y="185.393079" style="stroke: #000000; stroke-width: 0.8"/>
      </g>
     </g>
     <g id="text_2">
      <!-- 5 -->
      <g transform="translate(87.626729 196.050892) scale(0.1 -0.1)">
       <defs>
        <path id="ArialMT-35" d="M 266 1200 
L 856 1250 
Q 922 819 1161 601 
Q 1400 384 1738 384 
Q 2144 384 2425 690 
Q 2706 997 2706 1503 
Q 2706 1984 2436 2262 
Q 2166 2541 1728 2541 
Q 1456 2541 1237 2417 
Q 1019 2294 894 2097 
L 366 2166 
L 809 4519 
L 3088 4519 
L 3088 3981 
L 1259 3981 
L 1013 2750 
Q 1425 3038 1878 3038 
Q 2478 3038 2890 2622 
Q 3303 2206 3303 1553 
Q 3303 931 2941 478 
Q 2500 -78 1738 -78 
Q 1113 -78 717 272 
Q 322 622 266 1200 
z
" transform="scale(0.015625)"/>
       </defs>
       <use xlink:href="#ArialMT-35"/>
      </g>
     </g>
    </g>
    <g id="xtick_3">
     <g id="line2d_5">
      <path d="M 145.328457 185.393079 
L 145.328457 10.778906 
" clip-path="url(#pfbeff363b0)" style="fill: none; stroke: #b0b0b0; stroke-width: 0.8; stroke-linecap: square"/>
     </g>
     <g id="line2d_6">
      <g>
       <use xlink:href="#mc67d6b1f05" x="145.328457" y="185.393079" style="stroke: #000000; stroke-width: 0.8"/>
      </g>
     </g>
     <g id="text_3">
      <!-- 10 -->
      <g transform="translate(139.76752 196.050892) scale(0.1 -0.1)">
       <defs>
        <path id="ArialMT-31" d="M 2384 0 
L 1822 0 
L 1822 3584 
Q 1619 3391 1289 3197 
Q 959 3003 697 2906 
L 697 3450 
Q 1169 3672 1522 3987 
Q 1875 4303 2022 4600 
L 2384 4600 
L 2384 0 
z
" transform="scale(0.015625)"/>
       </defs>
       <use xlink:href="#ArialMT-31"/>
       <use xlink:href="#ArialMT-30" x="55.615234"/>
      </g>
     </g>
    </g>
    <g id="xtick_4">
     <g id="line2d_7">
      <path d="M 200.249717 185.393079 
L 200.249717 10.778906 
" clip-path="url(#pfbeff363b0)" style="fill: none; stroke: #b0b0b0; stroke-width: 0.8; stroke-linecap: square"/>
     </g>
     <g id="line2d_8">
      <g>
       <use xlink:href="#mc67d6b1f05" x="200.249717" y="185.393079" style="stroke: #000000; stroke-width: 0.8"/>
      </g>
     </g>
     <g id="text_4">
      <!-- 15 -->
      <g transform="translate(194.68878 196.050892) scale(0.1 -0.1)">
       <use xlink:href="#ArialMT-31"/>
       <use xlink:href="#ArialMT-35" x="55.615234"/>
      </g>
     </g>
    </g>
    <g id="xtick_5">
     <g id="line2d_9">
      <path d="M 255.170977 185.393079 
L 255.170977 10.778906 
" clip-path="url(#pfbeff363b0)" style="fill: none; stroke: #b0b0b0; stroke-width: 0.8; stroke-linecap: square"/>
     </g>
     <g id="line2d_10">
      <g>
       <use xlink:href="#mc67d6b1f05" x="255.170977" y="185.393079" style="stroke: #000000; stroke-width: 0.8"/>
      </g>
     </g>
     <g id="text_5">
      <!-- 20 -->
      <g transform="translate(249.610039 196.050892) scale(0.1 -0.1)">
       <defs>
        <path id="ArialMT-32" d="M 3222 541 
L 3222 0 
L 194 0 
Q 188 203 259 391 
Q 375 700 629 1000 
Q 884 1300 1366 1694 
Q 2113 2306 2375 2664 
Q 2638 3022 2638 3341 
Q 2638 3675 2398 3904 
Q 2159 4134 1775 4134 
Q 1369 4134 1125 3890 
Q 881 3647 878 3216 
L 300 3275 
Q 359 3922 746 4261 
Q 1134 4600 1788 4600 
Q 2447 4600 2831 4234 
Q 3216 3869 3216 3328 
Q 3216 3053 3103 2787 
Q 2991 2522 2730 2228 
Q 2469 1934 1863 1422 
Q 1356 997 1212 845 
Q 1069 694 975 541 
L 3222 541 
z
" transform="scale(0.015625)"/>
       </defs>
       <use xlink:href="#ArialMT-32"/>
       <use xlink:href="#ArialMT-30" x="55.615234"/>
      </g>
     </g>
    </g>
    <g id="xtick_6">
     <g id="line2d_11">
      <path d="M 310.092237 185.393079 
L 310.092237 10.778906 
" clip-path="url(#pfbeff363b0)" style="fill: none; stroke: #b0b0b0; stroke-width: 0.8; stroke-linecap: square"/>
     </g>
     <g id="line2d_12">
      <g>
       <use xlink:href="#mc67d6b1f05" x="310.092237" y="185.393079" style="stroke: #000000; stroke-width: 0.8"/>
      </g>
     </g>
     <g id="text_6">
      <!-- 25 -->
      <g transform="translate(304.531299 196.050892) scale(0.1 -0.1)">
       <use xlink:href="#ArialMT-32"/>
       <use xlink:href="#ArialMT-35" x="55.615234"/>
      </g>
     </g>
    </g>
    <g id="xtick_7">
     <g id="line2d_13">
      <path d="M 365.013497 185.393079 
L 365.013497 10.778906 
" clip-path="url(#pfbeff363b0)" style="fill: none; stroke: #b0b0b0; stroke-width: 0.8; stroke-linecap: square"/>
     </g>
     <g id="line2d_14">
      <g>
       <use xlink:href="#mc67d6b1f05" x="365.013497" y="185.393079" style="stroke: #000000; stroke-width: 0.8"/>
      </g>
     </g>
     <g id="text_7">
      <!-- 30 -->
      <g transform="translate(359.452559 196.050892) scale(0.1 -0.1)">
       <defs>
        <path id="ArialMT-33" d="M 269 1209 
L 831 1284 
Q 928 806 1161 595 
Q 1394 384 1728 384 
Q 2125 384 2398 659 
Q 2672 934 2672 1341 
Q 2672 1728 2419 1979 
Q 2166 2231 1775 2231 
Q 1616 2231 1378 2169 
L 1441 2663 
Q 1497 2656 1531 2656 
Q 1891 2656 2178 2843 
Q 2466 3031 2466 3422 
Q 2466 3731 2256 3934 
Q 2047 4138 1716 4138 
Q 1388 4138 1169 3931 
Q 950 3725 888 3313 
L 325 3413 
Q 428 3978 793 4289 
Q 1159 4600 1703 4600 
Q 2078 4600 2393 4439 
Q 2709 4278 2876 4000 
Q 3044 3722 3044 3409 
Q 3044 3113 2884 2869 
Q 2725 2625 2413 2481 
Q 2819 2388 3044 2092 
Q 3269 1797 3269 1353 
Q 3269 753 2831 336 
Q 2394 -81 1725 -81 
Q 1122 -81 723 278 
Q 325 638 269 1209 
z
" transform="scale(0.015625)"/>
       </defs>
       <use xlink:href="#ArialMT-33"/>
       <use xlink:href="#ArialMT-30" x="55.615234"/>
      </g>
     </g>
    </g>
    <g id="xtick_8">
     <g id="line2d_15">
      <path d="M 419.934756 185.393079 
L 419.934756 10.778906 
" clip-path="url(#pfbeff363b0)" style="fill: none; stroke: #b0b0b0; stroke-width: 0.8; stroke-linecap: square"/>
     </g>
     <g id="line2d_16">
      <g>
       <use xlink:href="#mc67d6b1f05" x="419.934756" y="185.393079" style="stroke: #000000; stroke-width: 0.8"/>
      </g>
     </g>
     <g id="text_8">
      <!-- 35 -->
      <g transform="translate(414.373819 196.050892) scale(0.1 -0.1)">
       <use xlink:href="#ArialMT-33"/>
       <use xlink:href="#ArialMT-35" x="55.615234"/>
      </g>
     </g>
    </g>
    <g id="xtick_9">
     <g id="line2d_17">
      <path d="M 474.856016 185.393079 
L 474.856016 10.778906 
" clip-path="url(#pfbeff363b0)" style="fill: none; stroke: #b0b0b0; stroke-width: 0.8; stroke-linecap: square"/>
     </g>
     <g id="line2d_18">
      <g>
       <use xlink:href="#mc67d6b1f05" x="474.856016" y="185.393079" style="stroke: #000000; stroke-width: 0.8"/>
      </g>
     </g>
     <g id="text_9">
      <!-- 40 -->
      <g transform="translate(469.295079 196.050892) scale(0.1 -0.1)">
       <defs>
        <path id="ArialMT-34" d="M 2069 0 
L 2069 1097 
L 81 1097 
L 81 1613 
L 2172 4581 
L 2631 4581 
L 2631 1613 
L 3250 1613 
L 3250 1097 
L 2631 1097 
L 2631 0 
L 2069 0 
z
M 2069 1613 
L 2069 3678 
L 634 1613 
L 2069 1613 
z
" transform="scale(0.015625)"/>
       </defs>
       <use xlink:href="#ArialMT-34"/>
       <use xlink:href="#ArialMT-30" x="55.615234"/>
      </g>
     </g>
    </g>
    <g id="text_10">
     <!-- Time (s) -->
     <g transform="translate(237.029571 209.318079) scale(0.1 -0.1)">
      <defs>
       <path id="ArialMT-54" d="M 1659 0 
L 1659 4041 
L 150 4041 
L 150 4581 
L 3781 4581 
L 3781 4041 
L 2266 4041 
L 2266 0 
L 1659 0 
z
" transform="scale(0.015625)"/>
       <path id="ArialMT-69" d="M 425 3934 
L 425 4581 
L 988 4581 
L 988 3934 
L 425 3934 
z
M 425 0 
L 425 3319 
L 988 3319 
L 988 0 
L 425 0 
z
" transform="scale(0.015625)"/>
       <path id="ArialMT-6d" d="M 422 0 
L 422 3319 
L 925 3319 
L 925 2853 
Q 1081 3097 1340 3245 
Q 1600 3394 1931 3394 
Q 2300 3394 2536 3241 
Q 2772 3088 2869 2813 
Q 3263 3394 3894 3394 
Q 4388 3394 4653 3120 
Q 4919 2847 4919 2278 
L 4919 0 
L 4359 0 
L 4359 2091 
Q 4359 2428 4304 2576 
Q 4250 2725 4106 2815 
Q 3963 2906 3769 2906 
Q 3419 2906 3187 2673 
Q 2956 2441 2956 1928 
L 2956 0 
L 2394 0 
L 2394 2156 
Q 2394 2531 2256 2718 
Q 2119 2906 1806 2906 
Q 1569 2906 1367 2781 
Q 1166 2656 1075 2415 
Q 984 2175 984 1722 
L 984 0 
L 422 0 
z
" transform="scale(0.015625)"/>
       <path id="ArialMT-65" d="M 2694 1069 
L 3275 997 
Q 3138 488 2766 206 
Q 2394 -75 1816 -75 
Q 1088 -75 661 373 
Q 234 822 234 1631 
Q 234 2469 665 2931 
Q 1097 3394 1784 3394 
Q 2450 3394 2872 2941 
Q 3294 2488 3294 1666 
Q 3294 1616 3291 1516 
L 816 1516 
Q 847 969 1125 678 
Q 1403 388 1819 388 
Q 2128 388 2347 550 
Q 2566 713 2694 1069 
z
M 847 1978 
L 2700 1978 
Q 2663 2397 2488 2606 
Q 2219 2931 1791 2931 
Q 1403 2931 1139 2672 
Q 875 2413 847 1978 
z
" transform="scale(0.015625)"/>
       <path id="ArialMT-20" transform="scale(0.015625)"/>
       <path id="ArialMT-28" d="M 1497 -1347 
Q 1031 -759 709 28 
Q 388 816 388 1659 
Q 388 2403 628 3084 
Q 909 3875 1497 4659 
L 1900 4659 
Q 1522 4009 1400 3731 
Q 1209 3300 1100 2831 
Q 966 2247 966 1656 
Q 966 153 1900 -1347 
L 1497 -1347 
z
" transform="scale(0.015625)"/>
       <path id="ArialMT-73" d="M 197 991 
L 753 1078 
Q 800 744 1014 566 
Q 1228 388 1613 388 
Q 2000 388 2187 545 
Q 2375 703 2375 916 
Q 2375 1106 2209 1216 
Q 2094 1291 1634 1406 
Q 1016 1563 777 1677 
Q 538 1791 414 1992 
Q 291 2194 291 2438 
Q 291 2659 392 2848 
Q 494 3038 669 3163 
Q 800 3259 1026 3326 
Q 1253 3394 1513 3394 
Q 1903 3394 2198 3281 
Q 2494 3169 2634 2976 
Q 2775 2784 2828 2463 
L 2278 2388 
Q 2241 2644 2061 2787 
Q 1881 2931 1553 2931 
Q 1166 2931 1000 2803 
Q 834 2675 834 2503 
Q 834 2394 903 2306 
Q 972 2216 1119 2156 
Q 1203 2125 1616 2013 
Q 2213 1853 2448 1751 
Q 2684 1650 2818 1456 
Q 2953 1263 2953 975 
Q 2953 694 2789 445 
Q 2625 197 2315 61 
Q 2006 -75 1616 -75 
Q 969 -75 630 194 
Q 291 463 197 991 
z
" transform="scale(0.015625)"/>
       <path id="ArialMT-29" d="M 791 -1347 
L 388 -1347 
Q 1322 153 1322 1656 
Q 1322 2244 1188 2822 
Q 1081 3291 891 3722 
Q 769 4003 388 4659 
L 791 4659 
Q 1378 3875 1659 3084 
Q 1900 2403 1900 1659 
Q 1900 816 1576 28 
Q 1253 -759 791 -1347 
z
" transform="scale(0.015625)"/>
      </defs>
      <use xlink:href="#ArialMT-54"/>
      <use xlink:href="#ArialMT-69" x="57.333984"/>
      <use xlink:href="#ArialMT-6d" x="79.550781"/>
      <use xlink:href="#ArialMT-65" x="162.851562"/>
      <use xlink:href="#ArialMT-20" x="218.466797"/>
      <use xlink:href="#ArialMT-28" x="246.25"/>
      <use xlink:href="#ArialMT-73" x="279.550781"/>
      <use xlink:href="#ArialMT-29" x="329.550781"/>
     </g>
    </g>
   </g>
   <g id="matplotlib.axis_2">
    <g id="ytick_1">
     <g id="line2d_19">
      <path d="M 35.485937 185.393079 
L 474.856016 185.393079 
" clip-path="url(#pfbeff363b0)" style="fill: none; stroke: #b0b0b0; stroke-width: 0.8; stroke-linecap: square"/>
     </g>
     <g id="line2d_20">
      <defs>
       <path id="m958d227548" d="M 0 0 
L 3.5 0 
" style="stroke: #000000; stroke-width: 0.8"/>
      </defs>
      <g>
       <use xlink:href="#m958d227548" x="35.485937" y="185.393079" style="stroke: #000000; stroke-width: 0.8"/>
      </g>
     </g>
     <g id="text_11">
      <!-- −3 -->
      <g transform="translate(20.584375 188.971986) scale(0.1 -0.1)">
       <defs>
        <path id="ArialMT-2212" d="M 3381 1997 
L 356 1997 
L 356 2522 
L 3381 2522 
L 3381 1997 
z
" transform="scale(0.015625)"/>
       </defs>
       <use xlink:href="#ArialMT-2212"/>
       <use xlink:href="#ArialMT-33" x="58.398438"/>
      </g>
     </g>
    </g>
    <g id="ytick_2">
     <g id="line2d_21">
      <path d="M 35.485937 156.290717 
L 474.856016 156.290717 
" clip-path="url(#pfbeff363b0)" style="fill: none; stroke: #b0b0b0; stroke-width: 0.8; stroke-linecap: square"/>
     </g>
     <g id="line2d_22">
      <g>
       <use xlink:href="#m958d227548" x="35.485937" y="156.290717" style="stroke: #000000; stroke-width: 0.8"/>
      </g>
     </g>
     <g id="text_12">
      <!-- −2 -->
      <g transform="translate(20.584375 159.869624) scale(0.1 -0.1)">
       <use xlink:href="#ArialMT-2212"/>
       <use xlink:href="#ArialMT-32" x="58.398438"/>
      </g>
     </g>
    </g>
    <g id="ytick_3">
     <g id="line2d_23">
      <path d="M 35.485937 127.188355 
L 474.856016 127.188355 
" clip-path="url(#pfbeff363b0)" style="fill: none; stroke: #b0b0b0; stroke-width: 0.8; stroke-linecap: square"/>
     </g>
     <g id="line2d_24">
      <g>
       <use xlink:href="#m958d227548" x="35.485937" y="127.188355" style="stroke: #000000; stroke-width: 0.8"/>
      </g>
     </g>
     <g id="text_13">
      <!-- −1 -->
      <g transform="translate(20.584375 130.767261) scale(0.1 -0.1)">
       <use xlink:href="#ArialMT-2212"/>
       <use xlink:href="#ArialMT-31" x="58.398438"/>
      </g>
     </g>
    </g>
    <g id="ytick_4">
     <g id="line2d_25">
      <path d="M 35.485937 98.085993 
L 474.856016 98.085993 
" clip-path="url(#pfbeff363b0)" style="fill: none; stroke: #b0b0b0; stroke-width: 0.8; stroke-linecap: square"/>
     </g>
     <g id="line2d_26">
      <g>
       <use xlink:href="#m958d227548" x="35.485937" y="98.085993" style="stroke: #000000; stroke-width: 0.8"/>
      </g>
     </g>
     <g id="text_14">
      <!-- 0 -->
      <g transform="translate(26.425 101.664899) scale(0.1 -0.1)">
       <use xlink:href="#ArialMT-30"/>
      </g>
     </g>
    </g>
    <g id="ytick_5">
     <g id="line2d_27">
      <path d="M 35.485937 68.983631 
L 474.856016 68.983631 
" clip-path="url(#pfbeff363b0)" style="fill: none; stroke: #b0b0b0; stroke-width: 0.8; stroke-linecap: square"/>
     </g>
     <g id="line2d_28">
      <g>
       <use xlink:href="#m958d227548" x="35.485937" y="68.983631" style="stroke: #000000; stroke-width: 0.8"/>
      </g>
     </g>
     <g id="text_15">
      <!-- 1 -->
      <g transform="translate(26.425 72.562537) scale(0.1 -0.1)">
       <use xlink:href="#ArialMT-31"/>
      </g>
     </g>
    </g>
    <g id="ytick_6">
     <g id="line2d_29">
      <path d="M 35.485937 39.881268 
L 474.856016 39.881268 
" clip-path="url(#pfbeff363b0)" style="fill: none; stroke: #b0b0b0; stroke-width: 0.8; stroke-linecap: square"/>
     </g>
     <g id="line2d_30">
      <g>
       <use xlink:href="#m958d227548" x="35.485937" y="39.881268" style="stroke: #000000; stroke-width: 0.8"/>
      </g>
     </g>
     <g id="text_16">
      <!-- 2 -->
      <g transform="translate(26.425 43.460175) scale(0.1 -0.1)">
       <use xlink:href="#ArialMT-32"/>
      </g>
     </g>
    </g>
    <g id="ytick_7">
     <g id="line2d_31">
      <path d="M 35.485937 10.778906 
L 474.856016 10.778906 
" clip-path="url(#pfbeff363b0)" style="fill: none; stroke: #b0b0b0; stroke-width: 0.8; stroke-linecap: square"/>
     </g>
     <g id="line2d_32">
      <g>
       <use xlink:href="#m958d227548" x="35.485937" y="10.778906" style="stroke: #000000; stroke-width: 0.8"/>
      </g>
     </g>
     <g id="text_17">
      <!-- 3 -->
      <g transform="translate(26.425 14.357812) scale(0.1 -0.1)">
       <use xlink:href="#ArialMT-33"/>
      </g>
     </g>
    </g>
    <g id="text_18">
     <!-- Velocity (m/s) -->
     <g transform="translate(14.479687 128.09068) rotate(-90) scale(0.1 -0.1)">
      <defs>
       <path id="ArialMT-56" d="M 1803 0 
L 28 4581 
L 684 4581 
L 1875 1253 
Q 2019 853 2116 503 
Q 2222 878 2363 1253 
L 3600 4581 
L 4219 4581 
L 2425 0 
L 1803 0 
z
" transform="scale(0.015625)"/>
       <path id="ArialMT-6c" d="M 409 0 
L 409 4581 
L 972 4581 
L 972 0 
L 409 0 
z
" transform="scale(0.015625)"/>
       <path id="ArialMT-6f" d="M 213 1659 
Q 213 2581 725 3025 
Q 1153 3394 1769 3394 
Q 2453 3394 2887 2945 
Q 3322 2497 3322 1706 
Q 3322 1066 3130 698 
Q 2938 331 2570 128 
Q 2203 -75 1769 -75 
Q 1072 -75 642 372 
Q 213 819 213 1659 
z
M 791 1659 
Q 791 1022 1069 705 
Q 1347 388 1769 388 
Q 2188 388 2466 706 
Q 2744 1025 2744 1678 
Q 2744 2294 2464 2611 
Q 2184 2928 1769 2928 
Q 1347 2928 1069 2612 
Q 791 2297 791 1659 
z
" transform="scale(0.015625)"/>
       <path id="ArialMT-63" d="M 2588 1216 
L 3141 1144 
Q 3050 572 2676 248 
Q 2303 -75 1759 -75 
Q 1078 -75 664 370 
Q 250 816 250 1647 
Q 250 2184 428 2587 
Q 606 2991 970 3192 
Q 1334 3394 1763 3394 
Q 2303 3394 2647 3120 
Q 2991 2847 3088 2344 
L 2541 2259 
Q 2463 2594 2264 2762 
Q 2066 2931 1784 2931 
Q 1359 2931 1093 2626 
Q 828 2322 828 1663 
Q 828 994 1084 691 
Q 1341 388 1753 388 
Q 2084 388 2306 591 
Q 2528 794 2588 1216 
z
" transform="scale(0.015625)"/>
       <path id="ArialMT-74" d="M 1650 503 
L 1731 6 
Q 1494 -44 1306 -44 
Q 1000 -44 831 53 
Q 663 150 594 308 
Q 525 466 525 972 
L 525 2881 
L 113 2881 
L 113 3319 
L 525 3319 
L 525 4141 
L 1084 4478 
L 1084 3319 
L 1650 3319 
L 1650 2881 
L 1084 2881 
L 1084 941 
Q 1084 700 1114 631 
Q 1144 563 1211 522 
Q 1278 481 1403 481 
Q 1497 481 1650 503 
z
" transform="scale(0.015625)"/>
       <path id="ArialMT-79" d="M 397 -1278 
L 334 -750 
Q 519 -800 656 -800 
Q 844 -800 956 -737 
Q 1069 -675 1141 -563 
Q 1194 -478 1313 -144 
Q 1328 -97 1363 -6 
L 103 3319 
L 709 3319 
L 1400 1397 
Q 1534 1031 1641 628 
Q 1738 1016 1872 1384 
L 2581 3319 
L 3144 3319 
L 1881 -56 
Q 1678 -603 1566 -809 
Q 1416 -1088 1222 -1217 
Q 1028 -1347 759 -1347 
Q 597 -1347 397 -1278 
z
" transform="scale(0.015625)"/>
       <path id="ArialMT-2f" d="M 0 -78 
L 1328 4659 
L 1778 4659 
L 453 -78 
L 0 -78 
z
" transform="scale(0.015625)"/>
      </defs>
      <use xlink:href="#ArialMT-56"/>
      <use xlink:href="#ArialMT-65" x="61.199219"/>
      <use xlink:href="#ArialMT-6c" x="116.814453"/>
      <use xlink:href="#ArialMT-6f" x="139.03125"/>
      <use xlink:href="#ArialMT-63" x="194.646484"/>
      <use xlink:href="#ArialMT-69" x="244.646484"/>
      <use xlink:href="#ArialMT-74" x="266.863281"/>
      <use xlink:href="#ArialMT-79" x="294.646484"/>
      <use xlink:href="#ArialMT-20" x="344.646484"/>
      <use xlink:href="#ArialMT-28" x="372.429688"/>
      <use xlink:href="#ArialMT-6d" x="405.730469"/>
      <use xlink:href="#ArialMT-2f" x="489.03125"/>
      <use xlink:href="#ArialMT-73" x="516.814453"/>
      <use xlink:href="#ArialMT-29" x="566.814453"/>
     </g>
    </g>
   </g>
   <g id="line2d_33">
    <path d="M 35.485937 98.085993 
L 36.584363 98.144374 
L 40.978063 98.842045 
L 41.527276 98.670252 
L 43.174914 98.555294 
L 44.273339 97.906374 
L 44.822552 97.788989 
L 45.371764 97.205024 
L 45.920977 96.877699 
L 46.470189 97.259124 
L 47.019402 97.982625 
L 47.568615 98.457741 
L 48.117827 98.774455 
L 48.66704 99.336795 
L 49.216252 99.604759 
L 49.765465 99.312378 
L 50.314678 99.448213 
L 50.86389 100.720097 
L 51.413103 101.402167 
L 51.962315 101.202399 
L 53.060741 98.332562 
L 53.609953 97.924201 
L 54.159166 97.864389 
L 54.708378 98.791802 
L 55.257591 98.483986 
L 55.806804 98.007937 
L 56.356016 97.765313 
L 56.905229 96.556353 
L 57.454441 96.336489 
L 58.003654 97.029294 
L 58.552867 96.880404 
L 59.651292 96.20913 
L 60.749717 93.764052 
L 61.29893 93.603107 
L 61.848142 92.456758 
L 62.397355 91.866234 
L 62.946567 91.764691 
L 63.49578 91.10572 
L 64.044993 91.672045 
L 64.594205 93.257303 
L 65.143418 94.212717 
L 65.69263 93.416467 
L 66.241843 93.653747 
L 67.889481 106.173233 
L 68.438693 109.414821 
L 68.987906 111.430075 
L 69.537119 111.669495 
L 70.086331 110.623816 
L 70.635544 109.041158 
L 71.184756 106.856576 
L 71.733969 106.208147 
L 72.283182 105.875729 
L 72.832394 103.909658 
L 73.381607 101.510137 
L 73.930819 99.890166 
L 75.029245 97.658213 
L 75.578457 97.265468 
L 76.12767 99.086333 
L 76.676882 101.436919 
L 77.226095 100.971472 
L 77.775308 97.243902 
L 78.32452 92.017981 
L 78.873733 88.428127 
L 79.422945 86.529093 
L 79.972158 87.273088 
L 80.521371 88.464057 
L 81.619796 85.307407 
L 82.169008 86.245903 
L 83.267434 91.986496 
L 84.365859 100.756449 
L 86.013497 93.443271 
L 86.562709 94.153825 
L 87.111922 98.978586 
L 87.661134 101.008113 
L 88.210347 101.534045 
L 88.75956 101.895267 
L 89.308772 101.223718 
L 89.857985 104.685997 
L 90.407197 109.493573 
L 90.95641 110.049035 
L 91.505623 109.908584 
L 92.054835 112.466422 
L 92.604048 113.18072 
L 93.15326 109.088633 
L 94.800898 100.244362 
L 95.350111 96.645556 
L 95.899323 91.307673 
L 96.448536 87.720923 
L 96.997749 89.488711 
L 97.546961 90.508857 
L 98.645386 90.916025 
L 99.194599 92.765057 
L 100.293024 97.220889 
L 100.842237 97.314258 
L 101.391449 95.116383 
L 101.940662 95.262127 
L 102.489875 93.365504 
L 103.039087 89.232314 
L 103.5883 86.768383 
L 104.137512 84.871279 
L 104.686725 86.85758 
L 106.334363 97.433364 
L 106.883575 98.752186 
L 107.432788 102.0227 
L 107.982 104.463407 
L 108.531213 108.098822 
L 109.080426 110.564784 
L 109.629638 111.720905 
L 110.178851 110.043288 
L 110.728063 106.132307 
L 111.277276 103.303545 
L 113.474126 114.14765 
L 114.023339 112.900542 
L 114.572552 113.367693 
L 115.121764 111.155995 
L 116.220189 104.546426 
L 116.769402 96.245059 
L 117.867827 77.022225 
L 118.41704 71.982558 
L 118.966252 72.016107 
L 119.515465 72.879266 
L 120.064678 73.12679 
L 120.61389 74.669459 
L 121.163103 79.368783 
L 121.712315 86.573832 
L 122.261528 90.958662 
L 123.359953 103.307964 
L 123.909166 103.230923 
L 126.106016 91.738092 
L 126.655229 88.393897 
L 127.204441 89.892741 
L 127.753654 94.705063 
L 128.302867 100.612442 
L 128.852079 109.993645 
L 129.401292 115.967316 
L 129.950504 120.562863 
L 130.499717 122.420618 
L 131.04893 120.138673 
L 131.598142 118.962753 
L 132.147355 116.561583 
L 132.696567 112.750192 
L 133.24578 106.839844 
L 133.794993 97.03775 
L 134.344205 91.823274 
L 134.893418 89.451259 
L 135.44263 85.646385 
L 135.991843 86.95664 
L 137.639481 101.754552 
L 138.188693 103.151407 
L 139.836331 94.787422 
L 140.385544 88.524696 
L 140.934756 85.423911 
L 141.483969 85.828428 
L 142.033182 84.507487 
L 142.582394 82.643766 
L 143.131607 83.440272 
L 143.680819 90.580408 
L 144.779245 110.376152 
L 145.328457 115.951827 
L 145.87767 116.397683 
L 146.426882 114.639145 
L 147.525308 106.940525 
L 148.07452 106.702864 
L 148.623733 104.463781 
L 149.722158 98.052928 
L 150.271371 92.954134 
L 150.820583 90.191032 
L 151.369796 92.573103 
L 151.919008 96.628295 
L 152.468221 98.437267 
L 153.566646 95.853599 
L 154.115859 94.067577 
L 154.665071 92.725062 
L 155.214284 87.177099 
L 155.763497 79.981894 
L 156.312709 79.585321 
L 157.960347 91.950972 
L 159.058772 104.955519 
L 159.607985 107.565019 
L 160.157197 105.25456 
L 160.70641 106.58514 
L 161.804835 112.376813 
L 162.354048 113.120721 
L 162.90326 107.201207 
L 163.452473 104.788271 
L 164.001686 106.213899 
L 165.100111 110.598455 
L 165.649323 114.091689 
L 166.198536 116.062119 
L 166.747749 116.802023 
L 167.296961 114.999519 
L 167.846174 109.545845 
L 168.395386 105.657969 
L 168.944599 100.168243 
L 169.493812 91.603589 
L 170.043024 84.941796 
L 171.141449 66.887288 
L 171.690662 67.007714 
L 172.239875 67.796252 
L 172.789087 70.594787 
L 173.3383 76.293234 
L 174.985938 84.047809 
L 175.53515 85.064525 
L 176.084363 84.998994 
L 176.633575 85.232906 
L 177.182788 88.993841 
L 177.732 88.894913 
L 178.281213 88.96751 
L 178.830426 91.169788 
L 179.379638 90.082405 
L 179.928851 93.140889 
L 181.027276 110.195812 
L 182.125701 119.193989 
L 182.674914 121.815291 
L 183.224126 123.163431 
L 183.773339 121.703995 
L 184.322552 122.058712 
L 184.871764 123.330297 
L 185.420977 121.853689 
L 186.519402 108.909502 
L 187.068615 106.513757 
L 187.617827 108.063494 
L 188.16704 113.627627 
L 188.716252 113.472894 
L 189.265465 113.728407 
L 189.814678 112.317874 
L 190.36389 107.383277 
L 191.462315 94.328906 
L 192.011528 93.999019 
L 192.560741 88.462395 
L 193.659166 67.313336 
L 194.208378 60.999379 
L 194.757591 57.912292 
L 195.306804 57.035413 
L 195.856016 60.179521 
L 196.405229 68.369004 
L 196.954441 78.550727 
L 197.503654 86.06494 
L 198.052867 90.232363 
L 198.602079 92.534578 
L 199.151292 93.391715 
L 200.79893 100.808086 
L 201.348142 106.165359 
L 201.897355 105.826774 
L 202.446567 101.135686 
L 202.99578 100.882875 
L 203.544993 105.891526 
L 205.741843 135.590946 
L 206.291056 132.583954 
L 206.840268 131.178979 
L 207.389481 131.053807 
L 207.938693 126.389153 
L 208.487906 125.279154 
L 209.037119 121.989047 
L 209.586331 111.994869 
L 210.135544 105.190801 
L 210.684756 101.619436 
L 211.233969 99.856465 
L 212.332394 88.432414 
L 212.881607 86.87674 
L 213.430819 84.173857 
L 213.980032 80.607307 
L 214.529245 79.282225 
L 215.078457 74.985863 
L 215.62767 69.11088 
L 216.726095 63.117525 
L 217.275308 58.448454 
L 217.82452 60.87248 
L 218.373733 68.171991 
L 220.570583 83.789488 
L 221.119796 86.231491 
L 221.669008 91.425421 
L 223.316646 118.770718 
L 223.865859 124.144137 
L 224.964284 128.644266 
L 225.513497 133.453093 
L 226.062709 136.325203 
L 227.161134 145.063546 
L 227.710347 144.656 
L 228.808772 132.522926 
L 229.357985 125.374137 
L 229.907197 116.600311 
L 231.554835 100.965442 
L 232.104048 96.995924 
L 232.65326 91.475232 
L 233.751686 76.750187 
L 234.850111 64.802107 
L 235.399323 62.91772 
L 235.948536 62.067866 
L 237.596174 49.862398 
L 238.145386 51.138133 
L 238.694599 54.413976 
L 241.440662 90.802783 
L 241.989875 96.050719 
L 242.539087 98.538288 
L 243.0883 103.065814 
L 243.637512 109.736591 
L 244.186725 111.285839 
L 244.735938 116.012246 
L 245.28515 122.100023 
L 246.383575 129.463202 
L 246.932788 132.896234 
L 247.482 137.952867 
L 248.031213 139.628096 
L 248.580426 140.457939 
L 249.129638 140.033622 
L 249.678851 135.397114 
L 251.326489 110.948403 
L 251.875701 101.566824 
L 253.523339 85.951871 
L 254.621764 81.039961 
L 255.170977 77.142852 
L 255.720189 72.069121 
L 256.269402 70.545086 
L 256.818615 71.073718 
L 257.367827 68.61706 
L 257.91704 67.807135 
L 258.466252 65.241025 
L 259.015465 63.786998 
L 260.11389 67.770274 
L 260.663103 73.202675 
L 261.212315 81.025637 
L 261.761528 87.198103 
L 262.310741 90.598328 
L 262.859953 95.344287 
L 263.409166 103.403785 
L 263.958378 109.285151 
L 264.507591 117.143671 
L 265.056804 121.90332 
L 265.606016 121.180898 
L 266.155229 121.670266 
L 266.704441 121.692069 
L 267.253654 123.646655 
L 267.802867 129.275757 
L 268.352079 133.074828 
L 268.901292 132.695769 
L 269.450504 128.299459 
L 269.999717 120.458762 
L 270.54893 116.221444 
L 271.098142 115.188149 
L 272.196567 110.085298 
L 273.294993 97.120274 
L 274.393418 83.963557 
L 274.94263 83.193258 
L 275.491843 83.136355 
L 276.041056 80.849489 
L 276.590268 76.61398 
L 277.139481 74.529774 
L 277.688693 74.344749 
L 278.237906 75.640889 
L 278.787119 79.557874 
L 279.336331 78.27019 
L 279.885544 73.211443 
L 280.434756 70.672961 
L 280.983969 71.278669 
L 281.533182 76.039344 
L 282.631607 94.163087 
L 283.730032 106.127713 
L 284.279245 109.089085 
L 284.828457 112.668456 
L 285.926882 129.778368 
L 286.476095 131.605092 
L 287.025308 128.225976 
L 287.57452 123.744249 
L 288.123733 117.941658 
L 288.672945 113.787232 
L 289.222158 108.705734 
L 289.771371 101.637857 
L 290.320583 99.031474 
L 290.869796 100.266632 
L 291.419008 102.313161 
L 291.968221 103.256033 
L 292.517434 103.442075 
L 293.066646 98.866894 
L 293.615859 91.145271 
L 294.165071 85.803455 
L 294.714284 84.266935 
L 295.263497 86.231628 
L 295.812709 90.208473 
L 296.361922 92.105631 
L 297.460347 82.86991 
L 298.00956 83.672949 
L 298.558772 90.30574 
L 299.107985 99.008945 
L 299.657197 103.164735 
L 300.20641 104.024127 
L 300.755623 103.370512 
L 301.304835 100.580925 
L 301.854048 94.998518 
L 302.40326 90.726109 
L 302.952473 88.072299 
L 303.501686 87.22857 
L 304.050898 85.061786 
L 304.600111 85.185445 
L 305.698536 95.421389 
L 306.247749 98.120734 
L 306.796961 97.821529 
L 307.346174 97.906788 
L 307.895386 99.091677 
L 308.993812 104.742804 
L 309.543024 107.001063 
L 310.092237 106.331097 
L 310.641449 100.650025 
L 311.190662 96.937443 
L 311.739875 95.947077 
L 312.289087 96.797928 
L 312.8383 103.307106 
L 313.387512 111.721306 
L 313.936725 117.234984 
L 314.485937 118.753476 
L 315.03515 117.69246 
L 315.584363 116.101311 
L 316.133575 114.128321 
L 317.781213 103.924099 
L 318.330426 101.157708 
L 318.879638 94.133029 
L 319.428851 84.850201 
L 319.978063 78.28924 
L 320.527276 75.284484 
L 321.076489 73.187438 
L 321.625701 73.561956 
L 322.724126 86.253195 
L 323.273339 87.386631 
L 323.822552 85.168573 
L 324.371764 81.403683 
L 324.920977 79.884154 
L 326.568615 92.106182 
L 327.117827 97.536087 
L 327.66704 99.738413 
L 328.216252 97.735014 
L 328.765465 98.150681 
L 329.314678 100.969877 
L 329.86389 105.233492 
L 330.413103 111.541244 
L 330.962315 115.724833 
L 331.511528 117.721012 
L 332.060741 117.613067 
L 333.159166 114.540255 
L 333.708378 112.090918 
L 334.257591 111.88679 
L 334.806804 114.673642 
L 335.356016 115.960478 
L 335.905229 115.727988 
L 336.454441 114.79278 
L 337.003654 112.521399 
L 337.552867 108.036062 
L 338.651292 96.334876 
L 339.200504 92.150572 
L 339.749717 89.780332 
L 340.29893 85.358448 
L 341.397355 73.514701 
L 341.946567 70.466073 
L 342.49578 68.08426 
L 343.044993 66.464936 
L 343.594205 70.547589 
L 344.69263 84.601007 
L 345.241843 88.888683 
L 345.791056 90.700014 
L 346.340268 93.271946 
L 346.889481 96.604295 
L 347.987906 101.080089 
L 348.537119 105.042142 
L 350.733969 124.764212 
L 351.283182 127.883271 
L 351.832394 130.158874 
L 352.381607 130.737833 
L 353.480032 128.218025 
L 354.029245 126.223233 
L 354.578457 120.871931 
L 355.676882 101.616767 
L 356.226095 90.926147 
L 356.775308 82.998301 
L 357.32452 77.912055 
L 357.873733 75.642943 
L 358.972158 75.87932 
L 359.521371 75.008989 
L 361.169008 71.552193 
L 361.718221 71.215415 
L 362.267434 72.043062 
L 362.816646 74.05707 
L 363.915071 79.901658 
L 366.111922 91.587354 
L 367.210347 105.566817 
L 367.75956 112.428133 
L 368.308772 115.767163 
L 368.857985 115.601098 
L 369.407197 115.711004 
L 370.505623 115.437745 
L 371.054835 117.881686 
L 371.604048 122.583193 
L 372.15326 126.213153 
L 372.702473 127.343477 
L 373.251686 126.786116 
L 373.800898 124.830277 
L 374.899323 119.403307 
L 375.448536 116.38252 
L 376.546961 108.61516 
L 377.096174 103.005368 
L 378.194599 87.686839 
L 378.743812 81.752185 
L 379.293024 77.534536 
L 379.842237 75.422591 
L 380.391449 75.936839 
L 380.940662 77.3434 
L 381.489875 77.003723 
L 382.039087 74.396137 
L 382.5883 72.698883 
L 383.137512 72.688607 
L 384.78515 78.172096 
L 385.883575 84.275059 
L 386.432788 86.962635 
L 387.531213 96.285222 
L 388.629638 106.99751 
L 390.277276 118.03482 
L 390.826489 120.528191 
L 391.375701 121.475803 
L 391.924914 121.559166 
L 392.474126 120.725095 
L 393.023339 120.469735 
L 393.572552 121.617357 
L 394.121764 122.39009 
L 394.670977 121.462691 
L 395.220189 118.398991 
L 396.318615 109.065165 
L 396.867827 104.948537 
L 398.515465 88.714575 
L 399.61389 77.493463 
L 400.163103 73.443277 
L 400.712315 71.110641 
L 401.261528 71.389715 
L 401.810741 71.897117 
L 402.359953 72.031464 
L 402.909166 72.970998 
L 403.458378 74.955951 
L 405.106016 83.749698 
L 405.655229 85.006774 
L 406.204441 87.739117 
L 408.401292 106.843695 
L 409.499717 117.217938 
L 410.04893 121.328741 
L 410.598142 124.04894 
L 411.147355 124.514308 
L 411.696567 123.974328 
L 412.24578 122.414788 
L 412.794993 118.774396 
L 413.344205 114.211646 
L 414.991843 105.704174 
L 416.639481 99.482831 
L 417.188693 99.635471 
L 417.737906 98.778465 
L 418.287119 96.611878 
L 419.934756 85.537166 
L 420.483969 79.88325 
L 421.033182 75.514145 
L 421.582394 72.823563 
L 422.131607 71.880787 
L 422.680819 73.482513 
L 423.230032 76.072566 
L 424.87767 87.451435 
L 427.07452 103.817839 
L 427.623733 106.341386 
L 428.172945 107.782973 
L 428.722158 108.260068 
L 429.271371 108.171388 
L 429.820583 109.388561 
L 430.919008 115.880381 
L 431.468221 118.21773 
L 432.017434 119.270993 
L 433.115859 119.968306 
L 433.665071 118.489511 
L 434.214284 114.870093 
L 436.960347 92.135966 
L 437.50956 89.607297 
L 438.058772 87.884732 
L 439.70641 81.86307 
L 440.255623 81.896327 
L 440.804835 82.337439 
L 441.354048 82.237231 
L 443.001686 79.707183 
L 443.550898 79.093091 
L 444.100111 80.281261 
L 444.649323 83.419134 
L 445.198536 87.386095 
L 447.395386 107.592537 
L 449.043024 115.306402 
L 449.592237 116.125548 
L 450.141449 116.255278 
L 450.690662 116.229685 
L 451.239875 115.499389 
L 452.3383 112.024605 
L 452.887512 111.105022 
L 453.436725 110.763157 
L 453.985937 109.939799 
L 455.084363 107.703397 
L 455.633575 106.133666 
L 456.182788 103.310552 
L 457.281213 94.841369 
L 458.379638 85.882894 
L 458.928851 82.236716 
L 459.478063 79.90493 
L 460.027276 78.898501 
L 460.576489 78.873606 
L 461.125701 79.048379 
L 461.674914 79.559089 
L 462.224126 80.787998 
L 462.773339 82.550312 
L 463.322552 85.136258 
L 464.420977 91.281633 
L 464.970189 93.937138 
L 465.519402 95.769969 
L 466.068615 97.020838 
L 467.16704 100.469688 
L 468.265465 105.538605 
L 469.36389 110.92174 
L 470.462315 113.700632 
L 471.011528 114.799037 
L 471.560741 114.985425 
L 472.109953 113.877499 
L 473.757591 109.462999 
L 474.306804 107.55094 
L 474.306804 107.55094 
" clip-path="url(#pfbeff363b0)" style="fill: none; stroke: #000000; stroke-width: 1.2; stroke-linecap: square"/>
   </g>
   <g id="line2d_34">
    <path d="M 35.485937 98.097965 
L 36.584363 98.148516 
L 40.978063 98.879196 
L 42.076489 98.654545 
L 43.174914 98.578448 
L 44.273339 97.944832 
L 44.822552 97.799205 
L 45.371764 97.187653 
L 45.920977 96.882427 
L 46.470189 97.25244 
L 47.019402 97.993694 
L 47.568615 98.492661 
L 48.117827 98.774854 
L 48.66704 99.315534 
L 49.216252 99.58231 
L 49.765465 99.354604 
L 50.314678 99.459516 
L 50.86389 100.732426 
L 51.413103 101.409651 
L 51.962315 101.271769 
L 53.060741 98.38781 
L 53.609953 97.852756 
L 54.159166 97.645112 
L 54.708378 98.753152 
L 55.257591 98.518844 
L 56.356016 97.70885 
L 56.905229 96.534888 
L 57.454441 96.407622 
L 58.003654 96.984835 
L 58.552867 96.952299 
L 59.102079 96.728043 
L 59.651292 96.250016 
L 60.200504 94.796734 
L 60.749717 93.754628 
L 61.29893 93.68346 
L 61.848142 92.440523 
L 62.397355 91.872797 
L 62.946567 91.723418 
L 63.49578 91.084973 
L 64.044993 91.744442 
L 64.594205 93.268188 
L 65.143418 94.169046 
L 65.69263 93.324095 
L 66.241843 93.617882 
L 66.791056 97.773901 
L 67.340268 102.889013 
L 68.438693 109.571935 
L 68.987906 111.469953 
L 69.537119 111.860481 
L 70.086331 110.664902 
L 71.184756 107.001975 
L 72.283182 105.744822 
L 72.832394 103.941494 
L 73.930819 99.617827 
L 75.029245 97.658393 
L 75.578457 97.279098 
L 76.12767 98.767767 
L 76.676882 101.543404 
L 77.226095 101.490781 
L 77.775308 97.517565 
L 78.32452 91.958634 
L 78.873733 88.419453 
L 79.422945 86.510605 
L 79.972158 87.120446 
L 80.521371 88.345133 
L 81.619796 85.227517 
L 82.169008 86.034143 
L 83.816646 96.966183 
L 84.365859 100.799297 
L 85.464284 96.045369 
L 86.013497 92.927912 
L 86.562709 94.027751 
L 87.111922 98.915095 
L 87.661134 100.51248 
L 88.75956 101.947041 
L 89.308772 101.051792 
L 89.857985 104.257289 
L 90.407197 109.563422 
L 90.95641 110.028981 
L 91.505623 109.656971 
L 92.054835 112.386993 
L 92.604048 113.388542 
L 93.15326 109.069856 
L 93.702473 105.894504 
L 94.251686 103.576984 
L 94.800898 100.551798 
L 95.350111 96.799262 
L 95.899323 90.826848 
L 96.448536 87.810282 
L 96.997749 89.836667 
L 98.096174 90.244746 
L 98.645386 91.221388 
L 99.194599 92.471104 
L 99.743812 94.461051 
L 100.293024 97.327801 
L 100.842237 97.57924 
L 101.391449 94.766392 
L 101.940662 95.155931 
L 102.489875 93.683446 
L 103.039087 89.571838 
L 103.5883 86.500889 
L 104.137512 84.498536 
L 104.686725 87.039275 
L 106.334363 96.984928 
L 106.883575 98.893027 
L 107.432788 101.811419 
L 107.982 103.926252 
L 108.531213 108.049705 
L 109.080426 110.705092 
L 109.629638 111.608983 
L 110.178851 110.046876 
L 111.277276 103.128289 
L 111.826489 105.405958 
L 113.474126 113.654616 
L 114.023339 112.356829 
L 114.572552 113.145929 
L 115.121764 110.803378 
L 116.220189 104.496546 
L 116.769402 96.206852 
L 117.867827 76.95208 
L 118.41704 72.061647 
L 118.966252 71.890648 
L 119.515465 72.82773 
L 120.064678 73.057496 
L 120.61389 74.663301 
L 121.163103 78.813467 
L 121.712315 86.142866 
L 122.261528 90.79828 
L 123.359953 103.235139 
L 123.909166 103.239211 
L 124.458378 100.756245 
L 125.556804 94.366085 
L 126.106016 91.595217 
L 126.655229 88.251424 
L 127.204441 89.510725 
L 128.302867 100.289174 
L 128.852079 109.776369 
L 129.401292 115.909695 
L 129.950504 120.49839 
L 130.499717 122.067559 
L 131.04893 119.955558 
L 131.598142 119.375581 
L 132.147355 116.562473 
L 132.696567 112.598306 
L 133.24578 107.047254 
L 133.794993 97.664449 
L 134.344205 91.782244 
L 134.893418 89.113355 
L 135.44263 85.679507 
L 135.991843 87.183719 
L 137.090268 96.322759 
L 137.639481 102.28267 
L 138.188693 103.291394 
L 138.737906 100.36169 
L 139.287119 98.073092 
L 139.836331 94.911319 
L 140.385544 88.477168 
L 140.934756 85.305452 
L 141.483969 85.792218 
L 142.033182 84.669599 
L 142.582394 82.785093 
L 143.131607 83.667827 
L 143.680819 90.220153 
L 144.779245 110.734338 
L 145.328457 116.148934 
L 145.87767 116.667221 
L 146.426882 114.780147 
L 147.525308 107.182035 
L 148.07452 107.149479 
L 148.623733 104.444325 
L 149.172945 100.909056 
L 149.722158 98.458508 
L 150.271371 92.998254 
L 150.820583 89.938272 
L 151.369796 92.412915 
L 151.919008 96.560711 
L 152.468221 98.360844 
L 153.566646 95.445325 
L 154.665071 92.665823 
L 155.763497 80.076532 
L 156.312709 80.203242 
L 157.411134 87.598562 
L 157.960347 92.467064 
L 158.50956 99.33816 
L 159.058772 104.634834 
L 159.607985 107.586331 
L 160.157197 105.344192 
L 160.70641 106.261894 
L 161.255623 108.605711 
L 161.804835 111.798575 
L 162.354048 113.06178 
L 162.90326 107.221223 
L 163.452473 104.620762 
L 164.001686 105.972327 
L 166.198536 115.649983 
L 166.747749 117.01454 
L 167.296961 115.131979 
L 167.846174 109.116165 
L 168.395386 105.623673 
L 168.944599 100.027791 
L 171.141449 66.880683 
L 171.690662 67.099112 
L 172.239875 67.815544 
L 172.789087 70.427642 
L 173.3383 76.298908 
L 174.985938 83.995633 
L 175.53515 84.421408 
L 176.084363 84.541232 
L 176.633575 85.219177 
L 177.182788 88.676875 
L 177.732 88.319927 
L 178.281213 88.967941 
L 178.830426 91.078261 
L 179.379638 89.735057 
L 179.928851 93.200677 
L 180.478063 102.528223 
L 181.027276 109.835328 
L 182.125701 118.934242 
L 183.224126 122.865143 
L 183.773339 121.396985 
L 184.322552 121.771465 
L 184.871764 123.630527 
L 185.420977 122.091179 
L 186.519402 108.580741 
L 187.068615 106.751573 
L 187.617827 107.872853 
L 188.16704 113.154854 
L 189.265465 113.971376 
L 189.814678 112.054938 
L 190.36389 107.220893 
L 191.462315 94.219394 
L 192.011528 93.273018 
L 192.560741 88.025566 
L 193.659166 66.941749 
L 194.208378 60.194445 
L 194.757591 57.636249 
L 195.306804 57.301943 
L 195.856016 60.130486 
L 196.405229 68.422469 
L 196.954441 78.945588 
L 197.503654 86.265043 
L 198.052867 90.404574 
L 198.602079 92.596368 
L 199.151292 93.280473 
L 199.700504 95.582317 
L 200.249717 98.692248 
L 200.79893 101.004971 
L 201.348142 105.900732 
L 201.897355 105.570867 
L 202.446567 101.436184 
L 202.99578 101.135353 
L 203.544993 105.990204 
L 205.19263 130.228142 
L 205.741843 135.284751 
L 206.291056 132.848937 
L 206.840268 131.625096 
L 207.389481 131.254033 
L 207.938693 126.130891 
L 208.487906 124.853478 
L 209.037119 122.002872 
L 209.586331 112.136248 
L 210.135544 105.544863 
L 210.684756 101.615554 
L 211.233969 99.604248 
L 211.783182 94.907705 
L 212.332394 87.871004 
L 213.430819 84.586287 
L 213.980032 80.834851 
L 214.529245 78.658979 
L 215.078457 74.699171 
L 215.62767 69.553285 
L 217.275308 58.980467 
L 217.82452 61.153605 
L 218.373733 67.861186 
L 219.472158 75.834057 
L 221.119796 86.412519 
L 221.669008 91.415886 
L 223.316646 119.301109 
L 223.865859 124.106315 
L 224.964284 129.179159 
L 225.513497 133.707967 
L 226.062709 136.522816 
L 227.161134 145.159912 
L 227.710347 144.129257 
L 228.808772 132.588211 
L 229.357985 125.014929 
L 229.907197 115.800824 
L 231.554835 100.860169 
L 232.104048 96.956092 
L 232.65326 91.465968 
L 234.300898 71.011267 
L 234.850111 64.762214 
L 235.948536 61.480459 
L 237.046961 53.664655 
L 237.596174 49.917088 
L 238.145386 50.701518 
L 238.694599 54.189618 
L 241.440662 90.744797 
L 241.989875 95.200653 
L 242.539087 98.166236 
L 243.0883 102.674295 
L 243.637512 109.72317 
L 244.186725 111.443739 
L 244.735938 115.589542 
L 245.28515 121.914798 
L 246.383575 129.325135 
L 246.932788 132.921264 
L 247.482 138.091867 
L 248.031213 139.992227 
L 248.580426 140.668083 
L 249.129638 139.965548 
L 249.678851 135.667738 
L 252.424914 96.10847 
L 253.523339 86.293317 
L 254.621764 80.497568 
L 255.170977 77.056293 
L 255.720189 72.587406 
L 256.269402 70.510768 
L 256.818615 70.741153 
L 257.367827 69.1252 
L 257.91704 68.086546 
L 258.466252 64.846236 
L 259.015465 63.66141 
L 259.564678 65.924846 
L 260.11389 67.515293 
L 260.663103 72.883804 
L 261.212315 80.900313 
L 261.761528 86.852764 
L 262.310741 90.192816 
L 262.859953 95.277755 
L 263.409166 103.160783 
L 263.958378 109.1358 
L 264.507591 116.922249 
L 265.056804 122.100427 
L 265.606016 121.274043 
L 266.155229 121.569772 
L 266.704441 121.715053 
L 267.253654 124.050442 
L 267.802867 129.715116 
L 268.352079 133.030998 
L 268.901292 132.773595 
L 269.450504 129.035413 
L 269.999717 120.545147 
L 270.54893 115.877559 
L 271.098142 115.30337 
L 272.196567 109.938193 
L 273.294993 97.531664 
L 274.393418 83.750967 
L 274.94263 83.377898 
L 275.491843 83.262032 
L 276.041056 81.01489 
L 276.590268 76.596993 
L 277.139481 74.611588 
L 277.688693 74.565785 
L 278.237906 75.561356 
L 278.787119 79.410337 
L 279.336331 78.539681 
L 279.885544 73.394352 
L 280.434756 70.477405 
L 280.983969 71.304563 
L 281.533182 76.225895 
L 282.631607 93.794696 
L 283.730032 106.51342 
L 284.279245 108.548432 
L 284.828457 112.308374 
L 285.926882 129.880642 
L 286.476095 131.453873 
L 287.025308 128.791589 
L 287.57452 124.267658 
L 288.123733 118.059908 
L 288.672945 113.978793 
L 289.222158 108.935284 
L 289.771371 101.739284 
L 290.320583 98.735113 
L 290.869796 100.191423 
L 291.419008 102.21118 
L 291.968221 103.643266 
L 292.517434 103.338866 
L 293.066646 98.497356 
L 293.615859 91.362107 
L 294.165071 85.893866 
L 294.714284 83.8061 
L 295.263497 86.18152 
L 295.812709 90.525755 
L 296.361922 92.154813 
L 296.911134 86.936325 
L 297.460347 82.821028 
L 298.00956 83.186781 
L 298.558772 89.828205 
L 299.107985 98.809254 
L 299.657197 102.640584 
L 300.20641 103.693392 
L 300.755623 103.251685 
L 301.304835 100.635369 
L 301.854048 94.683357 
L 302.40326 90.841464 
L 302.952473 88.094658 
L 303.501686 87.173495 
L 304.050898 84.977077 
L 304.600111 85.275424 
L 305.698536 95.022195 
L 306.247749 97.988954 
L 306.796961 97.717011 
L 307.346174 97.777453 
L 307.895386 98.612614 
L 308.993812 105.120119 
L 309.543024 107.387865 
L 310.092237 106.321842 
L 310.641449 100.646234 
L 311.190662 97.360068 
L 311.739875 95.72426 
L 312.289087 96.269934 
L 312.8383 102.876402 
L 313.387512 111.844618 
L 313.936725 117.116684 
L 314.485937 118.421944 
L 315.03515 117.480878 
L 315.584363 116.049116 
L 316.133575 113.977649 
L 317.232 106.211284 
L 317.781213 104.256764 
L 318.330426 101.084959 
L 318.879638 93.706059 
L 319.428851 84.788295 
L 319.978063 78.30588 
L 320.527276 74.550412 
L 321.076489 72.452065 
L 321.625701 73.523263 
L 322.724126 85.878792 
L 323.273339 87.350033 
L 323.822552 85.384721 
L 324.371764 81.271469 
L 324.920977 79.498172 
L 326.019402 87.990164 
L 327.117827 97.440957 
L 327.66704 99.431064 
L 328.216252 97.983715 
L 328.765465 98.179882 
L 329.314678 100.225479 
L 329.86389 104.766912 
L 330.413103 111.86233 
L 330.962315 115.723589 
L 331.511528 117.44362 
L 332.060741 117.602663 
L 332.609953 116.266064 
L 333.159166 114.414204 
L 333.708378 111.853503 
L 334.257591 111.626864 
L 334.806804 114.372129 
L 335.356016 115.985651 
L 335.905229 115.689958 
L 336.454441 114.597916 
L 337.003654 112.373977 
L 337.552867 108.086682 
L 338.651292 96.162355 
L 339.200504 92.139084 
L 339.749717 89.686896 
L 340.29893 85.153136 
L 341.397355 73.499421 
L 341.946567 70.027894 
L 342.49578 67.539116 
L 343.044993 66.412487 
L 343.594205 70.577277 
L 344.69263 84.715776 
L 345.241843 89.32385 
L 345.791056 90.879469 
L 346.340268 93.20217 
L 346.889481 96.408798 
L 347.987906 100.866935 
L 348.537119 104.775498 
L 350.733969 124.554694 
L 351.832394 130.117569 
L 352.381607 130.728306 
L 353.480032 128.043447 
L 354.029245 126.156202 
L 354.578457 121.026321 
L 355.12767 112.253348 
L 356.226095 90.43595 
L 356.775308 82.714738 
L 357.32452 77.431783 
L 357.873733 75.02355 
L 358.422945 75.473507 
L 358.972158 75.699969 
L 360.619796 72.597443 
L 361.169008 71.355086 
L 361.718221 70.969291 
L 362.267434 71.887675 
L 362.816646 74.017789 
L 365.013497 85.768584 
L 365.562709 87.840483 
L 366.111922 91.362945 
L 367.75956 112.252461 
L 368.308772 115.800827 
L 368.857985 115.798888 
L 369.407197 115.67687 
L 369.95641 115.226583 
L 370.505623 115.203047 
L 371.054835 117.84988 
L 371.604048 122.473989 
L 372.15326 126.028647 
L 372.702473 127.317707 
L 373.251686 126.788964 
L 374.350111 122.223126 
L 375.448536 116.371559 
L 376.546961 108.597658 
L 377.096174 102.972245 
L 378.743812 81.176069 
L 379.293024 77.16413 
L 379.842237 75.320497 
L 380.391449 75.703936 
L 380.940662 76.999566 
L 381.489875 76.966807 
L 382.039087 74.462201 
L 382.5883 72.573675 
L 383.137512 72.624642 
L 384.78515 78.099294 
L 385.883575 84.110509 
L 386.432788 86.767582 
L 386.982 90.937179 
L 389.178851 110.627893 
L 390.826489 120.405967 
L 391.375701 121.597134 
L 391.924914 121.55891 
L 392.474126 120.436578 
L 393.023339 120.246496 
L 393.572552 121.571068 
L 394.121764 122.286721 
L 394.670977 121.24555 
L 395.220189 118.337602 
L 398.515465 88.612037 
L 399.61389 77.257803 
L 400.163103 73.235534 
L 400.712315 70.815243 
L 401.261528 71.103678 
L 401.810741 71.61749 
L 402.359953 71.816583 
L 402.909166 72.756495 
L 403.458378 74.84534 
L 405.106016 83.714779 
L 405.655229 84.926096 
L 406.204441 87.650519 
L 407.852079 100.988248 
L 409.499717 117.183894 
L 410.04893 121.244641 
L 410.598142 123.879471 
L 411.147355 124.59106 
L 411.696567 124.10888 
L 412.24578 122.308952 
L 412.794993 118.729991 
L 413.344205 114.203344 
L 413.893418 110.937694 
L 416.090268 100.709179 
L 416.639481 99.436978 
L 417.188693 99.692491 
L 417.737906 98.586495 
L 418.287119 96.563856 
L 419.385544 89.574657 
L 419.934756 85.304882 
L 420.483969 79.771887 
L 421.033182 75.369827 
L 421.582394 72.503212 
L 422.131607 71.72613 
L 422.680819 73.393892 
L 423.230032 75.886975 
L 424.87767 87.395929 
L 427.07452 103.887214 
L 427.623733 106.467751 
L 428.172945 107.844194 
L 428.722158 108.165803 
L 429.271371 108.015288 
L 429.820583 109.269833 
L 431.468221 118.111153 
L 432.017434 119.22588 
L 432.566646 119.663161 
L 433.115859 119.891331 
L 433.665071 118.413798 
L 434.214284 114.889809 
L 436.960347 91.971432 
L 437.50956 89.445751 
L 438.058772 87.793353 
L 439.70641 81.570364 
L 440.255623 81.677223 
L 440.804835 82.271273 
L 441.354048 82.26718 
L 443.001686 79.640133 
L 443.550898 79.027844 
L 444.100111 80.131874 
L 444.649323 83.186259 
L 445.198536 87.225709 
L 446.846174 103.718581 
L 447.395386 107.542347 
L 448.493812 113.147447 
L 449.043024 115.221679 
L 449.592237 116.070058 
L 450.690662 116.314483 
L 451.239875 115.554696 
L 452.3383 111.831787 
L 452.887512 111.02301 
L 453.436725 110.585915 
L 454.53515 108.805379 
L 455.084363 107.690227 
L 455.633575 106.074585 
L 456.182788 103.247388 
L 457.281213 94.987642 
L 458.379638 85.739682 
L 458.928851 82.294028 
L 459.478063 79.945708 
L 460.027276 78.751083 
L 460.576489 78.748391 
L 461.125701 79.025891 
L 461.674914 79.446011 
L 462.224126 80.407253 
L 462.773339 82.222986 
L 463.871764 88.21857 
L 464.970189 94.115883 
L 465.519402 96.149695 
L 466.068615 97.450795 
L 467.16704 101.140479 
L 469.36389 110.58923 
L 469.913103 111.918657 
L 470.462315 112.722188 
L 471.011528 113.111462 
L 471.560741 112.8418 
L 473.208378 110.402035 
L 473.757591 110.329693 
L 474.306804 109.1008 
L 474.306804 109.1008 
" clip-path="url(#pfbeff363b0)" style="fill: none; stroke-dasharray: 4.44,1.92; stroke-dashoffset: 0; stroke: #ff0000; stroke-width: 1.2"/>
   </g>
   <g id="line2d_35">
    <path d="M 35.485937 98.085993 
L 36.584363 98.141211 
L 40.428851 98.934309 
L 40.978063 98.874205 
L 42.076489 98.636568 
L 43.174914 98.549095 
L 44.822552 97.778867 
L 45.371764 97.177581 
L 45.920977 96.844258 
L 46.470189 97.244029 
L 47.019402 97.96866 
L 48.66704 99.391829 
L 49.216252 99.681644 
L 49.765465 99.310727 
L 50.314678 99.427528 
L 50.86389 100.840836 
L 51.413103 101.460284 
L 51.962315 101.22065 
L 53.060741 98.423162 
L 53.609953 97.846546 
L 54.159166 97.62332 
L 54.708378 98.729617 
L 55.257591 98.60762 
L 55.806804 97.945537 
L 56.356016 97.64305 
L 56.905229 96.591278 
L 57.454441 96.430578 
L 58.003654 97.090266 
L 59.102079 96.573748 
L 59.651292 96.40063 
L 60.749717 93.803956 
L 61.29893 93.644861 
L 61.848142 92.339705 
L 62.397355 91.858033 
L 62.946567 91.683224 
L 63.49578 91.104656 
L 64.044993 91.685548 
L 65.143418 94.047629 
L 65.69263 93.503531 
L 66.241843 93.573351 
L 67.889481 106.024059 
L 68.438693 109.551747 
L 68.987906 111.805938 
L 69.537119 111.761179 
L 70.635544 109.098935 
L 71.184756 107.071889 
L 72.283182 105.463537 
L 72.832394 103.917657 
L 73.930819 99.518809 
L 74.480032 98.452943 
L 75.029245 97.655883 
L 75.578457 97.262802 
L 76.12767 99.030448 
L 76.676882 101.494335 
L 77.226095 101.280591 
L 77.775308 97.617561 
L 78.32452 92.218799 
L 78.873733 88.561503 
L 79.422945 86.552815 
L 79.972158 87.100467 
L 80.521371 88.419197 
L 81.619796 85.205245 
L 82.169008 85.967713 
L 82.718221 89.248311 
L 83.267434 91.832488 
L 84.365859 100.721228 
L 85.464284 96.116792 
L 86.013497 93.265415 
L 86.562709 94.17356 
L 87.111922 98.860096 
L 87.661134 100.656424 
L 88.75956 102.443661 
L 89.308772 100.856215 
L 89.857985 104.073771 
L 90.407197 109.408885 
L 90.95641 109.878033 
L 91.505623 109.724092 
L 92.054835 111.882136 
L 92.604048 113.001989 
L 93.702473 105.995757 
L 94.800898 100.746805 
L 95.899323 91.181377 
L 96.448536 88.317909 
L 96.997749 89.700201 
L 97.546961 89.787638 
L 98.096174 90.43125 
L 98.645386 91.407883 
L 99.743812 94.39365 
L 100.293024 97.166817 
L 100.842237 97.84027 
L 101.391449 95.50587 
L 101.940662 94.905234 
L 102.489875 93.276085 
L 103.5883 86.498272 
L 104.137512 84.393796 
L 105.235938 90.088581 
L 106.334363 97.251352 
L 106.883575 99.066118 
L 107.432788 102.047241 
L 107.982 104.267931 
L 108.531213 108.300546 
L 109.080426 110.64052 
L 109.629638 111.927238 
L 110.178851 109.884286 
L 111.277276 103.187559 
L 112.375701 108.167309 
L 113.474126 113.78952 
L 114.023339 112.722681 
L 114.572552 113.367513 
L 115.121764 111.19229 
L 116.220189 104.646646 
L 116.769402 96.42095 
L 117.318615 85.684146 
L 117.867827 77.537839 
L 118.41704 72.067935 
L 118.966252 72.015519 
L 119.515465 72.891099 
L 120.064678 72.997459 
L 120.61389 75.052274 
L 121.163103 79.329274 
L 121.712315 86.096306 
L 122.261528 91.289378 
L 123.359953 103.392803 
L 123.909166 103.403857 
L 126.106016 91.371845 
L 126.655229 88.107332 
L 127.204441 89.968918 
L 128.302867 99.907426 
L 128.852079 109.546407 
L 129.401292 116.270121 
L 129.950504 120.686747 
L 130.499717 122.383108 
L 131.04893 120.199507 
L 131.598142 119.48696 
L 132.147355 117.138409 
L 133.24578 107.529219 
L 133.794993 97.978029 
L 134.344205 91.799278 
L 134.893418 89.33301 
L 135.44263 85.436092 
L 135.991843 87.080261 
L 137.090268 95.695319 
L 137.639481 101.677079 
L 138.188693 103.205748 
L 138.737906 100.128914 
L 139.287119 98.151984 
L 139.836331 94.506074 
L 140.385544 88.503195 
L 140.934756 85.812421 
L 141.483969 85.850274 
L 142.033182 84.949426 
L 142.582394 83.153733 
L 143.131607 83.307293 
L 143.680819 91.065991 
L 144.779245 110.177648 
L 145.328457 116.339911 
L 145.87767 116.802857 
L 146.426882 114.281808 
L 147.525308 106.786313 
L 148.07452 106.62826 
L 148.623733 103.871147 
L 149.172945 100.311456 
L 149.722158 98.265971 
L 150.271371 93.569733 
L 150.820583 89.984424 
L 151.369796 92.257937 
L 151.919008 96.699767 
L 152.468221 98.806236 
L 154.115859 94.496091 
L 154.665071 92.507345 
L 155.763497 80.212377 
L 156.312709 79.94633 
L 157.411134 87.450098 
L 157.960347 92.321859 
L 158.50956 99.792556 
L 159.058772 105.120463 
L 159.607985 107.525332 
L 160.157197 105.5509 
L 161.255623 109.378822 
L 161.804835 111.893211 
L 162.354048 113.339689 
L 162.90326 107.833098 
L 163.452473 104.687129 
L 164.001686 105.610928 
L 165.100111 110.819842 
L 165.649323 114.291103 
L 166.747749 117.261975 
L 167.296961 115.290964 
L 167.846174 109.546162 
L 168.395386 106.116036 
L 168.944599 100.268795 
L 169.493812 91.532359 
L 170.043024 85.2956 
L 171.141449 67.142367 
L 171.690662 67.161586 
L 172.239875 67.721298 
L 172.789087 70.992849 
L 173.3383 76.803349 
L 173.887512 78.896758 
L 174.436725 81.986869 
L 174.985938 83.907386 
L 175.53515 84.304985 
L 176.084363 85.303082 
L 176.633575 85.265102 
L 177.182788 88.432387 
L 177.732 88.743367 
L 178.281213 88.587896 
L 178.830426 91.200573 
L 179.379638 90.641111 
L 179.928851 92.899917 
L 181.027276 110.466215 
L 182.125701 119.460505 
L 182.674914 121.776898 
L 183.224126 123.433746 
L 183.773339 121.616078 
L 184.322552 122.171736 
L 184.871764 124.442196 
L 185.420977 122.087953 
L 185.970189 114.530874 
L 186.519402 109.486833 
L 187.068615 106.691908 
L 187.617827 107.677392 
L 188.16704 113.001817 
L 188.716252 113.205567 
L 189.265465 114.419585 
L 189.814678 112.212476 
L 190.36389 107.252744 
L 191.462315 95.161758 
L 192.011528 93.747073 
L 192.560741 88.612767 
L 193.659166 68.022767 
L 194.208378 61.316338 
L 194.757591 57.40259 
L 195.306804 56.928112 
L 195.856016 60.231192 
L 196.405229 68.025959 
L 196.954441 78.030878 
L 197.503654 85.490106 
L 198.052867 90.531213 
L 198.602079 93.225068 
L 199.151292 93.358321 
L 200.79893 101.56599 
L 201.348142 106.350478 
L 201.897355 105.617928 
L 202.446567 101.361906 
L 202.99578 101.026968 
L 203.544993 105.472254 
L 205.19263 130.005567 
L 205.741843 135.616733 
L 206.291056 132.570722 
L 206.840268 131.265277 
L 207.389481 131.777959 
L 207.938693 126.674469 
L 208.487906 125.040544 
L 209.037119 122.054101 
L 209.586331 112.964469 
L 210.135544 106.117311 
L 210.684756 101.632034 
L 211.233969 100.33425 
L 211.783182 95.810407 
L 212.332394 88.669397 
L 212.881607 87.402617 
L 213.430819 85.479824 
L 213.980032 80.634683 
L 214.529245 79.164143 
L 215.078457 75.038745 
L 215.62767 68.663948 
L 216.726095 62.318205 
L 217.275308 58.616704 
L 217.82452 61.363104 
L 218.373733 67.549708 
L 219.472158 76.375966 
L 221.669008 91.683666 
L 222.767434 111.112956 
L 223.316646 118.471136 
L 223.865859 123.9597 
L 224.964284 128.327393 
L 225.513497 133.13757 
L 226.062709 136.19964 
L 227.161134 145.140817 
L 227.710347 144.436881 
L 228.808772 133.582157 
L 229.357985 126.006305 
L 229.907197 116.57813 
L 231.005623 106.047118 
L 232.65326 91.038143 
L 234.850111 65.43979 
L 235.399323 63.636529 
L 235.948536 62.287728 
L 237.596174 50.571705 
L 238.145386 51.364895 
L 238.694599 54.016054 
L 241.440662 90.678206 
L 241.989875 96.359509 
L 242.539087 98.461994 
L 243.0883 103.416282 
L 243.637512 110.119425 
L 244.186725 111.723989 
L 244.735938 116.08372 
L 245.28515 122.104154 
L 245.834363 126.124026 
L 246.932788 132.871647 
L 247.482 138.333114 
L 248.031213 140.340854 
L 248.580426 140.714627 
L 249.129638 140.450046 
L 249.678851 136.85213 
L 251.875701 102.077868 
L 253.523339 86.019299 
L 254.621764 80.061064 
L 255.170977 76.81457 
L 255.720189 72.46633 
L 256.269402 70.597434 
L 256.818615 71.339709 
L 257.367827 69.279754 
L 257.91704 68.578694 
L 258.466252 66.125464 
L 259.015465 64.409722 
L 260.11389 68.086102 
L 260.663103 73.116092 
L 261.212315 81.00113 
L 261.761528 86.931495 
L 262.310741 90.26646 
L 262.859953 95.158055 
L 263.409166 103.037261 
L 263.958378 108.818089 
L 264.507591 116.607123 
L 265.056804 121.755264 
L 266.704441 121.402635 
L 267.253654 124.276148 
L 267.802867 129.87337 
L 268.352079 133.152835 
L 268.901292 133.268105 
L 269.450504 129.673235 
L 269.999717 120.946503 
L 270.54893 116.369307 
L 271.098142 115.547584 
L 272.196567 110.107385 
L 274.393418 83.371147 
L 274.94263 82.789548 
L 275.491843 83.483321 
L 276.041056 80.696089 
L 276.590268 76.84715 
L 277.139481 75.42871 
L 277.688693 74.807785 
L 278.237906 75.938673 
L 278.787119 79.621497 
L 279.336331 79.043276 
L 279.885544 74.294701 
L 280.434756 70.627162 
L 280.983969 71.404744 
L 281.533182 76.426414 
L 282.631607 93.416178 
L 283.180819 100.524969 
L 283.730032 106.14586 
L 284.279245 108.513304 
L 284.828457 112.370585 
L 285.926882 129.908785 
L 286.476095 131.615774 
L 287.025308 128.506158 
L 287.57452 124.406556 
L 288.672945 113.387787 
L 289.222158 108.631268 
L 289.771371 102.115081 
L 290.320583 98.95977 
L 290.869796 99.496667 
L 291.419008 102.110109 
L 291.968221 103.591147 
L 292.517434 103.245397 
L 293.066646 98.458482 
L 293.615859 91.480312 
L 294.165071 86.123766 
L 294.714284 84.490981 
L 295.263497 86.413728 
L 295.812709 90.281781 
L 296.361922 92.479933 
L 297.460347 82.954049 
L 298.00956 83.576323 
L 298.558772 90.066763 
L 299.107985 98.641987 
L 299.657197 102.961434 
L 300.20641 104.187688 
L 300.755623 103.70583 
L 301.304835 100.222244 
L 301.854048 94.50502 
L 302.40326 90.696225 
L 302.952473 88.00485 
L 303.501686 87.105897 
L 304.050898 84.74958 
L 304.600111 85.065891 
L 305.149323 90.703887 
L 305.698536 95.056741 
L 306.247749 97.733252 
L 306.796961 98.230443 
L 307.346174 98.390457 
L 307.895386 98.779823 
L 309.543024 107.646092 
L 310.092237 106.233913 
L 310.641449 100.279682 
L 311.190662 97.214548 
L 311.739875 95.992235 
L 312.289087 96.06871 
L 312.8383 102.937123 
L 313.387512 111.961715 
L 313.936725 117.540549 
L 314.485937 118.585137 
L 315.584363 116.675148 
L 316.133575 114.662724 
L 317.232 106.574014 
L 317.781213 104.788299 
L 318.330426 101.087939 
L 319.978063 78.490348 
L 320.527276 74.901631 
L 321.076489 72.306916 
L 321.625701 73.417971 
L 322.724126 86.102291 
L 323.273339 86.93976 
L 323.822552 85.628015 
L 324.371764 82.255979 
L 324.920977 79.894147 
L 325.470189 83.324161 
L 327.117827 97.533812 
L 327.66704 99.294365 
L 328.216252 97.863738 
L 328.765465 98.333606 
L 329.314678 100.189615 
L 329.86389 104.57104 
L 330.413103 111.438573 
L 330.962315 115.667328 
L 331.511528 117.80921 
L 332.060741 117.535234 
L 332.609953 116.104328 
L 333.159166 115.014234 
L 333.708378 112.146172 
L 334.257591 111.787345 
L 334.806804 115.126776 
L 335.356016 116.194826 
L 336.454441 114.852462 
L 337.003654 112.520204 
L 337.552867 108.092734 
L 338.651292 96.100769 
L 339.200504 92.284644 
L 339.749717 89.650316 
L 340.29893 85.075655 
L 341.397355 73.693486 
L 341.946567 70.202932 
L 342.49578 67.886664 
L 343.044993 66.572684 
L 343.594205 70.967558 
L 344.69263 84.52414 
L 345.241843 89.307691 
L 346.340268 93.529016 
L 346.889481 96.585677 
L 347.438693 98.806213 
L 347.987906 101.56836 
L 348.537119 105.325955 
L 351.283182 127.396987 
L 351.832394 129.596345 
L 352.381607 130.369216 
L 352.930819 129.339508 
L 354.029245 125.987203 
L 354.578457 121.016522 
L 355.12767 112.24792 
L 356.226095 90.905085 
L 356.775308 83.100069 
L 357.32452 77.65059 
L 357.873733 75.203621 
L 358.422945 75.716428 
L 358.972158 75.893751 
L 360.619796 72.817636 
L 361.169008 71.798459 
L 361.718221 71.361567 
L 362.267434 72.230118 
L 362.816646 74.342197 
L 365.013497 85.862164 
L 365.562709 87.742453 
L 366.111922 91.209754 
L 367.75956 112.269862 
L 368.308772 115.731045 
L 369.407197 115.851234 
L 369.95641 115.312529 
L 370.505623 115.2129 
L 371.054835 118.081091 
L 371.604048 122.515572 
L 372.15326 125.870441 
L 372.702473 127.204595 
L 373.251686 126.918952 
L 373.800898 125.125118 
L 375.448536 116.914254 
L 376.546961 108.778614 
L 377.096174 103.249129 
L 378.743812 81.525519 
L 379.293024 77.325943 
L 379.842237 75.319895 
L 380.391449 75.749023 
L 380.940662 77.07372 
L 381.489875 77.042333 
L 382.039087 74.640414 
L 382.5883 72.879177 
L 383.137512 72.724911 
L 383.686725 74.490571 
L 384.235937 76.739724 
L 384.78515 78.420565 
L 385.334363 81.645689 
L 386.432788 86.620474 
L 387.531213 96.105265 
L 388.629638 106.621973 
L 390.277276 117.881594 
L 390.826489 120.145948 
L 391.375701 121.526562 
L 391.924914 121.695075 
L 392.474126 120.53051 
L 393.023339 120.342762 
L 393.572552 121.576182 
L 394.121764 122.269564 
L 394.670977 121.341456 
L 395.220189 118.299567 
L 397.966252 94.256163 
L 399.61389 77.494768 
L 400.163103 73.47741 
L 400.712315 71.089505 
L 401.261528 71.347969 
L 401.810741 71.865165 
L 402.359953 72.18271 
L 402.909166 73.247447 
L 403.458378 74.99944 
L 404.007591 77.950876 
L 404.556804 81.547727 
L 405.106016 83.909579 
L 405.655229 85.219501 
L 406.204441 87.792333 
L 407.852079 101.005526 
L 409.499717 117.032251 
L 410.04893 121.106635 
L 410.598142 124.135639 
L 411.147355 124.705951 
L 411.696567 123.985138 
L 412.24578 122.408425 
L 412.794993 118.965634 
L 413.344205 114.305361 
L 413.893418 110.994246 
L 416.090268 100.843917 
L 416.639481 99.421194 
L 417.188693 99.648269 
L 417.737906 98.734147 
L 418.287119 96.862788 
L 419.385544 90.007612 
L 419.934756 85.880903 
L 420.483969 80.200104 
L 421.033182 75.802341 
L 421.582394 73.134245 
L 422.131607 71.755719 
L 422.680819 73.268842 
L 423.230032 75.978803 
L 424.328457 83.56019 
L 425.426882 91.523121 
L 426.525308 100.025473 
L 427.07452 104.12903 
L 427.623733 106.705578 
L 428.172945 107.941959 
L 428.722158 108.379063 
L 429.271371 108.10719 
L 429.820583 109.231964 
L 430.919008 115.437928 
L 431.468221 117.9601 
L 432.017434 119.243362 
L 433.115859 119.881697 
L 433.665071 118.426905 
L 434.214284 115.019917 
L 435.312709 105.637319 
L 436.411134 96.010423 
L 436.960347 92.107206 
L 437.50956 89.559491 
L 438.607985 85.592305 
L 439.157197 83.29577 
L 439.70641 81.87294 
L 440.255623 81.824417 
L 440.804835 82.398396 
L 441.354048 82.397652 
L 441.90326 81.678524 
L 442.452473 80.604545 
L 443.550898 79.078385 
L 444.100111 80.264137 
L 444.649323 83.298749 
L 445.198536 87.20551 
L 447.395386 107.554043 
L 449.043024 115.442245 
L 449.592237 116.052558 
L 450.141449 116.266407 
L 450.690662 116.351631 
L 451.239875 115.40848 
L 452.3383 111.775405 
L 452.887512 111.015611 
L 453.436725 110.576908 
L 453.985937 109.553077 
L 455.084363 107.946028 
L 455.633575 106.184563 
L 456.182788 103.304861 
L 457.281213 95.235133 
L 458.379638 85.826058 
L 458.928851 82.418723 
L 459.478063 80.088402 
L 460.027276 78.753831 
L 460.576489 78.656419 
L 461.674914 79.611662 
L 462.224126 80.647878 
L 462.773339 82.423075 
L 464.970189 94.08598 
L 465.519402 95.989107 
L 466.068615 97.099576 
L 466.617827 98.578547 
L 467.16704 100.417057 
L 468.265465 105.364113 
L 469.36389 110.746704 
L 469.913103 112.290803 
L 471.011528 114.683802 
L 471.560741 114.929658 
L 472.109953 113.834722 
L 473.757591 109.553126 
L 474.306804 107.630112 
L 474.306804 107.630112 
" clip-path="url(#pfbeff363b0)" style="fill: none; stroke-dasharray: 7.68,1.92,1.2,1.92; stroke-dashoffset: 0; stroke: #0000ff; stroke-width: 1.2"/>
   </g>
   <g id="line2d_36">
    <path d="M 35.485937 98.085993 
L 37.133575 98.187102 
L 40.978063 98.764011 
L 41.527276 98.515746 
L 43.724126 98.328121 
L 44.273339 97.93754 
L 45.371764 97.683169 
L 45.920977 96.939119 
L 47.019402 97.664616 
L 47.568615 98.444859 
L 48.117827 98.30198 
L 48.66704 98.860042 
L 49.216252 99.0773 
L 49.765465 99.092812 
L 50.314678 98.510986 
L 51.413103 100.537476 
L 51.962315 100.40513 
L 52.511528 99.796139 
L 53.060741 97.801138 
L 53.609953 97.983022 
L 54.159166 97.502125 
L 54.708378 98.45096 
L 55.257591 99.065802 
L 55.806804 97.954483 
L 56.356016 98.142629 
L 57.454441 96.338531 
L 58.003654 96.877151 
L 58.552867 97.004189 
L 59.102079 96.296831 
L 59.651292 96.119825 
L 60.200504 95.605338 
L 60.749717 94.17725 
L 61.29893 93.596457 
L 61.848142 93.605385 
L 62.397355 92.010228 
L 62.946567 93.276992 
L 63.49578 92.532017 
L 64.044993 93.078352 
L 64.594205 93.915622 
L 65.143418 95.683604 
L 65.69263 95.312344 
L 66.241843 94.739109 
L 66.791056 96.704118 
L 67.340268 102.230379 
L 68.987906 108.705153 
L 69.537119 109.421357 
L 70.086331 108.667856 
L 71.184756 106.315782 
L 71.733969 104.782313 
L 72.283182 105.74008 
L 73.381607 103.061777 
L 73.930819 100.891013 
L 74.480032 100.328883 
L 75.029245 99.044467 
L 75.578457 98.368619 
L 76.12767 98.321353 
L 76.676882 100.614126 
L 77.226095 100.181249 
L 77.775308 96.837863 
L 78.32452 91.157608 
L 78.873733 86.967741 
L 79.422945 85.264468 
L 79.972158 84.846895 
L 80.521371 87.498798 
L 81.070583 87.398045 
L 81.619796 85.828021 
L 82.169008 86.503363 
L 82.718221 89.333303 
L 83.267434 93.17386 
L 83.816646 94.928286 
L 84.365859 101.340939 
L 84.915071 100.798461 
L 85.464284 97.527952 
L 86.013497 96.440826 
L 86.562709 93.611038 
L 87.111922 98.144916 
L 87.661134 100.510383 
L 88.210347 101.029897 
L 88.75956 101.775312 
L 89.308772 102.155063 
L 89.857985 102.131352 
L 90.407197 108.734336 
L 90.95641 109.974977 
L 91.505623 109.713968 
L 92.054835 109.942003 
L 92.604048 113.516496 
L 93.702473 105.274445 
L 94.251686 103.200736 
L 95.899323 94.798152 
L 96.448536 90.139852 
L 96.997749 90.25216 
L 97.546961 92.167257 
L 98.096174 90.776366 
L 98.645386 91.961739 
L 99.194599 91.245467 
L 99.743812 94.431454 
L 100.293024 94.009392 
L 100.842237 96.753702 
L 101.391449 92.780115 
L 101.940662 92.908843 
L 102.489875 92.652667 
L 103.5883 86.815321 
L 104.137512 87.144977 
L 104.686725 86.68597 
L 105.235938 93.239809 
L 105.78515 94.578457 
L 106.334363 101.43975 
L 106.883575 100.709056 
L 107.432788 103.973384 
L 107.982 104.881163 
L 109.080426 109.361166 
L 110.178851 108.972675 
L 110.728063 104.608066 
L 111.277276 101.872053 
L 111.826489 101.120291 
L 112.375701 107.293566 
L 112.924914 106.842832 
L 113.474126 112.907558 
L 114.023339 111.232255 
L 114.572552 111.959932 
L 115.121764 111.689638 
L 115.670977 107.776163 
L 116.220189 105.665163 
L 116.769402 100.009879 
L 117.867827 82.137727 
L 118.41704 76.133686 
L 118.966252 74.085631 
L 119.515465 75.44752 
L 120.064678 74.836739 
L 120.61389 76.161335 
L 121.163103 78.523481 
L 121.712315 85.103274 
L 122.261528 89.995331 
L 122.810741 91.960042 
L 123.359953 99.323594 
L 123.909166 99.753119 
L 124.458378 98.629074 
L 125.007591 95.46413 
L 125.556804 94.730468 
L 126.106016 93.403537 
L 126.655229 92.856958 
L 127.204441 92.747606 
L 127.753654 100.538442 
L 128.302867 104.678712 
L 129.401292 119.006164 
L 129.950504 120.643103 
L 130.499717 123.710328 
L 131.04893 120.183729 
L 132.147355 114.701334 
L 133.24578 104.857761 
L 134.344205 89.075454 
L 134.893418 90.059077 
L 135.44263 87.668596 
L 135.991843 88.194987 
L 137.639481 102.749712 
L 138.188693 105.448688 
L 139.836331 93.517886 
L 140.385544 88.785115 
L 140.934756 82.311994 
L 141.483969 83.950792 
L 142.582394 82.427975 
L 143.131607 81.632506 
L 143.680819 87.188251 
L 144.779245 107.640023 
L 145.328457 113.783931 
L 145.87767 116.595427 
L 146.426882 114.09691 
L 146.976095 112.657075 
L 147.525308 107.103948 
L 148.07452 105.265576 
L 148.623733 104.752555 
L 149.172945 100.041711 
L 149.722158 98.708776 
L 150.820583 91.913129 
L 151.369796 92.943393 
L 151.919008 97.353971 
L 152.468221 100.306048 
L 153.017434 99.809814 
L 153.566646 97.164524 
L 154.115859 95.595874 
L 154.665071 91.872625 
L 155.214284 89.940429 
L 155.763497 80.719243 
L 156.312709 79.331734 
L 156.861922 82.099255 
L 157.411134 87.521221 
L 157.960347 90.001693 
L 159.607985 105.482924 
L 160.157197 106.103821 
L 160.70641 103.821572 
L 161.255623 109.850566 
L 161.804835 109.027272 
L 162.354048 114.210008 
L 162.90326 108.061087 
L 163.452473 104.291873 
L 164.001686 104.252905 
L 164.550898 107.086789 
L 165.100111 108.570888 
L 166.198536 114.307778 
L 166.747749 114.608581 
L 167.296961 114.234265 
L 168.395386 103.008756 
L 168.944599 99.806635 
L 169.493812 91.627356 
L 170.043024 85.438036 
L 170.592237 80.785763 
L 171.141449 71.338911 
L 171.690662 69.185298 
L 172.239875 72.298161 
L 172.789087 71.904089 
L 173.3383 78.215416 
L 173.887512 81.143373 
L 174.436725 82.699059 
L 174.985938 84.641327 
L 176.084363 85.504582 
L 176.633575 84.927385 
L 177.182788 86.780473 
L 177.732 90.833969 
L 178.281213 87.74807 
L 178.830426 93.027818 
L 179.379638 93.220669 
L 179.928851 95.505079 
L 180.478063 103.373283 
L 181.027276 114.755587 
L 182.125701 123.039937 
L 182.674914 124.396948 
L 183.224126 124.934071 
L 183.773339 123.400767 
L 184.322552 120.103982 
L 184.871764 121.83364 
L 185.420977 119.740712 
L 185.970189 116.174451 
L 186.519402 106.739556 
L 187.068615 106.654517 
L 187.617827 104.114251 
L 188.16704 110.111667 
L 188.716252 111.968711 
L 189.265465 109.746764 
L 189.814678 111.407664 
L 190.36389 106.057711 
L 190.913103 101.980548 
L 191.462315 92.766931 
L 192.011528 91.506457 
L 192.560741 89.820838 
L 193.659166 70.79619 
L 194.208378 63.507072 
L 194.757591 61.581379 
L 195.306804 60.193228 
L 195.856016 62.541233 
L 196.405229 68.530106 
L 196.954441 78.575045 
L 197.503654 85.706723 
L 198.052867 89.728173 
L 199.151292 92.101158 
L 199.700504 92.387996 
L 200.249717 97.289185 
L 200.79893 98.936355 
L 201.897355 108.234296 
L 202.446567 104.158839 
L 202.99578 103.546043 
L 203.544993 108.068656 
L 204.643418 123.963812 
L 205.19263 129.491865 
L 205.741843 137.426353 
L 206.291056 134.521158 
L 206.840268 128.846489 
L 207.389481 127.784621 
L 207.938693 123.610028 
L 208.487906 116.99364 
L 209.037119 118.061388 
L 209.586331 108.894888 
L 210.135544 101.788068 
L 210.684756 97.529511 
L 211.783182 94.962258 
L 212.332394 88.377621 
L 212.881607 86.835591 
L 213.430819 87.322084 
L 213.980032 83.245753 
L 215.078457 78.029458 
L 215.62767 71.035063 
L 216.176882 66.564191 
L 216.726095 64.405662 
L 217.82452 58.341214 
L 218.373733 66.2257 
L 219.472158 74.812421 
L 220.021371 79.039534 
L 220.570583 84.69516 
L 221.119796 88.936363 
L 221.669008 91.961121 
L 223.316646 118.819939 
L 223.865859 123.689763 
L 224.415071 126.537736 
L 224.964284 127.176086 
L 226.062709 134.909683 
L 226.611922 136.067328 
L 227.161134 141.461585 
L 227.710347 141.382518 
L 228.25956 138.016793 
L 228.808772 129.73376 
L 229.357985 124.881865 
L 229.907197 115.880006 
L 230.45641 110.141567 
L 231.005623 106.798353 
L 231.554835 101.118578 
L 232.104048 97.20426 
L 233.202473 84.422157 
L 233.751686 76.263709 
L 235.399323 60.358041 
L 235.948536 62.398396 
L 236.497749 57.565458 
L 237.046961 55.103707 
L 237.596174 51.046903 
L 238.145386 50.902286 
L 239.243812 60.512869 
L 239.793024 71.91766 
L 240.342237 77.082123 
L 240.891449 86.391803 
L 241.440662 92.911447 
L 242.539087 102.491218 
L 243.0883 103.582987 
L 243.637512 111.951423 
L 244.186725 115.639951 
L 244.735938 116.910572 
L 245.28515 124.722943 
L 245.834363 127.339418 
L 246.383575 131.284242 
L 246.932788 132.636639 
L 247.482 137.335486 
L 248.031213 140.563928 
L 248.580426 138.956989 
L 249.129638 139.348689 
L 249.678851 134.826321 
L 250.228063 128.310497 
L 250.777276 118.652782 
L 251.326489 112.458319 
L 251.875701 102.529542 
L 252.424914 96.111812 
L 252.974126 93.003078 
L 254.072552 82.727674 
L 254.621764 82.019082 
L 255.170977 77.523853 
L 255.720189 74.391626 
L 256.269402 68.530429 
L 256.818615 71.090405 
L 257.367827 68.182181 
L 257.91704 66.608528 
L 258.466252 65.551797 
L 259.015465 62.715893 
L 260.11389 68.046786 
L 260.663103 71.903104 
L 261.212315 80.990667 
L 262.310741 93.768686 
L 262.859953 96.473888 
L 263.958378 111.061606 
L 264.507591 115.501735 
L 265.056804 123.785597 
L 265.606016 122.475822 
L 266.155229 122.635607 
L 266.704441 122.668874 
L 267.253654 122.897464 
L 267.802867 126.469934 
L 268.352079 131.218151 
L 268.901292 131.177692 
L 269.450504 128.994929 
L 270.54893 115.632318 
L 271.098142 114.96022 
L 271.647355 112.798081 
L 272.74578 105.631314 
L 273.294993 96.83494 
L 273.844205 91.956015 
L 274.393418 83.495733 
L 274.94263 80.605317 
L 275.491843 81.252888 
L 276.041056 79.703184 
L 276.590268 76.915056 
L 277.139481 72.942345 
L 277.688693 73.617826 
L 278.237906 72.276348 
L 278.787119 75.595429 
L 279.336331 78.215177 
L 279.885544 74.540848 
L 280.434756 72.579115 
L 280.983969 73.578447 
L 281.533182 77.320013 
L 282.082394 84.501245 
L 282.631607 93.994356 
L 283.730032 105.834194 
L 284.279245 109.117438 
L 284.828457 111.4937 
L 285.37767 116.375193 
L 285.926882 125.288072 
L 286.476095 129.497989 
L 287.025308 126.868736 
L 287.57452 123.20215 
L 288.672945 113.55317 
L 289.222158 111.594135 
L 289.771371 105.609329 
L 290.320583 102.563024 
L 290.869796 103.90527 
L 291.419008 105.744929 
L 291.968221 105.921192 
L 293.066646 100.733147 
L 293.615859 91.761873 
L 294.165071 86.211705 
L 294.714284 82.285465 
L 295.812709 83.793337 
L 296.361922 86.607215 
L 296.911134 84.201265 
L 297.460347 79.278901 
L 298.00956 80.313182 
L 298.558772 85.114377 
L 299.107985 95.302368 
L 299.657197 101.57189 
L 300.20641 103.822841 
L 300.755623 104.522728 
L 301.304835 103.307265 
L 301.854048 99.007318 
L 302.40326 93.216648 
L 303.501686 89.895203 
L 304.050898 91.514212 
L 304.600111 88.088881 
L 305.149323 92.930187 
L 306.247749 98.761782 
L 306.796961 97.759386 
L 307.346174 98.084996 
L 307.895386 98.999978 
L 308.993812 103.44405 
L 309.543024 104.22005 
L 310.092237 105.23239 
L 310.641449 101.592895 
L 311.190662 97.034633 
L 311.739875 97.807872 
L 312.289087 97.971173 
L 312.8383 102.292409 
L 313.387512 110.703719 
L 313.936725 116.768158 
L 314.485937 118.763584 
L 315.03515 116.911323 
L 316.133575 111.65111 
L 316.682788 108.479497 
L 317.232 104.001152 
L 317.781213 101.345978 
L 318.330426 100.079472 
L 318.879638 95.389948 
L 319.978063 80.211419 
L 320.527276 77.930586 
L 321.076489 77.85321 
L 321.625701 77.958028 
L 322.174914 81.727173 
L 322.724126 88.436861 
L 323.273339 89.88673 
L 324.371764 83.156896 
L 324.920977 79.496085 
L 325.470189 81.396748 
L 326.019402 86.27136 
L 326.568615 88.89553 
L 327.117827 94.04575 
L 327.66704 98.037031 
L 328.216252 98.579032 
L 328.765465 97.544687 
L 329.314678 102.501407 
L 329.86389 105.886205 
L 330.413103 113.35672 
L 330.962315 118.384957 
L 331.511528 120.946194 
L 332.060741 120.669606 
L 332.609953 118.370327 
L 333.159166 115.348252 
L 333.708378 113.086691 
L 334.257591 110.214279 
L 334.806804 112.59074 
L 335.356016 113.96593 
L 335.905229 113.05305 
L 337.003654 108.766867 
L 337.552867 105.283772 
L 338.651292 95.674285 
L 339.749717 90.181911 
L 340.29893 88.674607 
L 340.848142 82.24452 
L 341.946567 73.325778 
L 342.49578 73.001776 
L 343.044993 70.034803 
L 343.594205 71.825462 
L 344.69263 83.616248 
L 345.241843 87.19866 
L 345.791056 88.798364 
L 346.340268 89.127112 
L 346.889481 92.786847 
L 347.438693 95.089797 
L 347.987906 98.094752 
L 348.537119 102.012452 
L 349.635544 113.000663 
L 351.283182 126.923847 
L 352.381607 131.086077 
L 352.930819 129.936254 
L 353.480032 128.127678 
L 354.029245 125.393947 
L 354.578457 120.960082 
L 355.676882 102.724715 
L 356.226095 92.578171 
L 356.775308 84.741568 
L 357.32452 79.87392 
L 357.873733 76.916888 
L 358.422945 76.721837 
L 358.972158 77.14538 
L 359.521371 76.162269 
L 361.169008 71.621413 
L 361.718221 70.898096 
L 362.267434 71.615551 
L 362.816646 73.368857 
L 364.464284 81.425623 
L 366.111922 93.11061 
L 366.661134 99.594711 
L 367.75956 114.442407 
L 368.308772 119.232977 
L 368.857985 118.89195 
L 369.407197 118.057071 
L 369.95641 118.111595 
L 370.505623 117.337607 
L 371.054835 117.91304 
L 372.15326 124.542864 
L 372.702473 125.301992 
L 373.251686 124.279903 
L 373.800898 122.184647 
L 375.448536 113.515285 
L 375.997749 111.082817 
L 377.096174 103.10051 
L 378.743812 82.283914 
L 379.842237 76.280174 
L 380.391449 76.535779 
L 380.940662 77.016949 
L 381.489875 77.679453 
L 382.5883 72.040308 
L 383.137512 71.290151 
L 383.686725 72.548176 
L 384.235937 75.252912 
L 384.78515 76.896883 
L 385.334363 79.799331 
L 385.883575 84.010518 
L 386.432788 86.599442 
L 387.531213 96.41139 
L 388.629638 108.001479 
L 389.178851 112.539011 
L 390.826489 121.471714 
L 391.375701 121.624787 
L 391.924914 121.601381 
L 393.023339 119.568833 
L 393.572552 119.660876 
L 394.121764 120.470776 
L 394.670977 119.350053 
L 395.220189 117.128356 
L 396.867827 104.711789 
L 397.41704 100.486519 
L 399.61389 79.7398 
L 400.712315 72.714566 
L 401.261528 72.038714 
L 401.810741 72.757919 
L 402.359953 72.753467 
L 402.909166 73.290684 
L 403.458378 74.6329 
L 404.007591 76.793104 
L 405.106016 82.760952 
L 405.655229 84.578385 
L 406.204441 86.884295 
L 408.401292 106.574874 
L 409.499717 117.654674 
L 410.598142 124.73637 
L 411.147355 125.550526 
L 411.696567 124.596281 
L 412.24578 123.274095 
L 412.794993 120.556106 
L 413.893418 112.010429 
L 414.44263 109.762752 
L 415.541056 103.760833 
L 416.090268 101.907484 
L 416.639481 99.184674 
L 417.188693 98.710462 
L 417.737906 97.8745 
L 418.287119 95.43786 
L 418.836331 92.37119 
L 419.385544 88.050539 
L 419.934756 85.095018 
L 421.033182 75.764807 
L 421.582394 73.689174 
L 422.131607 72.70648 
L 422.680819 74.223449 
L 423.779245 80.53488 
L 424.328457 84.950525 
L 425.426882 91.795196 
L 426.525308 99.36161 
L 427.07452 102.592489 
L 427.623733 105.159132 
L 428.722158 107.208106 
L 429.271371 107.309146 
L 429.820583 108.495567 
L 430.369796 111.277377 
L 430.919008 115.480129 
L 431.468221 118.066145 
L 432.017434 120.04158 
L 432.566646 119.915986 
L 433.115859 120.199099 
L 433.665071 118.928063 
L 434.214284 115.787082 
L 436.960347 92.180067 
L 437.50956 88.815239 
L 439.70641 81.755225 
L 440.255623 81.717604 
L 440.804835 82.157198 
L 441.354048 82.341755 
L 441.90326 81.701058 
L 442.452473 80.864003 
L 443.001686 80.361798 
L 443.550898 80.266678 
L 444.100111 80.568575 
L 445.198536 87.65504 
L 447.395386 107.305515 
L 447.944599 109.460714 
L 449.043024 114.491747 
L 449.592237 115.778392 
L 450.141449 115.914872 
L 450.690662 115.887824 
L 451.239875 115.504773 
L 452.887512 111.350451 
L 453.436725 111.330374 
L 453.985937 110.591141 
L 454.53515 109.332317 
L 455.084363 107.772897 
L 455.633575 105.766529 
L 456.182788 102.909543 
L 458.928851 81.985264 
L 459.478063 79.717456 
L 460.027276 78.703183 
L 460.576489 78.798122 
L 461.674914 80.073808 
L 462.224126 81.400214 
L 462.773339 83.182467 
L 463.322552 85.5004 
L 464.420977 91.180644 
L 465.519402 95.424314 
L 466.068615 96.436023 
L 466.617827 97.962956 
L 467.716252 102.446017 
L 469.36389 111.495726 
L 469.913103 113.066686 
L 470.462315 114.263835 
L 471.011528 115.077948 
L 471.560741 115.596398 
L 472.109953 114.613761 
L 473.757591 109.203485 
L 474.306804 107.442447 
L 474.306804 107.442447 
" clip-path="url(#pfbeff363b0)" style="fill: none; stroke-dasharray: 1.2,1.98; stroke-dashoffset: 0; stroke: #008000; stroke-width: 1.2"/>
   </g>
   <g id="patch_3">
    <path d="M 35.485937 185.393079 
L 35.485937 10.778906 
" style="fill: none; stroke: #000000; stroke-width: 0.8; stroke-linejoin: miter; stroke-linecap: square"/>
   </g>
   <g id="patch_4">
    <path d="M 474.856016 185.393079 
L 474.856016 10.778906 
" style="fill: none; stroke: #000000; stroke-width: 0.8; stroke-linejoin: miter; stroke-linecap: square"/>
   </g>
   <g id="patch_5">
    <path d="M 35.485937 185.393079 
L 474.856016 185.393079 
" style="fill: none; stroke: #000000; stroke-width: 0.8; stroke-linejoin: miter; stroke-linecap: square"/>
   </g>
   <g id="patch_6">
    <path d="M 35.485937 10.778906 
L 474.856016 10.778906 
" style="fill: none; stroke: #000000; stroke-width: 0.8; stroke-linejoin: miter; stroke-linecap: square"/>
   </g>
   <g id="text_19">
    <!-- 13th floor -->
    <g transform="translate(410.073696 166.151464) scale(0.1 -0.1)">
     <defs>
      <path id="ArialMT-68" d="M 422 0 
L 422 4581 
L 984 4581 
L 984 2938 
Q 1378 3394 1978 3394 
Q 2347 3394 2619 3248 
Q 2891 3103 3008 2847 
Q 3125 2591 3125 2103 
L 3125 0 
L 2563 0 
L 2563 2103 
Q 2563 2525 2380 2717 
Q 2197 2909 1863 2909 
Q 1613 2909 1392 2779 
Q 1172 2650 1078 2428 
Q 984 2206 984 1816 
L 984 0 
L 422 0 
z
" transform="scale(0.015625)"/>
      <path id="ArialMT-66" d="M 556 0 
L 556 2881 
L 59 2881 
L 59 3319 
L 556 3319 
L 556 3672 
Q 556 4006 616 4169 
Q 697 4388 901 4523 
Q 1106 4659 1475 4659 
Q 1713 4659 2000 4603 
L 1916 4113 
Q 1741 4144 1584 4144 
Q 1328 4144 1222 4034 
Q 1116 3925 1116 3625 
L 1116 3319 
L 1763 3319 
L 1763 2881 
L 1116 2881 
L 1116 0 
L 556 0 
z
" transform="scale(0.015625)"/>
      <path id="ArialMT-72" d="M 416 0 
L 416 3319 
L 922 3319 
L 922 2816 
Q 1116 3169 1280 3281 
Q 1444 3394 1641 3394 
Q 1925 3394 2219 3213 
L 2025 2691 
Q 1819 2813 1613 2813 
Q 1428 2813 1281 2702 
Q 1134 2591 1072 2394 
Q 978 2094 978 1738 
L 978 0 
L 416 0 
z
" transform="scale(0.015625)"/>
     </defs>
     <use xlink:href="#ArialMT-31"/>
     <use xlink:href="#ArialMT-33" x="55.615234"/>
     <use xlink:href="#ArialMT-74" x="111.230469"/>
     <use xlink:href="#ArialMT-68" x="139.013672"/>
     <use xlink:href="#ArialMT-20" x="194.628906"/>
     <use xlink:href="#ArialMT-66" x="222.412109"/>
     <use xlink:href="#ArialMT-6c" x="250.195312"/>
     <use xlink:href="#ArialMT-6f" x="272.412109"/>
     <use xlink:href="#ArialMT-6f" x="328.027344"/>
     <use xlink:href="#ArialMT-72" x="383.642578"/>
    </g>
   </g>
   <g id="legend_1">
    <g id="patch_7">
     <path d="M 124.587266 32.924219 
L 467.856016 32.924219 
Q 469.856016 32.924219 469.856016 30.924219 
L 469.856016 17.778906 
Q 469.856016 15.778906 467.856016 15.778906 
L 124.587266 15.778906 
Q 122.587266 15.778906 122.587266 17.778906 
L 122.587266 30.924219 
Q 122.587266 32.924219 124.587266 32.924219 
z
" style="fill: #ffffff; opacity: 0.8; stroke: #000000; stroke-linejoin: miter"/>
    </g>
    <g id="line2d_37">
     <path d="M 126.587266 23.436719 
L 136.587266 23.436719 
L 146.587266 23.436719 
" style="fill: none; stroke: #000000; stroke-width: 1.2; stroke-linecap: square"/>
    </g>
    <g id="text_20">
     <!-- Ref. -->
     <g transform="translate(154.587266 26.936719) scale(0.1 -0.1)">
      <defs>
       <path id="ArialMT-52" d="M 503 0 
L 503 4581 
L 2534 4581 
Q 3147 4581 3465 4457 
Q 3784 4334 3975 4021 
Q 4166 3709 4166 3331 
Q 4166 2844 3850 2509 
Q 3534 2175 2875 2084 
Q 3116 1969 3241 1856 
Q 3506 1613 3744 1247 
L 4541 0 
L 3778 0 
L 3172 953 
Q 2906 1366 2734 1584 
Q 2563 1803 2427 1890 
Q 2291 1978 2150 2013 
Q 2047 2034 1813 2034 
L 1109 2034 
L 1109 0 
L 503 0 
z
M 1109 2559 
L 2413 2559 
Q 2828 2559 3062 2645 
Q 3297 2731 3419 2920 
Q 3541 3109 3541 3331 
Q 3541 3656 3305 3865 
Q 3069 4075 2559 4075 
L 1109 4075 
L 1109 2559 
z
" transform="scale(0.015625)"/>
       <path id="ArialMT-2e" d="M 581 0 
L 581 641 
L 1222 641 
L 1222 0 
L 581 0 
z
" transform="scale(0.015625)"/>
      </defs>
      <use xlink:href="#ArialMT-52"/>
      <use xlink:href="#ArialMT-65" x="72.216797"/>
      <use xlink:href="#ArialMT-66" x="127.832031"/>
      <use xlink:href="#ArialMT-2e" x="155.615234"/>
     </g>
    </g>
    <g id="line2d_38">
     <path d="M 192.926329 23.436719 
L 202.926329 23.436719 
L 212.926329 23.436719 
" style="fill: none; stroke-dasharray: 4.44,1.92; stroke-dashoffset: 0; stroke: #ff0000; stroke-width: 1.2"/>
    </g>
    <g id="text_21">
     <!-- BiRNN pred. -->
     <g transform="translate(220.926329 26.936719) scale(0.1 -0.1)">
      <defs>
       <path id="ArialMT-42" d="M 469 0 
L 469 4581 
L 2188 4581 
Q 2713 4581 3030 4442 
Q 3347 4303 3526 4014 
Q 3706 3725 3706 3409 
Q 3706 3116 3547 2856 
Q 3388 2597 3066 2438 
Q 3481 2316 3704 2022 
Q 3928 1728 3928 1328 
Q 3928 1006 3792 729 
Q 3656 453 3456 303 
Q 3256 153 2954 76 
Q 2653 0 2216 0 
L 469 0 
z
M 1075 2656 
L 2066 2656 
Q 2469 2656 2644 2709 
Q 2875 2778 2992 2937 
Q 3109 3097 3109 3338 
Q 3109 3566 3000 3739 
Q 2891 3913 2687 3977 
Q 2484 4041 1991 4041 
L 1075 4041 
L 1075 2656 
z
M 1075 541 
L 2216 541 
Q 2509 541 2628 563 
Q 2838 600 2978 687 
Q 3119 775 3209 942 
Q 3300 1109 3300 1328 
Q 3300 1584 3169 1773 
Q 3038 1963 2805 2039 
Q 2572 2116 2134 2116 
L 1075 2116 
L 1075 541 
z
" transform="scale(0.015625)"/>
       <path id="ArialMT-4e" d="M 488 0 
L 488 4581 
L 1109 4581 
L 3516 984 
L 3516 4581 
L 4097 4581 
L 4097 0 
L 3475 0 
L 1069 3600 
L 1069 0 
L 488 0 
z
" transform="scale(0.015625)"/>
       <path id="ArialMT-70" d="M 422 -1272 
L 422 3319 
L 934 3319 
L 934 2888 
Q 1116 3141 1344 3267 
Q 1572 3394 1897 3394 
Q 2322 3394 2647 3175 
Q 2972 2956 3137 2557 
Q 3303 2159 3303 1684 
Q 3303 1175 3120 767 
Q 2938 359 2589 142 
Q 2241 -75 1856 -75 
Q 1575 -75 1351 44 
Q 1128 163 984 344 
L 984 -1272 
L 422 -1272 
z
M 931 1641 
Q 931 1000 1190 694 
Q 1450 388 1819 388 
Q 2194 388 2461 705 
Q 2728 1022 2728 1688 
Q 2728 2322 2467 2637 
Q 2206 2953 1844 2953 
Q 1484 2953 1207 2617 
Q 931 2281 931 1641 
z
" transform="scale(0.015625)"/>
       <path id="ArialMT-64" d="M 2575 0 
L 2575 419 
Q 2259 -75 1647 -75 
Q 1250 -75 917 144 
Q 584 363 401 755 
Q 219 1147 219 1656 
Q 219 2153 384 2558 
Q 550 2963 881 3178 
Q 1213 3394 1622 3394 
Q 1922 3394 2156 3267 
Q 2391 3141 2538 2938 
L 2538 4581 
L 3097 4581 
L 3097 0 
L 2575 0 
z
M 797 1656 
Q 797 1019 1065 703 
Q 1334 388 1700 388 
Q 2069 388 2326 689 
Q 2584 991 2584 1609 
Q 2584 2291 2321 2609 
Q 2059 2928 1675 2928 
Q 1300 2928 1048 2622 
Q 797 2316 797 1656 
z
" transform="scale(0.015625)"/>
      </defs>
      <use xlink:href="#ArialMT-42"/>
      <use xlink:href="#ArialMT-69" x="66.699219"/>
      <use xlink:href="#ArialMT-52" x="88.916016"/>
      <use xlink:href="#ArialMT-4e" x="161.132812"/>
      <use xlink:href="#ArialMT-4e" x="233.349609"/>
      <use xlink:href="#ArialMT-20" x="305.566406"/>
      <use xlink:href="#ArialMT-70" x="333.349609"/>
      <use xlink:href="#ArialMT-72" x="388.964844"/>
      <use xlink:href="#ArialMT-65" x="422.265625"/>
      <use xlink:href="#ArialMT-64" x="477.880859"/>
      <use xlink:href="#ArialMT-2e" x="533.496094"/>
     </g>
    </g>
    <g id="line2d_39">
     <path d="M 297.052891 23.436719 
L 307.052891 23.436719 
L 317.052891 23.436719 
" style="fill: none; stroke-dasharray: 7.68,1.92,1.2,1.92; stroke-dashoffset: 0; stroke: #0000ff; stroke-width: 1.2"/>
    </g>
    <g id="text_22">
     <!-- RNN pred. -->
     <g transform="translate(325.052891 26.936719) scale(0.1 -0.1)">
      <use xlink:href="#ArialMT-52"/>
      <use xlink:href="#ArialMT-4e" x="72.216797"/>
      <use xlink:href="#ArialMT-4e" x="144.433594"/>
      <use xlink:href="#ArialMT-20" x="216.650391"/>
      <use xlink:href="#ArialMT-70" x="244.433594"/>
      <use xlink:href="#ArialMT-72" x="300.048828"/>
      <use xlink:href="#ArialMT-65" x="333.349609"/>
      <use xlink:href="#ArialMT-64" x="388.964844"/>
      <use xlink:href="#ArialMT-2e" x="444.580078"/>
     </g>
    </g>
    <g id="line2d_40">
     <path d="M 392.287266 23.436719 
L 402.287266 23.436719 
L 412.287266 23.436719 
" style="fill: none; stroke-dasharray: 1.2,1.98; stroke-dashoffset: 0; stroke: #008000; stroke-width: 1.2"/>
    </g>
    <g id="text_23">
     <!-- DKF pred. -->
     <g transform="translate(420.287266 26.936719) scale(0.1 -0.1)">
      <defs>
       <path id="ArialMT-44" d="M 494 0 
L 494 4581 
L 2072 4581 
Q 2606 4581 2888 4516 
Q 3281 4425 3559 4188 
Q 3922 3881 4101 3404 
Q 4281 2928 4281 2316 
Q 4281 1794 4159 1391 
Q 4038 988 3847 723 
Q 3656 459 3429 307 
Q 3203 156 2883 78 
Q 2563 0 2147 0 
L 494 0 
z
M 1100 541 
L 2078 541 
Q 2531 541 2789 625 
Q 3047 709 3200 863 
Q 3416 1078 3536 1442 
Q 3656 1806 3656 2325 
Q 3656 3044 3420 3430 
Q 3184 3816 2847 3947 
Q 2603 4041 2063 4041 
L 1100 4041 
L 1100 541 
z
" transform="scale(0.015625)"/>
       <path id="ArialMT-4b" d="M 469 0 
L 469 4581 
L 1075 4581 
L 1075 2309 
L 3350 4581 
L 4172 4581 
L 2250 2725 
L 4256 0 
L 3456 0 
L 1825 2319 
L 1075 1588 
L 1075 0 
L 469 0 
z
" transform="scale(0.015625)"/>
       <path id="ArialMT-46" d="M 525 0 
L 525 4581 
L 3616 4581 
L 3616 4041 
L 1131 4041 
L 1131 2622 
L 3281 2622 
L 3281 2081 
L 1131 2081 
L 1131 0 
L 525 0 
z
" transform="scale(0.015625)"/>
      </defs>
      <use xlink:href="#ArialMT-44"/>
      <use xlink:href="#ArialMT-4b" x="72.216797"/>
      <use xlink:href="#ArialMT-46" x="138.916016"/>
      <use xlink:href="#ArialMT-20" x="200"/>
      <use xlink:href="#ArialMT-70" x="227.783203"/>
      <use xlink:href="#ArialMT-72" x="283.398438"/>
      <use xlink:href="#ArialMT-65" x="316.699219"/>
      <use xlink:href="#ArialMT-64" x="372.314453"/>
      <use xlink:href="#ArialMT-2e" x="427.929688"/>
     </g>
    </g>
   </g>
  </g>
 </g>
 <defs>
  <clipPath id="pfbeff363b0">
   <rect x="35.485937" y="10.778906" width="439.370079" height="174.614173"/>
  </clipPath>
 </defs>
</svg>
