<?xml version="1.0" encoding="utf-8" standalone="no"?>
<!DOCTYPE svg PUBLIC "-//W3C//DTD SVG 1.1//EN"
  "http://www.w3.org/Graphics/SVG/1.1/DTD/svg11.dtd">
<svg xmlns:xlink="http://www.w3.org/1999/xlink" width="487.616954pt" height="218.622767pt" viewBox="0 0 487.616954 218.622767" xmlns="http://www.w3.org/2000/svg" version="1.1">
 <metadata>
  <rdf:RDF xmlns:dc="http://purl.org/dc/elements/1.1/" xmlns:cc="http://creativecommons.org/ns#" xmlns:rdf="http://www.w3.org/1999/02/22-rdf-syntax-ns#">
   <cc:Work>
    <dc:type rdf:resource="http://purl.org/dc/dcmitype/StillImage"/>
    <dc:date>2024-03-13T12:50:19.111129</dc:date>
    <dc:format>image/svg+xml</dc:format>
    <dc:creator>
     <cc:Agent>
      <dc:title>Matplotlib v3.8.2, https://matplotlib.org/</dc:title>
     </cc:Agent>
    </dc:creator>
   </cc:Work>
  </rdf:RDF>
 </metadata>
 <defs>
  <style type="text/css">*{stroke-linejoin: round; stroke-linecap: butt}</style>
 </defs>
 <g id="figure_1">
  <g id="patch_1">
   <path d="M 0 218.622767 
L 487.616954 218.622767 
L 487.616954 0 
L 0 0 
z
" style="fill: #ffffff"/>
  </g>
  <g id="axes_1">
   <g id="patch_2">
    <path d="M 35.485937 185.393079 
L 474.856016 185.393079 
L 474.856016 10.778906 
L 35.485937 10.778906 
z
" style="fill: #ffffff"/>
   </g>
   <g id="matplotlib.axis_1">
    <g id="xtick_1">
     <g id="line2d_1">
      <path d="M 35.485937 185.393079 
L 35.485937 10.778906 
" clip-path="url(#p322b092f6a)" style="fill: none; stroke: #b0b0b0; stroke-width: 0.8; stroke-linecap: square"/>
     </g>
     <g id="line2d_2">
      <defs>
       <path id="m911ec5d10e" d="M 0 0 
L 0 -3.5 
" style="stroke: #000000; stroke-width: 0.8"/>
      </defs>
      <g>
       <use xlink:href="#m911ec5d10e" x="35.485937" y="185.393079" style="stroke: #000000; stroke-width: 0.8"/>
      </g>
     </g>
     <g id="text_1">
      <!-- 0 -->
      <g transform="translate(32.705469 196.050892) scale(0.1 -0.1)">
       <defs>
        <path id="ArialMT-30" d="M 266 2259 
Q 266 3072 433 3567 
Q 600 4063 929 4331 
Q 1259 4600 1759 4600 
Q 2128 4600 2406 4451 
Q 2684 4303 2865 4023 
Q 3047 3744 3150 3342 
Q 3253 2941 3253 2259 
Q 3253 1453 3087 958 
Q 2922 463 2592 192 
Q 2263 -78 1759 -78 
Q 1097 -78 719 397 
Q 266 969 266 2259 
z
M 844 2259 
Q 844 1131 1108 757 
Q 1372 384 1759 384 
Q 2147 384 2411 759 
Q 2675 1134 2675 2259 
Q 2675 3391 2411 3762 
Q 2147 4134 1753 4134 
Q 1366 4134 1134 3806 
Q 844 3388 844 2259 
z
" transform="scale(0.015625)"/>
       </defs>
       <use xlink:href="#ArialMT-30"/>
      </g>
     </g>
    </g>
    <g id="xtick_2">
     <g id="line2d_3">
      <path d="M 90.407197 185.393079 
L 90.407197 10.778906 
" clip-path="url(#p322b092f6a)" style="fill: none; stroke: #b0b0b0; stroke-width: 0.8; stroke-linecap: square"/>
     </g>
     <g id="line2d_4">
      <g>
       <use xlink:href="#m911ec5d10e" x="90.407197" y="185.393079" style="stroke: #000000; stroke-width: 0.8"/>
      </g>
     </g>
     <g id="text_2">
      <!-- 5 -->
      <g transform="translate(87.626729 196.050892) scale(0.1 -0.1)">
       <defs>
        <path id="ArialMT-35" d="M 266 1200 
L 856 1250 
Q 922 819 1161 601 
Q 1400 384 1738 384 
Q 2144 384 2425 690 
Q 2706 997 2706 1503 
Q 2706 1984 2436 2262 
Q 2166 2541 1728 2541 
Q 1456 2541 1237 2417 
Q 1019 2294 894 2097 
L 366 2166 
L 809 4519 
L 3088 4519 
L 3088 3981 
L 1259 3981 
L 1013 2750 
Q 1425 3038 1878 3038 
Q 2478 3038 2890 2622 
Q 3303 2206 3303 1553 
Q 3303 931 2941 478 
Q 2500 -78 1738 -78 
Q 1113 -78 717 272 
Q 322 622 266 1200 
z
" transform="scale(0.015625)"/>
       </defs>
       <use xlink:href="#ArialMT-35"/>
      </g>
     </g>
    </g>
    <g id="xtick_3">
     <g id="line2d_5">
      <path d="M 145.328457 185.393079 
L 145.328457 10.778906 
" clip-path="url(#p322b092f6a)" style="fill: none; stroke: #b0b0b0; stroke-width: 0.8; stroke-linecap: square"/>
     </g>
     <g id="line2d_6">
      <g>
       <use xlink:href="#m911ec5d10e" x="145.328457" y="185.393079" style="stroke: #000000; stroke-width: 0.8"/>
      </g>
     </g>
     <g id="text_3">
      <!-- 10 -->
      <g transform="translate(139.76752 196.050892) scale(0.1 -0.1)">
       <defs>
        <path id="ArialMT-31" d="M 2384 0 
L 1822 0 
L 1822 3584 
Q 1619 3391 1289 3197 
Q 959 3003 697 2906 
L 697 3450 
Q 1169 3672 1522 3987 
Q 1875 4303 2022 4600 
L 2384 4600 
L 2384 0 
z
" transform="scale(0.015625)"/>
       </defs>
       <use xlink:href="#ArialMT-31"/>
       <use xlink:href="#ArialMT-30" x="55.615234"/>
      </g>
     </g>
    </g>
    <g id="xtick_4">
     <g id="line2d_7">
      <path d="M 200.249717 185.393079 
L 200.249717 10.778906 
" clip-path="url(#p322b092f6a)" style="fill: none; stroke: #b0b0b0; stroke-width: 0.8; stroke-linecap: square"/>
     </g>
     <g id="line2d_8">
      <g>
       <use xlink:href="#m911ec5d10e" x="200.249717" y="185.393079" style="stroke: #000000; stroke-width: 0.8"/>
      </g>
     </g>
     <g id="text_4">
      <!-- 15 -->
      <g transform="translate(194.68878 196.050892) scale(0.1 -0.1)">
       <use xlink:href="#ArialMT-31"/>
       <use xlink:href="#ArialMT-35" x="55.615234"/>
      </g>
     </g>
    </g>
    <g id="xtick_5">
     <g id="line2d_9">
      <path d="M 255.170977 185.393079 
L 255.170977 10.778906 
" clip-path="url(#p322b092f6a)" style="fill: none; stroke: #b0b0b0; stroke-width: 0.8; stroke-linecap: square"/>
     </g>
     <g id="line2d_10">
      <g>
       <use xlink:href="#m911ec5d10e" x="255.170977" y="185.393079" style="stroke: #000000; stroke-width: 0.8"/>
      </g>
     </g>
     <g id="text_5">
      <!-- 20 -->
      <g transform="translate(249.610039 196.050892) scale(0.1 -0.1)">
       <defs>
        <path id="ArialMT-32" d="M 3222 541 
L 3222 0 
L 194 0 
Q 188 203 259 391 
Q 375 700 629 1000 
Q 884 1300 1366 1694 
Q 2113 2306 2375 2664 
Q 2638 3022 2638 3341 
Q 2638 3675 2398 3904 
Q 2159 4134 1775 4134 
Q 1369 4134 1125 3890 
Q 881 3647 878 3216 
L 300 3275 
Q 359 3922 746 4261 
Q 1134 4600 1788 4600 
Q 2447 4600 2831 4234 
Q 3216 3869 3216 3328 
Q 3216 3053 3103 2787 
Q 2991 2522 2730 2228 
Q 2469 1934 1863 1422 
Q 1356 997 1212 845 
Q 1069 694 975 541 
L 3222 541 
z
" transform="scale(0.015625)"/>
       </defs>
       <use xlink:href="#ArialMT-32"/>
       <use xlink:href="#ArialMT-30" x="55.615234"/>
      </g>
     </g>
    </g>
    <g id="xtick_6">
     <g id="line2d_11">
      <path d="M 310.092237 185.393079 
L 310.092237 10.778906 
" clip-path="url(#p322b092f6a)" style="fill: none; stroke: #b0b0b0; stroke-width: 0.8; stroke-linecap: square"/>
     </g>
     <g id="line2d_12">
      <g>
       <use xlink:href="#m911ec5d10e" x="310.092237" y="185.393079" style="stroke: #000000; stroke-width: 0.8"/>
      </g>
     </g>
     <g id="text_6">
      <!-- 25 -->
      <g transform="translate(304.531299 196.050892) scale(0.1 -0.1)">
       <use xlink:href="#ArialMT-32"/>
       <use xlink:href="#ArialMT-35" x="55.615234"/>
      </g>
     </g>
    </g>
    <g id="xtick_7">
     <g id="line2d_13">
      <path d="M 365.013497 185.393079 
L 365.013497 10.778906 
" clip-path="url(#p322b092f6a)" style="fill: none; stroke: #b0b0b0; stroke-width: 0.8; stroke-linecap: square"/>
     </g>
     <g id="line2d_14">
      <g>
       <use xlink:href="#m911ec5d10e" x="365.013497" y="185.393079" style="stroke: #000000; stroke-width: 0.8"/>
      </g>
     </g>
     <g id="text_7">
      <!-- 30 -->
      <g transform="translate(359.452559 196.050892) scale(0.1 -0.1)">
       <defs>
        <path id="ArialMT-33" d="M 269 1209 
L 831 1284 
Q 928 806 1161 595 
Q 1394 384 1728 384 
Q 2125 384 2398 659 
Q 2672 934 2672 1341 
Q 2672 1728 2419 1979 
Q 2166 2231 1775 2231 
Q 1616 2231 1378 2169 
L 1441 2663 
Q 1497 2656 1531 2656 
Q 1891 2656 2178 2843 
Q 2466 3031 2466 3422 
Q 2466 3731 2256 3934 
Q 2047 4138 1716 4138 
Q 1388 4138 1169 3931 
Q 950 3725 888 3313 
L 325 3413 
Q 428 3978 793 4289 
Q 1159 4600 1703 4600 
Q 2078 4600 2393 4439 
Q 2709 4278 2876 4000 
Q 3044 3722 3044 3409 
Q 3044 3113 2884 2869 
Q 2725 2625 2413 2481 
Q 2819 2388 3044 2092 
Q 3269 1797 3269 1353 
Q 3269 753 2831 336 
Q 2394 -81 1725 -81 
Q 1122 -81 723 278 
Q 325 638 269 1209 
z
" transform="scale(0.015625)"/>
       </defs>
       <use xlink:href="#ArialMT-33"/>
       <use xlink:href="#ArialMT-30" x="55.615234"/>
      </g>
     </g>
    </g>
    <g id="xtick_8">
     <g id="line2d_15">
      <path d="M 419.934756 185.393079 
L 419.934756 10.778906 
" clip-path="url(#p322b092f6a)" style="fill: none; stroke: #b0b0b0; stroke-width: 0.8; stroke-linecap: square"/>
     </g>
     <g id="line2d_16">
      <g>
       <use xlink:href="#m911ec5d10e" x="419.934756" y="185.393079" style="stroke: #000000; stroke-width: 0.8"/>
      </g>
     </g>
     <g id="text_8">
      <!-- 35 -->
      <g transform="translate(414.373819 196.050892) scale(0.1 -0.1)">
       <use xlink:href="#ArialMT-33"/>
       <use xlink:href="#ArialMT-35" x="55.615234"/>
      </g>
     </g>
    </g>
    <g id="xtick_9">
     <g id="line2d_17">
      <path d="M 474.856016 185.393079 
L 474.856016 10.778906 
" clip-path="url(#p322b092f6a)" style="fill: none; stroke: #b0b0b0; stroke-width: 0.8; stroke-linecap: square"/>
     </g>
     <g id="line2d_18">
      <g>
       <use xlink:href="#m911ec5d10e" x="474.856016" y="185.393079" style="stroke: #000000; stroke-width: 0.8"/>
      </g>
     </g>
     <g id="text_9">
      <!-- 40 -->
      <g transform="translate(469.295079 196.050892) scale(0.1 -0.1)">
       <defs>
        <path id="ArialMT-34" d="M 2069 0 
L 2069 1097 
L 81 1097 
L 81 1613 
L 2172 4581 
L 2631 4581 
L 2631 1613 
L 3250 1613 
L 3250 1097 
L 2631 1097 
L 2631 0 
L 2069 0 
z
M 2069 1613 
L 2069 3678 
L 634 1613 
L 2069 1613 
z
" transform="scale(0.015625)"/>
       </defs>
       <use xlink:href="#ArialMT-34"/>
       <use xlink:href="#ArialMT-30" x="55.615234"/>
      </g>
     </g>
    </g>
    <g id="text_10">
     <!-- Time (s) -->
     <g transform="translate(237.029571 209.318079) scale(0.1 -0.1)">
      <defs>
       <path id="ArialMT-54" d="M 1659 0 
L 1659 4041 
L 150 4041 
L 150 4581 
L 3781 4581 
L 3781 4041 
L 2266 4041 
L 2266 0 
L 1659 0 
z
" transform="scale(0.015625)"/>
       <path id="ArialMT-69" d="M 425 3934 
L 425 4581 
L 988 4581 
L 988 3934 
L 425 3934 
z
M 425 0 
L 425 3319 
L 988 3319 
L 988 0 
L 425 0 
z
" transform="scale(0.015625)"/>
       <path id="ArialMT-6d" d="M 422 0 
L 422 3319 
L 925 3319 
L 925 2853 
Q 1081 3097 1340 3245 
Q 1600 3394 1931 3394 
Q 2300 3394 2536 3241 
Q 2772 3088 2869 2813 
Q 3263 3394 3894 3394 
Q 4388 3394 4653 3120 
Q 4919 2847 4919 2278 
L 4919 0 
L 4359 0 
L 4359 2091 
Q 4359 2428 4304 2576 
Q 4250 2725 4106 2815 
Q 3963 2906 3769 2906 
Q 3419 2906 3187 2673 
Q 2956 2441 2956 1928 
L 2956 0 
L 2394 0 
L 2394 2156 
Q 2394 2531 2256 2718 
Q 2119 2906 1806 2906 
Q 1569 2906 1367 2781 
Q 1166 2656 1075 2415 
Q 984 2175 984 1722 
L 984 0 
L 422 0 
z
" transform="scale(0.015625)"/>
       <path id="ArialMT-65" d="M 2694 1069 
L 3275 997 
Q 3138 488 2766 206 
Q 2394 -75 1816 -75 
Q 1088 -75 661 373 
Q 234 822 234 1631 
Q 234 2469 665 2931 
Q 1097 3394 1784 3394 
Q 2450 3394 2872 2941 
Q 3294 2488 3294 1666 
Q 3294 1616 3291 1516 
L 816 1516 
Q 847 969 1125 678 
Q 1403 388 1819 388 
Q 2128 388 2347 550 
Q 2566 713 2694 1069 
z
M 847 1978 
L 2700 1978 
Q 2663 2397 2488 2606 
Q 2219 2931 1791 2931 
Q 1403 2931 1139 2672 
Q 875 2413 847 1978 
z
" transform="scale(0.015625)"/>
       <path id="ArialMT-20" transform="scale(0.015625)"/>
       <path id="ArialMT-28" d="M 1497 -1347 
Q 1031 -759 709 28 
Q 388 816 388 1659 
Q 388 2403 628 3084 
Q 909 3875 1497 4659 
L 1900 4659 
Q 1522 4009 1400 3731 
Q 1209 3300 1100 2831 
Q 966 2247 966 1656 
Q 966 153 1900 -1347 
L 1497 -1347 
z
" transform="scale(0.015625)"/>
       <path id="ArialMT-73" d="M 197 991 
L 753 1078 
Q 800 744 1014 566 
Q 1228 388 1613 388 
Q 2000 388 2187 545 
Q 2375 703 2375 916 
Q 2375 1106 2209 1216 
Q 2094 1291 1634 1406 
Q 1016 1563 777 1677 
Q 538 1791 414 1992 
Q 291 2194 291 2438 
Q 291 2659 392 2848 
Q 494 3038 669 3163 
Q 800 3259 1026 3326 
Q 1253 3394 1513 3394 
Q 1903 3394 2198 3281 
Q 2494 3169 2634 2976 
Q 2775 2784 2828 2463 
L 2278 2388 
Q 2241 2644 2061 2787 
Q 1881 2931 1553 2931 
Q 1166 2931 1000 2803 
Q 834 2675 834 2503 
Q 834 2394 903 2306 
Q 972 2216 1119 2156 
Q 1203 2125 1616 2013 
Q 2213 1853 2448 1751 
Q 2684 1650 2818 1456 
Q 2953 1263 2953 975 
Q 2953 694 2789 445 
Q 2625 197 2315 61 
Q 2006 -75 1616 -75 
Q 969 -75 630 194 
Q 291 463 197 991 
z
" transform="scale(0.015625)"/>
       <path id="ArialMT-29" d="M 791 -1347 
L 388 -1347 
Q 1322 153 1322 1656 
Q 1322 2244 1188 2822 
Q 1081 3291 891 3722 
Q 769 4003 388 4659 
L 791 4659 
Q 1378 3875 1659 3084 
Q 1900 2403 1900 1659 
Q 1900 816 1576 28 
Q 1253 -759 791 -1347 
z
" transform="scale(0.015625)"/>
      </defs>
      <use xlink:href="#ArialMT-54"/>
      <use xlink:href="#ArialMT-69" x="57.333984"/>
      <use xlink:href="#ArialMT-6d" x="79.550781"/>
      <use xlink:href="#ArialMT-65" x="162.851562"/>
      <use xlink:href="#ArialMT-20" x="218.466797"/>
      <use xlink:href="#ArialMT-28" x="246.25"/>
      <use xlink:href="#ArialMT-73" x="279.550781"/>
      <use xlink:href="#ArialMT-29" x="329.550781"/>
     </g>
    </g>
   </g>
   <g id="matplotlib.axis_2">
    <g id="ytick_1">
     <g id="line2d_19">
      <path d="M 35.485937 185.393079 
L 474.856016 185.393079 
" clip-path="url(#p322b092f6a)" style="fill: none; stroke: #b0b0b0; stroke-width: 0.8; stroke-linecap: square"/>
     </g>
     <g id="line2d_20">
      <defs>
       <path id="mad0bc90009" d="M 0 0 
L 3.5 0 
" style="stroke: #000000; stroke-width: 0.8"/>
      </defs>
      <g>
       <use xlink:href="#mad0bc90009" x="35.485937" y="185.393079" style="stroke: #000000; stroke-width: 0.8"/>
      </g>
     </g>
     <g id="text_11">
      <!-- −3 -->
      <g transform="translate(20.584375 188.971986) scale(0.1 -0.1)">
       <defs>
        <path id="ArialMT-2212" d="M 3381 1997 
L 356 1997 
L 356 2522 
L 3381 2522 
L 3381 1997 
z
" transform="scale(0.015625)"/>
       </defs>
       <use xlink:href="#ArialMT-2212"/>
       <use xlink:href="#ArialMT-33" x="58.398438"/>
      </g>
     </g>
    </g>
    <g id="ytick_2">
     <g id="line2d_21">
      <path d="M 35.485937 156.290717 
L 474.856016 156.290717 
" clip-path="url(#p322b092f6a)" style="fill: none; stroke: #b0b0b0; stroke-width: 0.8; stroke-linecap: square"/>
     </g>
     <g id="line2d_22">
      <g>
       <use xlink:href="#mad0bc90009" x="35.485937" y="156.290717" style="stroke: #000000; stroke-width: 0.8"/>
      </g>
     </g>
     <g id="text_12">
      <!-- −2 -->
      <g transform="translate(20.584375 159.869624) scale(0.1 -0.1)">
       <use xlink:href="#ArialMT-2212"/>
       <use xlink:href="#ArialMT-32" x="58.398438"/>
      </g>
     </g>
    </g>
    <g id="ytick_3">
     <g id="line2d_23">
      <path d="M 35.485937 127.188355 
L 474.856016 127.188355 
" clip-path="url(#p322b092f6a)" style="fill: none; stroke: #b0b0b0; stroke-width: 0.8; stroke-linecap: square"/>
     </g>
     <g id="line2d_24">
      <g>
       <use xlink:href="#mad0bc90009" x="35.485937" y="127.188355" style="stroke: #000000; stroke-width: 0.8"/>
      </g>
     </g>
     <g id="text_13">
      <!-- −1 -->
      <g transform="translate(20.584375 130.767261) scale(0.1 -0.1)">
       <use xlink:href="#ArialMT-2212"/>
       <use xlink:href="#ArialMT-31" x="58.398438"/>
      </g>
     </g>
    </g>
    <g id="ytick_4">
     <g id="line2d_25">
      <path d="M 35.485937 98.085993 
L 474.856016 98.085993 
" clip-path="url(#p322b092f6a)" style="fill: none; stroke: #b0b0b0; stroke-width: 0.8; stroke-linecap: square"/>
     </g>
     <g id="line2d_26">
      <g>
       <use xlink:href="#mad0bc90009" x="35.485937" y="98.085993" style="stroke: #000000; stroke-width: 0.8"/>
      </g>
     </g>
     <g id="text_14">
      <!-- 0 -->
      <g transform="translate(26.425 101.664899) scale(0.1 -0.1)">
       <use xlink:href="#ArialMT-30"/>
      </g>
     </g>
    </g>
    <g id="ytick_5">
     <g id="line2d_27">
      <path d="M 35.485937 68.983631 
L 474.856016 68.983631 
" clip-path="url(#p322b092f6a)" style="fill: none; stroke: #b0b0b0; stroke-width: 0.8; stroke-linecap: square"/>
     </g>
     <g id="line2d_28">
      <g>
       <use xlink:href="#mad0bc90009" x="35.485937" y="68.983631" style="stroke: #000000; stroke-width: 0.8"/>
      </g>
     </g>
     <g id="text_15">
      <!-- 1 -->
      <g transform="translate(26.425 72.562537) scale(0.1 -0.1)">
       <use xlink:href="#ArialMT-31"/>
      </g>
     </g>
    </g>
    <g id="ytick_6">
     <g id="line2d_29">
      <path d="M 35.485937 39.881268 
L 474.856016 39.881268 
" clip-path="url(#p322b092f6a)" style="fill: none; stroke: #b0b0b0; stroke-width: 0.8; stroke-linecap: square"/>
     </g>
     <g id="line2d_30">
      <g>
       <use xlink:href="#mad0bc90009" x="35.485937" y="39.881268" style="stroke: #000000; stroke-width: 0.8"/>
      </g>
     </g>
     <g id="text_16">
      <!-- 2 -->
      <g transform="translate(26.425 43.460175) scale(0.1 -0.1)">
       <use xlink:href="#ArialMT-32"/>
      </g>
     </g>
    </g>
    <g id="ytick_7">
     <g id="line2d_31">
      <path d="M 35.485937 10.778906 
L 474.856016 10.778906 
" clip-path="url(#p322b092f6a)" style="fill: none; stroke: #b0b0b0; stroke-width: 0.8; stroke-linecap: square"/>
     </g>
     <g id="line2d_32">
      <g>
       <use xlink:href="#mad0bc90009" x="35.485937" y="10.778906" style="stroke: #000000; stroke-width: 0.8"/>
      </g>
     </g>
     <g id="text_17">
      <!-- 3 -->
      <g transform="translate(26.425 14.357812) scale(0.1 -0.1)">
       <use xlink:href="#ArialMT-33"/>
      </g>
     </g>
    </g>
    <g id="text_18">
     <!-- Velocity (m/s) -->
     <g transform="translate(14.479687 128.09068) rotate(-90) scale(0.1 -0.1)">
      <defs>
       <path id="ArialMT-56" d="M 1803 0 
L 28 4581 
L 684 4581 
L 1875 1253 
Q 2019 853 2116 503 
Q 2222 878 2363 1253 
L 3600 4581 
L 4219 4581 
L 2425 0 
L 1803 0 
z
" transform="scale(0.015625)"/>
       <path id="ArialMT-6c" d="M 409 0 
L 409 4581 
L 972 4581 
L 972 0 
L 409 0 
z
" transform="scale(0.015625)"/>
       <path id="ArialMT-6f" d="M 213 1659 
Q 213 2581 725 3025 
Q 1153 3394 1769 3394 
Q 2453 3394 2887 2945 
Q 3322 2497 3322 1706 
Q 3322 1066 3130 698 
Q 2938 331 2570 128 
Q 2203 -75 1769 -75 
Q 1072 -75 642 372 
Q 213 819 213 1659 
z
M 791 1659 
Q 791 1022 1069 705 
Q 1347 388 1769 388 
Q 2188 388 2466 706 
Q 2744 1025 2744 1678 
Q 2744 2294 2464 2611 
Q 2184 2928 1769 2928 
Q 1347 2928 1069 2612 
Q 791 2297 791 1659 
z
" transform="scale(0.015625)"/>
       <path id="ArialMT-63" d="M 2588 1216 
L 3141 1144 
Q 3050 572 2676 248 
Q 2303 -75 1759 -75 
Q 1078 -75 664 370 
Q 250 816 250 1647 
Q 250 2184 428 2587 
Q 606 2991 970 3192 
Q 1334 3394 1763 3394 
Q 2303 3394 2647 3120 
Q 2991 2847 3088 2344 
L 2541 2259 
Q 2463 2594 2264 2762 
Q 2066 2931 1784 2931 
Q 1359 2931 1093 2626 
Q 828 2322 828 1663 
Q 828 994 1084 691 
Q 1341 388 1753 388 
Q 2084 388 2306 591 
Q 2528 794 2588 1216 
z
" transform="scale(0.015625)"/>
       <path id="ArialMT-74" d="M 1650 503 
L 1731 6 
Q 1494 -44 1306 -44 
Q 1000 -44 831 53 
Q 663 150 594 308 
Q 525 466 525 972 
L 525 2881 
L 113 2881 
L 113 3319 
L 525 3319 
L 525 4141 
L 1084 4478 
L 1084 3319 
L 1650 3319 
L 1650 2881 
L 1084 2881 
L 1084 941 
Q 1084 700 1114 631 
Q 1144 563 1211 522 
Q 1278 481 1403 481 
Q 1497 481 1650 503 
z
" transform="scale(0.015625)"/>
       <path id="ArialMT-79" d="M 397 -1278 
L 334 -750 
Q 519 -800 656 -800 
Q 844 -800 956 -737 
Q 1069 -675 1141 -563 
Q 1194 -478 1313 -144 
Q 1328 -97 1363 -6 
L 103 3319 
L 709 3319 
L 1400 1397 
Q 1534 1031 1641 628 
Q 1738 1016 1872 1384 
L 2581 3319 
L 3144 3319 
L 1881 -56 
Q 1678 -603 1566 -809 
Q 1416 -1088 1222 -1217 
Q 1028 -1347 759 -1347 
Q 597 -1347 397 -1278 
z
" transform="scale(0.015625)"/>
       <path id="ArialMT-2f" d="M 0 -78 
L 1328 4659 
L 1778 4659 
L 453 -78 
L 0 -78 
z
" transform="scale(0.015625)"/>
      </defs>
      <use xlink:href="#ArialMT-56"/>
      <use xlink:href="#ArialMT-65" x="61.199219"/>
      <use xlink:href="#ArialMT-6c" x="116.814453"/>
      <use xlink:href="#ArialMT-6f" x="139.03125"/>
      <use xlink:href="#ArialMT-63" x="194.646484"/>
      <use xlink:href="#ArialMT-69" x="244.646484"/>
      <use xlink:href="#ArialMT-74" x="266.863281"/>
      <use xlink:href="#ArialMT-79" x="294.646484"/>
      <use xlink:href="#ArialMT-20" x="344.646484"/>
      <use xlink:href="#ArialMT-28" x="372.429688"/>
      <use xlink:href="#ArialMT-6d" x="405.730469"/>
      <use xlink:href="#ArialMT-2f" x="489.03125"/>
      <use xlink:href="#ArialMT-73" x="516.814453"/>
      <use xlink:href="#ArialMT-29" x="566.814453"/>
     </g>
    </g>
   </g>
   <g id="line2d_33">
    <path d="M 35.485937 98.085993 
L 36.584363 98.144374 
L 40.978063 98.842045 
L 41.527276 98.670252 
L 43.174914 98.555294 
L 44.273339 97.906374 
L 44.822552 97.788989 
L 45.371764 97.205024 
L 45.920977 96.877699 
L 46.470189 97.259124 
L 47.019402 97.982625 
L 47.568615 98.457741 
L 48.117827 98.774455 
L 48.66704 99.336795 
L 49.216252 99.604759 
L 49.765465 99.312378 
L 50.314678 99.448213 
L 50.86389 100.720097 
L 51.413103 101.402167 
L 51.962315 101.202399 
L 53.060741 98.332562 
L 53.609953 97.924201 
L 54.159166 97.864389 
L 54.708378 98.791802 
L 55.257591 98.483986 
L 55.806804 98.007937 
L 56.356016 97.765313 
L 56.905229 96.556353 
L 57.454441 96.336489 
L 58.003654 97.029294 
L 58.552867 96.880404 
L 59.651292 96.20913 
L 60.749717 93.764052 
L 61.29893 93.603107 
L 61.848142 92.456758 
L 62.397355 91.866234 
L 62.946567 91.764691 
L 63.49578 91.10572 
L 64.044993 91.672045 
L 64.594205 93.257303 
L 65.143418 94.212717 
L 65.69263 93.416467 
L 66.241843 93.653747 
L 67.889481 106.173233 
L 68.438693 109.414821 
L 68.987906 111.430075 
L 69.537119 111.669495 
L 70.086331 110.623816 
L 70.635544 109.041158 
L 71.184756 106.856576 
L 71.733969 106.208147 
L 72.283182 105.875729 
L 72.832394 103.909658 
L 73.381607 101.510137 
L 73.930819 99.890166 
L 75.029245 97.658213 
L 75.578457 97.265468 
L 76.12767 99.086333 
L 76.676882 101.436919 
L 77.226095 100.971472 
L 77.775308 97.243902 
L 78.32452 92.017981 
L 78.873733 88.428127 
L 79.422945 86.529093 
L 79.972158 87.273088 
L 80.521371 88.464057 
L 81.619796 85.307407 
L 82.169008 86.245903 
L 83.267434 91.986496 
L 84.365859 100.756449 
L 86.013497 93.443271 
L 86.562709 94.153825 
L 87.111922 98.978586 
L 87.661134 101.008113 
L 88.210347 101.534045 
L 88.75956 101.895267 
L 89.308772 101.223718 
L 89.857985 104.685997 
L 90.407197 109.493573 
L 90.95641 110.049035 
L 91.505623 109.908584 
L 92.054835 112.466422 
L 92.604048 113.18072 
L 93.15326 109.088633 
L 94.800898 100.244362 
L 95.350111 96.645556 
L 95.899323 91.307673 
L 96.448536 87.720923 
L 96.997749 89.488711 
L 97.546961 90.508857 
L 98.645386 90.916025 
L 99.194599 92.765057 
L 100.293024 97.220889 
L 100.842237 97.314258 
L 101.391449 95.116383 
L 101.940662 95.262127 
L 102.489875 93.365504 
L 103.039087 89.232314 
L 103.5883 86.768383 
L 104.137512 84.871279 
L 104.686725 86.85758 
L 106.334363 97.433364 
L 106.883575 98.752186 
L 107.432788 102.0227 
L 107.982 104.463407 
L 108.531213 108.098822 
L 109.080426 110.564784 
L 109.629638 111.720905 
L 110.178851 110.043288 
L 110.728063 106.132307 
L 111.277276 103.303545 
L 113.474126 114.14765 
L 114.023339 112.900542 
L 114.572552 113.367693 
L 115.121764 111.155995 
L 116.220189 104.546426 
L 116.769402 96.245059 
L 117.867827 77.022225 
L 118.41704 71.982558 
L 118.966252 72.016107 
L 119.515465 72.879266 
L 120.064678 73.12679 
L 120.61389 74.669459 
L 121.163103 79.368783 
L 121.712315 86.573832 
L 122.261528 90.958662 
L 123.359953 103.307964 
L 123.909166 103.230923 
L 126.106016 91.738092 
L 126.655229 88.393897 
L 127.204441 89.892741 
L 127.753654 94.705063 
L 128.302867 100.612442 
L 128.852079 109.993645 
L 129.401292 115.967316 
L 129.950504 120.562863 
L 130.499717 122.420618 
L 131.04893 120.138673 
L 131.598142 118.962753 
L 132.147355 116.561583 
L 132.696567 112.750192 
L 133.24578 106.839844 
L 133.794993 97.03775 
L 134.344205 91.823274 
L 134.893418 89.451259 
L 135.44263 85.646385 
L 135.991843 86.95664 
L 137.639481 101.754552 
L 138.188693 103.151407 
L 139.836331 94.787422 
L 140.385544 88.524696 
L 140.934756 85.423911 
L 141.483969 85.828428 
L 142.033182 84.507487 
L 142.582394 82.643766 
L 143.131607 83.440272 
L 143.680819 90.580408 
L 144.779245 110.376152 
L 145.328457 115.951827 
L 145.87767 116.397683 
L 146.426882 114.639145 
L 147.525308 106.940525 
L 148.07452 106.702864 
L 148.623733 104.463781 
L 149.722158 98.052928 
L 150.271371 92.954134 
L 150.820583 90.191032 
L 151.369796 92.573103 
L 151.919008 96.628295 
L 152.468221 98.437267 
L 153.566646 95.853599 
L 154.115859 94.067577 
L 154.665071 92.725062 
L 155.214284 87.177099 
L 155.763497 79.981894 
L 156.312709 79.585321 
L 157.960347 91.950972 
L 159.058772 104.955519 
L 159.607985 107.565019 
L 160.157197 105.25456 
L 160.70641 106.58514 
L 161.804835 112.376813 
L 162.354048 113.120721 
L 162.90326 107.201207 
L 163.452473 104.788271 
L 164.001686 106.213899 
L 165.100111 110.598455 
L 165.649323 114.091689 
L 166.198536 116.062119 
L 166.747749 116.802023 
L 167.296961 114.999519 
L 167.846174 109.545845 
L 168.395386 105.657969 
L 168.944599 100.168243 
L 169.493812 91.603589 
L 170.043024 84.941796 
L 171.141449 66.887288 
L 171.690662 67.007714 
L 172.239875 67.796252 
L 172.789087 70.594787 
L 173.3383 76.293234 
L 174.985938 84.047809 
L 175.53515 85.064525 
L 176.084363 84.998994 
L 176.633575 85.232906 
L 177.182788 88.993841 
L 177.732 88.894913 
L 178.281213 88.96751 
L 178.830426 91.169788 
L 179.379638 90.082405 
L 179.928851 93.140889 
L 181.027276 110.195812 
L 182.125701 119.193989 
L 182.674914 121.815291 
L 183.224126 123.163431 
L 183.773339 121.703995 
L 184.322552 122.058712 
L 184.871764 123.330297 
L 185.420977 121.853689 
L 186.519402 108.909502 
L 187.068615 106.513757 
L 187.617827 108.063494 
L 188.16704 113.627627 
L 188.716252 113.472894 
L 189.265465 113.728407 
L 189.814678 112.317874 
L 190.36389 107.383277 
L 191.462315 94.328906 
L 192.011528 93.999019 
L 192.560741 88.462395 
L 193.659166 67.313336 
L 194.208378 60.999379 
L 194.757591 57.912292 
L 195.306804 57.035413 
L 195.856016 60.179521 
L 196.405229 68.369004 
L 196.954441 78.550727 
L 197.503654 86.06494 
L 198.052867 90.232363 
L 198.602079 92.534578 
L 199.151292 93.391715 
L 200.79893 100.808086 
L 201.348142 106.165359 
L 201.897355 105.826774 
L 202.446567 101.135686 
L 202.99578 100.882875 
L 203.544993 105.891526 
L 205.741843 135.590946 
L 206.291056 132.583954 
L 206.840268 131.178979 
L 207.389481 131.053807 
L 207.938693 126.389153 
L 208.487906 125.279154 
L 209.037119 121.989047 
L 209.586331 111.994869 
L 210.135544 105.190801 
L 210.684756 101.619436 
L 211.233969 99.856465 
L 212.332394 88.432414 
L 212.881607 86.87674 
L 213.430819 84.173857 
L 213.980032 80.607307 
L 214.529245 79.282225 
L 215.078457 74.985863 
L 215.62767 69.11088 
L 216.726095 63.117525 
L 217.275308 58.448454 
L 217.82452 60.87248 
L 218.373733 68.171991 
L 220.570583 83.789488 
L 221.119796 86.231491 
L 221.669008 91.425421 
L 223.316646 118.770718 
L 223.865859 124.144137 
L 224.964284 128.644266 
L 225.513497 133.453093 
L 226.062709 136.325203 
L 227.161134 145.063546 
L 227.710347 144.656 
L 228.808772 132.522926 
L 229.357985 125.374137 
L 229.907197 116.600311 
L 231.554835 100.965442 
L 232.104048 96.995924 
L 232.65326 91.475232 
L 233.751686 76.750187 
L 234.850111 64.802107 
L 235.399323 62.91772 
L 235.948536 62.067866 
L 237.596174 49.862398 
L 238.145386 51.138133 
L 238.694599 54.413976 
L 241.440662 90.802783 
L 241.989875 96.050719 
L 242.539087 98.538288 
L 243.0883 103.065814 
L 243.637512 109.736591 
L 244.186725 111.285839 
L 244.735938 116.012246 
L 245.28515 122.100023 
L 246.383575 129.463202 
L 246.932788 132.896234 
L 247.482 137.952867 
L 248.031213 139.628096 
L 248.580426 140.457939 
L 249.129638 140.033622 
L 249.678851 135.397114 
L 251.326489 110.948403 
L 251.875701 101.566824 
L 253.523339 85.951871 
L 254.621764 81.039961 
L 255.170977 77.142852 
L 255.720189 72.069121 
L 256.269402 70.545086 
L 256.818615 71.073718 
L 257.367827 68.61706 
L 257.91704 67.807135 
L 258.466252 65.241025 
L 259.015465 63.786998 
L 260.11389 67.770274 
L 260.663103 73.202675 
L 261.212315 81.025637 
L 261.761528 87.198103 
L 262.310741 90.598328 
L 262.859953 95.344287 
L 263.409166 103.403785 
L 263.958378 109.285151 
L 264.507591 117.143671 
L 265.056804 121.90332 
L 265.606016 121.180898 
L 266.155229 121.670266 
L 266.704441 121.692069 
L 267.253654 123.646655 
L 267.802867 129.275757 
L 268.352079 133.074828 
L 268.901292 132.695769 
L 269.450504 128.299459 
L 269.999717 120.458762 
L 270.54893 116.221444 
L 271.098142 115.188149 
L 272.196567 110.085298 
L 273.294993 97.120274 
L 274.393418 83.963557 
L 274.94263 83.193258 
L 275.491843 83.136355 
L 276.041056 80.849489 
L 276.590268 76.61398 
L 277.139481 74.529774 
L 277.688693 74.344749 
L 278.237906 75.640889 
L 278.787119 79.557874 
L 279.336331 78.27019 
L 279.885544 73.211443 
L 280.434756 70.672961 
L 280.983969 71.278669 
L 281.533182 76.039344 
L 282.631607 94.163087 
L 283.730032 106.127713 
L 284.279245 109.089085 
L 284.828457 112.668456 
L 285.926882 129.778368 
L 286.476095 131.605092 
L 287.025308 128.225976 
L 287.57452 123.744249 
L 288.123733 117.941658 
L 288.672945 113.787232 
L 289.222158 108.705734 
L 289.771371 101.637857 
L 290.320583 99.031474 
L 290.869796 100.266632 
L 291.419008 102.313161 
L 291.968221 103.256033 
L 292.517434 103.442075 
L 293.066646 98.866894 
L 293.615859 91.145271 
L 294.165071 85.803455 
L 294.714284 84.266935 
L 295.263497 86.231628 
L 295.812709 90.208473 
L 296.361922 92.105631 
L 297.460347 82.86991 
L 298.00956 83.672949 
L 298.558772 90.30574 
L 299.107985 99.008945 
L 299.657197 103.164735 
L 300.20641 104.024127 
L 300.755623 103.370512 
L 301.304835 100.580925 
L 301.854048 94.998518 
L 302.40326 90.726109 
L 302.952473 88.072299 
L 303.501686 87.22857 
L 304.050898 85.061786 
L 304.600111 85.185445 
L 305.698536 95.421389 
L 306.247749 98.120734 
L 306.796961 97.821529 
L 307.346174 97.906788 
L 307.895386 99.091677 
L 308.993812 104.742804 
L 309.543024 107.001063 
L 310.092237 106.331097 
L 310.641449 100.650025 
L 311.190662 96.937443 
L 311.739875 95.947077 
L 312.289087 96.797928 
L 312.8383 103.307106 
L 313.387512 111.721306 
L 313.936725 117.234984 
L 314.485937 118.753476 
L 315.03515 117.69246 
L 315.584363 116.101311 
L 316.133575 114.128321 
L 317.781213 103.924099 
L 318.330426 101.157708 
L 318.879638 94.133029 
L 319.428851 84.850201 
L 319.978063 78.28924 
L 320.527276 75.284484 
L 321.076489 73.187438 
L 321.625701 73.561956 
L 322.724126 86.253195 
L 323.273339 87.386631 
L 323.822552 85.168573 
L 324.371764 81.403683 
L 324.920977 79.884154 
L 326.568615 92.106182 
L 327.117827 97.536087 
L 327.66704 99.738413 
L 328.216252 97.735014 
L 328.765465 98.150681 
L 329.314678 100.969877 
L 329.86389 105.233492 
L 330.413103 111.541244 
L 330.962315 115.724833 
L 331.511528 117.721012 
L 332.060741 117.613067 
L 333.159166 114.540255 
L 333.708378 112.090918 
L 334.257591 111.88679 
L 334.806804 114.673642 
L 335.356016 115.960478 
L 335.905229 115.727988 
L 336.454441 114.79278 
L 337.003654 112.521399 
L 337.552867 108.036062 
L 338.651292 96.334876 
L 339.200504 92.150572 
L 339.749717 89.780332 
L 340.29893 85.358448 
L 341.397355 73.514701 
L 341.946567 70.466073 
L 342.49578 68.08426 
L 343.044993 66.464936 
L 343.594205 70.547589 
L 344.69263 84.601007 
L 345.241843 88.888683 
L 345.791056 90.700014 
L 346.340268 93.271946 
L 346.889481 96.604295 
L 347.987906 101.080089 
L 348.537119 105.042142 
L 350.733969 124.764212 
L 351.283182 127.883271 
L 351.832394 130.158874 
L 352.381607 130.737833 
L 353.480032 128.218025 
L 354.029245 126.223233 
L 354.578457 120.871931 
L 355.676882 101.616767 
L 356.226095 90.926147 
L 356.775308 82.998301 
L 357.32452 77.912055 
L 357.873733 75.642943 
L 358.972158 75.87932 
L 359.521371 75.008989 
L 361.169008 71.552193 
L 361.718221 71.215415 
L 362.267434 72.043062 
L 362.816646 74.05707 
L 363.915071 79.901658 
L 366.111922 91.587354 
L 367.210347 105.566817 
L 367.75956 112.428133 
L 368.308772 115.767163 
L 368.857985 115.601098 
L 369.407197 115.711004 
L 370.505623 115.437745 
L 371.054835 117.881686 
L 371.604048 122.583193 
L 372.15326 126.213153 
L 372.702473 127.343477 
L 373.251686 126.786116 
L 373.800898 124.830277 
L 374.899323 119.403307 
L 375.448536 116.38252 
L 376.546961 108.61516 
L 377.096174 103.005368 
L 378.194599 87.686839 
L 378.743812 81.752185 
L 379.293024 77.534536 
L 379.842237 75.422591 
L 380.391449 75.936839 
L 380.940662 77.3434 
L 381.489875 77.003723 
L 382.039087 74.396137 
L 382.5883 72.698883 
L 383.137512 72.688607 
L 384.78515 78.172096 
L 385.883575 84.275059 
L 386.432788 86.962635 
L 387.531213 96.285222 
L 388.629638 106.99751 
L 390.277276 118.03482 
L 390.826489 120.528191 
L 391.375701 121.475803 
L 391.924914 121.559166 
L 392.474126 120.725095 
L 393.023339 120.469735 
L 393.572552 121.617357 
L 394.121764 122.39009 
L 394.670977 121.462691 
L 395.220189 118.398991 
L 396.318615 109.065165 
L 396.867827 104.948537 
L 398.515465 88.714575 
L 399.61389 77.493463 
L 400.163103 73.443277 
L 400.712315 71.110641 
L 401.261528 71.389715 
L 401.810741 71.897117 
L 402.359953 72.031464 
L 402.909166 72.970998 
L 403.458378 74.955951 
L 405.106016 83.749698 
L 405.655229 85.006774 
L 406.204441 87.739117 
L 408.401292 106.843695 
L 409.499717 117.217938 
L 410.04893 121.328741 
L 410.598142 124.04894 
L 411.147355 124.514308 
L 411.696567 123.974328 
L 412.24578 122.414788 
L 412.794993 118.774396 
L 413.344205 114.211646 
L 414.991843 105.704174 
L 416.639481 99.482831 
L 417.188693 99.635471 
L 417.737906 98.778465 
L 418.287119 96.611878 
L 419.934756 85.537166 
L 420.483969 79.88325 
L 421.033182 75.514145 
L 421.582394 72.823563 
L 422.131607 71.880787 
L 422.680819 73.482513 
L 423.230032 76.072566 
L 424.87767 87.451435 
L 427.07452 103.817839 
L 427.623733 106.341386 
L 428.172945 107.782973 
L 428.722158 108.260068 
L 429.271371 108.171388 
L 429.820583 109.388561 
L 430.919008 115.880381 
L 431.468221 118.21773 
L 432.017434 119.270993 
L 433.115859 119.968306 
L 433.665071 118.489511 
L 434.214284 114.870093 
L 436.960347 92.135966 
L 437.50956 89.607297 
L 438.058772 87.884732 
L 439.70641 81.86307 
L 440.255623 81.896327 
L 440.804835 82.337439 
L 441.354048 82.237231 
L 443.001686 79.707183 
L 443.550898 79.093091 
L 444.100111 80.281261 
L 444.649323 83.419134 
L 445.198536 87.386095 
L 447.395386 107.592537 
L 449.043024 115.306402 
L 449.592237 116.125548 
L 450.141449 116.255278 
L 450.690662 116.229685 
L 451.239875 115.499389 
L 452.3383 112.024605 
L 452.887512 111.105022 
L 453.436725 110.763157 
L 453.985937 109.939799 
L 455.084363 107.703397 
L 455.633575 106.133666 
L 456.182788 103.310552 
L 457.281213 94.841369 
L 458.379638 85.882894 
L 458.928851 82.236716 
L 459.478063 79.90493 
L 460.027276 78.898501 
L 460.576489 78.873606 
L 461.125701 79.048379 
L 461.674914 79.559089 
L 462.224126 80.787998 
L 462.773339 82.550312 
L 463.322552 85.136258 
L 464.420977 91.281633 
L 464.970189 93.937138 
L 465.519402 95.769969 
L 466.068615 97.020838 
L 467.16704 100.469688 
L 468.265465 105.538605 
L 469.36389 110.92174 
L 470.462315 113.700632 
L 471.011528 114.799037 
L 471.560741 114.985425 
L 472.109953 113.877499 
L 473.757591 109.462999 
L 474.306804 107.55094 
L 474.306804 107.55094 
" clip-path="url(#p322b092f6a)" style="fill: none; stroke: #000000; stroke-width: 1.2; stroke-linecap: square"/>
   </g>
   <g id="line2d_34">
    <path d="M 35.485937 98.089812 
L 36.584363 98.143454 
L 40.978063 98.866618 
L 41.527276 98.69646 
L 43.174914 98.565518 
L 44.273339 97.898529 
L 44.822552 97.765141 
L 45.371764 97.176515 
L 45.920977 96.856769 
L 46.470189 97.24773 
L 47.019402 97.991663 
L 47.568615 98.460997 
L 48.117827 98.770718 
L 48.66704 99.321118 
L 49.216252 99.590488 
L 49.765465 99.329019 
L 50.314678 99.454078 
L 50.86389 100.793761 
L 51.413103 101.464208 
L 51.962315 101.229313 
L 52.511528 99.630732 
L 53.060741 98.375067 
L 53.609953 97.91705 
L 54.159166 97.76924 
L 54.708378 98.730512 
L 55.257591 98.473943 
L 56.356016 97.682688 
L 56.905229 96.582548 
L 57.454441 96.356037 
L 58.003654 97.008191 
L 58.552867 96.900499 
L 59.651292 96.318247 
L 60.749717 93.718686 
L 61.29893 93.661468 
L 61.848142 92.379999 
L 62.397355 91.837624 
L 62.946567 91.766943 
L 63.49578 91.052322 
L 64.044993 91.627473 
L 64.594205 93.18508 
L 65.143418 94.092285 
L 65.69263 93.300311 
L 66.241843 93.581701 
L 67.889481 106.338996 
L 68.438693 109.544627 
L 68.987906 111.561016 
L 69.537119 111.761873 
L 70.086331 110.600405 
L 70.635544 108.963149 
L 71.184756 106.85593 
L 72.283182 105.792069 
L 73.930819 99.730785 
L 75.029245 97.661499 
L 75.578457 97.325741 
L 76.12767 98.957784 
L 76.676882 101.487303 
L 77.226095 101.25957 
L 77.775308 97.348423 
L 78.32452 91.847118 
L 78.873733 88.345688 
L 79.422945 86.463379 
L 79.972158 87.060852 
L 80.521371 88.308626 
L 81.619796 85.237124 
L 82.169008 86.070488 
L 82.718221 89.417926 
L 83.267434 92.046938 
L 84.365859 100.611554 
L 85.464284 95.831921 
L 86.013497 93.027992 
L 86.562709 94.148553 
L 87.111922 99.040646 
L 87.661134 100.936398 
L 88.210347 101.3222 
L 88.75956 102.16635 
L 89.308772 101.304833 
L 89.857985 104.478649 
L 90.407197 109.781234 
L 90.95641 110.232606 
L 91.505623 109.781912 
L 92.054835 112.432708 
L 92.604048 113.325125 
L 93.15326 109.141846 
L 95.350111 96.691638 
L 95.899323 90.911949 
L 96.448536 87.804555 
L 96.997749 89.783508 
L 97.546961 90.250922 
L 98.096174 90.365067 
L 98.645386 91.201932 
L 99.743812 94.519416 
L 100.293024 97.2781 
L 100.842237 97.53415 
L 101.391449 94.798787 
L 101.940662 95.029976 
L 102.489875 93.556227 
L 103.039087 89.565304 
L 103.5883 86.523297 
L 104.137512 84.575408 
L 104.686725 86.860432 
L 106.334363 97.015775 
L 106.883575 98.9416 
L 107.982 104.206829 
L 108.531213 108.33815 
L 109.080426 110.677753 
L 109.629638 111.623853 
L 110.178851 109.743123 
L 111.277276 103.043553 
L 112.375701 108.368215 
L 113.474126 114.053692 
L 114.023339 112.772026 
L 114.572552 113.283499 
L 115.121764 111.048648 
L 116.220189 104.430451 
L 116.769402 96.357852 
L 117.867827 76.878798 
L 118.41704 71.97577 
L 118.966252 71.768318 
L 119.515465 72.804852 
L 120.064678 72.908758 
L 120.61389 74.585658 
L 121.163103 79.138155 
L 121.712315 86.352753 
L 122.261528 91.039605 
L 123.359953 103.338909 
L 123.909166 103.274234 
L 124.458378 100.63864 
L 125.556804 94.64349 
L 126.655229 88.378611 
L 127.204441 89.624408 
L 128.302867 100.556298 
L 128.852079 109.782302 
L 129.401292 115.971564 
L 129.950504 120.599498 
L 130.499717 122.113724 
L 131.04893 120.012737 
L 131.598142 119.062172 
L 132.147355 116.840112 
L 132.696567 112.660845 
L 133.24578 106.86762 
L 133.794993 97.504931 
L 134.344205 91.804203 
L 134.893418 89.363026 
L 135.44263 85.881551 
L 135.991843 87.170158 
L 137.090268 96.426353 
L 137.639481 102.048903 
L 138.188693 103.404332 
L 138.737906 100.051596 
L 139.287119 97.917032 
L 139.836331 94.693499 
L 140.385544 88.15571 
L 140.934756 85.449816 
L 141.483969 85.841963 
L 142.033182 84.580811 
L 142.582394 82.942213 
L 143.131607 83.627561 
L 143.680819 90.675972 
L 144.779245 110.566096 
L 145.328457 116.052735 
L 145.87767 116.584175 
L 146.426882 114.714302 
L 147.525308 107.091185 
L 148.07452 106.871031 
L 148.623733 104.428936 
L 149.172945 100.717233 
L 149.722158 98.054462 
L 150.271371 93.150806 
L 150.820583 89.834636 
L 151.369796 92.410631 
L 151.919008 96.701786 
L 152.468221 98.417432 
L 153.017434 97.432114 
L 154.665071 92.870895 
L 155.763497 80.048674 
L 156.312709 79.903639 
L 157.411134 87.636604 
L 157.960347 92.1388 
L 158.50956 99.112898 
L 159.058772 104.581737 
L 159.607985 107.502776 
L 160.157197 105.46703 
L 160.70641 106.810688 
L 161.255623 109.447073 
L 161.804835 112.706124 
L 162.354048 113.564467 
L 162.90326 107.71692 
L 163.452473 104.802445 
L 164.001686 106.177659 
L 165.100111 110.837927 
L 165.649323 114.312957 
L 166.198536 115.904919 
L 166.747749 116.934747 
L 167.296961 115.039319 
L 167.846174 108.948759 
L 168.395386 105.317832 
L 168.944599 100.004538 
L 169.493812 91.258947 
L 170.043024 84.627972 
L 171.141449 66.954134 
L 171.690662 67.15037 
L 172.239875 67.767758 
L 172.789087 70.637885 
L 173.3383 76.221958 
L 173.887512 78.586216 
L 174.985938 84.033481 
L 175.53515 84.533905 
L 176.084363 84.78311 
L 176.633575 85.438236 
L 177.182788 88.829992 
L 177.732 88.827915 
L 178.281213 89.180526 
L 178.830426 91.097696 
L 179.379638 89.851234 
L 179.928851 92.883443 
L 180.478063 102.596591 
L 181.027276 110.064777 
L 182.125701 119.387848 
L 182.674914 121.60765 
L 183.224126 123.129038 
L 183.773339 121.789606 
L 184.322552 121.761089 
L 184.871764 123.314502 
L 185.420977 122.090076 
L 185.970189 114.676495 
L 186.519402 108.873118 
L 187.068615 106.754248 
L 187.617827 107.765674 
L 188.16704 113.181622 
L 188.716252 113.22571 
L 189.265465 113.511679 
L 189.814678 111.618159 
L 190.36389 106.801995 
L 191.462315 94.621438 
L 192.011528 93.5752 
L 192.560741 88.509657 
L 193.659166 66.972598 
L 194.208378 60.491616 
L 194.757591 57.421755 
L 195.306804 56.819066 
L 195.856016 59.674311 
L 196.405229 67.978673 
L 196.954441 78.726002 
L 197.503654 86.009317 
L 198.052867 90.285756 
L 198.602079 92.761265 
L 199.151292 93.395642 
L 199.700504 95.62193 
L 200.249717 98.702588 
L 200.79893 101.017842 
L 201.348142 106.137492 
L 201.897355 105.611665 
L 202.446567 101.0797 
L 202.99578 100.847541 
L 203.544993 105.656609 
L 205.19263 129.83388 
L 205.741843 135.071762 
L 206.291056 132.788929 
L 206.840268 131.406015 
L 207.389481 131.057755 
L 207.938693 126.548382 
L 208.487906 125.484578 
L 209.037119 122.140009 
L 209.586331 112.294813 
L 210.135544 105.905239 
L 210.684756 102.053275 
L 211.233969 100.31887 
L 211.783182 95.628007 
L 212.332394 88.959511 
L 213.430819 84.707067 
L 213.980032 80.849843 
L 214.529245 78.599472 
L 215.078457 74.420937 
L 215.62767 68.685627 
L 217.275308 58.094398 
L 217.82452 60.97567 
L 218.373733 67.612418 
L 220.570583 83.634109 
L 221.119796 86.722773 
L 221.669008 91.646171 
L 223.316646 118.994001 
L 223.865859 123.939829 
L 224.415071 126.030158 
L 224.964284 128.659836 
L 225.513497 133.334767 
L 226.062709 135.826062 
L 227.161134 145.061315 
L 227.710347 144.276861 
L 228.808772 132.763385 
L 229.357985 125.338619 
L 229.907197 116.223386 
L 232.65326 91.289501 
L 233.751686 76.434872 
L 234.850111 64.64549 
L 235.948536 61.973405 
L 237.596174 50.007608 
L 238.145386 50.827623 
L 238.694599 54.148996 
L 241.440662 90.597955 
L 241.989875 96.073135 
L 242.539087 98.524401 
L 243.0883 103.075306 
L 243.637512 109.451068 
L 244.186725 111.009314 
L 244.735938 115.804392 
L 245.28515 121.694149 
L 245.834363 126.085201 
L 246.932788 133.167989 
L 247.482 138.22703 
L 248.031213 140.077238 
L 248.580426 140.708711 
L 249.129638 139.806815 
L 249.678851 135.789804 
L 251.875701 101.883212 
L 253.523339 86.427894 
L 254.621764 80.856683 
L 255.170977 77.182523 
L 255.720189 72.567196 
L 256.269402 70.570885 
L 256.818615 70.706485 
L 257.367827 68.968036 
L 257.91704 68.19579 
L 258.466252 65.146096 
L 259.015465 63.94044 
L 259.564678 66.113505 
L 260.11389 67.804994 
L 260.663103 73.020137 
L 261.212315 81.28484 
L 261.761528 87.432481 
L 262.310741 90.496805 
L 262.859953 95.65641 
L 263.409166 103.63765 
L 263.958378 109.229389 
L 264.507591 117.336358 
L 265.056804 121.847506 
L 265.606016 121.310329 
L 266.155229 121.673177 
L 266.704441 121.659234 
L 267.253654 124.020849 
L 267.802867 129.564116 
L 268.352079 133.105521 
L 268.901292 132.642054 
L 269.450504 128.828016 
L 269.999717 120.514836 
L 270.54893 115.950941 
L 271.098142 115.465781 
L 272.196567 110.091512 
L 273.294993 97.470042 
L 274.393418 84.079602 
L 274.94263 83.300227 
L 275.491843 83.578228 
L 276.041056 80.971955 
L 276.590268 76.547447 
L 277.139481 74.851745 
L 277.688693 74.435621 
L 278.237906 75.63015 
L 278.787119 79.47367 
L 279.336331 78.279274 
L 279.885544 73.430693 
L 280.434756 70.29462 
L 280.983969 71.196782 
L 281.533182 76.089537 
L 282.631607 93.804635 
L 283.730032 106.464329 
L 284.279245 108.92802 
L 284.828457 112.592764 
L 285.926882 129.94167 
L 286.476095 131.497801 
L 287.025308 128.726717 
L 287.57452 124.299315 
L 288.123733 118.090604 
L 289.222158 109.002276 
L 289.771371 102.149636 
L 290.320583 99.408476 
L 290.869796 100.303763 
L 291.419008 102.563627 
L 291.968221 103.486631 
L 292.517434 103.574868 
L 293.066646 98.625689 
L 293.615859 91.384089 
L 294.165071 85.97232 
L 294.714284 84.202391 
L 295.263497 86.454894 
L 295.812709 90.519939 
L 296.361922 92.213918 
L 297.460347 82.95625 
L 298.00956 83.583741 
L 298.558772 90.187421 
L 299.107985 99.160031 
L 299.657197 103.497514 
L 300.20641 104.191898 
L 300.755623 103.694732 
L 301.304835 100.834292 
L 301.854048 94.945028 
L 302.40326 90.902055 
L 302.952473 88.161409 
L 303.501686 87.225302 
L 304.050898 85.062905 
L 304.600111 85.284059 
L 305.698536 95.254618 
L 306.247749 97.966994 
L 306.796961 97.634191 
L 307.346174 97.944812 
L 307.895386 98.951296 
L 308.993812 105.151906 
L 309.543024 107.487213 
L 310.092237 106.526215 
L 310.641449 100.671631 
L 311.190662 97.234899 
L 311.739875 95.977666 
L 312.289087 96.543433 
L 312.8383 103.296852 
L 313.387512 111.973727 
L 313.936725 117.354345 
L 314.485937 118.759778 
L 315.03515 117.770621 
L 315.584363 116.253885 
L 316.133575 114.30919 
L 317.232 106.244024 
L 317.781213 104.403405 
L 318.330426 101.237 
L 318.879638 93.997122 
L 319.428851 84.879737 
L 319.978063 78.224501 
L 320.527276 74.775509 
L 321.076489 72.708506 
L 321.625701 73.614675 
L 322.724126 86.204887 
L 323.273339 87.475227 
L 323.822552 85.511948 
L 324.371764 81.522167 
L 324.920977 79.772251 
L 326.019402 88.084717 
L 327.117827 97.619698 
L 327.66704 99.813853 
L 328.216252 97.812501 
L 328.765465 98.206729 
L 329.314678 100.512484 
L 329.86389 104.91961 
L 330.413103 111.834305 
L 330.962315 115.788211 
L 331.511528 117.689839 
L 332.060741 117.810387 
L 332.609953 116.289417 
L 333.159166 114.410485 
L 333.708378 111.968219 
L 334.257591 111.734394 
L 334.806804 114.626618 
L 335.356016 116.052455 
L 335.905229 115.728866 
L 336.454441 114.824866 
L 337.003654 112.521354 
L 337.552867 107.998557 
L 338.651292 96.242837 
L 339.200504 92.279254 
L 339.749717 89.921133 
L 340.29893 85.272154 
L 341.397355 73.562204 
L 341.946567 70.189007 
L 342.49578 67.710276 
L 343.044993 66.350106 
L 343.594205 70.599314 
L 344.69263 84.852511 
L 345.241843 89.298962 
L 345.791056 90.904416 
L 346.340268 93.173848 
L 346.889481 96.438816 
L 347.987906 100.959184 
L 348.537119 105.038372 
L 350.733969 124.652213 
L 351.283182 127.75768 
L 351.832394 130.045491 
L 352.381607 130.574354 
L 353.480032 128.223437 
L 354.029245 126.368164 
L 354.578457 121.112128 
L 355.12767 112.19272 
L 356.226095 90.533611 
L 356.775308 82.71788 
L 357.32452 77.539298 
L 357.873733 75.250796 
L 358.422945 75.684949 
L 358.972158 75.903685 
L 360.619796 72.764643 
L 361.169008 71.567341 
L 361.718221 71.149093 
L 362.267434 72.063959 
L 362.816646 74.271887 
L 363.915071 79.922717 
L 365.013497 85.826688 
L 365.562709 87.81408 
L 366.111922 91.343278 
L 367.75956 112.4532 
L 368.308772 115.912859 
L 368.857985 115.73956 
L 369.407197 115.72711 
L 369.95641 115.419974 
L 370.505623 115.273867 
L 371.054835 117.923729 
L 371.604048 122.584931 
L 372.15326 126.164342 
L 372.702473 127.505044 
L 373.251686 126.903988 
L 374.350111 122.313749 
L 375.448536 116.477771 
L 376.546961 108.72384 
L 377.096174 103.10873 
L 378.743812 81.41901 
L 379.293024 77.266772 
L 379.842237 75.377194 
L 380.391449 75.93656 
L 380.940662 77.264788 
L 381.489875 77.128145 
L 382.039087 74.584699 
L 382.5883 72.744259 
L 383.137512 72.675887 
L 384.78515 78.230394 
L 385.883575 84.352181 
L 386.432788 86.895493 
L 386.982 91.035036 
L 388.629638 106.928255 
L 390.277276 118.061015 
L 390.826489 120.41035 
L 391.375701 121.491812 
L 391.924914 121.588822 
L 392.474126 120.519773 
L 393.023339 120.379269 
L 393.572552 121.719773 
L 394.121764 122.429584 
L 394.670977 121.428672 
L 395.220189 118.456633 
L 396.318615 109.006883 
L 396.867827 104.822757 
L 398.515465 88.606364 
L 399.61389 77.365367 
L 400.163103 73.320406 
L 400.712315 70.911769 
L 401.261528 71.228236 
L 401.810741 71.756882 
L 402.359953 71.928735 
L 402.909166 72.92888 
L 403.458378 74.983698 
L 405.106016 83.786788 
L 405.655229 84.999242 
L 406.204441 87.74163 
L 407.852079 101.13836 
L 409.499717 117.313801 
L 410.04893 121.42093 
L 410.598142 124.103439 
L 411.147355 124.629392 
L 411.696567 124.080817 
L 412.24578 122.424065 
L 412.794993 118.814919 
L 413.344205 114.253457 
L 413.893418 111.07733 
L 416.090268 100.899567 
L 416.639481 99.538825 
L 417.188693 99.781886 
L 417.737906 98.747264 
L 418.287119 96.632401 
L 419.385544 89.661309 
L 419.934756 85.43249 
L 421.033182 75.483886 
L 421.582394 72.65727 
L 422.131607 71.791786 
L 422.680819 73.473618 
L 423.230032 76.093369 
L 424.328457 83.803691 
L 425.426882 91.604052 
L 427.07452 103.975709 
L 427.623733 106.609474 
L 428.172945 107.930077 
L 428.722158 108.299464 
L 429.271371 108.099581 
L 429.820583 109.250573 
L 430.919008 115.794085 
L 431.468221 118.185334 
L 432.017434 119.375806 
L 433.115859 120.049008 
L 433.665071 118.593095 
L 434.214284 114.912189 
L 436.960347 92.092831 
L 437.50956 89.539736 
L 438.058772 87.818096 
L 439.157197 83.203567 
L 439.70641 81.771393 
L 440.255623 81.889983 
L 440.804835 82.410426 
L 441.354048 82.388779 
L 443.001686 79.720748 
L 443.550898 79.066939 
L 444.100111 80.199847 
L 444.649323 83.323679 
L 445.198536 87.346412 
L 446.846174 103.875569 
L 447.395386 107.683563 
L 449.043024 115.410508 
L 449.592237 116.209861 
L 450.690662 116.393034 
L 451.239875 115.564046 
L 452.3383 111.920782 
L 452.887512 111.037062 
L 453.436725 110.688698 
L 455.084363 107.895802 
L 455.633575 106.27231 
L 456.182788 103.367045 
L 457.281213 95.009933 
L 458.379638 85.825812 
L 458.928851 82.293078 
L 459.478063 79.984151 
L 460.027276 78.841903 
L 460.576489 78.861423 
L 461.125701 79.097271 
L 461.674914 79.498031 
L 462.224126 80.583174 
L 462.773339 82.439635 
L 465.519402 96.210983 
L 466.068615 97.526307 
L 467.16704 101.154242 
L 468.265465 105.860643 
L 469.36389 111.239898 
L 469.913103 112.316505 
L 471.011528 113.093487 
L 471.560741 113.204499 
L 472.659166 111.744477 
L 473.208378 110.639297 
L 473.757591 110.14783 
L 474.306804 108.903778 
L 474.306804 108.903778 
" clip-path="url(#p322b092f6a)" style="fill: none; stroke-dasharray: 4.44,1.92; stroke-dashoffset: 0; stroke: #ff0000; stroke-width: 1.2"/>
   </g>
   <g id="line2d_35">
    <path d="M 35.485937 98.085993 
L 36.584363 98.134354 
L 40.978063 98.854654 
L 42.076489 98.64729 
L 43.174914 98.554197 
L 44.273339 97.919522 
L 44.822552 97.782309 
L 45.371764 97.192088 
L 45.920977 96.859519 
L 46.470189 97.243712 
L 47.019402 97.975738 
L 49.216252 99.645468 
L 49.765465 99.303899 
L 50.314678 99.454344 
L 50.86389 100.834276 
L 51.413103 101.467618 
L 51.962315 101.186754 
L 53.060741 98.506409 
L 53.609953 98.006033 
L 54.159166 97.78761 
L 54.708378 98.727883 
L 55.257591 98.547667 
L 55.806804 97.944266 
L 56.356016 97.628992 
L 56.905229 96.574293 
L 57.454441 96.462246 
L 58.003654 97.009811 
L 59.651292 96.354123 
L 60.749717 93.731364 
L 61.29893 93.626906 
L 61.848142 92.368301 
L 63.49578 91.071266 
L 64.044993 91.768739 
L 64.594205 93.111141 
L 65.143418 94.119033 
L 65.69263 93.539555 
L 66.241843 93.607728 
L 67.889481 106.072274 
L 68.438693 109.512193 
L 68.987906 111.841878 
L 69.537119 111.87622 
L 70.635544 109.245537 
L 71.184756 107.242571 
L 72.283182 105.530252 
L 72.832394 103.91945 
L 73.930819 99.71612 
L 74.480032 98.4718 
L 75.029245 97.629956 
L 75.578457 97.183642 
L 76.12767 98.867505 
L 76.676882 101.265809 
L 77.226095 101.113507 
L 77.775308 97.538828 
L 78.32452 92.319256 
L 78.873733 88.636346 
L 79.422945 86.660503 
L 79.972158 87.125334 
L 80.521371 88.189124 
L 81.619796 85.279267 
L 82.169008 86.080754 
L 83.267434 92.002824 
L 84.365859 100.769477 
L 84.915071 98.900598 
L 86.013497 93.14492 
L 86.562709 94.303598 
L 87.111922 98.952621 
L 87.661134 100.686628 
L 88.75956 102.276516 
L 89.308772 101.151875 
L 89.857985 104.330488 
L 90.407197 109.678688 
L 90.95641 110.093323 
L 91.505623 110.153218 
L 92.054835 112.400852 
L 92.604048 112.973867 
L 93.702473 106.029386 
L 94.800898 101.109672 
L 95.899323 90.780027 
L 96.448536 88.141055 
L 96.997749 89.681168 
L 97.546961 89.801467 
L 98.096174 90.171486 
L 98.645386 91.22174 
L 99.743812 94.470255 
L 100.293024 97.156961 
L 100.842237 97.715912 
L 101.391449 95.661629 
L 101.940662 95.142114 
L 102.489875 93.168614 
L 103.5883 86.731408 
L 104.137512 84.346941 
L 105.235938 89.972938 
L 106.334363 97.12057 
L 106.883575 98.886315 
L 107.432788 101.919028 
L 107.982 103.807735 
L 108.531213 108.115012 
L 109.080426 110.425166 
L 109.629638 111.766458 
L 110.178851 109.601774 
L 111.277276 103.258507 
L 112.375701 108.268804 
L 113.474126 113.929162 
L 114.023339 112.805716 
L 114.572552 113.426739 
L 115.121764 111.12107 
L 116.220189 104.419794 
L 116.769402 96.105035 
L 117.318615 85.407593 
L 117.867827 77.055383 
L 118.41704 71.850172 
L 118.966252 71.751895 
L 119.515465 72.634366 
L 120.064678 72.796118 
L 120.61389 74.709772 
L 121.163103 79.384201 
L 122.810741 97.743248 
L 123.359953 103.373714 
L 123.909166 103.426942 
L 126.655229 88.068192 
L 127.204441 89.725992 
L 128.302867 100.139999 
L 128.852079 109.528474 
L 129.401292 116.358164 
L 129.950504 120.647071 
L 130.499717 122.044115 
L 131.04893 120.06688 
L 131.598142 119.107484 
L 132.147355 116.895815 
L 133.24578 106.834586 
L 133.794993 97.315087 
L 134.344205 91.43223 
L 134.893418 89.037955 
L 135.44263 85.588645 
L 135.991843 87.179698 
L 137.639481 101.884624 
L 138.188693 103.525983 
L 138.737906 100.438512 
L 139.287119 98.390683 
L 139.836331 94.527653 
L 140.385544 88.403303 
L 140.934756 85.740739 
L 141.483969 85.427281 
L 142.033182 84.572823 
L 142.582394 82.972658 
L 143.131607 83.226499 
L 143.680819 91.025474 
L 144.779245 110.023123 
L 145.328457 115.990402 
L 145.87767 117.002713 
L 146.426882 114.424669 
L 147.525308 107.032952 
L 148.07452 106.887869 
L 148.623733 104.260984 
L 149.172945 100.478795 
L 149.722158 98.178216 
L 150.271371 93.349766 
L 150.820583 90.114777 
L 151.369796 92.337776 
L 151.919008 96.687742 
L 152.468221 98.926721 
L 153.566646 95.419696 
L 154.115859 94.412871 
L 154.665071 92.864899 
L 155.763497 80.261979 
L 156.312709 79.836103 
L 157.411134 87.143712 
L 157.960347 91.955128 
L 158.50956 99.554429 
L 159.058772 104.794007 
L 159.607985 107.129066 
L 160.157197 105.288747 
L 161.255623 109.450195 
L 161.804835 111.880075 
L 162.354048 113.005904 
L 162.90326 107.719915 
L 163.452473 104.921384 
L 164.001686 105.739355 
L 165.100111 110.928785 
L 165.649323 114.125297 
L 166.747749 117.289088 
L 167.296961 115.419468 
L 167.846174 109.665305 
L 168.395386 106.09997 
L 168.944599 100.204309 
L 169.493812 91.492855 
L 170.043024 85.164596 
L 171.141449 67.06071 
L 171.690662 66.656374 
L 172.239875 67.474667 
L 172.789087 70.641169 
L 173.3383 76.265379 
L 173.887512 78.302539 
L 174.436725 81.716464 
L 174.985938 83.790567 
L 175.53515 84.241954 
L 176.084363 85.254111 
L 176.633575 85.634279 
L 177.182788 88.551438 
L 177.732 88.979291 
L 178.281213 89.025237 
L 178.830426 91.269678 
L 179.379638 90.198058 
L 179.928851 92.898019 
L 181.027276 110.048539 
L 182.125701 119.148012 
L 183.224126 123.497072 
L 183.773339 121.674735 
L 184.322552 121.851186 
L 184.871764 124.118891 
L 185.420977 121.878752 
L 185.970189 114.179753 
L 186.519402 109.479902 
L 187.068615 106.839643 
L 187.617827 107.898887 
L 188.16704 113.015927 
L 188.716252 113.31069 
L 189.265465 114.553555 
L 189.814678 112.373522 
L 190.36389 107.232092 
L 191.462315 95.224285 
L 192.011528 94.241821 
L 192.560741 88.389267 
L 193.659166 67.735057 
L 194.208378 60.994987 
L 194.757591 57.568439 
L 195.306804 56.66536 
L 195.856016 60.160575 
L 196.405229 67.780681 
L 196.954441 78.115587 
L 197.503654 85.498805 
L 198.052867 90.340541 
L 198.602079 93.091583 
L 199.151292 93.328218 
L 200.249717 98.802647 
L 200.79893 101.634672 
L 201.348142 106.581928 
L 201.897355 105.861051 
L 202.446567 101.8126 
L 202.99578 101.336795 
L 203.544993 105.514793 
L 205.741843 135.264043 
L 206.291056 132.529247 
L 206.840268 131.101493 
L 207.389481 131.406962 
L 207.938693 126.693543 
L 208.487906 124.879525 
L 209.037119 122.035997 
L 209.586331 113.050298 
L 210.135544 106.601707 
L 210.684756 101.937494 
L 211.233969 100.500089 
L 211.783182 95.910173 
L 212.332394 88.628796 
L 213.430819 85.004418 
L 213.980032 80.480385 
L 214.529245 78.926906 
L 215.078457 75.192411 
L 215.62767 69.084564 
L 216.726095 62.372257 
L 217.275308 58.453908 
L 217.82452 61.565228 
L 218.373733 67.643656 
L 219.472158 75.850591 
L 220.021371 79.290701 
L 220.570583 83.890491 
L 221.119796 86.381495 
L 221.669008 91.63901 
L 222.767434 111.242645 
L 223.316646 118.880441 
L 223.865859 124.463794 
L 224.964284 129.066071 
L 225.513497 133.564797 
L 226.062709 136.510563 
L 227.161134 145.091342 
L 227.710347 144.296397 
L 228.808772 132.696674 
L 230.45641 110.601028 
L 232.65326 91.291353 
L 234.850111 65.410235 
L 235.948536 62.292175 
L 236.497749 58.016617 
L 237.046961 54.675011 
L 237.596174 49.980399 
L 238.145386 51.219866 
L 238.694599 54.271649 
L 240.891449 84.559027 
L 241.989875 95.947401 
L 242.539087 97.958478 
L 243.0883 102.617506 
L 243.637512 109.44565 
L 244.186725 111.204006 
L 244.735938 115.994411 
L 245.28515 122.100241 
L 245.834363 126.522185 
L 246.932788 133.167933 
L 247.482 138.612452 
L 248.031213 140.180241 
L 248.580426 140.506432 
L 249.129638 139.652557 
L 249.678851 136.054225 
L 251.875701 101.643847 
L 253.523339 86.260753 
L 254.072552 83.858726 
L 255.170977 77.187807 
L 255.720189 72.614538 
L 256.269402 70.729694 
L 256.818615 71.03324 
L 257.367827 68.772161 
L 257.91704 68.171655 
L 258.466252 65.467555 
L 259.015465 64.173249 
L 260.11389 67.851427 
L 260.663103 73.040568 
L 261.212315 80.77319 
L 261.761528 86.88826 
L 262.310741 90.284011 
L 262.859953 95.407086 
L 263.409166 103.151559 
L 263.958378 109.200378 
L 264.507591 116.845132 
L 265.056804 121.527511 
L 266.155229 121.822923 
L 266.704441 121.454504 
L 267.253654 124.502429 
L 267.802867 129.799381 
L 268.352079 132.724775 
L 268.901292 132.506926 
L 269.450504 129.046202 
L 269.999717 120.706182 
L 270.54893 116.155895 
L 271.098142 115.576228 
L 272.196567 110.204988 
L 273.294993 97.203197 
L 274.393418 83.84648 
L 274.94263 82.954123 
L 275.491843 83.372143 
L 276.041056 80.607985 
L 276.590268 76.36795 
L 277.139481 74.860664 
L 277.688693 74.422915 
L 278.237906 75.54878 
L 278.787119 79.154969 
L 279.336331 78.232807 
L 280.434756 70.094627 
L 280.983969 70.865586 
L 281.533182 76.506887 
L 282.631607 93.626991 
L 283.730032 106.449296 
L 284.279245 108.90399 
L 284.828457 112.800405 
L 285.926882 130.039875 
L 286.476095 131.781581 
L 287.025308 128.551616 
L 287.57452 124.434527 
L 288.672945 113.45433 
L 289.222158 108.280032 
L 289.771371 101.901774 
L 290.320583 99.007521 
L 290.869796 99.502216 
L 291.419008 102.132797 
L 291.968221 103.699781 
L 292.517434 103.277012 
L 293.066646 98.40582 
L 294.165071 86.035384 
L 294.714284 84.126361 
L 295.263497 86.469896 
L 295.812709 90.328625 
L 296.361922 92.262849 
L 297.460347 83.059357 
L 298.00956 83.837101 
L 298.558772 90.445728 
L 299.107985 99.103005 
L 299.657197 103.280537 
L 300.20641 104.31138 
L 300.755623 103.919745 
L 301.304835 100.446695 
L 301.854048 94.902949 
L 302.40326 91.050557 
L 302.952473 88.294558 
L 303.501686 86.905338 
L 304.050898 84.537675 
L 304.600111 84.899952 
L 305.149323 90.7998 
L 305.698536 95.351813 
L 306.247749 97.750776 
L 306.796961 97.817928 
L 307.346174 98.227147 
L 307.895386 98.94921 
L 309.543024 107.646153 
L 310.092237 106.156333 
L 310.641449 100.317891 
L 311.190662 97.192184 
L 311.739875 96.197307 
L 312.289087 96.294039 
L 312.8383 102.97642 
L 313.387512 111.656934 
L 313.936725 117.391456 
L 314.485937 118.489272 
L 315.584363 116.663745 
L 316.133575 114.641634 
L 317.232 106.203749 
L 317.781213 104.725486 
L 318.330426 101.016798 
L 319.978063 78.592019 
L 320.527276 75.074232 
L 321.076489 72.327986 
L 321.625701 73.306298 
L 322.724126 85.958609 
L 323.273339 86.822164 
L 323.822552 85.311992 
L 324.371764 82.121994 
L 324.920977 79.972719 
L 325.470189 83.156812 
L 327.117827 97.495191 
L 327.66704 99.383973 
L 328.216252 98.064851 
L 328.765465 98.62392 
L 329.314678 100.630491 
L 329.86389 104.890729 
L 330.413103 111.674135 
L 330.962315 115.711844 
L 331.511528 117.711912 
L 332.060741 117.593716 
L 332.609953 115.98087 
L 333.159166 114.811566 
L 333.708378 112.022605 
L 334.257591 111.440144 
L 334.806804 114.720461 
L 335.356016 116.100158 
L 336.454441 115.010316 
L 337.003654 112.868616 
L 337.552867 108.243634 
L 338.651292 96.179766 
L 339.200504 92.547405 
L 339.749717 89.790015 
L 340.29893 84.929327 
L 341.397355 73.519412 
L 341.946567 70.050303 
L 342.49578 67.590978 
L 343.044993 66.181867 
L 343.594205 70.528133 
L 344.69263 84.117857 
L 345.241843 88.946695 
L 346.340268 93.572338 
L 346.889481 96.436922 
L 347.438693 98.626023 
L 347.987906 101.44715 
L 348.537119 105.261004 
L 351.283182 127.722828 
L 351.832394 129.915931 
L 352.381607 130.626508 
L 352.930819 129.618684 
L 353.480032 128.117523 
L 354.029245 126.19181 
L 354.578457 121.158953 
L 355.12767 112.280654 
L 356.226095 90.96315 
L 356.775308 83.100069 
L 357.32452 77.656918 
L 357.873733 75.17021 
L 358.422945 75.696318 
L 358.972158 75.827436 
L 360.619796 72.762686 
L 361.169008 71.750786 
L 361.718221 71.270661 
L 362.267434 72.071992 
L 362.816646 74.226002 
L 363.365859 77.268788 
L 363.915071 79.681455 
L 365.013497 86.044841 
L 365.562709 87.918336 
L 366.111922 91.358216 
L 367.75956 112.404783 
L 368.308772 115.843215 
L 369.407197 116.077391 
L 369.95641 115.561425 
L 370.505623 115.353656 
L 371.054835 118.180021 
L 371.604048 122.622913 
L 372.15326 125.895562 
L 372.702473 127.302546 
L 373.251686 126.92605 
L 373.800898 125.083999 
L 375.448536 116.518032 
L 375.997749 112.881515 
L 376.546961 108.428599 
L 377.096174 102.819473 
L 378.743812 81.507564 
L 379.293024 77.290618 
L 379.842237 75.346251 
L 380.391449 75.7064 
L 380.940662 77.108437 
L 381.489875 76.968885 
L 382.039087 74.588664 
L 382.5883 72.826729 
L 383.137512 72.858988 
L 383.686725 74.475786 
L 384.78515 78.376721 
L 385.883575 84.254268 
L 386.432788 86.772026 
L 387.531213 96.270962 
L 388.629638 106.807081 
L 390.277276 118.277509 
L 390.826489 120.476941 
L 391.375701 121.720894 
L 391.924914 121.894206 
L 392.474126 120.674844 
L 393.023339 120.437353 
L 393.572552 121.690881 
L 394.121764 122.317659 
L 394.670977 121.364245 
L 395.220189 118.231909 
L 397.966252 94.220332 
L 400.163103 73.349588 
L 400.712315 71.010027 
L 401.261528 71.195755 
L 401.810741 71.699143 
L 402.359953 71.907401 
L 402.909166 73.020068 
L 403.458378 74.934145 
L 405.106016 83.922047 
L 405.655229 85.225796 
L 406.204441 87.900115 
L 407.852079 101.206193 
L 409.499717 117.154289 
L 410.04893 121.239206 
L 410.598142 124.249169 
L 411.147355 124.863728 
L 411.696567 124.126254 
L 412.24578 122.420949 
L 412.794993 118.971926 
L 413.344205 114.3964 
L 413.893418 111.079273 
L 416.090268 100.737971 
L 416.639481 99.358274 
L 417.188693 99.523836 
L 417.737906 98.563363 
L 418.287119 96.597891 
L 419.385544 89.761688 
L 419.934756 85.566628 
L 420.483969 79.921567 
L 421.033182 75.473454 
L 421.582394 72.857741 
L 422.131607 71.646137 
L 422.680819 73.109277 
L 423.230032 75.962819 
L 424.87767 87.501661 
L 427.07452 104.126821 
L 427.623733 106.79705 
L 428.172945 107.97463 
L 428.722158 108.442923 
L 429.271371 108.244912 
L 429.820583 109.311935 
L 430.919008 115.497901 
L 431.468221 117.923961 
L 432.017434 119.207238 
L 433.115859 119.897172 
L 433.665071 118.447237 
L 434.214284 114.973323 
L 435.312709 105.580808 
L 436.411134 95.953247 
L 436.960347 92.079397 
L 437.50956 89.525915 
L 438.607985 85.492805 
L 439.157197 83.129138 
L 439.70641 81.787957 
L 440.255623 81.710793 
L 440.804835 82.311951 
L 441.354048 82.188713 
L 441.90326 81.515392 
L 442.452473 80.486739 
L 443.550898 79.149002 
L 444.100111 80.351781 
L 444.649323 83.4314 
L 445.198536 87.310049 
L 447.395386 107.698316 
L 449.043024 115.56486 
L 449.592237 116.159821 
L 450.690662 116.51228 
L 451.239875 115.619003 
L 452.3383 111.978266 
L 452.887512 111.209752 
L 453.436725 110.743497 
L 454.53515 108.791943 
L 455.084363 107.929386 
L 455.633575 106.123645 
L 456.182788 103.207489 
L 457.281213 95.12114 
L 458.379638 85.677549 
L 458.928851 82.248614 
L 459.478063 79.971014 
L 460.027276 78.713525 
L 460.576489 78.583165 
L 461.125701 79.014352 
L 461.674914 79.594439 
L 462.224126 80.649044 
L 462.773339 82.42649 
L 464.970189 94.027939 
L 465.519402 96.026104 
L 466.617827 98.687093 
L 467.16704 100.569276 
L 468.265465 105.564073 
L 469.36389 110.949607 
L 469.913103 112.544448 
L 471.011528 114.844356 
L 471.560741 115.032264 
L 472.109953 113.880008 
L 473.757591 109.422585 
L 474.306804 107.423313 
L 474.306804 107.423313 
" clip-path="url(#p322b092f6a)" style="fill: none; stroke-dasharray: 7.68,1.92,1.2,1.92; stroke-dashoffset: 0; stroke: #0000ff; stroke-width: 1.2"/>
   </g>
   <g id="line2d_36">
    <path d="M 35.485937 98.085993 
L 37.133575 98.187086 
L 40.978063 98.76395 
L 41.527276 98.51574 
L 43.724126 98.328111 
L 44.273339 97.937584 
L 45.371764 97.6832 
L 45.920977 96.939288 
L 47.019402 97.664609 
L 47.568615 98.444748 
L 48.117827 98.301993 
L 48.66704 98.859876 
L 49.216252 99.077159 
L 49.765465 99.092677 
L 50.314678 98.510949 
L 51.413103 100.537098 
L 51.962315 100.404932 
L 52.511528 99.795997 
L 53.060741 97.80128 
L 53.609953 97.982862 
L 54.159166 97.502185 
L 54.708378 98.450808 
L 55.257591 99.065717 
L 55.806804 97.954699 
L 56.356016 98.142622 
L 57.454441 96.33875 
L 58.003654 96.877115 
L 58.552867 97.004199 
L 59.102079 96.296979 
L 59.651292 96.119865 
L 60.200504 95.605436 
L 60.749717 94.177549 
L 61.29893 93.596651 
L 61.848142 93.605522 
L 62.397355 92.010749 
L 62.946567 93.277106 
L 63.49578 92.532602 
L 64.044993 93.078781 
L 64.594205 93.916025 
L 65.143418 95.683767 
L 65.69263 95.312833 
L 66.241843 94.739612 
L 66.791056 96.704179 
L 67.340268 102.229716 
L 68.987906 108.704322 
L 69.537119 109.420562 
L 70.086331 108.667279 
L 71.184756 106.315441 
L 71.733969 104.782219 
L 72.283182 105.739679 
L 73.381607 103.061947 
L 73.930819 100.891384 
L 74.480032 100.329029 
L 75.029245 99.044805 
L 75.578457 98.36885 
L 76.12767 98.32143 
L 76.676882 100.613643 
L 77.226095 100.181007 
L 77.775308 96.837831 
L 78.32452 91.157819 
L 78.873733 86.967743 
L 79.422945 85.264272 
L 79.972158 84.846739 
L 80.521371 87.498269 
L 81.070583 87.398122 
L 81.619796 85.828495 
L 82.169008 86.503607 
L 82.718221 89.333291 
L 83.267434 93.173713 
L 83.816646 94.928464 
L 84.365859 101.340117 
L 84.915071 100.79874 
L 85.464284 97.528641 
L 86.013497 96.441145 
L 86.562709 93.611778 
L 87.111922 98.144437 
L 87.661134 100.510256 
L 88.210347 101.030023 
L 88.75956 101.775465 
L 89.308772 102.155401 
L 89.857985 102.131923 
L 90.407197 108.733673 
L 90.95641 109.975069 
L 91.505623 109.71411 
L 92.054835 109.941908 
L 92.604048 113.51559 
L 93.702473 105.274511 
L 94.251686 103.200268 
L 95.899323 94.798493 
L 96.448536 90.14083 
L 96.997749 90.2526 
L 97.546961 92.167445 
L 98.096174 90.777038 
L 98.645386 91.961818 
L 99.194599 91.245825 
L 99.743812 94.431042 
L 100.293024 94.009477 
L 100.842237 96.752868 
L 101.391449 92.78024 
L 101.940662 92.908125 
L 102.489875 92.652092 
L 103.5883 86.815658 
L 104.137512 87.145024 
L 104.686725 86.686578 
L 105.235938 93.239473 
L 105.78515 94.579217 
L 106.334363 101.439495 
L 106.883575 100.710129 
L 107.432788 103.973578 
L 107.982 104.881607 
L 109.080426 109.360794 
L 110.178851 108.972201 
L 110.728063 104.608191 
L 111.277276 101.871886 
L 111.826489 101.119943 
L 112.375701 107.292098 
L 112.924914 106.842633 
L 113.474126 112.906096 
L 114.023339 111.232108 
L 114.572552 111.959267 
L 115.121764 111.6891 
L 115.670977 107.776142 
L 116.220189 105.664768 
L 116.769402 100.010132 
L 117.867827 82.139117 
L 118.41704 76.135088 
L 118.966252 74.08673 
L 119.515465 75.448203 
L 120.064678 74.837834 
L 120.61389 76.162139 
L 121.163103 78.52417 
L 121.712315 85.103137 
L 122.261528 89.995203 
L 122.810741 91.959959 
L 123.359953 99.321996 
L 123.909166 99.752305 
L 124.458378 98.628281 
L 125.007591 95.463723 
L 125.556804 94.729855 
L 126.106016 93.403517 
L 126.655229 92.857344 
L 127.204441 92.748563 
L 127.753654 100.538582 
L 128.302867 104.679914 
L 129.401292 119.006536 
L 129.950504 120.643768 
L 130.499717 123.71018 
L 131.04893 120.184293 
L 132.147355 114.701125 
L 133.24578 104.857346 
L 134.344205 89.075913 
L 134.893418 90.05845 
L 135.44263 87.669125 
L 135.991843 88.195453 
L 137.639481 102.749434 
L 138.188693 105.448105 
L 139.836331 93.517202 
L 140.385544 88.784583 
L 140.934756 82.312052 
L 141.483969 83.949762 
L 142.582394 82.428105 
L 143.131607 81.633026 
L 143.680819 87.187977 
L 144.779245 107.639112 
L 145.328457 113.783345 
L 145.87767 116.594895 
L 146.426882 114.096889 
L 146.976095 112.656519 
L 147.525308 107.103918 
L 148.07452 105.264768 
L 148.623733 104.751505 
L 149.172945 100.041553 
L 149.722158 98.708329 
L 150.820583 91.914104 
L 151.369796 92.944128 
L 151.919008 97.354424 
L 152.468221 100.306837 
L 153.017434 99.811062 
L 153.566646 97.165879 
L 154.115859 95.596713 
L 154.665071 91.873472 
L 155.214284 89.940519 
L 155.763497 80.720438 
L 156.312709 79.331635 
L 156.861922 82.098709 
L 157.411134 87.520328 
L 157.960347 90.001293 
L 159.607985 105.481846 
L 160.157197 106.103381 
L 160.70641 103.821857 
L 161.255623 109.849577 
L 161.804835 109.027592 
L 162.354048 114.208983 
L 162.90326 108.061822 
L 163.452473 104.292092 
L 164.001686 104.252673 
L 164.550898 107.086177 
L 165.100111 108.570583 
L 166.198536 114.306983 
L 166.747749 114.608127 
L 167.296961 114.233682 
L 168.395386 103.008654 
L 168.944599 99.805997 
L 169.493812 91.627751 
L 170.043024 85.438411 
L 170.592237 80.78633 
L 171.141449 71.340932 
L 171.690662 69.186589 
L 172.239875 72.298831 
L 172.789087 71.905523 
L 173.3383 78.215632 
L 173.887512 81.144061 
L 174.436725 82.699828 
L 174.985938 84.64181 
L 176.084363 85.504785 
L 176.633575 84.927686 
L 177.182788 86.780348 
L 177.732 90.833494 
L 178.281213 87.749016 
L 178.830426 93.027473 
L 179.379638 93.221593 
L 179.928851 95.506106 
L 180.478063 103.37377 
L 181.027276 114.755548 
L 182.125701 123.040659 
L 182.674914 124.397634 
L 183.224126 124.934366 
L 183.773339 123.400972 
L 184.322552 120.104125 
L 184.871764 121.832637 
L 185.420977 119.740218 
L 185.970189 116.174061 
L 186.519402 106.740268 
L 187.068615 106.653745 
L 187.617827 104.114223 
L 188.16704 110.110128 
L 188.716252 111.967725 
L 189.265465 109.746215 
L 189.814678 111.406207 
L 190.36389 106.057324 
L 190.913103 101.97978 
L 191.462315 92.767033 
L 192.011528 91.505112 
L 192.560741 89.819656 
L 193.659166 70.796913 
L 194.208378 63.507982 
L 194.757591 61.58209 
L 195.306804 60.194528 
L 195.856016 62.5423 
L 196.405229 68.530823 
L 196.954441 78.57507 
L 197.503654 85.706955 
L 198.052867 89.728349 
L 199.151292 92.100834 
L 199.700504 92.387737 
L 200.249717 97.288137 
L 200.79893 98.935998 
L 201.897355 108.23351 
L 202.446567 104.159699 
L 202.99578 103.546683 
L 203.544993 108.068958 
L 204.643418 123.964357 
L 205.19263 129.49242 
L 205.741843 137.425817 
L 206.291056 134.521786 
L 206.840268 128.846881 
L 207.389481 127.783569 
L 207.938693 123.60908 
L 208.487906 116.992908 
L 209.037119 118.059067 
L 209.586331 108.894392 
L 210.135544 101.787435 
L 210.684756 97.528662 
L 211.783182 94.961341 
L 212.332394 88.377856 
L 212.881607 86.835245 
L 213.430819 87.321724 
L 213.980032 83.246368 
L 215.078457 78.029411 
L 215.62767 71.03571 
L 216.176882 66.564471 
L 216.726095 64.405755 
L 217.82452 58.34235 
L 218.373733 66.225235 
L 219.472158 74.812982 
L 220.021371 79.040131 
L 220.570583 84.695634 
L 221.119796 88.937265 
L 221.669008 91.962269 
L 223.316646 118.819379 
L 223.865859 123.689258 
L 224.415071 126.537089 
L 224.964284 127.175576 
L 226.062709 134.908438 
L 226.611922 136.066642 
L 227.161134 141.460069 
L 227.710347 141.381794 
L 228.25956 138.016407 
L 228.808772 129.734088 
L 229.357985 124.881499 
L 229.907197 115.880559 
L 230.45641 110.141767 
L 231.005623 106.798295 
L 231.554835 101.118951 
L 232.104048 97.204163 
L 233.202473 84.421957 
L 233.751686 76.26366 
L 235.399323 60.358365 
L 235.948536 62.397593 
L 236.497749 57.566067 
L 237.046961 55.104069 
L 237.596174 51.047888 
L 238.145386 50.903028 
L 239.243812 60.513803 
L 239.793024 71.91761 
L 240.342237 77.083278 
L 240.891449 86.392113 
L 241.440662 92.912077 
L 242.539087 102.491784 
L 243.0883 103.584136 
L 243.637512 111.951307 
L 244.186725 115.640734 
L 244.735938 116.911809 
L 245.28515 124.722961 
L 245.834363 127.340219 
L 246.383575 131.284619 
L 246.932788 132.637273 
L 247.482 137.335293 
L 248.031213 140.563821 
L 248.580426 138.957423 
L 249.129638 139.348304 
L 249.678851 134.826313 
L 250.228063 128.310412 
L 250.777276 118.653008 
L 251.326489 112.457807 
L 251.875701 102.529827 
L 252.424914 96.111658 
L 252.974126 93.002514 
L 254.072552 82.727773 
L 254.621764 82.018449 
L 255.170977 77.523955 
L 255.720189 74.391547 
L 256.269402 68.530933 
L 256.818615 71.089445 
L 257.367827 68.182273 
L 257.91704 66.608364 
L 258.466252 65.551584 
L 259.015465 62.716169 
L 260.11389 68.04668 
L 260.663103 71.903166 
L 261.212315 80.9901 
L 262.310741 93.768966 
L 262.859953 96.474742 
L 263.958378 111.06162 
L 264.507591 115.501924 
L 265.056804 123.784745 
L 265.606016 122.476397 
L 266.155229 122.635801 
L 266.704441 122.669097 
L 267.253654 122.897654 
L 267.802867 126.46951 
L 268.352079 131.217283 
L 268.901292 131.177396 
L 269.450504 128.99479 
L 270.54893 115.632935 
L 271.098142 114.959831 
L 271.647355 112.79784 
L 272.74578 105.630772 
L 273.294993 96.835222 
L 273.844205 91.955566 
L 274.393418 83.495984 
L 274.94263 80.604663 
L 275.491843 81.251734 
L 276.041056 79.702524 
L 276.590268 76.914787 
L 277.139481 72.942478 
L 277.688693 73.617291 
L 278.237906 72.276278 
L 278.787119 75.594476 
L 279.336331 78.214344 
L 279.885544 74.541354 
L 280.434756 72.579806 
L 280.983969 73.579143 
L 281.533182 77.320598 
L 282.082394 84.50129 
L 282.631607 93.993734 
L 283.730032 105.833665 
L 284.279245 109.117294 
L 284.828457 111.493644 
L 285.37767 116.374616 
L 285.926882 125.28652 
L 286.476095 129.496935 
L 287.025308 126.868636 
L 287.57452 123.202165 
L 288.672945 113.553858 
L 289.222158 111.59447 
L 289.771371 105.610694 
L 290.320583 102.564336 
L 290.869796 103.906202 
L 291.419008 105.745784 
L 291.968221 105.921926 
L 293.066646 100.733037 
L 293.615859 91.762579 
L 294.165071 86.21183 
L 294.714284 82.285492 
L 295.812709 83.792408 
L 296.361922 86.605493 
L 296.911134 84.2002 
L 297.460347 79.27844 
L 298.00956 80.312203 
L 298.558772 85.113354 
L 299.107985 95.300738 
L 299.657197 101.570943 
L 300.20641 103.822422 
L 300.755623 104.522493 
L 301.304835 103.307326 
L 301.854048 99.007932 
L 302.40326 93.217627 
L 303.501686 89.896243 
L 304.050898 91.515141 
L 304.600111 88.091131 
L 305.149323 92.931077 
L 306.247749 98.762417 
L 306.796961 97.760419 
L 307.346174 98.085626 
L 307.895386 99.000606 
L 308.993812 103.444096 
L 309.543024 104.21981 
L 310.092237 105.231528 
L 310.641449 101.592587 
L 311.190662 97.03462 
L 311.739875 97.807315 
L 312.289087 97.971199 
L 312.8383 102.292033 
L 313.387512 110.702661 
L 313.936725 116.767296 
L 314.485937 118.763102 
L 315.03515 116.911144 
L 316.133575 111.650653 
L 316.682788 108.479055 
L 317.232 104.001023 
L 317.781213 101.345714 
L 318.330426 100.079127 
L 318.879638 95.390257 
L 319.978063 80.212388 
L 320.527276 77.931211 
L 321.076489 77.854034 
L 321.625701 77.959294 
L 322.174914 81.727945 
L 322.724126 88.436859 
L 323.273339 89.887098 
L 324.371764 83.157125 
L 324.920977 79.496398 
L 325.470189 81.396381 
L 326.019402 86.270691 
L 326.568615 88.895335 
L 327.117827 94.045073 
L 327.66704 98.036501 
L 328.216252 98.579162 
L 328.765465 97.545329 
L 329.314678 102.501279 
L 329.86389 105.886713 
L 330.413103 113.356665 
L 330.962315 118.385218 
L 331.511528 120.946514 
L 332.060741 120.669982 
L 332.609953 118.370575 
L 333.159166 115.348271 
L 333.708378 113.086413 
L 334.257591 110.214178 
L 334.806804 112.589845 
L 335.356016 113.96527 
L 335.905229 113.052652 
L 337.003654 108.76612 
L 337.552867 105.283174 
L 338.651292 95.674292 
L 339.749717 90.182068 
L 340.29893 88.674615 
L 340.848142 82.245342 
L 341.946567 73.326441 
L 342.49578 73.001974 
L 343.044993 70.035826 
L 343.594205 71.825898 
L 344.69263 83.61594 
L 345.241843 87.198509 
L 345.791056 88.798185 
L 346.340268 89.126949 
L 346.889481 92.786054 
L 347.438693 95.08931 
L 347.987906 98.09425 
L 348.537119 102.011936 
L 349.635544 112.999981 
L 351.283182 126.922728 
L 352.381607 131.085152 
L 352.930819 129.935839 
L 353.480032 128.127322 
L 354.029245 125.393622 
L 354.578457 120.959854 
L 355.676882 102.725337 
L 356.226095 92.579278 
L 356.775308 84.742831 
L 357.32452 79.875214 
L 357.873733 76.918207 
L 358.422945 76.722786 
L 358.972158 77.146097 
L 359.521371 76.162946 
L 361.169008 71.621329 
L 361.718221 70.897838 
L 362.267434 71.615083 
L 362.816646 73.368304 
L 364.464284 81.425334 
L 366.111922 93.111275 
L 366.661134 99.595443 
L 367.75956 114.443299 
L 368.308772 119.233816 
L 368.857985 118.893212 
L 369.407197 118.058036 
L 369.95641 118.112179 
L 370.505623 117.33821 
L 371.054835 117.913297 
L 372.15326 124.542115 
L 372.702473 125.301315 
L 373.251686 124.27913 
L 373.800898 122.183768 
L 375.448536 113.514518 
L 375.997749 111.082023 
L 377.096174 103.09996 
L 378.743812 82.28401 
L 379.842237 76.280371 
L 380.391449 76.535687 
L 380.940662 77.016908 
L 381.489875 77.679273 
L 382.5883 72.040489 
L 383.137512 71.29009 
L 383.686725 72.547954 
L 384.235937 75.252632 
L 384.78515 76.896947 
L 385.334363 79.799303 
L 385.883575 84.01037 
L 386.432788 86.599684 
L 387.531213 96.411342 
L 388.629638 108.0015 
L 389.178851 112.539189 
L 390.826489 121.471725 
L 391.375701 121.624962 
L 391.924914 121.601368 
L 393.023339 119.568899 
L 393.572552 119.660767 
L 394.121764 120.470426 
L 394.670977 119.349852 
L 395.220189 117.128142 
L 396.867827 104.711695 
L 397.41704 100.486555 
L 399.61389 79.740296 
L 400.712315 72.715062 
L 401.261528 72.038903 
L 401.810741 72.75799 
L 402.359953 72.753765 
L 402.909166 73.290993 
L 403.458378 74.633155 
L 404.007591 76.793251 
L 405.106016 82.760831 
L 405.655229 84.578484 
L 406.204441 86.884425 
L 408.401292 106.574654 
L 409.499717 117.654356 
L 410.598142 124.736066 
L 411.147355 125.550491 
L 411.696567 124.596442 
L 412.24578 123.274234 
L 412.794993 120.556467 
L 413.893418 112.011166 
L 414.44263 109.763196 
L 415.541056 103.761308 
L 416.090268 101.907729 
L 416.639481 99.18502 
L 417.188693 98.710288 
L 417.737906 97.874144 
L 418.287119 95.437478 
L 418.836331 92.370659 
L 419.385544 88.050081 
L 419.934756 85.094298 
L 421.033182 75.764723 
L 421.582394 73.689025 
L 422.131607 72.706575 
L 422.680819 74.223521 
L 423.779245 80.535168 
L 424.328457 84.950704 
L 425.426882 91.795455 
L 426.525308 99.361566 
L 427.07452 102.592301 
L 427.623733 105.158798 
L 428.722158 107.207661 
L 429.271371 107.308889 
L 429.820583 108.495267 
L 430.369796 111.276991 
L 430.919008 115.479619 
L 431.468221 118.06596 
L 432.017434 120.041432 
L 432.566646 119.916098 
L 433.115859 120.19897 
L 433.665071 118.928007 
L 434.214284 115.787141 
L 436.960347 92.180231 
L 437.50956 88.815327 
L 439.70641 81.755422 
L 440.255623 81.717633 
L 440.804835 82.157177 
L 441.354048 82.341707 
L 441.90326 81.701056 
L 442.452473 80.863998 
L 443.001686 80.361799 
L 443.550898 80.26675 
L 444.100111 80.568776 
L 445.198536 87.655051 
L 447.395386 107.305377 
L 447.944599 109.460794 
L 449.043024 114.491554 
L 449.592237 115.778307 
L 450.141449 115.914898 
L 450.690662 115.887767 
L 451.239875 115.504678 
L 452.887512 111.350466 
L 453.436725 111.330266 
L 453.985937 110.591195 
L 454.53515 109.332402 
L 455.084363 107.772897 
L 455.633575 105.766424 
L 456.182788 102.909393 
L 458.928851 81.98535 
L 459.478063 79.717541 
L 460.027276 78.703248 
L 460.576489 78.79815 
L 461.674914 80.073953 
L 462.224126 81.400312 
L 462.773339 83.182566 
L 463.322552 85.500451 
L 464.420977 91.180505 
L 465.519402 95.42409 
L 466.068615 96.435939 
L 466.617827 97.962837 
L 467.716252 102.446038 
L 469.36389 111.49586 
L 469.913103 113.067022 
L 470.462315 114.264095 
L 471.011528 115.07811 
L 471.560741 115.59643 
L 472.109953 114.613896 
L 473.757591 109.203425 
L 474.306804 107.442228 
L 474.306804 107.442228 
" clip-path="url(#p322b092f6a)" style="fill: none; stroke-dasharray: 1.2,1.98; stroke-dashoffset: 0; stroke: #008000; stroke-width: 1.2"/>
   </g>
   <g id="patch_3">
    <path d="M 35.485937 185.393079 
L 35.485937 10.778906 
" style="fill: none; stroke: #000000; stroke-width: 0.8; stroke-linejoin: miter; stroke-linecap: square"/>
   </g>
   <g id="patch_4">
    <path d="M 474.856016 185.393079 
L 474.856016 10.778906 
" style="fill: none; stroke: #000000; stroke-width: 0.8; stroke-linejoin: miter; stroke-linecap: square"/>
   </g>
   <g id="patch_5">
    <path d="M 35.485937 185.393079 
L 474.856016 185.393079 
" style="fill: none; stroke: #000000; stroke-width: 0.8; stroke-linejoin: miter; stroke-linecap: square"/>
   </g>
   <g id="patch_6">
    <path d="M 35.485937 10.778906 
L 474.856016 10.778906 
" style="fill: none; stroke: #000000; stroke-width: 0.8; stroke-linejoin: miter; stroke-linecap: square"/>
   </g>
   <g id="text_19">
    <!-- 13th floor -->
    <g transform="translate(410.073696 166.151464) scale(0.1 -0.1)">
     <defs>
      <path id="ArialMT-68" d="M 422 0 
L 422 4581 
L 984 4581 
L 984 2938 
Q 1378 3394 1978 3394 
Q 2347 3394 2619 3248 
Q 2891 3103 3008 2847 
Q 3125 2591 3125 2103 
L 3125 0 
L 2563 0 
L 2563 2103 
Q 2563 2525 2380 2717 
Q 2197 2909 1863 2909 
Q 1613 2909 1392 2779 
Q 1172 2650 1078 2428 
Q 984 2206 984 1816 
L 984 0 
L 422 0 
z
" transform="scale(0.015625)"/>
      <path id="ArialMT-66" d="M 556 0 
L 556 2881 
L 59 2881 
L 59 3319 
L 556 3319 
L 556 3672 
Q 556 4006 616 4169 
Q 697 4388 901 4523 
Q 1106 4659 1475 4659 
Q 1713 4659 2000 4603 
L 1916 4113 
Q 1741 4144 1584 4144 
Q 1328 4144 1222 4034 
Q 1116 3925 1116 3625 
L 1116 3319 
L 1763 3319 
L 1763 2881 
L 1116 2881 
L 1116 0 
L 556 0 
z
" transform="scale(0.015625)"/>
      <path id="ArialMT-72" d="M 416 0 
L 416 3319 
L 922 3319 
L 922 2816 
Q 1116 3169 1280 3281 
Q 1444 3394 1641 3394 
Q 1925 3394 2219 3213 
L 2025 2691 
Q 1819 2813 1613 2813 
Q 1428 2813 1281 2702 
Q 1134 2591 1072 2394 
Q 978 2094 978 1738 
L 978 0 
L 416 0 
z
" transform="scale(0.015625)"/>
     </defs>
     <use xlink:href="#ArialMT-31"/>
     <use xlink:href="#ArialMT-33" x="55.615234"/>
     <use xlink:href="#ArialMT-74" x="111.230469"/>
     <use xlink:href="#ArialMT-68" x="139.013672"/>
     <use xlink:href="#ArialMT-20" x="194.628906"/>
     <use xlink:href="#ArialMT-66" x="222.412109"/>
     <use xlink:href="#ArialMT-6c" x="250.195312"/>
     <use xlink:href="#ArialMT-6f" x="272.412109"/>
     <use xlink:href="#ArialMT-6f" x="328.027344"/>
     <use xlink:href="#ArialMT-72" x="383.642578"/>
    </g>
   </g>
   <g id="legend_1">
    <g id="patch_7">
     <path d="M 124.587266 32.924219 
L 467.856016 32.924219 
Q 469.856016 32.924219 469.856016 30.924219 
L 469.856016 17.778906 
Q 469.856016 15.778906 467.856016 15.778906 
L 124.587266 15.778906 
Q 122.587266 15.778906 122.587266 17.778906 
L 122.587266 30.924219 
Q 122.587266 32.924219 124.587266 32.924219 
z
" style="fill: #ffffff; opacity: 0.8; stroke: #000000; stroke-linejoin: miter"/>
    </g>
    <g id="line2d_37">
     <path d="M 126.587266 23.436719 
L 136.587266 23.436719 
L 146.587266 23.436719 
" style="fill: none; stroke: #000000; stroke-width: 1.2; stroke-linecap: square"/>
    </g>
    <g id="text_20">
     <!-- Ref. -->
     <g transform="translate(154.587266 26.936719) scale(0.1 -0.1)">
      <defs>
       <path id="ArialMT-52" d="M 503 0 
L 503 4581 
L 2534 4581 
Q 3147 4581 3465 4457 
Q 3784 4334 3975 4021 
Q 4166 3709 4166 3331 
Q 4166 2844 3850 2509 
Q 3534 2175 2875 2084 
Q 3116 1969 3241 1856 
Q 3506 1613 3744 1247 
L 4541 0 
L 3778 0 
L 3172 953 
Q 2906 1366 2734 1584 
Q 2563 1803 2427 1890 
Q 2291 1978 2150 2013 
Q 2047 2034 1813 2034 
L 1109 2034 
L 1109 0 
L 503 0 
z
M 1109 2559 
L 2413 2559 
Q 2828 2559 3062 2645 
Q 3297 2731 3419 2920 
Q 3541 3109 3541 3331 
Q 3541 3656 3305 3865 
Q 3069 4075 2559 4075 
L 1109 4075 
L 1109 2559 
z
" transform="scale(0.015625)"/>
       <path id="ArialMT-2e" d="M 581 0 
L 581 641 
L 1222 641 
L 1222 0 
L 581 0 
z
" transform="scale(0.015625)"/>
      </defs>
      <use xlink:href="#ArialMT-52"/>
      <use xlink:href="#ArialMT-65" x="72.216797"/>
      <use xlink:href="#ArialMT-66" x="127.832031"/>
      <use xlink:href="#ArialMT-2e" x="155.615234"/>
     </g>
    </g>
    <g id="line2d_38">
     <path d="M 192.926329 23.436719 
L 202.926329 23.436719 
L 212.926329 23.436719 
" style="fill: none; stroke-dasharray: 4.44,1.92; stroke-dashoffset: 0; stroke: #ff0000; stroke-width: 1.2"/>
    </g>
    <g id="text_21">
     <!-- BiRNN pred. -->
     <g transform="translate(220.926329 26.936719) scale(0.1 -0.1)">
      <defs>
       <path id="ArialMT-42" d="M 469 0 
L 469 4581 
L 2188 4581 
Q 2713 4581 3030 4442 
Q 3347 4303 3526 4014 
Q 3706 3725 3706 3409 
Q 3706 3116 3547 2856 
Q 3388 2597 3066 2438 
Q 3481 2316 3704 2022 
Q 3928 1728 3928 1328 
Q 3928 1006 3792 729 
Q 3656 453 3456 303 
Q 3256 153 2954 76 
Q 2653 0 2216 0 
L 469 0 
z
M 1075 2656 
L 2066 2656 
Q 2469 2656 2644 2709 
Q 2875 2778 2992 2937 
Q 3109 3097 3109 3338 
Q 3109 3566 3000 3739 
Q 2891 3913 2687 3977 
Q 2484 4041 1991 4041 
L 1075 4041 
L 1075 2656 
z
M 1075 541 
L 2216 541 
Q 2509 541 2628 563 
Q 2838 600 2978 687 
Q 3119 775 3209 942 
Q 3300 1109 3300 1328 
Q 3300 1584 3169 1773 
Q 3038 1963 2805 2039 
Q 2572 2116 2134 2116 
L 1075 2116 
L 1075 541 
z
" transform="scale(0.015625)"/>
       <path id="ArialMT-4e" d="M 488 0 
L 488 4581 
L 1109 4581 
L 3516 984 
L 3516 4581 
L 4097 4581 
L 4097 0 
L 3475 0 
L 1069 3600 
L 1069 0 
L 488 0 
z
" transform="scale(0.015625)"/>
       <path id="ArialMT-70" d="M 422 -1272 
L 422 3319 
L 934 3319 
L 934 2888 
Q 1116 3141 1344 3267 
Q 1572 3394 1897 3394 
Q 2322 3394 2647 3175 
Q 2972 2956 3137 2557 
Q 3303 2159 3303 1684 
Q 3303 1175 3120 767 
Q 2938 359 2589 142 
Q 2241 -75 1856 -75 
Q 1575 -75 1351 44 
Q 1128 163 984 344 
L 984 -1272 
L 422 -1272 
z
M 931 1641 
Q 931 1000 1190 694 
Q 1450 388 1819 388 
Q 2194 388 2461 705 
Q 2728 1022 2728 1688 
Q 2728 2322 2467 2637 
Q 2206 2953 1844 2953 
Q 1484 2953 1207 2617 
Q 931 2281 931 1641 
z
" transform="scale(0.015625)"/>
       <path id="ArialMT-64" d="M 2575 0 
L 2575 419 
Q 2259 -75 1647 -75 
Q 1250 -75 917 144 
Q 584 363 401 755 
Q 219 1147 219 1656 
Q 219 2153 384 2558 
Q 550 2963 881 3178 
Q 1213 3394 1622 3394 
Q 1922 3394 2156 3267 
Q 2391 3141 2538 2938 
L 2538 4581 
L 3097 4581 
L 3097 0 
L 2575 0 
z
M 797 1656 
Q 797 1019 1065 703 
Q 1334 388 1700 388 
Q 2069 388 2326 689 
Q 2584 991 2584 1609 
Q 2584 2291 2321 2609 
Q 2059 2928 1675 2928 
Q 1300 2928 1048 2622 
Q 797 2316 797 1656 
z
" transform="scale(0.015625)"/>
      </defs>
      <use xlink:href="#ArialMT-42"/>
      <use xlink:href="#ArialMT-69" x="66.699219"/>
      <use xlink:href="#ArialMT-52" x="88.916016"/>
      <use xlink:href="#ArialMT-4e" x="161.132812"/>
      <use xlink:href="#ArialMT-4e" x="233.349609"/>
      <use xlink:href="#ArialMT-20" x="305.566406"/>
      <use xlink:href="#ArialMT-70" x="333.349609"/>
      <use xlink:href="#ArialMT-72" x="388.964844"/>
      <use xlink:href="#ArialMT-65" x="422.265625"/>
      <use xlink:href="#ArialMT-64" x="477.880859"/>
      <use xlink:href="#ArialMT-2e" x="533.496094"/>
     </g>
    </g>
    <g id="line2d_39">
     <path d="M 297.052891 23.436719 
L 307.052891 23.436719 
L 317.052891 23.436719 
" style="fill: none; stroke-dasharray: 7.68,1.92,1.2,1.92; stroke-dashoffset: 0; stroke: #0000ff; stroke-width: 1.2"/>
    </g>
    <g id="text_22">
     <!-- RNN pred. -->
     <g transform="translate(325.052891 26.936719) scale(0.1 -0.1)">
      <use xlink:href="#ArialMT-52"/>
      <use xlink:href="#ArialMT-4e" x="72.216797"/>
      <use xlink:href="#ArialMT-4e" x="144.433594"/>
      <use xlink:href="#ArialMT-20" x="216.650391"/>
      <use xlink:href="#ArialMT-70" x="244.433594"/>
      <use xlink:href="#ArialMT-72" x="300.048828"/>
      <use xlink:href="#ArialMT-65" x="333.349609"/>
      <use xlink:href="#ArialMT-64" x="388.964844"/>
      <use xlink:href="#ArialMT-2e" x="444.580078"/>
     </g>
    </g>
    <g id="line2d_40">
     <path d="M 392.287266 23.436719 
L 402.287266 23.436719 
L 412.287266 23.436719 
" style="fill: none; stroke-dasharray: 1.2,1.98; stroke-dashoffset: 0; stroke: #008000; stroke-width: 1.2"/>
    </g>
    <g id="text_23">
     <!-- DKF pred. -->
     <g transform="translate(420.287266 26.936719) scale(0.1 -0.1)">
      <defs>
       <path id="ArialMT-44" d="M 494 0 
L 494 4581 
L 2072 4581 
Q 2606 4581 2888 4516 
Q 3281 4425 3559 4188 
Q 3922 3881 4101 3404 
Q 4281 2928 4281 2316 
Q 4281 1794 4159 1391 
Q 4038 988 3847 723 
Q 3656 459 3429 307 
Q 3203 156 2883 78 
Q 2563 0 2147 0 
L 494 0 
z
M 1100 541 
L 2078 541 
Q 2531 541 2789 625 
Q 3047 709 3200 863 
Q 3416 1078 3536 1442 
Q 3656 1806 3656 2325 
Q 3656 3044 3420 3430 
Q 3184 3816 2847 3947 
Q 2603 4041 2063 4041 
L 1100 4041 
L 1100 541 
z
" transform="scale(0.015625)"/>
       <path id="ArialMT-4b" d="M 469 0 
L 469 4581 
L 1075 4581 
L 1075 2309 
L 3350 4581 
L 4172 4581 
L 2250 2725 
L 4256 0 
L 3456 0 
L 1825 2319 
L 1075 1588 
L 1075 0 
L 469 0 
z
" transform="scale(0.015625)"/>
       <path id="ArialMT-46" d="M 525 0 
L 525 4581 
L 3616 4581 
L 3616 4041 
L 1131 4041 
L 1131 2622 
L 3281 2622 
L 3281 2081 
L 1131 2081 
L 1131 0 
L 525 0 
z
" transform="scale(0.015625)"/>
      </defs>
      <use xlink:href="#ArialMT-44"/>
      <use xlink:href="#ArialMT-4b" x="72.216797"/>
      <use xlink:href="#ArialMT-46" x="138.916016"/>
      <use xlink:href="#ArialMT-20" x="200"/>
      <use xlink:href="#ArialMT-70" x="227.783203"/>
      <use xlink:href="#ArialMT-72" x="283.398438"/>
      <use xlink:href="#ArialMT-65" x="316.699219"/>
      <use xlink:href="#ArialMT-64" x="372.314453"/>
      <use xlink:href="#ArialMT-2e" x="427.929688"/>
     </g>
    </g>
   </g>
  </g>
 </g>
 <defs>
  <clipPath id="p322b092f6a">
   <rect x="35.485937" y="10.778906" width="439.370079" height="174.614173"/>
  </clipPath>
 </defs>
</svg>
